G04 #@! TF.GenerationSoftware,KiCad,Pcbnew,(5.1.5)-3*
G04 #@! TF.CreationDate,2021-12-07T14:22:12+01:00*
G04 #@! TF.ProjectId,dual_ocxo_themis,6475616c-5f6f-4637-986f-5f7468656d69,rev?*
G04 #@! TF.SameCoordinates,Original*
G04 #@! TF.FileFunction,Paste,Bot*
G04 #@! TF.FilePolarity,Positive*
%FSLAX46Y46*%
G04 Gerber Fmt 4.6, Leading zero omitted, Abs format (unit mm)*
G04 Created by KiCad (PCBNEW (5.1.5)-3) date 2021-12-07 14:22:12*
%MOMM*%
%LPD*%
G04 APERTURE LIST*
%ADD10R,1.600000X2.000000*%
%ADD11R,1.500000X1.250000*%
%ADD12R,1.250000X1.500000*%
%ADD13R,2.500000X3.750000*%
%ADD14R,1.300000X1.500000*%
%ADD15R,2.000000X3.500000*%
%ADD16R,7.000000X7.000000*%
%ADD17R,0.508000X1.143000*%
%ADD18R,2.300000X3.500000*%
%ADD19R,1.500000X1.300000*%
%ADD20R,0.800000X0.900000*%
%ADD21R,0.900000X0.800000*%
%ADD22R,1.550000X0.600000*%
G04 APERTURE END LIST*
D10*
X114000000Y-61000000D03*
X114000000Y-57000000D03*
D11*
X97250000Y-65000000D03*
X94750000Y-65000000D03*
D10*
X94000000Y-61000000D03*
X94000000Y-57000000D03*
D12*
X114000000Y-69250000D03*
X114000000Y-66750000D03*
D13*
X100000000Y-61125000D03*
X100000000Y-54875000D03*
D14*
X114000000Y-79350000D03*
X114000000Y-76650000D03*
X114500000Y-90850000D03*
X114500000Y-88150000D03*
D15*
X109290000Y-60700000D03*
X104710000Y-60700000D03*
D16*
X106990000Y-53300000D03*
D17*
X105095000Y-82175000D03*
X106365000Y-82175000D03*
X107635000Y-82175000D03*
X108905000Y-82175000D03*
X108905000Y-75825000D03*
X107635000Y-75825000D03*
X106365000Y-75825000D03*
X105095000Y-75825000D03*
D18*
X120000000Y-60700000D03*
X120000000Y-55300000D03*
D10*
X114000000Y-110700000D03*
X114000000Y-106700000D03*
D11*
X97250000Y-114700000D03*
X94750000Y-114700000D03*
D10*
X94000000Y-110700000D03*
X94000000Y-106700000D03*
D12*
X114000000Y-118950000D03*
X114000000Y-116450000D03*
D13*
X100000000Y-110825000D03*
X100000000Y-104575000D03*
D14*
X114000000Y-129050000D03*
X114000000Y-126350000D03*
X114500000Y-140550000D03*
X114500000Y-137850000D03*
D15*
X109290000Y-110400000D03*
X104710000Y-110400000D03*
D16*
X106990000Y-103000000D03*
D17*
X105095000Y-131875000D03*
X106365000Y-131875000D03*
X107635000Y-131875000D03*
X108905000Y-131875000D03*
X108905000Y-125525000D03*
X107635000Y-125525000D03*
X106365000Y-125525000D03*
X105095000Y-125525000D03*
D18*
X120000000Y-110400000D03*
X120000000Y-105000000D03*
D11*
X77750000Y-79750000D03*
X75250000Y-79750000D03*
X66750000Y-74500000D03*
X69250000Y-74500000D03*
X60250000Y-92500000D03*
X57750000Y-92500000D03*
X66250000Y-91000000D03*
X68750000Y-91000000D03*
D14*
X67000000Y-65350000D03*
X67000000Y-62650000D03*
D19*
X63650000Y-68000000D03*
X66350000Y-68000000D03*
D14*
X63000000Y-65350000D03*
X63000000Y-62650000D03*
X72000000Y-73650000D03*
X72000000Y-76350000D03*
D19*
X75150000Y-75500000D03*
X77850000Y-75500000D03*
D14*
X72000000Y-84150000D03*
X72000000Y-86850000D03*
D19*
X66650000Y-72000000D03*
X69350000Y-72000000D03*
X60350000Y-95000000D03*
X57650000Y-95000000D03*
X60350000Y-102500000D03*
X57650000Y-102500000D03*
X60350000Y-99500000D03*
X57650000Y-99500000D03*
X64350000Y-76500000D03*
X61650000Y-76500000D03*
X68850000Y-93000000D03*
X66150000Y-93000000D03*
X68850000Y-89000000D03*
X66150000Y-89000000D03*
D20*
X62050000Y-72500000D03*
X63950000Y-72500000D03*
X63000000Y-74500000D03*
D21*
X70000000Y-80950000D03*
X70000000Y-79050000D03*
X72000000Y-80000000D03*
D20*
X64450000Y-97500000D03*
X62550000Y-97500000D03*
X63500000Y-95500000D03*
D21*
X65000000Y-79050000D03*
X65000000Y-80950000D03*
X63000000Y-80000000D03*
D22*
X69200000Y-83095000D03*
X69200000Y-84365000D03*
X69200000Y-85635000D03*
X69200000Y-86905000D03*
X63800000Y-86905000D03*
X63800000Y-85635000D03*
X63800000Y-84365000D03*
X63800000Y-83095000D03*
M02*
