G04 #@! TF.GenerationSoftware,KiCad,Pcbnew,(5.1.5)-3*
G04 #@! TF.CreationDate,2021-12-07T14:22:12+01:00*
G04 #@! TF.ProjectId,dual_ocxo_themis,6475616c-5f6f-4637-986f-5f7468656d69,rev?*
G04 #@! TF.SameCoordinates,Original*
G04 #@! TF.FileFunction,Legend,Bot*
G04 #@! TF.FilePolarity,Positive*
%FSLAX46Y46*%
G04 Gerber Fmt 4.6, Leading zero omitted, Abs format (unit mm)*
G04 Created by KiCad (PCBNEW (5.1.5)-3) date 2021-12-07 14:22:12*
%MOMM*%
%LPD*%
G04 APERTURE LIST*
%ADD10C,0.250000*%
%ADD11C,0.300000*%
%ADD12C,0.120000*%
%ADD13C,0.150000*%
%ADD14C,5.900000*%
%ADD15R,2.000000X2.400000*%
%ADD16R,1.900000X1.650000*%
%ADD17R,1.650000X1.900000*%
%ADD18R,2.900000X4.150000*%
%ADD19R,3.000000X2.400000*%
%ADD20O,3.000000X2.400000*%
%ADD21C,2.398980*%
%ADD22C,2.899360*%
%ADD23C,2.900000*%
%ADD24R,1.700000X1.900000*%
%ADD25C,2.200000*%
%ADD26R,2.400000X3.900000*%
%ADD27R,7.400000X7.400000*%
%ADD28R,0.908000X1.543000*%
%ADD29C,1.840000*%
%ADD30R,2.700000X3.900000*%
%ADD31C,3.400000*%
%ADD32R,4.400000X4.400000*%
%ADD33C,4.000000*%
%ADD34R,5.000000X5.000000*%
%ADD35R,1.900000X1.700000*%
%ADD36C,6.000000*%
%ADD37C,3.700000*%
%ADD38R,1.200000X1.300000*%
%ADD39R,1.300000X1.200000*%
%ADD40R,1.950000X1.000000*%
%ADD41C,0.254000*%
G04 APERTURE END LIST*
D10*
X107785714Y-88332366D02*
X107785714Y-88713318D01*
X108452380Y-88391889D02*
X107595238Y-88499032D01*
X107500000Y-88558556D01*
X107452380Y-88659747D01*
X107452380Y-88754985D01*
X107452380Y-89516889D02*
X107452380Y-89326413D01*
X107500000Y-89225223D01*
X107547619Y-89171651D01*
X107690476Y-89058556D01*
X107880952Y-88987127D01*
X108261904Y-88939508D01*
X108357142Y-88975223D01*
X108404761Y-89016889D01*
X108452380Y-89106175D01*
X108452380Y-89296651D01*
X108404761Y-89397842D01*
X108357142Y-89451413D01*
X108261904Y-89510937D01*
X108023809Y-89540699D01*
X107928571Y-89504985D01*
X107880952Y-89463318D01*
X107833333Y-89374032D01*
X107833333Y-89183556D01*
X107880952Y-89082366D01*
X107928571Y-89028794D01*
X108023809Y-88969270D01*
X108452380Y-89915699D02*
X107785714Y-89999032D01*
X107452380Y-90040699D02*
X107500000Y-89987127D01*
X107547619Y-90028794D01*
X107500000Y-90082366D01*
X107452380Y-90040699D01*
X107547619Y-90028794D01*
X107785714Y-90332366D02*
X107785714Y-90713318D01*
X107452380Y-90516889D02*
X108309523Y-90409747D01*
X108404761Y-90445461D01*
X108452380Y-90534747D01*
X108452380Y-90629985D01*
X107785714Y-91475223D02*
X108452380Y-91391889D01*
X107785714Y-91046651D02*
X108309523Y-90981175D01*
X108404761Y-91016889D01*
X108452380Y-91106175D01*
X108452380Y-91249032D01*
X108404761Y-91350223D01*
X108357142Y-91403794D01*
X107785714Y-138032366D02*
X107785714Y-138413318D01*
X108452380Y-138091889D02*
X107595238Y-138199032D01*
X107500000Y-138258556D01*
X107452380Y-138359747D01*
X107452380Y-138454985D01*
X107452380Y-139216889D02*
X107452380Y-139026413D01*
X107500000Y-138925223D01*
X107547619Y-138871651D01*
X107690476Y-138758556D01*
X107880952Y-138687127D01*
X108261904Y-138639508D01*
X108357142Y-138675223D01*
X108404761Y-138716889D01*
X108452380Y-138806175D01*
X108452380Y-138996651D01*
X108404761Y-139097842D01*
X108357142Y-139151413D01*
X108261904Y-139210937D01*
X108023809Y-139240699D01*
X107928571Y-139204985D01*
X107880952Y-139163318D01*
X107833333Y-139074032D01*
X107833333Y-138883556D01*
X107880952Y-138782366D01*
X107928571Y-138728794D01*
X108023809Y-138669270D01*
X108452380Y-139615699D02*
X107785714Y-139699032D01*
X107452380Y-139740699D02*
X107500000Y-139687127D01*
X107547619Y-139728794D01*
X107500000Y-139782366D01*
X107452380Y-139740699D01*
X107547619Y-139728794D01*
X107785714Y-140032366D02*
X107785714Y-140413318D01*
X107452380Y-140216889D02*
X108309523Y-140109747D01*
X108404761Y-140145461D01*
X108452380Y-140234747D01*
X108452380Y-140329985D01*
X107785714Y-141175223D02*
X108452380Y-141091889D01*
X107785714Y-140746651D02*
X108309523Y-140681175D01*
X108404761Y-140716889D01*
X108452380Y-140806175D01*
X108452380Y-140949032D01*
X108404761Y-141050223D01*
X108357142Y-141103794D01*
D11*
X46628571Y-121214285D02*
X46628571Y-122071428D01*
X48128571Y-121642857D02*
X46628571Y-121642857D01*
X48128571Y-122571428D02*
X46628571Y-122571428D01*
X48128571Y-123214285D02*
X47342857Y-123214285D01*
X47200000Y-123142857D01*
X47128571Y-123000000D01*
X47128571Y-122785714D01*
X47200000Y-122642857D01*
X47271428Y-122571428D01*
X48057142Y-124500000D02*
X48128571Y-124357142D01*
X48128571Y-124071428D01*
X48057142Y-123928571D01*
X47914285Y-123857142D01*
X47342857Y-123857142D01*
X47200000Y-123928571D01*
X47128571Y-124071428D01*
X47128571Y-124357142D01*
X47200000Y-124500000D01*
X47342857Y-124571428D01*
X47485714Y-124571428D01*
X47628571Y-123857142D01*
X48128571Y-125214285D02*
X47128571Y-125214285D01*
X47271428Y-125214285D02*
X47200000Y-125285714D01*
X47128571Y-125428571D01*
X47128571Y-125642857D01*
X47200000Y-125785714D01*
X47342857Y-125857142D01*
X48128571Y-125857142D01*
X47342857Y-125857142D02*
X47200000Y-125928571D01*
X47128571Y-126071428D01*
X47128571Y-126285714D01*
X47200000Y-126428571D01*
X47342857Y-126500000D01*
X48128571Y-126500000D01*
X48128571Y-127214285D02*
X47128571Y-127214285D01*
X46628571Y-127214285D02*
X46700000Y-127142857D01*
X46771428Y-127214285D01*
X46700000Y-127285714D01*
X46628571Y-127214285D01*
X46771428Y-127214285D01*
X48057142Y-127857142D02*
X48128571Y-128000000D01*
X48128571Y-128285714D01*
X48057142Y-128428571D01*
X47914285Y-128500000D01*
X47842857Y-128500000D01*
X47700000Y-128428571D01*
X47628571Y-128285714D01*
X47628571Y-128071428D01*
X47557142Y-127928571D01*
X47414285Y-127857142D01*
X47342857Y-127857142D01*
X47200000Y-127928571D01*
X47128571Y-128071428D01*
X47128571Y-128285714D01*
X47200000Y-128428571D01*
X49892857Y-122857142D02*
X49892857Y-123285714D01*
X49178571Y-122928571D02*
X49178571Y-123214285D01*
X49250000Y-123357142D01*
X49392857Y-123500000D01*
X49535714Y-123571428D01*
X49750000Y-123642857D01*
X50107142Y-123642857D01*
X50321428Y-123571428D01*
X50464285Y-123500000D01*
X50607142Y-123357142D01*
X50678571Y-123214285D01*
X50678571Y-122928571D01*
X50607142Y-122785714D01*
X50464285Y-122642857D01*
X50321428Y-122571428D01*
X50107142Y-122500000D01*
X49750000Y-122500000D01*
X49535714Y-122571428D01*
X49392857Y-122642857D01*
X49250000Y-122785714D01*
X49178571Y-122928571D01*
X50178571Y-124428571D02*
X50250000Y-124285714D01*
X50392857Y-124214285D01*
X50464285Y-124214285D01*
X50607142Y-124285714D01*
X50678571Y-124428571D01*
X50678571Y-124714285D01*
X50607142Y-124857142D01*
X50178571Y-124571428D02*
X50178571Y-124428571D01*
X50107142Y-124285714D01*
X49964285Y-124214285D01*
X49892857Y-124214285D01*
X49750000Y-124285714D01*
X49678571Y-124428571D01*
X49678571Y-124714285D01*
X49750000Y-124857142D01*
X49107142Y-124714285D02*
X49321428Y-124500000D01*
X49678571Y-125500000D02*
X51178571Y-125500000D01*
X50464285Y-126214285D02*
X50607142Y-126285714D01*
X50678571Y-126428571D01*
X50464285Y-125500000D02*
X50607142Y-125571428D01*
X50678571Y-125714285D01*
X50678571Y-126000000D01*
X50607142Y-126142857D01*
X50464285Y-126214285D01*
X49678571Y-126214285D01*
X49678571Y-127071428D02*
X50464285Y-127071428D01*
X50607142Y-127142857D01*
X50678571Y-127285714D01*
X49750000Y-128500000D02*
X49678571Y-128357142D01*
X49678571Y-128071428D01*
X49750000Y-127928571D01*
X49821428Y-127857142D01*
X49964285Y-127785714D01*
X50392857Y-127785714D01*
X50535714Y-127857142D01*
X50607142Y-127928571D01*
X50678571Y-128071428D01*
X50678571Y-128285714D01*
X50750000Y-128428571D01*
X50892857Y-128500000D01*
X50964285Y-128500000D01*
X51107142Y-128428571D01*
X51178571Y-128285714D01*
X51728571Y-123214285D02*
X53228571Y-123714285D01*
X51728571Y-124214285D01*
X51871428Y-124642857D02*
X51800000Y-124714285D01*
X51728571Y-124857142D01*
X51728571Y-125214285D01*
X51800000Y-125357142D01*
X51871428Y-125428571D01*
X52014285Y-125500000D01*
X52157142Y-125500000D01*
X52371428Y-125428571D01*
X53228571Y-124571428D01*
X53228571Y-125500000D01*
X53085714Y-126142857D02*
X53157142Y-126214285D01*
X53228571Y-126142857D01*
X53157142Y-126071428D01*
X53085714Y-126142857D01*
X53228571Y-126142857D01*
X51728571Y-127142857D02*
X51728571Y-127285714D01*
X51800000Y-127428571D01*
X51871428Y-127500000D01*
X52014285Y-127571428D01*
X52300000Y-127642857D01*
X52657142Y-127642857D01*
X52942857Y-127571428D01*
X53085714Y-127500000D01*
X53157142Y-127428571D01*
X53228571Y-127285714D01*
X53228571Y-127142857D01*
X53157142Y-127000000D01*
X53085714Y-126928571D01*
X52942857Y-126857142D01*
X52657142Y-126785714D01*
X52300000Y-126785714D01*
X52014285Y-126857142D01*
X51871428Y-126928571D01*
X51800000Y-127000000D01*
X51728571Y-127142857D01*
X49678571Y-86750000D02*
X48178571Y-86750000D01*
X49250000Y-87250000D01*
X48178571Y-87750000D01*
X49678571Y-87750000D01*
X49607142Y-89035714D02*
X49678571Y-88892857D01*
X49678571Y-88607142D01*
X49607142Y-88464285D01*
X49464285Y-88392857D01*
X48892857Y-88392857D01*
X48750000Y-88464285D01*
X48678571Y-88607142D01*
X48678571Y-88892857D01*
X48750000Y-89035714D01*
X48892857Y-89107142D01*
X49035714Y-89107142D01*
X49178571Y-88392857D01*
X49678571Y-90392857D02*
X48178571Y-90392857D01*
X49607142Y-90392857D02*
X49678571Y-90250000D01*
X49678571Y-89964285D01*
X49607142Y-89821428D01*
X49535714Y-89750000D01*
X49392857Y-89678571D01*
X48964285Y-89678571D01*
X48821428Y-89750000D01*
X48750000Y-89821428D01*
X48678571Y-89964285D01*
X48678571Y-90250000D01*
X48750000Y-90392857D01*
X49678571Y-91107142D02*
X48678571Y-91107142D01*
X48178571Y-91107142D02*
X48250000Y-91035714D01*
X48321428Y-91107142D01*
X48250000Y-91178571D01*
X48178571Y-91107142D01*
X48321428Y-91107142D01*
X48678571Y-92464285D02*
X49678571Y-92464285D01*
X48678571Y-91821428D02*
X49464285Y-91821428D01*
X49607142Y-91892857D01*
X49678571Y-92035714D01*
X49678571Y-92250000D01*
X49607142Y-92392857D01*
X49535714Y-92464285D01*
X49678571Y-93178571D02*
X48678571Y-93178571D01*
X48821428Y-93178571D02*
X48750000Y-93250000D01*
X48678571Y-93392857D01*
X48678571Y-93607142D01*
X48750000Y-93750000D01*
X48892857Y-93821428D01*
X49678571Y-93821428D01*
X48892857Y-93821428D02*
X48750000Y-93892857D01*
X48678571Y-94035714D01*
X48678571Y-94250000D01*
X48750000Y-94392857D01*
X48892857Y-94464285D01*
X49678571Y-94464285D01*
X48678571Y-96321428D02*
X50178571Y-96321428D01*
X48750000Y-96321428D02*
X48678571Y-96464285D01*
X48678571Y-96750000D01*
X48750000Y-96892857D01*
X48821428Y-96964285D01*
X48964285Y-97035714D01*
X49392857Y-97035714D01*
X49535714Y-96964285D01*
X49607142Y-96892857D01*
X49678571Y-96750000D01*
X49678571Y-96464285D01*
X49607142Y-96321428D01*
X49678571Y-97892857D02*
X49607142Y-97750000D01*
X49535714Y-97678571D01*
X49392857Y-97607142D01*
X48964285Y-97607142D01*
X48821428Y-97678571D01*
X48750000Y-97750000D01*
X48678571Y-97892857D01*
X48678571Y-98107142D01*
X48750000Y-98250000D01*
X48821428Y-98321428D01*
X48964285Y-98392857D01*
X49392857Y-98392857D01*
X49535714Y-98321428D01*
X49607142Y-98250000D01*
X49678571Y-98107142D01*
X49678571Y-97892857D01*
X48678571Y-98892857D02*
X49678571Y-99178571D01*
X48964285Y-99464285D01*
X49678571Y-99750000D01*
X48678571Y-100035714D01*
X49607142Y-101178571D02*
X49678571Y-101035714D01*
X49678571Y-100750000D01*
X49607142Y-100607142D01*
X49464285Y-100535714D01*
X48892857Y-100535714D01*
X48750000Y-100607142D01*
X48678571Y-100750000D01*
X48678571Y-101035714D01*
X48750000Y-101178571D01*
X48892857Y-101250000D01*
X49035714Y-101250000D01*
X49178571Y-100535714D01*
X49678571Y-101892857D02*
X48678571Y-101892857D01*
X48964285Y-101892857D02*
X48821428Y-101964285D01*
X48750000Y-102035714D01*
X48678571Y-102178571D01*
X48678571Y-102321428D01*
X52228571Y-77535714D02*
X50728571Y-77535714D01*
X50728571Y-77892857D01*
X50800000Y-78107142D01*
X50942857Y-78250000D01*
X51085714Y-78321428D01*
X51371428Y-78392857D01*
X51585714Y-78392857D01*
X51871428Y-78321428D01*
X52014285Y-78250000D01*
X52157142Y-78107142D01*
X52228571Y-77892857D01*
X52228571Y-77535714D01*
X51228571Y-79678571D02*
X52228571Y-79678571D01*
X51228571Y-79035714D02*
X52014285Y-79035714D01*
X52157142Y-79107142D01*
X52228571Y-79250000D01*
X52228571Y-79464285D01*
X52157142Y-79607142D01*
X52085714Y-79678571D01*
X52228571Y-81035714D02*
X51442857Y-81035714D01*
X51300000Y-80964285D01*
X51228571Y-80821428D01*
X51228571Y-80535714D01*
X51300000Y-80392857D01*
X52157142Y-81035714D02*
X52228571Y-80892857D01*
X52228571Y-80535714D01*
X52157142Y-80392857D01*
X52014285Y-80321428D01*
X51871428Y-80321428D01*
X51728571Y-80392857D01*
X51657142Y-80535714D01*
X51657142Y-80892857D01*
X51585714Y-81035714D01*
X52228571Y-81964285D02*
X52157142Y-81821428D01*
X52014285Y-81750000D01*
X50728571Y-81750000D01*
X52228571Y-84321428D02*
X50728571Y-84321428D01*
X52157142Y-84321428D02*
X52228571Y-84178571D01*
X52228571Y-83892857D01*
X52157142Y-83750000D01*
X52085714Y-83678571D01*
X51942857Y-83607142D01*
X51514285Y-83607142D01*
X51371428Y-83678571D01*
X51300000Y-83750000D01*
X51228571Y-83892857D01*
X51228571Y-84178571D01*
X51300000Y-84321428D01*
X52228571Y-85035714D02*
X51228571Y-85035714D01*
X50728571Y-85035714D02*
X50800000Y-84964285D01*
X50871428Y-85035714D01*
X50800000Y-85107142D01*
X50728571Y-85035714D01*
X50871428Y-85035714D01*
X52228571Y-85750000D02*
X51228571Y-85750000D01*
X51514285Y-85750000D02*
X51371428Y-85821428D01*
X51300000Y-85892857D01*
X51228571Y-86035714D01*
X51228571Y-86178571D01*
X52157142Y-87250000D02*
X52228571Y-87107142D01*
X52228571Y-86821428D01*
X52157142Y-86678571D01*
X52014285Y-86607142D01*
X51442857Y-86607142D01*
X51300000Y-86678571D01*
X51228571Y-86821428D01*
X51228571Y-87107142D01*
X51300000Y-87250000D01*
X51442857Y-87321428D01*
X51585714Y-87321428D01*
X51728571Y-86607142D01*
X52157142Y-88607142D02*
X52228571Y-88464285D01*
X52228571Y-88178571D01*
X52157142Y-88035714D01*
X52085714Y-87964285D01*
X51942857Y-87892857D01*
X51514285Y-87892857D01*
X51371428Y-87964285D01*
X51300000Y-88035714D01*
X51228571Y-88178571D01*
X51228571Y-88464285D01*
X51300000Y-88607142D01*
X51228571Y-89035714D02*
X51228571Y-89607142D01*
X50728571Y-89250000D02*
X52014285Y-89250000D01*
X52157142Y-89321428D01*
X52228571Y-89464285D01*
X52228571Y-89607142D01*
X52228571Y-90107142D02*
X51228571Y-90107142D01*
X50728571Y-90107142D02*
X50800000Y-90035714D01*
X50871428Y-90107142D01*
X50800000Y-90178571D01*
X50728571Y-90107142D01*
X50871428Y-90107142D01*
X52228571Y-91035714D02*
X52157142Y-90892857D01*
X52085714Y-90821428D01*
X51942857Y-90750000D01*
X51514285Y-90750000D01*
X51371428Y-90821428D01*
X51300000Y-90892857D01*
X51228571Y-91035714D01*
X51228571Y-91250000D01*
X51300000Y-91392857D01*
X51371428Y-91464285D01*
X51514285Y-91535714D01*
X51942857Y-91535714D01*
X52085714Y-91464285D01*
X52157142Y-91392857D01*
X52228571Y-91250000D01*
X52228571Y-91035714D01*
X51228571Y-92178571D02*
X52228571Y-92178571D01*
X51371428Y-92178571D02*
X51300000Y-92250000D01*
X51228571Y-92392857D01*
X51228571Y-92607142D01*
X51300000Y-92750000D01*
X51442857Y-92821428D01*
X52228571Y-92821428D01*
X51228571Y-93535714D02*
X52228571Y-93535714D01*
X51371428Y-93535714D02*
X51300000Y-93607142D01*
X51228571Y-93750000D01*
X51228571Y-93964285D01*
X51300000Y-94107142D01*
X51442857Y-94178571D01*
X52228571Y-94178571D01*
X52228571Y-95535714D02*
X51442857Y-95535714D01*
X51300000Y-95464285D01*
X51228571Y-95321428D01*
X51228571Y-95035714D01*
X51300000Y-94892857D01*
X52157142Y-95535714D02*
X52228571Y-95392857D01*
X52228571Y-95035714D01*
X52157142Y-94892857D01*
X52014285Y-94821428D01*
X51871428Y-94821428D01*
X51728571Y-94892857D01*
X51657142Y-95035714D01*
X51657142Y-95392857D01*
X51585714Y-95535714D01*
X52228571Y-96464285D02*
X52157142Y-96321428D01*
X52014285Y-96250000D01*
X50728571Y-96250000D01*
X52228571Y-98178571D02*
X51228571Y-98178571D01*
X51514285Y-98178571D02*
X51371428Y-98250000D01*
X51300000Y-98321428D01*
X51228571Y-98464285D01*
X51228571Y-98607142D01*
X52157142Y-99678571D02*
X52228571Y-99535714D01*
X52228571Y-99250000D01*
X52157142Y-99107142D01*
X52014285Y-99035714D01*
X51442857Y-99035714D01*
X51300000Y-99107142D01*
X51228571Y-99250000D01*
X51228571Y-99535714D01*
X51300000Y-99678571D01*
X51442857Y-99750000D01*
X51585714Y-99750000D01*
X51728571Y-99035714D01*
X51228571Y-100178571D02*
X51228571Y-100750000D01*
X52228571Y-100392857D02*
X50942857Y-100392857D01*
X50800000Y-100464285D01*
X50728571Y-100607142D01*
X50728571Y-100750000D01*
X52228571Y-101464285D02*
X52157142Y-101321428D01*
X52014285Y-101250000D01*
X50728571Y-101250000D01*
X52157142Y-102607142D02*
X52228571Y-102464285D01*
X52228571Y-102178571D01*
X52157142Y-102035714D01*
X52014285Y-101964285D01*
X51442857Y-101964285D01*
X51300000Y-102035714D01*
X51228571Y-102178571D01*
X51228571Y-102464285D01*
X51300000Y-102607142D01*
X51442857Y-102678571D01*
X51585714Y-102678571D01*
X51728571Y-101964285D01*
X52157142Y-103964285D02*
X52228571Y-103821428D01*
X52228571Y-103535714D01*
X52157142Y-103392857D01*
X52085714Y-103321428D01*
X51942857Y-103250000D01*
X51514285Y-103250000D01*
X51371428Y-103321428D01*
X51300000Y-103392857D01*
X51228571Y-103535714D01*
X51228571Y-103821428D01*
X51300000Y-103964285D01*
X51228571Y-104392857D02*
X51228571Y-104964285D01*
X50728571Y-104607142D02*
X52014285Y-104607142D01*
X52157142Y-104678571D01*
X52228571Y-104821428D01*
X52228571Y-104964285D01*
X52228571Y-105678571D02*
X52157142Y-105535714D01*
X52085714Y-105464285D01*
X51942857Y-105392857D01*
X51514285Y-105392857D01*
X51371428Y-105464285D01*
X51300000Y-105535714D01*
X51228571Y-105678571D01*
X51228571Y-105892857D01*
X51300000Y-106035714D01*
X51371428Y-106107142D01*
X51514285Y-106178571D01*
X51942857Y-106178571D01*
X52085714Y-106107142D01*
X52157142Y-106035714D01*
X52228571Y-105892857D01*
X52228571Y-105678571D01*
X52228571Y-106821428D02*
X51228571Y-106821428D01*
X51371428Y-106821428D02*
X51300000Y-106892857D01*
X51228571Y-107035714D01*
X51228571Y-107250000D01*
X51300000Y-107392857D01*
X51442857Y-107464285D01*
X52228571Y-107464285D01*
X51442857Y-107464285D02*
X51300000Y-107535714D01*
X51228571Y-107678571D01*
X51228571Y-107892857D01*
X51300000Y-108035714D01*
X51442857Y-108107142D01*
X52228571Y-108107142D01*
X52157142Y-109392857D02*
X52228571Y-109250000D01*
X52228571Y-108964285D01*
X52157142Y-108821428D01*
X52014285Y-108750000D01*
X51442857Y-108750000D01*
X51300000Y-108821428D01*
X51228571Y-108964285D01*
X51228571Y-109250000D01*
X51300000Y-109392857D01*
X51442857Y-109464285D01*
X51585714Y-109464285D01*
X51728571Y-108750000D01*
X51228571Y-109892857D02*
X51228571Y-110464285D01*
X50728571Y-110107142D02*
X52014285Y-110107142D01*
X52157142Y-110178571D01*
X52228571Y-110321428D01*
X52228571Y-110464285D01*
X52157142Y-111535714D02*
X52228571Y-111392857D01*
X52228571Y-111107142D01*
X52157142Y-110964285D01*
X52014285Y-110892857D01*
X51442857Y-110892857D01*
X51300000Y-110964285D01*
X51228571Y-111107142D01*
X51228571Y-111392857D01*
X51300000Y-111535714D01*
X51442857Y-111607142D01*
X51585714Y-111607142D01*
X51728571Y-110892857D01*
X52228571Y-112250000D02*
X51228571Y-112250000D01*
X51514285Y-112250000D02*
X51371428Y-112321428D01*
X51300000Y-112392857D01*
X51228571Y-112535714D01*
X51228571Y-112678571D01*
D12*
X115020000Y-58000000D02*
X115020000Y-60000000D01*
X112980000Y-60000000D02*
X112980000Y-58000000D01*
X95500000Y-64150000D02*
X96500000Y-64150000D01*
X96500000Y-65850000D02*
X95500000Y-65850000D01*
X95020000Y-58000000D02*
X95020000Y-60000000D01*
X92980000Y-60000000D02*
X92980000Y-58000000D01*
X114850000Y-67500000D02*
X114850000Y-68500000D01*
X113150000Y-68500000D02*
X113150000Y-67500000D01*
X101850000Y-63300000D02*
X101850000Y-55000000D01*
X98150000Y-63300000D02*
X98150000Y-55000000D01*
X101850000Y-63300000D02*
X98150000Y-63300000D01*
X113120000Y-77400000D02*
X113120000Y-78600000D01*
X114880000Y-78600000D02*
X114880000Y-77400000D01*
X113620000Y-88900000D02*
X113620000Y-90100000D01*
X115380000Y-90100000D02*
X115380000Y-88900000D01*
X110040000Y-58400000D02*
X110390000Y-58400000D01*
X110390000Y-58400000D02*
X110390000Y-56900000D01*
X105390000Y-58400000D02*
X108590000Y-58400000D01*
X103590000Y-56900000D02*
X103590000Y-58400000D01*
X103590000Y-58400000D02*
X103990000Y-58400000D01*
D13*
X104460000Y-81286000D02*
X109540000Y-81286000D01*
X109540000Y-81286000D02*
X109540000Y-76714000D01*
X109540000Y-76714000D02*
X104460000Y-76714000D01*
X104460000Y-76714000D02*
X104460000Y-81286000D01*
X104460000Y-79762000D02*
X104968000Y-79762000D01*
X104968000Y-79762000D02*
X104968000Y-78492000D01*
X104968000Y-78492000D02*
X104460000Y-78492000D01*
D12*
X122150000Y-62600000D02*
X117850000Y-62600000D01*
X117850000Y-62600000D02*
X117850000Y-55300000D01*
X122150000Y-62600000D02*
X122150000Y-55300000D01*
X115020000Y-107700000D02*
X115020000Y-109700000D01*
X112980000Y-109700000D02*
X112980000Y-107700000D01*
X95500000Y-113850000D02*
X96500000Y-113850000D01*
X96500000Y-115550000D02*
X95500000Y-115550000D01*
X95020000Y-107700000D02*
X95020000Y-109700000D01*
X92980000Y-109700000D02*
X92980000Y-107700000D01*
X114850000Y-117200000D02*
X114850000Y-118200000D01*
X113150000Y-118200000D02*
X113150000Y-117200000D01*
X101850000Y-113000000D02*
X101850000Y-104700000D01*
X98150000Y-113000000D02*
X98150000Y-104700000D01*
X101850000Y-113000000D02*
X98150000Y-113000000D01*
X113120000Y-127100000D02*
X113120000Y-128300000D01*
X114880000Y-128300000D02*
X114880000Y-127100000D01*
X113620000Y-138600000D02*
X113620000Y-139800000D01*
X115380000Y-139800000D02*
X115380000Y-138600000D01*
X110040000Y-108100000D02*
X110390000Y-108100000D01*
X110390000Y-108100000D02*
X110390000Y-106600000D01*
X105390000Y-108100000D02*
X108590000Y-108100000D01*
X103590000Y-106600000D02*
X103590000Y-108100000D01*
X103590000Y-108100000D02*
X103990000Y-108100000D01*
D13*
X104460000Y-130986000D02*
X109540000Y-130986000D01*
X109540000Y-130986000D02*
X109540000Y-126414000D01*
X109540000Y-126414000D02*
X104460000Y-126414000D01*
X104460000Y-126414000D02*
X104460000Y-130986000D01*
X104460000Y-129462000D02*
X104968000Y-129462000D01*
X104968000Y-129462000D02*
X104968000Y-128192000D01*
X104968000Y-128192000D02*
X104460000Y-128192000D01*
D12*
X122150000Y-112300000D02*
X117850000Y-112300000D01*
X117850000Y-112300000D02*
X117850000Y-105000000D01*
X122150000Y-112300000D02*
X122150000Y-105000000D01*
X76000000Y-78900000D02*
X77000000Y-78900000D01*
X77000000Y-80600000D02*
X76000000Y-80600000D01*
X68500000Y-75350000D02*
X67500000Y-75350000D01*
X67500000Y-73650000D02*
X68500000Y-73650000D01*
X58500000Y-91650000D02*
X59500000Y-91650000D01*
X59500000Y-93350000D02*
X58500000Y-93350000D01*
X68000000Y-91850000D02*
X67000000Y-91850000D01*
X67000000Y-90150000D02*
X68000000Y-90150000D01*
X66120000Y-63400000D02*
X66120000Y-64600000D01*
X67880000Y-64600000D02*
X67880000Y-63400000D01*
X65600000Y-67120000D02*
X64400000Y-67120000D01*
X64400000Y-68880000D02*
X65600000Y-68880000D01*
X62120000Y-63400000D02*
X62120000Y-64600000D01*
X63880000Y-64600000D02*
X63880000Y-63400000D01*
X72880000Y-75600000D02*
X72880000Y-74400000D01*
X71120000Y-74400000D02*
X71120000Y-75600000D01*
X77100000Y-74620000D02*
X75900000Y-74620000D01*
X75900000Y-76380000D02*
X77100000Y-76380000D01*
X72880000Y-86100000D02*
X72880000Y-84900000D01*
X71120000Y-84900000D02*
X71120000Y-86100000D01*
X68600000Y-71120000D02*
X67400000Y-71120000D01*
X67400000Y-72880000D02*
X68600000Y-72880000D01*
X58400000Y-95880000D02*
X59600000Y-95880000D01*
X59600000Y-94120000D02*
X58400000Y-94120000D01*
X58400000Y-103380000D02*
X59600000Y-103380000D01*
X59600000Y-101620000D02*
X58400000Y-101620000D01*
X58400000Y-100380000D02*
X59600000Y-100380000D01*
X59600000Y-98620000D02*
X58400000Y-98620000D01*
X62400000Y-77380000D02*
X63600000Y-77380000D01*
X63600000Y-75620000D02*
X62400000Y-75620000D01*
X66900000Y-93880000D02*
X68100000Y-93880000D01*
X68100000Y-92120000D02*
X66900000Y-92120000D01*
X66900000Y-89880000D02*
X68100000Y-89880000D01*
X68100000Y-88120000D02*
X66900000Y-88120000D01*
X64580000Y-74260000D02*
X63650000Y-74260000D01*
X61420000Y-74260000D02*
X62350000Y-74260000D01*
X61420000Y-74260000D02*
X61420000Y-72100000D01*
X64580000Y-74260000D02*
X64580000Y-72800000D01*
X71760000Y-78420000D02*
X71760000Y-79350000D01*
X71760000Y-81580000D02*
X71760000Y-80650000D01*
X71760000Y-81580000D02*
X69600000Y-81580000D01*
X71760000Y-78420000D02*
X70300000Y-78420000D01*
X61920000Y-95740000D02*
X62850000Y-95740000D01*
X65080000Y-95740000D02*
X64150000Y-95740000D01*
X65080000Y-95740000D02*
X65080000Y-97900000D01*
X61920000Y-95740000D02*
X61920000Y-97200000D01*
X63240000Y-81580000D02*
X63240000Y-80650000D01*
X63240000Y-78420000D02*
X63240000Y-79350000D01*
X63240000Y-78420000D02*
X65400000Y-78420000D01*
X63240000Y-81580000D02*
X64700000Y-81580000D01*
D13*
X68575000Y-82425000D02*
X68575000Y-82475000D01*
X64425000Y-82425000D02*
X64425000Y-82570000D01*
X64425000Y-87575000D02*
X64425000Y-87430000D01*
X68575000Y-87575000D02*
X68575000Y-87430000D01*
X68575000Y-82425000D02*
X64425000Y-82425000D01*
X68575000Y-87575000D02*
X64425000Y-87575000D01*
X68575000Y-82475000D02*
X69975000Y-82475000D01*
%LPC*%
D14*
X126000000Y-91000000D03*
X84000000Y-49000000D03*
D15*
X114000000Y-61000000D03*
X114000000Y-57000000D03*
D16*
X97250000Y-65000000D03*
X94750000Y-65000000D03*
D15*
X94000000Y-61000000D03*
X94000000Y-57000000D03*
D17*
X114000000Y-69250000D03*
X114000000Y-66750000D03*
D18*
X100000000Y-61125000D03*
X100000000Y-54875000D03*
D19*
X125250000Y-70500000D03*
D20*
X125250000Y-67960000D03*
D14*
X126000000Y-49000000D03*
D21*
X100000000Y-90000000D03*
D22*
X102540000Y-87460000D03*
X102540000Y-92540000D03*
X97460000Y-92540000D03*
X97460000Y-87460000D03*
D14*
X84000000Y-91000000D03*
D23*
X97475000Y-50475000D03*
X116525000Y-50475000D03*
X116525000Y-69525000D03*
X97475000Y-69525000D03*
X107000000Y-69525000D03*
D24*
X114000000Y-79350000D03*
X114000000Y-76650000D03*
X114500000Y-90850000D03*
X114500000Y-88150000D03*
D25*
X117000000Y-78000000D03*
X114460000Y-85620000D03*
X117000000Y-90700000D03*
D26*
X109290000Y-60700000D03*
X104710000Y-60700000D03*
D27*
X106990000Y-53300000D03*
D28*
X105095000Y-82175000D03*
X106365000Y-82175000D03*
X107635000Y-82175000D03*
X108905000Y-82175000D03*
X108905000Y-75825000D03*
X107635000Y-75825000D03*
X106365000Y-75825000D03*
X105095000Y-75825000D03*
D29*
X117000000Y-83000000D03*
X119540000Y-85540000D03*
X117000000Y-88080000D03*
X117000000Y-88100000D03*
X117000000Y-85460000D03*
X117000000Y-83000000D03*
D30*
X120000000Y-60700000D03*
X120000000Y-55300000D03*
D14*
X126000000Y-140700000D03*
X84000000Y-98700000D03*
D15*
X114000000Y-110700000D03*
X114000000Y-106700000D03*
D16*
X97250000Y-114700000D03*
X94750000Y-114700000D03*
D15*
X94000000Y-110700000D03*
X94000000Y-106700000D03*
D17*
X114000000Y-118950000D03*
X114000000Y-116450000D03*
D18*
X100000000Y-110825000D03*
X100000000Y-104575000D03*
D19*
X125250000Y-120200000D03*
D20*
X125250000Y-117660000D03*
D14*
X126000000Y-98700000D03*
D21*
X100000000Y-139700000D03*
D22*
X102540000Y-137160000D03*
X102540000Y-142240000D03*
X97460000Y-142240000D03*
X97460000Y-137160000D03*
D14*
X84000000Y-140700000D03*
D23*
X97475000Y-100175000D03*
X116525000Y-100175000D03*
X116525000Y-119225000D03*
X97475000Y-119225000D03*
X107000000Y-119225000D03*
D24*
X114000000Y-129050000D03*
X114000000Y-126350000D03*
X114500000Y-140550000D03*
X114500000Y-137850000D03*
D25*
X117000000Y-127700000D03*
X114460000Y-135320000D03*
X117000000Y-140400000D03*
D26*
X109290000Y-110400000D03*
X104710000Y-110400000D03*
D27*
X106990000Y-103000000D03*
D28*
X105095000Y-131875000D03*
X106365000Y-131875000D03*
X107635000Y-131875000D03*
X108905000Y-131875000D03*
X108905000Y-125525000D03*
X107635000Y-125525000D03*
X106365000Y-125525000D03*
X105095000Y-125525000D03*
D29*
X117000000Y-132700000D03*
X119540000Y-135240000D03*
X117000000Y-137780000D03*
X117000000Y-137800000D03*
X117000000Y-135160000D03*
X117000000Y-132700000D03*
D30*
X120000000Y-110400000D03*
X120000000Y-105000000D03*
D31*
X37000000Y-59000000D03*
D32*
X58800000Y-74000000D03*
D33*
X38570000Y-99095000D03*
D34*
X63500000Y-101000000D03*
X59000000Y-88000000D03*
D21*
X50000000Y-140500000D03*
D22*
X47460000Y-137960000D03*
X52540000Y-137960000D03*
X52540000Y-143040000D03*
X47460000Y-143040000D03*
D16*
X77750000Y-79750000D03*
X75250000Y-79750000D03*
X66750000Y-74500000D03*
X69250000Y-74500000D03*
X60250000Y-92500000D03*
X57750000Y-92500000D03*
X66250000Y-91000000D03*
X68750000Y-91000000D03*
D19*
X75500000Y-91960000D03*
D20*
X75500000Y-94500000D03*
X75500000Y-97040000D03*
X75500000Y-99580000D03*
X75500000Y-102120000D03*
D24*
X67000000Y-65350000D03*
X67000000Y-62650000D03*
D35*
X63650000Y-68000000D03*
X66350000Y-68000000D03*
D24*
X63000000Y-65350000D03*
X63000000Y-62650000D03*
X72000000Y-73650000D03*
X72000000Y-76350000D03*
D35*
X75150000Y-75500000D03*
X77850000Y-75500000D03*
D24*
X72000000Y-84150000D03*
X72000000Y-86850000D03*
D35*
X66650000Y-72000000D03*
X69350000Y-72000000D03*
X60350000Y-95000000D03*
X57650000Y-95000000D03*
X60350000Y-102500000D03*
X57650000Y-102500000D03*
X60350000Y-99500000D03*
X57650000Y-99500000D03*
X64350000Y-76500000D03*
X61650000Y-76500000D03*
X68850000Y-93000000D03*
X66150000Y-93000000D03*
X68850000Y-89000000D03*
X66150000Y-89000000D03*
D36*
X75000000Y-140000000D03*
X75000000Y-50000000D03*
X35000000Y-140000000D03*
X35000000Y-50000000D03*
D37*
X41000000Y-94500000D03*
X57000000Y-108500000D03*
D38*
X62050000Y-72500000D03*
X63950000Y-72500000D03*
X63000000Y-74500000D03*
D39*
X70000000Y-80950000D03*
X70000000Y-79050000D03*
X72000000Y-80000000D03*
D38*
X64450000Y-97500000D03*
X62550000Y-97500000D03*
X63500000Y-95500000D03*
D39*
X65000000Y-79050000D03*
X65000000Y-80950000D03*
X63000000Y-80000000D03*
D21*
X50000000Y-49500000D03*
D22*
X47460000Y-46960000D03*
X52540000Y-46960000D03*
X52540000Y-52040000D03*
X47460000Y-52040000D03*
D21*
X75500000Y-68000000D03*
D22*
X78040000Y-65460000D03*
X78040000Y-70540000D03*
X72960000Y-70540000D03*
X72960000Y-65460000D03*
D40*
X69200000Y-83095000D03*
X69200000Y-84365000D03*
X69200000Y-85635000D03*
X69200000Y-86905000D03*
X63800000Y-86905000D03*
X63800000Y-85635000D03*
X63800000Y-84365000D03*
X63800000Y-83095000D03*
D41*
G36*
X129873000Y-94873000D02*
G01*
X80127000Y-94873000D01*
X80127000Y-47500000D01*
X82373000Y-47500000D01*
X82373000Y-92500000D01*
X82375440Y-92524776D01*
X82382667Y-92548601D01*
X82394403Y-92570557D01*
X82410197Y-92589803D01*
X82429443Y-92605597D01*
X82451399Y-92617333D01*
X82475224Y-92624560D01*
X82500000Y-92627000D01*
X127500000Y-92627000D01*
X127524776Y-92624560D01*
X127548601Y-92617333D01*
X127570557Y-92605597D01*
X127589803Y-92589803D01*
X127605597Y-92570557D01*
X127617333Y-92548601D01*
X127624560Y-92524776D01*
X127627000Y-92500000D01*
X127627000Y-47500000D01*
X127624560Y-47475224D01*
X127617333Y-47451399D01*
X127605597Y-47429443D01*
X127589803Y-47410197D01*
X127570557Y-47394403D01*
X127548601Y-47382667D01*
X127524776Y-47375440D01*
X127500000Y-47373000D01*
X82500000Y-47373000D01*
X82475224Y-47375440D01*
X82451399Y-47382667D01*
X82429443Y-47394403D01*
X82410197Y-47410197D01*
X82394403Y-47429443D01*
X82382667Y-47451399D01*
X82375440Y-47475224D01*
X82373000Y-47500000D01*
X80127000Y-47500000D01*
X80127000Y-45127000D01*
X129873000Y-45127000D01*
X129873000Y-94873000D01*
G37*
X129873000Y-94873000D02*
X80127000Y-94873000D01*
X80127000Y-47500000D01*
X82373000Y-47500000D01*
X82373000Y-92500000D01*
X82375440Y-92524776D01*
X82382667Y-92548601D01*
X82394403Y-92570557D01*
X82410197Y-92589803D01*
X82429443Y-92605597D01*
X82451399Y-92617333D01*
X82475224Y-92624560D01*
X82500000Y-92627000D01*
X127500000Y-92627000D01*
X127524776Y-92624560D01*
X127548601Y-92617333D01*
X127570557Y-92605597D01*
X127589803Y-92589803D01*
X127605597Y-92570557D01*
X127617333Y-92548601D01*
X127624560Y-92524776D01*
X127627000Y-92500000D01*
X127627000Y-47500000D01*
X127624560Y-47475224D01*
X127617333Y-47451399D01*
X127605597Y-47429443D01*
X127589803Y-47410197D01*
X127570557Y-47394403D01*
X127548601Y-47382667D01*
X127524776Y-47375440D01*
X127500000Y-47373000D01*
X82500000Y-47373000D01*
X82475224Y-47375440D01*
X82451399Y-47382667D01*
X82429443Y-47394403D01*
X82410197Y-47410197D01*
X82394403Y-47429443D01*
X82382667Y-47451399D01*
X82375440Y-47475224D01*
X82373000Y-47500000D01*
X80127000Y-47500000D01*
X80127000Y-45127000D01*
X129873000Y-45127000D01*
X129873000Y-94873000D01*
G36*
X129873000Y-144573000D02*
G01*
X80127000Y-144573000D01*
X80127000Y-97200000D01*
X82373000Y-97200000D01*
X82373000Y-142200000D01*
X82375440Y-142224776D01*
X82382667Y-142248601D01*
X82394403Y-142270557D01*
X82410197Y-142289803D01*
X82429443Y-142305597D01*
X82451399Y-142317333D01*
X82475224Y-142324560D01*
X82500000Y-142327000D01*
X127500000Y-142327000D01*
X127524776Y-142324560D01*
X127548601Y-142317333D01*
X127570557Y-142305597D01*
X127589803Y-142289803D01*
X127605597Y-142270557D01*
X127617333Y-142248601D01*
X127624560Y-142224776D01*
X127627000Y-142200000D01*
X127627000Y-97200000D01*
X127624560Y-97175224D01*
X127617333Y-97151399D01*
X127605597Y-97129443D01*
X127589803Y-97110197D01*
X127570557Y-97094403D01*
X127548601Y-97082667D01*
X127524776Y-97075440D01*
X127500000Y-97073000D01*
X82500000Y-97073000D01*
X82475224Y-97075440D01*
X82451399Y-97082667D01*
X82429443Y-97094403D01*
X82410197Y-97110197D01*
X82394403Y-97129443D01*
X82382667Y-97151399D01*
X82375440Y-97175224D01*
X82373000Y-97200000D01*
X80127000Y-97200000D01*
X80127000Y-94827000D01*
X129873000Y-94827000D01*
X129873000Y-144573000D01*
G37*
X129873000Y-144573000D02*
X80127000Y-144573000D01*
X80127000Y-97200000D01*
X82373000Y-97200000D01*
X82373000Y-142200000D01*
X82375440Y-142224776D01*
X82382667Y-142248601D01*
X82394403Y-142270557D01*
X82410197Y-142289803D01*
X82429443Y-142305597D01*
X82451399Y-142317333D01*
X82475224Y-142324560D01*
X82500000Y-142327000D01*
X127500000Y-142327000D01*
X127524776Y-142324560D01*
X127548601Y-142317333D01*
X127570557Y-142305597D01*
X127589803Y-142289803D01*
X127605597Y-142270557D01*
X127617333Y-142248601D01*
X127624560Y-142224776D01*
X127627000Y-142200000D01*
X127627000Y-97200000D01*
X127624560Y-97175224D01*
X127617333Y-97151399D01*
X127605597Y-97129443D01*
X127589803Y-97110197D01*
X127570557Y-97094403D01*
X127548601Y-97082667D01*
X127524776Y-97075440D01*
X127500000Y-97073000D01*
X82500000Y-97073000D01*
X82475224Y-97075440D01*
X82451399Y-97082667D01*
X82429443Y-97094403D01*
X82410197Y-97110197D01*
X82394403Y-97129443D01*
X82382667Y-97151399D01*
X82375440Y-97175224D01*
X82373000Y-97200000D01*
X80127000Y-97200000D01*
X80127000Y-94827000D01*
X129873000Y-94827000D01*
X129873000Y-144573000D01*
G36*
X79873000Y-144873000D02*
G01*
X30127000Y-144873000D01*
X30127000Y-47500000D01*
X32373000Y-47500000D01*
X32373000Y-142500000D01*
X32375440Y-142524776D01*
X32382667Y-142548601D01*
X32394403Y-142570557D01*
X32410197Y-142589803D01*
X32429443Y-142605597D01*
X32451399Y-142617333D01*
X32475224Y-142624560D01*
X32500000Y-142627000D01*
X77500000Y-142627000D01*
X77524776Y-142624560D01*
X77548601Y-142617333D01*
X77570557Y-142605597D01*
X77589803Y-142589803D01*
X77605597Y-142570557D01*
X77617333Y-142548601D01*
X77624560Y-142524776D01*
X77627000Y-142500000D01*
X77627000Y-47500000D01*
X77624560Y-47475224D01*
X77617333Y-47451399D01*
X77605597Y-47429443D01*
X77589803Y-47410197D01*
X77570557Y-47394403D01*
X77548601Y-47382667D01*
X77524776Y-47375440D01*
X77500000Y-47373000D01*
X32500000Y-47373000D01*
X32475224Y-47375440D01*
X32451399Y-47382667D01*
X32429443Y-47394403D01*
X32410197Y-47410197D01*
X32394403Y-47429443D01*
X32382667Y-47451399D01*
X32375440Y-47475224D01*
X32373000Y-47500000D01*
X30127000Y-47500000D01*
X30127000Y-45127000D01*
X79873000Y-45127000D01*
X79873000Y-144873000D01*
G37*
X79873000Y-144873000D02*
X30127000Y-144873000D01*
X30127000Y-47500000D01*
X32373000Y-47500000D01*
X32373000Y-142500000D01*
X32375440Y-142524776D01*
X32382667Y-142548601D01*
X32394403Y-142570557D01*
X32410197Y-142589803D01*
X32429443Y-142605597D01*
X32451399Y-142617333D01*
X32475224Y-142624560D01*
X32500000Y-142627000D01*
X77500000Y-142627000D01*
X77524776Y-142624560D01*
X77548601Y-142617333D01*
X77570557Y-142605597D01*
X77589803Y-142589803D01*
X77605597Y-142570557D01*
X77617333Y-142548601D01*
X77624560Y-142524776D01*
X77627000Y-142500000D01*
X77627000Y-47500000D01*
X77624560Y-47475224D01*
X77617333Y-47451399D01*
X77605597Y-47429443D01*
X77589803Y-47410197D01*
X77570557Y-47394403D01*
X77548601Y-47382667D01*
X77524776Y-47375440D01*
X77500000Y-47373000D01*
X32500000Y-47373000D01*
X32475224Y-47375440D01*
X32451399Y-47382667D01*
X32429443Y-47394403D01*
X32410197Y-47410197D01*
X32394403Y-47429443D01*
X32382667Y-47451399D01*
X32375440Y-47475224D01*
X32373000Y-47500000D01*
X30127000Y-47500000D01*
X30127000Y-45127000D01*
X79873000Y-45127000D01*
X79873000Y-144873000D01*
M02*
