G04 #@! TF.GenerationSoftware,KiCad,Pcbnew,(5.1.5)-3*
G04 #@! TF.CreationDate,2021-12-07T14:22:12+01:00*
G04 #@! TF.ProjectId,dual_ocxo_themis,6475616c-5f6f-4637-986f-5f7468656d69,rev?*
G04 #@! TF.SameCoordinates,Original*
G04 #@! TF.FileFunction,Legend,Top*
G04 #@! TF.FilePolarity,Positive*
%FSLAX46Y46*%
G04 Gerber Fmt 4.6, Leading zero omitted, Abs format (unit mm)*
G04 Created by KiCad (PCBNEW (5.1.5)-3) date 2021-12-07 14:22:12*
%MOMM*%
%LPD*%
G04 APERTURE LIST*
%ADD10C,0.300000*%
%ADD11C,0.120000*%
%ADD12C,0.099060*%
%ADD13C,0.381000*%
%ADD14C,0.400000*%
%ADD15C,0.150000*%
%ADD16C,5.900000*%
%ADD17R,3.000000X2.400000*%
%ADD18O,3.000000X2.400000*%
%ADD19C,2.398980*%
%ADD20C,2.899360*%
%ADD21C,2.900000*%
%ADD22C,2.200000*%
%ADD23C,1.840000*%
%ADD24R,5.400000X5.400000*%
%ADD25C,3.400000*%
%ADD26R,4.400000X4.400000*%
%ADD27R,5.000000X5.000000*%
%ADD28C,4.000000*%
%ADD29R,2.400000X3.900000*%
%ADD30C,6.000000*%
%ADD31C,3.700000*%
%ADD32R,1.645000X2.200000*%
%ADD33C,0.254000*%
G04 APERTURE END LIST*
D10*
X105357142Y-77750000D02*
X106071428Y-77750000D01*
X105214285Y-78178571D02*
X105714285Y-76678571D01*
X106214285Y-78178571D01*
X106714285Y-77178571D02*
X106714285Y-77964285D01*
X106785714Y-78107142D01*
X106928571Y-78178571D01*
X106642857Y-76821428D02*
X106714285Y-76821428D01*
X106785714Y-76750000D01*
X106785714Y-76607142D01*
X107928571Y-77678571D02*
X107928571Y-77964285D01*
X107571428Y-77178571D02*
X107500000Y-77250000D01*
X107428571Y-77392857D01*
X107428571Y-77964285D01*
X107500000Y-78107142D01*
X107642857Y-78178571D01*
X107714285Y-78178571D01*
X107857142Y-78107142D01*
X107928571Y-77964285D01*
X108000000Y-78107142D01*
X108142857Y-78178571D01*
X108214285Y-78178571D01*
X108357142Y-78107142D01*
X108428571Y-77964285D01*
X108428571Y-77392857D01*
X108357142Y-77250000D01*
X108285714Y-77178571D01*
X108071428Y-76607142D02*
X107857142Y-76821428D01*
X108928571Y-77178571D02*
X109285714Y-78178571D01*
X109642857Y-77392857D01*
X109642857Y-77321428D01*
X109571428Y-77178571D01*
X124250000Y-76123571D02*
X124178571Y-76266428D01*
X124178571Y-76480714D01*
X124250000Y-76695000D01*
X124392857Y-76837857D01*
X124535714Y-76909285D01*
X124821428Y-76980714D01*
X125035714Y-76980714D01*
X125321428Y-76909285D01*
X125464285Y-76837857D01*
X125607142Y-76695000D01*
X125678571Y-76480714D01*
X125678571Y-76337857D01*
X125607142Y-76123571D01*
X125535714Y-76052142D01*
X125035714Y-76052142D01*
X125035714Y-76337857D01*
X125678571Y-75409285D02*
X124178571Y-75409285D01*
X125678571Y-74552142D01*
X124178571Y-74552142D01*
X125678571Y-73837857D02*
X124178571Y-73837857D01*
X124178571Y-73480714D01*
X124250000Y-73266428D01*
X124392857Y-73123571D01*
X124535714Y-73052142D01*
X124821428Y-72980714D01*
X125035714Y-72980714D01*
X125321428Y-73052142D01*
X125464285Y-73123571D01*
X125607142Y-73266428D01*
X125678571Y-73480714D01*
X125678571Y-73837857D01*
X89403571Y-85653214D02*
X89403571Y-86510357D01*
X89403571Y-86081785D02*
X87903571Y-85894285D01*
X88117857Y-86063928D01*
X88260714Y-86224642D01*
X88332142Y-86376428D01*
X87903571Y-84537142D02*
X87903571Y-84394285D01*
X87975000Y-84260357D01*
X88046428Y-84197857D01*
X88189285Y-84144285D01*
X88475000Y-84108571D01*
X88832142Y-84153214D01*
X89117857Y-84260357D01*
X89260714Y-84349642D01*
X89332142Y-84430000D01*
X89403571Y-84581785D01*
X89403571Y-84724642D01*
X89332142Y-84858571D01*
X89260714Y-84921071D01*
X89117857Y-84974642D01*
X88832142Y-85010357D01*
X88475000Y-84965714D01*
X88189285Y-84858571D01*
X88046428Y-84769285D01*
X87975000Y-84688928D01*
X87903571Y-84537142D01*
X89403571Y-82438928D02*
X87903571Y-82251428D01*
X88975000Y-81885357D01*
X87903571Y-81251428D01*
X89403571Y-81438928D01*
X89403571Y-80724642D02*
X87903571Y-80537142D01*
X88617857Y-80626428D02*
X88617857Y-79769285D01*
X89403571Y-79867500D02*
X87903571Y-79680000D01*
X88403571Y-79171071D02*
X88403571Y-78385357D01*
X89403571Y-79296071D01*
X89403571Y-78510357D01*
X87903571Y-76322857D02*
X87903571Y-76037142D01*
X87975000Y-75903214D01*
X88117857Y-75778214D01*
X88403571Y-75742500D01*
X88903571Y-75805000D01*
X89189285Y-75912142D01*
X89332142Y-76072857D01*
X89403571Y-76224642D01*
X89403571Y-76510357D01*
X89332142Y-76644285D01*
X89189285Y-76769285D01*
X88903571Y-76805000D01*
X88403571Y-76742500D01*
X88117857Y-76635357D01*
X87975000Y-76474642D01*
X87903571Y-76322857D01*
X89260714Y-74349642D02*
X89332142Y-74430000D01*
X89403571Y-74653214D01*
X89403571Y-74796071D01*
X89332142Y-75001428D01*
X89189285Y-75126428D01*
X89046428Y-75180000D01*
X88760714Y-75215714D01*
X88546428Y-75188928D01*
X88260714Y-75081785D01*
X88117857Y-74992500D01*
X87975000Y-74831785D01*
X87903571Y-74608571D01*
X87903571Y-74465714D01*
X87975000Y-74260357D01*
X88046428Y-74197857D01*
X87903571Y-73680000D02*
X89403571Y-72867500D01*
X87903571Y-72680000D02*
X89403571Y-73867500D01*
X87903571Y-71822857D02*
X87903571Y-71537142D01*
X87975000Y-71403214D01*
X88117857Y-71278214D01*
X88403571Y-71242500D01*
X88903571Y-71305000D01*
X89189285Y-71412142D01*
X89332142Y-71572857D01*
X89403571Y-71724642D01*
X89403571Y-72010357D01*
X89332142Y-72144285D01*
X89189285Y-72269285D01*
X88903571Y-72305000D01*
X88403571Y-72242500D01*
X88117857Y-72135357D01*
X87975000Y-71974642D01*
X87903571Y-71822857D01*
X91167857Y-85840714D02*
X91167857Y-86340714D01*
X91953571Y-86438928D02*
X90453571Y-86251428D01*
X90453571Y-85537142D01*
X91953571Y-85153214D02*
X90953571Y-85028214D01*
X91239285Y-85063928D02*
X91096428Y-84974642D01*
X91025000Y-84894285D01*
X90953571Y-84742500D01*
X90953571Y-84599642D01*
X91882142Y-83644285D02*
X91953571Y-83796071D01*
X91953571Y-84081785D01*
X91882142Y-84215714D01*
X91739285Y-84269285D01*
X91167857Y-84197857D01*
X91025000Y-84108571D01*
X90953571Y-83956785D01*
X90953571Y-83671071D01*
X91025000Y-83537142D01*
X91167857Y-83483571D01*
X91310714Y-83501428D01*
X91453571Y-84233571D01*
X90953571Y-82171071D02*
X92453571Y-82358571D01*
X91882142Y-82287142D02*
X91953571Y-82438928D01*
X91953571Y-82724642D01*
X91882142Y-82858571D01*
X91810714Y-82921071D01*
X91667857Y-82974642D01*
X91239285Y-82921071D01*
X91096428Y-82831785D01*
X91025000Y-82751428D01*
X90953571Y-82599642D01*
X90953571Y-82313928D01*
X91025000Y-82180000D01*
X90953571Y-80813928D02*
X91953571Y-80938928D01*
X90953571Y-81456785D02*
X91739285Y-81555000D01*
X91882142Y-81501428D01*
X91953571Y-81367500D01*
X91953571Y-81153214D01*
X91882142Y-81001428D01*
X91810714Y-80921071D01*
X91882142Y-79644285D02*
X91953571Y-79796071D01*
X91953571Y-80081785D01*
X91882142Y-80215714D01*
X91739285Y-80269285D01*
X91167857Y-80197857D01*
X91025000Y-80108571D01*
X90953571Y-79956785D01*
X90953571Y-79671071D01*
X91025000Y-79537142D01*
X91167857Y-79483571D01*
X91310714Y-79501428D01*
X91453571Y-80233571D01*
X90953571Y-78813928D02*
X91953571Y-78938928D01*
X91096428Y-78831785D02*
X91025000Y-78751428D01*
X90953571Y-78599642D01*
X90953571Y-78385357D01*
X91025000Y-78251428D01*
X91167857Y-78197857D01*
X91953571Y-78296071D01*
X91882142Y-76930000D02*
X91953571Y-77081785D01*
X91953571Y-77367500D01*
X91882142Y-77501428D01*
X91810714Y-77563928D01*
X91667857Y-77617500D01*
X91239285Y-77563928D01*
X91096428Y-77474642D01*
X91025000Y-77394285D01*
X90953571Y-77242500D01*
X90953571Y-76956785D01*
X91025000Y-76822857D01*
X90953571Y-76313928D02*
X91953571Y-76081785D01*
X90953571Y-75599642D02*
X91953571Y-76081785D01*
X92310714Y-76269285D01*
X92382142Y-76349642D01*
X92453571Y-76501428D01*
X91953571Y-73153214D02*
X91239285Y-73563928D01*
X91953571Y-74010357D02*
X90453571Y-73822857D01*
X90453571Y-73251428D01*
X90525000Y-73117500D01*
X90596428Y-73055000D01*
X90739285Y-73001428D01*
X90953571Y-73028214D01*
X91096428Y-73117500D01*
X91167857Y-73197857D01*
X91239285Y-73349642D01*
X91239285Y-73921071D01*
X91882142Y-71930000D02*
X91953571Y-72081785D01*
X91953571Y-72367500D01*
X91882142Y-72501428D01*
X91739285Y-72555000D01*
X91167857Y-72483571D01*
X91025000Y-72394285D01*
X90953571Y-72242500D01*
X90953571Y-71956785D01*
X91025000Y-71822857D01*
X91167857Y-71769285D01*
X91310714Y-71787142D01*
X91453571Y-72519285D01*
X90953571Y-71313928D02*
X90953571Y-70742500D01*
X91953571Y-71224642D02*
X90667857Y-71063928D01*
X90525000Y-70974642D01*
X90453571Y-70822857D01*
X90453571Y-70680000D01*
X91882142Y-69787142D02*
X91953571Y-69938928D01*
X91953571Y-70224642D01*
X91882142Y-70358571D01*
X91739285Y-70412142D01*
X91167857Y-70340714D01*
X91025000Y-70251428D01*
X90953571Y-70099642D01*
X90953571Y-69813928D01*
X91025000Y-69680000D01*
X91167857Y-69626428D01*
X91310714Y-69644285D01*
X91453571Y-70376428D01*
X91953571Y-69081785D02*
X90953571Y-68956785D01*
X91239285Y-68992500D02*
X91096428Y-68903214D01*
X91025000Y-68822857D01*
X90953571Y-68671071D01*
X90953571Y-68528214D01*
X91882142Y-67572857D02*
X91953571Y-67724642D01*
X91953571Y-68010357D01*
X91882142Y-68144285D01*
X91739285Y-68197857D01*
X91167857Y-68126428D01*
X91025000Y-68037142D01*
X90953571Y-67885357D01*
X90953571Y-67599642D01*
X91025000Y-67465714D01*
X91167857Y-67412142D01*
X91310714Y-67430000D01*
X91453571Y-68162142D01*
X90953571Y-66742500D02*
X91953571Y-66867500D01*
X91096428Y-66760357D02*
X91025000Y-66680000D01*
X90953571Y-66528214D01*
X90953571Y-66313928D01*
X91025000Y-66180000D01*
X91167857Y-66126428D01*
X91953571Y-66224642D01*
X91882142Y-64858571D02*
X91953571Y-65010357D01*
X91953571Y-65296071D01*
X91882142Y-65430000D01*
X91810714Y-65492500D01*
X91667857Y-65546071D01*
X91239285Y-65492500D01*
X91096428Y-65403214D01*
X91025000Y-65322857D01*
X90953571Y-65171071D01*
X90953571Y-64885357D01*
X91025000Y-64751428D01*
X91882142Y-63644285D02*
X91953571Y-63796071D01*
X91953571Y-64081785D01*
X91882142Y-64215714D01*
X91739285Y-64269285D01*
X91167857Y-64197857D01*
X91025000Y-64108571D01*
X90953571Y-63956785D01*
X90953571Y-63671071D01*
X91025000Y-63537142D01*
X91167857Y-63483571D01*
X91310714Y-63501428D01*
X91453571Y-64233571D01*
X92525000Y-61438928D02*
X92453571Y-61501428D01*
X92239285Y-61617500D01*
X92096428Y-61671071D01*
X91882142Y-61715714D01*
X91525000Y-61742500D01*
X91239285Y-61706785D01*
X90882142Y-61590714D01*
X90667857Y-61492500D01*
X90525000Y-61403214D01*
X90310714Y-61233571D01*
X90239285Y-61153214D01*
X90953571Y-60813928D02*
X91953571Y-60581785D01*
X90953571Y-60099642D01*
X91953571Y-58867500D02*
X91953571Y-59724642D01*
X91953571Y-59296071D02*
X90453571Y-59108571D01*
X90667857Y-59278214D01*
X90810714Y-59438928D01*
X90882142Y-59590714D01*
X92525000Y-58438928D02*
X92453571Y-58358571D01*
X92239285Y-58188928D01*
X92096428Y-58099642D01*
X91882142Y-58001428D01*
X91525000Y-57885357D01*
X91239285Y-57849642D01*
X90882142Y-57876428D01*
X90667857Y-57921071D01*
X90525000Y-57974642D01*
X90310714Y-58090714D01*
X90239285Y-58153214D01*
X122403571Y-65662142D02*
X123903571Y-65162142D01*
X122403571Y-64662142D01*
X123832142Y-63519285D02*
X123903571Y-63662142D01*
X123903571Y-63947857D01*
X123832142Y-64090714D01*
X123760714Y-64162142D01*
X123617857Y-64233571D01*
X123189285Y-64233571D01*
X123046428Y-64162142D01*
X122975000Y-64090714D01*
X122903571Y-63947857D01*
X122903571Y-63662142D01*
X122975000Y-63519285D01*
X123832142Y-62233571D02*
X123903571Y-62376428D01*
X123903571Y-62662142D01*
X123832142Y-62805000D01*
X123760714Y-62876428D01*
X123617857Y-62947857D01*
X123189285Y-62947857D01*
X123046428Y-62876428D01*
X122975000Y-62805000D01*
X122903571Y-62662142D01*
X122903571Y-62376428D01*
X122975000Y-62233571D01*
X123903571Y-60447857D02*
X122403571Y-60447857D01*
X122903571Y-59733571D02*
X123903571Y-59733571D01*
X123046428Y-59733571D02*
X122975000Y-59662142D01*
X122903571Y-59519285D01*
X122903571Y-59305000D01*
X122975000Y-59162142D01*
X123117857Y-59090714D01*
X123903571Y-59090714D01*
X125882142Y-65447857D02*
X125882142Y-64305000D01*
X126453571Y-64876428D02*
X125310714Y-64876428D01*
X125882142Y-63590714D02*
X125882142Y-62447857D01*
X126453571Y-63019285D02*
X125310714Y-63019285D01*
X124953571Y-60733571D02*
X124953571Y-59733571D01*
X126453571Y-60376428D01*
X124882142Y-58090714D02*
X126810714Y-59376428D01*
X126453571Y-56805000D02*
X126453571Y-57662142D01*
X126453571Y-57233571D02*
X124953571Y-57233571D01*
X125167857Y-57376428D01*
X125310714Y-57519285D01*
X125382142Y-57662142D01*
X125096428Y-56233571D02*
X125025000Y-56162142D01*
X124953571Y-56019285D01*
X124953571Y-55662142D01*
X125025000Y-55519285D01*
X125096428Y-55447857D01*
X125239285Y-55376428D01*
X125382142Y-55376428D01*
X125596428Y-55447857D01*
X126453571Y-56305000D01*
X126453571Y-55376428D01*
X124953571Y-54947857D02*
X126453571Y-54447857D01*
X124953571Y-53947857D01*
X105357142Y-127450000D02*
X106071428Y-127450000D01*
X105214285Y-127878571D02*
X105714285Y-126378571D01*
X106214285Y-127878571D01*
X106714285Y-126878571D02*
X106714285Y-127664285D01*
X106785714Y-127807142D01*
X106928571Y-127878571D01*
X106642857Y-126521428D02*
X106714285Y-126521428D01*
X106785714Y-126450000D01*
X106785714Y-126307142D01*
X107928571Y-127378571D02*
X107928571Y-127664285D01*
X107571428Y-126878571D02*
X107500000Y-126950000D01*
X107428571Y-127092857D01*
X107428571Y-127664285D01*
X107500000Y-127807142D01*
X107642857Y-127878571D01*
X107714285Y-127878571D01*
X107857142Y-127807142D01*
X107928571Y-127664285D01*
X108000000Y-127807142D01*
X108142857Y-127878571D01*
X108214285Y-127878571D01*
X108357142Y-127807142D01*
X108428571Y-127664285D01*
X108428571Y-127092857D01*
X108357142Y-126950000D01*
X108285714Y-126878571D01*
X108071428Y-126307142D02*
X107857142Y-126521428D01*
X108928571Y-126878571D02*
X109285714Y-127878571D01*
X109642857Y-127092857D01*
X109642857Y-127021428D01*
X109571428Y-126878571D01*
X124250000Y-125823571D02*
X124178571Y-125966428D01*
X124178571Y-126180714D01*
X124250000Y-126395000D01*
X124392857Y-126537857D01*
X124535714Y-126609285D01*
X124821428Y-126680714D01*
X125035714Y-126680714D01*
X125321428Y-126609285D01*
X125464285Y-126537857D01*
X125607142Y-126395000D01*
X125678571Y-126180714D01*
X125678571Y-126037857D01*
X125607142Y-125823571D01*
X125535714Y-125752142D01*
X125035714Y-125752142D01*
X125035714Y-126037857D01*
X125678571Y-125109285D02*
X124178571Y-125109285D01*
X125678571Y-124252142D01*
X124178571Y-124252142D01*
X125678571Y-123537857D02*
X124178571Y-123537857D01*
X124178571Y-123180714D01*
X124250000Y-122966428D01*
X124392857Y-122823571D01*
X124535714Y-122752142D01*
X124821428Y-122680714D01*
X125035714Y-122680714D01*
X125321428Y-122752142D01*
X125464285Y-122823571D01*
X125607142Y-122966428D01*
X125678571Y-123180714D01*
X125678571Y-123537857D01*
X89403571Y-135353214D02*
X89403571Y-136210357D01*
X89403571Y-135781785D02*
X87903571Y-135594285D01*
X88117857Y-135763928D01*
X88260714Y-135924642D01*
X88332142Y-136076428D01*
X87903571Y-134237142D02*
X87903571Y-134094285D01*
X87975000Y-133960357D01*
X88046428Y-133897857D01*
X88189285Y-133844285D01*
X88475000Y-133808571D01*
X88832142Y-133853214D01*
X89117857Y-133960357D01*
X89260714Y-134049642D01*
X89332142Y-134130000D01*
X89403571Y-134281785D01*
X89403571Y-134424642D01*
X89332142Y-134558571D01*
X89260714Y-134621071D01*
X89117857Y-134674642D01*
X88832142Y-134710357D01*
X88475000Y-134665714D01*
X88189285Y-134558571D01*
X88046428Y-134469285D01*
X87975000Y-134388928D01*
X87903571Y-134237142D01*
X89403571Y-132138928D02*
X87903571Y-131951428D01*
X88975000Y-131585357D01*
X87903571Y-130951428D01*
X89403571Y-131138928D01*
X89403571Y-130424642D02*
X87903571Y-130237142D01*
X88617857Y-130326428D02*
X88617857Y-129469285D01*
X89403571Y-129567500D02*
X87903571Y-129380000D01*
X88403571Y-128871071D02*
X88403571Y-128085357D01*
X89403571Y-128996071D01*
X89403571Y-128210357D01*
X87903571Y-126022857D02*
X87903571Y-125737142D01*
X87975000Y-125603214D01*
X88117857Y-125478214D01*
X88403571Y-125442500D01*
X88903571Y-125505000D01*
X89189285Y-125612142D01*
X89332142Y-125772857D01*
X89403571Y-125924642D01*
X89403571Y-126210357D01*
X89332142Y-126344285D01*
X89189285Y-126469285D01*
X88903571Y-126505000D01*
X88403571Y-126442500D01*
X88117857Y-126335357D01*
X87975000Y-126174642D01*
X87903571Y-126022857D01*
X89260714Y-124049642D02*
X89332142Y-124130000D01*
X89403571Y-124353214D01*
X89403571Y-124496071D01*
X89332142Y-124701428D01*
X89189285Y-124826428D01*
X89046428Y-124880000D01*
X88760714Y-124915714D01*
X88546428Y-124888928D01*
X88260714Y-124781785D01*
X88117857Y-124692500D01*
X87975000Y-124531785D01*
X87903571Y-124308571D01*
X87903571Y-124165714D01*
X87975000Y-123960357D01*
X88046428Y-123897857D01*
X87903571Y-123380000D02*
X89403571Y-122567500D01*
X87903571Y-122380000D02*
X89403571Y-123567500D01*
X87903571Y-121522857D02*
X87903571Y-121237142D01*
X87975000Y-121103214D01*
X88117857Y-120978214D01*
X88403571Y-120942500D01*
X88903571Y-121005000D01*
X89189285Y-121112142D01*
X89332142Y-121272857D01*
X89403571Y-121424642D01*
X89403571Y-121710357D01*
X89332142Y-121844285D01*
X89189285Y-121969285D01*
X88903571Y-122005000D01*
X88403571Y-121942500D01*
X88117857Y-121835357D01*
X87975000Y-121674642D01*
X87903571Y-121522857D01*
X91167857Y-135540714D02*
X91167857Y-136040714D01*
X91953571Y-136138928D02*
X90453571Y-135951428D01*
X90453571Y-135237142D01*
X91953571Y-134853214D02*
X90953571Y-134728214D01*
X91239285Y-134763928D02*
X91096428Y-134674642D01*
X91025000Y-134594285D01*
X90953571Y-134442500D01*
X90953571Y-134299642D01*
X91882142Y-133344285D02*
X91953571Y-133496071D01*
X91953571Y-133781785D01*
X91882142Y-133915714D01*
X91739285Y-133969285D01*
X91167857Y-133897857D01*
X91025000Y-133808571D01*
X90953571Y-133656785D01*
X90953571Y-133371071D01*
X91025000Y-133237142D01*
X91167857Y-133183571D01*
X91310714Y-133201428D01*
X91453571Y-133933571D01*
X90953571Y-131871071D02*
X92453571Y-132058571D01*
X91882142Y-131987142D02*
X91953571Y-132138928D01*
X91953571Y-132424642D01*
X91882142Y-132558571D01*
X91810714Y-132621071D01*
X91667857Y-132674642D01*
X91239285Y-132621071D01*
X91096428Y-132531785D01*
X91025000Y-132451428D01*
X90953571Y-132299642D01*
X90953571Y-132013928D01*
X91025000Y-131880000D01*
X90953571Y-130513928D02*
X91953571Y-130638928D01*
X90953571Y-131156785D02*
X91739285Y-131255000D01*
X91882142Y-131201428D01*
X91953571Y-131067500D01*
X91953571Y-130853214D01*
X91882142Y-130701428D01*
X91810714Y-130621071D01*
X91882142Y-129344285D02*
X91953571Y-129496071D01*
X91953571Y-129781785D01*
X91882142Y-129915714D01*
X91739285Y-129969285D01*
X91167857Y-129897857D01*
X91025000Y-129808571D01*
X90953571Y-129656785D01*
X90953571Y-129371071D01*
X91025000Y-129237142D01*
X91167857Y-129183571D01*
X91310714Y-129201428D01*
X91453571Y-129933571D01*
X90953571Y-128513928D02*
X91953571Y-128638928D01*
X91096428Y-128531785D02*
X91025000Y-128451428D01*
X90953571Y-128299642D01*
X90953571Y-128085357D01*
X91025000Y-127951428D01*
X91167857Y-127897857D01*
X91953571Y-127996071D01*
X91882142Y-126630000D02*
X91953571Y-126781785D01*
X91953571Y-127067500D01*
X91882142Y-127201428D01*
X91810714Y-127263928D01*
X91667857Y-127317500D01*
X91239285Y-127263928D01*
X91096428Y-127174642D01*
X91025000Y-127094285D01*
X90953571Y-126942500D01*
X90953571Y-126656785D01*
X91025000Y-126522857D01*
X90953571Y-126013928D02*
X91953571Y-125781785D01*
X90953571Y-125299642D02*
X91953571Y-125781785D01*
X92310714Y-125969285D01*
X92382142Y-126049642D01*
X92453571Y-126201428D01*
X91953571Y-122853214D02*
X91239285Y-123263928D01*
X91953571Y-123710357D02*
X90453571Y-123522857D01*
X90453571Y-122951428D01*
X90525000Y-122817500D01*
X90596428Y-122755000D01*
X90739285Y-122701428D01*
X90953571Y-122728214D01*
X91096428Y-122817500D01*
X91167857Y-122897857D01*
X91239285Y-123049642D01*
X91239285Y-123621071D01*
X91882142Y-121630000D02*
X91953571Y-121781785D01*
X91953571Y-122067500D01*
X91882142Y-122201428D01*
X91739285Y-122255000D01*
X91167857Y-122183571D01*
X91025000Y-122094285D01*
X90953571Y-121942500D01*
X90953571Y-121656785D01*
X91025000Y-121522857D01*
X91167857Y-121469285D01*
X91310714Y-121487142D01*
X91453571Y-122219285D01*
X90953571Y-121013928D02*
X90953571Y-120442500D01*
X91953571Y-120924642D02*
X90667857Y-120763928D01*
X90525000Y-120674642D01*
X90453571Y-120522857D01*
X90453571Y-120380000D01*
X91882142Y-119487142D02*
X91953571Y-119638928D01*
X91953571Y-119924642D01*
X91882142Y-120058571D01*
X91739285Y-120112142D01*
X91167857Y-120040714D01*
X91025000Y-119951428D01*
X90953571Y-119799642D01*
X90953571Y-119513928D01*
X91025000Y-119380000D01*
X91167857Y-119326428D01*
X91310714Y-119344285D01*
X91453571Y-120076428D01*
X91953571Y-118781785D02*
X90953571Y-118656785D01*
X91239285Y-118692500D02*
X91096428Y-118603214D01*
X91025000Y-118522857D01*
X90953571Y-118371071D01*
X90953571Y-118228214D01*
X91882142Y-117272857D02*
X91953571Y-117424642D01*
X91953571Y-117710357D01*
X91882142Y-117844285D01*
X91739285Y-117897857D01*
X91167857Y-117826428D01*
X91025000Y-117737142D01*
X90953571Y-117585357D01*
X90953571Y-117299642D01*
X91025000Y-117165714D01*
X91167857Y-117112142D01*
X91310714Y-117130000D01*
X91453571Y-117862142D01*
X90953571Y-116442500D02*
X91953571Y-116567500D01*
X91096428Y-116460357D02*
X91025000Y-116380000D01*
X90953571Y-116228214D01*
X90953571Y-116013928D01*
X91025000Y-115880000D01*
X91167857Y-115826428D01*
X91953571Y-115924642D01*
X91882142Y-114558571D02*
X91953571Y-114710357D01*
X91953571Y-114996071D01*
X91882142Y-115130000D01*
X91810714Y-115192500D01*
X91667857Y-115246071D01*
X91239285Y-115192500D01*
X91096428Y-115103214D01*
X91025000Y-115022857D01*
X90953571Y-114871071D01*
X90953571Y-114585357D01*
X91025000Y-114451428D01*
X91882142Y-113344285D02*
X91953571Y-113496071D01*
X91953571Y-113781785D01*
X91882142Y-113915714D01*
X91739285Y-113969285D01*
X91167857Y-113897857D01*
X91025000Y-113808571D01*
X90953571Y-113656785D01*
X90953571Y-113371071D01*
X91025000Y-113237142D01*
X91167857Y-113183571D01*
X91310714Y-113201428D01*
X91453571Y-113933571D01*
X92525000Y-111138928D02*
X92453571Y-111201428D01*
X92239285Y-111317500D01*
X92096428Y-111371071D01*
X91882142Y-111415714D01*
X91525000Y-111442500D01*
X91239285Y-111406785D01*
X90882142Y-111290714D01*
X90667857Y-111192500D01*
X90525000Y-111103214D01*
X90310714Y-110933571D01*
X90239285Y-110853214D01*
X90953571Y-110513928D02*
X91953571Y-110281785D01*
X90953571Y-109799642D01*
X91953571Y-108567500D02*
X91953571Y-109424642D01*
X91953571Y-108996071D02*
X90453571Y-108808571D01*
X90667857Y-108978214D01*
X90810714Y-109138928D01*
X90882142Y-109290714D01*
X92525000Y-108138928D02*
X92453571Y-108058571D01*
X92239285Y-107888928D01*
X92096428Y-107799642D01*
X91882142Y-107701428D01*
X91525000Y-107585357D01*
X91239285Y-107549642D01*
X90882142Y-107576428D01*
X90667857Y-107621071D01*
X90525000Y-107674642D01*
X90310714Y-107790714D01*
X90239285Y-107853214D01*
X122403571Y-115362142D02*
X123903571Y-114862142D01*
X122403571Y-114362142D01*
X123832142Y-113219285D02*
X123903571Y-113362142D01*
X123903571Y-113647857D01*
X123832142Y-113790714D01*
X123760714Y-113862142D01*
X123617857Y-113933571D01*
X123189285Y-113933571D01*
X123046428Y-113862142D01*
X122975000Y-113790714D01*
X122903571Y-113647857D01*
X122903571Y-113362142D01*
X122975000Y-113219285D01*
X123832142Y-111933571D02*
X123903571Y-112076428D01*
X123903571Y-112362142D01*
X123832142Y-112505000D01*
X123760714Y-112576428D01*
X123617857Y-112647857D01*
X123189285Y-112647857D01*
X123046428Y-112576428D01*
X122975000Y-112505000D01*
X122903571Y-112362142D01*
X122903571Y-112076428D01*
X122975000Y-111933571D01*
X123903571Y-110147857D02*
X122403571Y-110147857D01*
X122903571Y-109433571D02*
X123903571Y-109433571D01*
X123046428Y-109433571D02*
X122975000Y-109362142D01*
X122903571Y-109219285D01*
X122903571Y-109005000D01*
X122975000Y-108862142D01*
X123117857Y-108790714D01*
X123903571Y-108790714D01*
X125882142Y-115147857D02*
X125882142Y-114005000D01*
X126453571Y-114576428D02*
X125310714Y-114576428D01*
X125882142Y-113290714D02*
X125882142Y-112147857D01*
X126453571Y-112719285D02*
X125310714Y-112719285D01*
X124953571Y-110433571D02*
X124953571Y-109433571D01*
X126453571Y-110076428D01*
X124882142Y-107790714D02*
X126810714Y-109076428D01*
X126453571Y-106505000D02*
X126453571Y-107362142D01*
X126453571Y-106933571D02*
X124953571Y-106933571D01*
X125167857Y-107076428D01*
X125310714Y-107219285D01*
X125382142Y-107362142D01*
X125096428Y-105933571D02*
X125025000Y-105862142D01*
X124953571Y-105719285D01*
X124953571Y-105362142D01*
X125025000Y-105219285D01*
X125096428Y-105147857D01*
X125239285Y-105076428D01*
X125382142Y-105076428D01*
X125596428Y-105147857D01*
X126453571Y-106005000D01*
X126453571Y-105076428D01*
X124953571Y-104647857D02*
X126453571Y-104147857D01*
X124953571Y-103647857D01*
X57403571Y-138500000D02*
X57403571Y-139214285D01*
X55903571Y-139214285D01*
X57403571Y-138000000D02*
X55903571Y-138000000D01*
X55903571Y-137428571D01*
X55975000Y-137285714D01*
X56046428Y-137214285D01*
X56189285Y-137142857D01*
X56403571Y-137142857D01*
X56546428Y-137214285D01*
X56617857Y-137285714D01*
X56689285Y-137428571D01*
X56689285Y-138000000D01*
X56617857Y-136000000D02*
X56617857Y-136500000D01*
X57403571Y-136500000D02*
X55903571Y-136500000D01*
X55903571Y-135785714D01*
X57546428Y-135571428D02*
X57546428Y-134428571D01*
X58453571Y-138250000D02*
X58453571Y-137964285D01*
X58525000Y-137821428D01*
X58667857Y-137678571D01*
X58953571Y-137607142D01*
X59453571Y-137607142D01*
X59739285Y-137678571D01*
X59882142Y-137821428D01*
X59953571Y-137964285D01*
X59953571Y-138250000D01*
X59882142Y-138392857D01*
X59739285Y-138535714D01*
X59453571Y-138607142D01*
X58953571Y-138607142D01*
X58667857Y-138535714D01*
X58525000Y-138392857D01*
X58453571Y-138250000D01*
X58953571Y-136321428D02*
X59953571Y-136321428D01*
X58953571Y-136964285D02*
X59739285Y-136964285D01*
X59882142Y-136892857D01*
X59953571Y-136750000D01*
X59953571Y-136535714D01*
X59882142Y-136392857D01*
X59810714Y-136321428D01*
X58953571Y-135821428D02*
X58953571Y-135250000D01*
X58453571Y-135607142D02*
X59739285Y-135607142D01*
X59882142Y-135535714D01*
X59953571Y-135392857D01*
X59953571Y-135250000D01*
X70178571Y-103964285D02*
X70178571Y-103107142D01*
X71678571Y-103535714D02*
X70178571Y-103535714D01*
X71678571Y-102392857D02*
X71607142Y-102535714D01*
X71535714Y-102607142D01*
X71392857Y-102678571D01*
X70964285Y-102678571D01*
X70821428Y-102607142D01*
X70750000Y-102535714D01*
X70678571Y-102392857D01*
X70678571Y-102178571D01*
X70750000Y-102035714D01*
X70821428Y-101964285D01*
X70964285Y-101892857D01*
X71392857Y-101892857D01*
X71535714Y-101964285D01*
X71607142Y-102035714D01*
X71678571Y-102178571D01*
X71678571Y-102392857D01*
X71250000Y-100178571D02*
X71250000Y-99464285D01*
X71678571Y-100321428D02*
X70178571Y-99821428D01*
X71678571Y-99321428D01*
X71678571Y-98607142D02*
X71607142Y-98750000D01*
X71464285Y-98821428D01*
X70178571Y-98821428D01*
X71607142Y-97464285D02*
X71678571Y-97607142D01*
X71678571Y-97892857D01*
X71607142Y-98035714D01*
X71464285Y-98107142D01*
X70892857Y-98107142D01*
X70750000Y-98035714D01*
X70678571Y-97892857D01*
X70678571Y-97607142D01*
X70750000Y-97464285D01*
X70892857Y-97392857D01*
X71035714Y-97392857D01*
X71178571Y-98107142D01*
X71678571Y-96892857D02*
X70678571Y-96107142D01*
X70678571Y-96892857D02*
X71678571Y-96107142D01*
X71678571Y-94892857D02*
X70892857Y-94892857D01*
X70750000Y-94964285D01*
X70678571Y-95107142D01*
X70678571Y-95392857D01*
X70750000Y-95535714D01*
X71607142Y-94892857D02*
X71678571Y-95035714D01*
X71678571Y-95392857D01*
X71607142Y-95535714D01*
X71464285Y-95607142D01*
X71321428Y-95607142D01*
X71178571Y-95535714D01*
X71107142Y-95392857D01*
X71107142Y-95035714D01*
X71035714Y-94892857D01*
X70678571Y-94178571D02*
X71678571Y-94178571D01*
X70821428Y-94178571D02*
X70750000Y-94107142D01*
X70678571Y-93964285D01*
X70678571Y-93750000D01*
X70750000Y-93607142D01*
X70892857Y-93535714D01*
X71678571Y-93535714D01*
X71678571Y-92178571D02*
X70178571Y-92178571D01*
X71607142Y-92178571D02*
X71678571Y-92321428D01*
X71678571Y-92607142D01*
X71607142Y-92750000D01*
X71535714Y-92821428D01*
X71392857Y-92892857D01*
X70964285Y-92892857D01*
X70821428Y-92821428D01*
X70750000Y-92750000D01*
X70678571Y-92607142D01*
X70678571Y-92321428D01*
X70750000Y-92178571D01*
X71678571Y-91464285D02*
X70678571Y-91464285D01*
X70964285Y-91464285D02*
X70821428Y-91392857D01*
X70750000Y-91321428D01*
X70678571Y-91178571D01*
X70678571Y-91035714D01*
X71678571Y-90535714D02*
X70678571Y-90535714D01*
X70178571Y-90535714D02*
X70250000Y-90607142D01*
X70321428Y-90535714D01*
X70250000Y-90464285D01*
X70178571Y-90535714D01*
X70321428Y-90535714D01*
X71607142Y-89250000D02*
X71678571Y-89392857D01*
X71678571Y-89678571D01*
X71607142Y-89821428D01*
X71464285Y-89892857D01*
X70892857Y-89892857D01*
X70750000Y-89821428D01*
X70678571Y-89678571D01*
X70678571Y-89392857D01*
X70750000Y-89250000D01*
X70892857Y-89178571D01*
X71035714Y-89178571D01*
X71178571Y-89892857D01*
X43678571Y-53750000D02*
X43678571Y-53464285D01*
X43750000Y-53321428D01*
X43892857Y-53178571D01*
X44178571Y-53107142D01*
X44678571Y-53107142D01*
X44964285Y-53178571D01*
X45107142Y-53321428D01*
X45178571Y-53464285D01*
X45178571Y-53750000D01*
X45107142Y-53892857D01*
X44964285Y-54035714D01*
X44678571Y-54107142D01*
X44178571Y-54107142D01*
X43892857Y-54035714D01*
X43750000Y-53892857D01*
X43678571Y-53750000D01*
X44178571Y-51821428D02*
X45178571Y-51821428D01*
X44178571Y-52464285D02*
X44964285Y-52464285D01*
X45107142Y-52392857D01*
X45178571Y-52250000D01*
X45178571Y-52035714D01*
X45107142Y-51892857D01*
X45035714Y-51821428D01*
X44178571Y-51321428D02*
X44178571Y-50750000D01*
X43678571Y-51107142D02*
X44964285Y-51107142D01*
X45107142Y-51035714D01*
X45178571Y-50892857D01*
X45178571Y-50750000D01*
X44678571Y-137678571D02*
X43178571Y-137678571D01*
X43678571Y-136964285D02*
X44678571Y-136964285D01*
X43821428Y-136964285D02*
X43750000Y-136892857D01*
X43678571Y-136750000D01*
X43678571Y-136535714D01*
X43750000Y-136392857D01*
X43892857Y-136321428D01*
X44678571Y-136321428D01*
X63628571Y-79285714D02*
X63628571Y-78428571D01*
X65128571Y-78857142D02*
X63628571Y-78857142D01*
X65128571Y-77928571D02*
X63628571Y-77928571D01*
X65128571Y-77285714D02*
X64342857Y-77285714D01*
X64200000Y-77357142D01*
X64128571Y-77500000D01*
X64128571Y-77714285D01*
X64200000Y-77857142D01*
X64271428Y-77928571D01*
X65057142Y-76000000D02*
X65128571Y-76142857D01*
X65128571Y-76428571D01*
X65057142Y-76571428D01*
X64914285Y-76642857D01*
X64342857Y-76642857D01*
X64200000Y-76571428D01*
X64128571Y-76428571D01*
X64128571Y-76142857D01*
X64200000Y-76000000D01*
X64342857Y-75928571D01*
X64485714Y-75928571D01*
X64628571Y-76642857D01*
X65128571Y-75285714D02*
X64128571Y-75285714D01*
X64271428Y-75285714D02*
X64200000Y-75214285D01*
X64128571Y-75071428D01*
X64128571Y-74857142D01*
X64200000Y-74714285D01*
X64342857Y-74642857D01*
X65128571Y-74642857D01*
X64342857Y-74642857D02*
X64200000Y-74571428D01*
X64128571Y-74428571D01*
X64128571Y-74214285D01*
X64200000Y-74071428D01*
X64342857Y-74000000D01*
X65128571Y-74000000D01*
X65128571Y-73285714D02*
X64128571Y-73285714D01*
X63628571Y-73285714D02*
X63700000Y-73357142D01*
X63771428Y-73285714D01*
X63700000Y-73214285D01*
X63628571Y-73285714D01*
X63771428Y-73285714D01*
X65057142Y-72642857D02*
X65128571Y-72500000D01*
X65128571Y-72214285D01*
X65057142Y-72071428D01*
X64914285Y-72000000D01*
X64842857Y-72000000D01*
X64700000Y-72071428D01*
X64628571Y-72214285D01*
X64628571Y-72428571D01*
X64557142Y-72571428D01*
X64414285Y-72642857D01*
X64342857Y-72642857D01*
X64200000Y-72571428D01*
X64128571Y-72428571D01*
X64128571Y-72214285D01*
X64200000Y-72071428D01*
X66892857Y-77642857D02*
X66892857Y-77214285D01*
X66178571Y-77571428D02*
X66178571Y-77285714D01*
X66250000Y-77142857D01*
X66392857Y-77000000D01*
X66535714Y-76928571D01*
X66750000Y-76857142D01*
X67107142Y-76857142D01*
X67321428Y-76928571D01*
X67464285Y-77000000D01*
X67607142Y-77142857D01*
X67678571Y-77285714D01*
X67678571Y-77571428D01*
X67607142Y-77714285D01*
X67464285Y-77857142D01*
X67321428Y-77928571D01*
X67107142Y-78000000D01*
X66750000Y-78000000D01*
X66535714Y-77928571D01*
X66392857Y-77857142D01*
X66250000Y-77714285D01*
X66178571Y-77571428D01*
X67178571Y-76071428D02*
X67250000Y-76214285D01*
X67392857Y-76285714D01*
X67464285Y-76285714D01*
X67607142Y-76214285D01*
X67678571Y-76071428D01*
X67678571Y-75785714D01*
X67607142Y-75642857D01*
X67178571Y-75928571D02*
X67178571Y-76071428D01*
X67107142Y-76214285D01*
X66964285Y-76285714D01*
X66892857Y-76285714D01*
X66750000Y-76214285D01*
X66678571Y-76071428D01*
X66678571Y-75785714D01*
X66750000Y-75642857D01*
X66107142Y-75785714D02*
X66321428Y-76000000D01*
X66678571Y-75000000D02*
X68178571Y-75000000D01*
X67464285Y-74285714D02*
X67607142Y-74214285D01*
X67678571Y-74071428D01*
X67464285Y-75000000D02*
X67607142Y-74928571D01*
X67678571Y-74785714D01*
X67678571Y-74500000D01*
X67607142Y-74357142D01*
X67464285Y-74285714D01*
X66678571Y-74285714D01*
X66678571Y-73428571D02*
X67464285Y-73428571D01*
X67607142Y-73357142D01*
X67678571Y-73214285D01*
X66750000Y-72000000D02*
X66678571Y-72142857D01*
X66678571Y-72428571D01*
X66750000Y-72571428D01*
X66821428Y-72642857D01*
X66964285Y-72714285D01*
X67392857Y-72714285D01*
X67535714Y-72642857D01*
X67607142Y-72571428D01*
X67678571Y-72428571D01*
X67678571Y-72214285D01*
X67750000Y-72071428D01*
X67892857Y-72000000D01*
X67964285Y-72000000D01*
X68107142Y-72071428D01*
X68178571Y-72214285D01*
X68728571Y-77285714D02*
X70228571Y-76785714D01*
X68728571Y-76285714D01*
X68871428Y-75857142D02*
X68800000Y-75785714D01*
X68728571Y-75642857D01*
X68728571Y-75285714D01*
X68800000Y-75142857D01*
X68871428Y-75071428D01*
X69014285Y-75000000D01*
X69157142Y-75000000D01*
X69371428Y-75071428D01*
X70228571Y-75928571D01*
X70228571Y-75000000D01*
X70085714Y-74357142D02*
X70157142Y-74285714D01*
X70228571Y-74357142D01*
X70157142Y-74428571D01*
X70085714Y-74357142D01*
X70228571Y-74357142D01*
X70228571Y-72857142D02*
X70228571Y-73714285D01*
X70228571Y-73285714D02*
X68728571Y-73285714D01*
X68942857Y-73428571D01*
X69085714Y-73571428D01*
X69157142Y-73714285D01*
X54628571Y-55714285D02*
X54628571Y-54857142D01*
X56128571Y-55285714D02*
X54628571Y-55285714D01*
X54628571Y-54500000D02*
X56128571Y-53500000D01*
X54628571Y-53500000D02*
X56128571Y-54500000D01*
X56271428Y-53285714D02*
X56271428Y-52142857D01*
X58535714Y-56071428D02*
X58607142Y-56142857D01*
X58678571Y-56357142D01*
X58678571Y-56500000D01*
X58607142Y-56714285D01*
X58464285Y-56857142D01*
X58321428Y-56928571D01*
X58035714Y-57000000D01*
X57821428Y-57000000D01*
X57535714Y-56928571D01*
X57392857Y-56857142D01*
X57250000Y-56714285D01*
X57178571Y-56500000D01*
X57178571Y-56357142D01*
X57250000Y-56142857D01*
X57321428Y-56071428D01*
X58678571Y-55214285D02*
X58607142Y-55357142D01*
X58535714Y-55428571D01*
X58392857Y-55500000D01*
X57964285Y-55500000D01*
X57821428Y-55428571D01*
X57750000Y-55357142D01*
X57678571Y-55214285D01*
X57678571Y-55000000D01*
X57750000Y-54857142D01*
X57821428Y-54785714D01*
X57964285Y-54714285D01*
X58392857Y-54714285D01*
X58535714Y-54785714D01*
X58607142Y-54857142D01*
X58678571Y-55000000D01*
X58678571Y-55214285D01*
X58678571Y-53428571D02*
X57892857Y-53428571D01*
X57750000Y-53500000D01*
X57678571Y-53642857D01*
X57678571Y-53928571D01*
X57750000Y-54071428D01*
X58607142Y-53428571D02*
X58678571Y-53571428D01*
X58678571Y-53928571D01*
X58607142Y-54071428D01*
X58464285Y-54142857D01*
X58321428Y-54142857D01*
X58178571Y-54071428D01*
X58107142Y-53928571D01*
X58107142Y-53571428D01*
X58035714Y-53428571D01*
X58678571Y-52857142D02*
X57678571Y-52071428D01*
X57678571Y-52857142D02*
X58678571Y-52071428D01*
X58821428Y-51857142D02*
X58821428Y-50714285D01*
X59728571Y-55250000D02*
X59728571Y-54964285D01*
X59800000Y-54821428D01*
X59942857Y-54678571D01*
X60228571Y-54607142D01*
X60728571Y-54607142D01*
X61014285Y-54678571D01*
X61157142Y-54821428D01*
X61228571Y-54964285D01*
X61228571Y-55250000D01*
X61157142Y-55392857D01*
X61014285Y-55535714D01*
X60728571Y-55607142D01*
X60228571Y-55607142D01*
X59942857Y-55535714D01*
X59800000Y-55392857D01*
X59728571Y-55250000D01*
X60228571Y-53321428D02*
X61228571Y-53321428D01*
X60228571Y-53964285D02*
X61014285Y-53964285D01*
X61157142Y-53892857D01*
X61228571Y-53750000D01*
X61228571Y-53535714D01*
X61157142Y-53392857D01*
X61085714Y-53321428D01*
X60228571Y-52821428D02*
X60228571Y-52250000D01*
X59728571Y-52607142D02*
X61014285Y-52607142D01*
X61157142Y-52535714D01*
X61228571Y-52392857D01*
X61228571Y-52250000D01*
X71403571Y-60678571D02*
X69903571Y-60678571D01*
X69903571Y-60107142D01*
X69975000Y-59964285D01*
X70046428Y-59892857D01*
X70189285Y-59821428D01*
X70403571Y-59821428D01*
X70546428Y-59892857D01*
X70617857Y-59964285D01*
X70689285Y-60107142D01*
X70689285Y-60678571D01*
X71332142Y-59250000D02*
X71403571Y-59035714D01*
X71403571Y-58678571D01*
X71332142Y-58535714D01*
X71260714Y-58464285D01*
X71117857Y-58392857D01*
X70975000Y-58392857D01*
X70832142Y-58464285D01*
X70760714Y-58535714D01*
X70689285Y-58678571D01*
X70617857Y-58964285D01*
X70546428Y-59107142D01*
X70475000Y-59178571D01*
X70332142Y-59250000D01*
X70189285Y-59250000D01*
X70046428Y-59178571D01*
X69975000Y-59107142D01*
X69903571Y-58964285D01*
X69903571Y-58607142D01*
X69975000Y-58392857D01*
X71546428Y-58107142D02*
X71546428Y-56964285D01*
X73167857Y-63357142D02*
X73167857Y-63857142D01*
X73953571Y-63857142D02*
X72453571Y-63857142D01*
X72453571Y-63142857D01*
X73882142Y-62000000D02*
X73953571Y-62142857D01*
X73953571Y-62428571D01*
X73882142Y-62571428D01*
X73739285Y-62642857D01*
X73167857Y-62642857D01*
X73025000Y-62571428D01*
X72953571Y-62428571D01*
X72953571Y-62142857D01*
X73025000Y-62000000D01*
X73167857Y-61928571D01*
X73310714Y-61928571D01*
X73453571Y-62642857D01*
X73882142Y-60714285D02*
X73953571Y-60857142D01*
X73953571Y-61142857D01*
X73882142Y-61285714D01*
X73739285Y-61357142D01*
X73167857Y-61357142D01*
X73025000Y-61285714D01*
X72953571Y-61142857D01*
X72953571Y-60857142D01*
X73025000Y-60714285D01*
X73167857Y-60642857D01*
X73310714Y-60642857D01*
X73453571Y-61357142D01*
X73953571Y-59357142D02*
X72453571Y-59357142D01*
X73882142Y-59357142D02*
X73953571Y-59500000D01*
X73953571Y-59785714D01*
X73882142Y-59928571D01*
X73810714Y-60000000D01*
X73667857Y-60071428D01*
X73239285Y-60071428D01*
X73096428Y-60000000D01*
X73025000Y-59928571D01*
X72953571Y-59785714D01*
X72953571Y-59500000D01*
X73025000Y-59357142D01*
X73953571Y-58642857D02*
X72453571Y-58642857D01*
X73025000Y-58642857D02*
X72953571Y-58500000D01*
X72953571Y-58214285D01*
X73025000Y-58071428D01*
X73096428Y-58000000D01*
X73239285Y-57928571D01*
X73667857Y-57928571D01*
X73810714Y-58000000D01*
X73882142Y-58071428D01*
X73953571Y-58214285D01*
X73953571Y-58500000D01*
X73882142Y-58642857D01*
X73953571Y-56642857D02*
X73167857Y-56642857D01*
X73025000Y-56714285D01*
X72953571Y-56857142D01*
X72953571Y-57142857D01*
X73025000Y-57285714D01*
X73882142Y-56642857D02*
X73953571Y-56785714D01*
X73953571Y-57142857D01*
X73882142Y-57285714D01*
X73739285Y-57357142D01*
X73596428Y-57357142D01*
X73453571Y-57285714D01*
X73382142Y-57142857D01*
X73382142Y-56785714D01*
X73310714Y-56642857D01*
X73882142Y-55285714D02*
X73953571Y-55428571D01*
X73953571Y-55714285D01*
X73882142Y-55857142D01*
X73810714Y-55928571D01*
X73667857Y-56000000D01*
X73239285Y-56000000D01*
X73096428Y-55928571D01*
X73025000Y-55857142D01*
X72953571Y-55714285D01*
X72953571Y-55428571D01*
X73025000Y-55285714D01*
X73953571Y-54642857D02*
X72453571Y-54642857D01*
X73382142Y-54500000D02*
X73953571Y-54071428D01*
X72953571Y-54071428D02*
X73525000Y-54642857D01*
D11*
X122230000Y-71870000D02*
X128230000Y-71870000D01*
X128230000Y-71870000D02*
X128230000Y-66590000D01*
X128230000Y-66590000D02*
X122230000Y-66590000D01*
X122230000Y-66590000D02*
X122230000Y-71870000D01*
X128230000Y-70500000D02*
X127230000Y-70500000D01*
X127230000Y-70500000D02*
X127230000Y-67960000D01*
X127230000Y-67960000D02*
X128230000Y-67960000D01*
X127230000Y-70500000D02*
X126800000Y-70250000D01*
X126800000Y-70250000D02*
X126800000Y-68210000D01*
X126800000Y-68210000D02*
X127230000Y-67960000D01*
X128230000Y-70250000D02*
X127230000Y-70250000D01*
X128230000Y-68210000D02*
X127230000Y-68210000D01*
X122230000Y-71300000D02*
X122850000Y-71300000D01*
X122850000Y-71300000D02*
X122850000Y-69700000D01*
X122850000Y-69700000D02*
X122230000Y-69700000D01*
X122230000Y-68760000D02*
X122850000Y-68760000D01*
X122850000Y-68760000D02*
X122850000Y-67160000D01*
X122850000Y-67160000D02*
X122230000Y-67160000D01*
D12*
X100500380Y-90000000D02*
G75*
G03X100500380Y-90000000I-500380J0D01*
G01*
X101501140Y-90000000D02*
G75*
G03X101501140Y-90000000I-1501140J0D01*
G01*
D13*
X102548957Y-90000000D02*
G75*
G03X102548957Y-90000000I-2548957J0D01*
G01*
X97000260Y-87000260D02*
X102999740Y-87000260D01*
X102999740Y-87000260D02*
X102999740Y-92999740D01*
X102999740Y-92999740D02*
X97000260Y-92999740D01*
X97000260Y-92999740D02*
X97000260Y-87000260D01*
X102371904Y-90000000D02*
G75*
G03X102371904Y-90000000I-2371904J0D01*
G01*
D14*
X101920000Y-54285000D02*
G75*
G03X101920000Y-54285000I-635000J0D01*
G01*
X101920000Y-65715000D02*
G75*
G03X101920000Y-65715000I-635000J0D01*
G01*
X113350000Y-65715000D02*
G75*
G03X113350000Y-65715000I-635000J0D01*
G01*
X113350000Y-54285000D02*
G75*
G03X113350000Y-54285000I-635000J0D01*
G01*
X95570000Y-47300000D02*
X96205000Y-47300000D01*
X94300000Y-49205000D02*
X94300000Y-48570000D01*
X95570000Y-47300000D02*
G75*
G03X94300000Y-48570000I0J-1270000D01*
G01*
X118430000Y-47300000D02*
X117795000Y-47300000D01*
X119700000Y-49205000D02*
X119700000Y-48570000D01*
X119700000Y-48570000D02*
G75*
G03X118430000Y-47300000I-1270000J0D01*
G01*
X94300000Y-49205000D02*
X94300000Y-72700000D01*
X116525000Y-47300000D02*
X117795000Y-47300000D01*
X116525000Y-47300000D02*
X96205000Y-47300000D01*
X119700000Y-71430000D02*
X119700000Y-49205000D01*
X118430000Y-72700000D02*
G75*
G03X119700000Y-71430000I0J1270000D01*
G01*
X94300000Y-72700000D02*
X118430000Y-72700000D01*
D11*
X113270000Y-94060000D02*
X113270000Y-74939000D01*
X118190000Y-94060000D02*
X118190000Y-74939000D01*
X113270000Y-94060000D02*
X118190000Y-94060000D01*
X113270000Y-74939000D02*
X118190000Y-74939000D01*
X114490000Y-95580000D02*
X114490000Y-94061000D01*
X116970000Y-95580000D02*
X116970000Y-94061000D01*
X114490000Y-95580000D02*
X116970000Y-95580000D01*
X114490000Y-94061000D02*
X116970000Y-94061000D01*
X115730000Y-95580000D02*
X115730000Y-94820000D01*
X121075000Y-82045000D02*
G75*
G03X121075000Y-82045000I-1155000J0D01*
G01*
X115030000Y-90365000D02*
X115030000Y-80715000D01*
X121250000Y-90365000D02*
X121250000Y-80715000D01*
X115030000Y-90365000D02*
X121250000Y-90365000D01*
X115030000Y-80715000D02*
X121250000Y-80715000D01*
X119186000Y-81169000D02*
X120796000Y-82780000D01*
X119045000Y-81309000D02*
X120655000Y-82921000D01*
X115235000Y-88955000D02*
G75*
G03X115235000Y-88955000I-1155000J0D01*
G01*
X118970000Y-80635000D02*
X118970000Y-90285000D01*
X112750000Y-80635000D02*
X112750000Y-90285000D01*
X118970000Y-80635000D02*
X112750000Y-80635000D01*
X118970000Y-90285000D02*
X112750000Y-90285000D01*
X114814000Y-89831000D02*
X113204000Y-88220000D01*
X114955000Y-89691000D02*
X113345000Y-88079000D01*
X122230000Y-121570000D02*
X128230000Y-121570000D01*
X128230000Y-121570000D02*
X128230000Y-116290000D01*
X128230000Y-116290000D02*
X122230000Y-116290000D01*
X122230000Y-116290000D02*
X122230000Y-121570000D01*
X128230000Y-120200000D02*
X127230000Y-120200000D01*
X127230000Y-120200000D02*
X127230000Y-117660000D01*
X127230000Y-117660000D02*
X128230000Y-117660000D01*
X127230000Y-120200000D02*
X126800000Y-119950000D01*
X126800000Y-119950000D02*
X126800000Y-117910000D01*
X126800000Y-117910000D02*
X127230000Y-117660000D01*
X128230000Y-119950000D02*
X127230000Y-119950000D01*
X128230000Y-117910000D02*
X127230000Y-117910000D01*
X122230000Y-121000000D02*
X122850000Y-121000000D01*
X122850000Y-121000000D02*
X122850000Y-119400000D01*
X122850000Y-119400000D02*
X122230000Y-119400000D01*
X122230000Y-118460000D02*
X122850000Y-118460000D01*
X122850000Y-118460000D02*
X122850000Y-116860000D01*
X122850000Y-116860000D02*
X122230000Y-116860000D01*
D12*
X100500380Y-139700000D02*
G75*
G03X100500380Y-139700000I-500380J0D01*
G01*
X101501140Y-139700000D02*
G75*
G03X101501140Y-139700000I-1501140J0D01*
G01*
D13*
X102548957Y-139700000D02*
G75*
G03X102548957Y-139700000I-2548957J0D01*
G01*
X97000260Y-136700260D02*
X102999740Y-136700260D01*
X102999740Y-136700260D02*
X102999740Y-142699740D01*
X102999740Y-142699740D02*
X97000260Y-142699740D01*
X97000260Y-142699740D02*
X97000260Y-136700260D01*
X102371904Y-139700000D02*
G75*
G03X102371904Y-139700000I-2371904J0D01*
G01*
D14*
X101920000Y-103985000D02*
G75*
G03X101920000Y-103985000I-635000J0D01*
G01*
X101920000Y-115415000D02*
G75*
G03X101920000Y-115415000I-635000J0D01*
G01*
X113350000Y-115415000D02*
G75*
G03X113350000Y-115415000I-635000J0D01*
G01*
X113350000Y-103985000D02*
G75*
G03X113350000Y-103985000I-635000J0D01*
G01*
X95570000Y-97000000D02*
X96205000Y-97000000D01*
X94300000Y-98905000D02*
X94300000Y-98270000D01*
X95570000Y-97000000D02*
G75*
G03X94300000Y-98270000I0J-1270000D01*
G01*
X118430000Y-97000000D02*
X117795000Y-97000000D01*
X119700000Y-98905000D02*
X119700000Y-98270000D01*
X119700000Y-98270000D02*
G75*
G03X118430000Y-97000000I-1270000J0D01*
G01*
X94300000Y-98905000D02*
X94300000Y-122400000D01*
X116525000Y-97000000D02*
X117795000Y-97000000D01*
X116525000Y-97000000D02*
X96205000Y-97000000D01*
X119700000Y-121130000D02*
X119700000Y-98905000D01*
X118430000Y-122400000D02*
G75*
G03X119700000Y-121130000I0J1270000D01*
G01*
X94300000Y-122400000D02*
X118430000Y-122400000D01*
D11*
X113270000Y-143760000D02*
X113270000Y-124639000D01*
X118190000Y-143760000D02*
X118190000Y-124639000D01*
X113270000Y-143760000D02*
X118190000Y-143760000D01*
X113270000Y-124639000D02*
X118190000Y-124639000D01*
X114490000Y-145280000D02*
X114490000Y-143761000D01*
X116970000Y-145280000D02*
X116970000Y-143761000D01*
X114490000Y-145280000D02*
X116970000Y-145280000D01*
X114490000Y-143761000D02*
X116970000Y-143761000D01*
X115730000Y-145280000D02*
X115730000Y-144520000D01*
X121075000Y-131745000D02*
G75*
G03X121075000Y-131745000I-1155000J0D01*
G01*
X115030000Y-140065000D02*
X115030000Y-130415000D01*
X121250000Y-140065000D02*
X121250000Y-130415000D01*
X115030000Y-140065000D02*
X121250000Y-140065000D01*
X115030000Y-130415000D02*
X121250000Y-130415000D01*
X119186000Y-130869000D02*
X120796000Y-132480000D01*
X119045000Y-131009000D02*
X120655000Y-132621000D01*
X115235000Y-138655000D02*
G75*
G03X115235000Y-138655000I-1155000J0D01*
G01*
X118970000Y-130335000D02*
X118970000Y-139985000D01*
X112750000Y-130335000D02*
X112750000Y-139985000D01*
X118970000Y-130335000D02*
X112750000Y-130335000D01*
X118970000Y-139985000D02*
X112750000Y-139985000D01*
X114814000Y-139531000D02*
X113204000Y-137920000D01*
X114955000Y-139391000D02*
X113345000Y-137779000D01*
D15*
X56250000Y-68400000D02*
X57000000Y-64900000D01*
X55500000Y-68400000D02*
X56500000Y-62400000D01*
X54500000Y-68400000D02*
X55500000Y-62400000D01*
X53750000Y-68400000D02*
X54750000Y-62400000D01*
X52750000Y-68400000D02*
X53750000Y-62400000D01*
X51750000Y-68400000D02*
X52750000Y-62400000D01*
X51000000Y-68400000D02*
X51750000Y-62400000D01*
X43750000Y-68400000D02*
X43000000Y-64900000D01*
X44500000Y-68400000D02*
X43500000Y-62400000D01*
X45500000Y-68400000D02*
X44500000Y-62400000D01*
X46500000Y-68400000D02*
X45500000Y-62400000D01*
X47250000Y-68400000D02*
X46250000Y-62400000D01*
X48000000Y-68400000D02*
X47250000Y-62400000D01*
X48750000Y-68400000D02*
X48250000Y-62400000D01*
X50250000Y-68400000D02*
X50750000Y-62400000D01*
X49500000Y-68400000D02*
X49250000Y-62400000D01*
X50000000Y-68400000D02*
X43000000Y-68400000D01*
X43000000Y-68400000D02*
X43000000Y-62400000D01*
X43000000Y-62400000D02*
X57000000Y-62400000D01*
X57000000Y-62400000D02*
X57000000Y-68400000D01*
X57000000Y-68400000D02*
X50000000Y-68400000D01*
D14*
X50000000Y-102500000D02*
X50500000Y-102500000D01*
X50000000Y-102500000D02*
X47500000Y-100500000D01*
X64500000Y-104500000D02*
X65000000Y-101000000D01*
X50500000Y-102500000D02*
G75*
G03X64500000Y-104500000I8000000J6000000D01*
G01*
X56500000Y-88500000D02*
G75*
G03X47500000Y-100500000I1500000J-10500000D01*
G01*
X53500000Y-103000000D02*
X55500000Y-104500000D01*
X54000000Y-101500000D02*
X57000000Y-102000000D01*
X46000000Y-102000000D02*
X43500000Y-102000000D01*
X44000000Y-98000000D02*
X46000000Y-99000000D01*
X46000000Y-100000000D02*
X43500000Y-99000000D01*
X47000000Y-98000000D02*
X45500000Y-96000000D01*
X49000000Y-97000000D02*
X48000000Y-94500000D01*
X48000000Y-97500000D02*
X46500000Y-95000000D01*
X46500000Y-98500000D02*
X44500000Y-97000000D01*
X51000000Y-97000000D02*
X51500000Y-94500000D01*
X52000000Y-97500000D02*
X53500000Y-95000000D01*
X53500000Y-99000000D02*
X55500000Y-97500000D01*
X54000000Y-100000000D02*
X56500000Y-99000000D01*
X54000000Y-102500000D02*
X56500000Y-103500000D01*
X52000000Y-104500000D02*
X53500000Y-107000000D01*
X53000000Y-103500000D02*
X55000000Y-105500000D01*
X53000000Y-98000000D02*
X54500000Y-96000000D01*
X46500000Y-102500000D02*
X43500000Y-103500000D01*
X43500000Y-103500000D02*
X39000000Y-100500000D01*
X39000000Y-100500000D02*
X38500000Y-99000000D01*
X46000000Y-101000000D02*
X43000000Y-101000000D01*
X50000000Y-94000000D02*
X50000000Y-97000000D01*
X54000000Y-101000000D02*
X57000000Y-101000000D01*
X51000000Y-105000000D02*
X52000000Y-107500000D01*
X50000000Y-105000000D02*
X50000000Y-113500000D01*
D15*
X57000000Y-101000000D02*
G75*
G03X57000000Y-101000000I-7000000J0D01*
G01*
X54000000Y-101000000D02*
G75*
G03X54000000Y-101000000I-4000000J0D01*
G01*
D12*
X50500380Y-140500000D02*
G75*
G03X50500380Y-140500000I-500380J0D01*
G01*
X51501140Y-140500000D02*
G75*
G03X51501140Y-140500000I-1501140J0D01*
G01*
D13*
X52548957Y-140500000D02*
G75*
G03X52548957Y-140500000I-2548957J0D01*
G01*
X47000260Y-143499740D02*
X47000260Y-137500260D01*
X47000260Y-137500260D02*
X52999740Y-137500260D01*
X52999740Y-137500260D02*
X52999740Y-143499740D01*
X52999740Y-143499740D02*
X47000260Y-143499740D01*
X52371904Y-140500000D02*
G75*
G03X52371904Y-140500000I-2371904J0D01*
G01*
D11*
X47000000Y-121012000D02*
X45000000Y-121012000D01*
X45000000Y-124988000D02*
X47000000Y-124988000D01*
X78520000Y-90590000D02*
X72520000Y-90590000D01*
X72520000Y-90590000D02*
X72520000Y-103490000D01*
X72520000Y-103490000D02*
X78520000Y-103490000D01*
X78520000Y-103490000D02*
X78520000Y-90590000D01*
X72520000Y-91960000D02*
X73520000Y-91960000D01*
X73520000Y-91960000D02*
X73520000Y-102120000D01*
X73520000Y-102120000D02*
X72520000Y-102120000D01*
X73520000Y-91960000D02*
X73950000Y-92210000D01*
X73950000Y-92210000D02*
X73950000Y-101870000D01*
X73950000Y-101870000D02*
X73520000Y-102120000D01*
X72520000Y-92210000D02*
X73520000Y-92210000D01*
X72520000Y-101870000D02*
X73520000Y-101870000D01*
X78520000Y-91160000D02*
X77900000Y-91160000D01*
X77900000Y-91160000D02*
X77900000Y-92760000D01*
X77900000Y-92760000D02*
X78520000Y-92760000D01*
X78520000Y-93700000D02*
X77900000Y-93700000D01*
X77900000Y-93700000D02*
X77900000Y-95300000D01*
X77900000Y-95300000D02*
X78520000Y-95300000D01*
X78520000Y-96240000D02*
X77900000Y-96240000D01*
X77900000Y-96240000D02*
X77900000Y-97840000D01*
X77900000Y-97840000D02*
X78520000Y-97840000D01*
X78520000Y-98780000D02*
X77900000Y-98780000D01*
X77900000Y-98780000D02*
X77900000Y-100380000D01*
X77900000Y-100380000D02*
X78520000Y-100380000D01*
X78520000Y-101320000D02*
X77900000Y-101320000D01*
X77900000Y-101320000D02*
X77900000Y-102920000D01*
X77900000Y-102920000D02*
X78520000Y-102920000D01*
D12*
X50500380Y-49500000D02*
G75*
G03X50500380Y-49500000I-500380J0D01*
G01*
X51501140Y-49500000D02*
G75*
G03X51501140Y-49500000I-1501140J0D01*
G01*
D13*
X52548957Y-49500000D02*
G75*
G03X52548957Y-49500000I-2548957J0D01*
G01*
X47000260Y-52499740D02*
X47000260Y-46500260D01*
X47000260Y-46500260D02*
X52999740Y-46500260D01*
X52999740Y-46500260D02*
X52999740Y-52499740D01*
X52999740Y-52499740D02*
X47000260Y-52499740D01*
X52371904Y-49500000D02*
G75*
G03X52371904Y-49500000I-2371904J0D01*
G01*
D12*
X76000380Y-68000000D02*
G75*
G03X76000380Y-68000000I-500380J0D01*
G01*
X77001140Y-68000000D02*
G75*
G03X77001140Y-68000000I-1501140J0D01*
G01*
D13*
X78048957Y-68000000D02*
G75*
G03X78048957Y-68000000I-2548957J0D01*
G01*
X72500260Y-65000260D02*
X78499740Y-65000260D01*
X78499740Y-65000260D02*
X78499740Y-70999740D01*
X78499740Y-70999740D02*
X72500260Y-70999740D01*
X72500260Y-70999740D02*
X72500260Y-65000260D01*
X77871904Y-68000000D02*
G75*
G03X77871904Y-68000000I-2371904J0D01*
G01*
D11*
X68150000Y-87910000D02*
X66850000Y-87910000D01*
X68150000Y-86090000D02*
X66850000Y-86090000D01*
D15*
X110047619Y-68952380D02*
X110380952Y-69952380D01*
X110714285Y-68952380D01*
X111476190Y-69904761D02*
X111380952Y-69952380D01*
X111190476Y-69952380D01*
X111095238Y-69904761D01*
X111047619Y-69857142D01*
X111000000Y-69761904D01*
X111000000Y-69476190D01*
X111047619Y-69380952D01*
X111095238Y-69333333D01*
X111190476Y-69285714D01*
X111380952Y-69285714D01*
X111476190Y-69333333D01*
X112047619Y-69952380D02*
X111952380Y-69904761D01*
X111904761Y-69857142D01*
X111857142Y-69761904D01*
X111857142Y-69476190D01*
X111904761Y-69380952D01*
X111952380Y-69333333D01*
X112047619Y-69285714D01*
X112190476Y-69285714D01*
X112285714Y-69333333D01*
X112333333Y-69380952D01*
X112380952Y-69476190D01*
X112380952Y-69761904D01*
X112333333Y-69857142D01*
X112285714Y-69904761D01*
X112190476Y-69952380D01*
X112047619Y-69952380D01*
X112809523Y-69285714D02*
X112809523Y-69952380D01*
X112809523Y-69380952D02*
X112857142Y-69333333D01*
X112952380Y-69285714D01*
X113095238Y-69285714D01*
X113190476Y-69333333D01*
X113238095Y-69428571D01*
X113238095Y-69952380D01*
X113571428Y-69285714D02*
X113952380Y-69285714D01*
X113714285Y-68952380D02*
X113714285Y-69809523D01*
X113761904Y-69904761D01*
X113857142Y-69952380D01*
X113952380Y-69952380D01*
X112214285Y-50952380D02*
X112214285Y-49952380D01*
X112785714Y-50952380D01*
X112785714Y-49952380D01*
X113833333Y-50857142D02*
X113785714Y-50904761D01*
X113642857Y-50952380D01*
X113547619Y-50952380D01*
X113404761Y-50904761D01*
X113309523Y-50809523D01*
X113261904Y-50714285D01*
X113214285Y-50523809D01*
X113214285Y-50380952D01*
X113261904Y-50190476D01*
X113309523Y-50095238D01*
X113404761Y-50000000D01*
X113547619Y-49952380D01*
X113642857Y-49952380D01*
X113785714Y-50000000D01*
X113833333Y-50047619D01*
X100666666Y-68952380D02*
X100857142Y-68952380D01*
X100952380Y-69000000D01*
X101047619Y-69095238D01*
X101095238Y-69285714D01*
X101095238Y-69619047D01*
X101047619Y-69809523D01*
X100952380Y-69904761D01*
X100857142Y-69952380D01*
X100666666Y-69952380D01*
X100571428Y-69904761D01*
X100476190Y-69809523D01*
X100428571Y-69619047D01*
X100428571Y-69285714D01*
X100476190Y-69095238D01*
X100571428Y-69000000D01*
X100666666Y-68952380D01*
X101952380Y-69285714D02*
X101952380Y-69952380D01*
X101523809Y-69285714D02*
X101523809Y-69809523D01*
X101571428Y-69904761D01*
X101666666Y-69952380D01*
X101809523Y-69952380D01*
X101904761Y-69904761D01*
X101952380Y-69857142D01*
X102285714Y-69285714D02*
X102666666Y-69285714D01*
X102428571Y-68952380D02*
X102428571Y-69809523D01*
X102476190Y-69904761D01*
X102571428Y-69952380D01*
X102666666Y-69952380D01*
X106238095Y-66485000D02*
X106142857Y-66437380D01*
X106000000Y-66437380D01*
X105857142Y-66485000D01*
X105761904Y-66580238D01*
X105714285Y-66675476D01*
X105666666Y-66865952D01*
X105666666Y-67008809D01*
X105714285Y-67199285D01*
X105761904Y-67294523D01*
X105857142Y-67389761D01*
X106000000Y-67437380D01*
X106095238Y-67437380D01*
X106238095Y-67389761D01*
X106285714Y-67342142D01*
X106285714Y-67008809D01*
X106095238Y-67008809D01*
X106714285Y-67437380D02*
X106714285Y-66437380D01*
X107285714Y-67437380D01*
X107285714Y-66437380D01*
X107761904Y-67437380D02*
X107761904Y-66437380D01*
X108000000Y-66437380D01*
X108142857Y-66485000D01*
X108238095Y-66580238D01*
X108285714Y-66675476D01*
X108333333Y-66865952D01*
X108333333Y-67008809D01*
X108285714Y-67199285D01*
X108238095Y-67294523D01*
X108142857Y-67389761D01*
X108000000Y-67437380D01*
X107761904Y-67437380D01*
X99809523Y-49702380D02*
X100142857Y-50702380D01*
X100476190Y-49702380D01*
X101238095Y-50654761D02*
X101142857Y-50702380D01*
X100952380Y-50702380D01*
X100857142Y-50654761D01*
X100809523Y-50607142D01*
X100761904Y-50511904D01*
X100761904Y-50226190D01*
X100809523Y-50130952D01*
X100857142Y-50083333D01*
X100952380Y-50035714D01*
X101142857Y-50035714D01*
X101238095Y-50083333D01*
X102095238Y-50654761D02*
X102000000Y-50702380D01*
X101809523Y-50702380D01*
X101714285Y-50654761D01*
X101666666Y-50607142D01*
X101619047Y-50511904D01*
X101619047Y-50226190D01*
X101666666Y-50130952D01*
X101714285Y-50083333D01*
X101809523Y-50035714D01*
X102000000Y-50035714D01*
X102095238Y-50083333D01*
X110047619Y-118652380D02*
X110380952Y-119652380D01*
X110714285Y-118652380D01*
X111476190Y-119604761D02*
X111380952Y-119652380D01*
X111190476Y-119652380D01*
X111095238Y-119604761D01*
X111047619Y-119557142D01*
X111000000Y-119461904D01*
X111000000Y-119176190D01*
X111047619Y-119080952D01*
X111095238Y-119033333D01*
X111190476Y-118985714D01*
X111380952Y-118985714D01*
X111476190Y-119033333D01*
X112047619Y-119652380D02*
X111952380Y-119604761D01*
X111904761Y-119557142D01*
X111857142Y-119461904D01*
X111857142Y-119176190D01*
X111904761Y-119080952D01*
X111952380Y-119033333D01*
X112047619Y-118985714D01*
X112190476Y-118985714D01*
X112285714Y-119033333D01*
X112333333Y-119080952D01*
X112380952Y-119176190D01*
X112380952Y-119461904D01*
X112333333Y-119557142D01*
X112285714Y-119604761D01*
X112190476Y-119652380D01*
X112047619Y-119652380D01*
X112809523Y-118985714D02*
X112809523Y-119652380D01*
X112809523Y-119080952D02*
X112857142Y-119033333D01*
X112952380Y-118985714D01*
X113095238Y-118985714D01*
X113190476Y-119033333D01*
X113238095Y-119128571D01*
X113238095Y-119652380D01*
X113571428Y-118985714D02*
X113952380Y-118985714D01*
X113714285Y-118652380D02*
X113714285Y-119509523D01*
X113761904Y-119604761D01*
X113857142Y-119652380D01*
X113952380Y-119652380D01*
X112214285Y-100652380D02*
X112214285Y-99652380D01*
X112785714Y-100652380D01*
X112785714Y-99652380D01*
X113833333Y-100557142D02*
X113785714Y-100604761D01*
X113642857Y-100652380D01*
X113547619Y-100652380D01*
X113404761Y-100604761D01*
X113309523Y-100509523D01*
X113261904Y-100414285D01*
X113214285Y-100223809D01*
X113214285Y-100080952D01*
X113261904Y-99890476D01*
X113309523Y-99795238D01*
X113404761Y-99700000D01*
X113547619Y-99652380D01*
X113642857Y-99652380D01*
X113785714Y-99700000D01*
X113833333Y-99747619D01*
X100666666Y-118652380D02*
X100857142Y-118652380D01*
X100952380Y-118700000D01*
X101047619Y-118795238D01*
X101095238Y-118985714D01*
X101095238Y-119319047D01*
X101047619Y-119509523D01*
X100952380Y-119604761D01*
X100857142Y-119652380D01*
X100666666Y-119652380D01*
X100571428Y-119604761D01*
X100476190Y-119509523D01*
X100428571Y-119319047D01*
X100428571Y-118985714D01*
X100476190Y-118795238D01*
X100571428Y-118700000D01*
X100666666Y-118652380D01*
X101952380Y-118985714D02*
X101952380Y-119652380D01*
X101523809Y-118985714D02*
X101523809Y-119509523D01*
X101571428Y-119604761D01*
X101666666Y-119652380D01*
X101809523Y-119652380D01*
X101904761Y-119604761D01*
X101952380Y-119557142D01*
X102285714Y-118985714D02*
X102666666Y-118985714D01*
X102428571Y-118652380D02*
X102428571Y-119509523D01*
X102476190Y-119604761D01*
X102571428Y-119652380D01*
X102666666Y-119652380D01*
X106238095Y-116185000D02*
X106142857Y-116137380D01*
X106000000Y-116137380D01*
X105857142Y-116185000D01*
X105761904Y-116280238D01*
X105714285Y-116375476D01*
X105666666Y-116565952D01*
X105666666Y-116708809D01*
X105714285Y-116899285D01*
X105761904Y-116994523D01*
X105857142Y-117089761D01*
X106000000Y-117137380D01*
X106095238Y-117137380D01*
X106238095Y-117089761D01*
X106285714Y-117042142D01*
X106285714Y-116708809D01*
X106095238Y-116708809D01*
X106714285Y-117137380D02*
X106714285Y-116137380D01*
X107285714Y-117137380D01*
X107285714Y-116137380D01*
X107761904Y-117137380D02*
X107761904Y-116137380D01*
X108000000Y-116137380D01*
X108142857Y-116185000D01*
X108238095Y-116280238D01*
X108285714Y-116375476D01*
X108333333Y-116565952D01*
X108333333Y-116708809D01*
X108285714Y-116899285D01*
X108238095Y-116994523D01*
X108142857Y-117089761D01*
X108000000Y-117137380D01*
X107761904Y-117137380D01*
X99809523Y-99402380D02*
X100142857Y-100402380D01*
X100476190Y-99402380D01*
X101238095Y-100354761D02*
X101142857Y-100402380D01*
X100952380Y-100402380D01*
X100857142Y-100354761D01*
X100809523Y-100307142D01*
X100761904Y-100211904D01*
X100761904Y-99926190D01*
X100809523Y-99830952D01*
X100857142Y-99783333D01*
X100952380Y-99735714D01*
X101142857Y-99735714D01*
X101238095Y-99783333D01*
X102095238Y-100354761D02*
X102000000Y-100402380D01*
X101809523Y-100402380D01*
X101714285Y-100354761D01*
X101666666Y-100307142D01*
X101619047Y-100211904D01*
X101619047Y-99926190D01*
X101666666Y-99830952D01*
X101714285Y-99783333D01*
X101809523Y-99735714D01*
X102000000Y-99735714D01*
X102095238Y-99783333D01*
%LPC*%
D16*
X126000000Y-91000000D03*
X84000000Y-49000000D03*
D17*
X125250000Y-70500000D03*
D18*
X125250000Y-67960000D03*
D16*
X126000000Y-49000000D03*
D19*
X100000000Y-90000000D03*
D20*
X102540000Y-87460000D03*
X102540000Y-92540000D03*
X97460000Y-92540000D03*
X97460000Y-87460000D03*
D16*
X84000000Y-91000000D03*
D21*
X97475000Y-50475000D03*
X116525000Y-50475000D03*
X116525000Y-69525000D03*
X97475000Y-69525000D03*
X107000000Y-69525000D03*
D22*
X117000000Y-78000000D03*
X114460000Y-85620000D03*
X117000000Y-90700000D03*
D23*
X117000000Y-83000000D03*
X119540000Y-85540000D03*
X117000000Y-88080000D03*
X117000000Y-88100000D03*
X117000000Y-85460000D03*
X117000000Y-83000000D03*
D16*
X126000000Y-140700000D03*
X84000000Y-98700000D03*
D17*
X125250000Y-120200000D03*
D18*
X125250000Y-117660000D03*
D16*
X126000000Y-98700000D03*
D19*
X100000000Y-139700000D03*
D20*
X102540000Y-137160000D03*
X102540000Y-142240000D03*
X97460000Y-142240000D03*
X97460000Y-137160000D03*
D16*
X84000000Y-140700000D03*
D21*
X97475000Y-100175000D03*
X116525000Y-100175000D03*
X116525000Y-119225000D03*
X97475000Y-119225000D03*
X107000000Y-119225000D03*
D22*
X117000000Y-127700000D03*
X114460000Y-135320000D03*
X117000000Y-140400000D03*
D23*
X117000000Y-132700000D03*
X119540000Y-135240000D03*
X117000000Y-137780000D03*
X117000000Y-137800000D03*
X117000000Y-135160000D03*
X117000000Y-132700000D03*
D24*
X50000000Y-73020000D03*
X50000000Y-58415000D03*
D25*
X37000000Y-59000000D03*
D26*
X58800000Y-74000000D03*
D27*
X50000000Y-113500000D03*
D28*
X38570000Y-99095000D03*
D27*
X63500000Y-101000000D03*
X59000000Y-88000000D03*
D19*
X50000000Y-140500000D03*
D20*
X47460000Y-137960000D03*
X52540000Y-137960000D03*
X52540000Y-143040000D03*
X47460000Y-143040000D03*
D29*
X44000000Y-123000000D03*
X48000000Y-123000000D03*
D17*
X75500000Y-91960000D03*
D18*
X75500000Y-94500000D03*
X75500000Y-97040000D03*
X75500000Y-99580000D03*
X75500000Y-102120000D03*
D30*
X75000000Y-140000000D03*
X75000000Y-50000000D03*
X35000000Y-140000000D03*
X35000000Y-50000000D03*
D31*
X41000000Y-94500000D03*
X57000000Y-108500000D03*
D19*
X50000000Y-49500000D03*
D20*
X47460000Y-46960000D03*
X52540000Y-46960000D03*
X52540000Y-52040000D03*
X47460000Y-52040000D03*
D19*
X75500000Y-68000000D03*
D20*
X78040000Y-65460000D03*
X78040000Y-70540000D03*
X72960000Y-70540000D03*
X72960000Y-65460000D03*
D32*
X69092500Y-87000000D03*
X65907500Y-87000000D03*
D33*
G36*
X129873000Y-94873000D02*
G01*
X80127000Y-94873000D01*
X80127000Y-47500000D01*
X82373000Y-47500000D01*
X82373000Y-92500000D01*
X82375440Y-92524776D01*
X82382667Y-92548601D01*
X82394403Y-92570557D01*
X82410197Y-92589803D01*
X82429443Y-92605597D01*
X82451399Y-92617333D01*
X82475224Y-92624560D01*
X82500000Y-92627000D01*
X127500000Y-92627000D01*
X127524776Y-92624560D01*
X127548601Y-92617333D01*
X127570557Y-92605597D01*
X127589803Y-92589803D01*
X127605597Y-92570557D01*
X127617333Y-92548601D01*
X127624560Y-92524776D01*
X127627000Y-92500000D01*
X127627000Y-47500000D01*
X127624560Y-47475224D01*
X127617333Y-47451399D01*
X127605597Y-47429443D01*
X127589803Y-47410197D01*
X127570557Y-47394403D01*
X127548601Y-47382667D01*
X127524776Y-47375440D01*
X127500000Y-47373000D01*
X82500000Y-47373000D01*
X82475224Y-47375440D01*
X82451399Y-47382667D01*
X82429443Y-47394403D01*
X82410197Y-47410197D01*
X82394403Y-47429443D01*
X82382667Y-47451399D01*
X82375440Y-47475224D01*
X82373000Y-47500000D01*
X80127000Y-47500000D01*
X80127000Y-45127000D01*
X129873000Y-45127000D01*
X129873000Y-94873000D01*
G37*
X129873000Y-94873000D02*
X80127000Y-94873000D01*
X80127000Y-47500000D01*
X82373000Y-47500000D01*
X82373000Y-92500000D01*
X82375440Y-92524776D01*
X82382667Y-92548601D01*
X82394403Y-92570557D01*
X82410197Y-92589803D01*
X82429443Y-92605597D01*
X82451399Y-92617333D01*
X82475224Y-92624560D01*
X82500000Y-92627000D01*
X127500000Y-92627000D01*
X127524776Y-92624560D01*
X127548601Y-92617333D01*
X127570557Y-92605597D01*
X127589803Y-92589803D01*
X127605597Y-92570557D01*
X127617333Y-92548601D01*
X127624560Y-92524776D01*
X127627000Y-92500000D01*
X127627000Y-47500000D01*
X127624560Y-47475224D01*
X127617333Y-47451399D01*
X127605597Y-47429443D01*
X127589803Y-47410197D01*
X127570557Y-47394403D01*
X127548601Y-47382667D01*
X127524776Y-47375440D01*
X127500000Y-47373000D01*
X82500000Y-47373000D01*
X82475224Y-47375440D01*
X82451399Y-47382667D01*
X82429443Y-47394403D01*
X82410197Y-47410197D01*
X82394403Y-47429443D01*
X82382667Y-47451399D01*
X82375440Y-47475224D01*
X82373000Y-47500000D01*
X80127000Y-47500000D01*
X80127000Y-45127000D01*
X129873000Y-45127000D01*
X129873000Y-94873000D01*
G36*
X129873000Y-144573000D02*
G01*
X80127000Y-144573000D01*
X80127000Y-97200000D01*
X82373000Y-97200000D01*
X82373000Y-142200000D01*
X82375440Y-142224776D01*
X82382667Y-142248601D01*
X82394403Y-142270557D01*
X82410197Y-142289803D01*
X82429443Y-142305597D01*
X82451399Y-142317333D01*
X82475224Y-142324560D01*
X82500000Y-142327000D01*
X127500000Y-142327000D01*
X127524776Y-142324560D01*
X127548601Y-142317333D01*
X127570557Y-142305597D01*
X127589803Y-142289803D01*
X127605597Y-142270557D01*
X127617333Y-142248601D01*
X127624560Y-142224776D01*
X127627000Y-142200000D01*
X127627000Y-97200000D01*
X127624560Y-97175224D01*
X127617333Y-97151399D01*
X127605597Y-97129443D01*
X127589803Y-97110197D01*
X127570557Y-97094403D01*
X127548601Y-97082667D01*
X127524776Y-97075440D01*
X127500000Y-97073000D01*
X82500000Y-97073000D01*
X82475224Y-97075440D01*
X82451399Y-97082667D01*
X82429443Y-97094403D01*
X82410197Y-97110197D01*
X82394403Y-97129443D01*
X82382667Y-97151399D01*
X82375440Y-97175224D01*
X82373000Y-97200000D01*
X80127000Y-97200000D01*
X80127000Y-94827000D01*
X129873000Y-94827000D01*
X129873000Y-144573000D01*
G37*
X129873000Y-144573000D02*
X80127000Y-144573000D01*
X80127000Y-97200000D01*
X82373000Y-97200000D01*
X82373000Y-142200000D01*
X82375440Y-142224776D01*
X82382667Y-142248601D01*
X82394403Y-142270557D01*
X82410197Y-142289803D01*
X82429443Y-142305597D01*
X82451399Y-142317333D01*
X82475224Y-142324560D01*
X82500000Y-142327000D01*
X127500000Y-142327000D01*
X127524776Y-142324560D01*
X127548601Y-142317333D01*
X127570557Y-142305597D01*
X127589803Y-142289803D01*
X127605597Y-142270557D01*
X127617333Y-142248601D01*
X127624560Y-142224776D01*
X127627000Y-142200000D01*
X127627000Y-97200000D01*
X127624560Y-97175224D01*
X127617333Y-97151399D01*
X127605597Y-97129443D01*
X127589803Y-97110197D01*
X127570557Y-97094403D01*
X127548601Y-97082667D01*
X127524776Y-97075440D01*
X127500000Y-97073000D01*
X82500000Y-97073000D01*
X82475224Y-97075440D01*
X82451399Y-97082667D01*
X82429443Y-97094403D01*
X82410197Y-97110197D01*
X82394403Y-97129443D01*
X82382667Y-97151399D01*
X82375440Y-97175224D01*
X82373000Y-97200000D01*
X80127000Y-97200000D01*
X80127000Y-94827000D01*
X129873000Y-94827000D01*
X129873000Y-144573000D01*
G36*
X32373000Y-144873000D02*
G01*
X30127000Y-144873000D01*
X30127000Y-45127000D01*
X32373000Y-45127000D01*
X32373000Y-144873000D01*
G37*
X32373000Y-144873000D02*
X30127000Y-144873000D01*
X30127000Y-45127000D01*
X32373000Y-45127000D01*
X32373000Y-144873000D01*
G36*
X79873000Y-144873000D02*
G01*
X32627000Y-144873000D01*
X32627000Y-142627000D01*
X77500000Y-142627000D01*
X77524776Y-142624560D01*
X77548601Y-142617333D01*
X77570557Y-142605597D01*
X77589803Y-142589803D01*
X77605597Y-142570557D01*
X77617333Y-142548601D01*
X77624560Y-142524776D01*
X77627000Y-142500000D01*
X77627000Y-47500000D01*
X77624560Y-47475224D01*
X77617333Y-47451399D01*
X77605597Y-47429443D01*
X77589803Y-47410197D01*
X77570557Y-47394403D01*
X77548601Y-47382667D01*
X77524776Y-47375440D01*
X77500000Y-47373000D01*
X32627000Y-47373000D01*
X32627000Y-45127000D01*
X79873000Y-45127000D01*
X79873000Y-144873000D01*
G37*
X79873000Y-144873000D02*
X32627000Y-144873000D01*
X32627000Y-142627000D01*
X77500000Y-142627000D01*
X77524776Y-142624560D01*
X77548601Y-142617333D01*
X77570557Y-142605597D01*
X77589803Y-142589803D01*
X77605597Y-142570557D01*
X77617333Y-142548601D01*
X77624560Y-142524776D01*
X77627000Y-142500000D01*
X77627000Y-47500000D01*
X77624560Y-47475224D01*
X77617333Y-47451399D01*
X77605597Y-47429443D01*
X77589803Y-47410197D01*
X77570557Y-47394403D01*
X77548601Y-47382667D01*
X77524776Y-47375440D01*
X77500000Y-47373000D01*
X32627000Y-47373000D01*
X32627000Y-45127000D01*
X79873000Y-45127000D01*
X79873000Y-144873000D01*
G36*
X77873000Y-81873000D02*
G01*
X32127000Y-81873000D01*
X32127000Y-80127000D01*
X77873000Y-80127000D01*
X77873000Y-81873000D01*
G37*
X77873000Y-81873000D02*
X32127000Y-81873000D01*
X32127000Y-80127000D01*
X77873000Y-80127000D01*
X77873000Y-81873000D01*
M02*
