M48
; DRILL file {KiCad (5.1.5)-3} date 07/12/2021 14:22:36
; FORMAT={-:-/ absolute / metric / decimal}
; #@! TF.CreationDate,2021-12-07T14:22:36+01:00
; #@! TF.GenerationSoftware,Kicad,Pcbnew,(5.1.5)-3
; #@! TF.FileFunction,Plated,1,2,PTH
FMAT,2
METRIC
T1C0.300
T2C0.400
T3C0.800
T4C1.000
T5C1.200
T6C1.300
T7C3.000
T8C3.200
%
G90
G05
T1
X95.0Y-47.0
X113.0Y-93.0
X67.0Y-47.0
X116.0Y-142.7
X95.0Y-143.7
X81.0Y-132.7
X91.0Y-47.0
X119.0Y-93.0
X57.0Y-133.0
X122.0Y-143.7
X91.0Y-142.7
X82.0Y-128.7
X100.0Y-46.0
X118.0Y-93.0
X78.0Y-133.0
X128.0Y-125.7
X81.0Y-118.7
X88.0Y-46.0
X78.0Y-88.0
X78.0Y-127.0
X128.0Y-128.7
X88.0Y-96.7
X128.0Y-84.0
X81.0Y-82.0
X71.0Y-108.0
X78.0Y-123.0
X115.0Y-95.7
X121.0Y-95.7
X98.0Y-46.0
X81.0Y-86.0
X43.0Y-107.0
X78.0Y-60.0
X107.0Y-95.7
X103.0Y-96.7
X95.0Y-46.0
X82.0Y-75.0
X41.0Y-123.0
X78.0Y-125.0
X129.0Y-77.0
X95.0Y-95.7
X114.0Y-96.7
X82.0Y-80.0
X45.0Y-117.0
X82.0Y-68.0
X128.0Y-84.0
X110.0Y-95.7
X119.0Y-96.7
X110.0Y-93.0
X82.0Y-77.0
X128.0Y-64.0
X128.0Y-127.7
X122.0Y-96.7
X109.0Y-93.0
X122.0Y-93.0
X44.0Y-66.0
X113.0Y-47.0
X82.0Y-53.0
X128.0Y-59.0
X119.0Y-95.7
X129.0Y-103.7
X82.0Y-105.7
X89.0Y-94.0
X112.0Y-47.0
X82.0Y-56.0
X128.0Y-65.0
X128.0Y-56.0
X128.0Y-109.7
X81.0Y-110.7
X128.0Y-76.0
X105.0Y-47.0
X82.0Y-58.0
X32.0Y-100.0
X128.0Y-124.7
X129.0Y-55.0
X129.0Y-115.7
X82.0Y-109.7
X111.0Y-93.0
X45.0Y-119.0
X32.0Y-86.0
X128.0Y-126.7
X121.0Y-47.0
X129.0Y-114.7
X81.0Y-112.7
X128.0Y-71.0
X32.0Y-108.0
X32.0Y-70.0
X128.0Y-128.7
X129.0Y-106.7
X81.0Y-119.7
X128.0Y-74.0
X32.0Y-134.0
X32.0Y-64.0
X128.0Y-133.7
X82.0Y-123.7
X129.0Y-74.0
X94.0Y-47.0
X63.0Y-47.0
X113.0Y-142.7
X110.0Y-143.7
X82.0Y-131.7
X93.0Y-47.0
X57.0Y-135.0
X118.0Y-142.7
X111.0Y-143.7
X81.0Y-128.7
X120.0Y-93.0
X57.0Y-129.0
X92.0Y-142.7
X82.0Y-130.7
X128.0Y-81.0
X112.0Y-93.0
X57.0Y-121.0
X120.0Y-143.7
X88.0Y-143.7
X82.0Y-132.7
X106.0Y-46.0
X78.0Y-86.0
X76.0Y-111.0
X117.0Y-143.7
X128.0Y-130.7
X89.0Y-96.7
X89.0Y-46.0
X81.0Y-83.0
X69.0Y-104.0
X57.0Y-111.0
X118.0Y-143.7
X91.0Y-95.7
X122.0Y-95.7
X128.0Y-85.0
X82.0Y-78.0
X37.0Y-103.0
X67.0Y-143.0
X101.0Y-95.7
X117.0Y-96.7
X128.0Y-80.0
X81.0Y-77.0
X43.0Y-103.0
X57.0Y-131.0
X129.0Y-79.0
X96.0Y-95.7
X99.0Y-96.7
X82.0Y-70.0
X45.0Y-111.0
X81.0Y-60.0
X128.0Y-79.0
X112.0Y-95.7
X113.0Y-96.7
X95.0Y-93.0
X81.0Y-79.0
X82.0Y-54.0
X128.0Y-62.0
X128.0Y-129.7
X128.0Y-104.7
X95.0Y-94.0
X111.0Y-94.0
X45.0Y-113.0
X108.0Y-47.0
X81.0Y-65.0
X128.0Y-61.0
X129.0Y-104.7
X82.0Y-106.7
X128.0Y-75.0
X102.0Y-47.0
X81.0Y-57.0
X129.0Y-66.0
X128.0Y-122.7
X119.0Y-47.0
X129.0Y-112.7
X81.0Y-108.7
X128.0Y-77.0
X104.0Y-47.0
X82.0Y-63.0
X32.0Y-96.0
X128.0Y-123.7
X128.0Y-53.0
X128.0Y-116.7
X82.0Y-110.7
X89.0Y-93.0
X32.0Y-74.0
X129.0Y-126.7
X129.0Y-53.0
X129.0Y-116.7
X82.0Y-112.7
X128.0Y-72.0
X32.0Y-76.0
X128.0Y-129.7
X129.0Y-102.7
X81.0Y-120.7
X128.0Y-68.0
X32.0Y-132.0
X32.0Y-62.0
X129.0Y-133.7
X81.0Y-124.7
X129.0Y-69.0
X117.0Y-46.0
X32.0Y-126.0
X65.0Y-47.0
X121.0Y-142.7
X109.0Y-142.7
X105.0Y-142.7
X120.0Y-46.0
X117.0Y-93.0
X43.0Y-47.0
X117.0Y-142.7
X88.0Y-142.7
X82.0Y-126.7
X128.0Y-85.0
X57.0Y-127.0
X121.0Y-143.7
X91.0Y-143.7
X81.0Y-131.7
X96.0Y-46.0
X76.0Y-88.0
X114.0Y-93.0
X78.0Y-117.0
X113.0Y-143.7
X89.0Y-143.7
X82.0Y-119.7
X107.0Y-46.0
X78.0Y-56.0
X57.0Y-119.0
X128.0Y-132.7
X90.0Y-96.7
X90.0Y-46.0
X81.0Y-72.0
X41.0Y-105.0
X59.0Y-111.0
X114.0Y-142.7
X97.0Y-95.7
X104.0Y-96.7
X97.0Y-46.0
X82.0Y-73.0
X71.0Y-104.0
X78.0Y-115.0
X129.0Y-80.0
X114.0Y-95.7
X97.0Y-96.7
X91.0Y-46.0
X81.0Y-69.0
X43.0Y-143.0
X81.0Y-68.0
X78.0Y-129.0
X128.0Y-81.0
X99.0Y-95.7
X102.0Y-96.7
X81.0Y-80.0
X45.0Y-109.0
X81.0Y-64.0
X129.0Y-78.0
X113.0Y-95.7
X108.0Y-96.7
X81.0Y-87.0
X81.0Y-78.0
X128.0Y-58.0
X128.0Y-131.7
X129.0Y-110.7
X108.0Y-93.0
X114.0Y-94.0
X45.0Y-115.0
X107.0Y-47.0
X81.0Y-56.0
X128.0Y-60.0
X128.0Y-105.7
X81.0Y-103.7
X91.0Y-93.0
X113.0Y-94.0
X44.0Y-68.0
X100.0Y-47.0
X81.0Y-61.0
X129.0Y-122.7
X120.0Y-47.0
X129.0Y-111.7
X82.0Y-108.7
X94.0Y-93.0
X106.0Y-47.0
X81.0Y-66.0
X32.0Y-88.0
X129.0Y-123.7
X115.0Y-47.0
X129.0Y-117.7
X82.0Y-113.7
X88.0Y-94.0
X42.0Y-82.0
X32.0Y-92.0
X128.0Y-127.7
X129.0Y-118.7
X81.0Y-113.7
X129.0Y-68.0
X32.0Y-122.0
X32.0Y-84.0
X129.0Y-129.7
X128.0Y-110.7
X82.0Y-120.7
X128.0Y-70.0
X32.0Y-128.0
X32.0Y-60.0
X128.0Y-134.7
X82.0Y-124.7
X129.0Y-72.0
X118.0Y-46.0
X32.0Y-56.0
X119.0Y-142.7
X107.0Y-143.7
X81.0Y-133.7
X114.0Y-46.0
X115.0Y-93.0
X69.0Y-47.0
X120.0Y-142.7
X93.0Y-143.7
X82.0Y-125.7
X129.0Y-86.0
X57.0Y-125.0
X93.0Y-142.7
X82.0Y-134.7
X128.0Y-87.0
X76.0Y-84.0
X59.0Y-143.0
X90.0Y-143.7
X81.0Y-136.7
X113.0Y-46.0
X82.0Y-79.0
X78.0Y-84.0
X57.0Y-117.0
X81.0Y-53.0
X128.0Y-134.7
X91.0Y-96.7
X93.0Y-46.0
X81.0Y-73.0
X69.0Y-102.0
X63.0Y-143.0
X98.0Y-95.7
X95.0Y-96.7
X102.0Y-46.0
X82.0Y-72.0
X71.0Y-102.0
X78.0Y-113.0
X129.0Y-82.0
X120.0Y-95.7
X98.0Y-96.7
X105.0Y-46.0
X82.0Y-69.0
X41.0Y-125.0
X81.0Y-59.0
X78.0Y-135.0
X129.0Y-81.0
X102.0Y-95.7
X118.0Y-96.7
X81.0Y-71.0
X44.0Y-62.0
X82.0Y-66.0
X32.0Y-136.0
X128.0Y-80.0
X117.0Y-95.7
X111.0Y-96.7
X88.0Y-93.0
X112.0Y-94.0
X81.0Y-84.0
X81.0Y-102.7
X129.0Y-59.0
X128.0Y-133.7
X128.0Y-117.7
X82.0Y-103.7
X105.0Y-94.0
X120.0Y-94.0
X40.0Y-82.0
X103.0Y-47.0
X81.0Y-54.0
X129.0Y-60.0
X128.0Y-106.7
X81.0Y-106.7
X92.0Y-93.0
X119.0Y-94.0
X101.0Y-47.0
X82.0Y-61.0
X128.0Y-120.7
X129.0Y-54.0
X129.0Y-109.7
X82.0Y-111.7
X128.0Y-74.0
X44.0Y-82.0
X109.0Y-47.0
X32.0Y-130.0
X32.0Y-94.0
X129.0Y-124.7
X122.0Y-47.0
X129.0Y-119.7
X81.0Y-116.7
X91.0Y-94.0
X45.0Y-107.0
X32.0Y-78.0
X128.0Y-135.7
X128.0Y-119.7
X81.0Y-114.7
X129.0Y-67.0
X32.0Y-102.0
X128.0Y-130.7
X82.0Y-121.7
X129.0Y-70.0
X88.0Y-47.0
X32.0Y-106.0
X32.0Y-58.0
X129.0Y-134.7
X81.0Y-126.7
X119.0Y-46.0
X32.0Y-54.0
X111.0Y-142.7
X81.0Y-134.7
X115.0Y-46.0
X116.0Y-93.0
X45.0Y-47.0
X89.0Y-142.7
X108.0Y-142.7
X121.0Y-93.0
X63.0Y-111.0
X115.0Y-143.7
X92.0Y-143.7
X82.0Y-136.7
X111.0Y-46.0
X78.0Y-54.0
X67.0Y-111.0
X116.0Y-143.7
X128.0Y-123.7
X81.0Y-121.7
X128.0Y-78.0
X81.0Y-81.0
X69.0Y-108.0
X57.0Y-113.0
X128.0Y-136.7
X92.0Y-96.7
X99.0Y-46.0
X82.0Y-86.0
X71.0Y-106.0
X61.0Y-143.0
X111.0Y-143.7
X111.0Y-95.7
X96.0Y-96.7
X103.0Y-46.0
X82.0Y-81.0
X39.0Y-143.0
X73.0Y-111.0
X129.0Y-84.0
X90.0Y-95.7
X110.0Y-96.7
X101.0Y-46.0
X81.0Y-85.0
X41.0Y-121.0
X81.0Y-62.0
X78.0Y-62.0
X128.0Y-82.0
X104.0Y-95.7
X105.0Y-96.7
X82.0Y-85.0
X44.0Y-70.0
X81.0Y-67.0
X129.0Y-76.0
X118.0Y-95.7
X109.0Y-96.7
X105.0Y-93.0
X116.0Y-94.0
X129.0Y-62.0
X128.0Y-135.7
X129.0Y-107.7
X81.0Y-104.7
X107.0Y-94.0
X97.0Y-47.0
X82.0Y-67.0
X129.0Y-61.0
X128.0Y-107.7
X82.0Y-102.7
X90.0Y-94.0
X45.0Y-103.0
X111.0Y-47.0
X81.0Y-63.0
X129.0Y-120.7
X128.0Y-55.0
X128.0Y-111.7
X82.0Y-115.7
X92.0Y-94.0
X32.0Y-110.0
X32.0Y-80.0
X128.0Y-125.7
X116.0Y-47.0
X128.0Y-115.7
X82.0Y-117.7
X93.0Y-93.0
X44.0Y-64.0
X32.0Y-120.0
X32.0Y-104.0
X128.0Y-131.7
X129.0Y-105.7
X82.0Y-114.7
X128.0Y-67.0
X57.0Y-139.0
X129.0Y-130.7
X81.0Y-122.7
X129.0Y-75.0
X96.0Y-47.0
X41.0Y-47.0
X128.0Y-136.7
X109.0Y-143.7
X82.0Y-129.7
X121.0Y-46.0
X32.0Y-118.0
X59.0Y-47.0
X108.0Y-143.7
X81.0Y-125.7
X116.0Y-46.0
X129.0Y-87.0
X71.0Y-47.0
X122.0Y-142.7
X94.0Y-143.7
X82.0Y-133.7
X108.0Y-46.0
X129.0Y-85.0
X57.0Y-123.0
X112.0Y-143.7
X94.0Y-142.7
X81.0Y-135.7
X112.0Y-46.0
X78.0Y-58.0
X78.0Y-119.0
X128.0Y-124.7
X82.0Y-135.7
X128.0Y-79.0
X82.0Y-82.0
X69.0Y-106.0
X78.0Y-121.0
X129.0Y-135.7
X89.0Y-95.7
X93.0Y-96.7
X92.0Y-46.0
X82.0Y-71.0
X39.0Y-103.0
X71.0Y-111.0
X103.0Y-95.7
X100.0Y-96.7
X109.0Y-46.0
X82.0Y-74.0
X41.0Y-143.0
X69.0Y-111.0
X128.0Y-76.0
X93.0Y-95.7
X115.0Y-96.7
X104.0Y-46.0
X81.0Y-70.0
X43.0Y-105.0
X82.0Y-59.0
X78.0Y-111.0
X128.0Y-83.0
X105.0Y-95.7
X106.0Y-96.7
X106.0Y-94.0
X81.0Y-76.0
X38.0Y-82.0
X82.0Y-62.0
X129.0Y-63.0
X128.0Y-78.0
X116.0Y-95.7
X112.0Y-96.7
X107.0Y-93.0
X122.0Y-94.0
X81.0Y-58.0
X129.0Y-58.0
X88.0Y-95.7
X128.0Y-102.7
X81.0Y-105.7
X108.0Y-94.0
X98.0Y-47.0
X81.0Y-55.0
X128.0Y-63.0
X128.0Y-54.0
X128.0Y-113.7
X81.0Y-107.7
X109.0Y-94.0
X117.0Y-94.0
X36.0Y-82.0
X110.0Y-47.0
X82.0Y-57.0
X128.0Y-121.7
X129.0Y-56.0
X128.0Y-112.7
X81.0Y-117.7
X90.0Y-93.0
X57.0Y-141.0
X32.0Y-90.0
X129.0Y-128.7
X117.0Y-47.0
X128.0Y-118.7
X82.0Y-116.7
X106.0Y-93.0
X32.0Y-116.0
X32.0Y-98.0
X128.0Y-132.7
X128.0Y-108.7
X81.0Y-115.7
X129.0Y-73.0
X32.0Y-68.0
X129.0Y-131.7
X106.0Y-142.7
X129.0Y-71.0
X90.0Y-47.0
X57.0Y-47.0
X105.0Y-143.7
X81.0Y-130.7
X89.0Y-47.0
X128.0Y-87.0
X57.0Y-137.0
X115.0Y-142.7
X106.0Y-143.7
X82.0Y-127.7
X122.0Y-46.0
X57.0Y-143.0
X119.0Y-143.7
X90.0Y-142.7
X81.0Y-127.7
X110.0Y-46.0
X128.0Y-86.0
X65.0Y-143.0
X95.0Y-142.7
X107.0Y-142.7
X128.0Y-86.0
X76.0Y-86.0
X57.0Y-115.0
X114.0Y-143.7
X128.0Y-126.7
X82.0Y-122.7
X128.0Y-82.0
X82.0Y-84.0
X39.0Y-105.0
X61.0Y-111.0
X129.0Y-136.7
X106.0Y-95.7
X94.0Y-96.7
X94.0Y-46.0
X82.0Y-83.0
X37.0Y-105.0
X65.0Y-111.0
X100.0Y-95.7
X101.0Y-96.7
X128.0Y-83.0
X81.0Y-74.0
X41.0Y-103.0
X78.0Y-131.0
X128.0Y-77.0
X94.0Y-95.7
X107.0Y-96.7
X81.0Y-75.0
X45.0Y-143.0
X82.0Y-65.0
X129.0Y-83.0
X109.0Y-95.7
X116.0Y-96.7
X93.0Y-94.0
X82.0Y-76.0
X128.0Y-66.0
X108.0Y-95.7
X121.0Y-96.7
X94.0Y-94.0
X118.0Y-94.0
X82.0Y-60.0
X129.0Y-65.0
X92.0Y-95.7
X128.0Y-103.7
X82.0Y-104.7
X111.0Y-94.0
X121.0Y-94.0
X45.0Y-105.0
X99.0Y-47.0
X82.0Y-55.0
X129.0Y-64.0
X128.0Y-57.0
X129.0Y-108.7
X82.0Y-107.7
X110.0Y-94.0
X115.0Y-94.0
X114.0Y-47.0
X82.0Y-64.0
X32.0Y-114.0
X129.0Y-121.7
X129.0Y-57.0
X129.0Y-113.7
X81.0Y-109.7
X82.0Y-87.0
X32.0Y-82.0
X129.0Y-125.7
X118.0Y-47.0
X128.0Y-114.7
X81.0Y-111.7
X128.0Y-75.0
X32.0Y-112.0
X32.0Y-72.0
X129.0Y-127.7
X120.0Y-96.7
X82.0Y-118.7
X128.0Y-69.0
X32.0Y-124.0
X32.0Y-66.0
X129.0Y-132.7
X81.0Y-123.7
X128.0Y-73.0
X92.0Y-47.0
X61.0Y-47.0
X112.0Y-142.7
X110.0Y-142.7
X81.0Y-129.7
T2
X46.0Y-54.0
X46.0Y-55.0
X46.0Y-56.0
X46.0Y-57.0
X46.0Y-58.0
X46.0Y-59.0
X46.0Y-60.0
X46.0Y-61.0
X46.0Y-62.0
X46.0Y-63.0
X46.0Y-64.0
X46.0Y-65.0
X46.0Y-66.0
X46.0Y-67.0
X46.0Y-68.0
X46.0Y-69.0
X46.0Y-70.0
X46.0Y-71.0
X46.0Y-72.0
X46.0Y-73.0
X46.0Y-74.0
X46.0Y-75.0
X46.0Y-76.0
X46.0Y-77.0
X46.0Y-78.0
X46.0Y-79.0
X46.0Y-80.0
X46.0Y-81.0
X46.0Y-82.0
X46.0Y-83.0
X46.0Y-84.0
X46.0Y-85.0
X46.0Y-86.0
X46.0Y-87.0
X46.0Y-88.0
X46.0Y-89.0
X46.0Y-90.0
X46.0Y-91.0
X46.0Y-92.0
X46.0Y-93.0
X46.0Y-94.0
X46.0Y-95.0
X46.0Y-96.0
X46.0Y-97.0
X46.0Y-98.0
X46.0Y-99.0
X46.0Y-100.0
X46.0Y-101.0
X46.0Y-102.0
X46.0Y-103.0
X46.0Y-104.0
X46.0Y-105.0
X46.0Y-106.0
X46.0Y-107.0
X46.0Y-108.0
X46.0Y-109.0
X46.0Y-110.0
X46.0Y-111.0
X46.0Y-112.0
X46.0Y-113.0
X46.0Y-114.0
X46.0Y-115.0
X46.0Y-116.0
X46.0Y-117.0
X46.0Y-118.0
X46.0Y-119.0
X46.0Y-120.0
X46.0Y-126.0
X46.0Y-127.0
X46.0Y-128.0
X46.0Y-129.0
X46.0Y-130.0
X46.0Y-131.0
X46.0Y-132.0
X46.0Y-133.0
X46.0Y-134.0
X46.0Y-135.0
X46.0Y-136.0
X54.0Y-54.0
X54.0Y-55.0
X54.0Y-56.0
X54.0Y-57.0
X54.0Y-58.0
X54.0Y-59.0
X54.0Y-60.0
X54.0Y-61.0
X54.0Y-62.0
X54.0Y-63.0
X54.0Y-64.0
X54.0Y-65.0
X54.0Y-66.0
X54.0Y-67.0
X54.0Y-68.0
X54.0Y-69.0
X54.0Y-70.0
X54.0Y-71.0
X54.0Y-72.0
X54.0Y-73.0
X54.0Y-74.0
X54.0Y-75.0
X54.0Y-76.0
X54.0Y-77.0
X54.0Y-78.0
X54.0Y-79.0
X54.0Y-80.0
X54.0Y-81.0
X54.0Y-82.0
X54.0Y-83.0
X54.0Y-84.0
X54.0Y-85.0
X54.0Y-86.0
X54.0Y-87.0
X54.0Y-88.0
X54.0Y-89.0
X54.0Y-90.0
X54.0Y-91.0
X54.0Y-92.0
X54.0Y-93.0
X54.0Y-94.0
X54.0Y-96.0
X54.0Y-97.0
X54.0Y-98.0
X54.0Y-99.0
X54.0Y-100.0
X54.0Y-101.0
X54.0Y-102.0
X54.0Y-103.0
X54.0Y-104.0
X54.0Y-105.0
X54.0Y-106.0
X54.0Y-107.0
X54.0Y-111.0
X54.0Y-112.0
X54.0Y-113.0
X54.0Y-114.0
X54.0Y-115.0
X54.0Y-116.0
X54.0Y-117.0
X54.0Y-118.0
X54.0Y-119.0
X54.0Y-120.0
X54.0Y-121.0
X54.0Y-122.0
X54.0Y-123.0
X54.0Y-124.0
X54.0Y-125.0
X54.0Y-126.0
X54.0Y-127.0
X54.0Y-128.0
X54.0Y-129.0
X54.0Y-130.0
X54.0Y-131.0
X54.0Y-132.0
X54.0Y-133.0
X54.0Y-134.0
X54.0Y-135.0
X54.0Y-136.0
X56.0Y-71.0
X56.0Y-72.0
X56.0Y-73.0
X56.0Y-74.0
X56.0Y-75.0
X56.0Y-76.0
X56.0Y-77.0
X56.0Y-78.0
X56.0Y-79.0
X56.0Y-80.0
X56.0Y-81.0
X56.0Y-82.0
X56.0Y-83.0
X56.0Y-84.0
X56.0Y-85.0
X56.0Y-86.0
X56.0Y-87.0
X56.0Y-88.0
X56.0Y-89.0
X56.0Y-90.0
X56.0Y-91.0
X56.0Y-92.0
X57.0Y-70.0
X57.0Y-91.0
X58.0Y-68.5
X58.0Y-91.0
X59.0Y-67.0
X59.0Y-91.0
X60.0Y-66.0
X60.0Y-91.0
X61.0Y-61.0
X61.0Y-62.0
X61.0Y-63.0
X61.0Y-65.0
X61.0Y-66.0
X61.0Y-91.0
X61.0Y-108.0
X61.5Y-78.0
X61.5Y-79.0
X61.5Y-80.0
X61.5Y-81.0
X62.0Y-61.0
X62.0Y-70.0
X62.0Y-87.0
X62.0Y-88.0
X62.0Y-89.0
X62.0Y-90.0
X62.0Y-91.0
X62.0Y-92.0
X62.0Y-93.0
X62.0Y-108.0
X63.0Y-61.0
X63.0Y-70.0
X63.0Y-108.0
X64.0Y-61.0
X64.0Y-70.0
X64.0Y-108.0
X65.0Y-61.0
X65.0Y-62.0
X65.0Y-63.0
X65.0Y-64.0
X65.0Y-65.0
X65.0Y-66.0
X65.0Y-70.0
X65.0Y-108.0
X65.5Y-83.0
X65.5Y-84.0
X66.0Y-61.0
X66.0Y-70.0
X66.0Y-108.0
X67.0Y-61.0
X67.0Y-70.0
X67.0Y-96.0
X67.0Y-97.0
X67.0Y-98.0
X67.0Y-99.0
X67.0Y-100.0
X67.0Y-101.0
X67.0Y-102.0
X67.0Y-103.0
X67.0Y-104.0
X67.0Y-105.0
X67.0Y-106.0
X67.0Y-107.0
X67.0Y-108.0
X68.0Y-61.0
X68.0Y-70.0
X69.0Y-61.0
X69.0Y-62.0
X69.0Y-63.0
X69.0Y-64.0
X69.0Y-65.0
X69.0Y-66.0
X69.0Y-70.0
X70.0Y-66.0
X70.0Y-70.0
X71.0Y-66.0
X71.0Y-70.0
X71.0Y-89.0
X71.0Y-90.0
X71.0Y-91.0
X71.0Y-92.0
X71.0Y-93.0
X80.0Y-46.4
X80.0Y-47.4
X80.0Y-48.4
X80.0Y-49.4
X80.0Y-50.4
X80.0Y-51.4
X80.0Y-52.4
X80.0Y-53.4
X80.0Y-54.4
X80.0Y-55.4
X80.0Y-56.4
X80.0Y-57.4
X80.0Y-58.4
X80.0Y-59.4
X80.0Y-60.4
X80.0Y-61.4
X80.0Y-62.4
X80.0Y-63.4
X80.0Y-64.4
X80.0Y-65.4
X80.0Y-66.4
X80.0Y-67.4
X80.0Y-68.4
X80.0Y-69.4
X80.0Y-70.4
X80.0Y-71.4
X80.0Y-72.4
X80.0Y-73.4
X80.0Y-74.4
X80.0Y-75.4
X80.0Y-76.4
X80.0Y-77.4
X80.0Y-78.4
X80.0Y-79.4
X80.0Y-80.4
X80.0Y-81.4
X80.0Y-82.4
X80.0Y-83.4
X80.0Y-84.4
X80.0Y-85.4
X80.0Y-86.4
X80.0Y-87.4
X80.0Y-88.4
X80.0Y-89.4
X80.0Y-90.4
X80.0Y-91.4
X80.0Y-92.4
X80.0Y-93.4
X80.0Y-94.4
X80.0Y-95.4
X80.0Y-96.4
X80.0Y-97.4
X80.0Y-98.4
X80.0Y-99.4
X80.0Y-100.4
X80.0Y-101.4
X80.0Y-102.4
X80.0Y-103.4
X80.0Y-104.4
X80.0Y-105.4
X80.0Y-106.4
X80.0Y-107.4
X80.0Y-108.4
X80.0Y-109.4
X80.0Y-110.4
X80.0Y-111.4
X80.0Y-112.4
X80.0Y-113.4
X80.0Y-114.4
X80.0Y-115.4
X80.0Y-116.4
X80.0Y-117.4
X80.0Y-118.4
X80.0Y-119.4
X80.0Y-120.4
X80.0Y-121.4
X80.0Y-122.4
X80.0Y-123.4
X80.0Y-124.4
X80.0Y-125.4
X80.0Y-126.4
X80.0Y-127.4
X80.0Y-128.4
X80.0Y-129.4
X80.0Y-130.4
X80.0Y-131.4
X80.0Y-132.4
X80.0Y-133.4
X80.0Y-134.4
X80.0Y-135.4
X80.0Y-136.4
X80.0Y-137.4
X80.0Y-138.4
X80.0Y-139.4
X80.0Y-140.4
X80.0Y-141.4
X80.0Y-142.4
X80.0Y-143.4
X80.0Y-144.4
X95.0Y-68.0
X95.0Y-69.0
X95.0Y-70.0
X95.0Y-71.0
X95.0Y-72.0
X95.0Y-73.0
X95.0Y-74.0
X95.0Y-75.0
X95.0Y-76.0
X95.0Y-77.0
X95.0Y-78.0
X95.0Y-79.0
X95.0Y-80.0
X95.0Y-81.0
X95.0Y-82.0
X95.0Y-117.7
X95.0Y-118.7
X95.0Y-119.7
X95.0Y-120.7
X95.0Y-121.7
X95.0Y-122.7
X95.0Y-123.7
X95.0Y-124.7
X95.0Y-125.7
X95.0Y-126.7
X95.0Y-127.7
X95.0Y-128.7
X95.0Y-129.7
X95.0Y-130.7
X95.0Y-131.7
X96.0Y-67.0
X96.0Y-83.0
X96.0Y-116.7
X96.0Y-132.7
X97.0Y-67.0
X97.0Y-84.0
X97.0Y-85.0
X97.0Y-116.7
X97.0Y-133.7
X97.0Y-134.7
X98.0Y-67.0
X98.0Y-116.7
X99.0Y-67.0
X99.0Y-116.7
X100.0Y-68.0
X100.0Y-69.0
X100.0Y-70.0
X100.0Y-71.0
X100.0Y-72.0
X100.0Y-73.0
X100.0Y-74.0
X100.0Y-75.0
X100.0Y-76.0
X100.0Y-77.0
X100.0Y-78.0
X100.0Y-79.0
X100.0Y-80.0
X100.0Y-117.7
X100.0Y-118.7
X100.0Y-119.7
X100.0Y-120.7
X100.0Y-121.7
X100.0Y-122.7
X100.0Y-123.7
X100.0Y-124.7
X100.0Y-125.7
X100.0Y-126.7
X100.0Y-127.7
X100.0Y-128.7
X100.0Y-129.7
X101.0Y-81.0
X101.0Y-130.7
X102.0Y-82.0
X102.0Y-83.0
X102.0Y-84.0
X102.0Y-85.0
X102.0Y-86.0
X102.0Y-131.7
X102.0Y-132.7
X102.0Y-133.7
X102.0Y-134.7
X102.0Y-135.7
X102.5Y-49.0
X102.5Y-51.0
X102.5Y-53.0
X102.5Y-55.0
X102.5Y-57.0
X102.5Y-98.7
X102.5Y-100.7
X102.5Y-102.7
X102.5Y-104.7
X102.5Y-106.7
X104.5Y-49.0
X104.5Y-98.7
X106.5Y-49.0
X106.5Y-98.7
X108.5Y-49.0
X108.5Y-98.7
X110.5Y-49.0
X110.5Y-98.7
X111.5Y-51.0
X111.5Y-53.0
X111.5Y-55.0
X111.5Y-57.0
X111.5Y-100.7
X111.5Y-102.7
X111.5Y-104.7
X111.5Y-106.7
T3
X58.8Y-74.0
X117.0Y-132.7
X117.0Y-135.16
X117.0Y-137.8
X117.0Y-83.0
X117.0Y-85.46
X117.0Y-88.1
X117.0Y-132.7
X117.0Y-137.78
X119.54Y-135.24
X117.0Y-83.0
X117.0Y-88.08
X119.54Y-85.54
X59.0Y-88.0
T4
X97.475Y-100.175
X97.475Y-119.225
X107.0Y-119.225
X116.525Y-100.175
X116.525Y-119.225
X114.46Y-135.32
X117.0Y-127.7
X117.0Y-140.4
X38.57Y-99.095
X63.5Y-101.0
X97.475Y-50.475
X97.475Y-69.525
X107.0Y-69.525
X116.525Y-50.475
X116.525Y-69.525
X37.0Y-59.0
X114.46Y-85.62
X117.0Y-78.0
X117.0Y-90.7
T5
X125.25Y-117.66
X125.25Y-120.2
X125.25Y-67.96
X125.25Y-70.5
X75.5Y-91.96
X75.5Y-94.5
X75.5Y-97.04
X75.5Y-99.58
X75.5Y-102.12
T6
X47.46Y-137.96
X47.46Y-143.04
X50.0Y-140.5
X52.54Y-137.96
X52.54Y-143.04
X72.96Y-65.46
X72.96Y-70.54
X75.5Y-68.0
X78.04Y-65.46
X78.04Y-70.54
X47.46Y-46.96
X47.46Y-52.04
X50.0Y-49.5
X52.54Y-46.96
X52.54Y-52.04
X97.46Y-137.16
X97.46Y-142.24
X100.0Y-139.7
X102.54Y-137.16
X102.54Y-142.24
X97.46Y-87.46
X97.46Y-92.54
X100.0Y-90.0
X102.54Y-87.46
X102.54Y-92.54
T7
X57.0Y-108.5
T8
X35.0Y-50.0
X84.0Y-91.0
X126.0Y-98.7
X41.0Y-94.5
X84.0Y-98.7
X84.0Y-49.0
X126.0Y-140.7
X75.0Y-50.0
X84.0Y-140.7
X35.0Y-140.0
X126.0Y-91.0
X75.0Y-140.0
X126.0Y-49.0
T0
M30
