G04 #@! TF.GenerationSoftware,KiCad,Pcbnew,8.0.4*
G04 #@! TF.CreationDate,2025-01-27T10:30:07+01:00*
G04 #@! TF.ProjectId,ocxo,6f63786f-2e6b-4696-9361-645f70636258,rev?*
G04 #@! TF.SameCoordinates,Original*
G04 #@! TF.FileFunction,Legend,Bot*
G04 #@! TF.FilePolarity,Positive*
%FSLAX46Y46*%
G04 Gerber Fmt 4.6, Leading zero omitted, Abs format (unit mm)*
G04 Created by KiCad (PCBNEW 8.0.4) date 2025-01-27 10:30:07*
%MOMM*%
%LPD*%
G01*
G04 APERTURE LIST*
G04 Aperture macros list*
%AMRoundRect*
0 Rectangle with rounded corners*
0 $1 Rounding radius*
0 $2 $3 $4 $5 $6 $7 $8 $9 X,Y pos of 4 corners*
0 Add a 4 corners polygon primitive as box body*
4,1,4,$2,$3,$4,$5,$6,$7,$8,$9,$2,$3,0*
0 Add four circle primitives for the rounded corners*
1,1,$1+$1,$2,$3*
1,1,$1+$1,$4,$5*
1,1,$1+$1,$6,$7*
1,1,$1+$1,$8,$9*
0 Add four rect primitives between the rounded corners*
20,1,$1+$1,$2,$3,$4,$5,0*
20,1,$1+$1,$4,$5,$6,$7,0*
20,1,$1+$1,$6,$7,$8,$9,0*
20,1,$1+$1,$8,$9,$2,$3,0*%
G04 Aperture macros list end*
%ADD10C,0.250000*%
%ADD11C,0.150000*%
%ADD12C,0.120000*%
%ADD13C,5.900000*%
%ADD14RoundRect,0.200000X0.800000X-1.000000X0.800000X1.000000X-0.800000X1.000000X-0.800000X-1.000000X0*%
%ADD15RoundRect,0.200000X0.750000X0.625000X-0.750000X0.625000X-0.750000X-0.625000X0.750000X-0.625000X0*%
%ADD16RoundRect,0.200000X0.625000X-0.750000X0.625000X0.750000X-0.625000X0.750000X-0.625000X-0.750000X0*%
%ADD17RoundRect,0.200000X1.250000X-1.875000X1.250000X1.875000X-1.250000X1.875000X-1.250000X-1.875000X0*%
%ADD18RoundRect,0.200000X1.300000X-1.000000X1.300000X1.000000X-1.300000X1.000000X-1.300000X-1.000000X0*%
%ADD19O,3.000000X2.400000*%
%ADD20C,2.398980*%
%ADD21C,2.899360*%
%ADD22C,2.900000*%
%ADD23RoundRect,0.200000X0.650000X-0.750000X0.650000X0.750000X-0.650000X0.750000X-0.650000X-0.750000X0*%
%ADD24C,2.200000*%
%ADD25RoundRect,0.200000X1.000000X1.750000X-1.000000X1.750000X-1.000000X-1.750000X1.000000X-1.750000X0*%
%ADD26RoundRect,0.200000X3.500000X3.500000X-3.500000X3.500000X-3.500000X-3.500000X3.500000X-3.500000X0*%
%ADD27RoundRect,0.200000X-0.254000X-0.571500X0.254000X-0.571500X0.254000X0.571500X-0.254000X0.571500X0*%
%ADD28C,1.840000*%
%ADD29RoundRect,0.200000X1.150000X-1.750000X1.150000X1.750000X-1.150000X1.750000X-1.150000X-1.750000X0*%
G04 #@! TA.AperFunction,Profile*
%ADD30C,0.150000*%
G04 #@! TD*
G04 APERTURE END LIST*
D10*
X107782952Y-88434524D02*
X107782952Y-88815476D01*
X108449619Y-88494047D02*
X107592476Y-88601190D01*
X107592476Y-88601190D02*
X107497238Y-88660714D01*
X107497238Y-88660714D02*
X107449619Y-88761905D01*
X107449619Y-88761905D02*
X107449619Y-88857143D01*
X107449619Y-89619048D02*
X107449619Y-89428572D01*
X107449619Y-89428572D02*
X107497238Y-89327381D01*
X107497238Y-89327381D02*
X107544857Y-89273810D01*
X107544857Y-89273810D02*
X107687714Y-89160714D01*
X107687714Y-89160714D02*
X107878190Y-89089286D01*
X107878190Y-89089286D02*
X108259142Y-89041667D01*
X108259142Y-89041667D02*
X108354380Y-89077381D01*
X108354380Y-89077381D02*
X108402000Y-89119048D01*
X108402000Y-89119048D02*
X108449619Y-89208334D01*
X108449619Y-89208334D02*
X108449619Y-89398810D01*
X108449619Y-89398810D02*
X108402000Y-89500000D01*
X108402000Y-89500000D02*
X108354380Y-89553572D01*
X108354380Y-89553572D02*
X108259142Y-89613095D01*
X108259142Y-89613095D02*
X108021047Y-89642857D01*
X108021047Y-89642857D02*
X107925809Y-89607143D01*
X107925809Y-89607143D02*
X107878190Y-89565476D01*
X107878190Y-89565476D02*
X107830571Y-89476191D01*
X107830571Y-89476191D02*
X107830571Y-89285714D01*
X107830571Y-89285714D02*
X107878190Y-89184524D01*
X107878190Y-89184524D02*
X107925809Y-89130953D01*
X107925809Y-89130953D02*
X108021047Y-89071429D01*
X108449619Y-90017857D02*
X107782952Y-90101191D01*
X107449619Y-90142857D02*
X107497238Y-90089286D01*
X107497238Y-90089286D02*
X107544857Y-90130953D01*
X107544857Y-90130953D02*
X107497238Y-90184524D01*
X107497238Y-90184524D02*
X107449619Y-90142857D01*
X107449619Y-90142857D02*
X107544857Y-90130953D01*
X107782952Y-90434524D02*
X107782952Y-90815476D01*
X107449619Y-90619047D02*
X108306761Y-90511905D01*
X108306761Y-90511905D02*
X108402000Y-90547619D01*
X108402000Y-90547619D02*
X108449619Y-90636905D01*
X108449619Y-90636905D02*
X108449619Y-90732143D01*
X107782952Y-91577381D02*
X108449619Y-91494048D01*
X107782952Y-91148810D02*
X108306761Y-91083334D01*
X108306761Y-91083334D02*
X108402000Y-91119048D01*
X108402000Y-91119048D02*
X108449619Y-91208334D01*
X108449619Y-91208334D02*
X108449619Y-91351191D01*
X108449619Y-91351191D02*
X108402000Y-91452381D01*
X108402000Y-91452381D02*
X108354380Y-91505953D01*
D11*
X112359580Y-55833333D02*
X112407200Y-55785714D01*
X112407200Y-55785714D02*
X112454819Y-55642857D01*
X112454819Y-55642857D02*
X112454819Y-55547619D01*
X112454819Y-55547619D02*
X112407200Y-55404762D01*
X112407200Y-55404762D02*
X112311961Y-55309524D01*
X112311961Y-55309524D02*
X112216723Y-55261905D01*
X112216723Y-55261905D02*
X112026247Y-55214286D01*
X112026247Y-55214286D02*
X111883390Y-55214286D01*
X111883390Y-55214286D02*
X111692914Y-55261905D01*
X111692914Y-55261905D02*
X111597676Y-55309524D01*
X111597676Y-55309524D02*
X111502438Y-55404762D01*
X111502438Y-55404762D02*
X111454819Y-55547619D01*
X111454819Y-55547619D02*
X111454819Y-55642857D01*
X111454819Y-55642857D02*
X111502438Y-55785714D01*
X111502438Y-55785714D02*
X111550057Y-55833333D01*
X112454819Y-56785714D02*
X112454819Y-56214286D01*
X112454819Y-56500000D02*
X111454819Y-56500000D01*
X111454819Y-56500000D02*
X111597676Y-56404762D01*
X111597676Y-56404762D02*
X111692914Y-56309524D01*
X111692914Y-56309524D02*
X111740533Y-56214286D01*
X100166666Y-65359580D02*
X100214285Y-65407200D01*
X100214285Y-65407200D02*
X100357142Y-65454819D01*
X100357142Y-65454819D02*
X100452380Y-65454819D01*
X100452380Y-65454819D02*
X100595237Y-65407200D01*
X100595237Y-65407200D02*
X100690475Y-65311961D01*
X100690475Y-65311961D02*
X100738094Y-65216723D01*
X100738094Y-65216723D02*
X100785713Y-65026247D01*
X100785713Y-65026247D02*
X100785713Y-64883390D01*
X100785713Y-64883390D02*
X100738094Y-64692914D01*
X100738094Y-64692914D02*
X100690475Y-64597676D01*
X100690475Y-64597676D02*
X100595237Y-64502438D01*
X100595237Y-64502438D02*
X100452380Y-64454819D01*
X100452380Y-64454819D02*
X100357142Y-64454819D01*
X100357142Y-64454819D02*
X100214285Y-64502438D01*
X100214285Y-64502438D02*
X100166666Y-64550057D01*
X99785713Y-64550057D02*
X99738094Y-64502438D01*
X99738094Y-64502438D02*
X99642856Y-64454819D01*
X99642856Y-64454819D02*
X99404761Y-64454819D01*
X99404761Y-64454819D02*
X99309523Y-64502438D01*
X99309523Y-64502438D02*
X99261904Y-64550057D01*
X99261904Y-64550057D02*
X99214285Y-64645295D01*
X99214285Y-64645295D02*
X99214285Y-64740533D01*
X99214285Y-64740533D02*
X99261904Y-64883390D01*
X99261904Y-64883390D02*
X99833332Y-65454819D01*
X99833332Y-65454819D02*
X99214285Y-65454819D01*
X92359580Y-55833333D02*
X92407200Y-55785714D01*
X92407200Y-55785714D02*
X92454819Y-55642857D01*
X92454819Y-55642857D02*
X92454819Y-55547619D01*
X92454819Y-55547619D02*
X92407200Y-55404762D01*
X92407200Y-55404762D02*
X92311961Y-55309524D01*
X92311961Y-55309524D02*
X92216723Y-55261905D01*
X92216723Y-55261905D02*
X92026247Y-55214286D01*
X92026247Y-55214286D02*
X91883390Y-55214286D01*
X91883390Y-55214286D02*
X91692914Y-55261905D01*
X91692914Y-55261905D02*
X91597676Y-55309524D01*
X91597676Y-55309524D02*
X91502438Y-55404762D01*
X91502438Y-55404762D02*
X91454819Y-55547619D01*
X91454819Y-55547619D02*
X91454819Y-55642857D01*
X91454819Y-55642857D02*
X91502438Y-55785714D01*
X91502438Y-55785714D02*
X91550057Y-55833333D01*
X91454819Y-56166667D02*
X91454819Y-56785714D01*
X91454819Y-56785714D02*
X91835771Y-56452381D01*
X91835771Y-56452381D02*
X91835771Y-56595238D01*
X91835771Y-56595238D02*
X91883390Y-56690476D01*
X91883390Y-56690476D02*
X91931009Y-56738095D01*
X91931009Y-56738095D02*
X92026247Y-56785714D01*
X92026247Y-56785714D02*
X92264342Y-56785714D01*
X92264342Y-56785714D02*
X92359580Y-56738095D01*
X92359580Y-56738095D02*
X92407200Y-56690476D01*
X92407200Y-56690476D02*
X92454819Y-56595238D01*
X92454819Y-56595238D02*
X92454819Y-56309524D01*
X92454819Y-56309524D02*
X92407200Y-56214286D01*
X92407200Y-56214286D02*
X92359580Y-56166667D01*
X112359580Y-67833333D02*
X112407200Y-67785714D01*
X112407200Y-67785714D02*
X112454819Y-67642857D01*
X112454819Y-67642857D02*
X112454819Y-67547619D01*
X112454819Y-67547619D02*
X112407200Y-67404762D01*
X112407200Y-67404762D02*
X112311961Y-67309524D01*
X112311961Y-67309524D02*
X112216723Y-67261905D01*
X112216723Y-67261905D02*
X112026247Y-67214286D01*
X112026247Y-67214286D02*
X111883390Y-67214286D01*
X111883390Y-67214286D02*
X111692914Y-67261905D01*
X111692914Y-67261905D02*
X111597676Y-67309524D01*
X111597676Y-67309524D02*
X111502438Y-67404762D01*
X111502438Y-67404762D02*
X111454819Y-67547619D01*
X111454819Y-67547619D02*
X111454819Y-67642857D01*
X111454819Y-67642857D02*
X111502438Y-67785714D01*
X111502438Y-67785714D02*
X111550057Y-67833333D01*
X111788152Y-68690476D02*
X112454819Y-68690476D01*
X111407200Y-68452381D02*
X112121485Y-68214286D01*
X112121485Y-68214286D02*
X112121485Y-68833333D01*
X97359580Y-55833333D02*
X97407200Y-55785714D01*
X97407200Y-55785714D02*
X97454819Y-55642857D01*
X97454819Y-55642857D02*
X97454819Y-55547619D01*
X97454819Y-55547619D02*
X97407200Y-55404762D01*
X97407200Y-55404762D02*
X97311961Y-55309524D01*
X97311961Y-55309524D02*
X97216723Y-55261905D01*
X97216723Y-55261905D02*
X97026247Y-55214286D01*
X97026247Y-55214286D02*
X96883390Y-55214286D01*
X96883390Y-55214286D02*
X96692914Y-55261905D01*
X96692914Y-55261905D02*
X96597676Y-55309524D01*
X96597676Y-55309524D02*
X96502438Y-55404762D01*
X96502438Y-55404762D02*
X96454819Y-55547619D01*
X96454819Y-55547619D02*
X96454819Y-55642857D01*
X96454819Y-55642857D02*
X96502438Y-55785714D01*
X96502438Y-55785714D02*
X96550057Y-55833333D01*
X96454819Y-56738095D02*
X96454819Y-56261905D01*
X96454819Y-56261905D02*
X96931009Y-56214286D01*
X96931009Y-56214286D02*
X96883390Y-56261905D01*
X96883390Y-56261905D02*
X96835771Y-56357143D01*
X96835771Y-56357143D02*
X96835771Y-56595238D01*
X96835771Y-56595238D02*
X96883390Y-56690476D01*
X96883390Y-56690476D02*
X96931009Y-56738095D01*
X96931009Y-56738095D02*
X97026247Y-56785714D01*
X97026247Y-56785714D02*
X97264342Y-56785714D01*
X97264342Y-56785714D02*
X97359580Y-56738095D01*
X97359580Y-56738095D02*
X97407200Y-56690476D01*
X97407200Y-56690476D02*
X97454819Y-56595238D01*
X97454819Y-56595238D02*
X97454819Y-56357143D01*
X97454819Y-56357143D02*
X97407200Y-56261905D01*
X97407200Y-56261905D02*
X97359580Y-56214286D01*
X112454819Y-77833333D02*
X111978628Y-77500000D01*
X112454819Y-77261905D02*
X111454819Y-77261905D01*
X111454819Y-77261905D02*
X111454819Y-77642857D01*
X111454819Y-77642857D02*
X111502438Y-77738095D01*
X111502438Y-77738095D02*
X111550057Y-77785714D01*
X111550057Y-77785714D02*
X111645295Y-77833333D01*
X111645295Y-77833333D02*
X111788152Y-77833333D01*
X111788152Y-77833333D02*
X111883390Y-77785714D01*
X111883390Y-77785714D02*
X111931009Y-77738095D01*
X111931009Y-77738095D02*
X111978628Y-77642857D01*
X111978628Y-77642857D02*
X111978628Y-77261905D01*
X112454819Y-78785714D02*
X112454819Y-78214286D01*
X112454819Y-78500000D02*
X111454819Y-78500000D01*
X111454819Y-78500000D02*
X111597676Y-78404762D01*
X111597676Y-78404762D02*
X111692914Y-78309524D01*
X111692914Y-78309524D02*
X111740533Y-78214286D01*
X112454819Y-89833333D02*
X111978628Y-89500000D01*
X112454819Y-89261905D02*
X111454819Y-89261905D01*
X111454819Y-89261905D02*
X111454819Y-89642857D01*
X111454819Y-89642857D02*
X111502438Y-89738095D01*
X111502438Y-89738095D02*
X111550057Y-89785714D01*
X111550057Y-89785714D02*
X111645295Y-89833333D01*
X111645295Y-89833333D02*
X111788152Y-89833333D01*
X111788152Y-89833333D02*
X111883390Y-89785714D01*
X111883390Y-89785714D02*
X111931009Y-89738095D01*
X111931009Y-89738095D02*
X111978628Y-89642857D01*
X111978628Y-89642857D02*
X111978628Y-89261905D01*
X111550057Y-90214286D02*
X111502438Y-90261905D01*
X111502438Y-90261905D02*
X111454819Y-90357143D01*
X111454819Y-90357143D02*
X111454819Y-90595238D01*
X111454819Y-90595238D02*
X111502438Y-90690476D01*
X111502438Y-90690476D02*
X111550057Y-90738095D01*
X111550057Y-90738095D02*
X111645295Y-90785714D01*
X111645295Y-90785714D02*
X111740533Y-90785714D01*
X111740533Y-90785714D02*
X111883390Y-90738095D01*
X111883390Y-90738095D02*
X112454819Y-90166667D01*
X112454819Y-90166667D02*
X112454819Y-90785714D01*
X107761904Y-62454819D02*
X107761904Y-63264342D01*
X107761904Y-63264342D02*
X107714285Y-63359580D01*
X107714285Y-63359580D02*
X107666666Y-63407200D01*
X107666666Y-63407200D02*
X107571428Y-63454819D01*
X107571428Y-63454819D02*
X107380952Y-63454819D01*
X107380952Y-63454819D02*
X107285714Y-63407200D01*
X107285714Y-63407200D02*
X107238095Y-63359580D01*
X107238095Y-63359580D02*
X107190476Y-63264342D01*
X107190476Y-63264342D02*
X107190476Y-62454819D01*
X106190476Y-63454819D02*
X106761904Y-63454819D01*
X106476190Y-63454819D02*
X106476190Y-62454819D01*
X106476190Y-62454819D02*
X106571428Y-62597676D01*
X106571428Y-62597676D02*
X106666666Y-62692914D01*
X106666666Y-62692914D02*
X106761904Y-62740533D01*
X102454819Y-78238095D02*
X103264342Y-78238095D01*
X103264342Y-78238095D02*
X103359580Y-78285714D01*
X103359580Y-78285714D02*
X103407200Y-78333333D01*
X103407200Y-78333333D02*
X103454819Y-78428571D01*
X103454819Y-78428571D02*
X103454819Y-78619047D01*
X103454819Y-78619047D02*
X103407200Y-78714285D01*
X103407200Y-78714285D02*
X103359580Y-78761904D01*
X103359580Y-78761904D02*
X103264342Y-78809523D01*
X103264342Y-78809523D02*
X102454819Y-78809523D01*
X102550057Y-79238095D02*
X102502438Y-79285714D01*
X102502438Y-79285714D02*
X102454819Y-79380952D01*
X102454819Y-79380952D02*
X102454819Y-79619047D01*
X102454819Y-79619047D02*
X102502438Y-79714285D01*
X102502438Y-79714285D02*
X102550057Y-79761904D01*
X102550057Y-79761904D02*
X102645295Y-79809523D01*
X102645295Y-79809523D02*
X102740533Y-79809523D01*
X102740533Y-79809523D02*
X102883390Y-79761904D01*
X102883390Y-79761904D02*
X103454819Y-79190476D01*
X103454819Y-79190476D02*
X103454819Y-79809523D01*
X117454819Y-55261905D02*
X116454819Y-55261905D01*
X116454819Y-55261905D02*
X116454819Y-55500000D01*
X116454819Y-55500000D02*
X116502438Y-55642857D01*
X116502438Y-55642857D02*
X116597676Y-55738095D01*
X116597676Y-55738095D02*
X116692914Y-55785714D01*
X116692914Y-55785714D02*
X116883390Y-55833333D01*
X116883390Y-55833333D02*
X117026247Y-55833333D01*
X117026247Y-55833333D02*
X117216723Y-55785714D01*
X117216723Y-55785714D02*
X117311961Y-55738095D01*
X117311961Y-55738095D02*
X117407200Y-55642857D01*
X117407200Y-55642857D02*
X117454819Y-55500000D01*
X117454819Y-55500000D02*
X117454819Y-55261905D01*
X117454819Y-56785714D02*
X117454819Y-56214286D01*
X117454819Y-56500000D02*
X116454819Y-56500000D01*
X116454819Y-56500000D02*
X116597676Y-56404762D01*
X116597676Y-56404762D02*
X116692914Y-56309524D01*
X116692914Y-56309524D02*
X116740533Y-56214286D01*
D12*
X115020000Y-58000000D02*
X115020000Y-60000000D01*
X112980000Y-60000000D02*
X112980000Y-58000000D01*
X95500000Y-64150000D02*
X96500000Y-64150000D01*
X96500000Y-65850000D02*
X95500000Y-65850000D01*
X95020000Y-58000000D02*
X95020000Y-60000000D01*
X92980000Y-60000000D02*
X92980000Y-58000000D01*
X114850000Y-67500000D02*
X114850000Y-68500000D01*
X113150000Y-68500000D02*
X113150000Y-67500000D01*
X101850000Y-63300000D02*
X101850000Y-55000000D01*
X98150000Y-63300000D02*
X98150000Y-55000000D01*
X101850000Y-63300000D02*
X98150000Y-63300000D01*
X113120000Y-77400000D02*
X113120000Y-78600000D01*
X114880000Y-78600000D02*
X114880000Y-77400000D01*
X113620000Y-88900000D02*
X113620000Y-90100000D01*
X115380000Y-90100000D02*
X115380000Y-88900000D01*
X110040000Y-58400000D02*
X110390000Y-58400000D01*
X110390000Y-58400000D02*
X110390000Y-56900000D01*
X105390000Y-58400000D02*
X108590000Y-58400000D01*
X103590000Y-56900000D02*
X103590000Y-58400000D01*
X103590000Y-58400000D02*
X103990000Y-58400000D01*
D11*
X104460000Y-81286000D02*
X109540000Y-81286000D01*
X109540000Y-81286000D02*
X109540000Y-76714000D01*
X109540000Y-76714000D02*
X104460000Y-76714000D01*
X104460000Y-76714000D02*
X104460000Y-81286000D01*
X104460000Y-79762000D02*
X104968000Y-79762000D01*
X104968000Y-79762000D02*
X104968000Y-78492000D01*
X104968000Y-78492000D02*
X104460000Y-78492000D01*
D12*
X122150000Y-62600000D02*
X117850000Y-62600000D01*
X117850000Y-62600000D02*
X117850000Y-55300000D01*
X122150000Y-62600000D02*
X122150000Y-55300000D01*
%LPC*%
D13*
X126000000Y-91000000D03*
X84000000Y-49000000D03*
D14*
X114000000Y-61000000D03*
X114000000Y-57000000D03*
D15*
X97250000Y-65000000D03*
X94750000Y-65000000D03*
D14*
X94000000Y-61000000D03*
X94000000Y-57000000D03*
D16*
X114000000Y-69250000D03*
X114000000Y-66750000D03*
D17*
X100000000Y-61125000D03*
X100000000Y-54875000D03*
D18*
X125250000Y-70500000D03*
D19*
X125250000Y-67960000D03*
D13*
X126000000Y-49000000D03*
D20*
X100000000Y-90000000D03*
D21*
X102540000Y-87460000D03*
X102540000Y-92540000D03*
X97460000Y-92540000D03*
X97460000Y-87460000D03*
D13*
X84000000Y-91000000D03*
D22*
X97475000Y-50475000D03*
X116525000Y-50475000D03*
X116525000Y-69525000D03*
X97475000Y-69525000D03*
X107000000Y-69525000D03*
D23*
X114000000Y-79350000D03*
X114000000Y-76650000D03*
X114500000Y-90850000D03*
X114500000Y-88150000D03*
D24*
X117000000Y-78000000D03*
X114460000Y-85620000D03*
X117000000Y-90700000D03*
D25*
X109290000Y-60700000D03*
X104710000Y-60700000D03*
D26*
X106990000Y-53300000D03*
D27*
X105095000Y-82175000D03*
X106365000Y-82175000D03*
X107635000Y-82175000D03*
X108905000Y-82175000D03*
X108905000Y-75825000D03*
X107635000Y-75825000D03*
X106365000Y-75825000D03*
X105095000Y-75825000D03*
D28*
X117000000Y-83000000D03*
X119540000Y-85540000D03*
X117000000Y-88080000D03*
X117000000Y-88100000D03*
X117000000Y-85460000D03*
X117000000Y-83000000D03*
D29*
X120000000Y-60700000D03*
X120000000Y-55300000D03*
G36*
X129942121Y-45020002D02*
G01*
X129988614Y-45073658D01*
X130000000Y-45126000D01*
X130000000Y-94874000D01*
X129979998Y-94942121D01*
X129926342Y-94988614D01*
X129874000Y-95000000D01*
X80126000Y-95000000D01*
X80057879Y-94979998D01*
X80011386Y-94926342D01*
X80000000Y-94874000D01*
X80000000Y-92500000D01*
X82500000Y-92500000D01*
X127500000Y-92500000D01*
X127500000Y-47500000D01*
X82500000Y-47500000D01*
X82500000Y-92500000D01*
X80000000Y-92500000D01*
X80000000Y-45126000D01*
X80020002Y-45057879D01*
X80073658Y-45011386D01*
X80126000Y-45000000D01*
X129874000Y-45000000D01*
X129942121Y-45020002D01*
G37*
%LPD*%
D30*
X80000000Y-95000000D02*
X80000000Y-45000000D01*
X130000000Y-95000000D02*
X80000000Y-95000000D01*
X130000000Y-45000000D02*
X130000000Y-95000000D01*
X80000000Y-45000000D02*
X130000000Y-45000000D01*
M02*
