M48
;DRILL file {KiCad (5.0.2)-1} date 14/03/2019 17:14:54
;FORMAT={-:-/ absolute / inch / decimal}
FMAT,2
INCH,TZ
T1C0.0118
T2C0.0157
T3C0.0315
T4C0.0394
T5C0.0472
T6C0.0512
T7C0.1260
%
G90
G05
T1
X3.7795Y-1.8504
X5.0394Y-3.1102
X4.8425Y-3.2283
X3.622Y-1.8504
X4.8031Y-3.3071
X3.8583Y-1.8504
X3.4252Y-2.1654
X4.1339Y-1.8504
X3.2283Y-2.126
X4.3701Y-1.8504
X3.4252Y-2.0866
X3.2283Y-3.1102
X4.3701Y-1.811
X3.189Y-2.2441
X3.2283Y-3.189
X3.189Y-2.4409
X4.8031Y-3.4252
X5.0787Y-3.3071
X3.189Y-3.2677
X3.4252Y-2.5591
X5.0394Y-2.3228
X4.3307Y-1.811
X5.0394Y-3.189
X3.4646Y-3.7008
X3.6614Y-3.5039
X4.252Y-3.3858
X3.3858Y-2.5197
X5.0394Y-2.6378
X5.Y-3.4252
X5.Y-2.9134
X4.1732Y-3.7008
X3.189Y-3.3465
X3.2283Y-2.6378
X4.0551Y-1.811
X4.8819Y-2.9134
X4.2913Y-3.6614
X4.3307Y-3.4252
X3.4252Y-2.7165
X3.7402Y-3.5433
X3.7402Y-3.4646
X3.4252Y-3.3858
X3.3858Y-2.9528
X5.0787Y-2.126
X4.8425Y-2.9134
X3.5433Y-3.5039
X3.189Y-3.3858
X3.2283Y-2.7953
X5.0394Y-2.2441
X3.937Y-1.8898
X4.2126Y-3.4252
X3.3858Y-2.9134
X4.8031Y-1.8898
X4.1339Y-1.8898
X4.8425Y-3.0315
X4.3701Y-3.4646
X3.4252Y-2.8346
X4.4882Y-1.8898
X4.6457Y-1.8504
X4.8425Y-3.3071
X5.0394Y-2.6772
X4.1339Y-3.4252
X3.3858Y-2.7559
X3.6614Y-1.8898
X3.6614Y-1.8504
X5.0787Y-2.9921
X5.0394Y-3.0315
X5.0394Y-2.7953
X4.6063Y-1.811
X5.0787Y-3.1102
X5.0394Y-3.1496
X3.4646Y-1.8504
X4.8425Y-3.3465
X3.8976Y-1.8504
X3.2283Y-2.3622
X4.1732Y-1.8504
X3.3465Y-2.126
X4.2913Y-1.8504
X3.189Y-2.126
X3.3858Y-3.1102
X3.5433Y-1.811
X3.3858Y-2.126
X3.3858Y-3.189
X3.3858Y-2.4016
X4.252Y-1.811
X3.4252Y-2.2047
X3.5433Y-3.7008
X3.2283Y-3.2677
X3.3858Y-2.4803
X5.0787Y-2.3228
X4.8425Y-3.4252
X3.5827Y-3.6614
X3.7402Y-3.5039
X3.4252Y-3.3465
X3.4252Y-2.5197
X5.0394Y-2.4803
X3.6614Y-1.811
X3.5039Y-3.6614
X4.1339Y-3.622
X3.3465Y-3.3465
X3.4252Y-2.5984
X4.1732Y-1.811
X4.8425Y-2.9528
X4.3701Y-3.6614
X4.3307Y-3.4646
X3.3858Y-2.8346
X3.4646Y-3.5827
X3.5039Y-3.5039
X3.2283Y-3.3465
X3.2283Y-2.7559
X5.0394Y-2.1654
X4.9213Y-2.9134
X3.7008Y-3.4646
X3.2677Y-3.3465
X3.3858Y-2.7953
X4.5669Y-1.8898
X3.9764Y-1.8898
X4.252Y-3.4252
X3.2283Y-3.0709
X4.6457Y-1.8898
X4.252Y-1.8898
X4.7638Y-1.8504
X4.8425Y-3.0709
X4.1732Y-3.5827
X3.4252Y-2.9528
X4.1732Y-1.8898
X3.4646Y-1.8898
X4.8031Y-2.9134
X5.Y-2.9528
X5.0394Y-2.7165
X4.1732Y-3.4646
X3.4252Y-2.7953
X3.622Y-1.8898
X4.5276Y-1.811
X5.0394Y-3.0315
X5.0394Y-3.0709
X5.0394Y-2.9134
X3.7402Y-1.8504
X5.0787Y-3.1496
X4.8425Y-3.189
X3.7008Y-1.8504
X3.3071Y-2.0866
X4.8031Y-3.0315
X3.937Y-1.8504
X3.3858Y-2.3622
X4.2126Y-1.8504
X3.2677Y-2.0866
X4.4882Y-1.8504
X3.189Y-2.2047
X3.4252Y-3.1102
X3.3858Y-2.4409
X3.9764Y-1.811
X3.189Y-2.1654
X5.0394Y-3.3465
X3.4252Y-3.189
X3.189Y-2.4803
X4.0157Y-1.811
X3.2283Y-2.2441
X5.0394Y-3.3858
X3.6614Y-3.6614
X3.4252Y-3.3071
X3.4252Y-2.4803
X5.0394Y-2.3622
X3.7795Y-1.811
X4.9213Y-2.9528
X4.252Y-3.7008
X3.189Y-3.3071
X3.2283Y-2.5591
X5.0787Y-2.5197
X4.2126Y-1.811
X3.7008Y-3.622
X4.3701Y-3.622
X3.3858Y-3.3858
X3.189Y-2.6772
X3.8583Y-1.811
X3.7402Y-3.622
X4.1339Y-3.7008
X4.1339Y-3.5433
X3.189Y-2.874
X3.7402Y-3.5827
X3.5039Y-3.5433
X3.3071Y-3.3465
X3.189Y-2.7559
X5.0394Y-2.2835
X3.4646Y-3.5039
X3.3858Y-3.2677
X3.2283Y-2.9134
X4.6063Y-1.8898
X4.0157Y-1.8898
X4.8425Y-3.1102
X4.2913Y-3.4252
X3.2283Y-2.9528
X4.7244Y-1.8898
X4.4094Y-1.8898
X3.7008Y-1.8898
X5.0394Y-3.1102
X5.0787Y-2.8346
X4.1339Y-3.4646
X3.189Y-3.1102
X4.5276Y-1.8898
X3.8189Y-1.8898
X3.4646Y-3.4646
X5.0394Y-2.9528
X5.0787Y-2.7559
X3.2283Y-2.9921
X3.7402Y-1.8898
X4.6457Y-1.811
X5.0787Y-3.0315
X4.8031Y-3.3465
X5.0787Y-2.7953
X4.7638Y-1.811
X5.0394Y-3.189
X3.5039Y-1.8504
X4.8031Y-2.9921
X3.9764Y-1.8504
X3.189Y-2.2835
X4.252Y-1.8504
X3.3465Y-2.0866
X3.4252Y-2.2441
X3.189Y-3.1496
X3.4252Y-2.4409
X3.7402Y-1.811
X3.3858Y-2.2047
X3.189Y-3.2283
X3.2283Y-2.4409
X5.0787Y-2.4803
X4.8819Y-3.4252
X3.2283Y-2.2047
X5.0394Y-3.3071
X3.5039Y-3.5827
X3.3071Y-3.3858
X3.189Y-2.5591
X5.0787Y-2.3622
X5.0394Y-3.4252
X5.0787Y-3.2677
X4.8031Y-2.9528
X4.252Y-3.6614
X3.2283Y-3.3071
X3.3858Y-2.5591
X5.0394Y-2.5591
X3.4646Y-1.811
X4.9606Y-2.9528
X3.7008Y-3.5039
X3.2677Y-3.4252
X3.3858Y-2.6772
X4.0945Y-1.811
X3.7008Y-3.7008
X4.2913Y-3.7008
X4.1339Y-3.5827
X3.2283Y-3.0315
X3.7008Y-3.6614
X3.7008Y-3.5433
X3.2283Y-3.3858
X3.189Y-2.8346
X4.685Y-1.8898
X3.6614Y-3.4646
X3.2677Y-3.3858
X3.3858Y-2.874
X5.0787Y-2.1654
X4.3307Y-1.8898
X4.8031Y-3.0709
X4.3701Y-3.4252
X3.4252Y-3.0709
X5.0394Y-2.0866
X4.4488Y-1.8898
X4.5669Y-1.8504
X5.0394Y-3.2283
X5.0787Y-2.6378
X4.3701Y-3.5039
X3.2283Y-2.6772
X4.2913Y-1.8898
X3.5827Y-1.8898
X4.8425Y-2.9921
X5.0394Y-2.874
X3.189Y-3.0315
X3.7795Y-1.8898
X3.5433Y-1.8504
X5.0394Y-3.1496
X4.8031Y-3.1102
X5.0787Y-2.874
X3.5827Y-1.8504
X4.8031Y-3.2677
X4.0551Y-1.8504
X3.4252Y-2.126
X4.3307Y-1.8504
X3.3858Y-2.1654
X3.2677Y-2.126
X3.3858Y-3.1496
X3.189Y-2.4016
X4.4488Y-1.811
X3.2283Y-2.2835
X5.0787Y-3.3465
X3.2283Y-3.2283
X3.189Y-2.6378
X5.0787Y-2.5591
X3.8976Y-1.811
X3.3858Y-2.2835
X5.0787Y-3.2283
X3.5433Y-3.6614
X4.1732Y-3.6614
X3.3858Y-3.3465
X3.189Y-2.5197
X5.0787Y-2.4016
X4.4094Y-1.811
X5.0394Y-3.2283
X3.5039Y-3.7008
X3.622Y-3.5039
X3.3465Y-3.4252
X3.3858Y-2.5984
X5.0394Y-2.5984
X3.622Y-1.811
X3.5039Y-3.622
X4.1732Y-3.622
X3.3071Y-3.4252
X3.4252Y-2.6772
X4.1339Y-1.811
X3.4646Y-3.6614
X4.3307Y-3.7008
X4.2913Y-3.3858
X3.189Y-3.0709
X4.9606Y-2.9134
X4.3701Y-3.7008
X4.3701Y-3.5827
X3.2283Y-2.874
X5.0394Y-2.126
X3.5827Y-3.4646
X4.1732Y-3.3858
X3.189Y-2.9528
X5.0787Y-2.0866
X4.3701Y-1.8898
X4.9213Y-3.3858
X4.1732Y-3.5433
X3.3858Y-3.0315
X3.8583Y-1.8898
X4.6063Y-1.8504
X4.8031Y-3.1496
X5.0787Y-2.7165
X4.3307Y-3.5827
X3.4252Y-2.874
X4.8031Y-1.8504
X4.1339Y-3.3858
X4.8031Y-3.2283
X5.0787Y-2.9528
X3.3858Y-3.0709
X4.5276Y-1.8504
X4.4882Y-1.811
X5.0394Y-3.0709
X5.0394Y-3.3465
X5.0787Y-2.6772
X4.685Y-1.811
X4.8425Y-3.2677
X3.4252Y-2.2835
X4.0157Y-1.8504
X3.2283Y-2.0866
X4.4094Y-1.8504
X3.3858Y-2.2441
X3.189Y-2.3622
X3.189Y-3.189
X3.2283Y-2.4016
X4.9606Y-3.3858
X3.3858Y-2.3228
X5.0787Y-3.189
X3.3858Y-3.2283
X3.2283Y-2.4803
X5.0787Y-2.2835
X5.0394Y-3.3858
X3.3071Y-2.126
X5.0787Y-3.4252
X3.5827Y-3.7008
X4.2126Y-3.6614
X3.3465Y-3.3858
X3.2283Y-2.5197
X5.0394Y-2.4016
X3.5039Y-1.811
X5.0394Y-3.2677
X3.7402Y-3.6614
X4.2126Y-3.7008
X3.3858Y-3.3071
X3.2283Y-2.5984
X5.0394Y-2.5197
X4.2913Y-1.811
X3.7402Y-3.7008
X4.3307Y-3.622
X3.3858Y-3.4252
X3.189Y-2.7165
X3.5827Y-1.811
X3.622Y-3.6614
X3.4646Y-3.5433
X4.3701Y-3.3858
X3.4252Y-2.9134
X4.8819Y-2.9528
X3.622Y-3.4646
X4.3701Y-3.5433
X3.4252Y-2.7559
X5.0787Y-2.2441
X3.189Y-3.4252
X3.4252Y-3.0315
X5.0394Y-2.2047
X4.0551Y-1.8898
X4.8031Y-3.189
X4.1339Y-3.5039
X3.4252Y-2.9921
X3.8976Y-1.8898
X4.685Y-1.8504
X4.8425Y-3.1496
X5.0394Y-2.8346
X4.1732Y-3.5039
X3.189Y-2.9134
X3.5039Y-1.8898
X5.0394Y-3.2677
X5.0394Y-2.9528
X4.5669Y-1.811
X5.0787Y-3.0709
X4.8819Y-3.3858
X5.0787Y-2.9134
X4.8031Y-1.811
X4.8425Y-3.3858
X3.8189Y-1.8504
X3.2283Y-2.1654
X4.0945Y-1.8504
X3.3858Y-2.0866
X4.4488Y-1.8504
X3.4252Y-2.3622
X3.2283Y-3.1496
X3.937Y-1.811
X3.189Y-2.3228
X3.4252Y-3.1496
X3.4252Y-2.4016
X5.Y-3.3858
X3.4252Y-2.3228
X5.0394Y-3.4252
X3.4252Y-3.2283
X3.189Y-2.5984
X5.0394Y-2.4409
X4.9606Y-3.4252
X3.2283Y-2.3228
X5.0787Y-3.3858
X3.7008Y-3.5827
X3.5433Y-3.4646
X3.4252Y-3.2677
X3.4252Y-2.6378
X5.0787Y-2.4409
X4.9213Y-3.4252
X3.4646Y-3.622
X4.3307Y-3.6614
X4.2126Y-3.3858
X3.3858Y-2.6378
X5.0787Y-2.5984
X3.8189Y-1.811
X5.0394Y-2.9134
X4.1339Y-3.6614
X3.4252Y-3.4252
X3.3858Y-2.7165
X3.7008Y-1.811
X3.6614Y-3.7008
X3.5039Y-3.4646
X4.1732Y-3.4252
X3.189Y-2.9921
X3.622Y-3.7008
X3.5827Y-3.5039
X4.3307Y-3.3858
X3.189Y-2.7953
X5.0787Y-2.2047
X3.2283Y-3.4252
X3.2283Y-2.8346
X4.7638Y-1.8898
X4.0945Y-1.8898
X5.0394Y-2.9921
X4.3307Y-3.5039
X3.3858Y-2.9921
X4.2126Y-1.8898
X4.7244Y-1.8504
X4.8031Y-3.3858
X5.0394Y-2.9921
X4.3307Y-3.5433
X3.2283Y-2.7165
X3.5433Y-1.8898
X4.7244Y-1.811
X3.189Y-2.0866
X5.0394Y-3.3071
X5.0394Y-2.7559
T2
X3.7402Y-2.6772
X3.7402Y-2.7165
X3.7402Y-2.7559
X3.7402Y-2.7953
X3.7402Y-2.8346
X3.7402Y-2.874
X3.7402Y-2.9134
X3.7402Y-2.9528
X3.7402Y-2.9921
X3.7402Y-3.0315
X3.7402Y-3.0709
X3.7402Y-3.1102
X3.7402Y-3.1496
X3.7402Y-3.189
X3.7402Y-3.2283
X3.7795Y-2.6378
X3.7795Y-3.2677
X3.8189Y-2.6378
X3.8189Y-3.3071
X3.8189Y-3.3465
X3.8583Y-2.6378
X3.8976Y-2.6378
X3.937Y-2.6772
X3.937Y-2.7165
X3.937Y-2.7559
X3.937Y-2.7953
X3.937Y-2.8346
X3.937Y-2.874
X3.937Y-2.9134
X3.937Y-2.9528
X3.937Y-2.9921
X3.937Y-3.0315
X3.937Y-3.0709
X3.937Y-3.1102
X3.937Y-3.1496
X3.9764Y-3.189
X4.0157Y-3.2283
X4.0157Y-3.2677
X4.0157Y-3.3071
X4.0157Y-3.3465
X4.0157Y-3.3858
X4.0354Y-1.9291
X4.0354Y-2.0079
X4.0354Y-2.0866
X4.0354Y-2.1654
X4.0354Y-2.2441
X4.1142Y-1.9291
X4.1929Y-1.9291
X4.2717Y-1.9291
X4.3504Y-1.9291
X4.3898Y-2.0079
X4.3898Y-2.0866
X4.3898Y-2.1654
X4.3898Y-2.2441
T3
X4.6063Y-3.2677
X4.6063Y-3.3646
X4.6063Y-3.4685
X4.6063Y-3.2677
X4.6063Y-3.4677
X4.7063Y-3.3677
T4
X4.5063Y-3.3709
X4.6063Y-3.0709
X4.6063Y-3.5709
X3.8376Y-1.9872
X3.8376Y-2.7372
X4.2126Y-2.7372
X4.5876Y-1.9872
X4.5876Y-2.7372
T5
X4.9311Y-2.6756
X4.9311Y-2.7756
T6
X3.837Y-3.4433
X3.837Y-3.6433
X3.937Y-3.5433
X4.037Y-3.4433
X4.037Y-3.6433
T7
X4.9606Y-1.9291
X4.9606Y-3.5827
X3.3071Y-1.9291
X3.3071Y-3.5827
T0
M30
