G04 #@! TF.FileFunction,Legend,Top*
%FSLAX46Y46*%
G04 Gerber Fmt 4.6, Leading zero omitted, Abs format (unit mm)*
G04 Created by KiCad (PCBNEW 4.0.7) date 12/31/17 15:11:22*
%MOMM*%
%LPD*%
G01*
G04 APERTURE LIST*
%ADD10C,0.100000*%
%ADD11C,0.300000*%
%ADD12C,0.120000*%
%ADD13C,0.099060*%
%ADD14C,0.381000*%
%ADD15C,0.400000*%
%ADD16C,0.150000*%
G04 APERTURE END LIST*
D10*
D11*
X125250000Y-76928572D02*
X125178571Y-77071429D01*
X125178571Y-77285715D01*
X125250000Y-77500000D01*
X125392857Y-77642858D01*
X125535714Y-77714286D01*
X125821429Y-77785715D01*
X126035714Y-77785715D01*
X126321429Y-77714286D01*
X126464286Y-77642858D01*
X126607143Y-77500000D01*
X126678571Y-77285715D01*
X126678571Y-77142858D01*
X126607143Y-76928572D01*
X126535714Y-76857143D01*
X126035714Y-76857143D01*
X126035714Y-77142858D01*
X126678571Y-76214286D02*
X125178571Y-76214286D01*
X126678571Y-75357143D01*
X125178571Y-75357143D01*
X126678571Y-74642857D02*
X125178571Y-74642857D01*
X125178571Y-74285714D01*
X125250000Y-74071429D01*
X125392857Y-73928571D01*
X125535714Y-73857143D01*
X125821429Y-73785714D01*
X126035714Y-73785714D01*
X126321429Y-73857143D01*
X126464286Y-73928571D01*
X126607143Y-74071429D01*
X126678571Y-74285714D01*
X126678571Y-74642857D01*
X84475000Y-86151786D02*
X84475000Y-85437500D01*
X84903571Y-86348214D02*
X83403571Y-85660714D01*
X84903571Y-85348214D01*
X83903571Y-84723214D02*
X84689286Y-84821429D01*
X84832143Y-84767858D01*
X84903571Y-84633928D01*
X83546429Y-84750001D02*
X83546429Y-84678572D01*
X83475000Y-84598215D01*
X83332143Y-84580358D01*
X84403571Y-83571429D02*
X84689286Y-83607144D01*
X83903571Y-83866072D02*
X83975000Y-83946429D01*
X84117857Y-84035715D01*
X84689286Y-84107144D01*
X84832143Y-84053572D01*
X84903571Y-83919643D01*
X84903571Y-83848214D01*
X84832143Y-83696429D01*
X84689286Y-83607144D01*
X84832143Y-83553572D01*
X84903571Y-83419643D01*
X84903571Y-83348214D01*
X84832143Y-83196429D01*
X84689286Y-83107144D01*
X84117857Y-83035715D01*
X83975000Y-83089286D01*
X83903571Y-83151786D01*
X83332143Y-83294644D02*
X83546429Y-83535715D01*
X83903571Y-82508928D02*
X84903571Y-82276785D01*
X84117857Y-81821429D01*
X84046429Y-81812501D01*
X83903571Y-81866071D01*
X84760714Y-80116071D02*
X84832143Y-80053572D01*
X84903571Y-80133928D01*
X84832143Y-80196429D01*
X84760714Y-80116071D01*
X84903571Y-80133928D01*
X83975000Y-80017857D02*
X84046429Y-79955358D01*
X84117857Y-80035714D01*
X84046429Y-80098215D01*
X83975000Y-80017857D01*
X84117857Y-80035714D01*
X84903571Y-77491071D02*
X84903571Y-78348214D01*
X84903571Y-77919642D02*
X83403571Y-77732142D01*
X83617857Y-77901785D01*
X83760714Y-78062500D01*
X83832143Y-78214286D01*
X83403571Y-76375000D02*
X83403571Y-76232143D01*
X83475000Y-76098215D01*
X83546429Y-76035715D01*
X83689286Y-75982143D01*
X83975000Y-75946429D01*
X84332143Y-75991072D01*
X84617857Y-76098214D01*
X84760714Y-76187500D01*
X84832143Y-76267858D01*
X84903571Y-76419643D01*
X84903571Y-76562500D01*
X84832143Y-76696429D01*
X84760714Y-76758929D01*
X84617857Y-76812500D01*
X84332143Y-76848215D01*
X83975000Y-76803572D01*
X83689286Y-76696429D01*
X83546429Y-76607144D01*
X83475000Y-76526786D01*
X83403571Y-76375000D01*
X84903571Y-74276786D02*
X83403571Y-74089286D01*
X84475000Y-73723215D01*
X83403571Y-73089286D01*
X84903571Y-73276786D01*
X84903571Y-72562500D02*
X83403571Y-72375000D01*
X84117857Y-72464286D02*
X84117857Y-71607143D01*
X84903571Y-71705357D02*
X83403571Y-71517857D01*
X83903571Y-71008928D02*
X83903571Y-70223214D01*
X84903571Y-71133928D01*
X84903571Y-70348214D01*
X83403571Y-68160714D02*
X83403571Y-67875000D01*
X83475000Y-67741071D01*
X83617857Y-67616071D01*
X83903571Y-67580357D01*
X84403571Y-67642857D01*
X84689286Y-67750000D01*
X84832143Y-67910714D01*
X84903571Y-68062500D01*
X84903571Y-68348214D01*
X84832143Y-68482143D01*
X84689286Y-68607143D01*
X84403571Y-68642857D01*
X83903571Y-68580357D01*
X83617857Y-68473214D01*
X83475000Y-68312500D01*
X83403571Y-68160714D01*
X84760714Y-66187499D02*
X84832143Y-66267857D01*
X84903571Y-66491071D01*
X84903571Y-66633928D01*
X84832143Y-66839285D01*
X84689286Y-66964286D01*
X84546429Y-67017857D01*
X84260714Y-67053571D01*
X84046429Y-67026786D01*
X83760714Y-66919642D01*
X83617857Y-66830357D01*
X83475000Y-66669642D01*
X83403571Y-66446428D01*
X83403571Y-66303571D01*
X83475000Y-66098214D01*
X83546429Y-66035714D01*
X83403571Y-65517856D02*
X84903571Y-64705356D01*
X83403571Y-64517856D02*
X84903571Y-65705356D01*
X83403571Y-63660714D02*
X83403571Y-63375000D01*
X83475000Y-63241071D01*
X83617857Y-63116071D01*
X83903571Y-63080357D01*
X84403571Y-63142857D01*
X84689286Y-63250000D01*
X84832143Y-63410714D01*
X84903571Y-63562500D01*
X84903571Y-63848214D01*
X84832143Y-63982143D01*
X84689286Y-64107143D01*
X84403571Y-64142857D01*
X83903571Y-64080357D01*
X83617857Y-63973214D01*
X83475000Y-63812500D01*
X83403571Y-63660714D01*
X86667857Y-85535714D02*
X86667857Y-86035714D01*
X87453571Y-86133928D02*
X85953571Y-85946428D01*
X85953571Y-85232142D01*
X87453571Y-84848214D02*
X86453571Y-84723214D01*
X86739286Y-84758929D02*
X86596429Y-84669644D01*
X86525000Y-84589286D01*
X86453571Y-84437500D01*
X86453571Y-84294643D01*
X87382143Y-83339287D02*
X87453571Y-83491072D01*
X87453571Y-83776786D01*
X87382143Y-83910715D01*
X87239286Y-83964287D01*
X86667857Y-83892858D01*
X86525000Y-83803572D01*
X86453571Y-83651786D01*
X86453571Y-83366072D01*
X86525000Y-83232144D01*
X86667857Y-83178572D01*
X86810714Y-83196429D01*
X86953571Y-83928572D01*
X86453571Y-81866072D02*
X87953571Y-82053572D01*
X87382143Y-81982144D02*
X87453571Y-82133929D01*
X87453571Y-82419643D01*
X87382143Y-82553573D01*
X87310714Y-82616072D01*
X87167857Y-82669644D01*
X86739286Y-82616073D01*
X86596429Y-82526787D01*
X86525000Y-82446430D01*
X86453571Y-82294643D01*
X86453571Y-82008929D01*
X86525000Y-81875001D01*
X86453571Y-80508929D02*
X87453571Y-80633929D01*
X86453571Y-81151786D02*
X87239286Y-81250001D01*
X87382143Y-81196430D01*
X87453571Y-81062500D01*
X87453571Y-80848215D01*
X87382143Y-80696430D01*
X87310714Y-80616072D01*
X87382143Y-79339287D02*
X87453571Y-79491072D01*
X87453571Y-79776786D01*
X87382143Y-79910715D01*
X87239286Y-79964287D01*
X86667857Y-79892858D01*
X86525000Y-79803572D01*
X86453571Y-79651786D01*
X86453571Y-79366072D01*
X86525000Y-79232144D01*
X86667857Y-79178572D01*
X86810714Y-79196429D01*
X86953571Y-79928572D01*
X86453571Y-78508929D02*
X87453571Y-78633929D01*
X86596429Y-78526787D02*
X86525000Y-78446430D01*
X86453571Y-78294643D01*
X86453571Y-78080358D01*
X86525000Y-77946430D01*
X86667857Y-77892858D01*
X87453571Y-77991072D01*
X87382143Y-76625001D02*
X87453571Y-76776786D01*
X87453571Y-77062500D01*
X87382143Y-77196430D01*
X87310714Y-77258929D01*
X87167857Y-77312501D01*
X86739286Y-77258930D01*
X86596429Y-77169644D01*
X86525000Y-77089287D01*
X86453571Y-76937500D01*
X86453571Y-76651786D01*
X86525000Y-76517858D01*
X86453571Y-76008929D02*
X87453571Y-75776786D01*
X86453571Y-75294644D02*
X87453571Y-75776786D01*
X87810714Y-75964287D01*
X87882143Y-76044644D01*
X87953571Y-76196429D01*
X87453571Y-72848215D02*
X86739286Y-73258930D01*
X87453571Y-73705358D02*
X85953571Y-73517858D01*
X85953571Y-72946430D01*
X86025000Y-72812501D01*
X86096429Y-72750002D01*
X86239286Y-72696430D01*
X86453571Y-72723215D01*
X86596429Y-72812502D01*
X86667857Y-72892858D01*
X86739286Y-73044645D01*
X86739286Y-73616073D01*
X87382143Y-71625002D02*
X87453571Y-71776787D01*
X87453571Y-72062501D01*
X87382143Y-72196430D01*
X87239286Y-72250002D01*
X86667857Y-72178573D01*
X86525000Y-72089287D01*
X86453571Y-71937501D01*
X86453571Y-71651787D01*
X86525000Y-71517859D01*
X86667857Y-71464287D01*
X86810714Y-71482144D01*
X86953571Y-72214287D01*
X86453571Y-71008930D02*
X86453571Y-70437501D01*
X87453571Y-70919644D02*
X86167857Y-70758930D01*
X86025000Y-70669645D01*
X85953571Y-70517858D01*
X85953571Y-70375001D01*
X87382143Y-69482145D02*
X87453571Y-69633930D01*
X87453571Y-69919644D01*
X87382143Y-70053573D01*
X87239286Y-70107145D01*
X86667857Y-70035716D01*
X86525000Y-69946430D01*
X86453571Y-69794644D01*
X86453571Y-69508930D01*
X86525000Y-69375002D01*
X86667857Y-69321430D01*
X86810714Y-69339287D01*
X86953571Y-70071430D01*
X87453571Y-68776787D02*
X86453571Y-68651787D01*
X86739286Y-68687502D02*
X86596429Y-68598217D01*
X86525000Y-68517859D01*
X86453571Y-68366073D01*
X86453571Y-68223216D01*
X87382143Y-67267860D02*
X87453571Y-67419645D01*
X87453571Y-67705359D01*
X87382143Y-67839288D01*
X87239286Y-67892860D01*
X86667857Y-67821431D01*
X86525000Y-67732145D01*
X86453571Y-67580359D01*
X86453571Y-67294645D01*
X86525000Y-67160717D01*
X86667857Y-67107145D01*
X86810714Y-67125002D01*
X86953571Y-67857145D01*
X86453571Y-66437502D02*
X87453571Y-66562502D01*
X86596429Y-66455360D02*
X86525000Y-66375003D01*
X86453571Y-66223216D01*
X86453571Y-66008931D01*
X86525000Y-65875003D01*
X86667857Y-65821431D01*
X87453571Y-65919645D01*
X87382143Y-64553574D02*
X87453571Y-64705359D01*
X87453571Y-64991073D01*
X87382143Y-65125003D01*
X87310714Y-65187502D01*
X87167857Y-65241074D01*
X86739286Y-65187503D01*
X86596429Y-65098217D01*
X86525000Y-65017860D01*
X86453571Y-64866073D01*
X86453571Y-64580359D01*
X86525000Y-64446431D01*
X87382143Y-63339289D02*
X87453571Y-63491074D01*
X87453571Y-63776788D01*
X87382143Y-63910717D01*
X87239286Y-63964289D01*
X86667857Y-63892860D01*
X86525000Y-63803574D01*
X86453571Y-63651788D01*
X86453571Y-63366074D01*
X86525000Y-63232146D01*
X86667857Y-63178574D01*
X86810714Y-63196431D01*
X86953571Y-63928574D01*
X122403571Y-65857143D02*
X123903571Y-65357143D01*
X122403571Y-64857143D01*
X123832143Y-63714286D02*
X123903571Y-63857143D01*
X123903571Y-64142857D01*
X123832143Y-64285715D01*
X123760714Y-64357143D01*
X123617857Y-64428572D01*
X123189286Y-64428572D01*
X123046429Y-64357143D01*
X122975000Y-64285715D01*
X122903571Y-64142857D01*
X122903571Y-63857143D01*
X122975000Y-63714286D01*
X123832143Y-62428572D02*
X123903571Y-62571429D01*
X123903571Y-62857143D01*
X123832143Y-63000001D01*
X123760714Y-63071429D01*
X123617857Y-63142858D01*
X123189286Y-63142858D01*
X123046429Y-63071429D01*
X122975000Y-63000001D01*
X122903571Y-62857143D01*
X122903571Y-62571429D01*
X122975000Y-62428572D01*
X123903571Y-60642858D02*
X122403571Y-60642858D01*
X122903571Y-59928572D02*
X123903571Y-59928572D01*
X123046429Y-59928572D02*
X122975000Y-59857144D01*
X122903571Y-59714286D01*
X122903571Y-59500001D01*
X122975000Y-59357144D01*
X123117857Y-59285715D01*
X123903571Y-59285715D01*
X125882143Y-65642857D02*
X125882143Y-64500000D01*
X126453571Y-65071429D02*
X125310714Y-65071429D01*
X125882143Y-63785714D02*
X125882143Y-62642857D01*
X126453571Y-63214286D02*
X125310714Y-63214286D01*
X124953571Y-60928571D02*
X124953571Y-59928571D01*
X126453571Y-60571428D01*
X124882143Y-58285715D02*
X126810714Y-59571429D01*
X126453571Y-57000000D02*
X126453571Y-57857143D01*
X126453571Y-57428571D02*
X124953571Y-57428571D01*
X125167857Y-57571428D01*
X125310714Y-57714286D01*
X125382143Y-57857143D01*
X125096429Y-56428572D02*
X125025000Y-56357143D01*
X124953571Y-56214286D01*
X124953571Y-55857143D01*
X125025000Y-55714286D01*
X125096429Y-55642857D01*
X125239286Y-55571429D01*
X125382143Y-55571429D01*
X125596429Y-55642857D01*
X126453571Y-56500000D01*
X126453571Y-55571429D01*
X124953571Y-55142858D02*
X126453571Y-54642858D01*
X124953571Y-54142858D01*
D12*
X122230000Y-71870000D02*
X128230000Y-71870000D01*
X128230000Y-71870000D02*
X128230000Y-66590000D01*
X128230000Y-66590000D02*
X122230000Y-66590000D01*
X122230000Y-66590000D02*
X122230000Y-71870000D01*
X128230000Y-70500000D02*
X127230000Y-70500000D01*
X127230000Y-70500000D02*
X127230000Y-67960000D01*
X127230000Y-67960000D02*
X128230000Y-67960000D01*
X127230000Y-70500000D02*
X126800000Y-70250000D01*
X126800000Y-70250000D02*
X126800000Y-68210000D01*
X126800000Y-68210000D02*
X127230000Y-67960000D01*
X128230000Y-70250000D02*
X127230000Y-70250000D01*
X128230000Y-68210000D02*
X127230000Y-68210000D01*
X122230000Y-71300000D02*
X122850000Y-71300000D01*
X122850000Y-71300000D02*
X122850000Y-69700000D01*
X122850000Y-69700000D02*
X122230000Y-69700000D01*
X122230000Y-68760000D02*
X122850000Y-68760000D01*
X122850000Y-68760000D02*
X122850000Y-67160000D01*
X122850000Y-67160000D02*
X122230000Y-67160000D01*
D13*
X100500380Y-90000000D02*
G75*
G03X100500380Y-90000000I-500380J0D01*
G01*
X101501140Y-90000000D02*
G75*
G03X101501140Y-90000000I-1501140J0D01*
G01*
D14*
X102548957Y-90000000D02*
G75*
G03X102548957Y-90000000I-2548957J0D01*
G01*
X97000260Y-87000260D02*
X102999740Y-87000260D01*
X102999740Y-87000260D02*
X102999740Y-92999740D01*
X102999740Y-92999740D02*
X97000260Y-92999740D01*
X97000260Y-92999740D02*
X97000260Y-87000260D01*
X102371904Y-90000000D02*
G75*
G03X102371904Y-90000000I-2371904J0D01*
G01*
D15*
X101920000Y-54285000D02*
G75*
G03X101920000Y-54285000I-635000J0D01*
G01*
X101920000Y-65715000D02*
G75*
G03X101920000Y-65715000I-635000J0D01*
G01*
X113350000Y-65715000D02*
G75*
G03X113350000Y-65715000I-635000J0D01*
G01*
X113350000Y-54285000D02*
G75*
G03X113350000Y-54285000I-635000J0D01*
G01*
X95570000Y-47300000D02*
X96205000Y-47300000D01*
X94300000Y-49205000D02*
X94300000Y-48570000D01*
X95570000Y-47300000D02*
G75*
G03X94300000Y-48570000I0J-1270000D01*
G01*
X118430000Y-47300000D02*
X117795000Y-47300000D01*
X119700000Y-49205000D02*
X119700000Y-48570000D01*
X119700000Y-48570000D02*
G75*
G03X118430000Y-47300000I-1270000J0D01*
G01*
X94300000Y-49205000D02*
X94300000Y-72700000D01*
X116525000Y-47300000D02*
X117795000Y-47300000D01*
X116525000Y-47300000D02*
X96205000Y-47300000D01*
X119700000Y-71430000D02*
X119700000Y-49205000D01*
X118430000Y-72700000D02*
G75*
G03X119700000Y-71430000I0J1270000D01*
G01*
X94300000Y-72700000D02*
X118430000Y-72700000D01*
D12*
X113270000Y-94060000D02*
X113270000Y-74939000D01*
X118190000Y-94060000D02*
X118190000Y-74939000D01*
X113270000Y-94060000D02*
X118190000Y-94060000D01*
X113270000Y-74939000D02*
X118190000Y-74939000D01*
X114490000Y-95580000D02*
X114490000Y-94061000D01*
X116970000Y-95580000D02*
X116970000Y-94061000D01*
X114490000Y-95580000D02*
X116970000Y-95580000D01*
X114490000Y-94061000D02*
X116970000Y-94061000D01*
X115730000Y-95580000D02*
X115730000Y-94820000D01*
X121075000Y-82045000D02*
G75*
G03X121075000Y-82045000I-1155000J0D01*
G01*
X115030000Y-90365000D02*
X115030000Y-80715000D01*
X121250000Y-90365000D02*
X121250000Y-80715000D01*
X115030000Y-90365000D02*
X121250000Y-90365000D01*
X115030000Y-80715000D02*
X121250000Y-80715000D01*
X119186000Y-81169000D02*
X120796000Y-82780000D01*
X119045000Y-81309000D02*
X120655000Y-82921000D01*
X115235000Y-88955000D02*
G75*
G03X115235000Y-88955000I-1155000J0D01*
G01*
X118970000Y-80635000D02*
X118970000Y-90285000D01*
X112750000Y-80635000D02*
X112750000Y-90285000D01*
X118970000Y-80635000D02*
X112750000Y-80635000D01*
X118970000Y-90285000D02*
X112750000Y-90285000D01*
X114814000Y-89831000D02*
X113204000Y-88220000D01*
X114955000Y-89691000D02*
X113345000Y-88079000D01*
D16*
X120202381Y-69833333D02*
X120916667Y-69833333D01*
X121059524Y-69880953D01*
X121154762Y-69976191D01*
X121202381Y-70119048D01*
X121202381Y-70214286D01*
X121202381Y-68833333D02*
X121202381Y-69404762D01*
X121202381Y-69119048D02*
X120202381Y-69119048D01*
X120345238Y-69214286D01*
X120440476Y-69309524D01*
X120488095Y-69404762D01*
D10*
X99833334Y-94476190D02*
X99833334Y-94833333D01*
X99809524Y-94904762D01*
X99761905Y-94952381D01*
X99690477Y-94976190D01*
X99642858Y-94976190D01*
X100023810Y-94476190D02*
X100333333Y-94476190D01*
X100166667Y-94666667D01*
X100238095Y-94666667D01*
X100285714Y-94690476D01*
X100309524Y-94714286D01*
X100333333Y-94761905D01*
X100333333Y-94880952D01*
X100309524Y-94928571D01*
X100285714Y-94952381D01*
X100238095Y-94976190D01*
X100095238Y-94976190D01*
X100047619Y-94952381D01*
X100023810Y-94928571D01*
D16*
X99666667Y-84052381D02*
X99666667Y-84766667D01*
X99619047Y-84909524D01*
X99523809Y-85004762D01*
X99380952Y-85052381D01*
X99285714Y-85052381D01*
X100047619Y-84052381D02*
X100714286Y-84052381D01*
X100285714Y-85052381D01*
X106904762Y-65627619D02*
X106809524Y-65580000D01*
X106714286Y-65484762D01*
X106571429Y-65341905D01*
X106476190Y-65294286D01*
X106380952Y-65294286D01*
X106428571Y-65532381D02*
X106333333Y-65484762D01*
X106238095Y-65389524D01*
X106190476Y-65199048D01*
X106190476Y-64865714D01*
X106238095Y-64675238D01*
X106333333Y-64580000D01*
X106428571Y-64532381D01*
X106619048Y-64532381D01*
X106714286Y-64580000D01*
X106809524Y-64675238D01*
X106857143Y-64865714D01*
X106857143Y-65199048D01*
X106809524Y-65389524D01*
X106714286Y-65484762D01*
X106619048Y-65532381D01*
X106428571Y-65532381D01*
X107809524Y-65532381D02*
X107238095Y-65532381D01*
X107523809Y-65532381D02*
X107523809Y-64532381D01*
X107428571Y-64675238D01*
X107333333Y-64770476D01*
X107238095Y-64818095D01*
X110047619Y-68952381D02*
X110380952Y-69952381D01*
X110714286Y-68952381D01*
X111476191Y-69904762D02*
X111380953Y-69952381D01*
X111190476Y-69952381D01*
X111095238Y-69904762D01*
X111047619Y-69857143D01*
X111000000Y-69761905D01*
X111000000Y-69476190D01*
X111047619Y-69380952D01*
X111095238Y-69333333D01*
X111190476Y-69285714D01*
X111380953Y-69285714D01*
X111476191Y-69333333D01*
X112047619Y-69952381D02*
X111952381Y-69904762D01*
X111904762Y-69857143D01*
X111857143Y-69761905D01*
X111857143Y-69476190D01*
X111904762Y-69380952D01*
X111952381Y-69333333D01*
X112047619Y-69285714D01*
X112190477Y-69285714D01*
X112285715Y-69333333D01*
X112333334Y-69380952D01*
X112380953Y-69476190D01*
X112380953Y-69761905D01*
X112333334Y-69857143D01*
X112285715Y-69904762D01*
X112190477Y-69952381D01*
X112047619Y-69952381D01*
X112809524Y-69285714D02*
X112809524Y-69952381D01*
X112809524Y-69380952D02*
X112857143Y-69333333D01*
X112952381Y-69285714D01*
X113095239Y-69285714D01*
X113190477Y-69333333D01*
X113238096Y-69428571D01*
X113238096Y-69952381D01*
X113571429Y-69285714D02*
X113952381Y-69285714D01*
X113714286Y-68952381D02*
X113714286Y-69809524D01*
X113761905Y-69904762D01*
X113857143Y-69952381D01*
X113952381Y-69952381D01*
X112214286Y-50952381D02*
X112214286Y-49952381D01*
X112785715Y-50952381D01*
X112785715Y-49952381D01*
X113833334Y-50857143D02*
X113785715Y-50904762D01*
X113642858Y-50952381D01*
X113547620Y-50952381D01*
X113404762Y-50904762D01*
X113309524Y-50809524D01*
X113261905Y-50714286D01*
X113214286Y-50523810D01*
X113214286Y-50380952D01*
X113261905Y-50190476D01*
X113309524Y-50095238D01*
X113404762Y-50000000D01*
X113547620Y-49952381D01*
X113642858Y-49952381D01*
X113785715Y-50000000D01*
X113833334Y-50047619D01*
X100666666Y-68952381D02*
X100857143Y-68952381D01*
X100952381Y-69000000D01*
X101047619Y-69095238D01*
X101095238Y-69285714D01*
X101095238Y-69619048D01*
X101047619Y-69809524D01*
X100952381Y-69904762D01*
X100857143Y-69952381D01*
X100666666Y-69952381D01*
X100571428Y-69904762D01*
X100476190Y-69809524D01*
X100428571Y-69619048D01*
X100428571Y-69285714D01*
X100476190Y-69095238D01*
X100571428Y-69000000D01*
X100666666Y-68952381D01*
X101952381Y-69285714D02*
X101952381Y-69952381D01*
X101523809Y-69285714D02*
X101523809Y-69809524D01*
X101571428Y-69904762D01*
X101666666Y-69952381D01*
X101809524Y-69952381D01*
X101904762Y-69904762D01*
X101952381Y-69857143D01*
X102285714Y-69285714D02*
X102666666Y-69285714D01*
X102428571Y-68952381D02*
X102428571Y-69809524D01*
X102476190Y-69904762D01*
X102571428Y-69952381D01*
X102666666Y-69952381D01*
X106238096Y-66485000D02*
X106142858Y-66437381D01*
X106000001Y-66437381D01*
X105857143Y-66485000D01*
X105761905Y-66580238D01*
X105714286Y-66675476D01*
X105666667Y-66865952D01*
X105666667Y-67008810D01*
X105714286Y-67199286D01*
X105761905Y-67294524D01*
X105857143Y-67389762D01*
X106000001Y-67437381D01*
X106095239Y-67437381D01*
X106238096Y-67389762D01*
X106285715Y-67342143D01*
X106285715Y-67008810D01*
X106095239Y-67008810D01*
X106714286Y-67437381D02*
X106714286Y-66437381D01*
X107285715Y-67437381D01*
X107285715Y-66437381D01*
X107761905Y-67437381D02*
X107761905Y-66437381D01*
X108000000Y-66437381D01*
X108142858Y-66485000D01*
X108238096Y-66580238D01*
X108285715Y-66675476D01*
X108333334Y-66865952D01*
X108333334Y-67008810D01*
X108285715Y-67199286D01*
X108238096Y-67294524D01*
X108142858Y-67389762D01*
X108000000Y-67437381D01*
X107761905Y-67437381D01*
X99809524Y-49702381D02*
X100142857Y-50702381D01*
X100476191Y-49702381D01*
X101238096Y-50654762D02*
X101142858Y-50702381D01*
X100952381Y-50702381D01*
X100857143Y-50654762D01*
X100809524Y-50607143D01*
X100761905Y-50511905D01*
X100761905Y-50226190D01*
X100809524Y-50130952D01*
X100857143Y-50083333D01*
X100952381Y-50035714D01*
X101142858Y-50035714D01*
X101238096Y-50083333D01*
X102095239Y-50654762D02*
X102000001Y-50702381D01*
X101809524Y-50702381D01*
X101714286Y-50654762D01*
X101666667Y-50607143D01*
X101619048Y-50511905D01*
X101619048Y-50226190D01*
X101666667Y-50130952D01*
X101714286Y-50083333D01*
X101809524Y-50035714D01*
X102000001Y-50035714D01*
X102095239Y-50083333D01*
X112532381Y-85855238D02*
X112056190Y-86188572D01*
X112532381Y-86426667D02*
X111532381Y-86426667D01*
X111532381Y-86045714D01*
X111580000Y-85950476D01*
X111627619Y-85902857D01*
X111722857Y-85855238D01*
X111865714Y-85855238D01*
X111960952Y-85902857D01*
X112008571Y-85950476D01*
X112056190Y-86045714D01*
X112056190Y-86426667D01*
X111532381Y-85569524D02*
X112532381Y-85236191D01*
X111532381Y-84902857D01*
X112532381Y-84045714D02*
X112532381Y-84617143D01*
X112532381Y-84331429D02*
X111532381Y-84331429D01*
X111675238Y-84426667D01*
X111770476Y-84521905D01*
X111818095Y-84617143D01*
M02*
