G04 #@! TF.FileFunction,Legend,Bot*
%FSLAX46Y46*%
G04 Gerber Fmt 4.6, Leading zero omitted, Abs format (unit mm)*
G04 Created by KiCad (PCBNEW 4.0.7) date 01/10/18 11:32:41*
%MOMM*%
%LPD*%
G01*
G04 APERTURE LIST*
%ADD10C,0.100000*%
%ADD11C,0.250000*%
%ADD12C,0.120000*%
%ADD13C,0.150000*%
G04 APERTURE END LIST*
D10*
D11*
X107785714Y-88383929D02*
X107785714Y-88764881D01*
X108452381Y-88443452D02*
X107595238Y-88550595D01*
X107500000Y-88610119D01*
X107452381Y-88711309D01*
X107452381Y-88806547D01*
X107452381Y-89568453D02*
X107452381Y-89377976D01*
X107500000Y-89276786D01*
X107547619Y-89223215D01*
X107690476Y-89110120D01*
X107880952Y-89038691D01*
X108261905Y-88991072D01*
X108357143Y-89026786D01*
X108404762Y-89068453D01*
X108452381Y-89157738D01*
X108452381Y-89348215D01*
X108404762Y-89449406D01*
X108357143Y-89502977D01*
X108261905Y-89562501D01*
X108023810Y-89592263D01*
X107928571Y-89556549D01*
X107880952Y-89514882D01*
X107833333Y-89425596D01*
X107833333Y-89235119D01*
X107880952Y-89133929D01*
X107928571Y-89080358D01*
X108023810Y-89020834D01*
X108452381Y-89967262D02*
X107785714Y-90050596D01*
X107452381Y-90092262D02*
X107500000Y-90038691D01*
X107547619Y-90080358D01*
X107500000Y-90133929D01*
X107452381Y-90092262D01*
X107547619Y-90080358D01*
X107785714Y-90383929D02*
X107785714Y-90764881D01*
X107452381Y-90568452D02*
X108309524Y-90461310D01*
X108404762Y-90497024D01*
X108452381Y-90586309D01*
X108452381Y-90681547D01*
X107785714Y-91526787D02*
X108452381Y-91443453D01*
X107785714Y-91098215D02*
X108309524Y-91032739D01*
X108404762Y-91068453D01*
X108452381Y-91157738D01*
X108452381Y-91300596D01*
X108404762Y-91401787D01*
X108357143Y-91455358D01*
D12*
X115020000Y-58000000D02*
X115020000Y-60000000D01*
X112980000Y-60000000D02*
X112980000Y-58000000D01*
X95500000Y-64150000D02*
X96500000Y-64150000D01*
X96500000Y-65850000D02*
X95500000Y-65850000D01*
X95020000Y-58000000D02*
X95020000Y-60000000D01*
X92980000Y-60000000D02*
X92980000Y-58000000D01*
X114850000Y-67500000D02*
X114850000Y-68500000D01*
X113150000Y-68500000D02*
X113150000Y-67500000D01*
X101850000Y-63300000D02*
X101850000Y-55000000D01*
X98150000Y-63300000D02*
X98150000Y-55000000D01*
X101850000Y-63300000D02*
X98150000Y-63300000D01*
X113120000Y-77400000D02*
X113120000Y-78600000D01*
X114880000Y-78600000D02*
X114880000Y-77400000D01*
X113620000Y-88900000D02*
X113620000Y-90100000D01*
X115380000Y-90100000D02*
X115380000Y-88900000D01*
X110040000Y-58400000D02*
X110390000Y-58400000D01*
X110390000Y-58400000D02*
X110390000Y-56900000D01*
X105390000Y-58400000D02*
X108590000Y-58400000D01*
X103590000Y-56900000D02*
X103590000Y-58400000D01*
X103590000Y-58400000D02*
X103990000Y-58400000D01*
D13*
X104460000Y-81286000D02*
X109540000Y-81286000D01*
X109540000Y-81286000D02*
X109540000Y-76714000D01*
X109540000Y-76714000D02*
X104460000Y-76714000D01*
X104460000Y-76714000D02*
X104460000Y-81286000D01*
X104460000Y-79762000D02*
X104968000Y-79762000D01*
X104968000Y-79762000D02*
X104968000Y-78492000D01*
X104968000Y-78492000D02*
X104460000Y-78492000D01*
D12*
X122150000Y-62600000D02*
X117850000Y-62600000D01*
X117850000Y-62600000D02*
X117850000Y-55300000D01*
X122150000Y-62600000D02*
X122150000Y-55300000D01*
D13*
X112357143Y-55833334D02*
X112404762Y-55785715D01*
X112452381Y-55642858D01*
X112452381Y-55547620D01*
X112404762Y-55404762D01*
X112309524Y-55309524D01*
X112214286Y-55261905D01*
X112023810Y-55214286D01*
X111880952Y-55214286D01*
X111690476Y-55261905D01*
X111595238Y-55309524D01*
X111500000Y-55404762D01*
X111452381Y-55547620D01*
X111452381Y-55642858D01*
X111500000Y-55785715D01*
X111547619Y-55833334D01*
X112452381Y-56785715D02*
X112452381Y-56214286D01*
X112452381Y-56500000D02*
X111452381Y-56500000D01*
X111595238Y-56404762D01*
X111690476Y-56309524D01*
X111738095Y-56214286D01*
X100166666Y-65357143D02*
X100214285Y-65404762D01*
X100357142Y-65452381D01*
X100452380Y-65452381D01*
X100595238Y-65404762D01*
X100690476Y-65309524D01*
X100738095Y-65214286D01*
X100785714Y-65023810D01*
X100785714Y-64880952D01*
X100738095Y-64690476D01*
X100690476Y-64595238D01*
X100595238Y-64500000D01*
X100452380Y-64452381D01*
X100357142Y-64452381D01*
X100214285Y-64500000D01*
X100166666Y-64547619D01*
X99785714Y-64547619D02*
X99738095Y-64500000D01*
X99642857Y-64452381D01*
X99404761Y-64452381D01*
X99309523Y-64500000D01*
X99261904Y-64547619D01*
X99214285Y-64642857D01*
X99214285Y-64738095D01*
X99261904Y-64880952D01*
X99833333Y-65452381D01*
X99214285Y-65452381D01*
X92357143Y-55833334D02*
X92404762Y-55785715D01*
X92452381Y-55642858D01*
X92452381Y-55547620D01*
X92404762Y-55404762D01*
X92309524Y-55309524D01*
X92214286Y-55261905D01*
X92023810Y-55214286D01*
X91880952Y-55214286D01*
X91690476Y-55261905D01*
X91595238Y-55309524D01*
X91500000Y-55404762D01*
X91452381Y-55547620D01*
X91452381Y-55642858D01*
X91500000Y-55785715D01*
X91547619Y-55833334D01*
X91452381Y-56166667D02*
X91452381Y-56785715D01*
X91833333Y-56452381D01*
X91833333Y-56595239D01*
X91880952Y-56690477D01*
X91928571Y-56738096D01*
X92023810Y-56785715D01*
X92261905Y-56785715D01*
X92357143Y-56738096D01*
X92404762Y-56690477D01*
X92452381Y-56595239D01*
X92452381Y-56309524D01*
X92404762Y-56214286D01*
X92357143Y-56166667D01*
X112357143Y-67833334D02*
X112404762Y-67785715D01*
X112452381Y-67642858D01*
X112452381Y-67547620D01*
X112404762Y-67404762D01*
X112309524Y-67309524D01*
X112214286Y-67261905D01*
X112023810Y-67214286D01*
X111880952Y-67214286D01*
X111690476Y-67261905D01*
X111595238Y-67309524D01*
X111500000Y-67404762D01*
X111452381Y-67547620D01*
X111452381Y-67642858D01*
X111500000Y-67785715D01*
X111547619Y-67833334D01*
X111785714Y-68690477D02*
X112452381Y-68690477D01*
X111404762Y-68452381D02*
X112119048Y-68214286D01*
X112119048Y-68833334D01*
X97357143Y-55833334D02*
X97404762Y-55785715D01*
X97452381Y-55642858D01*
X97452381Y-55547620D01*
X97404762Y-55404762D01*
X97309524Y-55309524D01*
X97214286Y-55261905D01*
X97023810Y-55214286D01*
X96880952Y-55214286D01*
X96690476Y-55261905D01*
X96595238Y-55309524D01*
X96500000Y-55404762D01*
X96452381Y-55547620D01*
X96452381Y-55642858D01*
X96500000Y-55785715D01*
X96547619Y-55833334D01*
X96452381Y-56738096D02*
X96452381Y-56261905D01*
X96928571Y-56214286D01*
X96880952Y-56261905D01*
X96833333Y-56357143D01*
X96833333Y-56595239D01*
X96880952Y-56690477D01*
X96928571Y-56738096D01*
X97023810Y-56785715D01*
X97261905Y-56785715D01*
X97357143Y-56738096D01*
X97404762Y-56690477D01*
X97452381Y-56595239D01*
X97452381Y-56357143D01*
X97404762Y-56261905D01*
X97357143Y-56214286D01*
X112452381Y-77833334D02*
X111976190Y-77500000D01*
X112452381Y-77261905D02*
X111452381Y-77261905D01*
X111452381Y-77642858D01*
X111500000Y-77738096D01*
X111547619Y-77785715D01*
X111642857Y-77833334D01*
X111785714Y-77833334D01*
X111880952Y-77785715D01*
X111928571Y-77738096D01*
X111976190Y-77642858D01*
X111976190Y-77261905D01*
X112452381Y-78785715D02*
X112452381Y-78214286D01*
X112452381Y-78500000D02*
X111452381Y-78500000D01*
X111595238Y-78404762D01*
X111690476Y-78309524D01*
X111738095Y-78214286D01*
X112452381Y-89833334D02*
X111976190Y-89500000D01*
X112452381Y-89261905D02*
X111452381Y-89261905D01*
X111452381Y-89642858D01*
X111500000Y-89738096D01*
X111547619Y-89785715D01*
X111642857Y-89833334D01*
X111785714Y-89833334D01*
X111880952Y-89785715D01*
X111928571Y-89738096D01*
X111976190Y-89642858D01*
X111976190Y-89261905D01*
X111547619Y-90214286D02*
X111500000Y-90261905D01*
X111452381Y-90357143D01*
X111452381Y-90595239D01*
X111500000Y-90690477D01*
X111547619Y-90738096D01*
X111642857Y-90785715D01*
X111738095Y-90785715D01*
X111880952Y-90738096D01*
X112452381Y-90166667D01*
X112452381Y-90785715D01*
X107761905Y-62452381D02*
X107761905Y-63261905D01*
X107714286Y-63357143D01*
X107666667Y-63404762D01*
X107571429Y-63452381D01*
X107380952Y-63452381D01*
X107285714Y-63404762D01*
X107238095Y-63357143D01*
X107190476Y-63261905D01*
X107190476Y-62452381D01*
X106190476Y-63452381D02*
X106761905Y-63452381D01*
X106476191Y-63452381D02*
X106476191Y-62452381D01*
X106571429Y-62595238D01*
X106666667Y-62690476D01*
X106761905Y-62738095D01*
X102452381Y-78238095D02*
X103261905Y-78238095D01*
X103357143Y-78285714D01*
X103404762Y-78333333D01*
X103452381Y-78428571D01*
X103452381Y-78619048D01*
X103404762Y-78714286D01*
X103357143Y-78761905D01*
X103261905Y-78809524D01*
X102452381Y-78809524D01*
X102547619Y-79238095D02*
X102500000Y-79285714D01*
X102452381Y-79380952D01*
X102452381Y-79619048D01*
X102500000Y-79714286D01*
X102547619Y-79761905D01*
X102642857Y-79809524D01*
X102738095Y-79809524D01*
X102880952Y-79761905D01*
X103452381Y-79190476D01*
X103452381Y-79809524D01*
X117452381Y-55261905D02*
X116452381Y-55261905D01*
X116452381Y-55500000D01*
X116500000Y-55642858D01*
X116595238Y-55738096D01*
X116690476Y-55785715D01*
X116880952Y-55833334D01*
X117023810Y-55833334D01*
X117214286Y-55785715D01*
X117309524Y-55738096D01*
X117404762Y-55642858D01*
X117452381Y-55500000D01*
X117452381Y-55261905D01*
X117452381Y-56785715D02*
X117452381Y-56214286D01*
X117452381Y-56500000D02*
X116452381Y-56500000D01*
X116595238Y-56404762D01*
X116690476Y-56309524D01*
X116738095Y-56214286D01*
M02*
