M48
;DRILL file {KiCad 4.0.7} date 01/10/18 11:32:48
;FORMAT={3:3/ absolute / metric / suppress leading zeros}
FMAT,2
METRIC,TZ
T1C0.300
T2C0.400
T3C0.800
T4C1.000
T5C1.200
T6C1.300
T7C3.200
%
G90
G05
M71
T1
X81000Y-53000
X81000Y-54000
X81000Y-55000
X81000Y-56000
X81000Y-57000
X81000Y-58000
X81000Y-59000
X81000Y-60000
X81000Y-61000
X81000Y-62000
X81000Y-63000
X81000Y-64000
X81000Y-65000
X81000Y-66000
X81000Y-67000
X81000Y-68000
X81000Y-69000
X81000Y-70000
X81000Y-71000
X81000Y-72000
X81000Y-73000
X81000Y-74000
X81000Y-75000
X81000Y-76000
X81000Y-77000
X81000Y-78000
X81000Y-79000
X81000Y-80000
X81000Y-81000
X81000Y-82000
X81000Y-83000
X81000Y-84000
X81000Y-85000
X81000Y-86000
X81000Y-87000
X82000Y-53000
X82000Y-54000
X82000Y-55000
X82000Y-56000
X82000Y-57000
X82000Y-58000
X82000Y-59000
X82000Y-60000
X82000Y-61000
X82000Y-62000
X82000Y-63000
X82000Y-64000
X82000Y-65000
X82000Y-66000
X82000Y-67000
X82000Y-68000
X82000Y-69000
X82000Y-70000
X82000Y-71000
X82000Y-72000
X82000Y-73000
X82000Y-74000
X82000Y-75000
X82000Y-76000
X82000Y-77000
X82000Y-78000
X82000Y-79000
X82000Y-80000
X82000Y-81000
X82000Y-82000
X82000Y-83000
X82000Y-84000
X82000Y-85000
X82000Y-86000
X82000Y-87000
X83000Y-53000
X83000Y-54000
X83000Y-85000
X83000Y-86000
X83000Y-87000
X84000Y-53000
X84000Y-54000
X84000Y-85000
X84000Y-86000
X84000Y-87000
X85000Y-53000
X85000Y-54000
X85000Y-85000
X85000Y-86000
X85000Y-87000
X86000Y-53000
X86000Y-54000
X86000Y-55000
X86000Y-56000
X86000Y-57000
X86000Y-58000
X86000Y-59000
X86000Y-60000
X86000Y-61000
X86000Y-62000
X86000Y-63000
X86000Y-64000
X86000Y-65000
X86000Y-66000
X86000Y-67000
X86000Y-68000
X86000Y-69000
X86000Y-70000
X86000Y-71000
X86000Y-72000
X86000Y-73000
X86000Y-74000
X86000Y-75000
X86000Y-76000
X86000Y-77000
X86000Y-78000
X86000Y-79000
X86000Y-80000
X86000Y-81000
X86000Y-82000
X86000Y-83000
X86000Y-84000
X86000Y-85000
X86000Y-86000
X86000Y-87000
X87000Y-53000
X87000Y-54000
X87000Y-55000
X87000Y-56000
X87000Y-57000
X87000Y-58000
X87000Y-59000
X87000Y-60000
X87000Y-61000
X87000Y-62000
X87000Y-63000
X87000Y-64000
X87000Y-65000
X87000Y-66000
X87000Y-67000
X87000Y-68000
X87000Y-69000
X87000Y-70000
X87000Y-71000
X87000Y-72000
X87000Y-73000
X87000Y-74000
X87000Y-75000
X87000Y-76000
X87000Y-77000
X87000Y-78000
X87000Y-79000
X87000Y-80000
X87000Y-81000
X87000Y-82000
X87000Y-83000
X87000Y-84000
X87000Y-85000
X87000Y-86000
X87000Y-87000
X88000Y-46000
X88000Y-47000
X88000Y-48000
X88000Y-88000
X88000Y-89000
X88000Y-90000
X88000Y-91000
X88000Y-92000
X88000Y-93000
X88000Y-94000
X89000Y-46000
X89000Y-47000
X89000Y-48000
X89000Y-88000
X89000Y-89000
X89000Y-90000
X89000Y-91000
X89000Y-92000
X89000Y-93000
X89000Y-94000
X90000Y-46000
X90000Y-47000
X90000Y-48000
X90000Y-88000
X90000Y-89000
X90000Y-93000
X90000Y-94000
X91000Y-46000
X91000Y-47000
X91000Y-48000
X91000Y-88000
X91000Y-89000
X91000Y-93000
X91000Y-94000
X92000Y-46000
X92000Y-47000
X92000Y-48000
X92000Y-88000
X92000Y-89000
X92000Y-93000
X92000Y-94000
X93000Y-46000
X93000Y-47000
X93000Y-48000
X93000Y-88000
X93000Y-89000
X93000Y-93000
X93000Y-94000
X94000Y-46000
X94000Y-47000
X94000Y-48000
X94000Y-88000
X94000Y-89000
X94000Y-90000
X94000Y-91000
X94000Y-92000
X94000Y-93000
X94000Y-94000
X95000Y-46000
X95000Y-47000
X95000Y-48000
X95000Y-88000
X95000Y-89000
X95000Y-90000
X95000Y-91000
X95000Y-92000
X95000Y-93000
X95000Y-94000
X96000Y-46000
X96000Y-47000
X96000Y-48000
X97000Y-46000
X97000Y-47000
X97000Y-48000
X98000Y-46000
X98000Y-47000
X98000Y-48000
X99000Y-46000
X99000Y-47000
X99000Y-48000
X100000Y-46000
X100000Y-47000
X100000Y-48000
X101000Y-46000
X101000Y-47000
X101000Y-48000
X102000Y-46000
X102000Y-47000
X102000Y-48000
X103000Y-46000
X103000Y-47000
X103000Y-48000
X104000Y-46000
X104000Y-47000
X104000Y-48000
X105000Y-46000
X105000Y-47000
X105000Y-48000
X105000Y-86000
X105000Y-87000
X105000Y-88000
X105000Y-89000
X105000Y-90000
X105000Y-91000
X105000Y-92000
X105000Y-93000
X105000Y-94000
X106000Y-46000
X106000Y-47000
X106000Y-48000
X106000Y-86000
X106000Y-87000
X106000Y-88000
X106000Y-89000
X106000Y-90000
X106000Y-91000
X106000Y-92000
X106000Y-93000
X106000Y-94000
X107000Y-46000
X107000Y-47000
X107000Y-48000
X107000Y-86000
X107000Y-87000
X107000Y-93000
X107000Y-94000
X108000Y-46000
X108000Y-47000
X108000Y-48000
X108000Y-86000
X108000Y-87000
X108000Y-93000
X108000Y-94000
X109000Y-46000
X109000Y-47000
X109000Y-48000
X109000Y-86000
X109000Y-87000
X109000Y-93000
X109000Y-94000
X110000Y-46000
X110000Y-47000
X110000Y-48000
X110000Y-86000
X110000Y-87000
X110000Y-88000
X110000Y-89000
X110000Y-90000
X110000Y-91000
X110000Y-92000
X110000Y-93000
X110000Y-94000
X111000Y-46000
X111000Y-47000
X111000Y-48000
X111000Y-86000
X111000Y-87000
X111000Y-88000
X111000Y-89000
X111000Y-90000
X111000Y-91000
X111000Y-92000
X111000Y-93000
X111000Y-94000
X112000Y-46000
X112000Y-47000
X112000Y-48000
X113000Y-46000
X113000Y-47000
X113000Y-48000
X114000Y-46000
X114000Y-47000
X114000Y-48000
X115000Y-46000
X115000Y-47000
X115000Y-48000
X116000Y-46000
X116000Y-47000
X116000Y-48000
X117000Y-46000
X117000Y-47000
X117000Y-48000
X118000Y-46000
X118000Y-47000
X118000Y-48000
X119000Y-46000
X119000Y-47000
X119000Y-48000
X120000Y-46000
X120000Y-47000
X120000Y-48000
X121000Y-46000
X121000Y-47000
X121000Y-48000
X122000Y-46000
X122000Y-47000
X122000Y-48000
X122000Y-74000
X122000Y-75000
X122000Y-76000
X122000Y-77000
X122000Y-78000
X122000Y-79000
X122000Y-80000
X122000Y-81000
X122000Y-82000
X122000Y-83000
X122000Y-84000
X122000Y-85000
X122000Y-86000
X122000Y-87000
X123000Y-74000
X123000Y-75000
X123000Y-76000
X123000Y-77000
X123000Y-78000
X123000Y-79000
X123000Y-80000
X123000Y-81000
X123000Y-82000
X123000Y-83000
X123000Y-84000
X123000Y-85000
X123000Y-86000
X123000Y-87000
X124000Y-74000
X124000Y-75000
X124000Y-86000
X124000Y-87000
X125000Y-74000
X125000Y-75000
X125000Y-86000
X125000Y-87000
X126000Y-74000
X126000Y-75000
X126000Y-86000
X126000Y-87000
X127000Y-74000
X127000Y-75000
X127000Y-86000
X127000Y-87000
X128000Y-53000
X128000Y-54000
X128000Y-55000
X128000Y-56000
X128000Y-57000
X128000Y-58000
X128000Y-59000
X128000Y-60000
X128000Y-61000
X128000Y-62000
X128000Y-63000
X128000Y-64000
X128000Y-65000
X128000Y-66000
X128000Y-67000
X128000Y-68000
X128000Y-69000
X128000Y-70000
X128000Y-71000
X128000Y-72000
X128000Y-73000
X128000Y-74000
X128000Y-74000
X128000Y-75000
X128000Y-75000
X128000Y-76000
X128000Y-76000
X128000Y-77000
X128000Y-77000
X128000Y-78000
X128000Y-78000
X128000Y-79000
X128000Y-79000
X128000Y-80000
X128000Y-80000
X128000Y-81000
X128000Y-81000
X128000Y-82000
X128000Y-82000
X128000Y-83000
X128000Y-83000
X128000Y-84000
X128000Y-84000
X128000Y-85000
X128000Y-85000
X128000Y-86000
X128000Y-86000
X128000Y-87000
X128000Y-87000
X129000Y-53000
X129000Y-54000
X129000Y-55000
X129000Y-56000
X129000Y-57000
X129000Y-58000
X129000Y-59000
X129000Y-60000
X129000Y-61000
X129000Y-62000
X129000Y-63000
X129000Y-64000
X129000Y-65000
X129000Y-66000
X129000Y-67000
X129000Y-68000
X129000Y-69000
X129000Y-70000
X129000Y-71000
X129000Y-72000
X129000Y-73000
X129000Y-74000
X129000Y-75000
X129000Y-76000
X129000Y-77000
X129000Y-78000
X129000Y-79000
X129000Y-80000
X129000Y-81000
X129000Y-82000
X129000Y-83000
X129000Y-84000
X129000Y-85000
X129000Y-86000
X129000Y-87000
T2
X95000Y-68000
X95000Y-69000
X95000Y-70000
X95000Y-71000
X95000Y-72000
X95000Y-73000
X95000Y-74000
X95000Y-75000
X95000Y-76000
X95000Y-77000
X95000Y-78000
X95000Y-79000
X95000Y-80000
X95000Y-81000
X95000Y-82000
X96000Y-67000
X96000Y-83000
X97000Y-67000
X97000Y-84000
X97000Y-85000
X98000Y-67000
X99000Y-67000
X100000Y-68000
X100000Y-69000
X100000Y-70000
X100000Y-71000
X100000Y-72000
X100000Y-73000
X100000Y-74000
X100000Y-75000
X100000Y-76000
X100000Y-77000
X100000Y-78000
X100000Y-79000
X100000Y-80000
X101000Y-81000
X102000Y-82000
X102000Y-83000
X102000Y-84000
X102000Y-85000
X102000Y-86000
X102500Y-49000
X102500Y-51000
X102500Y-53000
X102500Y-55000
X102500Y-57000
X104500Y-49000
X106500Y-49000
X108500Y-49000
X110500Y-49000
X111500Y-51000
X111500Y-53000
X111500Y-55000
X111500Y-57000
T3
X97475Y-50475
X97475Y-69525
X107000Y-69525
X116525Y-50475
X116525Y-69525
X117000Y-83000
X117000Y-83000
X117000Y-85460
X117000Y-88080
X117000Y-88100
X119540Y-85540
T4
X114460Y-85620
X117000Y-78000
X117000Y-90700
T5
X125250Y-67960
X125250Y-70500
T6
X97460Y-87460
X97460Y-92540
X100000Y-90000
X102540Y-87460
X102540Y-92540
T7
X84000Y-49000
X84000Y-91000
X126000Y-49000
X126000Y-91000
T0
M30
