G04 #@! TF.FileFunction,Soldermask,Bot*
%FSLAX46Y46*%
G04 Gerber Fmt 4.6, Leading zero omitted, Abs format (unit mm)*
G04 Created by KiCad (PCBNEW 4.0.7) date 12/31/17 15:11:22*
%MOMM*%
%LPD*%
G01*
G04 APERTURE LIST*
%ADD10C,0.100000*%
%ADD11R,2.000000X2.400000*%
%ADD12R,1.650000X1.900000*%
%ADD13R,2.900000X4.150000*%
%ADD14R,3.000000X2.400000*%
%ADD15O,3.000000X2.400000*%
%ADD16C,5.900000*%
%ADD17C,2.398980*%
%ADD18C,2.899360*%
%ADD19R,1.900000X4.400000*%
%ADD20C,2.900000*%
%ADD21R,1.700000X1.900000*%
%ADD22C,2.200000*%
%ADD23R,2.400000X3.900000*%
%ADD24R,7.400000X7.400000*%
%ADD25R,0.908000X1.543000*%
%ADD26C,1.840000*%
%ADD27R,2.700000X3.900000*%
%ADD28C,0.254000*%
G04 APERTURE END LIST*
D10*
D11*
X114000000Y-61000000D03*
X114000000Y-57000000D03*
D12*
X91000000Y-61250000D03*
X91000000Y-58750000D03*
D11*
X94000000Y-61000000D03*
X94000000Y-57000000D03*
D12*
X114000000Y-69250000D03*
X114000000Y-66750000D03*
D13*
X100000000Y-61125000D03*
X100000000Y-54875000D03*
D14*
X125250000Y-70500000D03*
D15*
X125250000Y-67960000D03*
D16*
X126000000Y-49000000D03*
D17*
X100000000Y-90000000D03*
D18*
X102540000Y-87460000D03*
X102540000Y-92540000D03*
X97460000Y-92540000D03*
X97460000Y-87460000D03*
D16*
X84000000Y-49000000D03*
X126000000Y-91000000D03*
X84000000Y-91000000D03*
D19*
X102540000Y-93000000D03*
X97460000Y-93000000D03*
D20*
X97475000Y-50475000D03*
X116525000Y-50475000D03*
X116525000Y-69525000D03*
X97475000Y-69525000D03*
X107000000Y-69525000D03*
D21*
X114000000Y-79350000D03*
X114000000Y-76650000D03*
X114500000Y-90850000D03*
X114500000Y-88150000D03*
D22*
X117000000Y-78000000D03*
X114460000Y-85620000D03*
X117000000Y-90700000D03*
D23*
X109290000Y-60700000D03*
X104710000Y-60700000D03*
D24*
X106990000Y-53300000D03*
D25*
X105095000Y-82175000D03*
X106365000Y-82175000D03*
X107635000Y-82175000D03*
X108905000Y-82175000D03*
X108905000Y-75825000D03*
X107635000Y-75825000D03*
X106365000Y-75825000D03*
X105095000Y-75825000D03*
D26*
X117000000Y-83000000D03*
X119540000Y-85540000D03*
X117000000Y-88080000D03*
X117000000Y-88100000D03*
X117000000Y-85460000D03*
X117000000Y-83000000D03*
D27*
X120000000Y-60700000D03*
X120000000Y-55300000D03*
D28*
G36*
X129873000Y-94873000D02*
X80127000Y-94873000D01*
X80127000Y-47500000D01*
X82373000Y-47500000D01*
X82373000Y-92500000D01*
X82383006Y-92549410D01*
X82411447Y-92591035D01*
X82453841Y-92618315D01*
X82500000Y-92627000D01*
X127500000Y-92627000D01*
X127549410Y-92616994D01*
X127591035Y-92588553D01*
X127618315Y-92546159D01*
X127627000Y-92500000D01*
X127627000Y-47500000D01*
X127616994Y-47450590D01*
X127588553Y-47408965D01*
X127546159Y-47381685D01*
X127500000Y-47373000D01*
X82500000Y-47373000D01*
X82450590Y-47383006D01*
X82408965Y-47411447D01*
X82381685Y-47453841D01*
X82373000Y-47500000D01*
X80127000Y-47500000D01*
X80127000Y-45127000D01*
X129873000Y-45127000D01*
X129873000Y-94873000D01*
X129873000Y-94873000D01*
G37*
X129873000Y-94873000D02*
X80127000Y-94873000D01*
X80127000Y-47500000D01*
X82373000Y-47500000D01*
X82373000Y-92500000D01*
X82383006Y-92549410D01*
X82411447Y-92591035D01*
X82453841Y-92618315D01*
X82500000Y-92627000D01*
X127500000Y-92627000D01*
X127549410Y-92616994D01*
X127591035Y-92588553D01*
X127618315Y-92546159D01*
X127627000Y-92500000D01*
X127627000Y-47500000D01*
X127616994Y-47450590D01*
X127588553Y-47408965D01*
X127546159Y-47381685D01*
X127500000Y-47373000D01*
X82500000Y-47373000D01*
X82450590Y-47383006D01*
X82408965Y-47411447D01*
X82381685Y-47453841D01*
X82373000Y-47500000D01*
X80127000Y-47500000D01*
X80127000Y-45127000D01*
X129873000Y-45127000D01*
X129873000Y-94873000D01*
M02*
