G04 #@! TF.GenerationSoftware,KiCad,Pcbnew,8.0.4*
G04 #@! TF.CreationDate,2025-01-27T10:30:07+01:00*
G04 #@! TF.ProjectId,ocxo,6f63786f-2e6b-4696-9361-645f70636258,rev?*
G04 #@! TF.SameCoordinates,Original*
G04 #@! TF.FileFunction,Soldermask,Bot*
G04 #@! TF.FilePolarity,Negative*
%FSLAX46Y46*%
G04 Gerber Fmt 4.6, Leading zero omitted, Abs format (unit mm)*
G04 Created by KiCad (PCBNEW 8.0.4) date 2025-01-27 10:30:07*
%MOMM*%
%LPD*%
G01*
G04 APERTURE LIST*
G04 #@! TA.AperFunction,Profile*
%ADD10C,0.150000*%
G04 #@! TD*
G04 APERTURE END LIST*
G36*
X115166043Y-89903191D02*
G01*
X115198727Y-89907494D01*
X115206948Y-89911327D01*
X115226537Y-89915224D01*
X115252480Y-89932559D01*
X115263608Y-89937748D01*
X115270378Y-89944518D01*
X115291421Y-89958579D01*
X115305481Y-89979621D01*
X115312251Y-89986391D01*
X115317438Y-89997516D01*
X115334776Y-90023463D01*
X115338672Y-90043053D01*
X115342505Y-90051272D01*
X115346806Y-90083945D01*
X115350000Y-90100000D01*
X115350000Y-91600000D01*
X115346805Y-91616058D01*
X115342505Y-91648727D01*
X115338673Y-91656944D01*
X115334776Y-91676537D01*
X115317437Y-91702485D01*
X115312251Y-91713608D01*
X115305483Y-91720375D01*
X115291421Y-91741421D01*
X115270375Y-91755483D01*
X115263608Y-91762251D01*
X115252485Y-91767437D01*
X115226537Y-91784776D01*
X115206944Y-91788673D01*
X115198727Y-91792505D01*
X115166056Y-91796806D01*
X115150000Y-91800000D01*
X113850000Y-91800000D01*
X113833943Y-91796806D01*
X113801272Y-91792505D01*
X113793053Y-91788672D01*
X113773463Y-91784776D01*
X113747516Y-91767438D01*
X113736391Y-91762251D01*
X113729621Y-91755481D01*
X113708579Y-91741421D01*
X113694518Y-91720378D01*
X113687748Y-91713608D01*
X113682559Y-91702480D01*
X113665224Y-91676537D01*
X113661327Y-91656948D01*
X113657494Y-91648727D01*
X113653190Y-91616041D01*
X113650000Y-91600000D01*
X113650000Y-90100000D01*
X113653190Y-90083958D01*
X113657494Y-90051272D01*
X113661327Y-90043049D01*
X113665224Y-90023463D01*
X113682557Y-89997521D01*
X113687748Y-89986391D01*
X113694520Y-89979618D01*
X113708579Y-89958579D01*
X113729618Y-89944520D01*
X113736391Y-89937748D01*
X113747521Y-89932557D01*
X113773463Y-89915224D01*
X113793049Y-89911327D01*
X113801272Y-89907494D01*
X113833960Y-89903190D01*
X113850000Y-89900000D01*
X115150000Y-89900000D01*
X115166043Y-89903191D01*
G37*
G36*
X117048180Y-89604692D02*
G01*
X117101495Y-89604692D01*
X117148393Y-89613459D01*
X117190927Y-89617180D01*
X117243138Y-89631170D01*
X117301029Y-89641992D01*
X117340293Y-89657203D01*
X117376061Y-89666787D01*
X117430201Y-89692033D01*
X117490312Y-89715320D01*
X117521341Y-89734532D01*
X117549761Y-89747785D01*
X117603375Y-89785326D01*
X117662898Y-89822181D01*
X117685711Y-89842978D01*
X117706755Y-89857713D01*
X117757093Y-89908051D01*
X117812910Y-89958935D01*
X117828125Y-89979083D01*
X117842286Y-89993244D01*
X117886454Y-90056323D01*
X117935239Y-90120925D01*
X117943980Y-90138479D01*
X117952214Y-90150239D01*
X117987282Y-90225442D01*
X118025719Y-90302634D01*
X118029539Y-90316063D01*
X118033212Y-90323938D01*
X118056357Y-90410319D01*
X118081270Y-90497876D01*
X118082037Y-90506153D01*
X118082819Y-90509072D01*
X118091453Y-90607769D01*
X118100000Y-90700000D01*
X118091452Y-90792238D01*
X118082819Y-90890927D01*
X118082037Y-90893844D01*
X118081270Y-90902124D01*
X118056353Y-90989697D01*
X118033212Y-91076061D01*
X118029540Y-91083934D01*
X118025719Y-91097366D01*
X117987278Y-91174564D01*
X117952214Y-91249761D01*
X117943980Y-91261519D01*
X117935239Y-91279075D01*
X117886448Y-91343683D01*
X117842286Y-91406755D01*
X117828128Y-91420912D01*
X117812910Y-91441065D01*
X117757082Y-91491958D01*
X117706755Y-91542286D01*
X117685716Y-91557017D01*
X117662898Y-91577819D01*
X117603363Y-91614681D01*
X117549761Y-91652214D01*
X117521348Y-91665463D01*
X117490312Y-91684680D01*
X117430189Y-91707971D01*
X117376061Y-91733212D01*
X117340301Y-91742793D01*
X117301029Y-91758008D01*
X117243126Y-91768832D01*
X117190927Y-91782819D01*
X117148403Y-91786539D01*
X117101495Y-91795308D01*
X117048169Y-91795308D01*
X117000000Y-91799522D01*
X116951831Y-91795308D01*
X116898505Y-91795308D01*
X116851596Y-91786539D01*
X116809072Y-91782819D01*
X116756870Y-91768831D01*
X116698971Y-91758008D01*
X116659700Y-91742794D01*
X116623938Y-91733212D01*
X116569804Y-91707969D01*
X116509688Y-91684680D01*
X116478654Y-91665465D01*
X116450238Y-91652214D01*
X116396628Y-91614676D01*
X116337102Y-91577819D01*
X116314287Y-91557020D01*
X116293244Y-91542286D01*
X116242906Y-91491948D01*
X116187090Y-91441065D01*
X116171874Y-91420916D01*
X116157713Y-91406755D01*
X116113537Y-91343665D01*
X116064761Y-91279075D01*
X116056022Y-91261524D01*
X116047785Y-91249761D01*
X116012705Y-91174532D01*
X115974281Y-91097366D01*
X115970460Y-91083939D01*
X115966787Y-91076061D01*
X115943629Y-90989636D01*
X115918730Y-90902124D01*
X115917963Y-90893850D01*
X115917180Y-90890927D01*
X115908529Y-90792046D01*
X115900000Y-90700000D01*
X115908528Y-90607962D01*
X115917180Y-90509072D01*
X115917963Y-90506148D01*
X115918730Y-90497876D01*
X115943624Y-90410379D01*
X115966787Y-90323938D01*
X115970461Y-90316057D01*
X115974281Y-90302634D01*
X116012702Y-90225473D01*
X116047785Y-90150239D01*
X116056022Y-90138474D01*
X116064761Y-90120925D01*
X116113531Y-90056342D01*
X116157713Y-89993244D01*
X116171877Y-89979079D01*
X116187090Y-89958935D01*
X116242894Y-89908062D01*
X116293244Y-89857713D01*
X116314291Y-89842975D01*
X116337102Y-89822181D01*
X116396621Y-89785327D01*
X116450239Y-89747785D01*
X116478658Y-89734532D01*
X116509688Y-89715320D01*
X116569794Y-89692034D01*
X116623938Y-89666787D01*
X116659708Y-89657202D01*
X116698971Y-89641992D01*
X116756857Y-89631170D01*
X116809072Y-89617180D01*
X116851607Y-89613458D01*
X116898505Y-89604692D01*
X116951819Y-89604692D01*
X117000000Y-89600477D01*
X117048180Y-89604692D01*
G37*
G36*
X100053037Y-88805627D02*
G01*
X100110675Y-88805627D01*
X100161381Y-88815105D01*
X100208203Y-88819202D01*
X100265676Y-88834601D01*
X100328256Y-88846300D01*
X100370697Y-88862741D01*
X100410090Y-88873297D01*
X100469725Y-88901105D01*
X100534659Y-88926261D01*
X100568177Y-88947014D01*
X100599503Y-88961622D01*
X100658590Y-89002996D01*
X100722854Y-89042786D01*
X100747488Y-89065243D01*
X100770708Y-89081502D01*
X100826249Y-89137043D01*
X100886434Y-89191909D01*
X100902839Y-89213633D01*
X100918499Y-89229293D01*
X100967345Y-89299053D01*
X101019827Y-89368550D01*
X101029229Y-89387433D01*
X101038375Y-89400494D01*
X101077326Y-89484025D01*
X101118491Y-89566694D01*
X101122582Y-89581075D01*
X101126702Y-89589909D01*
X101152658Y-89686781D01*
X101179066Y-89779594D01*
X101179879Y-89788371D01*
X101180797Y-89791796D01*
X101190937Y-89907704D01*
X101199490Y-90000000D01*
X101190936Y-90092302D01*
X101180797Y-90208203D01*
X101179879Y-90211627D01*
X101179066Y-90220406D01*
X101152654Y-90313234D01*
X101126702Y-90410090D01*
X101122583Y-90418921D01*
X101118491Y-90433306D01*
X101077328Y-90515970D01*
X101038377Y-90599503D01*
X101029230Y-90612565D01*
X101019827Y-90631450D01*
X100967334Y-90700960D01*
X100918497Y-90770708D01*
X100902842Y-90786362D01*
X100886434Y-90808091D01*
X100826238Y-90862966D01*
X100770708Y-90918497D01*
X100747493Y-90934752D01*
X100722854Y-90957214D01*
X100658578Y-90997011D01*
X100599503Y-91038377D01*
X100568183Y-91052981D01*
X100534659Y-91073739D01*
X100469713Y-91098899D01*
X100410090Y-91126702D01*
X100370705Y-91137254D01*
X100328256Y-91153700D01*
X100265664Y-91165400D01*
X100208203Y-91180797D01*
X100161391Y-91184892D01*
X100110675Y-91194373D01*
X100053025Y-91194373D01*
X100000000Y-91199012D01*
X99946975Y-91194373D01*
X99889325Y-91194373D01*
X99838608Y-91184892D01*
X99791796Y-91180797D01*
X99734332Y-91165399D01*
X99671744Y-91153700D01*
X99629296Y-91137255D01*
X99589909Y-91126702D01*
X99530280Y-91098896D01*
X99465341Y-91073739D01*
X99431819Y-91052983D01*
X99400496Y-91038377D01*
X99341412Y-90997006D01*
X99277146Y-90957214D01*
X99252509Y-90934755D01*
X99229291Y-90918497D01*
X99173750Y-90862956D01*
X99113566Y-90808091D01*
X99097160Y-90786366D01*
X99081502Y-90770708D01*
X99032651Y-90700942D01*
X98980173Y-90631450D01*
X98970772Y-90612570D01*
X98961622Y-90599503D01*
X98922655Y-90515938D01*
X98881509Y-90433306D01*
X98877417Y-90418927D01*
X98873297Y-90410090D01*
X98847328Y-90313174D01*
X98820934Y-90220406D01*
X98820121Y-90211632D01*
X98819202Y-90208203D01*
X98809045Y-90092109D01*
X98800510Y-90000000D01*
X98809044Y-89907898D01*
X98819202Y-89791796D01*
X98820121Y-89788365D01*
X98820934Y-89779594D01*
X98847324Y-89686841D01*
X98873297Y-89589909D01*
X98877418Y-89581070D01*
X98881509Y-89566694D01*
X98922657Y-89484056D01*
X98961624Y-89400494D01*
X98970772Y-89387428D01*
X98980173Y-89368550D01*
X99032640Y-89299072D01*
X99081500Y-89229293D01*
X99097163Y-89213629D01*
X99113566Y-89191909D01*
X99173738Y-89137054D01*
X99229293Y-89081500D01*
X99252516Y-89065238D01*
X99277146Y-89042786D01*
X99341402Y-89002999D01*
X99400494Y-88961624D01*
X99431820Y-88947016D01*
X99465341Y-88926261D01*
X99530272Y-88901106D01*
X99589909Y-88873297D01*
X99629305Y-88862740D01*
X99671744Y-88846300D01*
X99734320Y-88834602D01*
X99791796Y-88819202D01*
X99838618Y-88815105D01*
X99889325Y-88805627D01*
X99946963Y-88805627D01*
X100000000Y-88800987D01*
X100053037Y-88805627D01*
G37*
G36*
X115166043Y-87203191D02*
G01*
X115198727Y-87207494D01*
X115206948Y-87211327D01*
X115226537Y-87215224D01*
X115252480Y-87232559D01*
X115263608Y-87237748D01*
X115270378Y-87244518D01*
X115291421Y-87258579D01*
X115305481Y-87279621D01*
X115312251Y-87286391D01*
X115317438Y-87297516D01*
X115334776Y-87323463D01*
X115338672Y-87343053D01*
X115342505Y-87351272D01*
X115346806Y-87383945D01*
X115350000Y-87400000D01*
X115350000Y-88900000D01*
X115346805Y-88916058D01*
X115342505Y-88948727D01*
X115338673Y-88956944D01*
X115334776Y-88976537D01*
X115317437Y-89002485D01*
X115312251Y-89013608D01*
X115305483Y-89020375D01*
X115291421Y-89041421D01*
X115270375Y-89055483D01*
X115263608Y-89062251D01*
X115252485Y-89067437D01*
X115226537Y-89084776D01*
X115206944Y-89088673D01*
X115198727Y-89092505D01*
X115166056Y-89096806D01*
X115150000Y-89100000D01*
X113850000Y-89100000D01*
X113833943Y-89096806D01*
X113801272Y-89092505D01*
X113793053Y-89088672D01*
X113773463Y-89084776D01*
X113747516Y-89067438D01*
X113736391Y-89062251D01*
X113729621Y-89055481D01*
X113708579Y-89041421D01*
X113694518Y-89020378D01*
X113687748Y-89013608D01*
X113682559Y-89002480D01*
X113665224Y-88976537D01*
X113661327Y-88956948D01*
X113657494Y-88948727D01*
X113653190Y-88916041D01*
X113650000Y-88900000D01*
X113650000Y-87400000D01*
X113653190Y-87383958D01*
X113657494Y-87351272D01*
X113661327Y-87343049D01*
X113665224Y-87323463D01*
X113682557Y-87297521D01*
X113687748Y-87286391D01*
X113694520Y-87279618D01*
X113708579Y-87258579D01*
X113729618Y-87244520D01*
X113736391Y-87237748D01*
X113747521Y-87232557D01*
X113773463Y-87215224D01*
X113793049Y-87211327D01*
X113801272Y-87207494D01*
X113833960Y-87203190D01*
X113850000Y-87200000D01*
X115150000Y-87200000D01*
X115166043Y-87203191D01*
G37*
G36*
X117045041Y-87165040D02*
G01*
X117096166Y-87165040D01*
X117140309Y-87174422D01*
X117179361Y-87178269D01*
X117228421Y-87193151D01*
X117284296Y-87205028D01*
X117320052Y-87220947D01*
X117351841Y-87230591D01*
X117402360Y-87257593D01*
X117460000Y-87283257D01*
X117486796Y-87302726D01*
X117510787Y-87315549D01*
X117559723Y-87355710D01*
X117615600Y-87396307D01*
X117633743Y-87416457D01*
X117650110Y-87429889D01*
X117694092Y-87483481D01*
X117744296Y-87539238D01*
X117754842Y-87557505D01*
X117764450Y-87569212D01*
X117799987Y-87635697D01*
X117840462Y-87705802D01*
X117845118Y-87720132D01*
X117849408Y-87728158D01*
X117873065Y-87806145D01*
X117899896Y-87888721D01*
X117900840Y-87897704D01*
X117901730Y-87900638D01*
X117910389Y-87988556D01*
X117920000Y-88080000D01*
X117919015Y-88089371D01*
X117919015Y-88090628D01*
X117920000Y-88100000D01*
X117910386Y-88191465D01*
X117901730Y-88279361D01*
X117900840Y-88282293D01*
X117899896Y-88291279D01*
X117873061Y-88373868D01*
X117849408Y-88451841D01*
X117845119Y-88459865D01*
X117840462Y-88474198D01*
X117799980Y-88544314D01*
X117764450Y-88610787D01*
X117754844Y-88622490D01*
X117744296Y-88640762D01*
X117694082Y-88696529D01*
X117650110Y-88750110D01*
X117633746Y-88763539D01*
X117615600Y-88783693D01*
X117559712Y-88824297D01*
X117510787Y-88864450D01*
X117486802Y-88877270D01*
X117460000Y-88896743D01*
X117402348Y-88922411D01*
X117351841Y-88949408D01*
X117320059Y-88959048D01*
X117284296Y-88974972D01*
X117228410Y-88986850D01*
X117179361Y-89001730D01*
X117140317Y-89005575D01*
X117096166Y-89014960D01*
X117045031Y-89014960D01*
X117000000Y-89019395D01*
X116954969Y-89014960D01*
X116903834Y-89014960D01*
X116859682Y-89005575D01*
X116820638Y-89001730D01*
X116771585Y-88986849D01*
X116715704Y-88974972D01*
X116679942Y-88959049D01*
X116648158Y-88949408D01*
X116597645Y-88922408D01*
X116540000Y-88896743D01*
X116513200Y-88877272D01*
X116489212Y-88864450D01*
X116440278Y-88824290D01*
X116384400Y-88783693D01*
X116366256Y-88763542D01*
X116349889Y-88750110D01*
X116305905Y-88696516D01*
X116255704Y-88640762D01*
X116245157Y-88622494D01*
X116235549Y-88610787D01*
X116200006Y-88544291D01*
X116159538Y-88474198D01*
X116154882Y-88459869D01*
X116150591Y-88451841D01*
X116126923Y-88373821D01*
X116100104Y-88291279D01*
X116099160Y-88282298D01*
X116098269Y-88279361D01*
X116089602Y-88191358D01*
X116080000Y-88100000D01*
X116080984Y-88090637D01*
X116080984Y-88089362D01*
X116080000Y-88080000D01*
X116089600Y-87988656D01*
X116098269Y-87900638D01*
X116099160Y-87897699D01*
X116100104Y-87888721D01*
X116126919Y-87806192D01*
X116150591Y-87728158D01*
X116154883Y-87720127D01*
X116159538Y-87705802D01*
X116199999Y-87635721D01*
X116235549Y-87569212D01*
X116245159Y-87557501D01*
X116255704Y-87539238D01*
X116305896Y-87483493D01*
X116349889Y-87429889D01*
X116366259Y-87416454D01*
X116384400Y-87396307D01*
X116440267Y-87355716D01*
X116489212Y-87315549D01*
X116513205Y-87302724D01*
X116540000Y-87283257D01*
X116597633Y-87257596D01*
X116648158Y-87230591D01*
X116679949Y-87220946D01*
X116715704Y-87205028D01*
X116771574Y-87193152D01*
X116820638Y-87178269D01*
X116859691Y-87174422D01*
X116903834Y-87165040D01*
X116954959Y-87165040D01*
X117000000Y-87160604D01*
X117045041Y-87165040D01*
G37*
G36*
X97518002Y-86015271D02*
G01*
X97579714Y-86015271D01*
X97634800Y-86024463D01*
X97686723Y-86028550D01*
X97749262Y-86043564D01*
X97815875Y-86054680D01*
X97863113Y-86070896D01*
X97907854Y-86081638D01*
X97972975Y-86108612D01*
X98042330Y-86132422D01*
X98081073Y-86153388D01*
X98117965Y-86168670D01*
X98183348Y-86208736D01*
X98252900Y-86246376D01*
X98282995Y-86269800D01*
X98311874Y-86287497D01*
X98374985Y-86341399D01*
X98441842Y-86393436D01*
X98463650Y-86417126D01*
X98484805Y-86435194D01*
X98542899Y-86503214D01*
X98604001Y-86569588D01*
X98618362Y-86591569D01*
X98632502Y-86608125D01*
X98682743Y-86690111D01*
X98734956Y-86770029D01*
X98743115Y-86788630D01*
X98751329Y-86802034D01*
X98790929Y-86897636D01*
X98831132Y-86989290D01*
X98834652Y-87003191D01*
X98838361Y-87012145D01*
X98864655Y-87121670D01*
X98889908Y-87221391D01*
X98890599Y-87229738D01*
X98891449Y-87233276D01*
X98901971Y-87366970D01*
X98909680Y-87460000D01*
X98901970Y-87553037D01*
X98891449Y-87686723D01*
X98890599Y-87690260D01*
X98889908Y-87698609D01*
X98864650Y-87798347D01*
X98838361Y-87907854D01*
X98834653Y-87916805D01*
X98831132Y-87930710D01*
X98790922Y-88022380D01*
X98751329Y-88117965D01*
X98743116Y-88131366D01*
X98734956Y-88149971D01*
X98682733Y-88229903D01*
X98632502Y-88311874D01*
X98618365Y-88328426D01*
X98604001Y-88350412D01*
X98542887Y-88416798D01*
X98484805Y-88484805D01*
X98463654Y-88502869D01*
X98441842Y-88526564D01*
X98374972Y-88578610D01*
X98311874Y-88632502D01*
X98283001Y-88650195D01*
X98252900Y-88673624D01*
X98183334Y-88711270D01*
X98117965Y-88751329D01*
X98081081Y-88766606D01*
X98042330Y-88787578D01*
X97972961Y-88811392D01*
X97907854Y-88838361D01*
X97863122Y-88849099D01*
X97815875Y-88865320D01*
X97749248Y-88876438D01*
X97686723Y-88891449D01*
X97634812Y-88895534D01*
X97579714Y-88904729D01*
X97517989Y-88904729D01*
X97460000Y-88909293D01*
X97402010Y-88904729D01*
X97340286Y-88904729D01*
X97285188Y-88895534D01*
X97233276Y-88891449D01*
X97170748Y-88876437D01*
X97104125Y-88865320D01*
X97056879Y-88849100D01*
X97012145Y-88838361D01*
X96947032Y-88811390D01*
X96877670Y-88787578D01*
X96838921Y-88766608D01*
X96802034Y-88751329D01*
X96736656Y-88711265D01*
X96667100Y-88673624D01*
X96637002Y-88650197D01*
X96608125Y-88632502D01*
X96545016Y-88578602D01*
X96478158Y-88526564D01*
X96456349Y-88502873D01*
X96435194Y-88484805D01*
X96377098Y-88416783D01*
X96315999Y-88350412D01*
X96301638Y-88328431D01*
X96287497Y-88311874D01*
X96237250Y-88229879D01*
X96185044Y-88149971D01*
X96176885Y-88131372D01*
X96168670Y-88117965D01*
X96129059Y-88022339D01*
X96088868Y-87930710D01*
X96085348Y-87916811D01*
X96081638Y-87907854D01*
X96055330Y-87798271D01*
X96030092Y-87698609D01*
X96029400Y-87690266D01*
X96028550Y-87686723D01*
X96018009Y-87552796D01*
X96010320Y-87460000D01*
X96018008Y-87367210D01*
X96028550Y-87233276D01*
X96029400Y-87229731D01*
X96030092Y-87221391D01*
X96055325Y-87121746D01*
X96081638Y-87012145D01*
X96085349Y-87003185D01*
X96088868Y-86989290D01*
X96129052Y-86897677D01*
X96168670Y-86802034D01*
X96176887Y-86788624D01*
X96185044Y-86770029D01*
X96237240Y-86690136D01*
X96287497Y-86608125D01*
X96301640Y-86591564D01*
X96315999Y-86569588D01*
X96377086Y-86503229D01*
X96435194Y-86435194D01*
X96456353Y-86417122D01*
X96478158Y-86393436D01*
X96545003Y-86341408D01*
X96608125Y-86287497D01*
X96637008Y-86269797D01*
X96667100Y-86246376D01*
X96736642Y-86208741D01*
X96802034Y-86168670D01*
X96838929Y-86153387D01*
X96877670Y-86132422D01*
X96947018Y-86108614D01*
X97012145Y-86081638D01*
X97056889Y-86070896D01*
X97104125Y-86054680D01*
X97170734Y-86043564D01*
X97233276Y-86028550D01*
X97285199Y-86024463D01*
X97340286Y-86015271D01*
X97401998Y-86015271D01*
X97460000Y-86010706D01*
X97518002Y-86015271D01*
G37*
G36*
X102598002Y-86015271D02*
G01*
X102659714Y-86015271D01*
X102714800Y-86024463D01*
X102766723Y-86028550D01*
X102829262Y-86043564D01*
X102895875Y-86054680D01*
X102943113Y-86070896D01*
X102987854Y-86081638D01*
X103052975Y-86108612D01*
X103122330Y-86132422D01*
X103161073Y-86153388D01*
X103197965Y-86168670D01*
X103263348Y-86208736D01*
X103332900Y-86246376D01*
X103362995Y-86269800D01*
X103391874Y-86287497D01*
X103454985Y-86341399D01*
X103521842Y-86393436D01*
X103543650Y-86417126D01*
X103564805Y-86435194D01*
X103622899Y-86503214D01*
X103684001Y-86569588D01*
X103698362Y-86591569D01*
X103712502Y-86608125D01*
X103762743Y-86690111D01*
X103814956Y-86770029D01*
X103823115Y-86788630D01*
X103831329Y-86802034D01*
X103870929Y-86897636D01*
X103911132Y-86989290D01*
X103914652Y-87003191D01*
X103918361Y-87012145D01*
X103944655Y-87121670D01*
X103969908Y-87221391D01*
X103970599Y-87229738D01*
X103971449Y-87233276D01*
X103981971Y-87366970D01*
X103989680Y-87460000D01*
X103981970Y-87553037D01*
X103971449Y-87686723D01*
X103970599Y-87690260D01*
X103969908Y-87698609D01*
X103944650Y-87798347D01*
X103918361Y-87907854D01*
X103914653Y-87916805D01*
X103911132Y-87930710D01*
X103870922Y-88022380D01*
X103831329Y-88117965D01*
X103823116Y-88131366D01*
X103814956Y-88149971D01*
X103762733Y-88229903D01*
X103712502Y-88311874D01*
X103698365Y-88328426D01*
X103684001Y-88350412D01*
X103622887Y-88416798D01*
X103564805Y-88484805D01*
X103543654Y-88502869D01*
X103521842Y-88526564D01*
X103454972Y-88578610D01*
X103391874Y-88632502D01*
X103363001Y-88650195D01*
X103332900Y-88673624D01*
X103263334Y-88711270D01*
X103197965Y-88751329D01*
X103161081Y-88766606D01*
X103122330Y-88787578D01*
X103052961Y-88811392D01*
X102987854Y-88838361D01*
X102943122Y-88849099D01*
X102895875Y-88865320D01*
X102829248Y-88876438D01*
X102766723Y-88891449D01*
X102714812Y-88895534D01*
X102659714Y-88904729D01*
X102597989Y-88904729D01*
X102540000Y-88909293D01*
X102482010Y-88904729D01*
X102420286Y-88904729D01*
X102365188Y-88895534D01*
X102313276Y-88891449D01*
X102250748Y-88876437D01*
X102184125Y-88865320D01*
X102136879Y-88849100D01*
X102092145Y-88838361D01*
X102027032Y-88811390D01*
X101957670Y-88787578D01*
X101918921Y-88766608D01*
X101882034Y-88751329D01*
X101816656Y-88711265D01*
X101747100Y-88673624D01*
X101717002Y-88650197D01*
X101688125Y-88632502D01*
X101625016Y-88578602D01*
X101558158Y-88526564D01*
X101536349Y-88502873D01*
X101515194Y-88484805D01*
X101457098Y-88416783D01*
X101395999Y-88350412D01*
X101381638Y-88328431D01*
X101367497Y-88311874D01*
X101317250Y-88229879D01*
X101265044Y-88149971D01*
X101256885Y-88131372D01*
X101248670Y-88117965D01*
X101209059Y-88022339D01*
X101168868Y-87930710D01*
X101165348Y-87916811D01*
X101161638Y-87907854D01*
X101135330Y-87798271D01*
X101110092Y-87698609D01*
X101109400Y-87690266D01*
X101108550Y-87686723D01*
X101098009Y-87552796D01*
X101090320Y-87460000D01*
X101098008Y-87367210D01*
X101108550Y-87233276D01*
X101109400Y-87229731D01*
X101110092Y-87221391D01*
X101135325Y-87121746D01*
X101161638Y-87012145D01*
X101165349Y-87003185D01*
X101168868Y-86989290D01*
X101209052Y-86897677D01*
X101248670Y-86802034D01*
X101256887Y-86788624D01*
X101265044Y-86770029D01*
X101317240Y-86690136D01*
X101367497Y-86608125D01*
X101381640Y-86591564D01*
X101395999Y-86569588D01*
X101457086Y-86503229D01*
X101515194Y-86435194D01*
X101536353Y-86417122D01*
X101558158Y-86393436D01*
X101625003Y-86341408D01*
X101688125Y-86287497D01*
X101717008Y-86269797D01*
X101747100Y-86246376D01*
X101816642Y-86208741D01*
X101882034Y-86168670D01*
X101918929Y-86153387D01*
X101957670Y-86132422D01*
X102027018Y-86108614D01*
X102092145Y-86081638D01*
X102136889Y-86070896D01*
X102184125Y-86054680D01*
X102250734Y-86043564D01*
X102313276Y-86028550D01*
X102365199Y-86024463D01*
X102420286Y-86015271D01*
X102481998Y-86015271D01*
X102540000Y-86010706D01*
X102598002Y-86015271D01*
G37*
G36*
X114508180Y-84524692D02*
G01*
X114561495Y-84524692D01*
X114608393Y-84533459D01*
X114650927Y-84537180D01*
X114703138Y-84551170D01*
X114761029Y-84561992D01*
X114800293Y-84577203D01*
X114836061Y-84586787D01*
X114890201Y-84612033D01*
X114950312Y-84635320D01*
X114981341Y-84654532D01*
X115009761Y-84667785D01*
X115063375Y-84705326D01*
X115122898Y-84742181D01*
X115145711Y-84762978D01*
X115166755Y-84777713D01*
X115217093Y-84828051D01*
X115272910Y-84878935D01*
X115288125Y-84899083D01*
X115302286Y-84913244D01*
X115346454Y-84976323D01*
X115395239Y-85040925D01*
X115403980Y-85058479D01*
X115412214Y-85070239D01*
X115447282Y-85145442D01*
X115485719Y-85222634D01*
X115489539Y-85236063D01*
X115493212Y-85243938D01*
X115516357Y-85330319D01*
X115541270Y-85417876D01*
X115542037Y-85426153D01*
X115542819Y-85429072D01*
X115551453Y-85527769D01*
X115560000Y-85620000D01*
X115551452Y-85712238D01*
X115542819Y-85810927D01*
X115542037Y-85813844D01*
X115541270Y-85822124D01*
X115516353Y-85909697D01*
X115493212Y-85996061D01*
X115489540Y-86003934D01*
X115485719Y-86017366D01*
X115447278Y-86094564D01*
X115412214Y-86169761D01*
X115403980Y-86181519D01*
X115395239Y-86199075D01*
X115346448Y-86263683D01*
X115302286Y-86326755D01*
X115288128Y-86340912D01*
X115272910Y-86361065D01*
X115217082Y-86411958D01*
X115166755Y-86462286D01*
X115145716Y-86477017D01*
X115122898Y-86497819D01*
X115063363Y-86534681D01*
X115009761Y-86572214D01*
X114981348Y-86585463D01*
X114950312Y-86604680D01*
X114890189Y-86627971D01*
X114836061Y-86653212D01*
X114800301Y-86662793D01*
X114761029Y-86678008D01*
X114703126Y-86688832D01*
X114650927Y-86702819D01*
X114608403Y-86706539D01*
X114561495Y-86715308D01*
X114508169Y-86715308D01*
X114460000Y-86719522D01*
X114411831Y-86715308D01*
X114358505Y-86715308D01*
X114311596Y-86706539D01*
X114269072Y-86702819D01*
X114216870Y-86688831D01*
X114158971Y-86678008D01*
X114119700Y-86662794D01*
X114083938Y-86653212D01*
X114029804Y-86627969D01*
X113969688Y-86604680D01*
X113938654Y-86585465D01*
X113910238Y-86572214D01*
X113856628Y-86534676D01*
X113797102Y-86497819D01*
X113774287Y-86477020D01*
X113753244Y-86462286D01*
X113702906Y-86411948D01*
X113647090Y-86361065D01*
X113631874Y-86340916D01*
X113617713Y-86326755D01*
X113573537Y-86263665D01*
X113524761Y-86199075D01*
X113516022Y-86181524D01*
X113507785Y-86169761D01*
X113472705Y-86094532D01*
X113434281Y-86017366D01*
X113430460Y-86003939D01*
X113426787Y-85996061D01*
X113403629Y-85909636D01*
X113378730Y-85822124D01*
X113377963Y-85813850D01*
X113377180Y-85810927D01*
X113368529Y-85712046D01*
X113360000Y-85620000D01*
X113368528Y-85527962D01*
X113377180Y-85429072D01*
X113377963Y-85426148D01*
X113378730Y-85417876D01*
X113403624Y-85330379D01*
X113426787Y-85243938D01*
X113430461Y-85236057D01*
X113434281Y-85222634D01*
X113472702Y-85145473D01*
X113507785Y-85070239D01*
X113516022Y-85058474D01*
X113524761Y-85040925D01*
X113573531Y-84976342D01*
X113617713Y-84913244D01*
X113631877Y-84899079D01*
X113647090Y-84878935D01*
X113702894Y-84828062D01*
X113753244Y-84777713D01*
X113774291Y-84762975D01*
X113797102Y-84742181D01*
X113856621Y-84705327D01*
X113910239Y-84667785D01*
X113938658Y-84654532D01*
X113969688Y-84635320D01*
X114029794Y-84612034D01*
X114083938Y-84586787D01*
X114119708Y-84577202D01*
X114158971Y-84561992D01*
X114216857Y-84551170D01*
X114269072Y-84537180D01*
X114311607Y-84533458D01*
X114358505Y-84524692D01*
X114411819Y-84524692D01*
X114460000Y-84520477D01*
X114508180Y-84524692D01*
G37*
G36*
X119585041Y-84625040D02*
G01*
X119636166Y-84625040D01*
X119680309Y-84634422D01*
X119719361Y-84638269D01*
X119768421Y-84653151D01*
X119824296Y-84665028D01*
X119860052Y-84680947D01*
X119891841Y-84690591D01*
X119942360Y-84717593D01*
X120000000Y-84743257D01*
X120026796Y-84762726D01*
X120050787Y-84775549D01*
X120099723Y-84815710D01*
X120155600Y-84856307D01*
X120173743Y-84876457D01*
X120190110Y-84889889D01*
X120234092Y-84943481D01*
X120284296Y-84999238D01*
X120294842Y-85017505D01*
X120304450Y-85029212D01*
X120339987Y-85095697D01*
X120380462Y-85165802D01*
X120385118Y-85180132D01*
X120389408Y-85188158D01*
X120413065Y-85266145D01*
X120439896Y-85348721D01*
X120440840Y-85357704D01*
X120441730Y-85360638D01*
X120450387Y-85448541D01*
X120460000Y-85540000D01*
X120450386Y-85631465D01*
X120441730Y-85719361D01*
X120440840Y-85722293D01*
X120439896Y-85731279D01*
X120413061Y-85813868D01*
X120389408Y-85891841D01*
X120385119Y-85899865D01*
X120380462Y-85914198D01*
X120339980Y-85984314D01*
X120304450Y-86050787D01*
X120294844Y-86062490D01*
X120284296Y-86080762D01*
X120234082Y-86136529D01*
X120190110Y-86190110D01*
X120173746Y-86203539D01*
X120155600Y-86223693D01*
X120099712Y-86264297D01*
X120050787Y-86304450D01*
X120026802Y-86317270D01*
X120000000Y-86336743D01*
X119942348Y-86362411D01*
X119891841Y-86389408D01*
X119860059Y-86399048D01*
X119824296Y-86414972D01*
X119768410Y-86426850D01*
X119719361Y-86441730D01*
X119680317Y-86445575D01*
X119636166Y-86454960D01*
X119585031Y-86454960D01*
X119540000Y-86459395D01*
X119494969Y-86454960D01*
X119443834Y-86454960D01*
X119399682Y-86445575D01*
X119360638Y-86441730D01*
X119311585Y-86426849D01*
X119255704Y-86414972D01*
X119219942Y-86399049D01*
X119188158Y-86389408D01*
X119137645Y-86362408D01*
X119080000Y-86336743D01*
X119053200Y-86317272D01*
X119029212Y-86304450D01*
X118980278Y-86264290D01*
X118924400Y-86223693D01*
X118906256Y-86203542D01*
X118889889Y-86190110D01*
X118845905Y-86136516D01*
X118795704Y-86080762D01*
X118785157Y-86062494D01*
X118775549Y-86050787D01*
X118740006Y-85984291D01*
X118699538Y-85914198D01*
X118694882Y-85899869D01*
X118690591Y-85891841D01*
X118666923Y-85813821D01*
X118640104Y-85731279D01*
X118639160Y-85722298D01*
X118638269Y-85719361D01*
X118629597Y-85631314D01*
X118620000Y-85540000D01*
X118629596Y-85448692D01*
X118638269Y-85360638D01*
X118639160Y-85357699D01*
X118640104Y-85348721D01*
X118666919Y-85266192D01*
X118690591Y-85188158D01*
X118694883Y-85180127D01*
X118699538Y-85165802D01*
X118739999Y-85095721D01*
X118775549Y-85029212D01*
X118785159Y-85017501D01*
X118795704Y-84999238D01*
X118845896Y-84943493D01*
X118889889Y-84889889D01*
X118906259Y-84876454D01*
X118924400Y-84856307D01*
X118980267Y-84815716D01*
X119029212Y-84775549D01*
X119053205Y-84762724D01*
X119080000Y-84743257D01*
X119137633Y-84717596D01*
X119188158Y-84690591D01*
X119219949Y-84680946D01*
X119255704Y-84665028D01*
X119311574Y-84653152D01*
X119360638Y-84638269D01*
X119399691Y-84634422D01*
X119443834Y-84625040D01*
X119494959Y-84625040D01*
X119540000Y-84620604D01*
X119585041Y-84625040D01*
G37*
G36*
X117045041Y-84545040D02*
G01*
X117096166Y-84545040D01*
X117140309Y-84554422D01*
X117179361Y-84558269D01*
X117228421Y-84573151D01*
X117284296Y-84585028D01*
X117320052Y-84600947D01*
X117351841Y-84610591D01*
X117402360Y-84637593D01*
X117460000Y-84663257D01*
X117486796Y-84682726D01*
X117510787Y-84695549D01*
X117559723Y-84735710D01*
X117615600Y-84776307D01*
X117633743Y-84796457D01*
X117650110Y-84809889D01*
X117694092Y-84863481D01*
X117744296Y-84919238D01*
X117754842Y-84937505D01*
X117764450Y-84949212D01*
X117799987Y-85015697D01*
X117840462Y-85085802D01*
X117845118Y-85100132D01*
X117849408Y-85108158D01*
X117873065Y-85186145D01*
X117899896Y-85268721D01*
X117900840Y-85277704D01*
X117901730Y-85280638D01*
X117910387Y-85368541D01*
X117920000Y-85460000D01*
X117910386Y-85551465D01*
X117901730Y-85639361D01*
X117900840Y-85642293D01*
X117899896Y-85651279D01*
X117873061Y-85733868D01*
X117849408Y-85811841D01*
X117845119Y-85819865D01*
X117840462Y-85834198D01*
X117799980Y-85904314D01*
X117764450Y-85970787D01*
X117754844Y-85982490D01*
X117744296Y-86000762D01*
X117694082Y-86056529D01*
X117650110Y-86110110D01*
X117633746Y-86123539D01*
X117615600Y-86143693D01*
X117559712Y-86184297D01*
X117510787Y-86224450D01*
X117486802Y-86237270D01*
X117460000Y-86256743D01*
X117402348Y-86282411D01*
X117351841Y-86309408D01*
X117320059Y-86319048D01*
X117284296Y-86334972D01*
X117228410Y-86346850D01*
X117179361Y-86361730D01*
X117140317Y-86365575D01*
X117096166Y-86374960D01*
X117045031Y-86374960D01*
X117000000Y-86379395D01*
X116954969Y-86374960D01*
X116903834Y-86374960D01*
X116859682Y-86365575D01*
X116820638Y-86361730D01*
X116771585Y-86346849D01*
X116715704Y-86334972D01*
X116679942Y-86319049D01*
X116648158Y-86309408D01*
X116597645Y-86282408D01*
X116540000Y-86256743D01*
X116513200Y-86237272D01*
X116489212Y-86224450D01*
X116440278Y-86184290D01*
X116384400Y-86143693D01*
X116366256Y-86123542D01*
X116349889Y-86110110D01*
X116305905Y-86056516D01*
X116255704Y-86000762D01*
X116245157Y-85982494D01*
X116235549Y-85970787D01*
X116200006Y-85904291D01*
X116159538Y-85834198D01*
X116154882Y-85819869D01*
X116150591Y-85811841D01*
X116126923Y-85733821D01*
X116100104Y-85651279D01*
X116099160Y-85642298D01*
X116098269Y-85639361D01*
X116089597Y-85551314D01*
X116080000Y-85460000D01*
X116089596Y-85368692D01*
X116098269Y-85280638D01*
X116099160Y-85277699D01*
X116100104Y-85268721D01*
X116126919Y-85186192D01*
X116150591Y-85108158D01*
X116154883Y-85100127D01*
X116159538Y-85085802D01*
X116199999Y-85015721D01*
X116235549Y-84949212D01*
X116245159Y-84937501D01*
X116255704Y-84919238D01*
X116305896Y-84863493D01*
X116349889Y-84809889D01*
X116366259Y-84796454D01*
X116384400Y-84776307D01*
X116440267Y-84735716D01*
X116489212Y-84695549D01*
X116513205Y-84682724D01*
X116540000Y-84663257D01*
X116597633Y-84637596D01*
X116648158Y-84610591D01*
X116679949Y-84600946D01*
X116715704Y-84585028D01*
X116771574Y-84573152D01*
X116820638Y-84558269D01*
X116859691Y-84554422D01*
X116903834Y-84545040D01*
X116954959Y-84545040D01*
X117000000Y-84540604D01*
X117045041Y-84545040D01*
G37*
G36*
X117045041Y-82085040D02*
G01*
X117096166Y-82085040D01*
X117140309Y-82094422D01*
X117179361Y-82098269D01*
X117228421Y-82113151D01*
X117284296Y-82125028D01*
X117320052Y-82140947D01*
X117351841Y-82150591D01*
X117402360Y-82177593D01*
X117460000Y-82203257D01*
X117486796Y-82222726D01*
X117510787Y-82235549D01*
X117559723Y-82275710D01*
X117615600Y-82316307D01*
X117633743Y-82336457D01*
X117650110Y-82349889D01*
X117694092Y-82403481D01*
X117744296Y-82459238D01*
X117754842Y-82477505D01*
X117764450Y-82489212D01*
X117799987Y-82555697D01*
X117840462Y-82625802D01*
X117845118Y-82640132D01*
X117849408Y-82648158D01*
X117873065Y-82726145D01*
X117899896Y-82808721D01*
X117900840Y-82817704D01*
X117901730Y-82820638D01*
X117910387Y-82908541D01*
X117920000Y-83000000D01*
X117910386Y-83091465D01*
X117901730Y-83179361D01*
X117900840Y-83182293D01*
X117899896Y-83191279D01*
X117873061Y-83273868D01*
X117849408Y-83351841D01*
X117845119Y-83359865D01*
X117840462Y-83374198D01*
X117799980Y-83444314D01*
X117764450Y-83510787D01*
X117754844Y-83522490D01*
X117744296Y-83540762D01*
X117694082Y-83596529D01*
X117650110Y-83650110D01*
X117633746Y-83663539D01*
X117615600Y-83683693D01*
X117559712Y-83724297D01*
X117510787Y-83764450D01*
X117486802Y-83777270D01*
X117460000Y-83796743D01*
X117402348Y-83822411D01*
X117351841Y-83849408D01*
X117320059Y-83859048D01*
X117284296Y-83874972D01*
X117228410Y-83886850D01*
X117179361Y-83901730D01*
X117140317Y-83905575D01*
X117096166Y-83914960D01*
X117045031Y-83914960D01*
X117000000Y-83919395D01*
X116954969Y-83914960D01*
X116903834Y-83914960D01*
X116859682Y-83905575D01*
X116820638Y-83901730D01*
X116771585Y-83886849D01*
X116715704Y-83874972D01*
X116679942Y-83859049D01*
X116648158Y-83849408D01*
X116597645Y-83822408D01*
X116540000Y-83796743D01*
X116513200Y-83777272D01*
X116489212Y-83764450D01*
X116440278Y-83724290D01*
X116384400Y-83683693D01*
X116366256Y-83663542D01*
X116349889Y-83650110D01*
X116305905Y-83596516D01*
X116255704Y-83540762D01*
X116245157Y-83522494D01*
X116235549Y-83510787D01*
X116200006Y-83444291D01*
X116159538Y-83374198D01*
X116154882Y-83359869D01*
X116150591Y-83351841D01*
X116126923Y-83273821D01*
X116100104Y-83191279D01*
X116099160Y-83182298D01*
X116098269Y-83179361D01*
X116089597Y-83091314D01*
X116080000Y-83000000D01*
X116089596Y-82908692D01*
X116098269Y-82820638D01*
X116099160Y-82817699D01*
X116100104Y-82808721D01*
X116126919Y-82726192D01*
X116150591Y-82648158D01*
X116154883Y-82640127D01*
X116159538Y-82625802D01*
X116199999Y-82555721D01*
X116235549Y-82489212D01*
X116245159Y-82477501D01*
X116255704Y-82459238D01*
X116305896Y-82403493D01*
X116349889Y-82349889D01*
X116366259Y-82336454D01*
X116384400Y-82316307D01*
X116440267Y-82275716D01*
X116489212Y-82235549D01*
X116513205Y-82222724D01*
X116540000Y-82203257D01*
X116597633Y-82177596D01*
X116648158Y-82150591D01*
X116679949Y-82140946D01*
X116715704Y-82125028D01*
X116771574Y-82113152D01*
X116820638Y-82098269D01*
X116859691Y-82094422D01*
X116903834Y-82085040D01*
X116954959Y-82085040D01*
X117000000Y-82080604D01*
X117045041Y-82085040D01*
G37*
G36*
X105365042Y-81406691D02*
G01*
X105397727Y-81410994D01*
X105405948Y-81414827D01*
X105425537Y-81418724D01*
X105451480Y-81436059D01*
X105462608Y-81441248D01*
X105469378Y-81448018D01*
X105490421Y-81462079D01*
X105504481Y-81483121D01*
X105511251Y-81489891D01*
X105516438Y-81501016D01*
X105533776Y-81526963D01*
X105537672Y-81546553D01*
X105541505Y-81554772D01*
X105545806Y-81587445D01*
X105549000Y-81603500D01*
X105549000Y-82746500D01*
X105545805Y-82762558D01*
X105541505Y-82795227D01*
X105537673Y-82803444D01*
X105533776Y-82823037D01*
X105516437Y-82848985D01*
X105511251Y-82860108D01*
X105504483Y-82866875D01*
X105490421Y-82887921D01*
X105469375Y-82901983D01*
X105462608Y-82908751D01*
X105451485Y-82913937D01*
X105425537Y-82931276D01*
X105405944Y-82935173D01*
X105397727Y-82939005D01*
X105365056Y-82943306D01*
X105349000Y-82946500D01*
X104841000Y-82946500D01*
X104824944Y-82943306D01*
X104792272Y-82939005D01*
X104784053Y-82935172D01*
X104764463Y-82931276D01*
X104738516Y-82913938D01*
X104727391Y-82908751D01*
X104720621Y-82901981D01*
X104699579Y-82887921D01*
X104685518Y-82866878D01*
X104678748Y-82860108D01*
X104673559Y-82848980D01*
X104656224Y-82823037D01*
X104652327Y-82803448D01*
X104648494Y-82795227D01*
X104644190Y-82762541D01*
X104641000Y-82746500D01*
X104641000Y-81603500D01*
X104644190Y-81587458D01*
X104648494Y-81554772D01*
X104652327Y-81546549D01*
X104656224Y-81526963D01*
X104673557Y-81501021D01*
X104678748Y-81489891D01*
X104685520Y-81483118D01*
X104699579Y-81462079D01*
X104720618Y-81448020D01*
X104727391Y-81441248D01*
X104738521Y-81436057D01*
X104764463Y-81418724D01*
X104784049Y-81414827D01*
X104792272Y-81410994D01*
X104824960Y-81406690D01*
X104841000Y-81403500D01*
X105349000Y-81403500D01*
X105365042Y-81406691D01*
G37*
G36*
X106635042Y-81406691D02*
G01*
X106667727Y-81410994D01*
X106675948Y-81414827D01*
X106695537Y-81418724D01*
X106721480Y-81436059D01*
X106732608Y-81441248D01*
X106739378Y-81448018D01*
X106760421Y-81462079D01*
X106774481Y-81483121D01*
X106781251Y-81489891D01*
X106786438Y-81501016D01*
X106803776Y-81526963D01*
X106807672Y-81546553D01*
X106811505Y-81554772D01*
X106815806Y-81587445D01*
X106819000Y-81603500D01*
X106819000Y-82746500D01*
X106815805Y-82762558D01*
X106811505Y-82795227D01*
X106807673Y-82803444D01*
X106803776Y-82823037D01*
X106786437Y-82848985D01*
X106781251Y-82860108D01*
X106774483Y-82866875D01*
X106760421Y-82887921D01*
X106739375Y-82901983D01*
X106732608Y-82908751D01*
X106721485Y-82913937D01*
X106695537Y-82931276D01*
X106675944Y-82935173D01*
X106667727Y-82939005D01*
X106635056Y-82943306D01*
X106619000Y-82946500D01*
X106111000Y-82946500D01*
X106094944Y-82943306D01*
X106062272Y-82939005D01*
X106054053Y-82935172D01*
X106034463Y-82931276D01*
X106008516Y-82913938D01*
X105997391Y-82908751D01*
X105990621Y-82901981D01*
X105969579Y-82887921D01*
X105955518Y-82866878D01*
X105948748Y-82860108D01*
X105943559Y-82848980D01*
X105926224Y-82823037D01*
X105922327Y-82803448D01*
X105918494Y-82795227D01*
X105914190Y-82762541D01*
X105911000Y-82746500D01*
X105911000Y-81603500D01*
X105914190Y-81587458D01*
X105918494Y-81554772D01*
X105922327Y-81546549D01*
X105926224Y-81526963D01*
X105943557Y-81501021D01*
X105948748Y-81489891D01*
X105955520Y-81483118D01*
X105969579Y-81462079D01*
X105990618Y-81448020D01*
X105997391Y-81441248D01*
X106008521Y-81436057D01*
X106034463Y-81418724D01*
X106054049Y-81414827D01*
X106062272Y-81410994D01*
X106094960Y-81406690D01*
X106111000Y-81403500D01*
X106619000Y-81403500D01*
X106635042Y-81406691D01*
G37*
G36*
X107905042Y-81406691D02*
G01*
X107937727Y-81410994D01*
X107945948Y-81414827D01*
X107965537Y-81418724D01*
X107991480Y-81436059D01*
X108002608Y-81441248D01*
X108009378Y-81448018D01*
X108030421Y-81462079D01*
X108044481Y-81483121D01*
X108051251Y-81489891D01*
X108056438Y-81501016D01*
X108073776Y-81526963D01*
X108077672Y-81546553D01*
X108081505Y-81554772D01*
X108085806Y-81587445D01*
X108089000Y-81603500D01*
X108089000Y-82746500D01*
X108085805Y-82762558D01*
X108081505Y-82795227D01*
X108077673Y-82803444D01*
X108073776Y-82823037D01*
X108056437Y-82848985D01*
X108051251Y-82860108D01*
X108044483Y-82866875D01*
X108030421Y-82887921D01*
X108009375Y-82901983D01*
X108002608Y-82908751D01*
X107991485Y-82913937D01*
X107965537Y-82931276D01*
X107945944Y-82935173D01*
X107937727Y-82939005D01*
X107905056Y-82943306D01*
X107889000Y-82946500D01*
X107381000Y-82946500D01*
X107364944Y-82943306D01*
X107332272Y-82939005D01*
X107324053Y-82935172D01*
X107304463Y-82931276D01*
X107278516Y-82913938D01*
X107267391Y-82908751D01*
X107260621Y-82901981D01*
X107239579Y-82887921D01*
X107225518Y-82866878D01*
X107218748Y-82860108D01*
X107213559Y-82848980D01*
X107196224Y-82823037D01*
X107192327Y-82803448D01*
X107188494Y-82795227D01*
X107184190Y-82762541D01*
X107181000Y-82746500D01*
X107181000Y-81603500D01*
X107184190Y-81587458D01*
X107188494Y-81554772D01*
X107192327Y-81546549D01*
X107196224Y-81526963D01*
X107213557Y-81501021D01*
X107218748Y-81489891D01*
X107225520Y-81483118D01*
X107239579Y-81462079D01*
X107260618Y-81448020D01*
X107267391Y-81441248D01*
X107278521Y-81436057D01*
X107304463Y-81418724D01*
X107324049Y-81414827D01*
X107332272Y-81410994D01*
X107364960Y-81406690D01*
X107381000Y-81403500D01*
X107889000Y-81403500D01*
X107905042Y-81406691D01*
G37*
G36*
X109175042Y-81406691D02*
G01*
X109207727Y-81410994D01*
X109215948Y-81414827D01*
X109235537Y-81418724D01*
X109261480Y-81436059D01*
X109272608Y-81441248D01*
X109279378Y-81448018D01*
X109300421Y-81462079D01*
X109314481Y-81483121D01*
X109321251Y-81489891D01*
X109326438Y-81501016D01*
X109343776Y-81526963D01*
X109347672Y-81546553D01*
X109351505Y-81554772D01*
X109355806Y-81587445D01*
X109359000Y-81603500D01*
X109359000Y-82746500D01*
X109355805Y-82762558D01*
X109351505Y-82795227D01*
X109347673Y-82803444D01*
X109343776Y-82823037D01*
X109326437Y-82848985D01*
X109321251Y-82860108D01*
X109314483Y-82866875D01*
X109300421Y-82887921D01*
X109279375Y-82901983D01*
X109272608Y-82908751D01*
X109261485Y-82913937D01*
X109235537Y-82931276D01*
X109215944Y-82935173D01*
X109207727Y-82939005D01*
X109175056Y-82943306D01*
X109159000Y-82946500D01*
X108651000Y-82946500D01*
X108634944Y-82943306D01*
X108602272Y-82939005D01*
X108594053Y-82935172D01*
X108574463Y-82931276D01*
X108548516Y-82913938D01*
X108537391Y-82908751D01*
X108530621Y-82901981D01*
X108509579Y-82887921D01*
X108495518Y-82866878D01*
X108488748Y-82860108D01*
X108483559Y-82848980D01*
X108466224Y-82823037D01*
X108462327Y-82803448D01*
X108458494Y-82795227D01*
X108454190Y-82762541D01*
X108451000Y-82746500D01*
X108451000Y-81603500D01*
X108454190Y-81587458D01*
X108458494Y-81554772D01*
X108462327Y-81546549D01*
X108466224Y-81526963D01*
X108483557Y-81501021D01*
X108488748Y-81489891D01*
X108495520Y-81483118D01*
X108509579Y-81462079D01*
X108530618Y-81448020D01*
X108537391Y-81441248D01*
X108548521Y-81436057D01*
X108574463Y-81418724D01*
X108594049Y-81414827D01*
X108602272Y-81410994D01*
X108634960Y-81406690D01*
X108651000Y-81403500D01*
X109159000Y-81403500D01*
X109175042Y-81406691D01*
G37*
G36*
X114666043Y-78403191D02*
G01*
X114698727Y-78407494D01*
X114706948Y-78411327D01*
X114726537Y-78415224D01*
X114752480Y-78432559D01*
X114763608Y-78437748D01*
X114770378Y-78444518D01*
X114791421Y-78458579D01*
X114805481Y-78479621D01*
X114812251Y-78486391D01*
X114817438Y-78497516D01*
X114834776Y-78523463D01*
X114838672Y-78543053D01*
X114842505Y-78551272D01*
X114846806Y-78583945D01*
X114850000Y-78600000D01*
X114850000Y-80100000D01*
X114846805Y-80116058D01*
X114842505Y-80148727D01*
X114838673Y-80156944D01*
X114834776Y-80176537D01*
X114817437Y-80202485D01*
X114812251Y-80213608D01*
X114805483Y-80220375D01*
X114791421Y-80241421D01*
X114770375Y-80255483D01*
X114763608Y-80262251D01*
X114752485Y-80267437D01*
X114726537Y-80284776D01*
X114706944Y-80288673D01*
X114698727Y-80292505D01*
X114666056Y-80296806D01*
X114650000Y-80300000D01*
X113350000Y-80300000D01*
X113333943Y-80296806D01*
X113301272Y-80292505D01*
X113293053Y-80288672D01*
X113273463Y-80284776D01*
X113247516Y-80267438D01*
X113236391Y-80262251D01*
X113229621Y-80255481D01*
X113208579Y-80241421D01*
X113194518Y-80220378D01*
X113187748Y-80213608D01*
X113182559Y-80202480D01*
X113165224Y-80176537D01*
X113161327Y-80156948D01*
X113157494Y-80148727D01*
X113153190Y-80116041D01*
X113150000Y-80100000D01*
X113150000Y-78600000D01*
X113153190Y-78583958D01*
X113157494Y-78551272D01*
X113161327Y-78543049D01*
X113165224Y-78523463D01*
X113182557Y-78497521D01*
X113187748Y-78486391D01*
X113194520Y-78479618D01*
X113208579Y-78458579D01*
X113229618Y-78444520D01*
X113236391Y-78437748D01*
X113247521Y-78432557D01*
X113273463Y-78415224D01*
X113293049Y-78411327D01*
X113301272Y-78407494D01*
X113333960Y-78403190D01*
X113350000Y-78400000D01*
X114650000Y-78400000D01*
X114666043Y-78403191D01*
G37*
G36*
X117048180Y-76904692D02*
G01*
X117101495Y-76904692D01*
X117148393Y-76913459D01*
X117190927Y-76917180D01*
X117243138Y-76931170D01*
X117301029Y-76941992D01*
X117340293Y-76957203D01*
X117376061Y-76966787D01*
X117430201Y-76992033D01*
X117490312Y-77015320D01*
X117521341Y-77034532D01*
X117549761Y-77047785D01*
X117603375Y-77085326D01*
X117662898Y-77122181D01*
X117685711Y-77142978D01*
X117706755Y-77157713D01*
X117757093Y-77208051D01*
X117812910Y-77258935D01*
X117828125Y-77279083D01*
X117842286Y-77293244D01*
X117886454Y-77356323D01*
X117935239Y-77420925D01*
X117943980Y-77438479D01*
X117952214Y-77450239D01*
X117987282Y-77525442D01*
X118025719Y-77602634D01*
X118029539Y-77616063D01*
X118033212Y-77623938D01*
X118056357Y-77710319D01*
X118081270Y-77797876D01*
X118082037Y-77806153D01*
X118082819Y-77809072D01*
X118091453Y-77907769D01*
X118100000Y-78000000D01*
X118091452Y-78092238D01*
X118082819Y-78190927D01*
X118082037Y-78193844D01*
X118081270Y-78202124D01*
X118056353Y-78289697D01*
X118033212Y-78376061D01*
X118029540Y-78383934D01*
X118025719Y-78397366D01*
X117987278Y-78474564D01*
X117952214Y-78549761D01*
X117943980Y-78561519D01*
X117935239Y-78579075D01*
X117886448Y-78643683D01*
X117842286Y-78706755D01*
X117828128Y-78720912D01*
X117812910Y-78741065D01*
X117757082Y-78791958D01*
X117706755Y-78842286D01*
X117685716Y-78857017D01*
X117662898Y-78877819D01*
X117603363Y-78914681D01*
X117549761Y-78952214D01*
X117521348Y-78965463D01*
X117490312Y-78984680D01*
X117430189Y-79007971D01*
X117376061Y-79033212D01*
X117340301Y-79042793D01*
X117301029Y-79058008D01*
X117243126Y-79068832D01*
X117190927Y-79082819D01*
X117148403Y-79086539D01*
X117101495Y-79095308D01*
X117048169Y-79095308D01*
X117000000Y-79099522D01*
X116951831Y-79095308D01*
X116898505Y-79095308D01*
X116851596Y-79086539D01*
X116809072Y-79082819D01*
X116756870Y-79068831D01*
X116698971Y-79058008D01*
X116659700Y-79042794D01*
X116623938Y-79033212D01*
X116569804Y-79007969D01*
X116509688Y-78984680D01*
X116478654Y-78965465D01*
X116450238Y-78952214D01*
X116396628Y-78914676D01*
X116337102Y-78877819D01*
X116314287Y-78857020D01*
X116293244Y-78842286D01*
X116242906Y-78791948D01*
X116187090Y-78741065D01*
X116171874Y-78720916D01*
X116157713Y-78706755D01*
X116113537Y-78643665D01*
X116064761Y-78579075D01*
X116056022Y-78561524D01*
X116047785Y-78549761D01*
X116012705Y-78474532D01*
X115974281Y-78397366D01*
X115970460Y-78383939D01*
X115966787Y-78376061D01*
X115943629Y-78289636D01*
X115918730Y-78202124D01*
X115917963Y-78193850D01*
X115917180Y-78190927D01*
X115908529Y-78092046D01*
X115900000Y-78000000D01*
X115908528Y-77907962D01*
X115917180Y-77809072D01*
X115917963Y-77806148D01*
X115918730Y-77797876D01*
X115943624Y-77710379D01*
X115966787Y-77623938D01*
X115970461Y-77616057D01*
X115974281Y-77602634D01*
X116012702Y-77525473D01*
X116047785Y-77450239D01*
X116056022Y-77438474D01*
X116064761Y-77420925D01*
X116113531Y-77356342D01*
X116157713Y-77293244D01*
X116171877Y-77279079D01*
X116187090Y-77258935D01*
X116242894Y-77208062D01*
X116293244Y-77157713D01*
X116314291Y-77142975D01*
X116337102Y-77122181D01*
X116396621Y-77085327D01*
X116450239Y-77047785D01*
X116478658Y-77034532D01*
X116509688Y-77015320D01*
X116569794Y-76992034D01*
X116623938Y-76966787D01*
X116659708Y-76957202D01*
X116698971Y-76941992D01*
X116756857Y-76931170D01*
X116809072Y-76917180D01*
X116851607Y-76913458D01*
X116898505Y-76904692D01*
X116951819Y-76904692D01*
X117000000Y-76900477D01*
X117048180Y-76904692D01*
G37*
G36*
X114666043Y-75703191D02*
G01*
X114698727Y-75707494D01*
X114706948Y-75711327D01*
X114726537Y-75715224D01*
X114752480Y-75732559D01*
X114763608Y-75737748D01*
X114770378Y-75744518D01*
X114791421Y-75758579D01*
X114805481Y-75779621D01*
X114812251Y-75786391D01*
X114817438Y-75797516D01*
X114834776Y-75823463D01*
X114838672Y-75843053D01*
X114842505Y-75851272D01*
X114846806Y-75883945D01*
X114850000Y-75900000D01*
X114850000Y-77400000D01*
X114846805Y-77416058D01*
X114842505Y-77448727D01*
X114838673Y-77456944D01*
X114834776Y-77476537D01*
X114817437Y-77502485D01*
X114812251Y-77513608D01*
X114805483Y-77520375D01*
X114791421Y-77541421D01*
X114770375Y-77555483D01*
X114763608Y-77562251D01*
X114752485Y-77567437D01*
X114726537Y-77584776D01*
X114706944Y-77588673D01*
X114698727Y-77592505D01*
X114666056Y-77596806D01*
X114650000Y-77600000D01*
X113350000Y-77600000D01*
X113333943Y-77596806D01*
X113301272Y-77592505D01*
X113293053Y-77588672D01*
X113273463Y-77584776D01*
X113247516Y-77567438D01*
X113236391Y-77562251D01*
X113229621Y-77555481D01*
X113208579Y-77541421D01*
X113194518Y-77520378D01*
X113187748Y-77513608D01*
X113182559Y-77502480D01*
X113165224Y-77476537D01*
X113161327Y-77456948D01*
X113157494Y-77448727D01*
X113153190Y-77416041D01*
X113150000Y-77400000D01*
X113150000Y-75900000D01*
X113153190Y-75883958D01*
X113157494Y-75851272D01*
X113161327Y-75843049D01*
X113165224Y-75823463D01*
X113182557Y-75797521D01*
X113187748Y-75786391D01*
X113194520Y-75779618D01*
X113208579Y-75758579D01*
X113229618Y-75744520D01*
X113236391Y-75737748D01*
X113247521Y-75732557D01*
X113273463Y-75715224D01*
X113293049Y-75711327D01*
X113301272Y-75707494D01*
X113333960Y-75703190D01*
X113350000Y-75700000D01*
X114650000Y-75700000D01*
X114666043Y-75703191D01*
G37*
G36*
X105365042Y-75056691D02*
G01*
X105397727Y-75060994D01*
X105405948Y-75064827D01*
X105425537Y-75068724D01*
X105451480Y-75086059D01*
X105462608Y-75091248D01*
X105469378Y-75098018D01*
X105490421Y-75112079D01*
X105504481Y-75133121D01*
X105511251Y-75139891D01*
X105516438Y-75151016D01*
X105533776Y-75176963D01*
X105537672Y-75196553D01*
X105541505Y-75204772D01*
X105545806Y-75237445D01*
X105549000Y-75253500D01*
X105549000Y-76396500D01*
X105545805Y-76412558D01*
X105541505Y-76445227D01*
X105537673Y-76453444D01*
X105533776Y-76473037D01*
X105516437Y-76498985D01*
X105511251Y-76510108D01*
X105504483Y-76516875D01*
X105490421Y-76537921D01*
X105469375Y-76551983D01*
X105462608Y-76558751D01*
X105451485Y-76563937D01*
X105425537Y-76581276D01*
X105405944Y-76585173D01*
X105397727Y-76589005D01*
X105365056Y-76593306D01*
X105349000Y-76596500D01*
X104841000Y-76596500D01*
X104824944Y-76593306D01*
X104792272Y-76589005D01*
X104784053Y-76585172D01*
X104764463Y-76581276D01*
X104738516Y-76563938D01*
X104727391Y-76558751D01*
X104720621Y-76551981D01*
X104699579Y-76537921D01*
X104685518Y-76516878D01*
X104678748Y-76510108D01*
X104673559Y-76498980D01*
X104656224Y-76473037D01*
X104652327Y-76453448D01*
X104648494Y-76445227D01*
X104644190Y-76412541D01*
X104641000Y-76396500D01*
X104641000Y-75253500D01*
X104644190Y-75237458D01*
X104648494Y-75204772D01*
X104652327Y-75196549D01*
X104656224Y-75176963D01*
X104673557Y-75151021D01*
X104678748Y-75139891D01*
X104685520Y-75133118D01*
X104699579Y-75112079D01*
X104720618Y-75098020D01*
X104727391Y-75091248D01*
X104738521Y-75086057D01*
X104764463Y-75068724D01*
X104784049Y-75064827D01*
X104792272Y-75060994D01*
X104824960Y-75056690D01*
X104841000Y-75053500D01*
X105349000Y-75053500D01*
X105365042Y-75056691D01*
G37*
G36*
X106635042Y-75056691D02*
G01*
X106667727Y-75060994D01*
X106675948Y-75064827D01*
X106695537Y-75068724D01*
X106721480Y-75086059D01*
X106732608Y-75091248D01*
X106739378Y-75098018D01*
X106760421Y-75112079D01*
X106774481Y-75133121D01*
X106781251Y-75139891D01*
X106786438Y-75151016D01*
X106803776Y-75176963D01*
X106807672Y-75196553D01*
X106811505Y-75204772D01*
X106815806Y-75237445D01*
X106819000Y-75253500D01*
X106819000Y-76396500D01*
X106815805Y-76412558D01*
X106811505Y-76445227D01*
X106807673Y-76453444D01*
X106803776Y-76473037D01*
X106786437Y-76498985D01*
X106781251Y-76510108D01*
X106774483Y-76516875D01*
X106760421Y-76537921D01*
X106739375Y-76551983D01*
X106732608Y-76558751D01*
X106721485Y-76563937D01*
X106695537Y-76581276D01*
X106675944Y-76585173D01*
X106667727Y-76589005D01*
X106635056Y-76593306D01*
X106619000Y-76596500D01*
X106111000Y-76596500D01*
X106094944Y-76593306D01*
X106062272Y-76589005D01*
X106054053Y-76585172D01*
X106034463Y-76581276D01*
X106008516Y-76563938D01*
X105997391Y-76558751D01*
X105990621Y-76551981D01*
X105969579Y-76537921D01*
X105955518Y-76516878D01*
X105948748Y-76510108D01*
X105943559Y-76498980D01*
X105926224Y-76473037D01*
X105922327Y-76453448D01*
X105918494Y-76445227D01*
X105914190Y-76412541D01*
X105911000Y-76396500D01*
X105911000Y-75253500D01*
X105914190Y-75237458D01*
X105918494Y-75204772D01*
X105922327Y-75196549D01*
X105926224Y-75176963D01*
X105943557Y-75151021D01*
X105948748Y-75139891D01*
X105955520Y-75133118D01*
X105969579Y-75112079D01*
X105990618Y-75098020D01*
X105997391Y-75091248D01*
X106008521Y-75086057D01*
X106034463Y-75068724D01*
X106054049Y-75064827D01*
X106062272Y-75060994D01*
X106094960Y-75056690D01*
X106111000Y-75053500D01*
X106619000Y-75053500D01*
X106635042Y-75056691D01*
G37*
G36*
X107905042Y-75056691D02*
G01*
X107937727Y-75060994D01*
X107945948Y-75064827D01*
X107965537Y-75068724D01*
X107991480Y-75086059D01*
X108002608Y-75091248D01*
X108009378Y-75098018D01*
X108030421Y-75112079D01*
X108044481Y-75133121D01*
X108051251Y-75139891D01*
X108056438Y-75151016D01*
X108073776Y-75176963D01*
X108077672Y-75196553D01*
X108081505Y-75204772D01*
X108085806Y-75237445D01*
X108089000Y-75253500D01*
X108089000Y-76396500D01*
X108085805Y-76412558D01*
X108081505Y-76445227D01*
X108077673Y-76453444D01*
X108073776Y-76473037D01*
X108056437Y-76498985D01*
X108051251Y-76510108D01*
X108044483Y-76516875D01*
X108030421Y-76537921D01*
X108009375Y-76551983D01*
X108002608Y-76558751D01*
X107991485Y-76563937D01*
X107965537Y-76581276D01*
X107945944Y-76585173D01*
X107937727Y-76589005D01*
X107905056Y-76593306D01*
X107889000Y-76596500D01*
X107381000Y-76596500D01*
X107364944Y-76593306D01*
X107332272Y-76589005D01*
X107324053Y-76585172D01*
X107304463Y-76581276D01*
X107278516Y-76563938D01*
X107267391Y-76558751D01*
X107260621Y-76551981D01*
X107239579Y-76537921D01*
X107225518Y-76516878D01*
X107218748Y-76510108D01*
X107213559Y-76498980D01*
X107196224Y-76473037D01*
X107192327Y-76453448D01*
X107188494Y-76445227D01*
X107184190Y-76412541D01*
X107181000Y-76396500D01*
X107181000Y-75253500D01*
X107184190Y-75237458D01*
X107188494Y-75204772D01*
X107192327Y-75196549D01*
X107196224Y-75176963D01*
X107213557Y-75151021D01*
X107218748Y-75139891D01*
X107225520Y-75133118D01*
X107239579Y-75112079D01*
X107260618Y-75098020D01*
X107267391Y-75091248D01*
X107278521Y-75086057D01*
X107304463Y-75068724D01*
X107324049Y-75064827D01*
X107332272Y-75060994D01*
X107364960Y-75056690D01*
X107381000Y-75053500D01*
X107889000Y-75053500D01*
X107905042Y-75056691D01*
G37*
G36*
X109175042Y-75056691D02*
G01*
X109207727Y-75060994D01*
X109215948Y-75064827D01*
X109235537Y-75068724D01*
X109261480Y-75086059D01*
X109272608Y-75091248D01*
X109279378Y-75098018D01*
X109300421Y-75112079D01*
X109314481Y-75133121D01*
X109321251Y-75139891D01*
X109326438Y-75151016D01*
X109343776Y-75176963D01*
X109347672Y-75196553D01*
X109351505Y-75204772D01*
X109355806Y-75237445D01*
X109359000Y-75253500D01*
X109359000Y-76396500D01*
X109355805Y-76412558D01*
X109351505Y-76445227D01*
X109347673Y-76453444D01*
X109343776Y-76473037D01*
X109326437Y-76498985D01*
X109321251Y-76510108D01*
X109314483Y-76516875D01*
X109300421Y-76537921D01*
X109279375Y-76551983D01*
X109272608Y-76558751D01*
X109261485Y-76563937D01*
X109235537Y-76581276D01*
X109215944Y-76585173D01*
X109207727Y-76589005D01*
X109175056Y-76593306D01*
X109159000Y-76596500D01*
X108651000Y-76596500D01*
X108634944Y-76593306D01*
X108602272Y-76589005D01*
X108594053Y-76585172D01*
X108574463Y-76581276D01*
X108548516Y-76563938D01*
X108537391Y-76558751D01*
X108530621Y-76551981D01*
X108509579Y-76537921D01*
X108495518Y-76516878D01*
X108488748Y-76510108D01*
X108483559Y-76498980D01*
X108466224Y-76473037D01*
X108462327Y-76453448D01*
X108458494Y-76445227D01*
X108454190Y-76412541D01*
X108451000Y-76396500D01*
X108451000Y-75253500D01*
X108454190Y-75237458D01*
X108458494Y-75204772D01*
X108462327Y-75196549D01*
X108466224Y-75176963D01*
X108483557Y-75151021D01*
X108488748Y-75139891D01*
X108495520Y-75133118D01*
X108509579Y-75112079D01*
X108530618Y-75098020D01*
X108537391Y-75091248D01*
X108548521Y-75086057D01*
X108574463Y-75068724D01*
X108594049Y-75064827D01*
X108602272Y-75060994D01*
X108634960Y-75056690D01*
X108651000Y-75053500D01*
X109159000Y-75053500D01*
X109175042Y-75056691D01*
G37*
G36*
X125644151Y-66763699D02*
G01*
X125830134Y-66793156D01*
X126009220Y-66851345D01*
X126176998Y-66936832D01*
X126329338Y-67047513D01*
X126462487Y-67180662D01*
X126573168Y-67333002D01*
X126658655Y-67500780D01*
X126716844Y-67679866D01*
X126746301Y-67865849D01*
X126746301Y-68054151D01*
X126716844Y-68240134D01*
X126658655Y-68419220D01*
X126573168Y-68586998D01*
X126462487Y-68739338D01*
X126329338Y-68872487D01*
X126176998Y-68983168D01*
X126009220Y-69068655D01*
X126006876Y-69069416D01*
X125930440Y-69108363D01*
X125976448Y-69300000D01*
X126550000Y-69300000D01*
X126566042Y-69303191D01*
X126598727Y-69307494D01*
X126606948Y-69311327D01*
X126626537Y-69315224D01*
X126652480Y-69332559D01*
X126663608Y-69337748D01*
X126670378Y-69344518D01*
X126691421Y-69358579D01*
X126705481Y-69379621D01*
X126712251Y-69386391D01*
X126717438Y-69397516D01*
X126734776Y-69423463D01*
X126738672Y-69443053D01*
X126742505Y-69451272D01*
X126746806Y-69483945D01*
X126750000Y-69500000D01*
X126750000Y-71500000D01*
X126746805Y-71516058D01*
X126742505Y-71548727D01*
X126738673Y-71556944D01*
X126734776Y-71576537D01*
X126717437Y-71602485D01*
X126712251Y-71613608D01*
X126705483Y-71620375D01*
X126691421Y-71641421D01*
X126670375Y-71655483D01*
X126663608Y-71662251D01*
X126652485Y-71667437D01*
X126626537Y-71684776D01*
X126606944Y-71688673D01*
X126598727Y-71692505D01*
X126566056Y-71696806D01*
X126550000Y-71700000D01*
X123950000Y-71700000D01*
X123933943Y-71696806D01*
X123901272Y-71692505D01*
X123893053Y-71688672D01*
X123873463Y-71684776D01*
X123847516Y-71667438D01*
X123836391Y-71662251D01*
X123829621Y-71655481D01*
X123808579Y-71641421D01*
X123794518Y-71620378D01*
X123787748Y-71613608D01*
X123782559Y-71602480D01*
X123765224Y-71576537D01*
X123761327Y-71556948D01*
X123757494Y-71548727D01*
X123753190Y-71516041D01*
X123750000Y-71500000D01*
X123750000Y-69500000D01*
X123753190Y-69483958D01*
X123757494Y-69451272D01*
X123761327Y-69443049D01*
X123765224Y-69423463D01*
X123782557Y-69397521D01*
X123787748Y-69386391D01*
X123794520Y-69379618D01*
X123808579Y-69358579D01*
X123829618Y-69344520D01*
X123836391Y-69337748D01*
X123847521Y-69332557D01*
X123873463Y-69315224D01*
X123893049Y-69311327D01*
X123901272Y-69307494D01*
X123933960Y-69303190D01*
X123950000Y-69300000D01*
X124523554Y-69300000D01*
X124569561Y-69108362D01*
X124493128Y-69069418D01*
X124490780Y-69068655D01*
X124323002Y-68983168D01*
X124170662Y-68872487D01*
X124037513Y-68739338D01*
X123926832Y-68586998D01*
X123841345Y-68419220D01*
X123783156Y-68240134D01*
X123753699Y-68054151D01*
X123753699Y-67865849D01*
X123783156Y-67679866D01*
X123841345Y-67500780D01*
X123926832Y-67333002D01*
X124037513Y-67180662D01*
X124170662Y-67047513D01*
X124323002Y-66936832D01*
X124490780Y-66851345D01*
X124669866Y-66793156D01*
X124855849Y-66763699D01*
X124950000Y-66760000D01*
X125550000Y-66760000D01*
X125644151Y-66763699D01*
G37*
G36*
X97533015Y-68079952D02*
G01*
X97594740Y-68079952D01*
X97649838Y-68089146D01*
X97701773Y-68093234D01*
X97764325Y-68108251D01*
X97830954Y-68119370D01*
X97878204Y-68135591D01*
X97922952Y-68146334D01*
X97988086Y-68173313D01*
X98057458Y-68197129D01*
X98096206Y-68218098D01*
X98133111Y-68233385D01*
X98198520Y-68273468D01*
X98268075Y-68311109D01*
X98298173Y-68334535D01*
X98327058Y-68352236D01*
X98390170Y-68406139D01*
X98457058Y-68458200D01*
X98478880Y-68481905D01*
X98500030Y-68499969D01*
X98558114Y-68567976D01*
X98619254Y-68634392D01*
X98633622Y-68656385D01*
X98647763Y-68672941D01*
X98698012Y-68754940D01*
X98750237Y-68834876D01*
X98758397Y-68853479D01*
X98766614Y-68866888D01*
X98806218Y-68962500D01*
X98846435Y-69054186D01*
X98849957Y-69068096D01*
X98853665Y-69077047D01*
X98879953Y-69186547D01*
X98905224Y-69286338D01*
X98905916Y-69294689D01*
X98906765Y-69298226D01*
X98917287Y-69431927D01*
X98925000Y-69525000D01*
X98917287Y-69618080D01*
X98906765Y-69751773D01*
X98905916Y-69755308D01*
X98905224Y-69763662D01*
X98879948Y-69863470D01*
X98853665Y-69972952D01*
X98849958Y-69981900D01*
X98846435Y-69995814D01*
X98806210Y-70087516D01*
X98766614Y-70183111D01*
X98758398Y-70196517D01*
X98750237Y-70215124D01*
X98698002Y-70295074D01*
X98647763Y-70377058D01*
X98633625Y-70393610D01*
X98619254Y-70415608D01*
X98558102Y-70482036D01*
X98500030Y-70550030D01*
X98478884Y-70568090D01*
X98457058Y-70591800D01*
X98390157Y-70643870D01*
X98327058Y-70697763D01*
X98298179Y-70715459D01*
X98268075Y-70738891D01*
X98198506Y-70776539D01*
X98133111Y-70816614D01*
X98096214Y-70831897D01*
X98057458Y-70852871D01*
X97988072Y-70876691D01*
X97922952Y-70903665D01*
X97878214Y-70914405D01*
X97830954Y-70930630D01*
X97764311Y-70941750D01*
X97701773Y-70956765D01*
X97649850Y-70960851D01*
X97594740Y-70970048D01*
X97533002Y-70970048D01*
X97475000Y-70974613D01*
X97416998Y-70970048D01*
X97355260Y-70970048D01*
X97300150Y-70960851D01*
X97248226Y-70956765D01*
X97185684Y-70941750D01*
X97119046Y-70930630D01*
X97071787Y-70914406D01*
X97027047Y-70903665D01*
X96961921Y-70876688D01*
X96892542Y-70852871D01*
X96853788Y-70831898D01*
X96816888Y-70816614D01*
X96751484Y-70776534D01*
X96681925Y-70738891D01*
X96651824Y-70715462D01*
X96622941Y-70697763D01*
X96559831Y-70643862D01*
X96492942Y-70591800D01*
X96471119Y-70568094D01*
X96449969Y-70550030D01*
X96391883Y-70482021D01*
X96330746Y-70415608D01*
X96316377Y-70393615D01*
X96302236Y-70377058D01*
X96251981Y-70295050D01*
X96199763Y-70215124D01*
X96191603Y-70196522D01*
X96183385Y-70183111D01*
X96143771Y-70087475D01*
X96103565Y-69995814D01*
X96100043Y-69981906D01*
X96096334Y-69972952D01*
X96070031Y-69863394D01*
X96044776Y-69763662D01*
X96044084Y-69755314D01*
X96043234Y-69751773D01*
X96032692Y-69617839D01*
X96025000Y-69525000D01*
X96032692Y-69432167D01*
X96043234Y-69298226D01*
X96044084Y-69294683D01*
X96044776Y-69286338D01*
X96070027Y-69186623D01*
X96096334Y-69077047D01*
X96100043Y-69068090D01*
X96103565Y-69054186D01*
X96143763Y-68962541D01*
X96183385Y-68866888D01*
X96191605Y-68853473D01*
X96199763Y-68834876D01*
X96251971Y-68754964D01*
X96302236Y-68672941D01*
X96316380Y-68656380D01*
X96330746Y-68634392D01*
X96391872Y-68567991D01*
X96449969Y-68499969D01*
X96471123Y-68481901D01*
X96492942Y-68458200D01*
X96559818Y-68406148D01*
X96622941Y-68352236D01*
X96651830Y-68334532D01*
X96681925Y-68311109D01*
X96751470Y-68273472D01*
X96816888Y-68233385D01*
X96853796Y-68218096D01*
X96892542Y-68197129D01*
X96961907Y-68173315D01*
X97027047Y-68146334D01*
X97071797Y-68135590D01*
X97119046Y-68119370D01*
X97185671Y-68108251D01*
X97248226Y-68093234D01*
X97300161Y-68089146D01*
X97355260Y-68079952D01*
X97416985Y-68079952D01*
X97475000Y-68075386D01*
X97533015Y-68079952D01*
G37*
G36*
X107058015Y-68079952D02*
G01*
X107119740Y-68079952D01*
X107174838Y-68089146D01*
X107226773Y-68093234D01*
X107289325Y-68108251D01*
X107355954Y-68119370D01*
X107403204Y-68135591D01*
X107447952Y-68146334D01*
X107513086Y-68173313D01*
X107582458Y-68197129D01*
X107621206Y-68218098D01*
X107658111Y-68233385D01*
X107723520Y-68273468D01*
X107793075Y-68311109D01*
X107823173Y-68334535D01*
X107852058Y-68352236D01*
X107915170Y-68406139D01*
X107982058Y-68458200D01*
X108003880Y-68481905D01*
X108025030Y-68499969D01*
X108083114Y-68567976D01*
X108144254Y-68634392D01*
X108158622Y-68656385D01*
X108172763Y-68672941D01*
X108223012Y-68754940D01*
X108275237Y-68834876D01*
X108283397Y-68853479D01*
X108291614Y-68866888D01*
X108331218Y-68962500D01*
X108371435Y-69054186D01*
X108374957Y-69068096D01*
X108378665Y-69077047D01*
X108404953Y-69186547D01*
X108430224Y-69286338D01*
X108430916Y-69294689D01*
X108431765Y-69298226D01*
X108442287Y-69431927D01*
X108450000Y-69525000D01*
X108442287Y-69618080D01*
X108431765Y-69751773D01*
X108430916Y-69755308D01*
X108430224Y-69763662D01*
X108404948Y-69863470D01*
X108378665Y-69972952D01*
X108374958Y-69981900D01*
X108371435Y-69995814D01*
X108331210Y-70087516D01*
X108291614Y-70183111D01*
X108283398Y-70196517D01*
X108275237Y-70215124D01*
X108223002Y-70295074D01*
X108172763Y-70377058D01*
X108158625Y-70393610D01*
X108144254Y-70415608D01*
X108083102Y-70482036D01*
X108025030Y-70550030D01*
X108003884Y-70568090D01*
X107982058Y-70591800D01*
X107915157Y-70643870D01*
X107852058Y-70697763D01*
X107823179Y-70715459D01*
X107793075Y-70738891D01*
X107723506Y-70776539D01*
X107658111Y-70816614D01*
X107621214Y-70831897D01*
X107582458Y-70852871D01*
X107513072Y-70876691D01*
X107447952Y-70903665D01*
X107403214Y-70914405D01*
X107355954Y-70930630D01*
X107289311Y-70941750D01*
X107226773Y-70956765D01*
X107174850Y-70960851D01*
X107119740Y-70970048D01*
X107058002Y-70970048D01*
X107000000Y-70974613D01*
X106941998Y-70970048D01*
X106880260Y-70970048D01*
X106825150Y-70960851D01*
X106773226Y-70956765D01*
X106710684Y-70941750D01*
X106644046Y-70930630D01*
X106596787Y-70914406D01*
X106552047Y-70903665D01*
X106486921Y-70876688D01*
X106417542Y-70852871D01*
X106378788Y-70831898D01*
X106341888Y-70816614D01*
X106276484Y-70776534D01*
X106206925Y-70738891D01*
X106176824Y-70715462D01*
X106147941Y-70697763D01*
X106084831Y-70643862D01*
X106017942Y-70591800D01*
X105996119Y-70568094D01*
X105974969Y-70550030D01*
X105916883Y-70482021D01*
X105855746Y-70415608D01*
X105841377Y-70393615D01*
X105827236Y-70377058D01*
X105776981Y-70295050D01*
X105724763Y-70215124D01*
X105716603Y-70196522D01*
X105708385Y-70183111D01*
X105668771Y-70087475D01*
X105628565Y-69995814D01*
X105625043Y-69981906D01*
X105621334Y-69972952D01*
X105595031Y-69863394D01*
X105569776Y-69763662D01*
X105569084Y-69755314D01*
X105568234Y-69751773D01*
X105557692Y-69617839D01*
X105550000Y-69525000D01*
X105557692Y-69432167D01*
X105568234Y-69298226D01*
X105569084Y-69294683D01*
X105569776Y-69286338D01*
X105595027Y-69186623D01*
X105621334Y-69077047D01*
X105625043Y-69068090D01*
X105628565Y-69054186D01*
X105668763Y-68962541D01*
X105708385Y-68866888D01*
X105716605Y-68853473D01*
X105724763Y-68834876D01*
X105776971Y-68754964D01*
X105827236Y-68672941D01*
X105841380Y-68656380D01*
X105855746Y-68634392D01*
X105916872Y-68567991D01*
X105974969Y-68499969D01*
X105996123Y-68481901D01*
X106017942Y-68458200D01*
X106084818Y-68406148D01*
X106147941Y-68352236D01*
X106176830Y-68334532D01*
X106206925Y-68311109D01*
X106276470Y-68273472D01*
X106341888Y-68233385D01*
X106378796Y-68218096D01*
X106417542Y-68197129D01*
X106486907Y-68173315D01*
X106552047Y-68146334D01*
X106596797Y-68135590D01*
X106644046Y-68119370D01*
X106710671Y-68108251D01*
X106773226Y-68093234D01*
X106825161Y-68089146D01*
X106880260Y-68079952D01*
X106941985Y-68079952D01*
X107000000Y-68075386D01*
X107058015Y-68079952D01*
G37*
G36*
X116583015Y-68079952D02*
G01*
X116644740Y-68079952D01*
X116699838Y-68089146D01*
X116751773Y-68093234D01*
X116814325Y-68108251D01*
X116880954Y-68119370D01*
X116928204Y-68135591D01*
X116972952Y-68146334D01*
X117038086Y-68173313D01*
X117107458Y-68197129D01*
X117146206Y-68218098D01*
X117183111Y-68233385D01*
X117248520Y-68273468D01*
X117318075Y-68311109D01*
X117348173Y-68334535D01*
X117377058Y-68352236D01*
X117440170Y-68406139D01*
X117507058Y-68458200D01*
X117528880Y-68481905D01*
X117550030Y-68499969D01*
X117608114Y-68567976D01*
X117669254Y-68634392D01*
X117683622Y-68656385D01*
X117697763Y-68672941D01*
X117748012Y-68754940D01*
X117800237Y-68834876D01*
X117808397Y-68853479D01*
X117816614Y-68866888D01*
X117856218Y-68962500D01*
X117896435Y-69054186D01*
X117899957Y-69068096D01*
X117903665Y-69077047D01*
X117929953Y-69186547D01*
X117955224Y-69286338D01*
X117955916Y-69294689D01*
X117956765Y-69298226D01*
X117967287Y-69431927D01*
X117975000Y-69525000D01*
X117967287Y-69618080D01*
X117956765Y-69751773D01*
X117955916Y-69755308D01*
X117955224Y-69763662D01*
X117929948Y-69863470D01*
X117903665Y-69972952D01*
X117899958Y-69981900D01*
X117896435Y-69995814D01*
X117856210Y-70087516D01*
X117816614Y-70183111D01*
X117808398Y-70196517D01*
X117800237Y-70215124D01*
X117748002Y-70295074D01*
X117697763Y-70377058D01*
X117683625Y-70393610D01*
X117669254Y-70415608D01*
X117608102Y-70482036D01*
X117550030Y-70550030D01*
X117528884Y-70568090D01*
X117507058Y-70591800D01*
X117440157Y-70643870D01*
X117377058Y-70697763D01*
X117348179Y-70715459D01*
X117318075Y-70738891D01*
X117248506Y-70776539D01*
X117183111Y-70816614D01*
X117146214Y-70831897D01*
X117107458Y-70852871D01*
X117038072Y-70876691D01*
X116972952Y-70903665D01*
X116928214Y-70914405D01*
X116880954Y-70930630D01*
X116814311Y-70941750D01*
X116751773Y-70956765D01*
X116699850Y-70960851D01*
X116644740Y-70970048D01*
X116583002Y-70970048D01*
X116525000Y-70974613D01*
X116466998Y-70970048D01*
X116405260Y-70970048D01*
X116350150Y-70960851D01*
X116298226Y-70956765D01*
X116235684Y-70941750D01*
X116169046Y-70930630D01*
X116121787Y-70914406D01*
X116077047Y-70903665D01*
X116011921Y-70876688D01*
X115942542Y-70852871D01*
X115903788Y-70831898D01*
X115866888Y-70816614D01*
X115801484Y-70776534D01*
X115731925Y-70738891D01*
X115701824Y-70715462D01*
X115672941Y-70697763D01*
X115609831Y-70643862D01*
X115542942Y-70591800D01*
X115521119Y-70568094D01*
X115499969Y-70550030D01*
X115441883Y-70482021D01*
X115380746Y-70415608D01*
X115366377Y-70393615D01*
X115352236Y-70377058D01*
X115301981Y-70295050D01*
X115249763Y-70215124D01*
X115241603Y-70196522D01*
X115233385Y-70183111D01*
X115193771Y-70087475D01*
X115153565Y-69995814D01*
X115150043Y-69981906D01*
X115146334Y-69972952D01*
X115120031Y-69863394D01*
X115094776Y-69763662D01*
X115094084Y-69755314D01*
X115093234Y-69751773D01*
X115082692Y-69617839D01*
X115075000Y-69525000D01*
X115082692Y-69432167D01*
X115093234Y-69298226D01*
X115094084Y-69294683D01*
X115094776Y-69286338D01*
X115120027Y-69186623D01*
X115146334Y-69077047D01*
X115150043Y-69068090D01*
X115153565Y-69054186D01*
X115193763Y-68962541D01*
X115233385Y-68866888D01*
X115241605Y-68853473D01*
X115249763Y-68834876D01*
X115301971Y-68754964D01*
X115352236Y-68672941D01*
X115366380Y-68656380D01*
X115380746Y-68634392D01*
X115441872Y-68567991D01*
X115499969Y-68499969D01*
X115521123Y-68481901D01*
X115542942Y-68458200D01*
X115609818Y-68406148D01*
X115672941Y-68352236D01*
X115701830Y-68334532D01*
X115731925Y-68311109D01*
X115801470Y-68273472D01*
X115866888Y-68233385D01*
X115903796Y-68218096D01*
X115942542Y-68197129D01*
X116011907Y-68173315D01*
X116077047Y-68146334D01*
X116121797Y-68135590D01*
X116169046Y-68119370D01*
X116235671Y-68108251D01*
X116298226Y-68093234D01*
X116350161Y-68089146D01*
X116405260Y-68079952D01*
X116466985Y-68079952D01*
X116525000Y-68075386D01*
X116583015Y-68079952D01*
G37*
G36*
X114641043Y-68303191D02*
G01*
X114673727Y-68307494D01*
X114681948Y-68311327D01*
X114701537Y-68315224D01*
X114727480Y-68332559D01*
X114738608Y-68337748D01*
X114745378Y-68344518D01*
X114766421Y-68358579D01*
X114780481Y-68379621D01*
X114787251Y-68386391D01*
X114792438Y-68397516D01*
X114809776Y-68423463D01*
X114813672Y-68443053D01*
X114817505Y-68451272D01*
X114821806Y-68483945D01*
X114825000Y-68500000D01*
X114825000Y-70000000D01*
X114821805Y-70016058D01*
X114817505Y-70048727D01*
X114813673Y-70056944D01*
X114809776Y-70076537D01*
X114792437Y-70102485D01*
X114787251Y-70113608D01*
X114780483Y-70120375D01*
X114766421Y-70141421D01*
X114745375Y-70155483D01*
X114738608Y-70162251D01*
X114727485Y-70167437D01*
X114701537Y-70184776D01*
X114681944Y-70188673D01*
X114673727Y-70192505D01*
X114641056Y-70196806D01*
X114625000Y-70200000D01*
X113375000Y-70200000D01*
X113358943Y-70196806D01*
X113326272Y-70192505D01*
X113318053Y-70188672D01*
X113298463Y-70184776D01*
X113272516Y-70167438D01*
X113261391Y-70162251D01*
X113254621Y-70155481D01*
X113233579Y-70141421D01*
X113219518Y-70120378D01*
X113212748Y-70113608D01*
X113207559Y-70102480D01*
X113190224Y-70076537D01*
X113186327Y-70056948D01*
X113182494Y-70048727D01*
X113178190Y-70016041D01*
X113175000Y-70000000D01*
X113175000Y-68500000D01*
X113178190Y-68483958D01*
X113182494Y-68451272D01*
X113186327Y-68443049D01*
X113190224Y-68423463D01*
X113207557Y-68397521D01*
X113212748Y-68386391D01*
X113219520Y-68379618D01*
X113233579Y-68358579D01*
X113254618Y-68344520D01*
X113261391Y-68337748D01*
X113272521Y-68332557D01*
X113298463Y-68315224D01*
X113318049Y-68311327D01*
X113326272Y-68307494D01*
X113358960Y-68303190D01*
X113375000Y-68300000D01*
X114625000Y-68300000D01*
X114641043Y-68303191D01*
G37*
G36*
X114641043Y-65803191D02*
G01*
X114673727Y-65807494D01*
X114681948Y-65811327D01*
X114701537Y-65815224D01*
X114727480Y-65832559D01*
X114738608Y-65837748D01*
X114745378Y-65844518D01*
X114766421Y-65858579D01*
X114780481Y-65879621D01*
X114787251Y-65886391D01*
X114792438Y-65897516D01*
X114809776Y-65923463D01*
X114813672Y-65943053D01*
X114817505Y-65951272D01*
X114821806Y-65983945D01*
X114825000Y-66000000D01*
X114825000Y-67500000D01*
X114821805Y-67516058D01*
X114817505Y-67548727D01*
X114813673Y-67556944D01*
X114809776Y-67576537D01*
X114792437Y-67602485D01*
X114787251Y-67613608D01*
X114780483Y-67620375D01*
X114766421Y-67641421D01*
X114745375Y-67655483D01*
X114738608Y-67662251D01*
X114727485Y-67667437D01*
X114701537Y-67684776D01*
X114681944Y-67688673D01*
X114673727Y-67692505D01*
X114641056Y-67696806D01*
X114625000Y-67700000D01*
X113375000Y-67700000D01*
X113358943Y-67696806D01*
X113326272Y-67692505D01*
X113318053Y-67688672D01*
X113298463Y-67684776D01*
X113272516Y-67667438D01*
X113261391Y-67662251D01*
X113254621Y-67655481D01*
X113233579Y-67641421D01*
X113219518Y-67620378D01*
X113212748Y-67613608D01*
X113207559Y-67602480D01*
X113190224Y-67576537D01*
X113186327Y-67556948D01*
X113182494Y-67548727D01*
X113178190Y-67516041D01*
X113175000Y-67500000D01*
X113175000Y-66000000D01*
X113178190Y-65983958D01*
X113182494Y-65951272D01*
X113186327Y-65943049D01*
X113190224Y-65923463D01*
X113207557Y-65897521D01*
X113212748Y-65886391D01*
X113219520Y-65879618D01*
X113233579Y-65858579D01*
X113254618Y-65844520D01*
X113261391Y-65837748D01*
X113272521Y-65832557D01*
X113298463Y-65815224D01*
X113318049Y-65811327D01*
X113326272Y-65807494D01*
X113358960Y-65803190D01*
X113375000Y-65800000D01*
X114625000Y-65800000D01*
X114641043Y-65803191D01*
G37*
G36*
X95516043Y-64178191D02*
G01*
X95548727Y-64182494D01*
X95556948Y-64186327D01*
X95576537Y-64190224D01*
X95602480Y-64207559D01*
X95613608Y-64212748D01*
X95620378Y-64219518D01*
X95641421Y-64233579D01*
X95655481Y-64254621D01*
X95662251Y-64261391D01*
X95667438Y-64272516D01*
X95684776Y-64298463D01*
X95688672Y-64318053D01*
X95692505Y-64326272D01*
X95696806Y-64358945D01*
X95700000Y-64375000D01*
X95700000Y-65625000D01*
X95696805Y-65641058D01*
X95692505Y-65673727D01*
X95688673Y-65681944D01*
X95684776Y-65701537D01*
X95667437Y-65727485D01*
X95662251Y-65738608D01*
X95655483Y-65745375D01*
X95641421Y-65766421D01*
X95620375Y-65780483D01*
X95613608Y-65787251D01*
X95602485Y-65792437D01*
X95576537Y-65809776D01*
X95556944Y-65813673D01*
X95548727Y-65817505D01*
X95516056Y-65821806D01*
X95500000Y-65825000D01*
X94000000Y-65825000D01*
X93983943Y-65821806D01*
X93951272Y-65817505D01*
X93943053Y-65813672D01*
X93923463Y-65809776D01*
X93897516Y-65792438D01*
X93886391Y-65787251D01*
X93879621Y-65780481D01*
X93858579Y-65766421D01*
X93844518Y-65745378D01*
X93837748Y-65738608D01*
X93832559Y-65727480D01*
X93815224Y-65701537D01*
X93811327Y-65681948D01*
X93807494Y-65673727D01*
X93803190Y-65641041D01*
X93800000Y-65625000D01*
X93800000Y-64375000D01*
X93803190Y-64358958D01*
X93807494Y-64326272D01*
X93811327Y-64318049D01*
X93815224Y-64298463D01*
X93832557Y-64272521D01*
X93837748Y-64261391D01*
X93844520Y-64254618D01*
X93858579Y-64233579D01*
X93879618Y-64219520D01*
X93886391Y-64212748D01*
X93897521Y-64207557D01*
X93923463Y-64190224D01*
X93943049Y-64186327D01*
X93951272Y-64182494D01*
X93983960Y-64178190D01*
X94000000Y-64175000D01*
X95500000Y-64175000D01*
X95516043Y-64178191D01*
G37*
G36*
X98016043Y-64178191D02*
G01*
X98048727Y-64182494D01*
X98056948Y-64186327D01*
X98076537Y-64190224D01*
X98102480Y-64207559D01*
X98113608Y-64212748D01*
X98120378Y-64219518D01*
X98141421Y-64233579D01*
X98155481Y-64254621D01*
X98162251Y-64261391D01*
X98167438Y-64272516D01*
X98184776Y-64298463D01*
X98188672Y-64318053D01*
X98192505Y-64326272D01*
X98196806Y-64358945D01*
X98200000Y-64375000D01*
X98200000Y-65625000D01*
X98196805Y-65641058D01*
X98192505Y-65673727D01*
X98188673Y-65681944D01*
X98184776Y-65701537D01*
X98167437Y-65727485D01*
X98162251Y-65738608D01*
X98155483Y-65745375D01*
X98141421Y-65766421D01*
X98120375Y-65780483D01*
X98113608Y-65787251D01*
X98102485Y-65792437D01*
X98076537Y-65809776D01*
X98056944Y-65813673D01*
X98048727Y-65817505D01*
X98016056Y-65821806D01*
X98000000Y-65825000D01*
X96500000Y-65825000D01*
X96483943Y-65821806D01*
X96451272Y-65817505D01*
X96443053Y-65813672D01*
X96423463Y-65809776D01*
X96397516Y-65792438D01*
X96386391Y-65787251D01*
X96379621Y-65780481D01*
X96358579Y-65766421D01*
X96344518Y-65745378D01*
X96337748Y-65738608D01*
X96332559Y-65727480D01*
X96315224Y-65701537D01*
X96311327Y-65681948D01*
X96307494Y-65673727D01*
X96303190Y-65641041D01*
X96300000Y-65625000D01*
X96300000Y-64375000D01*
X96303190Y-64358958D01*
X96307494Y-64326272D01*
X96311327Y-64318049D01*
X96315224Y-64298463D01*
X96332557Y-64272521D01*
X96337748Y-64261391D01*
X96344520Y-64254618D01*
X96358579Y-64233579D01*
X96379618Y-64219520D01*
X96386391Y-64212748D01*
X96397521Y-64207557D01*
X96423463Y-64190224D01*
X96443049Y-64186327D01*
X96451272Y-64182494D01*
X96483960Y-64178190D01*
X96500000Y-64175000D01*
X98000000Y-64175000D01*
X98016043Y-64178191D01*
G37*
G36*
X101266043Y-59053191D02*
G01*
X101298727Y-59057494D01*
X101306948Y-59061327D01*
X101326537Y-59065224D01*
X101352480Y-59082559D01*
X101363608Y-59087748D01*
X101370378Y-59094518D01*
X101391421Y-59108579D01*
X101405481Y-59129621D01*
X101412251Y-59136391D01*
X101417438Y-59147516D01*
X101434776Y-59173463D01*
X101438672Y-59193053D01*
X101442505Y-59201272D01*
X101446806Y-59233945D01*
X101450000Y-59250000D01*
X101450000Y-63000000D01*
X101446805Y-63016058D01*
X101442505Y-63048727D01*
X101438673Y-63056944D01*
X101434776Y-63076537D01*
X101417437Y-63102485D01*
X101412251Y-63113608D01*
X101405483Y-63120375D01*
X101391421Y-63141421D01*
X101370375Y-63155483D01*
X101363608Y-63162251D01*
X101352485Y-63167437D01*
X101326537Y-63184776D01*
X101306944Y-63188673D01*
X101298727Y-63192505D01*
X101266056Y-63196806D01*
X101250000Y-63200000D01*
X98750000Y-63200000D01*
X98733943Y-63196806D01*
X98701272Y-63192505D01*
X98693053Y-63188672D01*
X98673463Y-63184776D01*
X98647516Y-63167438D01*
X98636391Y-63162251D01*
X98629621Y-63155481D01*
X98608579Y-63141421D01*
X98594518Y-63120378D01*
X98587748Y-63113608D01*
X98582559Y-63102480D01*
X98565224Y-63076537D01*
X98561327Y-63056948D01*
X98557494Y-63048727D01*
X98553190Y-63016041D01*
X98550000Y-63000000D01*
X98550000Y-59250000D01*
X98553190Y-59233958D01*
X98557494Y-59201272D01*
X98561327Y-59193049D01*
X98565224Y-59173463D01*
X98582557Y-59147521D01*
X98587748Y-59136391D01*
X98594520Y-59129618D01*
X98608579Y-59108579D01*
X98629618Y-59094520D01*
X98636391Y-59087748D01*
X98647521Y-59082557D01*
X98673463Y-59065224D01*
X98693049Y-59061327D01*
X98701272Y-59057494D01*
X98733960Y-59053190D01*
X98750000Y-59050000D01*
X101250000Y-59050000D01*
X101266043Y-59053191D01*
G37*
G36*
X105726043Y-58753191D02*
G01*
X105758727Y-58757494D01*
X105766948Y-58761327D01*
X105786537Y-58765224D01*
X105812480Y-58782559D01*
X105823608Y-58787748D01*
X105830378Y-58794518D01*
X105851421Y-58808579D01*
X105865481Y-58829621D01*
X105872251Y-58836391D01*
X105877438Y-58847516D01*
X105894776Y-58873463D01*
X105898672Y-58893053D01*
X105902505Y-58901272D01*
X105906806Y-58933945D01*
X105910000Y-58950000D01*
X105910000Y-62450000D01*
X105906805Y-62466058D01*
X105902505Y-62498727D01*
X105898673Y-62506944D01*
X105894776Y-62526537D01*
X105877437Y-62552485D01*
X105872251Y-62563608D01*
X105865483Y-62570375D01*
X105851421Y-62591421D01*
X105830375Y-62605483D01*
X105823608Y-62612251D01*
X105812485Y-62617437D01*
X105786537Y-62634776D01*
X105766944Y-62638673D01*
X105758727Y-62642505D01*
X105726056Y-62646806D01*
X105710000Y-62650000D01*
X103710000Y-62650000D01*
X103693943Y-62646806D01*
X103661272Y-62642505D01*
X103653053Y-62638672D01*
X103633463Y-62634776D01*
X103607516Y-62617438D01*
X103596391Y-62612251D01*
X103589621Y-62605481D01*
X103568579Y-62591421D01*
X103554518Y-62570378D01*
X103547748Y-62563608D01*
X103542559Y-62552480D01*
X103525224Y-62526537D01*
X103521327Y-62506948D01*
X103517494Y-62498727D01*
X103513190Y-62466041D01*
X103510000Y-62450000D01*
X103510000Y-58950000D01*
X103513190Y-58933958D01*
X103517494Y-58901272D01*
X103521327Y-58893049D01*
X103525224Y-58873463D01*
X103542557Y-58847521D01*
X103547748Y-58836391D01*
X103554520Y-58829618D01*
X103568579Y-58808579D01*
X103589618Y-58794520D01*
X103596391Y-58787748D01*
X103607521Y-58782557D01*
X103633463Y-58765224D01*
X103653049Y-58761327D01*
X103661272Y-58757494D01*
X103693960Y-58753190D01*
X103710000Y-58750000D01*
X105710000Y-58750000D01*
X105726043Y-58753191D01*
G37*
G36*
X110306043Y-58753191D02*
G01*
X110338727Y-58757494D01*
X110346948Y-58761327D01*
X110366537Y-58765224D01*
X110392480Y-58782559D01*
X110403608Y-58787748D01*
X110410378Y-58794518D01*
X110431421Y-58808579D01*
X110445481Y-58829621D01*
X110452251Y-58836391D01*
X110457438Y-58847516D01*
X110474776Y-58873463D01*
X110478672Y-58893053D01*
X110482505Y-58901272D01*
X110486806Y-58933945D01*
X110490000Y-58950000D01*
X110490000Y-62450000D01*
X110486805Y-62466058D01*
X110482505Y-62498727D01*
X110478673Y-62506944D01*
X110474776Y-62526537D01*
X110457437Y-62552485D01*
X110452251Y-62563608D01*
X110445483Y-62570375D01*
X110431421Y-62591421D01*
X110410375Y-62605483D01*
X110403608Y-62612251D01*
X110392485Y-62617437D01*
X110366537Y-62634776D01*
X110346944Y-62638673D01*
X110338727Y-62642505D01*
X110306056Y-62646806D01*
X110290000Y-62650000D01*
X108290000Y-62650000D01*
X108273943Y-62646806D01*
X108241272Y-62642505D01*
X108233053Y-62638672D01*
X108213463Y-62634776D01*
X108187516Y-62617438D01*
X108176391Y-62612251D01*
X108169621Y-62605481D01*
X108148579Y-62591421D01*
X108134518Y-62570378D01*
X108127748Y-62563608D01*
X108122559Y-62552480D01*
X108105224Y-62526537D01*
X108101327Y-62506948D01*
X108097494Y-62498727D01*
X108093190Y-62466041D01*
X108090000Y-62450000D01*
X108090000Y-58950000D01*
X108093190Y-58933958D01*
X108097494Y-58901272D01*
X108101327Y-58893049D01*
X108105224Y-58873463D01*
X108122557Y-58847521D01*
X108127748Y-58836391D01*
X108134520Y-58829618D01*
X108148579Y-58808579D01*
X108169618Y-58794520D01*
X108176391Y-58787748D01*
X108187521Y-58782557D01*
X108213463Y-58765224D01*
X108233049Y-58761327D01*
X108241272Y-58757494D01*
X108273960Y-58753190D01*
X108290000Y-58750000D01*
X110290000Y-58750000D01*
X110306043Y-58753191D01*
G37*
G36*
X121166043Y-58753191D02*
G01*
X121198727Y-58757494D01*
X121206948Y-58761327D01*
X121226537Y-58765224D01*
X121252480Y-58782559D01*
X121263608Y-58787748D01*
X121270378Y-58794518D01*
X121291421Y-58808579D01*
X121305481Y-58829621D01*
X121312251Y-58836391D01*
X121317438Y-58847516D01*
X121334776Y-58873463D01*
X121338672Y-58893053D01*
X121342505Y-58901272D01*
X121346806Y-58933945D01*
X121350000Y-58950000D01*
X121350000Y-62450000D01*
X121346805Y-62466058D01*
X121342505Y-62498727D01*
X121338673Y-62506944D01*
X121334776Y-62526537D01*
X121317437Y-62552485D01*
X121312251Y-62563608D01*
X121305483Y-62570375D01*
X121291421Y-62591421D01*
X121270375Y-62605483D01*
X121263608Y-62612251D01*
X121252485Y-62617437D01*
X121226537Y-62634776D01*
X121206944Y-62638673D01*
X121198727Y-62642505D01*
X121166056Y-62646806D01*
X121150000Y-62650000D01*
X118850000Y-62650000D01*
X118833943Y-62646806D01*
X118801272Y-62642505D01*
X118793053Y-62638672D01*
X118773463Y-62634776D01*
X118747516Y-62617438D01*
X118736391Y-62612251D01*
X118729621Y-62605481D01*
X118708579Y-62591421D01*
X118694518Y-62570378D01*
X118687748Y-62563608D01*
X118682559Y-62552480D01*
X118665224Y-62526537D01*
X118661327Y-62506948D01*
X118657494Y-62498727D01*
X118653190Y-62466041D01*
X118650000Y-62450000D01*
X118650000Y-58950000D01*
X118653190Y-58933958D01*
X118657494Y-58901272D01*
X118661327Y-58893049D01*
X118665224Y-58873463D01*
X118682557Y-58847521D01*
X118687748Y-58836391D01*
X118694520Y-58829618D01*
X118708579Y-58808579D01*
X118729618Y-58794520D01*
X118736391Y-58787748D01*
X118747521Y-58782557D01*
X118773463Y-58765224D01*
X118793049Y-58761327D01*
X118801272Y-58757494D01*
X118833960Y-58753190D01*
X118850000Y-58750000D01*
X121150000Y-58750000D01*
X121166043Y-58753191D01*
G37*
G36*
X94816043Y-59803191D02*
G01*
X94848727Y-59807494D01*
X94856948Y-59811327D01*
X94876537Y-59815224D01*
X94902480Y-59832559D01*
X94913608Y-59837748D01*
X94920378Y-59844518D01*
X94941421Y-59858579D01*
X94955481Y-59879621D01*
X94962251Y-59886391D01*
X94967438Y-59897516D01*
X94984776Y-59923463D01*
X94988672Y-59943053D01*
X94992505Y-59951272D01*
X94996806Y-59983945D01*
X95000000Y-60000000D01*
X95000000Y-62000000D01*
X94996805Y-62016058D01*
X94992505Y-62048727D01*
X94988673Y-62056944D01*
X94984776Y-62076537D01*
X94967437Y-62102485D01*
X94962251Y-62113608D01*
X94955483Y-62120375D01*
X94941421Y-62141421D01*
X94920375Y-62155483D01*
X94913608Y-62162251D01*
X94902485Y-62167437D01*
X94876537Y-62184776D01*
X94856944Y-62188673D01*
X94848727Y-62192505D01*
X94816056Y-62196806D01*
X94800000Y-62200000D01*
X93200000Y-62200000D01*
X93183943Y-62196806D01*
X93151272Y-62192505D01*
X93143053Y-62188672D01*
X93123463Y-62184776D01*
X93097516Y-62167438D01*
X93086391Y-62162251D01*
X93079621Y-62155481D01*
X93058579Y-62141421D01*
X93044518Y-62120378D01*
X93037748Y-62113608D01*
X93032559Y-62102480D01*
X93015224Y-62076537D01*
X93011327Y-62056948D01*
X93007494Y-62048727D01*
X93003190Y-62016041D01*
X93000000Y-62000000D01*
X93000000Y-60000000D01*
X93003190Y-59983958D01*
X93007494Y-59951272D01*
X93011327Y-59943049D01*
X93015224Y-59923463D01*
X93032557Y-59897521D01*
X93037748Y-59886391D01*
X93044520Y-59879618D01*
X93058579Y-59858579D01*
X93079618Y-59844520D01*
X93086391Y-59837748D01*
X93097521Y-59832557D01*
X93123463Y-59815224D01*
X93143049Y-59811327D01*
X93151272Y-59807494D01*
X93183960Y-59803190D01*
X93200000Y-59800000D01*
X94800000Y-59800000D01*
X94816043Y-59803191D01*
G37*
G36*
X114816043Y-59803191D02*
G01*
X114848727Y-59807494D01*
X114856948Y-59811327D01*
X114876537Y-59815224D01*
X114902480Y-59832559D01*
X114913608Y-59837748D01*
X114920378Y-59844518D01*
X114941421Y-59858579D01*
X114955481Y-59879621D01*
X114962251Y-59886391D01*
X114967438Y-59897516D01*
X114984776Y-59923463D01*
X114988672Y-59943053D01*
X114992505Y-59951272D01*
X114996806Y-59983945D01*
X115000000Y-60000000D01*
X115000000Y-62000000D01*
X114996805Y-62016058D01*
X114992505Y-62048727D01*
X114988673Y-62056944D01*
X114984776Y-62076537D01*
X114967437Y-62102485D01*
X114962251Y-62113608D01*
X114955483Y-62120375D01*
X114941421Y-62141421D01*
X114920375Y-62155483D01*
X114913608Y-62162251D01*
X114902485Y-62167437D01*
X114876537Y-62184776D01*
X114856944Y-62188673D01*
X114848727Y-62192505D01*
X114816056Y-62196806D01*
X114800000Y-62200000D01*
X113200000Y-62200000D01*
X113183943Y-62196806D01*
X113151272Y-62192505D01*
X113143053Y-62188672D01*
X113123463Y-62184776D01*
X113097516Y-62167438D01*
X113086391Y-62162251D01*
X113079621Y-62155481D01*
X113058579Y-62141421D01*
X113044518Y-62120378D01*
X113037748Y-62113608D01*
X113032559Y-62102480D01*
X113015224Y-62076537D01*
X113011327Y-62056948D01*
X113007494Y-62048727D01*
X113003190Y-62016041D01*
X113000000Y-62000000D01*
X113000000Y-60000000D01*
X113003190Y-59983958D01*
X113007494Y-59951272D01*
X113011327Y-59943049D01*
X113015224Y-59923463D01*
X113032557Y-59897521D01*
X113037748Y-59886391D01*
X113044520Y-59879618D01*
X113058579Y-59858579D01*
X113079618Y-59844520D01*
X113086391Y-59837748D01*
X113097521Y-59832557D01*
X113123463Y-59815224D01*
X113143049Y-59811327D01*
X113151272Y-59807494D01*
X113183960Y-59803190D01*
X113200000Y-59800000D01*
X114800000Y-59800000D01*
X114816043Y-59803191D01*
G37*
G36*
X94816043Y-55803191D02*
G01*
X94848727Y-55807494D01*
X94856948Y-55811327D01*
X94876537Y-55815224D01*
X94902480Y-55832559D01*
X94913608Y-55837748D01*
X94920378Y-55844518D01*
X94941421Y-55858579D01*
X94955481Y-55879621D01*
X94962251Y-55886391D01*
X94967438Y-55897516D01*
X94984776Y-55923463D01*
X94988672Y-55943053D01*
X94992505Y-55951272D01*
X94996806Y-55983945D01*
X95000000Y-56000000D01*
X95000000Y-58000000D01*
X94996805Y-58016058D01*
X94992505Y-58048727D01*
X94988673Y-58056944D01*
X94984776Y-58076537D01*
X94967437Y-58102485D01*
X94962251Y-58113608D01*
X94955483Y-58120375D01*
X94941421Y-58141421D01*
X94920375Y-58155483D01*
X94913608Y-58162251D01*
X94902485Y-58167437D01*
X94876537Y-58184776D01*
X94856944Y-58188673D01*
X94848727Y-58192505D01*
X94816056Y-58196806D01*
X94800000Y-58200000D01*
X93200000Y-58200000D01*
X93183943Y-58196806D01*
X93151272Y-58192505D01*
X93143053Y-58188672D01*
X93123463Y-58184776D01*
X93097516Y-58167438D01*
X93086391Y-58162251D01*
X93079621Y-58155481D01*
X93058579Y-58141421D01*
X93044518Y-58120378D01*
X93037748Y-58113608D01*
X93032559Y-58102480D01*
X93015224Y-58076537D01*
X93011327Y-58056948D01*
X93007494Y-58048727D01*
X93003190Y-58016041D01*
X93000000Y-58000000D01*
X93000000Y-56000000D01*
X93003190Y-55983958D01*
X93007494Y-55951272D01*
X93011327Y-55943049D01*
X93015224Y-55923463D01*
X93032557Y-55897521D01*
X93037748Y-55886391D01*
X93044520Y-55879618D01*
X93058579Y-55858579D01*
X93079618Y-55844520D01*
X93086391Y-55837748D01*
X93097521Y-55832557D01*
X93123463Y-55815224D01*
X93143049Y-55811327D01*
X93151272Y-55807494D01*
X93183960Y-55803190D01*
X93200000Y-55800000D01*
X94800000Y-55800000D01*
X94816043Y-55803191D01*
G37*
G36*
X114816043Y-55803191D02*
G01*
X114848727Y-55807494D01*
X114856948Y-55811327D01*
X114876537Y-55815224D01*
X114902480Y-55832559D01*
X114913608Y-55837748D01*
X114920378Y-55844518D01*
X114941421Y-55858579D01*
X114955481Y-55879621D01*
X114962251Y-55886391D01*
X114967438Y-55897516D01*
X114984776Y-55923463D01*
X114988672Y-55943053D01*
X114992505Y-55951272D01*
X114996806Y-55983945D01*
X115000000Y-56000000D01*
X115000000Y-58000000D01*
X114996805Y-58016058D01*
X114992505Y-58048727D01*
X114988673Y-58056944D01*
X114984776Y-58076537D01*
X114967437Y-58102485D01*
X114962251Y-58113608D01*
X114955483Y-58120375D01*
X114941421Y-58141421D01*
X114920375Y-58155483D01*
X114913608Y-58162251D01*
X114902485Y-58167437D01*
X114876537Y-58184776D01*
X114856944Y-58188673D01*
X114848727Y-58192505D01*
X114816056Y-58196806D01*
X114800000Y-58200000D01*
X113200000Y-58200000D01*
X113183943Y-58196806D01*
X113151272Y-58192505D01*
X113143053Y-58188672D01*
X113123463Y-58184776D01*
X113097516Y-58167438D01*
X113086391Y-58162251D01*
X113079621Y-58155481D01*
X113058579Y-58141421D01*
X113044518Y-58120378D01*
X113037748Y-58113608D01*
X113032559Y-58102480D01*
X113015224Y-58076537D01*
X113011327Y-58056948D01*
X113007494Y-58048727D01*
X113003190Y-58016041D01*
X113000000Y-58000000D01*
X113000000Y-56000000D01*
X113003190Y-55983958D01*
X113007494Y-55951272D01*
X113011327Y-55943049D01*
X113015224Y-55923463D01*
X113032557Y-55897521D01*
X113037748Y-55886391D01*
X113044520Y-55879618D01*
X113058579Y-55858579D01*
X113079618Y-55844520D01*
X113086391Y-55837748D01*
X113097521Y-55832557D01*
X113123463Y-55815224D01*
X113143049Y-55811327D01*
X113151272Y-55807494D01*
X113183960Y-55803190D01*
X113200000Y-55800000D01*
X114800000Y-55800000D01*
X114816043Y-55803191D01*
G37*
G36*
X121166043Y-53353191D02*
G01*
X121198727Y-53357494D01*
X121206948Y-53361327D01*
X121226537Y-53365224D01*
X121252480Y-53382559D01*
X121263608Y-53387748D01*
X121270378Y-53394518D01*
X121291421Y-53408579D01*
X121305481Y-53429621D01*
X121312251Y-53436391D01*
X121317438Y-53447516D01*
X121334776Y-53473463D01*
X121338672Y-53493053D01*
X121342505Y-53501272D01*
X121346806Y-53533945D01*
X121350000Y-53550000D01*
X121350000Y-57050000D01*
X121346805Y-57066058D01*
X121342505Y-57098727D01*
X121338673Y-57106944D01*
X121334776Y-57126537D01*
X121317437Y-57152485D01*
X121312251Y-57163608D01*
X121305483Y-57170375D01*
X121291421Y-57191421D01*
X121270375Y-57205483D01*
X121263608Y-57212251D01*
X121252485Y-57217437D01*
X121226537Y-57234776D01*
X121206944Y-57238673D01*
X121198727Y-57242505D01*
X121166056Y-57246806D01*
X121150000Y-57250000D01*
X118850000Y-57250000D01*
X118833943Y-57246806D01*
X118801272Y-57242505D01*
X118793053Y-57238672D01*
X118773463Y-57234776D01*
X118747516Y-57217438D01*
X118736391Y-57212251D01*
X118729621Y-57205481D01*
X118708579Y-57191421D01*
X118694518Y-57170378D01*
X118687748Y-57163608D01*
X118682559Y-57152480D01*
X118665224Y-57126537D01*
X118661327Y-57106948D01*
X118657494Y-57098727D01*
X118653190Y-57066041D01*
X118650000Y-57050000D01*
X118650000Y-53550000D01*
X118653190Y-53533958D01*
X118657494Y-53501272D01*
X118661327Y-53493049D01*
X118665224Y-53473463D01*
X118682557Y-53447521D01*
X118687748Y-53436391D01*
X118694520Y-53429618D01*
X118708579Y-53408579D01*
X118729618Y-53394520D01*
X118736391Y-53387748D01*
X118747521Y-53382557D01*
X118773463Y-53365224D01*
X118793049Y-53361327D01*
X118801272Y-53357494D01*
X118833960Y-53353190D01*
X118850000Y-53350000D01*
X121150000Y-53350000D01*
X121166043Y-53353191D01*
G37*
G36*
X110506043Y-49603191D02*
G01*
X110538727Y-49607494D01*
X110546948Y-49611327D01*
X110566537Y-49615224D01*
X110592480Y-49632559D01*
X110603608Y-49637748D01*
X110610378Y-49644518D01*
X110631421Y-49658579D01*
X110645481Y-49679621D01*
X110652251Y-49686391D01*
X110657438Y-49697516D01*
X110674776Y-49723463D01*
X110678672Y-49743053D01*
X110682505Y-49751272D01*
X110686806Y-49783945D01*
X110690000Y-49800000D01*
X110690000Y-56800000D01*
X110686805Y-56816058D01*
X110682505Y-56848727D01*
X110678673Y-56856944D01*
X110674776Y-56876537D01*
X110657437Y-56902485D01*
X110652251Y-56913608D01*
X110645483Y-56920375D01*
X110631421Y-56941421D01*
X110610375Y-56955483D01*
X110603608Y-56962251D01*
X110592485Y-56967437D01*
X110566537Y-56984776D01*
X110546944Y-56988673D01*
X110538727Y-56992505D01*
X110506056Y-56996806D01*
X110490000Y-57000000D01*
X103490000Y-57000000D01*
X103473943Y-56996806D01*
X103441272Y-56992505D01*
X103433053Y-56988672D01*
X103413463Y-56984776D01*
X103387516Y-56967438D01*
X103376391Y-56962251D01*
X103369621Y-56955481D01*
X103348579Y-56941421D01*
X103334518Y-56920378D01*
X103327748Y-56913608D01*
X103322559Y-56902480D01*
X103305224Y-56876537D01*
X103301327Y-56856948D01*
X103297494Y-56848727D01*
X103293190Y-56816041D01*
X103290000Y-56800000D01*
X103290000Y-49800000D01*
X103293190Y-49783958D01*
X103297494Y-49751272D01*
X103301327Y-49743049D01*
X103305224Y-49723463D01*
X103322557Y-49697521D01*
X103327748Y-49686391D01*
X103334520Y-49679618D01*
X103348579Y-49658579D01*
X103369618Y-49644520D01*
X103376391Y-49637748D01*
X103387521Y-49632557D01*
X103413463Y-49615224D01*
X103433049Y-49611327D01*
X103441272Y-49607494D01*
X103473960Y-49603190D01*
X103490000Y-49600000D01*
X110490000Y-49600000D01*
X110506043Y-49603191D01*
G37*
G36*
X101266043Y-52803191D02*
G01*
X101298727Y-52807494D01*
X101306948Y-52811327D01*
X101326537Y-52815224D01*
X101352480Y-52832559D01*
X101363608Y-52837748D01*
X101370378Y-52844518D01*
X101391421Y-52858579D01*
X101405481Y-52879621D01*
X101412251Y-52886391D01*
X101417438Y-52897516D01*
X101434776Y-52923463D01*
X101438672Y-52943053D01*
X101442505Y-52951272D01*
X101446806Y-52983945D01*
X101450000Y-53000000D01*
X101450000Y-56750000D01*
X101446805Y-56766058D01*
X101442505Y-56798727D01*
X101438673Y-56806944D01*
X101434776Y-56826537D01*
X101417437Y-56852485D01*
X101412251Y-56863608D01*
X101405483Y-56870375D01*
X101391421Y-56891421D01*
X101370375Y-56905483D01*
X101363608Y-56912251D01*
X101352485Y-56917437D01*
X101326537Y-56934776D01*
X101306944Y-56938673D01*
X101298727Y-56942505D01*
X101266056Y-56946806D01*
X101250000Y-56950000D01*
X98750000Y-56950000D01*
X98733943Y-56946806D01*
X98701272Y-56942505D01*
X98693053Y-56938672D01*
X98673463Y-56934776D01*
X98647516Y-56917438D01*
X98636391Y-56912251D01*
X98629621Y-56905481D01*
X98608579Y-56891421D01*
X98594518Y-56870378D01*
X98587748Y-56863608D01*
X98582559Y-56852480D01*
X98565224Y-56826537D01*
X98561327Y-56806948D01*
X98557494Y-56798727D01*
X98553190Y-56766041D01*
X98550000Y-56750000D01*
X98550000Y-53000000D01*
X98553190Y-52983958D01*
X98557494Y-52951272D01*
X98561327Y-52943049D01*
X98565224Y-52923463D01*
X98582557Y-52897521D01*
X98587748Y-52886391D01*
X98594520Y-52879618D01*
X98608579Y-52858579D01*
X98629618Y-52844520D01*
X98636391Y-52837748D01*
X98647521Y-52832557D01*
X98673463Y-52815224D01*
X98693049Y-52811327D01*
X98701272Y-52807494D01*
X98733960Y-52803190D01*
X98750000Y-52800000D01*
X101250000Y-52800000D01*
X101266043Y-52803191D01*
G37*
G36*
X97533015Y-49029952D02*
G01*
X97594740Y-49029952D01*
X97649838Y-49039146D01*
X97701773Y-49043234D01*
X97764325Y-49058251D01*
X97830954Y-49069370D01*
X97878204Y-49085591D01*
X97922952Y-49096334D01*
X97988086Y-49123313D01*
X98057458Y-49147129D01*
X98096206Y-49168098D01*
X98133111Y-49183385D01*
X98198520Y-49223468D01*
X98268075Y-49261109D01*
X98298173Y-49284535D01*
X98327058Y-49302236D01*
X98390170Y-49356139D01*
X98457058Y-49408200D01*
X98478880Y-49431905D01*
X98500030Y-49449969D01*
X98558114Y-49517976D01*
X98619254Y-49584392D01*
X98633622Y-49606385D01*
X98647763Y-49622941D01*
X98698012Y-49704940D01*
X98750237Y-49784876D01*
X98758397Y-49803479D01*
X98766614Y-49816888D01*
X98806218Y-49912500D01*
X98846435Y-50004186D01*
X98849957Y-50018096D01*
X98853665Y-50027047D01*
X98879953Y-50136547D01*
X98905224Y-50236338D01*
X98905916Y-50244689D01*
X98906765Y-50248226D01*
X98917287Y-50381927D01*
X98925000Y-50475000D01*
X98917287Y-50568080D01*
X98906765Y-50701773D01*
X98905916Y-50705308D01*
X98905224Y-50713662D01*
X98879948Y-50813470D01*
X98853665Y-50922952D01*
X98849958Y-50931900D01*
X98846435Y-50945814D01*
X98806210Y-51037516D01*
X98766614Y-51133111D01*
X98758398Y-51146517D01*
X98750237Y-51165124D01*
X98698002Y-51245074D01*
X98647763Y-51327058D01*
X98633625Y-51343610D01*
X98619254Y-51365608D01*
X98558102Y-51432036D01*
X98500030Y-51500030D01*
X98478884Y-51518090D01*
X98457058Y-51541800D01*
X98390157Y-51593870D01*
X98327058Y-51647763D01*
X98298179Y-51665459D01*
X98268075Y-51688891D01*
X98198506Y-51726539D01*
X98133111Y-51766614D01*
X98096214Y-51781897D01*
X98057458Y-51802871D01*
X97988072Y-51826691D01*
X97922952Y-51853665D01*
X97878214Y-51864405D01*
X97830954Y-51880630D01*
X97764311Y-51891750D01*
X97701773Y-51906765D01*
X97649850Y-51910851D01*
X97594740Y-51920048D01*
X97533002Y-51920048D01*
X97475000Y-51924613D01*
X97416998Y-51920048D01*
X97355260Y-51920048D01*
X97300150Y-51910851D01*
X97248226Y-51906765D01*
X97185684Y-51891750D01*
X97119046Y-51880630D01*
X97071787Y-51864406D01*
X97027047Y-51853665D01*
X96961921Y-51826688D01*
X96892542Y-51802871D01*
X96853788Y-51781898D01*
X96816888Y-51766614D01*
X96751484Y-51726534D01*
X96681925Y-51688891D01*
X96651824Y-51665462D01*
X96622941Y-51647763D01*
X96559831Y-51593862D01*
X96492942Y-51541800D01*
X96471119Y-51518094D01*
X96449969Y-51500030D01*
X96391883Y-51432021D01*
X96330746Y-51365608D01*
X96316377Y-51343615D01*
X96302236Y-51327058D01*
X96251981Y-51245050D01*
X96199763Y-51165124D01*
X96191603Y-51146522D01*
X96183385Y-51133111D01*
X96143771Y-51037475D01*
X96103565Y-50945814D01*
X96100043Y-50931906D01*
X96096334Y-50922952D01*
X96070031Y-50813394D01*
X96044776Y-50713662D01*
X96044084Y-50705314D01*
X96043234Y-50701773D01*
X96032692Y-50567839D01*
X96025000Y-50475000D01*
X96032692Y-50382167D01*
X96043234Y-50248226D01*
X96044084Y-50244683D01*
X96044776Y-50236338D01*
X96070027Y-50136623D01*
X96096334Y-50027047D01*
X96100043Y-50018090D01*
X96103565Y-50004186D01*
X96143763Y-49912541D01*
X96183385Y-49816888D01*
X96191605Y-49803473D01*
X96199763Y-49784876D01*
X96251971Y-49704964D01*
X96302236Y-49622941D01*
X96316380Y-49606380D01*
X96330746Y-49584392D01*
X96391872Y-49517991D01*
X96449969Y-49449969D01*
X96471123Y-49431901D01*
X96492942Y-49408200D01*
X96559818Y-49356148D01*
X96622941Y-49302236D01*
X96651830Y-49284532D01*
X96681925Y-49261109D01*
X96751470Y-49223472D01*
X96816888Y-49183385D01*
X96853796Y-49168096D01*
X96892542Y-49147129D01*
X96961907Y-49123315D01*
X97027047Y-49096334D01*
X97071797Y-49085590D01*
X97119046Y-49069370D01*
X97185671Y-49058251D01*
X97248226Y-49043234D01*
X97300161Y-49039146D01*
X97355260Y-49029952D01*
X97416985Y-49029952D01*
X97475000Y-49025386D01*
X97533015Y-49029952D01*
G37*
G36*
X116583015Y-49029952D02*
G01*
X116644740Y-49029952D01*
X116699838Y-49039146D01*
X116751773Y-49043234D01*
X116814325Y-49058251D01*
X116880954Y-49069370D01*
X116928204Y-49085591D01*
X116972952Y-49096334D01*
X117038086Y-49123313D01*
X117107458Y-49147129D01*
X117146206Y-49168098D01*
X117183111Y-49183385D01*
X117248520Y-49223468D01*
X117318075Y-49261109D01*
X117348173Y-49284535D01*
X117377058Y-49302236D01*
X117440170Y-49356139D01*
X117507058Y-49408200D01*
X117528880Y-49431905D01*
X117550030Y-49449969D01*
X117608114Y-49517976D01*
X117669254Y-49584392D01*
X117683622Y-49606385D01*
X117697763Y-49622941D01*
X117748012Y-49704940D01*
X117800237Y-49784876D01*
X117808397Y-49803479D01*
X117816614Y-49816888D01*
X117856218Y-49912500D01*
X117896435Y-50004186D01*
X117899957Y-50018096D01*
X117903665Y-50027047D01*
X117929953Y-50136547D01*
X117955224Y-50236338D01*
X117955916Y-50244689D01*
X117956765Y-50248226D01*
X117967287Y-50381927D01*
X117975000Y-50475000D01*
X117967287Y-50568080D01*
X117956765Y-50701773D01*
X117955916Y-50705308D01*
X117955224Y-50713662D01*
X117929948Y-50813470D01*
X117903665Y-50922952D01*
X117899958Y-50931900D01*
X117896435Y-50945814D01*
X117856210Y-51037516D01*
X117816614Y-51133111D01*
X117808398Y-51146517D01*
X117800237Y-51165124D01*
X117748002Y-51245074D01*
X117697763Y-51327058D01*
X117683625Y-51343610D01*
X117669254Y-51365608D01*
X117608102Y-51432036D01*
X117550030Y-51500030D01*
X117528884Y-51518090D01*
X117507058Y-51541800D01*
X117440157Y-51593870D01*
X117377058Y-51647763D01*
X117348179Y-51665459D01*
X117318075Y-51688891D01*
X117248506Y-51726539D01*
X117183111Y-51766614D01*
X117146214Y-51781897D01*
X117107458Y-51802871D01*
X117038072Y-51826691D01*
X116972952Y-51853665D01*
X116928214Y-51864405D01*
X116880954Y-51880630D01*
X116814311Y-51891750D01*
X116751773Y-51906765D01*
X116699850Y-51910851D01*
X116644740Y-51920048D01*
X116583002Y-51920048D01*
X116525000Y-51924613D01*
X116466998Y-51920048D01*
X116405260Y-51920048D01*
X116350150Y-51910851D01*
X116298226Y-51906765D01*
X116235684Y-51891750D01*
X116169046Y-51880630D01*
X116121787Y-51864406D01*
X116077047Y-51853665D01*
X116011921Y-51826688D01*
X115942542Y-51802871D01*
X115903788Y-51781898D01*
X115866888Y-51766614D01*
X115801484Y-51726534D01*
X115731925Y-51688891D01*
X115701824Y-51665462D01*
X115672941Y-51647763D01*
X115609831Y-51593862D01*
X115542942Y-51541800D01*
X115521119Y-51518094D01*
X115499969Y-51500030D01*
X115441883Y-51432021D01*
X115380746Y-51365608D01*
X115366377Y-51343615D01*
X115352236Y-51327058D01*
X115301981Y-51245050D01*
X115249763Y-51165124D01*
X115241603Y-51146522D01*
X115233385Y-51133111D01*
X115193771Y-51037475D01*
X115153565Y-50945814D01*
X115150043Y-50931906D01*
X115146334Y-50922952D01*
X115120031Y-50813394D01*
X115094776Y-50713662D01*
X115094084Y-50705314D01*
X115093234Y-50701773D01*
X115082692Y-50567839D01*
X115075000Y-50475000D01*
X115082692Y-50382167D01*
X115093234Y-50248226D01*
X115094084Y-50244683D01*
X115094776Y-50236338D01*
X115120027Y-50136623D01*
X115146334Y-50027047D01*
X115150043Y-50018090D01*
X115153565Y-50004186D01*
X115193763Y-49912541D01*
X115233385Y-49816888D01*
X115241605Y-49803473D01*
X115249763Y-49784876D01*
X115301971Y-49704964D01*
X115352236Y-49622941D01*
X115366380Y-49606380D01*
X115380746Y-49584392D01*
X115441872Y-49517991D01*
X115499969Y-49449969D01*
X115521123Y-49431901D01*
X115542942Y-49408200D01*
X115609818Y-49356148D01*
X115672941Y-49302236D01*
X115701830Y-49284532D01*
X115731925Y-49261109D01*
X115801470Y-49223472D01*
X115866888Y-49183385D01*
X115903796Y-49168096D01*
X115942542Y-49147129D01*
X116011907Y-49123315D01*
X116077047Y-49096334D01*
X116121797Y-49085590D01*
X116169046Y-49069370D01*
X116235671Y-49058251D01*
X116298226Y-49043234D01*
X116350161Y-49039146D01*
X116405260Y-49029952D01*
X116466985Y-49029952D01*
X116525000Y-49025386D01*
X116583015Y-49029952D01*
G37*
G36*
X129999056Y-45000000D02*
G01*
X130000000Y-45000000D01*
X130000000Y-45000406D01*
X130002890Y-45003742D01*
X130005000Y-45013437D01*
X130005000Y-94982026D01*
X130000000Y-94999053D01*
X130000000Y-95000000D01*
X129999593Y-95000000D01*
X129996257Y-95002890D01*
X129986562Y-95005000D01*
X80017973Y-95005000D01*
X80000946Y-95000000D01*
X80000000Y-95000000D01*
X80000000Y-94999594D01*
X79997109Y-94996257D01*
X79995000Y-94986562D01*
X79995000Y-51679296D01*
X82505000Y-51679296D01*
X82505000Y-88320702D01*
X82627978Y-88393247D01*
X82720125Y-88342320D01*
X82775908Y-88319213D01*
X82831565Y-88291262D01*
X82929056Y-88255778D01*
X83025739Y-88215731D01*
X83089762Y-88197286D01*
X83153930Y-88173931D01*
X83249220Y-88151346D01*
X83343608Y-88124154D01*
X83415479Y-88111942D01*
X83487738Y-88094817D01*
X83579178Y-88084129D01*
X83669730Y-88068744D01*
X83748799Y-88064303D01*
X83828473Y-88054991D01*
X83914619Y-88054991D01*
X84000000Y-88050196D01*
X84085381Y-88054991D01*
X84171527Y-88054991D01*
X84251201Y-88064303D01*
X84330269Y-88068744D01*
X84420817Y-88084128D01*
X84512262Y-88094817D01*
X84584523Y-88111943D01*
X84656391Y-88124154D01*
X84750773Y-88151345D01*
X84846070Y-88173931D01*
X84910241Y-88197287D01*
X84974260Y-88215731D01*
X85070933Y-88255774D01*
X85168435Y-88291262D01*
X85224100Y-88319218D01*
X85279873Y-88342320D01*
X85377143Y-88396079D01*
X85475000Y-88445225D01*
X85522013Y-88476146D01*
X85569391Y-88502331D01*
X85665411Y-88570460D01*
X85761618Y-88633737D01*
X85800098Y-88666026D01*
X85839165Y-88693745D01*
X85931942Y-88776656D01*
X86024413Y-88854248D01*
X86054751Y-88886405D01*
X86085825Y-88914174D01*
X86173313Y-89012073D01*
X86259831Y-89103777D01*
X86282618Y-89134385D01*
X86306254Y-89160834D01*
X86386383Y-89273766D01*
X86464689Y-89378949D01*
X86480740Y-89406750D01*
X86497668Y-89430608D01*
X86568316Y-89558437D01*
X86636216Y-89676042D01*
X86646531Y-89699956D01*
X86657679Y-89720126D01*
X86716803Y-89862865D01*
X86772093Y-89991041D01*
X86777821Y-90010176D01*
X86784268Y-90025739D01*
X86829895Y-90184115D01*
X86870482Y-90319683D01*
X86872895Y-90333369D01*
X86875845Y-90343608D01*
X86906122Y-90521810D01*
X86930053Y-90657526D01*
X86930507Y-90665331D01*
X86931255Y-90669730D01*
X86944493Y-90905457D01*
X86950000Y-91000000D01*
X86944493Y-91094549D01*
X86931255Y-91330269D01*
X86930507Y-91334667D01*
X86930053Y-91342474D01*
X86906117Y-91478216D01*
X86875845Y-91656391D01*
X86872895Y-91666628D01*
X86870482Y-91680317D01*
X86829888Y-91815909D01*
X86784268Y-91974260D01*
X86777822Y-91989820D01*
X86772093Y-92008959D01*
X86716797Y-92137147D01*
X86657681Y-92279869D01*
X86646533Y-92300039D01*
X86636216Y-92323958D01*
X86607618Y-92373489D01*
X86679296Y-92495000D01*
X95947624Y-92495000D01*
X96019475Y-92428581D01*
X96028550Y-92313276D01*
X96029400Y-92309731D01*
X96030092Y-92301391D01*
X96055325Y-92201746D01*
X96081638Y-92092145D01*
X96085349Y-92083185D01*
X96088868Y-92069290D01*
X96129052Y-91977677D01*
X96168670Y-91882034D01*
X96176887Y-91868624D01*
X96185044Y-91850029D01*
X96237240Y-91770136D01*
X96287497Y-91688125D01*
X96301640Y-91671564D01*
X96315999Y-91649588D01*
X96377086Y-91583229D01*
X96435194Y-91515194D01*
X96456353Y-91497122D01*
X96478158Y-91473436D01*
X96545003Y-91421408D01*
X96608125Y-91367497D01*
X96637008Y-91349797D01*
X96667100Y-91326376D01*
X96736642Y-91288741D01*
X96802034Y-91248670D01*
X96838929Y-91233387D01*
X96877670Y-91212422D01*
X96947018Y-91188614D01*
X97012145Y-91161638D01*
X97056889Y-91150896D01*
X97104125Y-91134680D01*
X97170734Y-91123564D01*
X97233276Y-91108550D01*
X97285199Y-91104463D01*
X97340286Y-91095271D01*
X97401998Y-91095271D01*
X97460000Y-91090706D01*
X97518002Y-91095271D01*
X97579714Y-91095271D01*
X97634800Y-91104463D01*
X97686723Y-91108550D01*
X97749262Y-91123564D01*
X97815875Y-91134680D01*
X97863113Y-91150896D01*
X97907854Y-91161638D01*
X97972975Y-91188612D01*
X98042330Y-91212422D01*
X98081073Y-91233388D01*
X98117965Y-91248670D01*
X98183348Y-91288736D01*
X98252900Y-91326376D01*
X98282995Y-91349800D01*
X98311874Y-91367497D01*
X98374985Y-91421399D01*
X98441842Y-91473436D01*
X98463650Y-91497126D01*
X98484805Y-91515194D01*
X98542899Y-91583214D01*
X98604001Y-91649588D01*
X98618362Y-91671569D01*
X98632502Y-91688125D01*
X98682743Y-91770111D01*
X98734956Y-91850029D01*
X98743115Y-91868630D01*
X98751329Y-91882034D01*
X98790929Y-91977636D01*
X98831132Y-92069290D01*
X98834652Y-92083191D01*
X98838361Y-92092145D01*
X98864655Y-92201670D01*
X98889908Y-92301391D01*
X98890599Y-92309738D01*
X98891449Y-92313276D01*
X98900525Y-92428581D01*
X98972376Y-92495000D01*
X101027624Y-92495000D01*
X101099475Y-92428581D01*
X101108550Y-92313276D01*
X101109400Y-92309731D01*
X101110092Y-92301391D01*
X101135325Y-92201746D01*
X101161638Y-92092145D01*
X101165349Y-92083185D01*
X101168868Y-92069290D01*
X101209052Y-91977677D01*
X101248670Y-91882034D01*
X101256887Y-91868624D01*
X101265044Y-91850029D01*
X101317240Y-91770136D01*
X101367497Y-91688125D01*
X101381640Y-91671564D01*
X101395999Y-91649588D01*
X101457086Y-91583229D01*
X101515194Y-91515194D01*
X101536353Y-91497122D01*
X101558158Y-91473436D01*
X101625003Y-91421408D01*
X101688125Y-91367497D01*
X101717008Y-91349797D01*
X101747100Y-91326376D01*
X101816642Y-91288741D01*
X101882034Y-91248670D01*
X101918929Y-91233387D01*
X101957670Y-91212422D01*
X102027018Y-91188614D01*
X102092145Y-91161638D01*
X102136889Y-91150896D01*
X102184125Y-91134680D01*
X102250734Y-91123564D01*
X102313276Y-91108550D01*
X102365199Y-91104463D01*
X102420286Y-91095271D01*
X102481998Y-91095271D01*
X102540000Y-91090706D01*
X102598002Y-91095271D01*
X102659714Y-91095271D01*
X102714800Y-91104463D01*
X102766723Y-91108550D01*
X102829262Y-91123564D01*
X102895875Y-91134680D01*
X102943113Y-91150896D01*
X102987854Y-91161638D01*
X103052975Y-91188612D01*
X103122330Y-91212422D01*
X103161073Y-91233388D01*
X103197965Y-91248670D01*
X103263348Y-91288736D01*
X103332900Y-91326376D01*
X103362995Y-91349800D01*
X103391874Y-91367497D01*
X103454985Y-91421399D01*
X103521842Y-91473436D01*
X103543650Y-91497126D01*
X103564805Y-91515194D01*
X103622899Y-91583214D01*
X103684001Y-91649588D01*
X103698362Y-91671569D01*
X103712502Y-91688125D01*
X103762743Y-91770111D01*
X103814956Y-91850029D01*
X103823115Y-91868630D01*
X103831329Y-91882034D01*
X103870929Y-91977636D01*
X103911132Y-92069290D01*
X103914652Y-92083191D01*
X103918361Y-92092145D01*
X103944655Y-92201670D01*
X103969908Y-92301391D01*
X103970599Y-92309738D01*
X103971449Y-92313276D01*
X103980525Y-92428581D01*
X104052376Y-92495000D01*
X123320704Y-92495000D01*
X123392381Y-92373489D01*
X123363784Y-92323958D01*
X123353469Y-92300045D01*
X123342318Y-92279869D01*
X123283176Y-92137089D01*
X123227907Y-92008959D01*
X123222179Y-91989828D01*
X123215731Y-91974260D01*
X123170085Y-91815820D01*
X123129518Y-91680317D01*
X123127105Y-91666637D01*
X123124154Y-91656391D01*
X123093854Y-91478060D01*
X123069947Y-91342474D01*
X123069492Y-91334676D01*
X123068744Y-91330269D01*
X123055478Y-91094069D01*
X123050000Y-91000000D01*
X123055478Y-90905937D01*
X123068744Y-90669730D01*
X123069492Y-90665322D01*
X123069947Y-90657526D01*
X123093849Y-90521965D01*
X123124154Y-90343608D01*
X123127106Y-90333360D01*
X123129518Y-90319683D01*
X123170077Y-90184204D01*
X123215731Y-90025739D01*
X123222180Y-90010167D01*
X123227907Y-89991041D01*
X123283171Y-89862924D01*
X123342320Y-89720126D01*
X123353471Y-89699948D01*
X123363784Y-89676042D01*
X123431659Y-89558477D01*
X123502331Y-89430608D01*
X123519264Y-89406742D01*
X123535311Y-89378949D01*
X123613595Y-89273795D01*
X123693745Y-89160834D01*
X123717386Y-89134378D01*
X123740169Y-89103777D01*
X123826667Y-89012093D01*
X123914174Y-88914174D01*
X123945253Y-88886399D01*
X123975587Y-88854248D01*
X124068041Y-88776669D01*
X124160834Y-88693745D01*
X124199906Y-88666021D01*
X124238382Y-88633737D01*
X124334574Y-88570469D01*
X124430608Y-88502331D01*
X124477991Y-88476143D01*
X124525000Y-88445225D01*
X124622845Y-88396085D01*
X124720126Y-88342320D01*
X124775904Y-88319215D01*
X124831565Y-88291262D01*
X124929058Y-88255777D01*
X125025739Y-88215731D01*
X125089762Y-88197286D01*
X125153930Y-88173931D01*
X125249220Y-88151346D01*
X125343608Y-88124154D01*
X125415479Y-88111942D01*
X125487738Y-88094817D01*
X125579178Y-88084129D01*
X125669730Y-88068744D01*
X125748799Y-88064303D01*
X125828473Y-88054991D01*
X125914619Y-88054991D01*
X126000000Y-88050196D01*
X126085381Y-88054991D01*
X126171527Y-88054991D01*
X126251201Y-88064303D01*
X126330269Y-88068744D01*
X126420817Y-88084128D01*
X126512262Y-88094817D01*
X126584523Y-88111943D01*
X126656391Y-88124154D01*
X126750773Y-88151345D01*
X126846070Y-88173931D01*
X126910241Y-88197287D01*
X126974260Y-88215731D01*
X127070935Y-88255775D01*
X127168435Y-88291262D01*
X127224096Y-88319216D01*
X127279874Y-88342320D01*
X127372022Y-88393247D01*
X127495000Y-88320702D01*
X127495000Y-51679296D01*
X127372020Y-51606752D01*
X127279869Y-51657681D01*
X127224108Y-51680777D01*
X127168435Y-51708738D01*
X127070915Y-51744232D01*
X126974260Y-51784268D01*
X126910254Y-51802707D01*
X126846070Y-51826069D01*
X126750754Y-51848659D01*
X126656391Y-51875845D01*
X126584538Y-51888053D01*
X126512262Y-51905183D01*
X126420798Y-51915873D01*
X126330269Y-51931255D01*
X126251217Y-51935694D01*
X126171527Y-51945009D01*
X126085363Y-51945009D01*
X126000000Y-51949803D01*
X125914637Y-51945009D01*
X125828473Y-51945009D01*
X125748783Y-51935694D01*
X125669730Y-51931255D01*
X125579197Y-51915873D01*
X125487738Y-51905183D01*
X125415464Y-51888053D01*
X125343608Y-51875845D01*
X125249240Y-51848657D01*
X125153930Y-51826069D01*
X125089748Y-51802709D01*
X125025739Y-51784268D01*
X124929078Y-51744229D01*
X124831565Y-51708738D01*
X124775893Y-51680778D01*
X124720126Y-51657679D01*
X124622865Y-51603924D01*
X124525000Y-51554775D01*
X124477981Y-51523850D01*
X124430608Y-51497668D01*
X124334594Y-51429542D01*
X124238382Y-51366263D01*
X124199899Y-51333972D01*
X124160834Y-51306254D01*
X124068059Y-51223345D01*
X123975587Y-51145752D01*
X123945247Y-51113594D01*
X123914174Y-51085825D01*
X123826684Y-50987924D01*
X123740169Y-50896223D01*
X123717382Y-50865615D01*
X123693745Y-50839165D01*
X123613610Y-50726225D01*
X123535311Y-50621051D01*
X123519261Y-50593252D01*
X123502331Y-50569391D01*
X123431672Y-50441544D01*
X123363784Y-50323958D01*
X123353469Y-50300047D01*
X123342320Y-50279873D01*
X123283181Y-50137100D01*
X123227907Y-50008959D01*
X123222179Y-49989828D01*
X123215731Y-49974260D01*
X123170085Y-49815820D01*
X123129518Y-49680317D01*
X123127105Y-49666637D01*
X123124154Y-49656391D01*
X123093854Y-49478060D01*
X123069947Y-49342474D01*
X123069492Y-49334676D01*
X123068744Y-49330269D01*
X123055478Y-49094069D01*
X123050000Y-49000000D01*
X123055478Y-48905937D01*
X123068744Y-48669730D01*
X123069492Y-48665322D01*
X123069947Y-48657526D01*
X123093849Y-48521965D01*
X123124154Y-48343608D01*
X123127106Y-48333360D01*
X123129518Y-48319683D01*
X123170077Y-48184204D01*
X123215731Y-48025739D01*
X123222180Y-48010167D01*
X123227907Y-47991041D01*
X123283166Y-47862934D01*
X123342318Y-47720130D01*
X123353470Y-47699950D01*
X123363784Y-47676042D01*
X123392381Y-47626510D01*
X123320704Y-47505000D01*
X86679296Y-47505000D01*
X86607618Y-47626510D01*
X86636216Y-47676042D01*
X86646531Y-47699957D01*
X86657681Y-47720130D01*
X86716808Y-47862876D01*
X86772093Y-47991041D01*
X86777821Y-48010176D01*
X86784268Y-48025739D01*
X86829895Y-48184115D01*
X86870482Y-48319683D01*
X86872895Y-48333369D01*
X86875845Y-48343608D01*
X86906122Y-48521810D01*
X86930053Y-48657526D01*
X86930507Y-48665331D01*
X86931255Y-48669730D01*
X86944493Y-48905457D01*
X86950000Y-49000000D01*
X86944493Y-49094549D01*
X86931255Y-49330269D01*
X86930507Y-49334667D01*
X86930053Y-49342474D01*
X86906117Y-49478216D01*
X86875845Y-49656391D01*
X86872895Y-49666628D01*
X86870482Y-49680317D01*
X86829888Y-49815909D01*
X86784268Y-49974260D01*
X86777822Y-49989819D01*
X86772093Y-50008959D01*
X86716793Y-50137158D01*
X86657679Y-50279873D01*
X86646533Y-50300039D01*
X86636216Y-50323958D01*
X86568303Y-50441585D01*
X86497668Y-50569391D01*
X86480743Y-50593244D01*
X86464689Y-50621051D01*
X86386368Y-50726253D01*
X86306254Y-50839165D01*
X86282622Y-50865608D01*
X86259831Y-50896223D01*
X86173296Y-50987944D01*
X86085825Y-51085825D01*
X86054757Y-51113588D01*
X86024413Y-51145752D01*
X85931924Y-51223359D01*
X85839165Y-51306254D01*
X85800106Y-51333967D01*
X85761618Y-51366263D01*
X85665392Y-51429551D01*
X85569391Y-51497668D01*
X85522023Y-51523847D01*
X85475000Y-51554775D01*
X85377123Y-51603930D01*
X85279873Y-51657679D01*
X85224111Y-51680776D01*
X85168435Y-51708738D01*
X85070913Y-51744232D01*
X84974260Y-51784268D01*
X84910254Y-51802707D01*
X84846070Y-51826069D01*
X84750754Y-51848659D01*
X84656391Y-51875845D01*
X84584538Y-51888053D01*
X84512262Y-51905183D01*
X84420798Y-51915873D01*
X84330269Y-51931255D01*
X84251217Y-51935694D01*
X84171527Y-51945009D01*
X84085363Y-51945009D01*
X84000000Y-51949803D01*
X83914637Y-51945009D01*
X83828473Y-51945009D01*
X83748783Y-51935694D01*
X83669730Y-51931255D01*
X83579197Y-51915873D01*
X83487738Y-51905183D01*
X83415464Y-51888053D01*
X83343608Y-51875845D01*
X83249240Y-51848657D01*
X83153930Y-51826069D01*
X83089748Y-51802709D01*
X83025739Y-51784268D01*
X82929076Y-51744229D01*
X82831565Y-51708738D01*
X82775896Y-51680780D01*
X82720130Y-51657681D01*
X82627980Y-51606752D01*
X82505000Y-51679296D01*
X79995000Y-51679296D01*
X79995000Y-45017973D01*
X80000000Y-45000942D01*
X80000000Y-45000000D01*
X80000405Y-45000000D01*
X80003742Y-44997109D01*
X80013438Y-44995000D01*
X129982027Y-44995000D01*
X129999056Y-45000000D01*
G37*
D10*
X80000000Y-95000000D02*
X80000000Y-45000000D01*
X130000000Y-95000000D02*
X80000000Y-95000000D01*
X130000000Y-45000000D02*
X130000000Y-95000000D01*
X80000000Y-45000000D02*
X130000000Y-45000000D01*
M02*
