G04 #@! TF.FileFunction,Copper,L2,Bot,Signal*
%FSLAX46Y46*%
G04 Gerber Fmt 4.6, Leading zero omitted, Abs format (unit mm)*
G04 Created by KiCad (PCBNEW 4.0.7) date 01/05/18 16:32:01*
%MOMM*%
%LPD*%
G01*
G04 APERTURE LIST*
%ADD10C,0.100000*%
%ADD11C,0.600000*%
%ADD12R,1.600000X2.000000*%
%ADD13R,1.500000X1.250000*%
%ADD14R,1.250000X1.500000*%
%ADD15R,2.500000X3.750000*%
%ADD16R,2.600000X2.000000*%
%ADD17O,2.600000X2.000000*%
%ADD18C,5.500000*%
%ADD19C,1.998980*%
%ADD20C,2.499360*%
%ADD21R,1.500000X4.000000*%
%ADD22C,2.500000*%
%ADD23R,1.300000X1.500000*%
%ADD24C,1.800000*%
%ADD25R,2.000000X3.500000*%
%ADD26R,7.000000X7.000000*%
%ADD27R,0.508000X1.143000*%
%ADD28C,1.440000*%
%ADD29R,2.300000X3.500000*%
%ADD30C,1.500000*%
%ADD31C,0.250000*%
%ADD32C,1.000000*%
%ADD33C,0.700000*%
%ADD34C,0.600000*%
%ADD35C,0.254000*%
G04 APERTURE END LIST*
D10*
D11*
X128000000Y-87000000D03*
X127000000Y-87000000D03*
X126000000Y-87000000D03*
X125000000Y-87000000D03*
X124000000Y-87000000D03*
X123000000Y-87000000D03*
X122000000Y-87000000D03*
X128000000Y-86000000D03*
X127000000Y-86000000D03*
X126000000Y-86000000D03*
X125000000Y-86000000D03*
X124000000Y-86000000D03*
X123000000Y-86000000D03*
X122000000Y-86000000D03*
X128000000Y-85000000D03*
X127000000Y-85000000D03*
X126000000Y-85000000D03*
X125000000Y-85000000D03*
X124000000Y-85000000D03*
X123000000Y-85000000D03*
X122000000Y-85000000D03*
X128000000Y-84000000D03*
X127000000Y-84000000D03*
X126000000Y-84000000D03*
X125000000Y-84000000D03*
X124000000Y-84000000D03*
X123000000Y-84000000D03*
X122000000Y-84000000D03*
X128000000Y-83000000D03*
X127000000Y-83000000D03*
X126000000Y-83000000D03*
X125000000Y-83000000D03*
X124000000Y-83000000D03*
X123000000Y-83000000D03*
X122000000Y-83000000D03*
X128000000Y-82000000D03*
X127000000Y-82000000D03*
X126000000Y-82000000D03*
X125000000Y-82000000D03*
X124000000Y-82000000D03*
X123000000Y-82000000D03*
X122000000Y-82000000D03*
X128000000Y-81000000D03*
X127000000Y-81000000D03*
X126000000Y-81000000D03*
X125000000Y-81000000D03*
X124000000Y-81000000D03*
X123000000Y-81000000D03*
X122000000Y-81000000D03*
X128000000Y-80000000D03*
X127000000Y-80000000D03*
X126000000Y-80000000D03*
X125000000Y-80000000D03*
X124000000Y-80000000D03*
X123000000Y-80000000D03*
X122000000Y-80000000D03*
X128000000Y-79000000D03*
X127000000Y-79000000D03*
X126000000Y-79000000D03*
X125000000Y-79000000D03*
X124000000Y-79000000D03*
X123000000Y-79000000D03*
X122000000Y-79000000D03*
X128000000Y-78000000D03*
X127000000Y-78000000D03*
X126000000Y-78000000D03*
X125000000Y-78000000D03*
X124000000Y-78000000D03*
X123000000Y-78000000D03*
X122000000Y-78000000D03*
X128000000Y-77000000D03*
X127000000Y-77000000D03*
X126000000Y-77000000D03*
X125000000Y-77000000D03*
X124000000Y-77000000D03*
X123000000Y-77000000D03*
X122000000Y-77000000D03*
X128000000Y-76000000D03*
X127000000Y-76000000D03*
X126000000Y-76000000D03*
X125000000Y-76000000D03*
X124000000Y-76000000D03*
X123000000Y-76000000D03*
X122000000Y-76000000D03*
X128000000Y-75000000D03*
X127000000Y-75000000D03*
X126000000Y-75000000D03*
X125000000Y-75000000D03*
X124000000Y-75000000D03*
X123000000Y-75000000D03*
X122000000Y-75000000D03*
X128000000Y-74000000D03*
X127000000Y-74000000D03*
X126000000Y-74000000D03*
X125000000Y-74000000D03*
X124000000Y-74000000D03*
X123000000Y-74000000D03*
X95000000Y-94000000D03*
X94000000Y-94000000D03*
X93000000Y-94000000D03*
X92000000Y-94000000D03*
X91000000Y-94000000D03*
X90000000Y-94000000D03*
X89000000Y-94000000D03*
X88000000Y-94000000D03*
X95000000Y-93000000D03*
X94000000Y-93000000D03*
X93000000Y-93000000D03*
X92000000Y-93000000D03*
X91000000Y-93000000D03*
X90000000Y-93000000D03*
X89000000Y-93000000D03*
X88000000Y-93000000D03*
X95000000Y-92000000D03*
X94000000Y-92000000D03*
X93000000Y-92000000D03*
X92000000Y-92000000D03*
X91000000Y-92000000D03*
X90000000Y-92000000D03*
X89000000Y-92000000D03*
X88000000Y-92000000D03*
X95000000Y-91000000D03*
X94000000Y-91000000D03*
X93000000Y-91000000D03*
X92000000Y-91000000D03*
X91000000Y-91000000D03*
X90000000Y-91000000D03*
X89000000Y-91000000D03*
X88000000Y-91000000D03*
X95000000Y-90000000D03*
X94000000Y-90000000D03*
X93000000Y-90000000D03*
X92000000Y-90000000D03*
X91000000Y-90000000D03*
X90000000Y-90000000D03*
X89000000Y-90000000D03*
X88000000Y-90000000D03*
X95000000Y-89000000D03*
X94000000Y-89000000D03*
X93000000Y-89000000D03*
X92000000Y-89000000D03*
X91000000Y-89000000D03*
X90000000Y-89000000D03*
X89000000Y-89000000D03*
X88000000Y-89000000D03*
X95000000Y-88000000D03*
X94000000Y-88000000D03*
X93000000Y-88000000D03*
X92000000Y-88000000D03*
X91000000Y-88000000D03*
X90000000Y-88000000D03*
X89000000Y-88000000D03*
X111000000Y-94000000D03*
X110000000Y-94000000D03*
X109000000Y-94000000D03*
X108000000Y-94000000D03*
X107000000Y-94000000D03*
X106000000Y-94000000D03*
X105000000Y-94000000D03*
X111000000Y-93000000D03*
X110000000Y-93000000D03*
X109000000Y-93000000D03*
X108000000Y-93000000D03*
X107000000Y-93000000D03*
X106000000Y-93000000D03*
X105000000Y-93000000D03*
X111000000Y-92000000D03*
X110000000Y-92000000D03*
X109000000Y-92000000D03*
X108000000Y-92000000D03*
X107000000Y-92000000D03*
X106000000Y-92000000D03*
X105000000Y-92000000D03*
X111000000Y-91000000D03*
X110000000Y-91000000D03*
X109000000Y-91000000D03*
X108000000Y-91000000D03*
X107000000Y-91000000D03*
X106000000Y-91000000D03*
X105000000Y-91000000D03*
X111000000Y-90000000D03*
X110000000Y-90000000D03*
X109000000Y-90000000D03*
X108000000Y-90000000D03*
X107000000Y-90000000D03*
X106000000Y-90000000D03*
X105000000Y-90000000D03*
X111000000Y-89000000D03*
X110000000Y-89000000D03*
X109000000Y-89000000D03*
X108000000Y-89000000D03*
X107000000Y-89000000D03*
X106000000Y-89000000D03*
X105000000Y-89000000D03*
X111000000Y-88000000D03*
X110000000Y-88000000D03*
X109000000Y-88000000D03*
X108000000Y-88000000D03*
X107000000Y-88000000D03*
X106000000Y-88000000D03*
X105000000Y-88000000D03*
X111000000Y-87000000D03*
X110000000Y-87000000D03*
X109000000Y-87000000D03*
X108000000Y-87000000D03*
X107000000Y-87000000D03*
X106000000Y-87000000D03*
X105000000Y-87000000D03*
X111000000Y-86000000D03*
X110000000Y-86000000D03*
X109000000Y-86000000D03*
X108000000Y-86000000D03*
X107000000Y-86000000D03*
X106000000Y-86000000D03*
X87000000Y-87000000D03*
X86000000Y-87000000D03*
X85000000Y-87000000D03*
X84000000Y-87000000D03*
X83000000Y-87000000D03*
X82000000Y-87000000D03*
X81000000Y-87000000D03*
X87000000Y-86000000D03*
X86000000Y-86000000D03*
X85000000Y-86000000D03*
X84000000Y-86000000D03*
X83000000Y-86000000D03*
X82000000Y-86000000D03*
X81000000Y-86000000D03*
X87000000Y-85000000D03*
X86000000Y-85000000D03*
X85000000Y-85000000D03*
X84000000Y-85000000D03*
X83000000Y-85000000D03*
X82000000Y-85000000D03*
X81000000Y-85000000D03*
X87000000Y-84000000D03*
X86000000Y-84000000D03*
X85000000Y-84000000D03*
X84000000Y-84000000D03*
X83000000Y-84000000D03*
X82000000Y-84000000D03*
X81000000Y-84000000D03*
X87000000Y-83000000D03*
X86000000Y-83000000D03*
X85000000Y-83000000D03*
X84000000Y-83000000D03*
X83000000Y-83000000D03*
X82000000Y-83000000D03*
X81000000Y-83000000D03*
X87000000Y-82000000D03*
X86000000Y-82000000D03*
X85000000Y-82000000D03*
X84000000Y-82000000D03*
X83000000Y-82000000D03*
X82000000Y-82000000D03*
X81000000Y-82000000D03*
X87000000Y-81000000D03*
X86000000Y-81000000D03*
X85000000Y-81000000D03*
X84000000Y-81000000D03*
X83000000Y-81000000D03*
X82000000Y-81000000D03*
X81000000Y-81000000D03*
X87000000Y-80000000D03*
X86000000Y-80000000D03*
X85000000Y-80000000D03*
X84000000Y-80000000D03*
X83000000Y-80000000D03*
X82000000Y-80000000D03*
X81000000Y-80000000D03*
X87000000Y-79000000D03*
X86000000Y-79000000D03*
X85000000Y-79000000D03*
X84000000Y-79000000D03*
X83000000Y-79000000D03*
X82000000Y-79000000D03*
X81000000Y-79000000D03*
X87000000Y-78000000D03*
X86000000Y-78000000D03*
X85000000Y-78000000D03*
X84000000Y-78000000D03*
X83000000Y-78000000D03*
X82000000Y-78000000D03*
X81000000Y-78000000D03*
X87000000Y-77000000D03*
X86000000Y-77000000D03*
X85000000Y-77000000D03*
X84000000Y-77000000D03*
X83000000Y-77000000D03*
X82000000Y-77000000D03*
X81000000Y-77000000D03*
X87000000Y-76000000D03*
X86000000Y-76000000D03*
X85000000Y-76000000D03*
X84000000Y-76000000D03*
X83000000Y-76000000D03*
X82000000Y-76000000D03*
X81000000Y-76000000D03*
X87000000Y-75000000D03*
X86000000Y-75000000D03*
X85000000Y-75000000D03*
X84000000Y-75000000D03*
X83000000Y-75000000D03*
X82000000Y-75000000D03*
X81000000Y-75000000D03*
X87000000Y-74000000D03*
X86000000Y-74000000D03*
X85000000Y-74000000D03*
X84000000Y-74000000D03*
X83000000Y-74000000D03*
X82000000Y-74000000D03*
X81000000Y-74000000D03*
X87000000Y-73000000D03*
X86000000Y-73000000D03*
X85000000Y-73000000D03*
X84000000Y-73000000D03*
X83000000Y-73000000D03*
X82000000Y-73000000D03*
X81000000Y-73000000D03*
X87000000Y-72000000D03*
X86000000Y-72000000D03*
X85000000Y-72000000D03*
X84000000Y-72000000D03*
X83000000Y-72000000D03*
X82000000Y-72000000D03*
X81000000Y-72000000D03*
X87000000Y-71000000D03*
X86000000Y-71000000D03*
X85000000Y-71000000D03*
X84000000Y-71000000D03*
X83000000Y-71000000D03*
X82000000Y-71000000D03*
X81000000Y-71000000D03*
X87000000Y-70000000D03*
X86000000Y-70000000D03*
X85000000Y-70000000D03*
X84000000Y-70000000D03*
X83000000Y-70000000D03*
X82000000Y-70000000D03*
X81000000Y-70000000D03*
X87000000Y-69000000D03*
X86000000Y-69000000D03*
X85000000Y-69000000D03*
X84000000Y-69000000D03*
X83000000Y-69000000D03*
X82000000Y-69000000D03*
X81000000Y-69000000D03*
X87000000Y-68000000D03*
X86000000Y-68000000D03*
X85000000Y-68000000D03*
X84000000Y-68000000D03*
X83000000Y-68000000D03*
X82000000Y-68000000D03*
X81000000Y-68000000D03*
X87000000Y-67000000D03*
X86000000Y-67000000D03*
X85000000Y-67000000D03*
X84000000Y-67000000D03*
X83000000Y-67000000D03*
X82000000Y-67000000D03*
X81000000Y-67000000D03*
X87000000Y-66000000D03*
X86000000Y-66000000D03*
X85000000Y-66000000D03*
X84000000Y-66000000D03*
X83000000Y-66000000D03*
X82000000Y-66000000D03*
X81000000Y-66000000D03*
X87000000Y-65000000D03*
X86000000Y-65000000D03*
X85000000Y-65000000D03*
X84000000Y-65000000D03*
X83000000Y-65000000D03*
X82000000Y-65000000D03*
X81000000Y-65000000D03*
X87000000Y-64000000D03*
X86000000Y-64000000D03*
X85000000Y-64000000D03*
X84000000Y-64000000D03*
X83000000Y-64000000D03*
X82000000Y-64000000D03*
X81000000Y-64000000D03*
X87000000Y-63000000D03*
X86000000Y-63000000D03*
X85000000Y-63000000D03*
X84000000Y-63000000D03*
X83000000Y-63000000D03*
X82000000Y-63000000D03*
X81000000Y-63000000D03*
X87000000Y-62000000D03*
X86000000Y-62000000D03*
X85000000Y-62000000D03*
X84000000Y-62000000D03*
X83000000Y-62000000D03*
X82000000Y-62000000D03*
X81000000Y-62000000D03*
X87000000Y-61000000D03*
X86000000Y-61000000D03*
X85000000Y-61000000D03*
X84000000Y-61000000D03*
X83000000Y-61000000D03*
X82000000Y-61000000D03*
X81000000Y-61000000D03*
X87000000Y-60000000D03*
X86000000Y-60000000D03*
X85000000Y-60000000D03*
X84000000Y-60000000D03*
X83000000Y-60000000D03*
X82000000Y-60000000D03*
X81000000Y-60000000D03*
X87000000Y-59000000D03*
X86000000Y-59000000D03*
X85000000Y-59000000D03*
X84000000Y-59000000D03*
X83000000Y-59000000D03*
X82000000Y-59000000D03*
X81000000Y-59000000D03*
X87000000Y-58000000D03*
X86000000Y-58000000D03*
X85000000Y-58000000D03*
X84000000Y-58000000D03*
X83000000Y-58000000D03*
X82000000Y-58000000D03*
X81000000Y-58000000D03*
X87000000Y-57000000D03*
X86000000Y-57000000D03*
X85000000Y-57000000D03*
X84000000Y-57000000D03*
X83000000Y-57000000D03*
X82000000Y-57000000D03*
X81000000Y-57000000D03*
X87000000Y-56000000D03*
X86000000Y-56000000D03*
X85000000Y-56000000D03*
X84000000Y-56000000D03*
X83000000Y-56000000D03*
X82000000Y-56000000D03*
X81000000Y-56000000D03*
X87000000Y-55000000D03*
X86000000Y-55000000D03*
X85000000Y-55000000D03*
X84000000Y-55000000D03*
X83000000Y-55000000D03*
X82000000Y-55000000D03*
X81000000Y-55000000D03*
X87000000Y-54000000D03*
X86000000Y-54000000D03*
X85000000Y-54000000D03*
X84000000Y-54000000D03*
X83000000Y-54000000D03*
X82000000Y-54000000D03*
X81000000Y-54000000D03*
X87000000Y-53000000D03*
X86000000Y-53000000D03*
X85000000Y-53000000D03*
X84000000Y-53000000D03*
X83000000Y-53000000D03*
X82000000Y-53000000D03*
D12*
X114000000Y-61000000D03*
X114000000Y-57000000D03*
D13*
X97250000Y-65000000D03*
X94750000Y-65000000D03*
D12*
X94000000Y-61000000D03*
X94000000Y-57000000D03*
D14*
X114000000Y-69250000D03*
X114000000Y-66750000D03*
D15*
X100000000Y-61125000D03*
X100000000Y-54875000D03*
D16*
X125250000Y-70500000D03*
D17*
X125250000Y-67960000D03*
D18*
X126000000Y-49000000D03*
D19*
X100000000Y-90000000D03*
D20*
X102540000Y-87460000D03*
X102540000Y-92540000D03*
X97460000Y-92540000D03*
X97460000Y-87460000D03*
D18*
X84000000Y-49000000D03*
X126000000Y-91000000D03*
X84000000Y-91000000D03*
D21*
X102540000Y-93000000D03*
X97460000Y-93000000D03*
D22*
X97475000Y-50475000D03*
X116525000Y-50475000D03*
X116525000Y-69525000D03*
X97475000Y-69525000D03*
X107000000Y-69525000D03*
D23*
X114000000Y-79350000D03*
X114000000Y-76650000D03*
X114500000Y-90850000D03*
X114500000Y-88150000D03*
D24*
X117000000Y-78000000D03*
X114460000Y-85620000D03*
X117000000Y-90700000D03*
D25*
X109290000Y-60700000D03*
X104710000Y-60700000D03*
D26*
X106990000Y-53300000D03*
D27*
X105095000Y-82175000D03*
X106365000Y-82175000D03*
X107635000Y-82175000D03*
X108905000Y-82175000D03*
X108905000Y-75825000D03*
X107635000Y-75825000D03*
X106365000Y-75825000D03*
X105095000Y-75825000D03*
D28*
X117000000Y-83000000D03*
X119540000Y-85540000D03*
X117000000Y-88080000D03*
X117000000Y-88100000D03*
X117000000Y-85460000D03*
X117000000Y-83000000D03*
D29*
X120000000Y-60700000D03*
X120000000Y-55300000D03*
D11*
X81000000Y-53000000D03*
X105000000Y-86000000D03*
X88000000Y-88000000D03*
X122000000Y-74000000D03*
X127500000Y-72500000D03*
X127500000Y-67500000D03*
X127500000Y-62500000D03*
X127500000Y-57500000D03*
X127500000Y-52500000D03*
X97000000Y-85000000D03*
X97000000Y-84000000D03*
X96000000Y-83000000D03*
X95000000Y-82000000D03*
X95000000Y-81000000D03*
X95000000Y-80000000D03*
X95000000Y-79000000D03*
X95000000Y-78000000D03*
X95000000Y-77000000D03*
X95000000Y-76000000D03*
X95000000Y-75000000D03*
X95000000Y-74000000D03*
X95000000Y-73000000D03*
X95000000Y-72000000D03*
X95000000Y-71000000D03*
X95000000Y-70000000D03*
X95000000Y-69000000D03*
X95000000Y-68000000D03*
X96000000Y-67000000D03*
X97000000Y-67000000D03*
X98000000Y-67000000D03*
X99000000Y-67000000D03*
X100000000Y-68000000D03*
X100000000Y-69000000D03*
X100000000Y-70000000D03*
X100000000Y-71000000D03*
X100000000Y-72000000D03*
X100000000Y-73000000D03*
X100000000Y-74000000D03*
X100000000Y-75000000D03*
X100000000Y-76000000D03*
X100000000Y-77000000D03*
X100000000Y-78000000D03*
X100000000Y-79000000D03*
X100000000Y-80000000D03*
X101000000Y-81000000D03*
X102000000Y-82000000D03*
X102000000Y-83000000D03*
X102000000Y-84000000D03*
X102000000Y-85000000D03*
X102000000Y-86000000D03*
X102500000Y-57000000D03*
X102500000Y-55000000D03*
X102500000Y-53000000D03*
X102500000Y-51000000D03*
X102500000Y-49000000D03*
X104500000Y-49000000D03*
X106500000Y-49000000D03*
X108500000Y-49000000D03*
X110500000Y-49000000D03*
X111500000Y-51000000D03*
X111500000Y-53000000D03*
X111500000Y-55000000D03*
X111500000Y-57000000D03*
X92500000Y-47500000D03*
X100000000Y-47500000D03*
X107500000Y-47500000D03*
X115000000Y-47500000D03*
X122500000Y-47500000D03*
X84000000Y-91000000D03*
D30*
X114000000Y-61000000D02*
X119700000Y-61000000D01*
X119700000Y-61000000D02*
X120000000Y-60700000D01*
X114065000Y-60935000D02*
X114000000Y-61000000D01*
X109290000Y-60700000D02*
X113700000Y-60700000D01*
X113700000Y-60700000D02*
X114000000Y-61000000D01*
D31*
X126000000Y-49000000D02*
X126000000Y-51000000D01*
X126000000Y-51000000D02*
X127500000Y-52500000D01*
X127500000Y-67500000D02*
X127500000Y-72500000D01*
X127500000Y-57500000D02*
X127500000Y-62500000D01*
X97460000Y-85460000D02*
X97460000Y-87460000D01*
X97000000Y-85000000D02*
X97460000Y-85460000D01*
X96000000Y-83000000D02*
X97000000Y-84000000D01*
X95000000Y-81000000D02*
X95000000Y-82000000D01*
X95000000Y-79000000D02*
X95000000Y-80000000D01*
X95000000Y-77000000D02*
X95000000Y-78000000D01*
X95000000Y-75000000D02*
X95000000Y-76000000D01*
X95000000Y-73000000D02*
X95000000Y-74000000D01*
X95000000Y-71000000D02*
X95000000Y-72000000D01*
X95000000Y-69000000D02*
X95000000Y-70000000D01*
X96000000Y-67000000D02*
X95000000Y-68000000D01*
X98000000Y-67000000D02*
X97000000Y-67000000D01*
X100000000Y-68000000D02*
X99000000Y-67000000D01*
X100000000Y-70000000D02*
X100000000Y-69000000D01*
X100000000Y-72000000D02*
X100000000Y-71000000D01*
X100000000Y-74000000D02*
X100000000Y-73000000D01*
X100000000Y-76000000D02*
X100000000Y-75000000D01*
X100000000Y-78000000D02*
X100000000Y-77000000D01*
X100000000Y-80000000D02*
X100000000Y-79000000D01*
X102000000Y-82000000D02*
X101000000Y-81000000D01*
X102000000Y-84000000D02*
X102000000Y-83000000D01*
X102000000Y-86000000D02*
X102000000Y-85000000D01*
D32*
X97460000Y-92540000D02*
X97460000Y-87460000D01*
X102540000Y-92540000D02*
X102540000Y-87460000D01*
D31*
X106990000Y-53300000D02*
X106200000Y-53300000D01*
X106200000Y-53300000D02*
X102500000Y-57000000D01*
X102500000Y-55000000D02*
X102500000Y-53000000D01*
X102500000Y-51000000D02*
X102500000Y-49000000D01*
X104500000Y-49000000D02*
X106500000Y-49000000D01*
X108500000Y-49000000D02*
X110500000Y-49000000D01*
X111500000Y-51000000D02*
X111500000Y-53000000D01*
X111500000Y-55000000D02*
X111500000Y-57000000D01*
X84000000Y-91000000D02*
X86000000Y-91000000D01*
X91000000Y-49000000D02*
X84000000Y-49000000D01*
X92500000Y-47500000D02*
X91000000Y-49000000D01*
X107500000Y-47500000D02*
X100000000Y-47500000D01*
X122500000Y-47500000D02*
X115000000Y-47500000D01*
X126000000Y-91000000D02*
X126000000Y-89000000D01*
X84000000Y-49000000D02*
X84000000Y-51000000D01*
D32*
X107025000Y-69500000D02*
X107000000Y-69525000D01*
X97250000Y-65000000D02*
X97250000Y-63875000D01*
X97250000Y-63875000D02*
X100000000Y-61125000D01*
X107000000Y-75825000D02*
X107000000Y-74500000D01*
X102500000Y-70000000D02*
X102500000Y-60700000D01*
X107000000Y-74500000D02*
X102500000Y-70000000D01*
D33*
X107635000Y-75825000D02*
X107000000Y-75825000D01*
X107000000Y-75825000D02*
X106365000Y-75825000D01*
D30*
X98500000Y-61125000D02*
X94125000Y-61125000D01*
X94125000Y-61125000D02*
X94000000Y-61000000D01*
X97475000Y-50475000D02*
X97475000Y-51775000D01*
X97875000Y-61125000D02*
X98500000Y-61125000D01*
X98500000Y-61125000D02*
X100000000Y-61125000D01*
X96500000Y-59750000D02*
X97875000Y-61125000D01*
X96500000Y-52750000D02*
X96500000Y-59750000D01*
X97475000Y-51775000D02*
X96500000Y-52750000D01*
X104710000Y-60700000D02*
X102500000Y-60700000D01*
X102500000Y-60700000D02*
X100425000Y-60700000D01*
X100425000Y-60700000D02*
X100000000Y-61125000D01*
X117000000Y-85460000D02*
X119460000Y-85460000D01*
X114460000Y-85620000D02*
X116840000Y-85620000D01*
X116840000Y-85620000D02*
X117000000Y-85460000D01*
D32*
X114620000Y-85460000D02*
X114460000Y-85620000D01*
X119460000Y-85460000D02*
X119540000Y-85540000D01*
X116525000Y-69525000D02*
X114275000Y-69525000D01*
X114275000Y-69525000D02*
X114000000Y-69250000D01*
X116500000Y-69500000D02*
X116525000Y-69525000D01*
D30*
X125250000Y-67960000D02*
X125250000Y-57250000D01*
X123300000Y-55300000D02*
X120000000Y-55300000D01*
X125250000Y-57250000D02*
X123300000Y-55300000D01*
D34*
X107635000Y-82175000D02*
X107635000Y-80365000D01*
D32*
X108650000Y-79350000D02*
X108000000Y-80000000D01*
X108650000Y-79350000D02*
X114000000Y-79350000D01*
D34*
X107635000Y-80365000D02*
X108000000Y-80000000D01*
D30*
X117000000Y-83000000D02*
X117000000Y-78000000D01*
D32*
X114000000Y-76650000D02*
X115650000Y-76650000D01*
X115650000Y-76650000D02*
X117000000Y-78000000D01*
D30*
X117000000Y-88100000D02*
X117000000Y-90700000D01*
D32*
X114500000Y-90850000D02*
X116850000Y-90850000D01*
X116850000Y-90850000D02*
X117000000Y-90700000D01*
D35*
G36*
X82089629Y-46125620D02*
X82075487Y-46135068D01*
X81763339Y-46583734D01*
X84000000Y-48820395D01*
X86236661Y-46583734D01*
X85924513Y-46135068D01*
X84905417Y-45710000D01*
X125100059Y-45710000D01*
X124089629Y-46125620D01*
X124075487Y-46135068D01*
X123763339Y-46583734D01*
X126000000Y-48820395D01*
X128236661Y-46583734D01*
X127924513Y-46135068D01*
X126905417Y-45710000D01*
X129290000Y-45710000D01*
X129290000Y-48100059D01*
X128874380Y-47089629D01*
X128864932Y-47075487D01*
X128416266Y-46763339D01*
X126179605Y-49000000D01*
X128416266Y-51236661D01*
X128864932Y-50924513D01*
X129290000Y-49905417D01*
X129290000Y-90100059D01*
X128874380Y-89089629D01*
X128864932Y-89075487D01*
X128416266Y-88763339D01*
X126179605Y-91000000D01*
X128416266Y-93236661D01*
X128864932Y-92924513D01*
X129290000Y-91905417D01*
X129290000Y-94290000D01*
X126899941Y-94290000D01*
X127910371Y-93874380D01*
X127924513Y-93864932D01*
X128236661Y-93416266D01*
X126000000Y-91179605D01*
X123763339Y-93416266D01*
X124075487Y-93864932D01*
X125094583Y-94290000D01*
X103925000Y-94290000D01*
X103925000Y-93869038D01*
X103986823Y-93807215D01*
X103925000Y-93745392D01*
X103925000Y-93670573D01*
X104165859Y-93564275D01*
X104434071Y-92864117D01*
X104413928Y-92114616D01*
X104165859Y-91515725D01*
X103925000Y-91409427D01*
X103925000Y-91334608D01*
X103986823Y-91272785D01*
X103925000Y-91210962D01*
X103925000Y-90873691D01*
X103828327Y-90640302D01*
X103649699Y-90461673D01*
X103416310Y-90365000D01*
X102825750Y-90365000D01*
X102667000Y-90523750D01*
X102667000Y-90651227D01*
X102413000Y-90658053D01*
X102413000Y-90523750D01*
X102254250Y-90365000D01*
X101663690Y-90365000D01*
X101608798Y-90387737D01*
X101634206Y-90326547D01*
X101634774Y-89676306D01*
X101386462Y-89075345D01*
X101104698Y-88793089D01*
X101386517Y-88793089D01*
X101515725Y-89085859D01*
X102215883Y-89354071D01*
X102965384Y-89333928D01*
X103564275Y-89085859D01*
X103693483Y-88793089D01*
X102540000Y-87639605D01*
X101386517Y-88793089D01*
X101104698Y-88793089D01*
X100927073Y-88615154D01*
X100326547Y-88365794D01*
X99676306Y-88365226D01*
X99075345Y-88613538D01*
X98615154Y-89072927D01*
X98365794Y-89673453D01*
X98365226Y-90323694D01*
X98391788Y-90387980D01*
X98336310Y-90365000D01*
X97745750Y-90365000D01*
X97587000Y-90523750D01*
X97587000Y-90651227D01*
X97333000Y-90658053D01*
X97333000Y-90523750D01*
X97174250Y-90365000D01*
X96583690Y-90365000D01*
X96350301Y-90461673D01*
X96171673Y-90640302D01*
X96075000Y-90873691D01*
X96075000Y-91210962D01*
X96013177Y-91272785D01*
X96075000Y-91334608D01*
X96075000Y-91409427D01*
X95834141Y-91515725D01*
X95565929Y-92215883D01*
X95586072Y-92965384D01*
X95834141Y-93564275D01*
X96075000Y-93670573D01*
X96075000Y-93745392D01*
X96013177Y-93807215D01*
X96075000Y-93869038D01*
X96075000Y-94290000D01*
X84899941Y-94290000D01*
X85910371Y-93874380D01*
X85924513Y-93864932D01*
X86236661Y-93416266D01*
X84000000Y-91179605D01*
X81763339Y-93416266D01*
X82075487Y-93864932D01*
X83094583Y-94290000D01*
X80710000Y-94290000D01*
X80710000Y-91899941D01*
X81125620Y-92910371D01*
X81135068Y-92924513D01*
X81583734Y-93236661D01*
X83820395Y-91000000D01*
X84179605Y-91000000D01*
X86416266Y-93236661D01*
X86864932Y-92924513D01*
X87383331Y-91681657D01*
X87386648Y-90335024D01*
X86874380Y-89089629D01*
X86864932Y-89075487D01*
X86459028Y-88793089D01*
X96306517Y-88793089D01*
X96435725Y-89085859D01*
X97135883Y-89354071D01*
X97885384Y-89333928D01*
X98484275Y-89085859D01*
X98613483Y-88793089D01*
X97460000Y-87639605D01*
X96306517Y-88793089D01*
X86459028Y-88793089D01*
X86416266Y-88763339D01*
X84179605Y-91000000D01*
X83820395Y-91000000D01*
X81583734Y-88763339D01*
X81135068Y-89075487D01*
X80710000Y-90094583D01*
X80710000Y-88583734D01*
X81763339Y-88583734D01*
X84000000Y-90820395D01*
X86236661Y-88583734D01*
X85924513Y-88135068D01*
X84681657Y-87616669D01*
X83335024Y-87613352D01*
X82089629Y-88125620D01*
X82075487Y-88135068D01*
X81763339Y-88583734D01*
X80710000Y-88583734D01*
X80710000Y-87135883D01*
X95565929Y-87135883D01*
X95586072Y-87885384D01*
X95834141Y-88484275D01*
X96126911Y-88613483D01*
X97280395Y-87460000D01*
X97639605Y-87460000D01*
X98793089Y-88613483D01*
X99085859Y-88484275D01*
X99354071Y-87784117D01*
X99336650Y-87135883D01*
X100645929Y-87135883D01*
X100666072Y-87885384D01*
X100914141Y-88484275D01*
X101206911Y-88613483D01*
X102360395Y-87460000D01*
X102719605Y-87460000D01*
X103873089Y-88613483D01*
X104165859Y-88484275D01*
X104434071Y-87784117D01*
X104413928Y-87034616D01*
X104165859Y-86435725D01*
X103873089Y-86306517D01*
X102719605Y-87460000D01*
X102360395Y-87460000D01*
X101206911Y-86306517D01*
X100914141Y-86435725D01*
X100645929Y-87135883D01*
X99336650Y-87135883D01*
X99333928Y-87034616D01*
X99085859Y-86435725D01*
X98793089Y-86306517D01*
X97639605Y-87460000D01*
X97280395Y-87460000D01*
X96126911Y-86306517D01*
X95834141Y-86435725D01*
X95565929Y-87135883D01*
X80710000Y-87135883D01*
X80710000Y-86126911D01*
X96306517Y-86126911D01*
X97460000Y-87280395D01*
X98613483Y-86126911D01*
X101386517Y-86126911D01*
X102540000Y-87280395D01*
X103693483Y-86126911D01*
X103564275Y-85834141D01*
X102864117Y-85565929D01*
X102114616Y-85586072D01*
X101515725Y-85834141D01*
X101386517Y-86126911D01*
X98613483Y-86126911D01*
X98484275Y-85834141D01*
X97784117Y-85565929D01*
X97034616Y-85586072D01*
X96435725Y-85834141D01*
X96306517Y-86126911D01*
X80710000Y-86126911D01*
X80710000Y-82460750D01*
X104206000Y-82460750D01*
X104206000Y-82872810D01*
X104302673Y-83106199D01*
X104481302Y-83284827D01*
X104714691Y-83381500D01*
X104809250Y-83381500D01*
X104968000Y-83222750D01*
X104968000Y-82302000D01*
X105222000Y-82302000D01*
X105222000Y-83222750D01*
X105380750Y-83381500D01*
X105475309Y-83381500D01*
X105708698Y-83284827D01*
X105730000Y-83263525D01*
X105751302Y-83284827D01*
X105984691Y-83381500D01*
X106079250Y-83381500D01*
X106238000Y-83222750D01*
X106238000Y-82302000D01*
X105222000Y-82302000D01*
X104968000Y-82302000D01*
X104364750Y-82302000D01*
X104206000Y-82460750D01*
X80710000Y-82460750D01*
X80710000Y-81477190D01*
X104206000Y-81477190D01*
X104206000Y-81889250D01*
X104364750Y-82048000D01*
X104968000Y-82048000D01*
X104968000Y-81127250D01*
X105222000Y-81127250D01*
X105222000Y-82048000D01*
X106238000Y-82048000D01*
X106238000Y-81127250D01*
X106492000Y-81127250D01*
X106492000Y-82048000D01*
X106512000Y-82048000D01*
X106512000Y-82302000D01*
X106492000Y-82302000D01*
X106492000Y-83222750D01*
X106650750Y-83381500D01*
X106745309Y-83381500D01*
X106978698Y-83284827D01*
X107005235Y-83258291D01*
X107129110Y-83342931D01*
X107381000Y-83393940D01*
X107889000Y-83393940D01*
X108124317Y-83349662D01*
X108270907Y-83255334D01*
X108399110Y-83342931D01*
X108651000Y-83393940D01*
X109159000Y-83393940D01*
X109394317Y-83349662D01*
X109610441Y-83210590D01*
X109755431Y-82998390D01*
X109806440Y-82746500D01*
X109806440Y-81603500D01*
X109762162Y-81368183D01*
X109623090Y-81152059D01*
X109410890Y-81007069D01*
X109159000Y-80956060D01*
X108651000Y-80956060D01*
X108570000Y-80971301D01*
X108570000Y-80957961D01*
X108802566Y-80802566D01*
X109120132Y-80485000D01*
X112843156Y-80485000D01*
X112885910Y-80551441D01*
X113098110Y-80696431D01*
X113350000Y-80747440D01*
X114650000Y-80747440D01*
X114885317Y-80703162D01*
X115101441Y-80564090D01*
X115246431Y-80351890D01*
X115297440Y-80100000D01*
X115297440Y-78600000D01*
X115253162Y-78364683D01*
X115114090Y-78148559D01*
X114901890Y-78003569D01*
X114888803Y-78000919D01*
X115101441Y-77864090D01*
X115155481Y-77785000D01*
X115179868Y-77785000D01*
X115464939Y-78070071D01*
X115464735Y-78303991D01*
X115615000Y-78667660D01*
X115615000Y-83000000D01*
X115644868Y-83150158D01*
X115644765Y-83268344D01*
X115690296Y-83378536D01*
X115720427Y-83530017D01*
X115805485Y-83657315D01*
X115850617Y-83766543D01*
X115934849Y-83850922D01*
X116020657Y-83979343D01*
X116147957Y-84064402D01*
X116231452Y-84148043D01*
X116341561Y-84193764D01*
X116395792Y-84230000D01*
X116388309Y-84235000D01*
X115127267Y-84235000D01*
X114766670Y-84085267D01*
X114156009Y-84084735D01*
X113591629Y-84317932D01*
X113159449Y-84749357D01*
X112925267Y-85313330D01*
X112924735Y-85923991D01*
X113157932Y-86488371D01*
X113518798Y-86849869D01*
X113490301Y-86861673D01*
X113311673Y-87040302D01*
X113215000Y-87273691D01*
X113215000Y-87864250D01*
X113373750Y-88023000D01*
X114373000Y-88023000D01*
X114373000Y-88003000D01*
X114627000Y-88003000D01*
X114627000Y-88023000D01*
X114647000Y-88023000D01*
X114647000Y-88277000D01*
X114627000Y-88277000D01*
X114627000Y-88297000D01*
X114373000Y-88297000D01*
X114373000Y-88277000D01*
X113373750Y-88277000D01*
X113215000Y-88435750D01*
X113215000Y-89026309D01*
X113311673Y-89259698D01*
X113490301Y-89438327D01*
X113626287Y-89494654D01*
X113614683Y-89496838D01*
X113398559Y-89635910D01*
X113253569Y-89848110D01*
X113202560Y-90100000D01*
X113202560Y-91600000D01*
X113246838Y-91835317D01*
X113385910Y-92051441D01*
X113598110Y-92196431D01*
X113850000Y-92247440D01*
X115150000Y-92247440D01*
X115385317Y-92203162D01*
X115601441Y-92064090D01*
X115655481Y-91985000D01*
X116113833Y-91985000D01*
X116129357Y-92000551D01*
X116693330Y-92234733D01*
X117303991Y-92235265D01*
X117868371Y-92002068D01*
X118206052Y-91664976D01*
X122613352Y-91664976D01*
X123125620Y-92910371D01*
X123135068Y-92924513D01*
X123583734Y-93236661D01*
X125820395Y-91000000D01*
X123583734Y-88763339D01*
X123135068Y-89075487D01*
X122616669Y-90318343D01*
X122613352Y-91664976D01*
X118206052Y-91664976D01*
X118300551Y-91570643D01*
X118534733Y-91006670D01*
X118535265Y-90396009D01*
X118385000Y-90032340D01*
X118385000Y-88583734D01*
X123763339Y-88583734D01*
X126000000Y-90820395D01*
X128236661Y-88583734D01*
X127924513Y-88135068D01*
X126681657Y-87616669D01*
X125335024Y-87613352D01*
X124089629Y-88125620D01*
X124075487Y-88135068D01*
X123763339Y-88583734D01*
X118385000Y-88583734D01*
X118385000Y-88100000D01*
X118355132Y-87949842D01*
X118355235Y-87831656D01*
X118355218Y-87831614D01*
X118355235Y-87811656D01*
X118302033Y-87682898D01*
X118279573Y-87569983D01*
X118216170Y-87475094D01*
X118149383Y-87313457D01*
X118024736Y-87188592D01*
X117979343Y-87120657D01*
X117912001Y-87075661D01*
X117768548Y-86931957D01*
X117579369Y-86853403D01*
X117566793Y-86845000D01*
X119149446Y-86845000D01*
X119269291Y-86894764D01*
X119808344Y-86895235D01*
X120306543Y-86689383D01*
X120688043Y-86308548D01*
X120894764Y-85810709D01*
X120895235Y-85271656D01*
X120689383Y-84773457D01*
X120524869Y-84608656D01*
X120439343Y-84480657D01*
X120312462Y-84395878D01*
X120308548Y-84391957D01*
X120303386Y-84389814D01*
X119990017Y-84180427D01*
X119460000Y-84075000D01*
X117841056Y-84075000D01*
X117850922Y-84065151D01*
X117979343Y-83979343D01*
X118064402Y-83852043D01*
X118148043Y-83768548D01*
X118193764Y-83658439D01*
X118279573Y-83530017D01*
X118309442Y-83379857D01*
X118354764Y-83270709D01*
X118354868Y-83151483D01*
X118385000Y-83000000D01*
X118385000Y-78667267D01*
X118534733Y-78306670D01*
X118535265Y-77696009D01*
X118302068Y-77131629D01*
X117870643Y-76699449D01*
X117306670Y-76465267D01*
X117070193Y-76465061D01*
X116452566Y-75847434D01*
X116228922Y-75698000D01*
X116084346Y-75601397D01*
X115650000Y-75515000D01*
X115156844Y-75515000D01*
X115114090Y-75448559D01*
X114901890Y-75303569D01*
X114650000Y-75252560D01*
X113350000Y-75252560D01*
X113114683Y-75296838D01*
X112898559Y-75435910D01*
X112753569Y-75648110D01*
X112702560Y-75900000D01*
X112702560Y-77400000D01*
X112746838Y-77635317D01*
X112885910Y-77851441D01*
X113098110Y-77996431D01*
X113111197Y-77999081D01*
X112898559Y-78135910D01*
X112844519Y-78215000D01*
X108650000Y-78215000D01*
X108215654Y-78301397D01*
X107847434Y-78547434D01*
X107197434Y-79197434D01*
X106951397Y-79565655D01*
X106902735Y-79810294D01*
X106771173Y-80007191D01*
X106700000Y-80365000D01*
X106700000Y-80968500D01*
X106650750Y-80968500D01*
X106492000Y-81127250D01*
X106238000Y-81127250D01*
X106079250Y-80968500D01*
X105984691Y-80968500D01*
X105751302Y-81065173D01*
X105730000Y-81086475D01*
X105708698Y-81065173D01*
X105475309Y-80968500D01*
X105380750Y-80968500D01*
X105222000Y-81127250D01*
X104968000Y-81127250D01*
X104809250Y-80968500D01*
X104714691Y-80968500D01*
X104481302Y-81065173D01*
X104302673Y-81243801D01*
X104206000Y-81477190D01*
X80710000Y-81477190D01*
X80710000Y-76110750D01*
X104206000Y-76110750D01*
X104206000Y-76522810D01*
X104302673Y-76756199D01*
X104481302Y-76934827D01*
X104714691Y-77031500D01*
X104809250Y-77031500D01*
X104968000Y-76872750D01*
X104968000Y-75952000D01*
X104364750Y-75952000D01*
X104206000Y-76110750D01*
X80710000Y-76110750D01*
X80710000Y-75127190D01*
X104206000Y-75127190D01*
X104206000Y-75539250D01*
X104364750Y-75698000D01*
X104968000Y-75698000D01*
X104968000Y-74777250D01*
X104809250Y-74618500D01*
X104714691Y-74618500D01*
X104481302Y-74715173D01*
X104302673Y-74893801D01*
X104206000Y-75127190D01*
X80710000Y-75127190D01*
X80710000Y-69898305D01*
X95589674Y-69898305D01*
X95876043Y-70591372D01*
X96405839Y-71122093D01*
X97098405Y-71409672D01*
X97848305Y-71410326D01*
X98541372Y-71123957D01*
X99072093Y-70594161D01*
X99359672Y-69901595D01*
X99360326Y-69151695D01*
X99073957Y-68458628D01*
X98544161Y-67927907D01*
X97851595Y-67640328D01*
X97101695Y-67639674D01*
X96408628Y-67926043D01*
X95877907Y-68455839D01*
X95590328Y-69148405D01*
X95589674Y-69898305D01*
X80710000Y-69898305D01*
X80710000Y-65285750D01*
X93365000Y-65285750D01*
X93365000Y-65751310D01*
X93461673Y-65984699D01*
X93640302Y-66163327D01*
X93873691Y-66260000D01*
X94464250Y-66260000D01*
X94623000Y-66101250D01*
X94623000Y-65127000D01*
X93523750Y-65127000D01*
X93365000Y-65285750D01*
X80710000Y-65285750D01*
X80710000Y-64248690D01*
X93365000Y-64248690D01*
X93365000Y-64714250D01*
X93523750Y-64873000D01*
X94623000Y-64873000D01*
X94623000Y-63898750D01*
X94464250Y-63740000D01*
X93873691Y-63740000D01*
X93640302Y-63836673D01*
X93461673Y-64015301D01*
X93365000Y-64248690D01*
X80710000Y-64248690D01*
X80710000Y-60000000D01*
X92552560Y-60000000D01*
X92552560Y-62000000D01*
X92596838Y-62235317D01*
X92735910Y-62451441D01*
X92948110Y-62596431D01*
X93200000Y-62647440D01*
X94800000Y-62647440D01*
X95035317Y-62603162D01*
X95180095Y-62510000D01*
X97009868Y-62510000D01*
X96447434Y-63072434D01*
X96201397Y-63440654D01*
X96116561Y-63867152D01*
X96048559Y-63910910D01*
X96002031Y-63979006D01*
X95859698Y-63836673D01*
X95626309Y-63740000D01*
X95035750Y-63740000D01*
X94877000Y-63898750D01*
X94877000Y-64873000D01*
X94897000Y-64873000D01*
X94897000Y-65127000D01*
X94877000Y-65127000D01*
X94877000Y-66101250D01*
X95035750Y-66260000D01*
X95626309Y-66260000D01*
X95859698Y-66163327D01*
X96000936Y-66022090D01*
X96035910Y-66076441D01*
X96248110Y-66221431D01*
X96500000Y-66272440D01*
X98000000Y-66272440D01*
X98235317Y-66228162D01*
X98451441Y-66089090D01*
X98596431Y-65876890D01*
X98647440Y-65625000D01*
X98647440Y-64375000D01*
X98603162Y-64139683D01*
X98598184Y-64131948D01*
X99082692Y-63647440D01*
X101250000Y-63647440D01*
X101365000Y-63625801D01*
X101365000Y-70000000D01*
X101451397Y-70434346D01*
X101686198Y-70785750D01*
X101697434Y-70802566D01*
X105540280Y-74645412D01*
X105475309Y-74618500D01*
X105380750Y-74618500D01*
X105222000Y-74777250D01*
X105222000Y-75698000D01*
X105242000Y-75698000D01*
X105242000Y-75952000D01*
X105222000Y-75952000D01*
X105222000Y-76872750D01*
X105380750Y-77031500D01*
X105475309Y-77031500D01*
X105708698Y-76934827D01*
X105735235Y-76908291D01*
X105859110Y-76992931D01*
X106111000Y-77043940D01*
X106619000Y-77043940D01*
X106854317Y-76999662D01*
X106935799Y-76947230D01*
X107000000Y-76960000D01*
X107062670Y-76947534D01*
X107129110Y-76992931D01*
X107381000Y-77043940D01*
X107889000Y-77043940D01*
X108124317Y-76999662D01*
X108265371Y-76908896D01*
X108291302Y-76934827D01*
X108524691Y-77031500D01*
X108619250Y-77031500D01*
X108778000Y-76872750D01*
X108778000Y-75952000D01*
X109032000Y-75952000D01*
X109032000Y-76872750D01*
X109190750Y-77031500D01*
X109285309Y-77031500D01*
X109518698Y-76934827D01*
X109697327Y-76756199D01*
X109794000Y-76522810D01*
X109794000Y-76110750D01*
X109635250Y-75952000D01*
X109032000Y-75952000D01*
X108778000Y-75952000D01*
X108758000Y-75952000D01*
X108758000Y-75698000D01*
X108778000Y-75698000D01*
X108778000Y-74777250D01*
X109032000Y-74777250D01*
X109032000Y-75698000D01*
X109635250Y-75698000D01*
X109794000Y-75539250D01*
X109794000Y-75127190D01*
X109697327Y-74893801D01*
X109518698Y-74715173D01*
X109285309Y-74618500D01*
X109190750Y-74618500D01*
X109032000Y-74777250D01*
X108778000Y-74777250D01*
X108619250Y-74618500D01*
X108524691Y-74618500D01*
X108291302Y-74715173D01*
X108264765Y-74741709D01*
X108140890Y-74657069D01*
X108135000Y-74655876D01*
X108135000Y-74500000D01*
X108048603Y-74065654D01*
X107802566Y-73697434D01*
X104963452Y-70858320D01*
X105846285Y-70858320D01*
X105975533Y-71151123D01*
X106675806Y-71419388D01*
X107425435Y-71399250D01*
X108024467Y-71151123D01*
X108153715Y-70858320D01*
X107000000Y-69704605D01*
X105846285Y-70858320D01*
X104963452Y-70858320D01*
X103635000Y-69529868D01*
X103635000Y-69200806D01*
X105105612Y-69200806D01*
X105125750Y-69950435D01*
X105373877Y-70549467D01*
X105666680Y-70678715D01*
X106820395Y-69525000D01*
X107179605Y-69525000D01*
X108333320Y-70678715D01*
X108626123Y-70549467D01*
X108894388Y-69849194D01*
X108874250Y-69099565D01*
X108626123Y-68500533D01*
X108624916Y-68500000D01*
X112727560Y-68500000D01*
X112727560Y-70000000D01*
X112771838Y-70235317D01*
X112910910Y-70451441D01*
X113123110Y-70596431D01*
X113375000Y-70647440D01*
X114211857Y-70647440D01*
X114275000Y-70660000D01*
X114994551Y-70660000D01*
X115455839Y-71122093D01*
X116148405Y-71409672D01*
X116898305Y-71410326D01*
X117591372Y-71123957D01*
X117930169Y-70785750D01*
X123315000Y-70785750D01*
X123315000Y-71626309D01*
X123411673Y-71859698D01*
X123590301Y-72038327D01*
X123823690Y-72135000D01*
X124964250Y-72135000D01*
X125123000Y-71976250D01*
X125123000Y-70627000D01*
X125377000Y-70627000D01*
X125377000Y-71976250D01*
X125535750Y-72135000D01*
X126676310Y-72135000D01*
X126909699Y-72038327D01*
X127088327Y-71859698D01*
X127185000Y-71626309D01*
X127185000Y-70785750D01*
X127026250Y-70627000D01*
X125377000Y-70627000D01*
X125123000Y-70627000D01*
X123473750Y-70627000D01*
X123315000Y-70785750D01*
X117930169Y-70785750D01*
X118122093Y-70594161D01*
X118409672Y-69901595D01*
X118410326Y-69151695D01*
X118123957Y-68458628D01*
X117594161Y-67927907D01*
X116901595Y-67640328D01*
X116151695Y-67639674D01*
X115458628Y-67926043D01*
X115185622Y-68198573D01*
X115089090Y-68048559D01*
X115020994Y-68002031D01*
X115163327Y-67859698D01*
X115260000Y-67626309D01*
X115260000Y-67035750D01*
X115101250Y-66877000D01*
X114127000Y-66877000D01*
X114127000Y-66897000D01*
X113873000Y-66897000D01*
X113873000Y-66877000D01*
X112898750Y-66877000D01*
X112740000Y-67035750D01*
X112740000Y-67626309D01*
X112836673Y-67859698D01*
X112977910Y-68000936D01*
X112923559Y-68035910D01*
X112778569Y-68248110D01*
X112727560Y-68500000D01*
X108624916Y-68500000D01*
X108333320Y-68371285D01*
X107179605Y-69525000D01*
X106820395Y-69525000D01*
X105666680Y-68371285D01*
X105373877Y-68500533D01*
X105105612Y-69200806D01*
X103635000Y-69200806D01*
X103635000Y-68191680D01*
X105846285Y-68191680D01*
X107000000Y-69345395D01*
X108153715Y-68191680D01*
X108024467Y-67898877D01*
X107324194Y-67630612D01*
X106574565Y-67650750D01*
X105975533Y-67898877D01*
X105846285Y-68191680D01*
X103635000Y-68191680D01*
X103635000Y-65873691D01*
X112740000Y-65873691D01*
X112740000Y-66464250D01*
X112898750Y-66623000D01*
X113873000Y-66623000D01*
X113873000Y-65523750D01*
X114127000Y-65523750D01*
X114127000Y-66623000D01*
X115101250Y-66623000D01*
X115260000Y-66464250D01*
X115260000Y-65873691D01*
X115163327Y-65640302D01*
X114984699Y-65461673D01*
X114751310Y-65365000D01*
X114285750Y-65365000D01*
X114127000Y-65523750D01*
X113873000Y-65523750D01*
X113714250Y-65365000D01*
X113248690Y-65365000D01*
X113015301Y-65461673D01*
X112836673Y-65640302D01*
X112740000Y-65873691D01*
X103635000Y-65873691D01*
X103635000Y-63082252D01*
X103710000Y-63097440D01*
X105710000Y-63097440D01*
X105945317Y-63053162D01*
X106161441Y-62914090D01*
X106306431Y-62701890D01*
X106357440Y-62450000D01*
X106357440Y-58950000D01*
X107642560Y-58950000D01*
X107642560Y-62450000D01*
X107686838Y-62685317D01*
X107825910Y-62901441D01*
X108038110Y-63046431D01*
X108290000Y-63097440D01*
X110290000Y-63097440D01*
X110525317Y-63053162D01*
X110741441Y-62914090D01*
X110886431Y-62701890D01*
X110937440Y-62450000D01*
X110937440Y-62085000D01*
X112568554Y-62085000D01*
X112596838Y-62235317D01*
X112735910Y-62451441D01*
X112948110Y-62596431D01*
X113200000Y-62647440D01*
X114800000Y-62647440D01*
X115035317Y-62603162D01*
X115251441Y-62464090D01*
X115305481Y-62385000D01*
X118202560Y-62385000D01*
X118202560Y-62450000D01*
X118246838Y-62685317D01*
X118385910Y-62901441D01*
X118598110Y-63046431D01*
X118850000Y-63097440D01*
X121150000Y-63097440D01*
X121385317Y-63053162D01*
X121601441Y-62914090D01*
X121746431Y-62701890D01*
X121797440Y-62450000D01*
X121797440Y-58950000D01*
X121753162Y-58714683D01*
X121614090Y-58498559D01*
X121401890Y-58353569D01*
X121150000Y-58302560D01*
X118850000Y-58302560D01*
X118614683Y-58346838D01*
X118398559Y-58485910D01*
X118253569Y-58698110D01*
X118202560Y-58950000D01*
X118202560Y-59615000D01*
X115306844Y-59615000D01*
X115264090Y-59548559D01*
X115051890Y-59403569D01*
X114800000Y-59352560D01*
X113888827Y-59352560D01*
X113700000Y-59315000D01*
X110937440Y-59315000D01*
X110937440Y-58950000D01*
X110893162Y-58714683D01*
X110754090Y-58498559D01*
X110541890Y-58353569D01*
X110290000Y-58302560D01*
X108290000Y-58302560D01*
X108054683Y-58346838D01*
X107838559Y-58485910D01*
X107693569Y-58698110D01*
X107642560Y-58950000D01*
X106357440Y-58950000D01*
X106313162Y-58714683D01*
X106174090Y-58498559D01*
X105961890Y-58353569D01*
X105710000Y-58302560D01*
X103710000Y-58302560D01*
X103474683Y-58346838D01*
X103258559Y-58485910D01*
X103113569Y-58698110D01*
X103062560Y-58950000D01*
X103062560Y-59315000D01*
X101897440Y-59315000D01*
X101897440Y-59250000D01*
X101853162Y-59014683D01*
X101714090Y-58798559D01*
X101501890Y-58653569D01*
X101250000Y-58602560D01*
X98750000Y-58602560D01*
X98514683Y-58646838D01*
X98298559Y-58785910D01*
X98153569Y-58998110D01*
X98102560Y-59250000D01*
X98102560Y-59393874D01*
X97885000Y-59176314D01*
X97885000Y-55160750D01*
X98115000Y-55160750D01*
X98115000Y-56876309D01*
X98211673Y-57109698D01*
X98390301Y-57288327D01*
X98623690Y-57385000D01*
X99714250Y-57385000D01*
X99873000Y-57226250D01*
X99873000Y-55002000D01*
X100127000Y-55002000D01*
X100127000Y-57226250D01*
X100285750Y-57385000D01*
X101376310Y-57385000D01*
X101609699Y-57288327D01*
X101788327Y-57109698D01*
X101885000Y-56876309D01*
X101885000Y-55160750D01*
X101726250Y-55002000D01*
X100127000Y-55002000D01*
X99873000Y-55002000D01*
X98273750Y-55002000D01*
X98115000Y-55160750D01*
X97885000Y-55160750D01*
X97885000Y-53323686D01*
X98115000Y-53093686D01*
X98115000Y-54589250D01*
X98273750Y-54748000D01*
X99873000Y-54748000D01*
X99873000Y-52523750D01*
X100127000Y-52523750D01*
X100127000Y-54748000D01*
X101726250Y-54748000D01*
X101885000Y-54589250D01*
X101885000Y-53585750D01*
X102855000Y-53585750D01*
X102855000Y-56926310D01*
X102951673Y-57159699D01*
X103130302Y-57338327D01*
X103363691Y-57435000D01*
X106704250Y-57435000D01*
X106863000Y-57276250D01*
X106863000Y-53427000D01*
X107117000Y-53427000D01*
X107117000Y-57276250D01*
X107275750Y-57435000D01*
X110616309Y-57435000D01*
X110849698Y-57338327D01*
X110902275Y-57285750D01*
X112565000Y-57285750D01*
X112565000Y-58126309D01*
X112661673Y-58359698D01*
X112840301Y-58538327D01*
X113073690Y-58635000D01*
X113714250Y-58635000D01*
X113873000Y-58476250D01*
X113873000Y-57127000D01*
X114127000Y-57127000D01*
X114127000Y-58476250D01*
X114285750Y-58635000D01*
X114926310Y-58635000D01*
X115159699Y-58538327D01*
X115338327Y-58359698D01*
X115435000Y-58126309D01*
X115435000Y-57285750D01*
X115276250Y-57127000D01*
X114127000Y-57127000D01*
X113873000Y-57127000D01*
X112723750Y-57127000D01*
X112565000Y-57285750D01*
X110902275Y-57285750D01*
X111028327Y-57159699D01*
X111125000Y-56926310D01*
X111125000Y-55873691D01*
X112565000Y-55873691D01*
X112565000Y-56714250D01*
X112723750Y-56873000D01*
X113873000Y-56873000D01*
X113873000Y-55523750D01*
X114127000Y-55523750D01*
X114127000Y-56873000D01*
X115276250Y-56873000D01*
X115435000Y-56714250D01*
X115435000Y-55873691D01*
X115338327Y-55640302D01*
X115159699Y-55461673D01*
X114926310Y-55365000D01*
X114285750Y-55365000D01*
X114127000Y-55523750D01*
X113873000Y-55523750D01*
X113714250Y-55365000D01*
X113073690Y-55365000D01*
X112840301Y-55461673D01*
X112661673Y-55640302D01*
X112565000Y-55873691D01*
X111125000Y-55873691D01*
X111125000Y-53585750D01*
X111089250Y-53550000D01*
X118202560Y-53550000D01*
X118202560Y-57050000D01*
X118246838Y-57285317D01*
X118385910Y-57501441D01*
X118598110Y-57646431D01*
X118850000Y-57697440D01*
X121150000Y-57697440D01*
X121385317Y-57653162D01*
X121601441Y-57514090D01*
X121746431Y-57301890D01*
X121797440Y-57050000D01*
X121797440Y-56685000D01*
X122726314Y-56685000D01*
X123865000Y-57823686D01*
X123865000Y-66731029D01*
X123755971Y-66803880D01*
X123401548Y-67334313D01*
X123277091Y-67960000D01*
X123401548Y-68585687D01*
X123639231Y-68941406D01*
X123590301Y-68961673D01*
X123411673Y-69140302D01*
X123315000Y-69373691D01*
X123315000Y-70214250D01*
X123473750Y-70373000D01*
X125123000Y-70373000D01*
X125123000Y-70353000D01*
X125377000Y-70353000D01*
X125377000Y-70373000D01*
X127026250Y-70373000D01*
X127185000Y-70214250D01*
X127185000Y-69373691D01*
X127088327Y-69140302D01*
X126909699Y-68961673D01*
X126860769Y-68941406D01*
X127098452Y-68585687D01*
X127222909Y-67960000D01*
X127098452Y-67334313D01*
X126744029Y-66803880D01*
X126635000Y-66731029D01*
X126635000Y-57250000D01*
X126529573Y-56719983D01*
X126229343Y-56270657D01*
X124279343Y-54320657D01*
X123830017Y-54020427D01*
X123300000Y-53915000D01*
X121797440Y-53915000D01*
X121797440Y-53550000D01*
X121753162Y-53314683D01*
X121614090Y-53098559D01*
X121401890Y-52953569D01*
X121150000Y-52902560D01*
X118850000Y-52902560D01*
X118614683Y-52946838D01*
X118398559Y-53085910D01*
X118253569Y-53298110D01*
X118202560Y-53550000D01*
X111089250Y-53550000D01*
X110966250Y-53427000D01*
X107117000Y-53427000D01*
X106863000Y-53427000D01*
X103013750Y-53427000D01*
X102855000Y-53585750D01*
X101885000Y-53585750D01*
X101885000Y-52873691D01*
X101788327Y-52640302D01*
X101609699Y-52461673D01*
X101376310Y-52365000D01*
X100285750Y-52365000D01*
X100127000Y-52523750D01*
X99873000Y-52523750D01*
X99714250Y-52365000D01*
X98714494Y-52365000D01*
X98754573Y-52305017D01*
X98860000Y-51775000D01*
X98860000Y-51755884D01*
X99072093Y-51544161D01*
X99359672Y-50851595D01*
X99360326Y-50101695D01*
X99183479Y-49673690D01*
X102855000Y-49673690D01*
X102855000Y-53014250D01*
X103013750Y-53173000D01*
X106863000Y-53173000D01*
X106863000Y-49323750D01*
X107117000Y-49323750D01*
X107117000Y-53173000D01*
X110966250Y-53173000D01*
X111125000Y-53014250D01*
X111125000Y-50848305D01*
X114639674Y-50848305D01*
X114926043Y-51541372D01*
X115455839Y-52072093D01*
X116148405Y-52359672D01*
X116898305Y-52360326D01*
X117591372Y-52073957D01*
X118122093Y-51544161D01*
X118175199Y-51416266D01*
X123763339Y-51416266D01*
X124075487Y-51864932D01*
X125318343Y-52383331D01*
X126664976Y-52386648D01*
X127910371Y-51874380D01*
X127924513Y-51864932D01*
X128236661Y-51416266D01*
X126000000Y-49179605D01*
X123763339Y-51416266D01*
X118175199Y-51416266D01*
X118409672Y-50851595D01*
X118410326Y-50101695D01*
X118229878Y-49664976D01*
X122613352Y-49664976D01*
X123125620Y-50910371D01*
X123135068Y-50924513D01*
X123583734Y-51236661D01*
X125820395Y-49000000D01*
X123583734Y-46763339D01*
X123135068Y-47075487D01*
X122616669Y-48318343D01*
X122613352Y-49664976D01*
X118229878Y-49664976D01*
X118123957Y-49408628D01*
X117594161Y-48877907D01*
X116901595Y-48590328D01*
X116151695Y-48589674D01*
X115458628Y-48876043D01*
X114927907Y-49405839D01*
X114640328Y-50098405D01*
X114639674Y-50848305D01*
X111125000Y-50848305D01*
X111125000Y-49673690D01*
X111028327Y-49440301D01*
X110849698Y-49261673D01*
X110616309Y-49165000D01*
X107275750Y-49165000D01*
X107117000Y-49323750D01*
X106863000Y-49323750D01*
X106704250Y-49165000D01*
X103363691Y-49165000D01*
X103130302Y-49261673D01*
X102951673Y-49440301D01*
X102855000Y-49673690D01*
X99183479Y-49673690D01*
X99073957Y-49408628D01*
X98544161Y-48877907D01*
X97851595Y-48590328D01*
X97101695Y-48589674D01*
X96408628Y-48876043D01*
X95877907Y-49405839D01*
X95590328Y-50098405D01*
X95589674Y-50848305D01*
X95839173Y-51452141D01*
X95520657Y-51770657D01*
X95220427Y-52219983D01*
X95115000Y-52750000D01*
X95115000Y-55443158D01*
X94926310Y-55365000D01*
X94285750Y-55365000D01*
X94127000Y-55523750D01*
X94127000Y-56873000D01*
X94147000Y-56873000D01*
X94147000Y-57127000D01*
X94127000Y-57127000D01*
X94127000Y-58476250D01*
X94285750Y-58635000D01*
X94926310Y-58635000D01*
X95115000Y-58556842D01*
X95115000Y-59446690D01*
X95051890Y-59403569D01*
X94800000Y-59352560D01*
X93200000Y-59352560D01*
X92964683Y-59396838D01*
X92748559Y-59535910D01*
X92603569Y-59748110D01*
X92552560Y-60000000D01*
X80710000Y-60000000D01*
X80710000Y-57285750D01*
X92565000Y-57285750D01*
X92565000Y-58126309D01*
X92661673Y-58359698D01*
X92840301Y-58538327D01*
X93073690Y-58635000D01*
X93714250Y-58635000D01*
X93873000Y-58476250D01*
X93873000Y-57127000D01*
X92723750Y-57127000D01*
X92565000Y-57285750D01*
X80710000Y-57285750D01*
X80710000Y-55873691D01*
X92565000Y-55873691D01*
X92565000Y-56714250D01*
X92723750Y-56873000D01*
X93873000Y-56873000D01*
X93873000Y-55523750D01*
X93714250Y-55365000D01*
X93073690Y-55365000D01*
X92840301Y-55461673D01*
X92661673Y-55640302D01*
X92565000Y-55873691D01*
X80710000Y-55873691D01*
X80710000Y-51416266D01*
X81763339Y-51416266D01*
X82075487Y-51864932D01*
X83318343Y-52383331D01*
X84664976Y-52386648D01*
X85910371Y-51874380D01*
X85924513Y-51864932D01*
X86236661Y-51416266D01*
X84000000Y-49179605D01*
X81763339Y-51416266D01*
X80710000Y-51416266D01*
X80710000Y-49899941D01*
X81125620Y-50910371D01*
X81135068Y-50924513D01*
X81583734Y-51236661D01*
X83820395Y-49000000D01*
X84179605Y-49000000D01*
X86416266Y-51236661D01*
X86864932Y-50924513D01*
X87383331Y-49681657D01*
X87386648Y-48335024D01*
X86874380Y-47089629D01*
X86864932Y-47075487D01*
X86416266Y-46763339D01*
X84179605Y-49000000D01*
X83820395Y-49000000D01*
X81583734Y-46763339D01*
X81135068Y-47075487D01*
X80710000Y-48094583D01*
X80710000Y-45710000D01*
X83100059Y-45710000D01*
X82089629Y-46125620D01*
X82089629Y-46125620D01*
G37*
X82089629Y-46125620D02*
X82075487Y-46135068D01*
X81763339Y-46583734D01*
X84000000Y-48820395D01*
X86236661Y-46583734D01*
X85924513Y-46135068D01*
X84905417Y-45710000D01*
X125100059Y-45710000D01*
X124089629Y-46125620D01*
X124075487Y-46135068D01*
X123763339Y-46583734D01*
X126000000Y-48820395D01*
X128236661Y-46583734D01*
X127924513Y-46135068D01*
X126905417Y-45710000D01*
X129290000Y-45710000D01*
X129290000Y-48100059D01*
X128874380Y-47089629D01*
X128864932Y-47075487D01*
X128416266Y-46763339D01*
X126179605Y-49000000D01*
X128416266Y-51236661D01*
X128864932Y-50924513D01*
X129290000Y-49905417D01*
X129290000Y-90100059D01*
X128874380Y-89089629D01*
X128864932Y-89075487D01*
X128416266Y-88763339D01*
X126179605Y-91000000D01*
X128416266Y-93236661D01*
X128864932Y-92924513D01*
X129290000Y-91905417D01*
X129290000Y-94290000D01*
X126899941Y-94290000D01*
X127910371Y-93874380D01*
X127924513Y-93864932D01*
X128236661Y-93416266D01*
X126000000Y-91179605D01*
X123763339Y-93416266D01*
X124075487Y-93864932D01*
X125094583Y-94290000D01*
X103925000Y-94290000D01*
X103925000Y-93869038D01*
X103986823Y-93807215D01*
X103925000Y-93745392D01*
X103925000Y-93670573D01*
X104165859Y-93564275D01*
X104434071Y-92864117D01*
X104413928Y-92114616D01*
X104165859Y-91515725D01*
X103925000Y-91409427D01*
X103925000Y-91334608D01*
X103986823Y-91272785D01*
X103925000Y-91210962D01*
X103925000Y-90873691D01*
X103828327Y-90640302D01*
X103649699Y-90461673D01*
X103416310Y-90365000D01*
X102825750Y-90365000D01*
X102667000Y-90523750D01*
X102667000Y-90651227D01*
X102413000Y-90658053D01*
X102413000Y-90523750D01*
X102254250Y-90365000D01*
X101663690Y-90365000D01*
X101608798Y-90387737D01*
X101634206Y-90326547D01*
X101634774Y-89676306D01*
X101386462Y-89075345D01*
X101104698Y-88793089D01*
X101386517Y-88793089D01*
X101515725Y-89085859D01*
X102215883Y-89354071D01*
X102965384Y-89333928D01*
X103564275Y-89085859D01*
X103693483Y-88793089D01*
X102540000Y-87639605D01*
X101386517Y-88793089D01*
X101104698Y-88793089D01*
X100927073Y-88615154D01*
X100326547Y-88365794D01*
X99676306Y-88365226D01*
X99075345Y-88613538D01*
X98615154Y-89072927D01*
X98365794Y-89673453D01*
X98365226Y-90323694D01*
X98391788Y-90387980D01*
X98336310Y-90365000D01*
X97745750Y-90365000D01*
X97587000Y-90523750D01*
X97587000Y-90651227D01*
X97333000Y-90658053D01*
X97333000Y-90523750D01*
X97174250Y-90365000D01*
X96583690Y-90365000D01*
X96350301Y-90461673D01*
X96171673Y-90640302D01*
X96075000Y-90873691D01*
X96075000Y-91210962D01*
X96013177Y-91272785D01*
X96075000Y-91334608D01*
X96075000Y-91409427D01*
X95834141Y-91515725D01*
X95565929Y-92215883D01*
X95586072Y-92965384D01*
X95834141Y-93564275D01*
X96075000Y-93670573D01*
X96075000Y-93745392D01*
X96013177Y-93807215D01*
X96075000Y-93869038D01*
X96075000Y-94290000D01*
X84899941Y-94290000D01*
X85910371Y-93874380D01*
X85924513Y-93864932D01*
X86236661Y-93416266D01*
X84000000Y-91179605D01*
X81763339Y-93416266D01*
X82075487Y-93864932D01*
X83094583Y-94290000D01*
X80710000Y-94290000D01*
X80710000Y-91899941D01*
X81125620Y-92910371D01*
X81135068Y-92924513D01*
X81583734Y-93236661D01*
X83820395Y-91000000D01*
X84179605Y-91000000D01*
X86416266Y-93236661D01*
X86864932Y-92924513D01*
X87383331Y-91681657D01*
X87386648Y-90335024D01*
X86874380Y-89089629D01*
X86864932Y-89075487D01*
X86459028Y-88793089D01*
X96306517Y-88793089D01*
X96435725Y-89085859D01*
X97135883Y-89354071D01*
X97885384Y-89333928D01*
X98484275Y-89085859D01*
X98613483Y-88793089D01*
X97460000Y-87639605D01*
X96306517Y-88793089D01*
X86459028Y-88793089D01*
X86416266Y-88763339D01*
X84179605Y-91000000D01*
X83820395Y-91000000D01*
X81583734Y-88763339D01*
X81135068Y-89075487D01*
X80710000Y-90094583D01*
X80710000Y-88583734D01*
X81763339Y-88583734D01*
X84000000Y-90820395D01*
X86236661Y-88583734D01*
X85924513Y-88135068D01*
X84681657Y-87616669D01*
X83335024Y-87613352D01*
X82089629Y-88125620D01*
X82075487Y-88135068D01*
X81763339Y-88583734D01*
X80710000Y-88583734D01*
X80710000Y-87135883D01*
X95565929Y-87135883D01*
X95586072Y-87885384D01*
X95834141Y-88484275D01*
X96126911Y-88613483D01*
X97280395Y-87460000D01*
X97639605Y-87460000D01*
X98793089Y-88613483D01*
X99085859Y-88484275D01*
X99354071Y-87784117D01*
X99336650Y-87135883D01*
X100645929Y-87135883D01*
X100666072Y-87885384D01*
X100914141Y-88484275D01*
X101206911Y-88613483D01*
X102360395Y-87460000D01*
X102719605Y-87460000D01*
X103873089Y-88613483D01*
X104165859Y-88484275D01*
X104434071Y-87784117D01*
X104413928Y-87034616D01*
X104165859Y-86435725D01*
X103873089Y-86306517D01*
X102719605Y-87460000D01*
X102360395Y-87460000D01*
X101206911Y-86306517D01*
X100914141Y-86435725D01*
X100645929Y-87135883D01*
X99336650Y-87135883D01*
X99333928Y-87034616D01*
X99085859Y-86435725D01*
X98793089Y-86306517D01*
X97639605Y-87460000D01*
X97280395Y-87460000D01*
X96126911Y-86306517D01*
X95834141Y-86435725D01*
X95565929Y-87135883D01*
X80710000Y-87135883D01*
X80710000Y-86126911D01*
X96306517Y-86126911D01*
X97460000Y-87280395D01*
X98613483Y-86126911D01*
X101386517Y-86126911D01*
X102540000Y-87280395D01*
X103693483Y-86126911D01*
X103564275Y-85834141D01*
X102864117Y-85565929D01*
X102114616Y-85586072D01*
X101515725Y-85834141D01*
X101386517Y-86126911D01*
X98613483Y-86126911D01*
X98484275Y-85834141D01*
X97784117Y-85565929D01*
X97034616Y-85586072D01*
X96435725Y-85834141D01*
X96306517Y-86126911D01*
X80710000Y-86126911D01*
X80710000Y-82460750D01*
X104206000Y-82460750D01*
X104206000Y-82872810D01*
X104302673Y-83106199D01*
X104481302Y-83284827D01*
X104714691Y-83381500D01*
X104809250Y-83381500D01*
X104968000Y-83222750D01*
X104968000Y-82302000D01*
X105222000Y-82302000D01*
X105222000Y-83222750D01*
X105380750Y-83381500D01*
X105475309Y-83381500D01*
X105708698Y-83284827D01*
X105730000Y-83263525D01*
X105751302Y-83284827D01*
X105984691Y-83381500D01*
X106079250Y-83381500D01*
X106238000Y-83222750D01*
X106238000Y-82302000D01*
X105222000Y-82302000D01*
X104968000Y-82302000D01*
X104364750Y-82302000D01*
X104206000Y-82460750D01*
X80710000Y-82460750D01*
X80710000Y-81477190D01*
X104206000Y-81477190D01*
X104206000Y-81889250D01*
X104364750Y-82048000D01*
X104968000Y-82048000D01*
X104968000Y-81127250D01*
X105222000Y-81127250D01*
X105222000Y-82048000D01*
X106238000Y-82048000D01*
X106238000Y-81127250D01*
X106492000Y-81127250D01*
X106492000Y-82048000D01*
X106512000Y-82048000D01*
X106512000Y-82302000D01*
X106492000Y-82302000D01*
X106492000Y-83222750D01*
X106650750Y-83381500D01*
X106745309Y-83381500D01*
X106978698Y-83284827D01*
X107005235Y-83258291D01*
X107129110Y-83342931D01*
X107381000Y-83393940D01*
X107889000Y-83393940D01*
X108124317Y-83349662D01*
X108270907Y-83255334D01*
X108399110Y-83342931D01*
X108651000Y-83393940D01*
X109159000Y-83393940D01*
X109394317Y-83349662D01*
X109610441Y-83210590D01*
X109755431Y-82998390D01*
X109806440Y-82746500D01*
X109806440Y-81603500D01*
X109762162Y-81368183D01*
X109623090Y-81152059D01*
X109410890Y-81007069D01*
X109159000Y-80956060D01*
X108651000Y-80956060D01*
X108570000Y-80971301D01*
X108570000Y-80957961D01*
X108802566Y-80802566D01*
X109120132Y-80485000D01*
X112843156Y-80485000D01*
X112885910Y-80551441D01*
X113098110Y-80696431D01*
X113350000Y-80747440D01*
X114650000Y-80747440D01*
X114885317Y-80703162D01*
X115101441Y-80564090D01*
X115246431Y-80351890D01*
X115297440Y-80100000D01*
X115297440Y-78600000D01*
X115253162Y-78364683D01*
X115114090Y-78148559D01*
X114901890Y-78003569D01*
X114888803Y-78000919D01*
X115101441Y-77864090D01*
X115155481Y-77785000D01*
X115179868Y-77785000D01*
X115464939Y-78070071D01*
X115464735Y-78303991D01*
X115615000Y-78667660D01*
X115615000Y-83000000D01*
X115644868Y-83150158D01*
X115644765Y-83268344D01*
X115690296Y-83378536D01*
X115720427Y-83530017D01*
X115805485Y-83657315D01*
X115850617Y-83766543D01*
X115934849Y-83850922D01*
X116020657Y-83979343D01*
X116147957Y-84064402D01*
X116231452Y-84148043D01*
X116341561Y-84193764D01*
X116395792Y-84230000D01*
X116388309Y-84235000D01*
X115127267Y-84235000D01*
X114766670Y-84085267D01*
X114156009Y-84084735D01*
X113591629Y-84317932D01*
X113159449Y-84749357D01*
X112925267Y-85313330D01*
X112924735Y-85923991D01*
X113157932Y-86488371D01*
X113518798Y-86849869D01*
X113490301Y-86861673D01*
X113311673Y-87040302D01*
X113215000Y-87273691D01*
X113215000Y-87864250D01*
X113373750Y-88023000D01*
X114373000Y-88023000D01*
X114373000Y-88003000D01*
X114627000Y-88003000D01*
X114627000Y-88023000D01*
X114647000Y-88023000D01*
X114647000Y-88277000D01*
X114627000Y-88277000D01*
X114627000Y-88297000D01*
X114373000Y-88297000D01*
X114373000Y-88277000D01*
X113373750Y-88277000D01*
X113215000Y-88435750D01*
X113215000Y-89026309D01*
X113311673Y-89259698D01*
X113490301Y-89438327D01*
X113626287Y-89494654D01*
X113614683Y-89496838D01*
X113398559Y-89635910D01*
X113253569Y-89848110D01*
X113202560Y-90100000D01*
X113202560Y-91600000D01*
X113246838Y-91835317D01*
X113385910Y-92051441D01*
X113598110Y-92196431D01*
X113850000Y-92247440D01*
X115150000Y-92247440D01*
X115385317Y-92203162D01*
X115601441Y-92064090D01*
X115655481Y-91985000D01*
X116113833Y-91985000D01*
X116129357Y-92000551D01*
X116693330Y-92234733D01*
X117303991Y-92235265D01*
X117868371Y-92002068D01*
X118206052Y-91664976D01*
X122613352Y-91664976D01*
X123125620Y-92910371D01*
X123135068Y-92924513D01*
X123583734Y-93236661D01*
X125820395Y-91000000D01*
X123583734Y-88763339D01*
X123135068Y-89075487D01*
X122616669Y-90318343D01*
X122613352Y-91664976D01*
X118206052Y-91664976D01*
X118300551Y-91570643D01*
X118534733Y-91006670D01*
X118535265Y-90396009D01*
X118385000Y-90032340D01*
X118385000Y-88583734D01*
X123763339Y-88583734D01*
X126000000Y-90820395D01*
X128236661Y-88583734D01*
X127924513Y-88135068D01*
X126681657Y-87616669D01*
X125335024Y-87613352D01*
X124089629Y-88125620D01*
X124075487Y-88135068D01*
X123763339Y-88583734D01*
X118385000Y-88583734D01*
X118385000Y-88100000D01*
X118355132Y-87949842D01*
X118355235Y-87831656D01*
X118355218Y-87831614D01*
X118355235Y-87811656D01*
X118302033Y-87682898D01*
X118279573Y-87569983D01*
X118216170Y-87475094D01*
X118149383Y-87313457D01*
X118024736Y-87188592D01*
X117979343Y-87120657D01*
X117912001Y-87075661D01*
X117768548Y-86931957D01*
X117579369Y-86853403D01*
X117566793Y-86845000D01*
X119149446Y-86845000D01*
X119269291Y-86894764D01*
X119808344Y-86895235D01*
X120306543Y-86689383D01*
X120688043Y-86308548D01*
X120894764Y-85810709D01*
X120895235Y-85271656D01*
X120689383Y-84773457D01*
X120524869Y-84608656D01*
X120439343Y-84480657D01*
X120312462Y-84395878D01*
X120308548Y-84391957D01*
X120303386Y-84389814D01*
X119990017Y-84180427D01*
X119460000Y-84075000D01*
X117841056Y-84075000D01*
X117850922Y-84065151D01*
X117979343Y-83979343D01*
X118064402Y-83852043D01*
X118148043Y-83768548D01*
X118193764Y-83658439D01*
X118279573Y-83530017D01*
X118309442Y-83379857D01*
X118354764Y-83270709D01*
X118354868Y-83151483D01*
X118385000Y-83000000D01*
X118385000Y-78667267D01*
X118534733Y-78306670D01*
X118535265Y-77696009D01*
X118302068Y-77131629D01*
X117870643Y-76699449D01*
X117306670Y-76465267D01*
X117070193Y-76465061D01*
X116452566Y-75847434D01*
X116228922Y-75698000D01*
X116084346Y-75601397D01*
X115650000Y-75515000D01*
X115156844Y-75515000D01*
X115114090Y-75448559D01*
X114901890Y-75303569D01*
X114650000Y-75252560D01*
X113350000Y-75252560D01*
X113114683Y-75296838D01*
X112898559Y-75435910D01*
X112753569Y-75648110D01*
X112702560Y-75900000D01*
X112702560Y-77400000D01*
X112746838Y-77635317D01*
X112885910Y-77851441D01*
X113098110Y-77996431D01*
X113111197Y-77999081D01*
X112898559Y-78135910D01*
X112844519Y-78215000D01*
X108650000Y-78215000D01*
X108215654Y-78301397D01*
X107847434Y-78547434D01*
X107197434Y-79197434D01*
X106951397Y-79565655D01*
X106902735Y-79810294D01*
X106771173Y-80007191D01*
X106700000Y-80365000D01*
X106700000Y-80968500D01*
X106650750Y-80968500D01*
X106492000Y-81127250D01*
X106238000Y-81127250D01*
X106079250Y-80968500D01*
X105984691Y-80968500D01*
X105751302Y-81065173D01*
X105730000Y-81086475D01*
X105708698Y-81065173D01*
X105475309Y-80968500D01*
X105380750Y-80968500D01*
X105222000Y-81127250D01*
X104968000Y-81127250D01*
X104809250Y-80968500D01*
X104714691Y-80968500D01*
X104481302Y-81065173D01*
X104302673Y-81243801D01*
X104206000Y-81477190D01*
X80710000Y-81477190D01*
X80710000Y-76110750D01*
X104206000Y-76110750D01*
X104206000Y-76522810D01*
X104302673Y-76756199D01*
X104481302Y-76934827D01*
X104714691Y-77031500D01*
X104809250Y-77031500D01*
X104968000Y-76872750D01*
X104968000Y-75952000D01*
X104364750Y-75952000D01*
X104206000Y-76110750D01*
X80710000Y-76110750D01*
X80710000Y-75127190D01*
X104206000Y-75127190D01*
X104206000Y-75539250D01*
X104364750Y-75698000D01*
X104968000Y-75698000D01*
X104968000Y-74777250D01*
X104809250Y-74618500D01*
X104714691Y-74618500D01*
X104481302Y-74715173D01*
X104302673Y-74893801D01*
X104206000Y-75127190D01*
X80710000Y-75127190D01*
X80710000Y-69898305D01*
X95589674Y-69898305D01*
X95876043Y-70591372D01*
X96405839Y-71122093D01*
X97098405Y-71409672D01*
X97848305Y-71410326D01*
X98541372Y-71123957D01*
X99072093Y-70594161D01*
X99359672Y-69901595D01*
X99360326Y-69151695D01*
X99073957Y-68458628D01*
X98544161Y-67927907D01*
X97851595Y-67640328D01*
X97101695Y-67639674D01*
X96408628Y-67926043D01*
X95877907Y-68455839D01*
X95590328Y-69148405D01*
X95589674Y-69898305D01*
X80710000Y-69898305D01*
X80710000Y-65285750D01*
X93365000Y-65285750D01*
X93365000Y-65751310D01*
X93461673Y-65984699D01*
X93640302Y-66163327D01*
X93873691Y-66260000D01*
X94464250Y-66260000D01*
X94623000Y-66101250D01*
X94623000Y-65127000D01*
X93523750Y-65127000D01*
X93365000Y-65285750D01*
X80710000Y-65285750D01*
X80710000Y-64248690D01*
X93365000Y-64248690D01*
X93365000Y-64714250D01*
X93523750Y-64873000D01*
X94623000Y-64873000D01*
X94623000Y-63898750D01*
X94464250Y-63740000D01*
X93873691Y-63740000D01*
X93640302Y-63836673D01*
X93461673Y-64015301D01*
X93365000Y-64248690D01*
X80710000Y-64248690D01*
X80710000Y-60000000D01*
X92552560Y-60000000D01*
X92552560Y-62000000D01*
X92596838Y-62235317D01*
X92735910Y-62451441D01*
X92948110Y-62596431D01*
X93200000Y-62647440D01*
X94800000Y-62647440D01*
X95035317Y-62603162D01*
X95180095Y-62510000D01*
X97009868Y-62510000D01*
X96447434Y-63072434D01*
X96201397Y-63440654D01*
X96116561Y-63867152D01*
X96048559Y-63910910D01*
X96002031Y-63979006D01*
X95859698Y-63836673D01*
X95626309Y-63740000D01*
X95035750Y-63740000D01*
X94877000Y-63898750D01*
X94877000Y-64873000D01*
X94897000Y-64873000D01*
X94897000Y-65127000D01*
X94877000Y-65127000D01*
X94877000Y-66101250D01*
X95035750Y-66260000D01*
X95626309Y-66260000D01*
X95859698Y-66163327D01*
X96000936Y-66022090D01*
X96035910Y-66076441D01*
X96248110Y-66221431D01*
X96500000Y-66272440D01*
X98000000Y-66272440D01*
X98235317Y-66228162D01*
X98451441Y-66089090D01*
X98596431Y-65876890D01*
X98647440Y-65625000D01*
X98647440Y-64375000D01*
X98603162Y-64139683D01*
X98598184Y-64131948D01*
X99082692Y-63647440D01*
X101250000Y-63647440D01*
X101365000Y-63625801D01*
X101365000Y-70000000D01*
X101451397Y-70434346D01*
X101686198Y-70785750D01*
X101697434Y-70802566D01*
X105540280Y-74645412D01*
X105475309Y-74618500D01*
X105380750Y-74618500D01*
X105222000Y-74777250D01*
X105222000Y-75698000D01*
X105242000Y-75698000D01*
X105242000Y-75952000D01*
X105222000Y-75952000D01*
X105222000Y-76872750D01*
X105380750Y-77031500D01*
X105475309Y-77031500D01*
X105708698Y-76934827D01*
X105735235Y-76908291D01*
X105859110Y-76992931D01*
X106111000Y-77043940D01*
X106619000Y-77043940D01*
X106854317Y-76999662D01*
X106935799Y-76947230D01*
X107000000Y-76960000D01*
X107062670Y-76947534D01*
X107129110Y-76992931D01*
X107381000Y-77043940D01*
X107889000Y-77043940D01*
X108124317Y-76999662D01*
X108265371Y-76908896D01*
X108291302Y-76934827D01*
X108524691Y-77031500D01*
X108619250Y-77031500D01*
X108778000Y-76872750D01*
X108778000Y-75952000D01*
X109032000Y-75952000D01*
X109032000Y-76872750D01*
X109190750Y-77031500D01*
X109285309Y-77031500D01*
X109518698Y-76934827D01*
X109697327Y-76756199D01*
X109794000Y-76522810D01*
X109794000Y-76110750D01*
X109635250Y-75952000D01*
X109032000Y-75952000D01*
X108778000Y-75952000D01*
X108758000Y-75952000D01*
X108758000Y-75698000D01*
X108778000Y-75698000D01*
X108778000Y-74777250D01*
X109032000Y-74777250D01*
X109032000Y-75698000D01*
X109635250Y-75698000D01*
X109794000Y-75539250D01*
X109794000Y-75127190D01*
X109697327Y-74893801D01*
X109518698Y-74715173D01*
X109285309Y-74618500D01*
X109190750Y-74618500D01*
X109032000Y-74777250D01*
X108778000Y-74777250D01*
X108619250Y-74618500D01*
X108524691Y-74618500D01*
X108291302Y-74715173D01*
X108264765Y-74741709D01*
X108140890Y-74657069D01*
X108135000Y-74655876D01*
X108135000Y-74500000D01*
X108048603Y-74065654D01*
X107802566Y-73697434D01*
X104963452Y-70858320D01*
X105846285Y-70858320D01*
X105975533Y-71151123D01*
X106675806Y-71419388D01*
X107425435Y-71399250D01*
X108024467Y-71151123D01*
X108153715Y-70858320D01*
X107000000Y-69704605D01*
X105846285Y-70858320D01*
X104963452Y-70858320D01*
X103635000Y-69529868D01*
X103635000Y-69200806D01*
X105105612Y-69200806D01*
X105125750Y-69950435D01*
X105373877Y-70549467D01*
X105666680Y-70678715D01*
X106820395Y-69525000D01*
X107179605Y-69525000D01*
X108333320Y-70678715D01*
X108626123Y-70549467D01*
X108894388Y-69849194D01*
X108874250Y-69099565D01*
X108626123Y-68500533D01*
X108624916Y-68500000D01*
X112727560Y-68500000D01*
X112727560Y-70000000D01*
X112771838Y-70235317D01*
X112910910Y-70451441D01*
X113123110Y-70596431D01*
X113375000Y-70647440D01*
X114211857Y-70647440D01*
X114275000Y-70660000D01*
X114994551Y-70660000D01*
X115455839Y-71122093D01*
X116148405Y-71409672D01*
X116898305Y-71410326D01*
X117591372Y-71123957D01*
X117930169Y-70785750D01*
X123315000Y-70785750D01*
X123315000Y-71626309D01*
X123411673Y-71859698D01*
X123590301Y-72038327D01*
X123823690Y-72135000D01*
X124964250Y-72135000D01*
X125123000Y-71976250D01*
X125123000Y-70627000D01*
X125377000Y-70627000D01*
X125377000Y-71976250D01*
X125535750Y-72135000D01*
X126676310Y-72135000D01*
X126909699Y-72038327D01*
X127088327Y-71859698D01*
X127185000Y-71626309D01*
X127185000Y-70785750D01*
X127026250Y-70627000D01*
X125377000Y-70627000D01*
X125123000Y-70627000D01*
X123473750Y-70627000D01*
X123315000Y-70785750D01*
X117930169Y-70785750D01*
X118122093Y-70594161D01*
X118409672Y-69901595D01*
X118410326Y-69151695D01*
X118123957Y-68458628D01*
X117594161Y-67927907D01*
X116901595Y-67640328D01*
X116151695Y-67639674D01*
X115458628Y-67926043D01*
X115185622Y-68198573D01*
X115089090Y-68048559D01*
X115020994Y-68002031D01*
X115163327Y-67859698D01*
X115260000Y-67626309D01*
X115260000Y-67035750D01*
X115101250Y-66877000D01*
X114127000Y-66877000D01*
X114127000Y-66897000D01*
X113873000Y-66897000D01*
X113873000Y-66877000D01*
X112898750Y-66877000D01*
X112740000Y-67035750D01*
X112740000Y-67626309D01*
X112836673Y-67859698D01*
X112977910Y-68000936D01*
X112923559Y-68035910D01*
X112778569Y-68248110D01*
X112727560Y-68500000D01*
X108624916Y-68500000D01*
X108333320Y-68371285D01*
X107179605Y-69525000D01*
X106820395Y-69525000D01*
X105666680Y-68371285D01*
X105373877Y-68500533D01*
X105105612Y-69200806D01*
X103635000Y-69200806D01*
X103635000Y-68191680D01*
X105846285Y-68191680D01*
X107000000Y-69345395D01*
X108153715Y-68191680D01*
X108024467Y-67898877D01*
X107324194Y-67630612D01*
X106574565Y-67650750D01*
X105975533Y-67898877D01*
X105846285Y-68191680D01*
X103635000Y-68191680D01*
X103635000Y-65873691D01*
X112740000Y-65873691D01*
X112740000Y-66464250D01*
X112898750Y-66623000D01*
X113873000Y-66623000D01*
X113873000Y-65523750D01*
X114127000Y-65523750D01*
X114127000Y-66623000D01*
X115101250Y-66623000D01*
X115260000Y-66464250D01*
X115260000Y-65873691D01*
X115163327Y-65640302D01*
X114984699Y-65461673D01*
X114751310Y-65365000D01*
X114285750Y-65365000D01*
X114127000Y-65523750D01*
X113873000Y-65523750D01*
X113714250Y-65365000D01*
X113248690Y-65365000D01*
X113015301Y-65461673D01*
X112836673Y-65640302D01*
X112740000Y-65873691D01*
X103635000Y-65873691D01*
X103635000Y-63082252D01*
X103710000Y-63097440D01*
X105710000Y-63097440D01*
X105945317Y-63053162D01*
X106161441Y-62914090D01*
X106306431Y-62701890D01*
X106357440Y-62450000D01*
X106357440Y-58950000D01*
X107642560Y-58950000D01*
X107642560Y-62450000D01*
X107686838Y-62685317D01*
X107825910Y-62901441D01*
X108038110Y-63046431D01*
X108290000Y-63097440D01*
X110290000Y-63097440D01*
X110525317Y-63053162D01*
X110741441Y-62914090D01*
X110886431Y-62701890D01*
X110937440Y-62450000D01*
X110937440Y-62085000D01*
X112568554Y-62085000D01*
X112596838Y-62235317D01*
X112735910Y-62451441D01*
X112948110Y-62596431D01*
X113200000Y-62647440D01*
X114800000Y-62647440D01*
X115035317Y-62603162D01*
X115251441Y-62464090D01*
X115305481Y-62385000D01*
X118202560Y-62385000D01*
X118202560Y-62450000D01*
X118246838Y-62685317D01*
X118385910Y-62901441D01*
X118598110Y-63046431D01*
X118850000Y-63097440D01*
X121150000Y-63097440D01*
X121385317Y-63053162D01*
X121601441Y-62914090D01*
X121746431Y-62701890D01*
X121797440Y-62450000D01*
X121797440Y-58950000D01*
X121753162Y-58714683D01*
X121614090Y-58498559D01*
X121401890Y-58353569D01*
X121150000Y-58302560D01*
X118850000Y-58302560D01*
X118614683Y-58346838D01*
X118398559Y-58485910D01*
X118253569Y-58698110D01*
X118202560Y-58950000D01*
X118202560Y-59615000D01*
X115306844Y-59615000D01*
X115264090Y-59548559D01*
X115051890Y-59403569D01*
X114800000Y-59352560D01*
X113888827Y-59352560D01*
X113700000Y-59315000D01*
X110937440Y-59315000D01*
X110937440Y-58950000D01*
X110893162Y-58714683D01*
X110754090Y-58498559D01*
X110541890Y-58353569D01*
X110290000Y-58302560D01*
X108290000Y-58302560D01*
X108054683Y-58346838D01*
X107838559Y-58485910D01*
X107693569Y-58698110D01*
X107642560Y-58950000D01*
X106357440Y-58950000D01*
X106313162Y-58714683D01*
X106174090Y-58498559D01*
X105961890Y-58353569D01*
X105710000Y-58302560D01*
X103710000Y-58302560D01*
X103474683Y-58346838D01*
X103258559Y-58485910D01*
X103113569Y-58698110D01*
X103062560Y-58950000D01*
X103062560Y-59315000D01*
X101897440Y-59315000D01*
X101897440Y-59250000D01*
X101853162Y-59014683D01*
X101714090Y-58798559D01*
X101501890Y-58653569D01*
X101250000Y-58602560D01*
X98750000Y-58602560D01*
X98514683Y-58646838D01*
X98298559Y-58785910D01*
X98153569Y-58998110D01*
X98102560Y-59250000D01*
X98102560Y-59393874D01*
X97885000Y-59176314D01*
X97885000Y-55160750D01*
X98115000Y-55160750D01*
X98115000Y-56876309D01*
X98211673Y-57109698D01*
X98390301Y-57288327D01*
X98623690Y-57385000D01*
X99714250Y-57385000D01*
X99873000Y-57226250D01*
X99873000Y-55002000D01*
X100127000Y-55002000D01*
X100127000Y-57226250D01*
X100285750Y-57385000D01*
X101376310Y-57385000D01*
X101609699Y-57288327D01*
X101788327Y-57109698D01*
X101885000Y-56876309D01*
X101885000Y-55160750D01*
X101726250Y-55002000D01*
X100127000Y-55002000D01*
X99873000Y-55002000D01*
X98273750Y-55002000D01*
X98115000Y-55160750D01*
X97885000Y-55160750D01*
X97885000Y-53323686D01*
X98115000Y-53093686D01*
X98115000Y-54589250D01*
X98273750Y-54748000D01*
X99873000Y-54748000D01*
X99873000Y-52523750D01*
X100127000Y-52523750D01*
X100127000Y-54748000D01*
X101726250Y-54748000D01*
X101885000Y-54589250D01*
X101885000Y-53585750D01*
X102855000Y-53585750D01*
X102855000Y-56926310D01*
X102951673Y-57159699D01*
X103130302Y-57338327D01*
X103363691Y-57435000D01*
X106704250Y-57435000D01*
X106863000Y-57276250D01*
X106863000Y-53427000D01*
X107117000Y-53427000D01*
X107117000Y-57276250D01*
X107275750Y-57435000D01*
X110616309Y-57435000D01*
X110849698Y-57338327D01*
X110902275Y-57285750D01*
X112565000Y-57285750D01*
X112565000Y-58126309D01*
X112661673Y-58359698D01*
X112840301Y-58538327D01*
X113073690Y-58635000D01*
X113714250Y-58635000D01*
X113873000Y-58476250D01*
X113873000Y-57127000D01*
X114127000Y-57127000D01*
X114127000Y-58476250D01*
X114285750Y-58635000D01*
X114926310Y-58635000D01*
X115159699Y-58538327D01*
X115338327Y-58359698D01*
X115435000Y-58126309D01*
X115435000Y-57285750D01*
X115276250Y-57127000D01*
X114127000Y-57127000D01*
X113873000Y-57127000D01*
X112723750Y-57127000D01*
X112565000Y-57285750D01*
X110902275Y-57285750D01*
X111028327Y-57159699D01*
X111125000Y-56926310D01*
X111125000Y-55873691D01*
X112565000Y-55873691D01*
X112565000Y-56714250D01*
X112723750Y-56873000D01*
X113873000Y-56873000D01*
X113873000Y-55523750D01*
X114127000Y-55523750D01*
X114127000Y-56873000D01*
X115276250Y-56873000D01*
X115435000Y-56714250D01*
X115435000Y-55873691D01*
X115338327Y-55640302D01*
X115159699Y-55461673D01*
X114926310Y-55365000D01*
X114285750Y-55365000D01*
X114127000Y-55523750D01*
X113873000Y-55523750D01*
X113714250Y-55365000D01*
X113073690Y-55365000D01*
X112840301Y-55461673D01*
X112661673Y-55640302D01*
X112565000Y-55873691D01*
X111125000Y-55873691D01*
X111125000Y-53585750D01*
X111089250Y-53550000D01*
X118202560Y-53550000D01*
X118202560Y-57050000D01*
X118246838Y-57285317D01*
X118385910Y-57501441D01*
X118598110Y-57646431D01*
X118850000Y-57697440D01*
X121150000Y-57697440D01*
X121385317Y-57653162D01*
X121601441Y-57514090D01*
X121746431Y-57301890D01*
X121797440Y-57050000D01*
X121797440Y-56685000D01*
X122726314Y-56685000D01*
X123865000Y-57823686D01*
X123865000Y-66731029D01*
X123755971Y-66803880D01*
X123401548Y-67334313D01*
X123277091Y-67960000D01*
X123401548Y-68585687D01*
X123639231Y-68941406D01*
X123590301Y-68961673D01*
X123411673Y-69140302D01*
X123315000Y-69373691D01*
X123315000Y-70214250D01*
X123473750Y-70373000D01*
X125123000Y-70373000D01*
X125123000Y-70353000D01*
X125377000Y-70353000D01*
X125377000Y-70373000D01*
X127026250Y-70373000D01*
X127185000Y-70214250D01*
X127185000Y-69373691D01*
X127088327Y-69140302D01*
X126909699Y-68961673D01*
X126860769Y-68941406D01*
X127098452Y-68585687D01*
X127222909Y-67960000D01*
X127098452Y-67334313D01*
X126744029Y-66803880D01*
X126635000Y-66731029D01*
X126635000Y-57250000D01*
X126529573Y-56719983D01*
X126229343Y-56270657D01*
X124279343Y-54320657D01*
X123830017Y-54020427D01*
X123300000Y-53915000D01*
X121797440Y-53915000D01*
X121797440Y-53550000D01*
X121753162Y-53314683D01*
X121614090Y-53098559D01*
X121401890Y-52953569D01*
X121150000Y-52902560D01*
X118850000Y-52902560D01*
X118614683Y-52946838D01*
X118398559Y-53085910D01*
X118253569Y-53298110D01*
X118202560Y-53550000D01*
X111089250Y-53550000D01*
X110966250Y-53427000D01*
X107117000Y-53427000D01*
X106863000Y-53427000D01*
X103013750Y-53427000D01*
X102855000Y-53585750D01*
X101885000Y-53585750D01*
X101885000Y-52873691D01*
X101788327Y-52640302D01*
X101609699Y-52461673D01*
X101376310Y-52365000D01*
X100285750Y-52365000D01*
X100127000Y-52523750D01*
X99873000Y-52523750D01*
X99714250Y-52365000D01*
X98714494Y-52365000D01*
X98754573Y-52305017D01*
X98860000Y-51775000D01*
X98860000Y-51755884D01*
X99072093Y-51544161D01*
X99359672Y-50851595D01*
X99360326Y-50101695D01*
X99183479Y-49673690D01*
X102855000Y-49673690D01*
X102855000Y-53014250D01*
X103013750Y-53173000D01*
X106863000Y-53173000D01*
X106863000Y-49323750D01*
X107117000Y-49323750D01*
X107117000Y-53173000D01*
X110966250Y-53173000D01*
X111125000Y-53014250D01*
X111125000Y-50848305D01*
X114639674Y-50848305D01*
X114926043Y-51541372D01*
X115455839Y-52072093D01*
X116148405Y-52359672D01*
X116898305Y-52360326D01*
X117591372Y-52073957D01*
X118122093Y-51544161D01*
X118175199Y-51416266D01*
X123763339Y-51416266D01*
X124075487Y-51864932D01*
X125318343Y-52383331D01*
X126664976Y-52386648D01*
X127910371Y-51874380D01*
X127924513Y-51864932D01*
X128236661Y-51416266D01*
X126000000Y-49179605D01*
X123763339Y-51416266D01*
X118175199Y-51416266D01*
X118409672Y-50851595D01*
X118410326Y-50101695D01*
X118229878Y-49664976D01*
X122613352Y-49664976D01*
X123125620Y-50910371D01*
X123135068Y-50924513D01*
X123583734Y-51236661D01*
X125820395Y-49000000D01*
X123583734Y-46763339D01*
X123135068Y-47075487D01*
X122616669Y-48318343D01*
X122613352Y-49664976D01*
X118229878Y-49664976D01*
X118123957Y-49408628D01*
X117594161Y-48877907D01*
X116901595Y-48590328D01*
X116151695Y-48589674D01*
X115458628Y-48876043D01*
X114927907Y-49405839D01*
X114640328Y-50098405D01*
X114639674Y-50848305D01*
X111125000Y-50848305D01*
X111125000Y-49673690D01*
X111028327Y-49440301D01*
X110849698Y-49261673D01*
X110616309Y-49165000D01*
X107275750Y-49165000D01*
X107117000Y-49323750D01*
X106863000Y-49323750D01*
X106704250Y-49165000D01*
X103363691Y-49165000D01*
X103130302Y-49261673D01*
X102951673Y-49440301D01*
X102855000Y-49673690D01*
X99183479Y-49673690D01*
X99073957Y-49408628D01*
X98544161Y-48877907D01*
X97851595Y-48590328D01*
X97101695Y-48589674D01*
X96408628Y-48876043D01*
X95877907Y-49405839D01*
X95590328Y-50098405D01*
X95589674Y-50848305D01*
X95839173Y-51452141D01*
X95520657Y-51770657D01*
X95220427Y-52219983D01*
X95115000Y-52750000D01*
X95115000Y-55443158D01*
X94926310Y-55365000D01*
X94285750Y-55365000D01*
X94127000Y-55523750D01*
X94127000Y-56873000D01*
X94147000Y-56873000D01*
X94147000Y-57127000D01*
X94127000Y-57127000D01*
X94127000Y-58476250D01*
X94285750Y-58635000D01*
X94926310Y-58635000D01*
X95115000Y-58556842D01*
X95115000Y-59446690D01*
X95051890Y-59403569D01*
X94800000Y-59352560D01*
X93200000Y-59352560D01*
X92964683Y-59396838D01*
X92748559Y-59535910D01*
X92603569Y-59748110D01*
X92552560Y-60000000D01*
X80710000Y-60000000D01*
X80710000Y-57285750D01*
X92565000Y-57285750D01*
X92565000Y-58126309D01*
X92661673Y-58359698D01*
X92840301Y-58538327D01*
X93073690Y-58635000D01*
X93714250Y-58635000D01*
X93873000Y-58476250D01*
X93873000Y-57127000D01*
X92723750Y-57127000D01*
X92565000Y-57285750D01*
X80710000Y-57285750D01*
X80710000Y-55873691D01*
X92565000Y-55873691D01*
X92565000Y-56714250D01*
X92723750Y-56873000D01*
X93873000Y-56873000D01*
X93873000Y-55523750D01*
X93714250Y-55365000D01*
X93073690Y-55365000D01*
X92840301Y-55461673D01*
X92661673Y-55640302D01*
X92565000Y-55873691D01*
X80710000Y-55873691D01*
X80710000Y-51416266D01*
X81763339Y-51416266D01*
X82075487Y-51864932D01*
X83318343Y-52383331D01*
X84664976Y-52386648D01*
X85910371Y-51874380D01*
X85924513Y-51864932D01*
X86236661Y-51416266D01*
X84000000Y-49179605D01*
X81763339Y-51416266D01*
X80710000Y-51416266D01*
X80710000Y-49899941D01*
X81125620Y-50910371D01*
X81135068Y-50924513D01*
X81583734Y-51236661D01*
X83820395Y-49000000D01*
X84179605Y-49000000D01*
X86416266Y-51236661D01*
X86864932Y-50924513D01*
X87383331Y-49681657D01*
X87386648Y-48335024D01*
X86874380Y-47089629D01*
X86864932Y-47075487D01*
X86416266Y-46763339D01*
X84179605Y-49000000D01*
X83820395Y-49000000D01*
X81583734Y-46763339D01*
X81135068Y-47075487D01*
X80710000Y-48094583D01*
X80710000Y-45710000D01*
X83100059Y-45710000D01*
X82089629Y-46125620D01*
G36*
X97587000Y-92459110D02*
X97587000Y-92620890D01*
X97474143Y-92733748D01*
X97460000Y-92719605D01*
X97445858Y-92733748D01*
X97333000Y-92620890D01*
X97333000Y-92459110D01*
X97445858Y-92346253D01*
X97460000Y-92360395D01*
X97474143Y-92346253D01*
X97587000Y-92459110D01*
X97587000Y-92459110D01*
G37*
X97587000Y-92459110D02*
X97587000Y-92620890D01*
X97474143Y-92733748D01*
X97460000Y-92719605D01*
X97445858Y-92733748D01*
X97333000Y-92620890D01*
X97333000Y-92459110D01*
X97445858Y-92346253D01*
X97460000Y-92360395D01*
X97474143Y-92346253D01*
X97587000Y-92459110D01*
G36*
X102667000Y-92459110D02*
X102667000Y-92620890D01*
X102554143Y-92733748D01*
X102540000Y-92719605D01*
X102525858Y-92733748D01*
X102413000Y-92620890D01*
X102413000Y-92459110D01*
X102525858Y-92346253D01*
X102540000Y-92360395D01*
X102554143Y-92346253D01*
X102667000Y-92459110D01*
X102667000Y-92459110D01*
G37*
X102667000Y-92459110D02*
X102667000Y-92620890D01*
X102554143Y-92733748D01*
X102540000Y-92719605D01*
X102525858Y-92733748D01*
X102413000Y-92620890D01*
X102413000Y-92459110D01*
X102525858Y-92346253D01*
X102540000Y-92360395D01*
X102554143Y-92346253D01*
X102667000Y-92459110D01*
M02*
