G04 #@! TF.GenerationSoftware,KiCad,Pcbnew,(5.0.2)-1*
G04 #@! TF.CreationDate,2019-03-14T17:14:39+01:00*
G04 #@! TF.ProjectId,ocxo,6f63786f-2e6b-4696-9361-645f70636258,rev?*
G04 #@! TF.SameCoordinates,Original*
G04 #@! TF.FileFunction,Soldermask,Bot*
G04 #@! TF.FilePolarity,Negative*
%FSLAX46Y46*%
G04 Gerber Fmt 4.6, Leading zero omitted, Abs format (unit mm)*
G04 Created by KiCad (PCBNEW (5.0.2)-1) date 14/03/2019 17:14:39*
%MOMM*%
%LPD*%
G01*
G04 APERTURE LIST*
%ADD10C,0.150000*%
%ADD11C,0.100000*%
G04 APERTURE END LIST*
D10*
X80000000Y-95000000D02*
X80000000Y-45000000D01*
X130000000Y-95000000D02*
X80000000Y-95000000D01*
X130000000Y-45000000D02*
X130000000Y-95000000D01*
X80000000Y-45000000D02*
X130000000Y-45000000D01*
D11*
G36*
X130000000Y-95000000D02*
X103615000Y-95000000D01*
X103590614Y-95002402D01*
X103567165Y-95009515D01*
X103545554Y-95021066D01*
X103526612Y-95036612D01*
X103511066Y-95055554D01*
X103499515Y-95077165D01*
X103492402Y-95100614D01*
X103490000Y-95125000D01*
X103490000Y-95200000D01*
X101590000Y-95200000D01*
X101590000Y-95125000D01*
X101587598Y-95100614D01*
X101580485Y-95077165D01*
X101568934Y-95055554D01*
X101553388Y-95036612D01*
X101534446Y-95021066D01*
X101512835Y-95009515D01*
X101489386Y-95002402D01*
X101465000Y-95000000D01*
X98535000Y-95000000D01*
X98510614Y-95002402D01*
X98487165Y-95009515D01*
X98465554Y-95021066D01*
X98446612Y-95036612D01*
X98431066Y-95055554D01*
X98419515Y-95077165D01*
X98412402Y-95100614D01*
X98410000Y-95125000D01*
X98410000Y-95200000D01*
X96510000Y-95200000D01*
X96510000Y-95125000D01*
X96507598Y-95100614D01*
X96500485Y-95077165D01*
X96488934Y-95055554D01*
X96473388Y-95036612D01*
X96454446Y-95021066D01*
X96432835Y-95009515D01*
X96409386Y-95002402D01*
X96385000Y-95000000D01*
X80000000Y-95000000D01*
X80000000Y-51758813D01*
X82500000Y-51758813D01*
X82500000Y-88241187D01*
X82502402Y-88265573D01*
X82509515Y-88289022D01*
X82521066Y-88310633D01*
X82536612Y-88329575D01*
X82555554Y-88345121D01*
X82577165Y-88356672D01*
X82600614Y-88363785D01*
X82625000Y-88366187D01*
X82649386Y-88363785D01*
X82672835Y-88356672D01*
X83139517Y-88163366D01*
X83709449Y-88050000D01*
X84290551Y-88050000D01*
X84860483Y-88163366D01*
X85397348Y-88385743D01*
X85397349Y-88385744D01*
X85880516Y-88708585D01*
X86291415Y-89119484D01*
X86368845Y-89235367D01*
X86614257Y-89602652D01*
X86836634Y-90139517D01*
X86950000Y-90709449D01*
X86950000Y-91290551D01*
X86836634Y-91860483D01*
X86643328Y-92327165D01*
X86636215Y-92350614D01*
X86633813Y-92375000D01*
X86636215Y-92399386D01*
X86643328Y-92422835D01*
X86654879Y-92444446D01*
X86670425Y-92463388D01*
X86689367Y-92478934D01*
X86710978Y-92490485D01*
X86734427Y-92497598D01*
X86758813Y-92500000D01*
X95887291Y-92500000D01*
X95911677Y-92497598D01*
X95935126Y-92490485D01*
X95956737Y-92478934D01*
X95975679Y-92463388D01*
X95991225Y-92444446D01*
X96002776Y-92422835D01*
X96009889Y-92399386D01*
X96066030Y-92117145D01*
X96175310Y-91853320D01*
X96333962Y-91615880D01*
X96473388Y-91476454D01*
X96488934Y-91457512D01*
X96500485Y-91435901D01*
X96507598Y-91412452D01*
X96510000Y-91388066D01*
X96510000Y-90800000D01*
X98410000Y-90800000D01*
X98410000Y-91388066D01*
X98412402Y-91412452D01*
X98419515Y-91435901D01*
X98431066Y-91457512D01*
X98446612Y-91476454D01*
X98586038Y-91615880D01*
X98744690Y-91853320D01*
X98853970Y-92117145D01*
X98910111Y-92399386D01*
X98917224Y-92422835D01*
X98928775Y-92444446D01*
X98944321Y-92463388D01*
X98963263Y-92478934D01*
X98984873Y-92490485D01*
X99008323Y-92497598D01*
X99032709Y-92500000D01*
X100967291Y-92500000D01*
X100991677Y-92497598D01*
X101015126Y-92490485D01*
X101036737Y-92478934D01*
X101055679Y-92463388D01*
X101071225Y-92444446D01*
X101082776Y-92422835D01*
X101089889Y-92399386D01*
X101146030Y-92117145D01*
X101255310Y-91853320D01*
X101413962Y-91615880D01*
X101553388Y-91476454D01*
X101568934Y-91457512D01*
X101580485Y-91435901D01*
X101587598Y-91412452D01*
X101590000Y-91388066D01*
X101590000Y-90800000D01*
X103490000Y-90800000D01*
X103490000Y-91388066D01*
X103492402Y-91412452D01*
X103499515Y-91435901D01*
X103511066Y-91457512D01*
X103526612Y-91476454D01*
X103666038Y-91615880D01*
X103824690Y-91853320D01*
X103933970Y-92117145D01*
X103990111Y-92399386D01*
X103997224Y-92422835D01*
X104008775Y-92444446D01*
X104024321Y-92463388D01*
X104043263Y-92478934D01*
X104064873Y-92490485D01*
X104088323Y-92497598D01*
X104112709Y-92500000D01*
X123241187Y-92500000D01*
X123265573Y-92497598D01*
X123289022Y-92490485D01*
X123310633Y-92478934D01*
X123329575Y-92463388D01*
X123345121Y-92444446D01*
X123356672Y-92422835D01*
X123363785Y-92399386D01*
X123366187Y-92375000D01*
X123363785Y-92350614D01*
X123356672Y-92327165D01*
X123163366Y-91860483D01*
X123050000Y-91290551D01*
X123050000Y-90709449D01*
X123163366Y-90139517D01*
X123385743Y-89602652D01*
X123631155Y-89235367D01*
X123708585Y-89119484D01*
X124119484Y-88708585D01*
X124602651Y-88385744D01*
X124602652Y-88385743D01*
X125139517Y-88163366D01*
X125709449Y-88050000D01*
X126290551Y-88050000D01*
X126860483Y-88163366D01*
X127327165Y-88356672D01*
X127350614Y-88363785D01*
X127375000Y-88366187D01*
X127399386Y-88363785D01*
X127422835Y-88356672D01*
X127444446Y-88345121D01*
X127463388Y-88329575D01*
X127478934Y-88310633D01*
X127490485Y-88289022D01*
X127497598Y-88265573D01*
X127500000Y-88241187D01*
X127500000Y-51758813D01*
X127497598Y-51734427D01*
X127490485Y-51710978D01*
X127478934Y-51689367D01*
X127463388Y-51670425D01*
X127444446Y-51654879D01*
X127422835Y-51643328D01*
X127399386Y-51636215D01*
X127375000Y-51633813D01*
X127350614Y-51636215D01*
X127327165Y-51643328D01*
X126860483Y-51836634D01*
X126290551Y-51950000D01*
X125709449Y-51950000D01*
X125139517Y-51836634D01*
X124602652Y-51614257D01*
X124280982Y-51399324D01*
X124119484Y-51291415D01*
X123708585Y-50880516D01*
X123385744Y-50397349D01*
X123385743Y-50397348D01*
X123163366Y-49860483D01*
X123050000Y-49290551D01*
X123050000Y-48709449D01*
X123163366Y-48139517D01*
X123356672Y-47672835D01*
X123363785Y-47649386D01*
X123366187Y-47625000D01*
X123363785Y-47600614D01*
X123356672Y-47577165D01*
X123345121Y-47555554D01*
X123329575Y-47536612D01*
X123310633Y-47521066D01*
X123289022Y-47509515D01*
X123265573Y-47502402D01*
X123241187Y-47500000D01*
X86758813Y-47500000D01*
X86734427Y-47502402D01*
X86710978Y-47509515D01*
X86689367Y-47521066D01*
X86670425Y-47536612D01*
X86654879Y-47555554D01*
X86643328Y-47577165D01*
X86636215Y-47600614D01*
X86633813Y-47625000D01*
X86636215Y-47649386D01*
X86643328Y-47672835D01*
X86836634Y-48139517D01*
X86950000Y-48709449D01*
X86950000Y-49290551D01*
X86836634Y-49860483D01*
X86614257Y-50397348D01*
X86614256Y-50397349D01*
X86291415Y-50880516D01*
X85880516Y-51291415D01*
X85719018Y-51399324D01*
X85397348Y-51614257D01*
X84860483Y-51836634D01*
X84290551Y-51950000D01*
X83709449Y-51950000D01*
X83139517Y-51836634D01*
X82672835Y-51643328D01*
X82649386Y-51636215D01*
X82625000Y-51633813D01*
X82600614Y-51636215D01*
X82577165Y-51643328D01*
X82555554Y-51654879D01*
X82536612Y-51670425D01*
X82521066Y-51689367D01*
X82509515Y-51710978D01*
X82502402Y-51734427D01*
X82500000Y-51758813D01*
X80000000Y-51758813D01*
X80000000Y-45000000D01*
X130000000Y-45000000D01*
X130000000Y-95000000D01*
X130000000Y-95000000D01*
G37*
G36*
X115350000Y-91800000D02*
X113650000Y-91800000D01*
X113650000Y-89900000D01*
X115350000Y-89900000D01*
X115350000Y-91800000D01*
X115350000Y-91800000D01*
G37*
G36*
X117320857Y-89642272D02*
X117521042Y-89725191D01*
X117701213Y-89845578D01*
X117854422Y-89998787D01*
X117974809Y-90178958D01*
X118057728Y-90379143D01*
X118100000Y-90591658D01*
X118100000Y-90808342D01*
X118057728Y-91020857D01*
X117974809Y-91221042D01*
X117854422Y-91401213D01*
X117701213Y-91554422D01*
X117521042Y-91674809D01*
X117320857Y-91757728D01*
X117108342Y-91800000D01*
X116891658Y-91800000D01*
X116679143Y-91757728D01*
X116478958Y-91674809D01*
X116298787Y-91554422D01*
X116145578Y-91401213D01*
X116025191Y-91221042D01*
X115942272Y-91020857D01*
X115900000Y-90808342D01*
X115900000Y-90591658D01*
X115942272Y-90379143D01*
X116025191Y-90178958D01*
X116145578Y-89998787D01*
X116298787Y-89845578D01*
X116478958Y-89725191D01*
X116679143Y-89642272D01*
X116891658Y-89600000D01*
X117108342Y-89600000D01*
X117320857Y-89642272D01*
X117320857Y-89642272D01*
G37*
G36*
X100349876Y-88846605D02*
X100568172Y-88937026D01*
X100764633Y-89068297D01*
X100931703Y-89235367D01*
X101062974Y-89431828D01*
X101153395Y-89650124D01*
X101199490Y-89881859D01*
X101199490Y-90118141D01*
X101153395Y-90349876D01*
X101062974Y-90568172D01*
X100931703Y-90764633D01*
X100764633Y-90931703D01*
X100568172Y-91062974D01*
X100349876Y-91153395D01*
X100118141Y-91199490D01*
X99881859Y-91199490D01*
X99650124Y-91153395D01*
X99431828Y-91062974D01*
X99235367Y-90931703D01*
X99068297Y-90764633D01*
X98937026Y-90568172D01*
X98846605Y-90349876D01*
X98800510Y-90118141D01*
X98800510Y-89881859D01*
X98846605Y-89650124D01*
X98937026Y-89431828D01*
X99068297Y-89235367D01*
X99235367Y-89068297D01*
X99431828Y-88937026D01*
X99650124Y-88846605D01*
X99881859Y-88800510D01*
X100118141Y-88800510D01*
X100349876Y-88846605D01*
X100349876Y-88846605D01*
G37*
G36*
X115350000Y-89100000D02*
X113650000Y-89100000D01*
X113650000Y-87200000D01*
X115350000Y-87200000D01*
X115350000Y-89100000D01*
X115350000Y-89100000D01*
G37*
G36*
X117268353Y-87195355D02*
X117435784Y-87264707D01*
X117586466Y-87365390D01*
X117714610Y-87493534D01*
X117815293Y-87644216D01*
X117884645Y-87811647D01*
X117920000Y-87989387D01*
X117920000Y-88190613D01*
X117884645Y-88368353D01*
X117815293Y-88535784D01*
X117714610Y-88686466D01*
X117586466Y-88814610D01*
X117435784Y-88915293D01*
X117268353Y-88984645D01*
X117090613Y-89020000D01*
X116909387Y-89020000D01*
X116731647Y-88984645D01*
X116564216Y-88915293D01*
X116413534Y-88814610D01*
X116285390Y-88686466D01*
X116184707Y-88535784D01*
X116115355Y-88368353D01*
X116080000Y-88190613D01*
X116080000Y-87989387D01*
X116115355Y-87811647D01*
X116184707Y-87644216D01*
X116285390Y-87493534D01*
X116413534Y-87365390D01*
X116564216Y-87264707D01*
X116731647Y-87195355D01*
X116909387Y-87160000D01*
X117090613Y-87160000D01*
X117268353Y-87195355D01*
X117268353Y-87195355D01*
G37*
G36*
X97882855Y-86066030D02*
X98146680Y-86175310D01*
X98384120Y-86333962D01*
X98586038Y-86535880D01*
X98744690Y-86773320D01*
X98853970Y-87037145D01*
X98909680Y-87317218D01*
X98909680Y-87602782D01*
X98853970Y-87882855D01*
X98744690Y-88146680D01*
X98586038Y-88384120D01*
X98384120Y-88586038D01*
X98146680Y-88744690D01*
X97882855Y-88853970D01*
X97602782Y-88909680D01*
X97317218Y-88909680D01*
X97037145Y-88853970D01*
X96773320Y-88744690D01*
X96535880Y-88586038D01*
X96333962Y-88384120D01*
X96175310Y-88146680D01*
X96066030Y-87882855D01*
X96010320Y-87602782D01*
X96010320Y-87317218D01*
X96066030Y-87037145D01*
X96175310Y-86773320D01*
X96333962Y-86535880D01*
X96535880Y-86333962D01*
X96773320Y-86175310D01*
X97037145Y-86066030D01*
X97317218Y-86010320D01*
X97602782Y-86010320D01*
X97882855Y-86066030D01*
X97882855Y-86066030D01*
G37*
G36*
X102962855Y-86066030D02*
X103226680Y-86175310D01*
X103464120Y-86333962D01*
X103666038Y-86535880D01*
X103824690Y-86773320D01*
X103933970Y-87037145D01*
X103989680Y-87317218D01*
X103989680Y-87602782D01*
X103933970Y-87882855D01*
X103824690Y-88146680D01*
X103666038Y-88384120D01*
X103464120Y-88586038D01*
X103226680Y-88744690D01*
X102962855Y-88853970D01*
X102682782Y-88909680D01*
X102397218Y-88909680D01*
X102117145Y-88853970D01*
X101853320Y-88744690D01*
X101615880Y-88586038D01*
X101413962Y-88384120D01*
X101255310Y-88146680D01*
X101146030Y-87882855D01*
X101090320Y-87602782D01*
X101090320Y-87317218D01*
X101146030Y-87037145D01*
X101255310Y-86773320D01*
X101413962Y-86535880D01*
X101615880Y-86333962D01*
X101853320Y-86175310D01*
X102117145Y-86066030D01*
X102397218Y-86010320D01*
X102682782Y-86010320D01*
X102962855Y-86066030D01*
X102962855Y-86066030D01*
G37*
G36*
X114780857Y-84562272D02*
X114981042Y-84645191D01*
X115161213Y-84765578D01*
X115314422Y-84918787D01*
X115314424Y-84918790D01*
X115314425Y-84918791D01*
X115434807Y-85098955D01*
X115434809Y-85098958D01*
X115517728Y-85299143D01*
X115560000Y-85511658D01*
X115560000Y-85728342D01*
X115517728Y-85940857D01*
X115434809Y-86141042D01*
X115434807Y-86141045D01*
X115412380Y-86174610D01*
X115314422Y-86321213D01*
X115161213Y-86474422D01*
X114981042Y-86594809D01*
X114780857Y-86677728D01*
X114568342Y-86720000D01*
X114351658Y-86720000D01*
X114139143Y-86677728D01*
X113938958Y-86594809D01*
X113758787Y-86474422D01*
X113605578Y-86321213D01*
X113507621Y-86174610D01*
X113485193Y-86141045D01*
X113485191Y-86141042D01*
X113402272Y-85940857D01*
X113360000Y-85728342D01*
X113360000Y-85511658D01*
X113402272Y-85299143D01*
X113485191Y-85098958D01*
X113485193Y-85098955D01*
X113605575Y-84918791D01*
X113605576Y-84918790D01*
X113605578Y-84918787D01*
X113758787Y-84765578D01*
X113938958Y-84645191D01*
X114139143Y-84562272D01*
X114351658Y-84520000D01*
X114568342Y-84520000D01*
X114780857Y-84562272D01*
X114780857Y-84562272D01*
G37*
G36*
X119808353Y-84655355D02*
X119975784Y-84724707D01*
X120126466Y-84825390D01*
X120254610Y-84953534D01*
X120355293Y-85104216D01*
X120424645Y-85271647D01*
X120460000Y-85449387D01*
X120460000Y-85630613D01*
X120424645Y-85808353D01*
X120355293Y-85975784D01*
X120254610Y-86126466D01*
X120126466Y-86254610D01*
X119975784Y-86355293D01*
X119808353Y-86424645D01*
X119630613Y-86460000D01*
X119449387Y-86460000D01*
X119271647Y-86424645D01*
X119104216Y-86355293D01*
X118953534Y-86254610D01*
X118825390Y-86126466D01*
X118724707Y-85975784D01*
X118655355Y-85808353D01*
X118620000Y-85630613D01*
X118620000Y-85449387D01*
X118655355Y-85271647D01*
X118724707Y-85104216D01*
X118825390Y-84953534D01*
X118953534Y-84825390D01*
X119104216Y-84724707D01*
X119271647Y-84655355D01*
X119449387Y-84620000D01*
X119630613Y-84620000D01*
X119808353Y-84655355D01*
X119808353Y-84655355D01*
G37*
G36*
X117268353Y-84575355D02*
X117435784Y-84644707D01*
X117586466Y-84745390D01*
X117714610Y-84873534D01*
X117815293Y-85024216D01*
X117884645Y-85191647D01*
X117920000Y-85369387D01*
X117920000Y-85550613D01*
X117884645Y-85728353D01*
X117815293Y-85895784D01*
X117714610Y-86046466D01*
X117586466Y-86174610D01*
X117435784Y-86275293D01*
X117268353Y-86344645D01*
X117090613Y-86380000D01*
X116909387Y-86380000D01*
X116731647Y-86344645D01*
X116564216Y-86275293D01*
X116413534Y-86174610D01*
X116285390Y-86046466D01*
X116184707Y-85895784D01*
X116115355Y-85728353D01*
X116080000Y-85550613D01*
X116080000Y-85369387D01*
X116115355Y-85191647D01*
X116184707Y-85024216D01*
X116285390Y-84873534D01*
X116413534Y-84745390D01*
X116564216Y-84644707D01*
X116731647Y-84575355D01*
X116909387Y-84540000D01*
X117090613Y-84540000D01*
X117268353Y-84575355D01*
X117268353Y-84575355D01*
G37*
G36*
X117268353Y-82115355D02*
X117435784Y-82184707D01*
X117586466Y-82285390D01*
X117714610Y-82413534D01*
X117815293Y-82564216D01*
X117884645Y-82731647D01*
X117920000Y-82909387D01*
X117920000Y-83090613D01*
X117884645Y-83268353D01*
X117815293Y-83435784D01*
X117714610Y-83586466D01*
X117586466Y-83714610D01*
X117435784Y-83815293D01*
X117268353Y-83884645D01*
X117090613Y-83920000D01*
X116909387Y-83920000D01*
X116731647Y-83884645D01*
X116564216Y-83815293D01*
X116413534Y-83714610D01*
X116285390Y-83586466D01*
X116184707Y-83435784D01*
X116115355Y-83268353D01*
X116080000Y-83090613D01*
X116080000Y-82909387D01*
X116115355Y-82731647D01*
X116184707Y-82564216D01*
X116285390Y-82413534D01*
X116413534Y-82285390D01*
X116564216Y-82184707D01*
X116731647Y-82115355D01*
X116909387Y-82080000D01*
X117090613Y-82080000D01*
X117268353Y-82115355D01*
X117268353Y-82115355D01*
G37*
G36*
X106819000Y-82946500D02*
X105911000Y-82946500D01*
X105911000Y-81403500D01*
X106819000Y-81403500D01*
X106819000Y-82946500D01*
X106819000Y-82946500D01*
G37*
G36*
X105549000Y-82946500D02*
X104641000Y-82946500D01*
X104641000Y-81403500D01*
X105549000Y-81403500D01*
X105549000Y-82946500D01*
X105549000Y-82946500D01*
G37*
G36*
X108089000Y-82946500D02*
X107181000Y-82946500D01*
X107181000Y-81403500D01*
X108089000Y-81403500D01*
X108089000Y-82946500D01*
X108089000Y-82946500D01*
G37*
G36*
X109359000Y-82946500D02*
X108451000Y-82946500D01*
X108451000Y-81403500D01*
X109359000Y-81403500D01*
X109359000Y-82946500D01*
X109359000Y-82946500D01*
G37*
G36*
X114850000Y-80300000D02*
X113150000Y-80300000D01*
X113150000Y-78400000D01*
X114850000Y-78400000D01*
X114850000Y-80300000D01*
X114850000Y-80300000D01*
G37*
G36*
X117320857Y-76942272D02*
X117521042Y-77025191D01*
X117701213Y-77145578D01*
X117854422Y-77298787D01*
X117974809Y-77478958D01*
X118057728Y-77679143D01*
X118100000Y-77891658D01*
X118100000Y-78108342D01*
X118057728Y-78320857D01*
X117974809Y-78521042D01*
X117854422Y-78701213D01*
X117701213Y-78854422D01*
X117521042Y-78974809D01*
X117320857Y-79057728D01*
X117108342Y-79100000D01*
X116891658Y-79100000D01*
X116679143Y-79057728D01*
X116478958Y-78974809D01*
X116298787Y-78854422D01*
X116145578Y-78701213D01*
X116025191Y-78521042D01*
X115942272Y-78320857D01*
X115900000Y-78108342D01*
X115900000Y-77891658D01*
X115942272Y-77679143D01*
X116025191Y-77478958D01*
X116145578Y-77298787D01*
X116298787Y-77145578D01*
X116478958Y-77025191D01*
X116679143Y-76942272D01*
X116891658Y-76900000D01*
X117108342Y-76900000D01*
X117320857Y-76942272D01*
X117320857Y-76942272D01*
G37*
G36*
X114850000Y-77600000D02*
X113150000Y-77600000D01*
X113150000Y-75700000D01*
X114850000Y-75700000D01*
X114850000Y-77600000D01*
X114850000Y-77600000D01*
G37*
G36*
X109359000Y-76596500D02*
X108451000Y-76596500D01*
X108451000Y-75053500D01*
X109359000Y-75053500D01*
X109359000Y-76596500D01*
X109359000Y-76596500D01*
G37*
G36*
X108089000Y-76596500D02*
X107181000Y-76596500D01*
X107181000Y-75053500D01*
X108089000Y-75053500D01*
X108089000Y-76596500D01*
X108089000Y-76596500D01*
G37*
G36*
X106819000Y-76596500D02*
X105911000Y-76596500D01*
X105911000Y-75053500D01*
X106819000Y-75053500D01*
X106819000Y-76596500D01*
X106819000Y-76596500D01*
G37*
G36*
X105549000Y-76596500D02*
X104641000Y-76596500D01*
X104641000Y-75053500D01*
X105549000Y-75053500D01*
X105549000Y-76596500D01*
X105549000Y-76596500D01*
G37*
G36*
X125644208Y-66763473D02*
X125785241Y-66777363D01*
X126011442Y-66845981D01*
X126011444Y-66845982D01*
X126011447Y-66845983D01*
X126219910Y-66957408D01*
X126402634Y-67107366D01*
X126552592Y-67290090D01*
X126664017Y-67498553D01*
X126664018Y-67498556D01*
X126664019Y-67498558D01*
X126732637Y-67724759D01*
X126755806Y-67960000D01*
X126732637Y-68195241D01*
X126664019Y-68421442D01*
X126664017Y-68421447D01*
X126552592Y-68629910D01*
X126402634Y-68812634D01*
X126219910Y-68962592D01*
X126028766Y-69064760D01*
X126008391Y-69078374D01*
X125991064Y-69095701D01*
X125977450Y-69116075D01*
X125968073Y-69138714D01*
X125963292Y-69162748D01*
X125963292Y-69187252D01*
X125968072Y-69211285D01*
X125977450Y-69233924D01*
X125991064Y-69254299D01*
X126008391Y-69271626D01*
X126028765Y-69285240D01*
X126051404Y-69294617D01*
X126075438Y-69299398D01*
X126087690Y-69300000D01*
X126750000Y-69300000D01*
X126750000Y-71700000D01*
X123750000Y-71700000D01*
X123750000Y-69300000D01*
X124412310Y-69300000D01*
X124436696Y-69297598D01*
X124460145Y-69290485D01*
X124481756Y-69278934D01*
X124500698Y-69263388D01*
X124516244Y-69244446D01*
X124527795Y-69222835D01*
X124534908Y-69199386D01*
X124537310Y-69175000D01*
X124534908Y-69150614D01*
X124527795Y-69127165D01*
X124516244Y-69105554D01*
X124500698Y-69086612D01*
X124481756Y-69071066D01*
X124471234Y-69064760D01*
X124280090Y-68962592D01*
X124097366Y-68812634D01*
X123947408Y-68629910D01*
X123835983Y-68421447D01*
X123835981Y-68421442D01*
X123767363Y-68195241D01*
X123744194Y-67960000D01*
X123767363Y-67724759D01*
X123835981Y-67498558D01*
X123835982Y-67498556D01*
X123835983Y-67498553D01*
X123947408Y-67290090D01*
X124097366Y-67107366D01*
X124280090Y-66957408D01*
X124488553Y-66845983D01*
X124488556Y-66845982D01*
X124488558Y-66845981D01*
X124714759Y-66777363D01*
X124855792Y-66763473D01*
X124891049Y-66760000D01*
X125608951Y-66760000D01*
X125644208Y-66763473D01*
X125644208Y-66763473D01*
G37*
G36*
X107422947Y-68130722D02*
X107686833Y-68240027D01*
X107924324Y-68398713D01*
X108126287Y-68600676D01*
X108284973Y-68838167D01*
X108394278Y-69102053D01*
X108450000Y-69382186D01*
X108450000Y-69667814D01*
X108394278Y-69947947D01*
X108284973Y-70211833D01*
X108126287Y-70449324D01*
X107924324Y-70651287D01*
X107686833Y-70809973D01*
X107422947Y-70919278D01*
X107142814Y-70975000D01*
X106857186Y-70975000D01*
X106577053Y-70919278D01*
X106313167Y-70809973D01*
X106075676Y-70651287D01*
X105873713Y-70449324D01*
X105715027Y-70211833D01*
X105605722Y-69947947D01*
X105550000Y-69667814D01*
X105550000Y-69382186D01*
X105605722Y-69102053D01*
X105715027Y-68838167D01*
X105873713Y-68600676D01*
X106075676Y-68398713D01*
X106313167Y-68240027D01*
X106577053Y-68130722D01*
X106857186Y-68075000D01*
X107142814Y-68075000D01*
X107422947Y-68130722D01*
X107422947Y-68130722D01*
G37*
G36*
X97897947Y-68130722D02*
X98161833Y-68240027D01*
X98399324Y-68398713D01*
X98601287Y-68600676D01*
X98759973Y-68838167D01*
X98869278Y-69102053D01*
X98925000Y-69382186D01*
X98925000Y-69667814D01*
X98869278Y-69947947D01*
X98759973Y-70211833D01*
X98601287Y-70449324D01*
X98399324Y-70651287D01*
X98161833Y-70809973D01*
X97897947Y-70919278D01*
X97617814Y-70975000D01*
X97332186Y-70975000D01*
X97052053Y-70919278D01*
X96788167Y-70809973D01*
X96550676Y-70651287D01*
X96348713Y-70449324D01*
X96190027Y-70211833D01*
X96080722Y-69947947D01*
X96025000Y-69667814D01*
X96025000Y-69382186D01*
X96080722Y-69102053D01*
X96190027Y-68838167D01*
X96348713Y-68600676D01*
X96550676Y-68398713D01*
X96788167Y-68240027D01*
X97052053Y-68130722D01*
X97332186Y-68075000D01*
X97617814Y-68075000D01*
X97897947Y-68130722D01*
X97897947Y-68130722D01*
G37*
G36*
X116947947Y-68130722D02*
X117211833Y-68240027D01*
X117449324Y-68398713D01*
X117651287Y-68600676D01*
X117809973Y-68838167D01*
X117919278Y-69102053D01*
X117975000Y-69382186D01*
X117975000Y-69667814D01*
X117919278Y-69947947D01*
X117809973Y-70211833D01*
X117651287Y-70449324D01*
X117449324Y-70651287D01*
X117211833Y-70809973D01*
X116947947Y-70919278D01*
X116667814Y-70975000D01*
X116382186Y-70975000D01*
X116102053Y-70919278D01*
X115838167Y-70809973D01*
X115600676Y-70651287D01*
X115398713Y-70449324D01*
X115240027Y-70211833D01*
X115130722Y-69947947D01*
X115072598Y-69655738D01*
X115065485Y-69632289D01*
X115053934Y-69610678D01*
X115038388Y-69591736D01*
X115019446Y-69576190D01*
X114997836Y-69564639D01*
X114974386Y-69557526D01*
X114950000Y-69555124D01*
X114925614Y-69557526D01*
X114902165Y-69564639D01*
X114880554Y-69576190D01*
X114861612Y-69591736D01*
X114846066Y-69610678D01*
X114834515Y-69632288D01*
X114827402Y-69655738D01*
X114825000Y-69680124D01*
X114825000Y-70200000D01*
X113175000Y-70200000D01*
X113175000Y-68300000D01*
X114825000Y-68300000D01*
X114825000Y-69369876D01*
X114827402Y-69394262D01*
X114834515Y-69417711D01*
X114846066Y-69439322D01*
X114861612Y-69458264D01*
X114880554Y-69473810D01*
X114902165Y-69485361D01*
X114925614Y-69492474D01*
X114950000Y-69494876D01*
X114974386Y-69492474D01*
X114997835Y-69485361D01*
X115019446Y-69473810D01*
X115038388Y-69458264D01*
X115053934Y-69439322D01*
X115065485Y-69417711D01*
X115072598Y-69394262D01*
X115130722Y-69102053D01*
X115240027Y-68838167D01*
X115398713Y-68600676D01*
X115600676Y-68398713D01*
X115838167Y-68240027D01*
X116102053Y-68130722D01*
X116382186Y-68075000D01*
X116667814Y-68075000D01*
X116947947Y-68130722D01*
X116947947Y-68130722D01*
G37*
G36*
X114825000Y-67700000D02*
X113175000Y-67700000D01*
X113175000Y-65800000D01*
X114825000Y-65800000D01*
X114825000Y-67700000D01*
X114825000Y-67700000D01*
G37*
G36*
X98200000Y-65825000D02*
X96300000Y-65825000D01*
X96300000Y-64175000D01*
X98200000Y-64175000D01*
X98200000Y-65825000D01*
X98200000Y-65825000D01*
G37*
G36*
X95700000Y-65825000D02*
X93800000Y-65825000D01*
X93800000Y-64175000D01*
X95700000Y-64175000D01*
X95700000Y-65825000D01*
X95700000Y-65825000D01*
G37*
G36*
X101450000Y-63200000D02*
X98550000Y-63200000D01*
X98550000Y-59050000D01*
X101450000Y-59050000D01*
X101450000Y-63200000D01*
X101450000Y-63200000D01*
G37*
G36*
X121350000Y-62650000D02*
X118650000Y-62650000D01*
X118650000Y-58750000D01*
X121350000Y-58750000D01*
X121350000Y-62650000D01*
X121350000Y-62650000D01*
G37*
G36*
X105910000Y-62650000D02*
X103510000Y-62650000D01*
X103510000Y-58750000D01*
X105910000Y-58750000D01*
X105910000Y-62650000D01*
X105910000Y-62650000D01*
G37*
G36*
X110490000Y-62650000D02*
X108090000Y-62650000D01*
X108090000Y-58750000D01*
X110490000Y-58750000D01*
X110490000Y-62650000D01*
X110490000Y-62650000D01*
G37*
G36*
X115000000Y-62200000D02*
X113000000Y-62200000D01*
X113000000Y-59800000D01*
X115000000Y-59800000D01*
X115000000Y-62200000D01*
X115000000Y-62200000D01*
G37*
G36*
X95000000Y-62200000D02*
X93000000Y-62200000D01*
X93000000Y-59800000D01*
X95000000Y-59800000D01*
X95000000Y-62200000D01*
X95000000Y-62200000D01*
G37*
G36*
X115000000Y-58200000D02*
X113000000Y-58200000D01*
X113000000Y-55800000D01*
X115000000Y-55800000D01*
X115000000Y-58200000D01*
X115000000Y-58200000D01*
G37*
G36*
X95000000Y-58200000D02*
X93000000Y-58200000D01*
X93000000Y-55800000D01*
X95000000Y-55800000D01*
X95000000Y-58200000D01*
X95000000Y-58200000D01*
G37*
G36*
X121350000Y-57250000D02*
X118650000Y-57250000D01*
X118650000Y-53350000D01*
X121350000Y-53350000D01*
X121350000Y-57250000D01*
X121350000Y-57250000D01*
G37*
G36*
X110690000Y-57000000D02*
X103290000Y-57000000D01*
X103290000Y-49600000D01*
X110690000Y-49600000D01*
X110690000Y-57000000D01*
X110690000Y-57000000D01*
G37*
G36*
X101450000Y-56950000D02*
X98550000Y-56950000D01*
X98550000Y-52800000D01*
X101450000Y-52800000D01*
X101450000Y-56950000D01*
X101450000Y-56950000D01*
G37*
G36*
X116947947Y-49080722D02*
X117211833Y-49190027D01*
X117449324Y-49348713D01*
X117651287Y-49550676D01*
X117809973Y-49788167D01*
X117919278Y-50052053D01*
X117975000Y-50332186D01*
X117975000Y-50617814D01*
X117919278Y-50897947D01*
X117809973Y-51161833D01*
X117651287Y-51399324D01*
X117449324Y-51601287D01*
X117211833Y-51759973D01*
X116947947Y-51869278D01*
X116667814Y-51925000D01*
X116382186Y-51925000D01*
X116102053Y-51869278D01*
X115838167Y-51759973D01*
X115600676Y-51601287D01*
X115398713Y-51399324D01*
X115240027Y-51161833D01*
X115130722Y-50897947D01*
X115075000Y-50617814D01*
X115075000Y-50332186D01*
X115130722Y-50052053D01*
X115240027Y-49788167D01*
X115398713Y-49550676D01*
X115600676Y-49348713D01*
X115838167Y-49190027D01*
X116102053Y-49080722D01*
X116382186Y-49025000D01*
X116667814Y-49025000D01*
X116947947Y-49080722D01*
X116947947Y-49080722D01*
G37*
G36*
X97897947Y-49080722D02*
X98161833Y-49190027D01*
X98399324Y-49348713D01*
X98601287Y-49550676D01*
X98759973Y-49788167D01*
X98869278Y-50052053D01*
X98925000Y-50332186D01*
X98925000Y-50617814D01*
X98869278Y-50897947D01*
X98759973Y-51161833D01*
X98601287Y-51399324D01*
X98399324Y-51601287D01*
X98161833Y-51759973D01*
X97897947Y-51869278D01*
X97617814Y-51925000D01*
X97332186Y-51925000D01*
X97052053Y-51869278D01*
X96788167Y-51759973D01*
X96550676Y-51601287D01*
X96348713Y-51399324D01*
X96190027Y-51161833D01*
X96080722Y-50897947D01*
X96025000Y-50617814D01*
X96025000Y-50332186D01*
X96080722Y-50052053D01*
X96190027Y-49788167D01*
X96348713Y-49550676D01*
X96550676Y-49348713D01*
X96788167Y-49190027D01*
X97052053Y-49080722D01*
X97332186Y-49025000D01*
X97617814Y-49025000D01*
X97897947Y-49080722D01*
X97897947Y-49080722D01*
G37*
M02*
