%TF.GenerationSoftware,KiCad,Pcbnew,8.0.4*%
%TF.CreationDate,2025-01-27T10:30:38+01:00*%
%TF.ProjectId,ocxo,6f63786f-2e6b-4696-9361-645f70636258,rev?*%
%TF.SameCoordinates,Original*%
%TF.FileFunction,Drillmap*%
%TF.FilePolarity,Positive*%
%FSLAX45Y45*%
G04 Gerber Fmt 4.5, Leading zero omitted, Abs format (unit mm)*
G04 Created by KiCad (PCBNEW 8.0.4) date 2025-01-27 10:30:38*
%MOMM*%
%LPD*%
G01*
G04 APERTURE LIST*
%ADD10C,0.150000*%
%ADD11C,0.200000*%
%ADD12C,0.100000*%
%ADD13C,0.120000*%
%ADD14C,0.130048*%
%ADD15C,0.320000*%
G04 APERTURE END LIST*
D10*
X8000000Y-9500000D02*
X8000000Y-4500000D01*
X13000000Y-9500000D02*
X8000000Y-9500000D01*
X13000000Y-4500000D02*
X13000000Y-9500000D01*
X8000000Y-4500000D02*
X13000000Y-4500000D01*
D11*
D12*
X8085000Y-5285000D02*
X8115000Y-5315000D01*
X8115000Y-5285000D02*
X8085000Y-5315000D01*
X8085000Y-5385000D02*
X8115000Y-5415000D01*
X8115000Y-5385000D02*
X8085000Y-5415000D01*
X8085000Y-5485000D02*
X8115000Y-5515000D01*
X8115000Y-5485000D02*
X8085000Y-5515000D01*
X8085000Y-5585000D02*
X8115000Y-5615000D01*
X8115000Y-5585000D02*
X8085000Y-5615000D01*
X8085000Y-5685000D02*
X8115000Y-5715000D01*
X8115000Y-5685000D02*
X8085000Y-5715000D01*
X8085000Y-5785000D02*
X8115000Y-5815000D01*
X8115000Y-5785000D02*
X8085000Y-5815000D01*
X8085000Y-5885000D02*
X8115000Y-5915000D01*
X8115000Y-5885000D02*
X8085000Y-5915000D01*
X8085000Y-5985000D02*
X8115000Y-6015000D01*
X8115000Y-5985000D02*
X8085000Y-6015000D01*
X8085000Y-6085000D02*
X8115000Y-6115000D01*
X8115000Y-6085000D02*
X8085000Y-6115000D01*
X8085000Y-6185000D02*
X8115000Y-6215000D01*
X8115000Y-6185000D02*
X8085000Y-6215000D01*
X8085000Y-6285000D02*
X8115000Y-6315000D01*
X8115000Y-6285000D02*
X8085000Y-6315000D01*
X8085000Y-6385000D02*
X8115000Y-6415000D01*
X8115000Y-6385000D02*
X8085000Y-6415000D01*
X8085000Y-6485000D02*
X8115000Y-6515000D01*
X8115000Y-6485000D02*
X8085000Y-6515000D01*
X8085000Y-6585000D02*
X8115000Y-6615000D01*
X8115000Y-6585000D02*
X8085000Y-6615000D01*
X8085000Y-6685000D02*
X8115000Y-6715000D01*
X8115000Y-6685000D02*
X8085000Y-6715000D01*
X8085000Y-6785000D02*
X8115000Y-6815000D01*
X8115000Y-6785000D02*
X8085000Y-6815000D01*
X8085000Y-6885000D02*
X8115000Y-6915000D01*
X8115000Y-6885000D02*
X8085000Y-6915000D01*
X8085000Y-6985000D02*
X8115000Y-7015000D01*
X8115000Y-6985000D02*
X8085000Y-7015000D01*
X8085000Y-7085000D02*
X8115000Y-7115000D01*
X8115000Y-7085000D02*
X8085000Y-7115000D01*
X8085000Y-7185000D02*
X8115000Y-7215000D01*
X8115000Y-7185000D02*
X8085000Y-7215000D01*
X8085000Y-7285000D02*
X8115000Y-7315000D01*
X8115000Y-7285000D02*
X8085000Y-7315000D01*
X8085000Y-7385000D02*
X8115000Y-7415000D01*
X8115000Y-7385000D02*
X8085000Y-7415000D01*
X8085000Y-7485000D02*
X8115000Y-7515000D01*
X8115000Y-7485000D02*
X8085000Y-7515000D01*
X8085000Y-7585000D02*
X8115000Y-7615000D01*
X8115000Y-7585000D02*
X8085000Y-7615000D01*
X8085000Y-7685000D02*
X8115000Y-7715000D01*
X8115000Y-7685000D02*
X8085000Y-7715000D01*
X8085000Y-7785000D02*
X8115000Y-7815000D01*
X8115000Y-7785000D02*
X8085000Y-7815000D01*
X8085000Y-7885000D02*
X8115000Y-7915000D01*
X8115000Y-7885000D02*
X8085000Y-7915000D01*
X8085000Y-7985000D02*
X8115000Y-8015000D01*
X8115000Y-7985000D02*
X8085000Y-8015000D01*
X8085000Y-8085000D02*
X8115000Y-8115000D01*
X8115000Y-8085000D02*
X8085000Y-8115000D01*
X8085000Y-8185000D02*
X8115000Y-8215000D01*
X8115000Y-8185000D02*
X8085000Y-8215000D01*
X8085000Y-8285000D02*
X8115000Y-8315000D01*
X8115000Y-8285000D02*
X8085000Y-8315000D01*
X8085000Y-8385000D02*
X8115000Y-8415000D01*
X8115000Y-8385000D02*
X8085000Y-8415000D01*
X8085000Y-8485000D02*
X8115000Y-8515000D01*
X8115000Y-8485000D02*
X8085000Y-8515000D01*
X8085000Y-8585000D02*
X8115000Y-8615000D01*
X8115000Y-8585000D02*
X8085000Y-8615000D01*
X8085000Y-8685000D02*
X8115000Y-8715000D01*
X8115000Y-8685000D02*
X8085000Y-8715000D01*
X8185000Y-5285000D02*
X8215000Y-5315000D01*
X8215000Y-5285000D02*
X8185000Y-5315000D01*
X8185000Y-5385000D02*
X8215000Y-5415000D01*
X8215000Y-5385000D02*
X8185000Y-5415000D01*
X8185000Y-5485000D02*
X8215000Y-5515000D01*
X8215000Y-5485000D02*
X8185000Y-5515000D01*
X8185000Y-5585000D02*
X8215000Y-5615000D01*
X8215000Y-5585000D02*
X8185000Y-5615000D01*
X8185000Y-5685000D02*
X8215000Y-5715000D01*
X8215000Y-5685000D02*
X8185000Y-5715000D01*
X8185000Y-5785000D02*
X8215000Y-5815000D01*
X8215000Y-5785000D02*
X8185000Y-5815000D01*
X8185000Y-5885000D02*
X8215000Y-5915000D01*
X8215000Y-5885000D02*
X8185000Y-5915000D01*
X8185000Y-5985000D02*
X8215000Y-6015000D01*
X8215000Y-5985000D02*
X8185000Y-6015000D01*
X8185000Y-6085000D02*
X8215000Y-6115000D01*
X8215000Y-6085000D02*
X8185000Y-6115000D01*
X8185000Y-6185000D02*
X8215000Y-6215000D01*
X8215000Y-6185000D02*
X8185000Y-6215000D01*
X8185000Y-6285000D02*
X8215000Y-6315000D01*
X8215000Y-6285000D02*
X8185000Y-6315000D01*
X8185000Y-6385000D02*
X8215000Y-6415000D01*
X8215000Y-6385000D02*
X8185000Y-6415000D01*
X8185000Y-6485000D02*
X8215000Y-6515000D01*
X8215000Y-6485000D02*
X8185000Y-6515000D01*
X8185000Y-6585000D02*
X8215000Y-6615000D01*
X8215000Y-6585000D02*
X8185000Y-6615000D01*
X8185000Y-6685000D02*
X8215000Y-6715000D01*
X8215000Y-6685000D02*
X8185000Y-6715000D01*
X8185000Y-6785000D02*
X8215000Y-6815000D01*
X8215000Y-6785000D02*
X8185000Y-6815000D01*
X8185000Y-6885000D02*
X8215000Y-6915000D01*
X8215000Y-6885000D02*
X8185000Y-6915000D01*
X8185000Y-6985000D02*
X8215000Y-7015000D01*
X8215000Y-6985000D02*
X8185000Y-7015000D01*
X8185000Y-7085000D02*
X8215000Y-7115000D01*
X8215000Y-7085000D02*
X8185000Y-7115000D01*
X8185000Y-7185000D02*
X8215000Y-7215000D01*
X8215000Y-7185000D02*
X8185000Y-7215000D01*
X8185000Y-7285000D02*
X8215000Y-7315000D01*
X8215000Y-7285000D02*
X8185000Y-7315000D01*
X8185000Y-7385000D02*
X8215000Y-7415000D01*
X8215000Y-7385000D02*
X8185000Y-7415000D01*
X8185000Y-7485000D02*
X8215000Y-7515000D01*
X8215000Y-7485000D02*
X8185000Y-7515000D01*
X8185000Y-7585000D02*
X8215000Y-7615000D01*
X8215000Y-7585000D02*
X8185000Y-7615000D01*
X8185000Y-7685000D02*
X8215000Y-7715000D01*
X8215000Y-7685000D02*
X8185000Y-7715000D01*
X8185000Y-7785000D02*
X8215000Y-7815000D01*
X8215000Y-7785000D02*
X8185000Y-7815000D01*
X8185000Y-7885000D02*
X8215000Y-7915000D01*
X8215000Y-7885000D02*
X8185000Y-7915000D01*
X8185000Y-7985000D02*
X8215000Y-8015000D01*
X8215000Y-7985000D02*
X8185000Y-8015000D01*
X8185000Y-8085000D02*
X8215000Y-8115000D01*
X8215000Y-8085000D02*
X8185000Y-8115000D01*
X8185000Y-8185000D02*
X8215000Y-8215000D01*
X8215000Y-8185000D02*
X8185000Y-8215000D01*
X8185000Y-8285000D02*
X8215000Y-8315000D01*
X8215000Y-8285000D02*
X8185000Y-8315000D01*
X8185000Y-8385000D02*
X8215000Y-8415000D01*
X8215000Y-8385000D02*
X8185000Y-8415000D01*
X8185000Y-8485000D02*
X8215000Y-8515000D01*
X8215000Y-8485000D02*
X8185000Y-8515000D01*
X8185000Y-8585000D02*
X8215000Y-8615000D01*
X8215000Y-8585000D02*
X8185000Y-8615000D01*
X8185000Y-8685000D02*
X8215000Y-8715000D01*
X8215000Y-8685000D02*
X8185000Y-8715000D01*
X8785000Y-4585000D02*
X8815000Y-4615000D01*
X8815000Y-4585000D02*
X8785000Y-4615000D01*
X8785000Y-4685000D02*
X8815000Y-4715000D01*
X8815000Y-4685000D02*
X8785000Y-4715000D01*
X8785000Y-9285000D02*
X8815000Y-9315000D01*
X8815000Y-9285000D02*
X8785000Y-9315000D01*
X8785000Y-9385000D02*
X8815000Y-9415000D01*
X8815000Y-9385000D02*
X8785000Y-9415000D01*
X8885000Y-4585000D02*
X8915000Y-4615000D01*
X8915000Y-4585000D02*
X8885000Y-4615000D01*
X8885000Y-4685000D02*
X8915000Y-4715000D01*
X8915000Y-4685000D02*
X8885000Y-4715000D01*
X8885000Y-9285000D02*
X8915000Y-9315000D01*
X8915000Y-9285000D02*
X8885000Y-9315000D01*
X8885000Y-9385000D02*
X8915000Y-9415000D01*
X8915000Y-9385000D02*
X8885000Y-9415000D01*
X8985000Y-4585000D02*
X9015000Y-4615000D01*
X9015000Y-4585000D02*
X8985000Y-4615000D01*
X8985000Y-4685000D02*
X9015000Y-4715000D01*
X9015000Y-4685000D02*
X8985000Y-4715000D01*
X8985000Y-9285000D02*
X9015000Y-9315000D01*
X9015000Y-9285000D02*
X8985000Y-9315000D01*
X8985000Y-9385000D02*
X9015000Y-9415000D01*
X9015000Y-9385000D02*
X8985000Y-9415000D01*
X9085000Y-4585000D02*
X9115000Y-4615000D01*
X9115000Y-4585000D02*
X9085000Y-4615000D01*
X9085000Y-4685000D02*
X9115000Y-4715000D01*
X9115000Y-4685000D02*
X9085000Y-4715000D01*
X9085000Y-9285000D02*
X9115000Y-9315000D01*
X9115000Y-9285000D02*
X9085000Y-9315000D01*
X9085000Y-9385000D02*
X9115000Y-9415000D01*
X9115000Y-9385000D02*
X9085000Y-9415000D01*
X9185000Y-4585000D02*
X9215000Y-4615000D01*
X9215000Y-4585000D02*
X9185000Y-4615000D01*
X9185000Y-4685000D02*
X9215000Y-4715000D01*
X9215000Y-4685000D02*
X9185000Y-4715000D01*
X9185000Y-9285000D02*
X9215000Y-9315000D01*
X9215000Y-9285000D02*
X9185000Y-9315000D01*
X9185000Y-9385000D02*
X9215000Y-9415000D01*
X9215000Y-9385000D02*
X9185000Y-9415000D01*
X9285000Y-4585000D02*
X9315000Y-4615000D01*
X9315000Y-4585000D02*
X9285000Y-4615000D01*
X9285000Y-4685000D02*
X9315000Y-4715000D01*
X9315000Y-4685000D02*
X9285000Y-4715000D01*
X9285000Y-9285000D02*
X9315000Y-9315000D01*
X9315000Y-9285000D02*
X9285000Y-9315000D01*
X9285000Y-9385000D02*
X9315000Y-9415000D01*
X9315000Y-9385000D02*
X9285000Y-9415000D01*
X9385000Y-4585000D02*
X9415000Y-4615000D01*
X9415000Y-4585000D02*
X9385000Y-4615000D01*
X9385000Y-4685000D02*
X9415000Y-4715000D01*
X9415000Y-4685000D02*
X9385000Y-4715000D01*
X9385000Y-9285000D02*
X9415000Y-9315000D01*
X9415000Y-9285000D02*
X9385000Y-9315000D01*
X9385000Y-9385000D02*
X9415000Y-9415000D01*
X9415000Y-9385000D02*
X9385000Y-9415000D01*
X9485000Y-4585000D02*
X9515000Y-4615000D01*
X9515000Y-4585000D02*
X9485000Y-4615000D01*
X9485000Y-4685000D02*
X9515000Y-4715000D01*
X9515000Y-4685000D02*
X9485000Y-4715000D01*
X9485000Y-9285000D02*
X9515000Y-9315000D01*
X9515000Y-9285000D02*
X9485000Y-9315000D01*
X9485000Y-9385000D02*
X9515000Y-9415000D01*
X9515000Y-9385000D02*
X9485000Y-9415000D01*
X9585000Y-4585000D02*
X9615000Y-4615000D01*
X9615000Y-4585000D02*
X9585000Y-4615000D01*
X9585000Y-4685000D02*
X9615000Y-4715000D01*
X9615000Y-4685000D02*
X9585000Y-4715000D01*
X9685000Y-4585000D02*
X9715000Y-4615000D01*
X9715000Y-4585000D02*
X9685000Y-4615000D01*
X9685000Y-4685000D02*
X9715000Y-4715000D01*
X9715000Y-4685000D02*
X9685000Y-4715000D01*
X9785000Y-4585000D02*
X9815000Y-4615000D01*
X9815000Y-4585000D02*
X9785000Y-4615000D01*
X9785000Y-4685000D02*
X9815000Y-4715000D01*
X9815000Y-4685000D02*
X9785000Y-4715000D01*
X9885000Y-4585000D02*
X9915000Y-4615000D01*
X9915000Y-4585000D02*
X9885000Y-4615000D01*
X9885000Y-4685000D02*
X9915000Y-4715000D01*
X9915000Y-4685000D02*
X9885000Y-4715000D01*
X9985000Y-4585000D02*
X10015000Y-4615000D01*
X10015000Y-4585000D02*
X9985000Y-4615000D01*
X9985000Y-4685000D02*
X10015000Y-4715000D01*
X10015000Y-4685000D02*
X9985000Y-4715000D01*
X10085000Y-4585000D02*
X10115000Y-4615000D01*
X10115000Y-4585000D02*
X10085000Y-4615000D01*
X10085000Y-4685000D02*
X10115000Y-4715000D01*
X10115000Y-4685000D02*
X10085000Y-4715000D01*
X10185000Y-4585000D02*
X10215000Y-4615000D01*
X10215000Y-4585000D02*
X10185000Y-4615000D01*
X10185000Y-4685000D02*
X10215000Y-4715000D01*
X10215000Y-4685000D02*
X10185000Y-4715000D01*
X10285000Y-4585000D02*
X10315000Y-4615000D01*
X10315000Y-4585000D02*
X10285000Y-4615000D01*
X10285000Y-4685000D02*
X10315000Y-4715000D01*
X10315000Y-4685000D02*
X10285000Y-4715000D01*
X10385000Y-4585000D02*
X10415000Y-4615000D01*
X10415000Y-4585000D02*
X10385000Y-4615000D01*
X10385000Y-4685000D02*
X10415000Y-4715000D01*
X10415000Y-4685000D02*
X10385000Y-4715000D01*
X10485000Y-4585000D02*
X10515000Y-4615000D01*
X10515000Y-4585000D02*
X10485000Y-4615000D01*
X10485000Y-4685000D02*
X10515000Y-4715000D01*
X10515000Y-4685000D02*
X10485000Y-4715000D01*
X10485000Y-9285000D02*
X10515000Y-9315000D01*
X10515000Y-9285000D02*
X10485000Y-9315000D01*
X10485000Y-9385000D02*
X10515000Y-9415000D01*
X10515000Y-9385000D02*
X10485000Y-9415000D01*
X10585000Y-4585000D02*
X10615000Y-4615000D01*
X10615000Y-4585000D02*
X10585000Y-4615000D01*
X10585000Y-4685000D02*
X10615000Y-4715000D01*
X10615000Y-4685000D02*
X10585000Y-4715000D01*
X10585000Y-9285000D02*
X10615000Y-9315000D01*
X10615000Y-9285000D02*
X10585000Y-9315000D01*
X10585000Y-9385000D02*
X10615000Y-9415000D01*
X10615000Y-9385000D02*
X10585000Y-9415000D01*
X10685000Y-4585000D02*
X10715000Y-4615000D01*
X10715000Y-4585000D02*
X10685000Y-4615000D01*
X10685000Y-4685000D02*
X10715000Y-4715000D01*
X10715000Y-4685000D02*
X10685000Y-4715000D01*
X10685000Y-9285000D02*
X10715000Y-9315000D01*
X10715000Y-9285000D02*
X10685000Y-9315000D01*
X10685000Y-9385000D02*
X10715000Y-9415000D01*
X10715000Y-9385000D02*
X10685000Y-9415000D01*
X10785000Y-4585000D02*
X10815000Y-4615000D01*
X10815000Y-4585000D02*
X10785000Y-4615000D01*
X10785000Y-4685000D02*
X10815000Y-4715000D01*
X10815000Y-4685000D02*
X10785000Y-4715000D01*
X10785000Y-9285000D02*
X10815000Y-9315000D01*
X10815000Y-9285000D02*
X10785000Y-9315000D01*
X10785000Y-9385000D02*
X10815000Y-9415000D01*
X10815000Y-9385000D02*
X10785000Y-9415000D01*
X10885000Y-4585000D02*
X10915000Y-4615000D01*
X10915000Y-4585000D02*
X10885000Y-4615000D01*
X10885000Y-4685000D02*
X10915000Y-4715000D01*
X10915000Y-4685000D02*
X10885000Y-4715000D01*
X10885000Y-9285000D02*
X10915000Y-9315000D01*
X10915000Y-9285000D02*
X10885000Y-9315000D01*
X10885000Y-9385000D02*
X10915000Y-9415000D01*
X10915000Y-9385000D02*
X10885000Y-9415000D01*
X10985000Y-4585000D02*
X11015000Y-4615000D01*
X11015000Y-4585000D02*
X10985000Y-4615000D01*
X10985000Y-4685000D02*
X11015000Y-4715000D01*
X11015000Y-4685000D02*
X10985000Y-4715000D01*
X10985000Y-9285000D02*
X11015000Y-9315000D01*
X11015000Y-9285000D02*
X10985000Y-9315000D01*
X10985000Y-9385000D02*
X11015000Y-9415000D01*
X11015000Y-9385000D02*
X10985000Y-9415000D01*
X11085000Y-4585000D02*
X11115000Y-4615000D01*
X11115000Y-4585000D02*
X11085000Y-4615000D01*
X11085000Y-4685000D02*
X11115000Y-4715000D01*
X11115000Y-4685000D02*
X11085000Y-4715000D01*
X11085000Y-9285000D02*
X11115000Y-9315000D01*
X11115000Y-9285000D02*
X11085000Y-9315000D01*
X11085000Y-9385000D02*
X11115000Y-9415000D01*
X11115000Y-9385000D02*
X11085000Y-9415000D01*
X11085000Y-9385000D02*
X11115000Y-9415000D01*
X11115000Y-9385000D02*
X11085000Y-9415000D01*
X11185000Y-4585000D02*
X11215000Y-4615000D01*
X11215000Y-4585000D02*
X11185000Y-4615000D01*
X11185000Y-4685000D02*
X11215000Y-4715000D01*
X11215000Y-4685000D02*
X11185000Y-4715000D01*
X11185000Y-9285000D02*
X11215000Y-9315000D01*
X11215000Y-9285000D02*
X11185000Y-9315000D01*
X11185000Y-9385000D02*
X11215000Y-9415000D01*
X11215000Y-9385000D02*
X11185000Y-9415000D01*
X11285000Y-4585000D02*
X11315000Y-4615000D01*
X11315000Y-4585000D02*
X11285000Y-4615000D01*
X11285000Y-4685000D02*
X11315000Y-4715000D01*
X11315000Y-4685000D02*
X11285000Y-4715000D01*
X11285000Y-9285000D02*
X11315000Y-9315000D01*
X11315000Y-9285000D02*
X11285000Y-9315000D01*
X11285000Y-9385000D02*
X11315000Y-9415000D01*
X11315000Y-9385000D02*
X11285000Y-9415000D01*
X11385000Y-4585000D02*
X11415000Y-4615000D01*
X11415000Y-4585000D02*
X11385000Y-4615000D01*
X11385000Y-4685000D02*
X11415000Y-4715000D01*
X11415000Y-4685000D02*
X11385000Y-4715000D01*
X11385000Y-9285000D02*
X11415000Y-9315000D01*
X11415000Y-9285000D02*
X11385000Y-9315000D01*
X11385000Y-9385000D02*
X11415000Y-9415000D01*
X11415000Y-9385000D02*
X11385000Y-9415000D01*
X11485000Y-4585000D02*
X11515000Y-4615000D01*
X11515000Y-4585000D02*
X11485000Y-4615000D01*
X11485000Y-4685000D02*
X11515000Y-4715000D01*
X11515000Y-4685000D02*
X11485000Y-4715000D01*
X11485000Y-9285000D02*
X11515000Y-9315000D01*
X11515000Y-9285000D02*
X11485000Y-9315000D01*
X11485000Y-9385000D02*
X11515000Y-9415000D01*
X11515000Y-9385000D02*
X11485000Y-9415000D01*
X11585000Y-4585000D02*
X11615000Y-4615000D01*
X11615000Y-4585000D02*
X11585000Y-4615000D01*
X11585000Y-4685000D02*
X11615000Y-4715000D01*
X11615000Y-4685000D02*
X11585000Y-4715000D01*
X11585000Y-9285000D02*
X11615000Y-9315000D01*
X11615000Y-9285000D02*
X11585000Y-9315000D01*
X11585000Y-9385000D02*
X11615000Y-9415000D01*
X11615000Y-9385000D02*
X11585000Y-9415000D01*
X11685000Y-4585000D02*
X11715000Y-4615000D01*
X11715000Y-4585000D02*
X11685000Y-4615000D01*
X11685000Y-4685000D02*
X11715000Y-4715000D01*
X11715000Y-4685000D02*
X11685000Y-4715000D01*
X11685000Y-9285000D02*
X11715000Y-9315000D01*
X11715000Y-9285000D02*
X11685000Y-9315000D01*
X11685000Y-9385000D02*
X11715000Y-9415000D01*
X11715000Y-9385000D02*
X11685000Y-9415000D01*
X11785000Y-4585000D02*
X11815000Y-4615000D01*
X11815000Y-4585000D02*
X11785000Y-4615000D01*
X11785000Y-4685000D02*
X11815000Y-4715000D01*
X11815000Y-4685000D02*
X11785000Y-4715000D01*
X11785000Y-9285000D02*
X11815000Y-9315000D01*
X11815000Y-9285000D02*
X11785000Y-9315000D01*
X11785000Y-9385000D02*
X11815000Y-9415000D01*
X11815000Y-9385000D02*
X11785000Y-9415000D01*
X11885000Y-4585000D02*
X11915000Y-4615000D01*
X11915000Y-4585000D02*
X11885000Y-4615000D01*
X11885000Y-4685000D02*
X11915000Y-4715000D01*
X11915000Y-4685000D02*
X11885000Y-4715000D01*
X11885000Y-9285000D02*
X11915000Y-9315000D01*
X11915000Y-9285000D02*
X11885000Y-9315000D01*
X11885000Y-9385000D02*
X11915000Y-9415000D01*
X11915000Y-9385000D02*
X11885000Y-9415000D01*
X11985000Y-4585000D02*
X12015000Y-4615000D01*
X12015000Y-4585000D02*
X11985000Y-4615000D01*
X11985000Y-4685000D02*
X12015000Y-4715000D01*
X12015000Y-4685000D02*
X11985000Y-4715000D01*
X11985000Y-9285000D02*
X12015000Y-9315000D01*
X12015000Y-9285000D02*
X11985000Y-9315000D01*
X11985000Y-9385000D02*
X12015000Y-9415000D01*
X12015000Y-9385000D02*
X11985000Y-9415000D01*
X12085000Y-4585000D02*
X12115000Y-4615000D01*
X12115000Y-4585000D02*
X12085000Y-4615000D01*
X12085000Y-4685000D02*
X12115000Y-4715000D01*
X12115000Y-4685000D02*
X12085000Y-4715000D01*
X12085000Y-9285000D02*
X12115000Y-9315000D01*
X12115000Y-9285000D02*
X12085000Y-9315000D01*
X12085000Y-9385000D02*
X12115000Y-9415000D01*
X12115000Y-9385000D02*
X12085000Y-9415000D01*
X12185000Y-4585000D02*
X12215000Y-4615000D01*
X12215000Y-4585000D02*
X12185000Y-4615000D01*
X12185000Y-4685000D02*
X12215000Y-4715000D01*
X12215000Y-4685000D02*
X12185000Y-4715000D01*
X12185000Y-9285000D02*
X12215000Y-9315000D01*
X12215000Y-9285000D02*
X12185000Y-9315000D01*
X12185000Y-9385000D02*
X12215000Y-9415000D01*
X12215000Y-9385000D02*
X12185000Y-9415000D01*
X12785000Y-5285000D02*
X12815000Y-5315000D01*
X12815000Y-5285000D02*
X12785000Y-5315000D01*
X12785000Y-5385000D02*
X12815000Y-5415000D01*
X12815000Y-5385000D02*
X12785000Y-5415000D01*
X12785000Y-5485000D02*
X12815000Y-5515000D01*
X12815000Y-5485000D02*
X12785000Y-5515000D01*
X12785000Y-5585000D02*
X12815000Y-5615000D01*
X12815000Y-5585000D02*
X12785000Y-5615000D01*
X12785000Y-5685000D02*
X12815000Y-5715000D01*
X12815000Y-5685000D02*
X12785000Y-5715000D01*
X12785000Y-5785000D02*
X12815000Y-5815000D01*
X12815000Y-5785000D02*
X12785000Y-5815000D01*
X12785000Y-5885000D02*
X12815000Y-5915000D01*
X12815000Y-5885000D02*
X12785000Y-5915000D01*
X12785000Y-5985000D02*
X12815000Y-6015000D01*
X12815000Y-5985000D02*
X12785000Y-6015000D01*
X12785000Y-6085000D02*
X12815000Y-6115000D01*
X12815000Y-6085000D02*
X12785000Y-6115000D01*
X12785000Y-6185000D02*
X12815000Y-6215000D01*
X12815000Y-6185000D02*
X12785000Y-6215000D01*
X12785000Y-6285000D02*
X12815000Y-6315000D01*
X12815000Y-6285000D02*
X12785000Y-6315000D01*
X12785000Y-6385000D02*
X12815000Y-6415000D01*
X12815000Y-6385000D02*
X12785000Y-6415000D01*
X12785000Y-6485000D02*
X12815000Y-6515000D01*
X12815000Y-6485000D02*
X12785000Y-6515000D01*
X12785000Y-6585000D02*
X12815000Y-6615000D01*
X12815000Y-6585000D02*
X12785000Y-6615000D01*
X12785000Y-6685000D02*
X12815000Y-6715000D01*
X12815000Y-6685000D02*
X12785000Y-6715000D01*
X12785000Y-6785000D02*
X12815000Y-6815000D01*
X12815000Y-6785000D02*
X12785000Y-6815000D01*
X12785000Y-6885000D02*
X12815000Y-6915000D01*
X12815000Y-6885000D02*
X12785000Y-6915000D01*
X12785000Y-6985000D02*
X12815000Y-7015000D01*
X12815000Y-6985000D02*
X12785000Y-7015000D01*
X12785000Y-7085000D02*
X12815000Y-7115000D01*
X12815000Y-7085000D02*
X12785000Y-7115000D01*
X12785000Y-7185000D02*
X12815000Y-7215000D01*
X12815000Y-7185000D02*
X12785000Y-7215000D01*
X12785000Y-7285000D02*
X12815000Y-7315000D01*
X12815000Y-7285000D02*
X12785000Y-7315000D01*
X12785000Y-7385000D02*
X12815000Y-7415000D01*
X12815000Y-7385000D02*
X12785000Y-7415000D01*
X12785000Y-7385000D02*
X12815000Y-7415000D01*
X12815000Y-7385000D02*
X12785000Y-7415000D01*
X12785000Y-7485000D02*
X12815000Y-7515000D01*
X12815000Y-7485000D02*
X12785000Y-7515000D01*
X12785000Y-7485000D02*
X12815000Y-7515000D01*
X12815000Y-7485000D02*
X12785000Y-7515000D01*
X12785000Y-7585000D02*
X12815000Y-7615000D01*
X12815000Y-7585000D02*
X12785000Y-7615000D01*
X12785000Y-7585000D02*
X12815000Y-7615000D01*
X12815000Y-7585000D02*
X12785000Y-7615000D01*
X12785000Y-7685000D02*
X12815000Y-7715000D01*
X12815000Y-7685000D02*
X12785000Y-7715000D01*
X12785000Y-7685000D02*
X12815000Y-7715000D01*
X12815000Y-7685000D02*
X12785000Y-7715000D01*
X12785000Y-7785000D02*
X12815000Y-7815000D01*
X12815000Y-7785000D02*
X12785000Y-7815000D01*
X12785000Y-7785000D02*
X12815000Y-7815000D01*
X12815000Y-7785000D02*
X12785000Y-7815000D01*
X12785000Y-7885000D02*
X12815000Y-7915000D01*
X12815000Y-7885000D02*
X12785000Y-7915000D01*
X12785000Y-7885000D02*
X12815000Y-7915000D01*
X12815000Y-7885000D02*
X12785000Y-7915000D01*
X12785000Y-7985000D02*
X12815000Y-8015000D01*
X12815000Y-7985000D02*
X12785000Y-8015000D01*
X12785000Y-7985000D02*
X12815000Y-8015000D01*
X12815000Y-7985000D02*
X12785000Y-8015000D01*
X12785000Y-8085000D02*
X12815000Y-8115000D01*
X12815000Y-8085000D02*
X12785000Y-8115000D01*
X12785000Y-8085000D02*
X12815000Y-8115000D01*
X12815000Y-8085000D02*
X12785000Y-8115000D01*
X12785000Y-8185000D02*
X12815000Y-8215000D01*
X12815000Y-8185000D02*
X12785000Y-8215000D01*
X12785000Y-8185000D02*
X12815000Y-8215000D01*
X12815000Y-8185000D02*
X12785000Y-8215000D01*
X12785000Y-8285000D02*
X12815000Y-8315000D01*
X12815000Y-8285000D02*
X12785000Y-8315000D01*
X12785000Y-8285000D02*
X12815000Y-8315000D01*
X12815000Y-8285000D02*
X12785000Y-8315000D01*
X12785000Y-8385000D02*
X12815000Y-8415000D01*
X12815000Y-8385000D02*
X12785000Y-8415000D01*
X12785000Y-8385000D02*
X12815000Y-8415000D01*
X12815000Y-8385000D02*
X12785000Y-8415000D01*
X12785000Y-8485000D02*
X12815000Y-8515000D01*
X12815000Y-8485000D02*
X12785000Y-8515000D01*
X12785000Y-8485000D02*
X12815000Y-8515000D01*
X12815000Y-8485000D02*
X12785000Y-8515000D01*
X12785000Y-8585000D02*
X12815000Y-8615000D01*
X12815000Y-8585000D02*
X12785000Y-8615000D01*
X12785000Y-8585000D02*
X12815000Y-8615000D01*
X12815000Y-8585000D02*
X12785000Y-8615000D01*
X12785000Y-8685000D02*
X12815000Y-8715000D01*
X12815000Y-8685000D02*
X12785000Y-8715000D01*
X12785000Y-8685000D02*
X12815000Y-8715000D01*
X12815000Y-8685000D02*
X12785000Y-8715000D01*
X12885000Y-5285000D02*
X12915000Y-5315000D01*
X12915000Y-5285000D02*
X12885000Y-5315000D01*
X12885000Y-5385000D02*
X12915000Y-5415000D01*
X12915000Y-5385000D02*
X12885000Y-5415000D01*
X12885000Y-5485000D02*
X12915000Y-5515000D01*
X12915000Y-5485000D02*
X12885000Y-5515000D01*
X12885000Y-5585000D02*
X12915000Y-5615000D01*
X12915000Y-5585000D02*
X12885000Y-5615000D01*
X12885000Y-5685000D02*
X12915000Y-5715000D01*
X12915000Y-5685000D02*
X12885000Y-5715000D01*
X12885000Y-5785000D02*
X12915000Y-5815000D01*
X12915000Y-5785000D02*
X12885000Y-5815000D01*
X12885000Y-5885000D02*
X12915000Y-5915000D01*
X12915000Y-5885000D02*
X12885000Y-5915000D01*
X12885000Y-5985000D02*
X12915000Y-6015000D01*
X12915000Y-5985000D02*
X12885000Y-6015000D01*
X12885000Y-6085000D02*
X12915000Y-6115000D01*
X12915000Y-6085000D02*
X12885000Y-6115000D01*
X12885000Y-6185000D02*
X12915000Y-6215000D01*
X12915000Y-6185000D02*
X12885000Y-6215000D01*
X12885000Y-6285000D02*
X12915000Y-6315000D01*
X12915000Y-6285000D02*
X12885000Y-6315000D01*
X12885000Y-6385000D02*
X12915000Y-6415000D01*
X12915000Y-6385000D02*
X12885000Y-6415000D01*
X12885000Y-6485000D02*
X12915000Y-6515000D01*
X12915000Y-6485000D02*
X12885000Y-6515000D01*
X12885000Y-6585000D02*
X12915000Y-6615000D01*
X12915000Y-6585000D02*
X12885000Y-6615000D01*
X12885000Y-6685000D02*
X12915000Y-6715000D01*
X12915000Y-6685000D02*
X12885000Y-6715000D01*
X12885000Y-6785000D02*
X12915000Y-6815000D01*
X12915000Y-6785000D02*
X12885000Y-6815000D01*
X12885000Y-6885000D02*
X12915000Y-6915000D01*
X12915000Y-6885000D02*
X12885000Y-6915000D01*
X12885000Y-6985000D02*
X12915000Y-7015000D01*
X12915000Y-6985000D02*
X12885000Y-7015000D01*
X12885000Y-7085000D02*
X12915000Y-7115000D01*
X12915000Y-7085000D02*
X12885000Y-7115000D01*
X12885000Y-7185000D02*
X12915000Y-7215000D01*
X12915000Y-7185000D02*
X12885000Y-7215000D01*
X12885000Y-7285000D02*
X12915000Y-7315000D01*
X12915000Y-7285000D02*
X12885000Y-7315000D01*
X12885000Y-7385000D02*
X12915000Y-7415000D01*
X12915000Y-7385000D02*
X12885000Y-7415000D01*
X12885000Y-7485000D02*
X12915000Y-7515000D01*
X12915000Y-7485000D02*
X12885000Y-7515000D01*
X12885000Y-7585000D02*
X12915000Y-7615000D01*
X12915000Y-7585000D02*
X12885000Y-7615000D01*
X12885000Y-7685000D02*
X12915000Y-7715000D01*
X12915000Y-7685000D02*
X12885000Y-7715000D01*
X12885000Y-7785000D02*
X12915000Y-7815000D01*
X12915000Y-7785000D02*
X12885000Y-7815000D01*
X12885000Y-7885000D02*
X12915000Y-7915000D01*
X12915000Y-7885000D02*
X12885000Y-7915000D01*
X12885000Y-7985000D02*
X12915000Y-8015000D01*
X12915000Y-7985000D02*
X12885000Y-8015000D01*
X12885000Y-8085000D02*
X12915000Y-8115000D01*
X12915000Y-8085000D02*
X12885000Y-8115000D01*
X12885000Y-8185000D02*
X12915000Y-8215000D01*
X12915000Y-8185000D02*
X12885000Y-8215000D01*
X12885000Y-8285000D02*
X12915000Y-8315000D01*
X12915000Y-8285000D02*
X12885000Y-8315000D01*
X12885000Y-8385000D02*
X12915000Y-8415000D01*
X12915000Y-8385000D02*
X12885000Y-8415000D01*
X12885000Y-8485000D02*
X12915000Y-8515000D01*
X12915000Y-8485000D02*
X12885000Y-8515000D01*
X12885000Y-8585000D02*
X12915000Y-8615000D01*
X12915000Y-8585000D02*
X12885000Y-8615000D01*
X12885000Y-8685000D02*
X12915000Y-8715000D01*
X12915000Y-8685000D02*
X12885000Y-8715000D01*
X9520000Y-6800000D02*
G75*
G02*
X9480000Y-6800000I-20000J0D01*
G01*
X9480000Y-6800000D02*
G75*
G02*
X9520000Y-6800000I20000J0D01*
G01*
X9520000Y-6900000D02*
G75*
G02*
X9480000Y-6900000I-20000J0D01*
G01*
X9480000Y-6900000D02*
G75*
G02*
X9520000Y-6900000I20000J0D01*
G01*
X9520000Y-7000000D02*
G75*
G02*
X9480000Y-7000000I-20000J0D01*
G01*
X9480000Y-7000000D02*
G75*
G02*
X9520000Y-7000000I20000J0D01*
G01*
X9520000Y-7100000D02*
G75*
G02*
X9480000Y-7100000I-20000J0D01*
G01*
X9480000Y-7100000D02*
G75*
G02*
X9520000Y-7100000I20000J0D01*
G01*
X9520000Y-7200000D02*
G75*
G02*
X9480000Y-7200000I-20000J0D01*
G01*
X9480000Y-7200000D02*
G75*
G02*
X9520000Y-7200000I20000J0D01*
G01*
X9520000Y-7300000D02*
G75*
G02*
X9480000Y-7300000I-20000J0D01*
G01*
X9480000Y-7300000D02*
G75*
G02*
X9520000Y-7300000I20000J0D01*
G01*
X9520000Y-7400000D02*
G75*
G02*
X9480000Y-7400000I-20000J0D01*
G01*
X9480000Y-7400000D02*
G75*
G02*
X9520000Y-7400000I20000J0D01*
G01*
X9520000Y-7500000D02*
G75*
G02*
X9480000Y-7500000I-20000J0D01*
G01*
X9480000Y-7500000D02*
G75*
G02*
X9520000Y-7500000I20000J0D01*
G01*
X9520000Y-7600000D02*
G75*
G02*
X9480000Y-7600000I-20000J0D01*
G01*
X9480000Y-7600000D02*
G75*
G02*
X9520000Y-7600000I20000J0D01*
G01*
X9520000Y-7700000D02*
G75*
G02*
X9480000Y-7700000I-20000J0D01*
G01*
X9480000Y-7700000D02*
G75*
G02*
X9520000Y-7700000I20000J0D01*
G01*
X9520000Y-7800000D02*
G75*
G02*
X9480000Y-7800000I-20000J0D01*
G01*
X9480000Y-7800000D02*
G75*
G02*
X9520000Y-7800000I20000J0D01*
G01*
X9520000Y-7900000D02*
G75*
G02*
X9480000Y-7900000I-20000J0D01*
G01*
X9480000Y-7900000D02*
G75*
G02*
X9520000Y-7900000I20000J0D01*
G01*
X9520000Y-8000000D02*
G75*
G02*
X9480000Y-8000000I-20000J0D01*
G01*
X9480000Y-8000000D02*
G75*
G02*
X9520000Y-8000000I20000J0D01*
G01*
X9520000Y-8100000D02*
G75*
G02*
X9480000Y-8100000I-20000J0D01*
G01*
X9480000Y-8100000D02*
G75*
G02*
X9520000Y-8100000I20000J0D01*
G01*
X9520000Y-8200000D02*
G75*
G02*
X9480000Y-8200000I-20000J0D01*
G01*
X9480000Y-8200000D02*
G75*
G02*
X9520000Y-8200000I20000J0D01*
G01*
X9620000Y-6700000D02*
G75*
G02*
X9580000Y-6700000I-20000J0D01*
G01*
X9580000Y-6700000D02*
G75*
G02*
X9620000Y-6700000I20000J0D01*
G01*
X9620000Y-8300000D02*
G75*
G02*
X9580000Y-8300000I-20000J0D01*
G01*
X9580000Y-8300000D02*
G75*
G02*
X9620000Y-8300000I20000J0D01*
G01*
X9720000Y-6700000D02*
G75*
G02*
X9680000Y-6700000I-20000J0D01*
G01*
X9680000Y-6700000D02*
G75*
G02*
X9720000Y-6700000I20000J0D01*
G01*
X9720000Y-8400000D02*
G75*
G02*
X9680000Y-8400000I-20000J0D01*
G01*
X9680000Y-8400000D02*
G75*
G02*
X9720000Y-8400000I20000J0D01*
G01*
X9720000Y-8500000D02*
G75*
G02*
X9680000Y-8500000I-20000J0D01*
G01*
X9680000Y-8500000D02*
G75*
G02*
X9720000Y-8500000I20000J0D01*
G01*
X9820000Y-6700000D02*
G75*
G02*
X9780000Y-6700000I-20000J0D01*
G01*
X9780000Y-6700000D02*
G75*
G02*
X9820000Y-6700000I20000J0D01*
G01*
X9920000Y-6700000D02*
G75*
G02*
X9880000Y-6700000I-20000J0D01*
G01*
X9880000Y-6700000D02*
G75*
G02*
X9920000Y-6700000I20000J0D01*
G01*
X10020000Y-6800000D02*
G75*
G02*
X9980000Y-6800000I-20000J0D01*
G01*
X9980000Y-6800000D02*
G75*
G02*
X10020000Y-6800000I20000J0D01*
G01*
X10020000Y-6900000D02*
G75*
G02*
X9980000Y-6900000I-20000J0D01*
G01*
X9980000Y-6900000D02*
G75*
G02*
X10020000Y-6900000I20000J0D01*
G01*
X10020000Y-7000000D02*
G75*
G02*
X9980000Y-7000000I-20000J0D01*
G01*
X9980000Y-7000000D02*
G75*
G02*
X10020000Y-7000000I20000J0D01*
G01*
X10020000Y-7100000D02*
G75*
G02*
X9980000Y-7100000I-20000J0D01*
G01*
X9980000Y-7100000D02*
G75*
G02*
X10020000Y-7100000I20000J0D01*
G01*
X10020000Y-7200000D02*
G75*
G02*
X9980000Y-7200000I-20000J0D01*
G01*
X9980000Y-7200000D02*
G75*
G02*
X10020000Y-7200000I20000J0D01*
G01*
X10020000Y-7300000D02*
G75*
G02*
X9980000Y-7300000I-20000J0D01*
G01*
X9980000Y-7300000D02*
G75*
G02*
X10020000Y-7300000I20000J0D01*
G01*
X10020000Y-7400000D02*
G75*
G02*
X9980000Y-7400000I-20000J0D01*
G01*
X9980000Y-7400000D02*
G75*
G02*
X10020000Y-7400000I20000J0D01*
G01*
X10020000Y-7500000D02*
G75*
G02*
X9980000Y-7500000I-20000J0D01*
G01*
X9980000Y-7500000D02*
G75*
G02*
X10020000Y-7500000I20000J0D01*
G01*
X10020000Y-7600000D02*
G75*
G02*
X9980000Y-7600000I-20000J0D01*
G01*
X9980000Y-7600000D02*
G75*
G02*
X10020000Y-7600000I20000J0D01*
G01*
X10020000Y-7700000D02*
G75*
G02*
X9980000Y-7700000I-20000J0D01*
G01*
X9980000Y-7700000D02*
G75*
G02*
X10020000Y-7700000I20000J0D01*
G01*
X10020000Y-7800000D02*
G75*
G02*
X9980000Y-7800000I-20000J0D01*
G01*
X9980000Y-7800000D02*
G75*
G02*
X10020000Y-7800000I20000J0D01*
G01*
X10020000Y-7900000D02*
G75*
G02*
X9980000Y-7900000I-20000J0D01*
G01*
X9980000Y-7900000D02*
G75*
G02*
X10020000Y-7900000I20000J0D01*
G01*
X10020000Y-8000000D02*
G75*
G02*
X9980000Y-8000000I-20000J0D01*
G01*
X9980000Y-8000000D02*
G75*
G02*
X10020000Y-8000000I20000J0D01*
G01*
X10120000Y-8100000D02*
G75*
G02*
X10080000Y-8100000I-20000J0D01*
G01*
X10080000Y-8100000D02*
G75*
G02*
X10120000Y-8100000I20000J0D01*
G01*
X10220000Y-8200000D02*
G75*
G02*
X10180000Y-8200000I-20000J0D01*
G01*
X10180000Y-8200000D02*
G75*
G02*
X10220000Y-8200000I20000J0D01*
G01*
X10220000Y-8300000D02*
G75*
G02*
X10180000Y-8300000I-20000J0D01*
G01*
X10180000Y-8300000D02*
G75*
G02*
X10220000Y-8300000I20000J0D01*
G01*
X10220000Y-8400000D02*
G75*
G02*
X10180000Y-8400000I-20000J0D01*
G01*
X10180000Y-8400000D02*
G75*
G02*
X10220000Y-8400000I20000J0D01*
G01*
X10220000Y-8500000D02*
G75*
G02*
X10180000Y-8500000I-20000J0D01*
G01*
X10180000Y-8500000D02*
G75*
G02*
X10220000Y-8500000I20000J0D01*
G01*
X10220000Y-8600000D02*
G75*
G02*
X10180000Y-8600000I-20000J0D01*
G01*
X10180000Y-8600000D02*
G75*
G02*
X10220000Y-8600000I20000J0D01*
G01*
X10270000Y-4900000D02*
G75*
G02*
X10230000Y-4900000I-20000J0D01*
G01*
X10230000Y-4900000D02*
G75*
G02*
X10270000Y-4900000I20000J0D01*
G01*
X10270000Y-5100000D02*
G75*
G02*
X10230000Y-5100000I-20000J0D01*
G01*
X10230000Y-5100000D02*
G75*
G02*
X10270000Y-5100000I20000J0D01*
G01*
X10270000Y-5300000D02*
G75*
G02*
X10230000Y-5300000I-20000J0D01*
G01*
X10230000Y-5300000D02*
G75*
G02*
X10270000Y-5300000I20000J0D01*
G01*
X10270000Y-5500000D02*
G75*
G02*
X10230000Y-5500000I-20000J0D01*
G01*
X10230000Y-5500000D02*
G75*
G02*
X10270000Y-5500000I20000J0D01*
G01*
X10270000Y-5700000D02*
G75*
G02*
X10230000Y-5700000I-20000J0D01*
G01*
X10230000Y-5700000D02*
G75*
G02*
X10270000Y-5700000I20000J0D01*
G01*
X10470000Y-4900000D02*
G75*
G02*
X10430000Y-4900000I-20000J0D01*
G01*
X10430000Y-4900000D02*
G75*
G02*
X10470000Y-4900000I20000J0D01*
G01*
X10670000Y-4900000D02*
G75*
G02*
X10630000Y-4900000I-20000J0D01*
G01*
X10630000Y-4900000D02*
G75*
G02*
X10670000Y-4900000I20000J0D01*
G01*
X10870000Y-4900000D02*
G75*
G02*
X10830000Y-4900000I-20000J0D01*
G01*
X10830000Y-4900000D02*
G75*
G02*
X10870000Y-4900000I20000J0D01*
G01*
X11070000Y-4900000D02*
G75*
G02*
X11030000Y-4900000I-20000J0D01*
G01*
X11030000Y-4900000D02*
G75*
G02*
X11070000Y-4900000I20000J0D01*
G01*
X11170000Y-5100000D02*
G75*
G02*
X11130000Y-5100000I-20000J0D01*
G01*
X11130000Y-5100000D02*
G75*
G02*
X11170000Y-5100000I20000J0D01*
G01*
X11170000Y-5300000D02*
G75*
G02*
X11130000Y-5300000I-20000J0D01*
G01*
X11130000Y-5300000D02*
G75*
G02*
X11170000Y-5300000I20000J0D01*
G01*
X11170000Y-5500000D02*
G75*
G02*
X11130000Y-5500000I-20000J0D01*
G01*
X11130000Y-5500000D02*
G75*
G02*
X11170000Y-5500000I20000J0D01*
G01*
X11170000Y-5700000D02*
G75*
G02*
X11130000Y-5700000I-20000J0D01*
G01*
X11130000Y-5700000D02*
G75*
G02*
X11170000Y-5700000I20000J0D01*
G01*
X11700000Y-8260000D02*
X11700000Y-8340000D01*
X11660000Y-8300000D02*
X11740000Y-8300000D01*
X11700000Y-8260000D02*
X11700000Y-8340000D01*
X11660000Y-8300000D02*
X11740000Y-8300000D01*
X11700000Y-8506000D02*
X11700000Y-8586000D01*
X11660000Y-8546000D02*
X11740000Y-8546000D01*
X11700000Y-8768000D02*
X11700000Y-8848000D01*
X11660000Y-8808000D02*
X11740000Y-8808000D01*
X11700000Y-8770000D02*
X11700000Y-8850000D01*
X11660000Y-8810000D02*
X11740000Y-8810000D01*
X11954000Y-8514000D02*
X11954000Y-8594000D01*
X11914000Y-8554000D02*
X11994000Y-8554000D01*
X9782856Y-5082856D02*
X9782856Y-5012144D01*
X9712144Y-5012144D01*
X9712144Y-5082856D01*
X9782856Y-5082856D01*
X9782856Y-6987856D02*
X9782856Y-6917144D01*
X9712144Y-6917144D01*
X9712144Y-6987856D01*
X9782856Y-6987856D01*
X10735356Y-6987856D02*
X10735356Y-6917144D01*
X10664644Y-6917144D01*
X10664644Y-6987856D01*
X10735356Y-6987856D01*
X11481356Y-8597356D02*
X11481356Y-8526644D01*
X11410644Y-8526644D01*
X11410644Y-8597356D01*
X11481356Y-8597356D01*
X11687856Y-5082856D02*
X11687856Y-5012144D01*
X11617144Y-5012144D01*
X11617144Y-5082856D01*
X11687856Y-5082856D01*
X11687856Y-6987856D02*
X11687856Y-6917144D01*
X11617144Y-6917144D01*
X11617144Y-6987856D01*
X11687856Y-6987856D01*
X11735356Y-7835356D02*
X11735356Y-7764644D01*
X11664644Y-7764644D01*
X11664644Y-7835356D01*
X11735356Y-7835356D01*
X11735356Y-9105356D02*
X11735356Y-9034644D01*
X11664644Y-9034644D01*
X11664644Y-9105356D01*
X11735356Y-9105356D01*
D13*
X12525000Y-6856000D02*
X12585000Y-6796000D01*
X12525000Y-6736000D01*
X12465000Y-6796000D01*
X12525000Y-6856000D01*
X12525000Y-7110000D02*
X12585000Y-7050000D01*
X12525000Y-6990000D01*
X12465000Y-7050000D01*
X12525000Y-7110000D01*
D14*
X9680976Y-8680976D02*
X9811024Y-8811024D01*
X9811024Y-8680976D02*
X9680976Y-8811024D01*
X9811024Y-8746000D02*
G75*
G02*
X9680976Y-8746000I-65024J0D01*
G01*
X9680976Y-8746000D02*
G75*
G02*
X9811024Y-8746000I65024J0D01*
G01*
X9680976Y-9188976D02*
X9811024Y-9319024D01*
X9811024Y-9188976D02*
X9680976Y-9319024D01*
X9811024Y-9254000D02*
G75*
G02*
X9680976Y-9254000I-65024J0D01*
G01*
X9680976Y-9254000D02*
G75*
G02*
X9811024Y-9254000I65024J0D01*
G01*
X9934976Y-8934976D02*
X10065024Y-9065024D01*
X10065024Y-8934976D02*
X9934976Y-9065024D01*
X10065024Y-9000000D02*
G75*
G02*
X9934976Y-9000000I-65024J0D01*
G01*
X9934976Y-9000000D02*
G75*
G02*
X10065024Y-9000000I65024J0D01*
G01*
X10188976Y-8680976D02*
X10319024Y-8811024D01*
X10319024Y-8680976D02*
X10188976Y-8811024D01*
X10319024Y-8746000D02*
G75*
G02*
X10188976Y-8746000I-65024J0D01*
G01*
X10188976Y-8746000D02*
G75*
G02*
X10319024Y-8746000I65024J0D01*
G01*
X10188976Y-9188976D02*
X10319024Y-9319024D01*
X10319024Y-9188976D02*
X10188976Y-9319024D01*
X10319024Y-9254000D02*
G75*
G02*
X10188976Y-9254000I-65024J0D01*
G01*
X10188976Y-9254000D02*
G75*
G02*
X10319024Y-9254000I65024J0D01*
G01*
D15*
X8240000Y-4740000D02*
X8560000Y-5060000D01*
X8560000Y-4740000D02*
X8240000Y-5060000D01*
X8400000Y-4740000D02*
X8400000Y-5060000D01*
X8240000Y-4900000D02*
X8560000Y-4900000D01*
X8240000Y-8940000D02*
X8560000Y-9260000D01*
X8560000Y-8940000D02*
X8240000Y-9260000D01*
X8400000Y-8940000D02*
X8400000Y-9260000D01*
X8240000Y-9100000D02*
X8560000Y-9100000D01*
X12440000Y-4740000D02*
X12760000Y-5060000D01*
X12760000Y-4740000D02*
X12440000Y-5060000D01*
X12600000Y-4740000D02*
X12600000Y-5060000D01*
X12440000Y-4900000D02*
X12760000Y-4900000D01*
X12440000Y-8940000D02*
X12760000Y-9260000D01*
X12760000Y-8940000D02*
X12440000Y-9260000D01*
X12600000Y-8940000D02*
X12600000Y-9260000D01*
X12440000Y-9100000D02*
X12760000Y-9100000D01*
D11*
X8253277Y-9818984D02*
X8253277Y-9618984D01*
X8253277Y-9618984D02*
X8300896Y-9618984D01*
X8300896Y-9618984D02*
X8329467Y-9628508D01*
X8329467Y-9628508D02*
X8348515Y-9647555D01*
X8348515Y-9647555D02*
X8358039Y-9666603D01*
X8358039Y-9666603D02*
X8367562Y-9704698D01*
X8367562Y-9704698D02*
X8367562Y-9733270D01*
X8367562Y-9733270D02*
X8358039Y-9771365D01*
X8358039Y-9771365D02*
X8348515Y-9790412D01*
X8348515Y-9790412D02*
X8329467Y-9809460D01*
X8329467Y-9809460D02*
X8300896Y-9818984D01*
X8300896Y-9818984D02*
X8253277Y-9818984D01*
X8453277Y-9818984D02*
X8453277Y-9685650D01*
X8453277Y-9723746D02*
X8462801Y-9704698D01*
X8462801Y-9704698D02*
X8472324Y-9695174D01*
X8472324Y-9695174D02*
X8491372Y-9685650D01*
X8491372Y-9685650D02*
X8510420Y-9685650D01*
X8577086Y-9818984D02*
X8577086Y-9685650D01*
X8577086Y-9618984D02*
X8567563Y-9628508D01*
X8567563Y-9628508D02*
X8577086Y-9638031D01*
X8577086Y-9638031D02*
X8586610Y-9628508D01*
X8586610Y-9628508D02*
X8577086Y-9618984D01*
X8577086Y-9618984D02*
X8577086Y-9638031D01*
X8700896Y-9818984D02*
X8681848Y-9809460D01*
X8681848Y-9809460D02*
X8672324Y-9790412D01*
X8672324Y-9790412D02*
X8672324Y-9618984D01*
X8805658Y-9818984D02*
X8786610Y-9809460D01*
X8786610Y-9809460D02*
X8777086Y-9790412D01*
X8777086Y-9790412D02*
X8777086Y-9618984D01*
X9034229Y-9818984D02*
X9034229Y-9618984D01*
X9034229Y-9618984D02*
X9100896Y-9761841D01*
X9100896Y-9761841D02*
X9167563Y-9618984D01*
X9167563Y-9618984D02*
X9167563Y-9818984D01*
X9348515Y-9818984D02*
X9348515Y-9714222D01*
X9348515Y-9714222D02*
X9338991Y-9695174D01*
X9338991Y-9695174D02*
X9319944Y-9685650D01*
X9319944Y-9685650D02*
X9281848Y-9685650D01*
X9281848Y-9685650D02*
X9262801Y-9695174D01*
X9348515Y-9809460D02*
X9329467Y-9818984D01*
X9329467Y-9818984D02*
X9281848Y-9818984D01*
X9281848Y-9818984D02*
X9262801Y-9809460D01*
X9262801Y-9809460D02*
X9253277Y-9790412D01*
X9253277Y-9790412D02*
X9253277Y-9771365D01*
X9253277Y-9771365D02*
X9262801Y-9752317D01*
X9262801Y-9752317D02*
X9281848Y-9742793D01*
X9281848Y-9742793D02*
X9329467Y-9742793D01*
X9329467Y-9742793D02*
X9348515Y-9733270D01*
X9443753Y-9685650D02*
X9443753Y-9885650D01*
X9443753Y-9695174D02*
X9462801Y-9685650D01*
X9462801Y-9685650D02*
X9500896Y-9685650D01*
X9500896Y-9685650D02*
X9519944Y-9695174D01*
X9519944Y-9695174D02*
X9529467Y-9704698D01*
X9529467Y-9704698D02*
X9538991Y-9723746D01*
X9538991Y-9723746D02*
X9538991Y-9780889D01*
X9538991Y-9780889D02*
X9529467Y-9799936D01*
X9529467Y-9799936D02*
X9519944Y-9809460D01*
X9519944Y-9809460D02*
X9500896Y-9818984D01*
X9500896Y-9818984D02*
X9462801Y-9818984D01*
X9462801Y-9818984D02*
X9443753Y-9809460D01*
X9624705Y-9799936D02*
X9634229Y-9809460D01*
X9634229Y-9809460D02*
X9624705Y-9818984D01*
X9624705Y-9818984D02*
X9615182Y-9809460D01*
X9615182Y-9809460D02*
X9624705Y-9799936D01*
X9624705Y-9799936D02*
X9624705Y-9818984D01*
X9624705Y-9695174D02*
X9634229Y-9704698D01*
X9634229Y-9704698D02*
X9624705Y-9714222D01*
X9624705Y-9714222D02*
X9615182Y-9704698D01*
X9615182Y-9704698D02*
X9624705Y-9695174D01*
X9624705Y-9695174D02*
X9624705Y-9714222D01*
D12*
X7962500Y-10132500D02*
X7992500Y-10162500D01*
X7992500Y-10132500D02*
X7962500Y-10162500D01*
D11*
X8291372Y-10038984D02*
X8310420Y-10038984D01*
X8310420Y-10038984D02*
X8329467Y-10048508D01*
X8329467Y-10048508D02*
X8338991Y-10058031D01*
X8338991Y-10058031D02*
X8348515Y-10077079D01*
X8348515Y-10077079D02*
X8358039Y-10115174D01*
X8358039Y-10115174D02*
X8358039Y-10162793D01*
X8358039Y-10162793D02*
X8348515Y-10200889D01*
X8348515Y-10200889D02*
X8338991Y-10219936D01*
X8338991Y-10219936D02*
X8329467Y-10229460D01*
X8329467Y-10229460D02*
X8310420Y-10238984D01*
X8310420Y-10238984D02*
X8291372Y-10238984D01*
X8291372Y-10238984D02*
X8272324Y-10229460D01*
X8272324Y-10229460D02*
X8262801Y-10219936D01*
X8262801Y-10219936D02*
X8253277Y-10200889D01*
X8253277Y-10200889D02*
X8243753Y-10162793D01*
X8243753Y-10162793D02*
X8243753Y-10115174D01*
X8243753Y-10115174D02*
X8253277Y-10077079D01*
X8253277Y-10077079D02*
X8262801Y-10058031D01*
X8262801Y-10058031D02*
X8272324Y-10048508D01*
X8272324Y-10048508D02*
X8291372Y-10038984D01*
X8443753Y-10219936D02*
X8453277Y-10229460D01*
X8453277Y-10229460D02*
X8443753Y-10238984D01*
X8443753Y-10238984D02*
X8434229Y-10229460D01*
X8434229Y-10229460D02*
X8443753Y-10219936D01*
X8443753Y-10219936D02*
X8443753Y-10238984D01*
X8519944Y-10038984D02*
X8643753Y-10038984D01*
X8643753Y-10038984D02*
X8577086Y-10115174D01*
X8577086Y-10115174D02*
X8605658Y-10115174D01*
X8605658Y-10115174D02*
X8624705Y-10124698D01*
X8624705Y-10124698D02*
X8634229Y-10134222D01*
X8634229Y-10134222D02*
X8643753Y-10153270D01*
X8643753Y-10153270D02*
X8643753Y-10200889D01*
X8643753Y-10200889D02*
X8634229Y-10219936D01*
X8634229Y-10219936D02*
X8624705Y-10229460D01*
X8624705Y-10229460D02*
X8605658Y-10238984D01*
X8605658Y-10238984D02*
X8548515Y-10238984D01*
X8548515Y-10238984D02*
X8529467Y-10229460D01*
X8529467Y-10229460D02*
X8519944Y-10219936D01*
X8767563Y-10038984D02*
X8786610Y-10038984D01*
X8786610Y-10038984D02*
X8805658Y-10048508D01*
X8805658Y-10048508D02*
X8815182Y-10058031D01*
X8815182Y-10058031D02*
X8824705Y-10077079D01*
X8824705Y-10077079D02*
X8834229Y-10115174D01*
X8834229Y-10115174D02*
X8834229Y-10162793D01*
X8834229Y-10162793D02*
X8824705Y-10200889D01*
X8824705Y-10200889D02*
X8815182Y-10219936D01*
X8815182Y-10219936D02*
X8805658Y-10229460D01*
X8805658Y-10229460D02*
X8786610Y-10238984D01*
X8786610Y-10238984D02*
X8767563Y-10238984D01*
X8767563Y-10238984D02*
X8748515Y-10229460D01*
X8748515Y-10229460D02*
X8738991Y-10219936D01*
X8738991Y-10219936D02*
X8729467Y-10200889D01*
X8729467Y-10200889D02*
X8719944Y-10162793D01*
X8719944Y-10162793D02*
X8719944Y-10115174D01*
X8719944Y-10115174D02*
X8729467Y-10077079D01*
X8729467Y-10077079D02*
X8738991Y-10058031D01*
X8738991Y-10058031D02*
X8748515Y-10048508D01*
X8748515Y-10048508D02*
X8767563Y-10038984D01*
X8958039Y-10038984D02*
X8977086Y-10038984D01*
X8977086Y-10038984D02*
X8996134Y-10048508D01*
X8996134Y-10048508D02*
X9005658Y-10058031D01*
X9005658Y-10058031D02*
X9015182Y-10077079D01*
X9015182Y-10077079D02*
X9024705Y-10115174D01*
X9024705Y-10115174D02*
X9024705Y-10162793D01*
X9024705Y-10162793D02*
X9015182Y-10200889D01*
X9015182Y-10200889D02*
X9005658Y-10219936D01*
X9005658Y-10219936D02*
X8996134Y-10229460D01*
X8996134Y-10229460D02*
X8977086Y-10238984D01*
X8977086Y-10238984D02*
X8958039Y-10238984D01*
X8958039Y-10238984D02*
X8938991Y-10229460D01*
X8938991Y-10229460D02*
X8929467Y-10219936D01*
X8929467Y-10219936D02*
X8919944Y-10200889D01*
X8919944Y-10200889D02*
X8910420Y-10162793D01*
X8910420Y-10162793D02*
X8910420Y-10115174D01*
X8910420Y-10115174D02*
X8919944Y-10077079D01*
X8919944Y-10077079D02*
X8929467Y-10058031D01*
X8929467Y-10058031D02*
X8938991Y-10048508D01*
X8938991Y-10048508D02*
X8958039Y-10038984D01*
X9110420Y-10238984D02*
X9110420Y-10105650D01*
X9110420Y-10124698D02*
X9119944Y-10115174D01*
X9119944Y-10115174D02*
X9138991Y-10105650D01*
X9138991Y-10105650D02*
X9167563Y-10105650D01*
X9167563Y-10105650D02*
X9186610Y-10115174D01*
X9186610Y-10115174D02*
X9196134Y-10134222D01*
X9196134Y-10134222D02*
X9196134Y-10238984D01*
X9196134Y-10134222D02*
X9205658Y-10115174D01*
X9205658Y-10115174D02*
X9224705Y-10105650D01*
X9224705Y-10105650D02*
X9253277Y-10105650D01*
X9253277Y-10105650D02*
X9272325Y-10115174D01*
X9272325Y-10115174D02*
X9281848Y-10134222D01*
X9281848Y-10134222D02*
X9281848Y-10238984D01*
X9377086Y-10238984D02*
X9377086Y-10105650D01*
X9377086Y-10124698D02*
X9386610Y-10115174D01*
X9386610Y-10115174D02*
X9405658Y-10105650D01*
X9405658Y-10105650D02*
X9434229Y-10105650D01*
X9434229Y-10105650D02*
X9453277Y-10115174D01*
X9453277Y-10115174D02*
X9462801Y-10134222D01*
X9462801Y-10134222D02*
X9462801Y-10238984D01*
X9462801Y-10134222D02*
X9472325Y-10115174D01*
X9472325Y-10115174D02*
X9491372Y-10105650D01*
X9491372Y-10105650D02*
X9519944Y-10105650D01*
X9519944Y-10105650D02*
X9538991Y-10115174D01*
X9538991Y-10115174D02*
X9548515Y-10134222D01*
X9548515Y-10134222D02*
X9548515Y-10238984D01*
X9938991Y-10029460D02*
X9767563Y-10286603D01*
X10196134Y-10038984D02*
X10215182Y-10038984D01*
X10215182Y-10038984D02*
X10234229Y-10048508D01*
X10234229Y-10048508D02*
X10243753Y-10058031D01*
X10243753Y-10058031D02*
X10253277Y-10077079D01*
X10253277Y-10077079D02*
X10262801Y-10115174D01*
X10262801Y-10115174D02*
X10262801Y-10162793D01*
X10262801Y-10162793D02*
X10253277Y-10200889D01*
X10253277Y-10200889D02*
X10243753Y-10219936D01*
X10243753Y-10219936D02*
X10234229Y-10229460D01*
X10234229Y-10229460D02*
X10215182Y-10238984D01*
X10215182Y-10238984D02*
X10196134Y-10238984D01*
X10196134Y-10238984D02*
X10177087Y-10229460D01*
X10177087Y-10229460D02*
X10167563Y-10219936D01*
X10167563Y-10219936D02*
X10158039Y-10200889D01*
X10158039Y-10200889D02*
X10148515Y-10162793D01*
X10148515Y-10162793D02*
X10148515Y-10115174D01*
X10148515Y-10115174D02*
X10158039Y-10077079D01*
X10158039Y-10077079D02*
X10167563Y-10058031D01*
X10167563Y-10058031D02*
X10177087Y-10048508D01*
X10177087Y-10048508D02*
X10196134Y-10038984D01*
X10348515Y-10219936D02*
X10358039Y-10229460D01*
X10358039Y-10229460D02*
X10348515Y-10238984D01*
X10348515Y-10238984D02*
X10338991Y-10229460D01*
X10338991Y-10229460D02*
X10348515Y-10219936D01*
X10348515Y-10219936D02*
X10348515Y-10238984D01*
X10481848Y-10038984D02*
X10500896Y-10038984D01*
X10500896Y-10038984D02*
X10519944Y-10048508D01*
X10519944Y-10048508D02*
X10529468Y-10058031D01*
X10529468Y-10058031D02*
X10538991Y-10077079D01*
X10538991Y-10077079D02*
X10548515Y-10115174D01*
X10548515Y-10115174D02*
X10548515Y-10162793D01*
X10548515Y-10162793D02*
X10538991Y-10200889D01*
X10538991Y-10200889D02*
X10529468Y-10219936D01*
X10529468Y-10219936D02*
X10519944Y-10229460D01*
X10519944Y-10229460D02*
X10500896Y-10238984D01*
X10500896Y-10238984D02*
X10481848Y-10238984D01*
X10481848Y-10238984D02*
X10462801Y-10229460D01*
X10462801Y-10229460D02*
X10453277Y-10219936D01*
X10453277Y-10219936D02*
X10443753Y-10200889D01*
X10443753Y-10200889D02*
X10434229Y-10162793D01*
X10434229Y-10162793D02*
X10434229Y-10115174D01*
X10434229Y-10115174D02*
X10443753Y-10077079D01*
X10443753Y-10077079D02*
X10453277Y-10058031D01*
X10453277Y-10058031D02*
X10462801Y-10048508D01*
X10462801Y-10048508D02*
X10481848Y-10038984D01*
X10738991Y-10238984D02*
X10624706Y-10238984D01*
X10681848Y-10238984D02*
X10681848Y-10038984D01*
X10681848Y-10038984D02*
X10662801Y-10067555D01*
X10662801Y-10067555D02*
X10643753Y-10086603D01*
X10643753Y-10086603D02*
X10624706Y-10096127D01*
X10929468Y-10238984D02*
X10815182Y-10238984D01*
X10872325Y-10238984D02*
X10872325Y-10038984D01*
X10872325Y-10038984D02*
X10853277Y-10067555D01*
X10853277Y-10067555D02*
X10834229Y-10086603D01*
X10834229Y-10086603D02*
X10815182Y-10096127D01*
X11043753Y-10124698D02*
X11024706Y-10115174D01*
X11024706Y-10115174D02*
X11015182Y-10105650D01*
X11015182Y-10105650D02*
X11005658Y-10086603D01*
X11005658Y-10086603D02*
X11005658Y-10077079D01*
X11005658Y-10077079D02*
X11015182Y-10058031D01*
X11015182Y-10058031D02*
X11024706Y-10048508D01*
X11024706Y-10048508D02*
X11043753Y-10038984D01*
X11043753Y-10038984D02*
X11081849Y-10038984D01*
X11081849Y-10038984D02*
X11100896Y-10048508D01*
X11100896Y-10048508D02*
X11110420Y-10058031D01*
X11110420Y-10058031D02*
X11119944Y-10077079D01*
X11119944Y-10077079D02*
X11119944Y-10086603D01*
X11119944Y-10086603D02*
X11110420Y-10105650D01*
X11110420Y-10105650D02*
X11100896Y-10115174D01*
X11100896Y-10115174D02*
X11081849Y-10124698D01*
X11081849Y-10124698D02*
X11043753Y-10124698D01*
X11043753Y-10124698D02*
X11024706Y-10134222D01*
X11024706Y-10134222D02*
X11015182Y-10143746D01*
X11015182Y-10143746D02*
X11005658Y-10162793D01*
X11005658Y-10162793D02*
X11005658Y-10200889D01*
X11005658Y-10200889D02*
X11015182Y-10219936D01*
X11015182Y-10219936D02*
X11024706Y-10229460D01*
X11024706Y-10229460D02*
X11043753Y-10238984D01*
X11043753Y-10238984D02*
X11081849Y-10238984D01*
X11081849Y-10238984D02*
X11100896Y-10229460D01*
X11100896Y-10229460D02*
X11110420Y-10219936D01*
X11110420Y-10219936D02*
X11119944Y-10200889D01*
X11119944Y-10200889D02*
X11119944Y-10162793D01*
X11119944Y-10162793D02*
X11110420Y-10143746D01*
X11110420Y-10143746D02*
X11100896Y-10134222D01*
X11100896Y-10134222D02*
X11081849Y-10124698D01*
X11196134Y-10038984D02*
X11196134Y-10077079D01*
X11272325Y-10038984D02*
X11272325Y-10077079D01*
X11567563Y-10315174D02*
X11558039Y-10305650D01*
X11558039Y-10305650D02*
X11538991Y-10277079D01*
X11538991Y-10277079D02*
X11529468Y-10258031D01*
X11529468Y-10258031D02*
X11519944Y-10229460D01*
X11519944Y-10229460D02*
X11510420Y-10181841D01*
X11510420Y-10181841D02*
X11510420Y-10143746D01*
X11510420Y-10143746D02*
X11519944Y-10096127D01*
X11519944Y-10096127D02*
X11529468Y-10067555D01*
X11529468Y-10067555D02*
X11538991Y-10048508D01*
X11538991Y-10048508D02*
X11558039Y-10019936D01*
X11558039Y-10019936D02*
X11567563Y-10010412D01*
X11634229Y-10058031D02*
X11643753Y-10048508D01*
X11643753Y-10048508D02*
X11662801Y-10038984D01*
X11662801Y-10038984D02*
X11710420Y-10038984D01*
X11710420Y-10038984D02*
X11729468Y-10048508D01*
X11729468Y-10048508D02*
X11738991Y-10058031D01*
X11738991Y-10058031D02*
X11748515Y-10077079D01*
X11748515Y-10077079D02*
X11748515Y-10096127D01*
X11748515Y-10096127D02*
X11738991Y-10124698D01*
X11738991Y-10124698D02*
X11624706Y-10238984D01*
X11624706Y-10238984D02*
X11748515Y-10238984D01*
X11815182Y-10038984D02*
X11948515Y-10038984D01*
X11948515Y-10038984D02*
X11862801Y-10238984D01*
X12005658Y-10038984D02*
X12138991Y-10038984D01*
X12138991Y-10038984D02*
X12053277Y-10238984D01*
X12367563Y-10238984D02*
X12367563Y-10038984D01*
X12453277Y-10238984D02*
X12453277Y-10134222D01*
X12453277Y-10134222D02*
X12443753Y-10115174D01*
X12443753Y-10115174D02*
X12424706Y-10105650D01*
X12424706Y-10105650D02*
X12396134Y-10105650D01*
X12396134Y-10105650D02*
X12377087Y-10115174D01*
X12377087Y-10115174D02*
X12367563Y-10124698D01*
X12577087Y-10238984D02*
X12558039Y-10229460D01*
X12558039Y-10229460D02*
X12548515Y-10219936D01*
X12548515Y-10219936D02*
X12538991Y-10200889D01*
X12538991Y-10200889D02*
X12538991Y-10143746D01*
X12538991Y-10143746D02*
X12548515Y-10124698D01*
X12548515Y-10124698D02*
X12558039Y-10115174D01*
X12558039Y-10115174D02*
X12577087Y-10105650D01*
X12577087Y-10105650D02*
X12605658Y-10105650D01*
X12605658Y-10105650D02*
X12624706Y-10115174D01*
X12624706Y-10115174D02*
X12634230Y-10124698D01*
X12634230Y-10124698D02*
X12643753Y-10143746D01*
X12643753Y-10143746D02*
X12643753Y-10200889D01*
X12643753Y-10200889D02*
X12634230Y-10219936D01*
X12634230Y-10219936D02*
X12624706Y-10229460D01*
X12624706Y-10229460D02*
X12605658Y-10238984D01*
X12605658Y-10238984D02*
X12577087Y-10238984D01*
X12758039Y-10238984D02*
X12738991Y-10229460D01*
X12738991Y-10229460D02*
X12729468Y-10210412D01*
X12729468Y-10210412D02*
X12729468Y-10038984D01*
X12910420Y-10229460D02*
X12891372Y-10238984D01*
X12891372Y-10238984D02*
X12853277Y-10238984D01*
X12853277Y-10238984D02*
X12834230Y-10229460D01*
X12834230Y-10229460D02*
X12824706Y-10210412D01*
X12824706Y-10210412D02*
X12824706Y-10134222D01*
X12824706Y-10134222D02*
X12834230Y-10115174D01*
X12834230Y-10115174D02*
X12853277Y-10105650D01*
X12853277Y-10105650D02*
X12891372Y-10105650D01*
X12891372Y-10105650D02*
X12910420Y-10115174D01*
X12910420Y-10115174D02*
X12919944Y-10134222D01*
X12919944Y-10134222D02*
X12919944Y-10153270D01*
X12919944Y-10153270D02*
X12824706Y-10172317D01*
X12996134Y-10229460D02*
X13015182Y-10238984D01*
X13015182Y-10238984D02*
X13053277Y-10238984D01*
X13053277Y-10238984D02*
X13072325Y-10229460D01*
X13072325Y-10229460D02*
X13081849Y-10210412D01*
X13081849Y-10210412D02*
X13081849Y-10200889D01*
X13081849Y-10200889D02*
X13072325Y-10181841D01*
X13072325Y-10181841D02*
X13053277Y-10172317D01*
X13053277Y-10172317D02*
X13024706Y-10172317D01*
X13024706Y-10172317D02*
X13005658Y-10162793D01*
X13005658Y-10162793D02*
X12996134Y-10143746D01*
X12996134Y-10143746D02*
X12996134Y-10134222D01*
X12996134Y-10134222D02*
X13005658Y-10115174D01*
X13005658Y-10115174D02*
X13024706Y-10105650D01*
X13024706Y-10105650D02*
X13053277Y-10105650D01*
X13053277Y-10105650D02*
X13072325Y-10115174D01*
X13148515Y-10315174D02*
X13158039Y-10305650D01*
X13158039Y-10305650D02*
X13177087Y-10277079D01*
X13177087Y-10277079D02*
X13186611Y-10258031D01*
X13186611Y-10258031D02*
X13196134Y-10229460D01*
X13196134Y-10229460D02*
X13205658Y-10181841D01*
X13205658Y-10181841D02*
X13205658Y-10143746D01*
X13205658Y-10143746D02*
X13196134Y-10096127D01*
X13196134Y-10096127D02*
X13186611Y-10067555D01*
X13186611Y-10067555D02*
X13177087Y-10048508D01*
X13177087Y-10048508D02*
X13158039Y-10019936D01*
X13158039Y-10019936D02*
X13148515Y-10010412D01*
D12*
X7992500Y-10411500D02*
G75*
G02*
X7952500Y-10411500I-20000J0D01*
G01*
X7952500Y-10411500D02*
G75*
G02*
X7992500Y-10411500I20000J0D01*
G01*
D11*
X8291372Y-10302984D02*
X8310420Y-10302984D01*
X8310420Y-10302984D02*
X8329467Y-10312508D01*
X8329467Y-10312508D02*
X8338991Y-10322031D01*
X8338991Y-10322031D02*
X8348515Y-10341079D01*
X8348515Y-10341079D02*
X8358039Y-10379174D01*
X8358039Y-10379174D02*
X8358039Y-10426793D01*
X8358039Y-10426793D02*
X8348515Y-10464889D01*
X8348515Y-10464889D02*
X8338991Y-10483936D01*
X8338991Y-10483936D02*
X8329467Y-10493460D01*
X8329467Y-10493460D02*
X8310420Y-10502984D01*
X8310420Y-10502984D02*
X8291372Y-10502984D01*
X8291372Y-10502984D02*
X8272324Y-10493460D01*
X8272324Y-10493460D02*
X8262801Y-10483936D01*
X8262801Y-10483936D02*
X8253277Y-10464889D01*
X8253277Y-10464889D02*
X8243753Y-10426793D01*
X8243753Y-10426793D02*
X8243753Y-10379174D01*
X8243753Y-10379174D02*
X8253277Y-10341079D01*
X8253277Y-10341079D02*
X8262801Y-10322031D01*
X8262801Y-10322031D02*
X8272324Y-10312508D01*
X8272324Y-10312508D02*
X8291372Y-10302984D01*
X8443753Y-10483936D02*
X8453277Y-10493460D01*
X8453277Y-10493460D02*
X8443753Y-10502984D01*
X8443753Y-10502984D02*
X8434229Y-10493460D01*
X8434229Y-10493460D02*
X8443753Y-10483936D01*
X8443753Y-10483936D02*
X8443753Y-10502984D01*
X8624705Y-10369650D02*
X8624705Y-10502984D01*
X8577086Y-10293460D02*
X8529467Y-10436317D01*
X8529467Y-10436317D02*
X8653277Y-10436317D01*
X8767563Y-10302984D02*
X8786610Y-10302984D01*
X8786610Y-10302984D02*
X8805658Y-10312508D01*
X8805658Y-10312508D02*
X8815182Y-10322031D01*
X8815182Y-10322031D02*
X8824705Y-10341079D01*
X8824705Y-10341079D02*
X8834229Y-10379174D01*
X8834229Y-10379174D02*
X8834229Y-10426793D01*
X8834229Y-10426793D02*
X8824705Y-10464889D01*
X8824705Y-10464889D02*
X8815182Y-10483936D01*
X8815182Y-10483936D02*
X8805658Y-10493460D01*
X8805658Y-10493460D02*
X8786610Y-10502984D01*
X8786610Y-10502984D02*
X8767563Y-10502984D01*
X8767563Y-10502984D02*
X8748515Y-10493460D01*
X8748515Y-10493460D02*
X8738991Y-10483936D01*
X8738991Y-10483936D02*
X8729467Y-10464889D01*
X8729467Y-10464889D02*
X8719944Y-10426793D01*
X8719944Y-10426793D02*
X8719944Y-10379174D01*
X8719944Y-10379174D02*
X8729467Y-10341079D01*
X8729467Y-10341079D02*
X8738991Y-10322031D01*
X8738991Y-10322031D02*
X8748515Y-10312508D01*
X8748515Y-10312508D02*
X8767563Y-10302984D01*
X8958039Y-10302984D02*
X8977086Y-10302984D01*
X8977086Y-10302984D02*
X8996134Y-10312508D01*
X8996134Y-10312508D02*
X9005658Y-10322031D01*
X9005658Y-10322031D02*
X9015182Y-10341079D01*
X9015182Y-10341079D02*
X9024705Y-10379174D01*
X9024705Y-10379174D02*
X9024705Y-10426793D01*
X9024705Y-10426793D02*
X9015182Y-10464889D01*
X9015182Y-10464889D02*
X9005658Y-10483936D01*
X9005658Y-10483936D02*
X8996134Y-10493460D01*
X8996134Y-10493460D02*
X8977086Y-10502984D01*
X8977086Y-10502984D02*
X8958039Y-10502984D01*
X8958039Y-10502984D02*
X8938991Y-10493460D01*
X8938991Y-10493460D02*
X8929467Y-10483936D01*
X8929467Y-10483936D02*
X8919944Y-10464889D01*
X8919944Y-10464889D02*
X8910420Y-10426793D01*
X8910420Y-10426793D02*
X8910420Y-10379174D01*
X8910420Y-10379174D02*
X8919944Y-10341079D01*
X8919944Y-10341079D02*
X8929467Y-10322031D01*
X8929467Y-10322031D02*
X8938991Y-10312508D01*
X8938991Y-10312508D02*
X8958039Y-10302984D01*
X9110420Y-10502984D02*
X9110420Y-10369650D01*
X9110420Y-10388698D02*
X9119944Y-10379174D01*
X9119944Y-10379174D02*
X9138991Y-10369650D01*
X9138991Y-10369650D02*
X9167563Y-10369650D01*
X9167563Y-10369650D02*
X9186610Y-10379174D01*
X9186610Y-10379174D02*
X9196134Y-10398222D01*
X9196134Y-10398222D02*
X9196134Y-10502984D01*
X9196134Y-10398222D02*
X9205658Y-10379174D01*
X9205658Y-10379174D02*
X9224705Y-10369650D01*
X9224705Y-10369650D02*
X9253277Y-10369650D01*
X9253277Y-10369650D02*
X9272325Y-10379174D01*
X9272325Y-10379174D02*
X9281848Y-10398222D01*
X9281848Y-10398222D02*
X9281848Y-10502984D01*
X9377086Y-10502984D02*
X9377086Y-10369650D01*
X9377086Y-10388698D02*
X9386610Y-10379174D01*
X9386610Y-10379174D02*
X9405658Y-10369650D01*
X9405658Y-10369650D02*
X9434229Y-10369650D01*
X9434229Y-10369650D02*
X9453277Y-10379174D01*
X9453277Y-10379174D02*
X9462801Y-10398222D01*
X9462801Y-10398222D02*
X9462801Y-10502984D01*
X9462801Y-10398222D02*
X9472325Y-10379174D01*
X9472325Y-10379174D02*
X9491372Y-10369650D01*
X9491372Y-10369650D02*
X9519944Y-10369650D01*
X9519944Y-10369650D02*
X9538991Y-10379174D01*
X9538991Y-10379174D02*
X9548515Y-10398222D01*
X9548515Y-10398222D02*
X9548515Y-10502984D01*
X9938991Y-10293460D02*
X9767563Y-10550603D01*
X10196134Y-10302984D02*
X10215182Y-10302984D01*
X10215182Y-10302984D02*
X10234229Y-10312508D01*
X10234229Y-10312508D02*
X10243753Y-10322031D01*
X10243753Y-10322031D02*
X10253277Y-10341079D01*
X10253277Y-10341079D02*
X10262801Y-10379174D01*
X10262801Y-10379174D02*
X10262801Y-10426793D01*
X10262801Y-10426793D02*
X10253277Y-10464889D01*
X10253277Y-10464889D02*
X10243753Y-10483936D01*
X10243753Y-10483936D02*
X10234229Y-10493460D01*
X10234229Y-10493460D02*
X10215182Y-10502984D01*
X10215182Y-10502984D02*
X10196134Y-10502984D01*
X10196134Y-10502984D02*
X10177087Y-10493460D01*
X10177087Y-10493460D02*
X10167563Y-10483936D01*
X10167563Y-10483936D02*
X10158039Y-10464889D01*
X10158039Y-10464889D02*
X10148515Y-10426793D01*
X10148515Y-10426793D02*
X10148515Y-10379174D01*
X10148515Y-10379174D02*
X10158039Y-10341079D01*
X10158039Y-10341079D02*
X10167563Y-10322031D01*
X10167563Y-10322031D02*
X10177087Y-10312508D01*
X10177087Y-10312508D02*
X10196134Y-10302984D01*
X10348515Y-10483936D02*
X10358039Y-10493460D01*
X10358039Y-10493460D02*
X10348515Y-10502984D01*
X10348515Y-10502984D02*
X10338991Y-10493460D01*
X10338991Y-10493460D02*
X10348515Y-10483936D01*
X10348515Y-10483936D02*
X10348515Y-10502984D01*
X10481848Y-10302984D02*
X10500896Y-10302984D01*
X10500896Y-10302984D02*
X10519944Y-10312508D01*
X10519944Y-10312508D02*
X10529468Y-10322031D01*
X10529468Y-10322031D02*
X10538991Y-10341079D01*
X10538991Y-10341079D02*
X10548515Y-10379174D01*
X10548515Y-10379174D02*
X10548515Y-10426793D01*
X10548515Y-10426793D02*
X10538991Y-10464889D01*
X10538991Y-10464889D02*
X10529468Y-10483936D01*
X10529468Y-10483936D02*
X10519944Y-10493460D01*
X10519944Y-10493460D02*
X10500896Y-10502984D01*
X10500896Y-10502984D02*
X10481848Y-10502984D01*
X10481848Y-10502984D02*
X10462801Y-10493460D01*
X10462801Y-10493460D02*
X10453277Y-10483936D01*
X10453277Y-10483936D02*
X10443753Y-10464889D01*
X10443753Y-10464889D02*
X10434229Y-10426793D01*
X10434229Y-10426793D02*
X10434229Y-10379174D01*
X10434229Y-10379174D02*
X10443753Y-10341079D01*
X10443753Y-10341079D02*
X10453277Y-10322031D01*
X10453277Y-10322031D02*
X10462801Y-10312508D01*
X10462801Y-10312508D02*
X10481848Y-10302984D01*
X10738991Y-10502984D02*
X10624706Y-10502984D01*
X10681848Y-10502984D02*
X10681848Y-10302984D01*
X10681848Y-10302984D02*
X10662801Y-10331555D01*
X10662801Y-10331555D02*
X10643753Y-10350603D01*
X10643753Y-10350603D02*
X10624706Y-10360127D01*
X10919944Y-10302984D02*
X10824706Y-10302984D01*
X10824706Y-10302984D02*
X10815182Y-10398222D01*
X10815182Y-10398222D02*
X10824706Y-10388698D01*
X10824706Y-10388698D02*
X10843753Y-10379174D01*
X10843753Y-10379174D02*
X10891372Y-10379174D01*
X10891372Y-10379174D02*
X10910420Y-10388698D01*
X10910420Y-10388698D02*
X10919944Y-10398222D01*
X10919944Y-10398222D02*
X10929468Y-10417270D01*
X10929468Y-10417270D02*
X10929468Y-10464889D01*
X10929468Y-10464889D02*
X10919944Y-10483936D01*
X10919944Y-10483936D02*
X10910420Y-10493460D01*
X10910420Y-10493460D02*
X10891372Y-10502984D01*
X10891372Y-10502984D02*
X10843753Y-10502984D01*
X10843753Y-10502984D02*
X10824706Y-10493460D01*
X10824706Y-10493460D02*
X10815182Y-10483936D01*
X10996134Y-10302984D02*
X11129468Y-10302984D01*
X11129468Y-10302984D02*
X11043753Y-10502984D01*
X11196134Y-10302984D02*
X11196134Y-10341079D01*
X11272325Y-10302984D02*
X11272325Y-10341079D01*
X11567563Y-10579174D02*
X11558039Y-10569650D01*
X11558039Y-10569650D02*
X11538991Y-10541079D01*
X11538991Y-10541079D02*
X11529468Y-10522031D01*
X11529468Y-10522031D02*
X11519944Y-10493460D01*
X11519944Y-10493460D02*
X11510420Y-10445841D01*
X11510420Y-10445841D02*
X11510420Y-10407746D01*
X11510420Y-10407746D02*
X11519944Y-10360127D01*
X11519944Y-10360127D02*
X11529468Y-10331555D01*
X11529468Y-10331555D02*
X11538991Y-10312508D01*
X11538991Y-10312508D02*
X11558039Y-10283936D01*
X11558039Y-10283936D02*
X11567563Y-10274412D01*
X11738991Y-10302984D02*
X11643753Y-10302984D01*
X11643753Y-10302984D02*
X11634229Y-10398222D01*
X11634229Y-10398222D02*
X11643753Y-10388698D01*
X11643753Y-10388698D02*
X11662801Y-10379174D01*
X11662801Y-10379174D02*
X11710420Y-10379174D01*
X11710420Y-10379174D02*
X11729468Y-10388698D01*
X11729468Y-10388698D02*
X11738991Y-10398222D01*
X11738991Y-10398222D02*
X11748515Y-10417270D01*
X11748515Y-10417270D02*
X11748515Y-10464889D01*
X11748515Y-10464889D02*
X11738991Y-10483936D01*
X11738991Y-10483936D02*
X11729468Y-10493460D01*
X11729468Y-10493460D02*
X11710420Y-10502984D01*
X11710420Y-10502984D02*
X11662801Y-10502984D01*
X11662801Y-10502984D02*
X11643753Y-10493460D01*
X11643753Y-10493460D02*
X11634229Y-10483936D01*
X11919944Y-10369650D02*
X11919944Y-10502984D01*
X11872325Y-10293460D02*
X11824706Y-10436317D01*
X11824706Y-10436317D02*
X11948515Y-10436317D01*
X12177087Y-10502984D02*
X12177087Y-10302984D01*
X12262801Y-10502984D02*
X12262801Y-10398222D01*
X12262801Y-10398222D02*
X12253277Y-10379174D01*
X12253277Y-10379174D02*
X12234230Y-10369650D01*
X12234230Y-10369650D02*
X12205658Y-10369650D01*
X12205658Y-10369650D02*
X12186610Y-10379174D01*
X12186610Y-10379174D02*
X12177087Y-10388698D01*
X12386610Y-10502984D02*
X12367563Y-10493460D01*
X12367563Y-10493460D02*
X12358039Y-10483936D01*
X12358039Y-10483936D02*
X12348515Y-10464889D01*
X12348515Y-10464889D02*
X12348515Y-10407746D01*
X12348515Y-10407746D02*
X12358039Y-10388698D01*
X12358039Y-10388698D02*
X12367563Y-10379174D01*
X12367563Y-10379174D02*
X12386610Y-10369650D01*
X12386610Y-10369650D02*
X12415182Y-10369650D01*
X12415182Y-10369650D02*
X12434230Y-10379174D01*
X12434230Y-10379174D02*
X12443753Y-10388698D01*
X12443753Y-10388698D02*
X12453277Y-10407746D01*
X12453277Y-10407746D02*
X12453277Y-10464889D01*
X12453277Y-10464889D02*
X12443753Y-10483936D01*
X12443753Y-10483936D02*
X12434230Y-10493460D01*
X12434230Y-10493460D02*
X12415182Y-10502984D01*
X12415182Y-10502984D02*
X12386610Y-10502984D01*
X12567563Y-10502984D02*
X12548515Y-10493460D01*
X12548515Y-10493460D02*
X12538991Y-10474412D01*
X12538991Y-10474412D02*
X12538991Y-10302984D01*
X12719944Y-10493460D02*
X12700896Y-10502984D01*
X12700896Y-10502984D02*
X12662801Y-10502984D01*
X12662801Y-10502984D02*
X12643753Y-10493460D01*
X12643753Y-10493460D02*
X12634230Y-10474412D01*
X12634230Y-10474412D02*
X12634230Y-10398222D01*
X12634230Y-10398222D02*
X12643753Y-10379174D01*
X12643753Y-10379174D02*
X12662801Y-10369650D01*
X12662801Y-10369650D02*
X12700896Y-10369650D01*
X12700896Y-10369650D02*
X12719944Y-10379174D01*
X12719944Y-10379174D02*
X12729468Y-10398222D01*
X12729468Y-10398222D02*
X12729468Y-10417270D01*
X12729468Y-10417270D02*
X12634230Y-10436317D01*
X12805658Y-10493460D02*
X12824706Y-10502984D01*
X12824706Y-10502984D02*
X12862801Y-10502984D01*
X12862801Y-10502984D02*
X12881849Y-10493460D01*
X12881849Y-10493460D02*
X12891372Y-10474412D01*
X12891372Y-10474412D02*
X12891372Y-10464889D01*
X12891372Y-10464889D02*
X12881849Y-10445841D01*
X12881849Y-10445841D02*
X12862801Y-10436317D01*
X12862801Y-10436317D02*
X12834230Y-10436317D01*
X12834230Y-10436317D02*
X12815182Y-10426793D01*
X12815182Y-10426793D02*
X12805658Y-10407746D01*
X12805658Y-10407746D02*
X12805658Y-10398222D01*
X12805658Y-10398222D02*
X12815182Y-10379174D01*
X12815182Y-10379174D02*
X12834230Y-10369650D01*
X12834230Y-10369650D02*
X12862801Y-10369650D01*
X12862801Y-10369650D02*
X12881849Y-10379174D01*
X12958039Y-10579174D02*
X12967563Y-10569650D01*
X12967563Y-10569650D02*
X12986611Y-10541079D01*
X12986611Y-10541079D02*
X12996134Y-10522031D01*
X12996134Y-10522031D02*
X13005658Y-10493460D01*
X13005658Y-10493460D02*
X13015182Y-10445841D01*
X13015182Y-10445841D02*
X13015182Y-10407746D01*
X13015182Y-10407746D02*
X13005658Y-10360127D01*
X13005658Y-10360127D02*
X12996134Y-10331555D01*
X12996134Y-10331555D02*
X12986611Y-10312508D01*
X12986611Y-10312508D02*
X12967563Y-10283936D01*
X12967563Y-10283936D02*
X12958039Y-10274412D01*
D12*
X7952500Y-10635500D02*
X7952500Y-10715500D01*
X7912500Y-10675500D02*
X7992500Y-10675500D01*
D11*
X8291372Y-10566984D02*
X8310420Y-10566984D01*
X8310420Y-10566984D02*
X8329467Y-10576508D01*
X8329467Y-10576508D02*
X8338991Y-10586031D01*
X8338991Y-10586031D02*
X8348515Y-10605079D01*
X8348515Y-10605079D02*
X8358039Y-10643174D01*
X8358039Y-10643174D02*
X8358039Y-10690793D01*
X8358039Y-10690793D02*
X8348515Y-10728889D01*
X8348515Y-10728889D02*
X8338991Y-10747936D01*
X8338991Y-10747936D02*
X8329467Y-10757460D01*
X8329467Y-10757460D02*
X8310420Y-10766984D01*
X8310420Y-10766984D02*
X8291372Y-10766984D01*
X8291372Y-10766984D02*
X8272324Y-10757460D01*
X8272324Y-10757460D02*
X8262801Y-10747936D01*
X8262801Y-10747936D02*
X8253277Y-10728889D01*
X8253277Y-10728889D02*
X8243753Y-10690793D01*
X8243753Y-10690793D02*
X8243753Y-10643174D01*
X8243753Y-10643174D02*
X8253277Y-10605079D01*
X8253277Y-10605079D02*
X8262801Y-10586031D01*
X8262801Y-10586031D02*
X8272324Y-10576508D01*
X8272324Y-10576508D02*
X8291372Y-10566984D01*
X8443753Y-10747936D02*
X8453277Y-10757460D01*
X8453277Y-10757460D02*
X8443753Y-10766984D01*
X8443753Y-10766984D02*
X8434229Y-10757460D01*
X8434229Y-10757460D02*
X8443753Y-10747936D01*
X8443753Y-10747936D02*
X8443753Y-10766984D01*
X8567563Y-10652698D02*
X8548515Y-10643174D01*
X8548515Y-10643174D02*
X8538991Y-10633650D01*
X8538991Y-10633650D02*
X8529467Y-10614603D01*
X8529467Y-10614603D02*
X8529467Y-10605079D01*
X8529467Y-10605079D02*
X8538991Y-10586031D01*
X8538991Y-10586031D02*
X8548515Y-10576508D01*
X8548515Y-10576508D02*
X8567563Y-10566984D01*
X8567563Y-10566984D02*
X8605658Y-10566984D01*
X8605658Y-10566984D02*
X8624705Y-10576508D01*
X8624705Y-10576508D02*
X8634229Y-10586031D01*
X8634229Y-10586031D02*
X8643753Y-10605079D01*
X8643753Y-10605079D02*
X8643753Y-10614603D01*
X8643753Y-10614603D02*
X8634229Y-10633650D01*
X8634229Y-10633650D02*
X8624705Y-10643174D01*
X8624705Y-10643174D02*
X8605658Y-10652698D01*
X8605658Y-10652698D02*
X8567563Y-10652698D01*
X8567563Y-10652698D02*
X8548515Y-10662222D01*
X8548515Y-10662222D02*
X8538991Y-10671746D01*
X8538991Y-10671746D02*
X8529467Y-10690793D01*
X8529467Y-10690793D02*
X8529467Y-10728889D01*
X8529467Y-10728889D02*
X8538991Y-10747936D01*
X8538991Y-10747936D02*
X8548515Y-10757460D01*
X8548515Y-10757460D02*
X8567563Y-10766984D01*
X8567563Y-10766984D02*
X8605658Y-10766984D01*
X8605658Y-10766984D02*
X8624705Y-10757460D01*
X8624705Y-10757460D02*
X8634229Y-10747936D01*
X8634229Y-10747936D02*
X8643753Y-10728889D01*
X8643753Y-10728889D02*
X8643753Y-10690793D01*
X8643753Y-10690793D02*
X8634229Y-10671746D01*
X8634229Y-10671746D02*
X8624705Y-10662222D01*
X8624705Y-10662222D02*
X8605658Y-10652698D01*
X8767563Y-10566984D02*
X8786610Y-10566984D01*
X8786610Y-10566984D02*
X8805658Y-10576508D01*
X8805658Y-10576508D02*
X8815182Y-10586031D01*
X8815182Y-10586031D02*
X8824705Y-10605079D01*
X8824705Y-10605079D02*
X8834229Y-10643174D01*
X8834229Y-10643174D02*
X8834229Y-10690793D01*
X8834229Y-10690793D02*
X8824705Y-10728889D01*
X8824705Y-10728889D02*
X8815182Y-10747936D01*
X8815182Y-10747936D02*
X8805658Y-10757460D01*
X8805658Y-10757460D02*
X8786610Y-10766984D01*
X8786610Y-10766984D02*
X8767563Y-10766984D01*
X8767563Y-10766984D02*
X8748515Y-10757460D01*
X8748515Y-10757460D02*
X8738991Y-10747936D01*
X8738991Y-10747936D02*
X8729467Y-10728889D01*
X8729467Y-10728889D02*
X8719944Y-10690793D01*
X8719944Y-10690793D02*
X8719944Y-10643174D01*
X8719944Y-10643174D02*
X8729467Y-10605079D01*
X8729467Y-10605079D02*
X8738991Y-10586031D01*
X8738991Y-10586031D02*
X8748515Y-10576508D01*
X8748515Y-10576508D02*
X8767563Y-10566984D01*
X8958039Y-10566984D02*
X8977086Y-10566984D01*
X8977086Y-10566984D02*
X8996134Y-10576508D01*
X8996134Y-10576508D02*
X9005658Y-10586031D01*
X9005658Y-10586031D02*
X9015182Y-10605079D01*
X9015182Y-10605079D02*
X9024705Y-10643174D01*
X9024705Y-10643174D02*
X9024705Y-10690793D01*
X9024705Y-10690793D02*
X9015182Y-10728889D01*
X9015182Y-10728889D02*
X9005658Y-10747936D01*
X9005658Y-10747936D02*
X8996134Y-10757460D01*
X8996134Y-10757460D02*
X8977086Y-10766984D01*
X8977086Y-10766984D02*
X8958039Y-10766984D01*
X8958039Y-10766984D02*
X8938991Y-10757460D01*
X8938991Y-10757460D02*
X8929467Y-10747936D01*
X8929467Y-10747936D02*
X8919944Y-10728889D01*
X8919944Y-10728889D02*
X8910420Y-10690793D01*
X8910420Y-10690793D02*
X8910420Y-10643174D01*
X8910420Y-10643174D02*
X8919944Y-10605079D01*
X8919944Y-10605079D02*
X8929467Y-10586031D01*
X8929467Y-10586031D02*
X8938991Y-10576508D01*
X8938991Y-10576508D02*
X8958039Y-10566984D01*
X9110420Y-10766984D02*
X9110420Y-10633650D01*
X9110420Y-10652698D02*
X9119944Y-10643174D01*
X9119944Y-10643174D02*
X9138991Y-10633650D01*
X9138991Y-10633650D02*
X9167563Y-10633650D01*
X9167563Y-10633650D02*
X9186610Y-10643174D01*
X9186610Y-10643174D02*
X9196134Y-10662222D01*
X9196134Y-10662222D02*
X9196134Y-10766984D01*
X9196134Y-10662222D02*
X9205658Y-10643174D01*
X9205658Y-10643174D02*
X9224705Y-10633650D01*
X9224705Y-10633650D02*
X9253277Y-10633650D01*
X9253277Y-10633650D02*
X9272325Y-10643174D01*
X9272325Y-10643174D02*
X9281848Y-10662222D01*
X9281848Y-10662222D02*
X9281848Y-10766984D01*
X9377086Y-10766984D02*
X9377086Y-10633650D01*
X9377086Y-10652698D02*
X9386610Y-10643174D01*
X9386610Y-10643174D02*
X9405658Y-10633650D01*
X9405658Y-10633650D02*
X9434229Y-10633650D01*
X9434229Y-10633650D02*
X9453277Y-10643174D01*
X9453277Y-10643174D02*
X9462801Y-10662222D01*
X9462801Y-10662222D02*
X9462801Y-10766984D01*
X9462801Y-10662222D02*
X9472325Y-10643174D01*
X9472325Y-10643174D02*
X9491372Y-10633650D01*
X9491372Y-10633650D02*
X9519944Y-10633650D01*
X9519944Y-10633650D02*
X9538991Y-10643174D01*
X9538991Y-10643174D02*
X9548515Y-10662222D01*
X9548515Y-10662222D02*
X9548515Y-10766984D01*
X9938991Y-10557460D02*
X9767563Y-10814603D01*
X10196134Y-10566984D02*
X10215182Y-10566984D01*
X10215182Y-10566984D02*
X10234229Y-10576508D01*
X10234229Y-10576508D02*
X10243753Y-10586031D01*
X10243753Y-10586031D02*
X10253277Y-10605079D01*
X10253277Y-10605079D02*
X10262801Y-10643174D01*
X10262801Y-10643174D02*
X10262801Y-10690793D01*
X10262801Y-10690793D02*
X10253277Y-10728889D01*
X10253277Y-10728889D02*
X10243753Y-10747936D01*
X10243753Y-10747936D02*
X10234229Y-10757460D01*
X10234229Y-10757460D02*
X10215182Y-10766984D01*
X10215182Y-10766984D02*
X10196134Y-10766984D01*
X10196134Y-10766984D02*
X10177087Y-10757460D01*
X10177087Y-10757460D02*
X10167563Y-10747936D01*
X10167563Y-10747936D02*
X10158039Y-10728889D01*
X10158039Y-10728889D02*
X10148515Y-10690793D01*
X10148515Y-10690793D02*
X10148515Y-10643174D01*
X10148515Y-10643174D02*
X10158039Y-10605079D01*
X10158039Y-10605079D02*
X10167563Y-10586031D01*
X10167563Y-10586031D02*
X10177087Y-10576508D01*
X10177087Y-10576508D02*
X10196134Y-10566984D01*
X10348515Y-10747936D02*
X10358039Y-10757460D01*
X10358039Y-10757460D02*
X10348515Y-10766984D01*
X10348515Y-10766984D02*
X10338991Y-10757460D01*
X10338991Y-10757460D02*
X10348515Y-10747936D01*
X10348515Y-10747936D02*
X10348515Y-10766984D01*
X10481848Y-10566984D02*
X10500896Y-10566984D01*
X10500896Y-10566984D02*
X10519944Y-10576508D01*
X10519944Y-10576508D02*
X10529468Y-10586031D01*
X10529468Y-10586031D02*
X10538991Y-10605079D01*
X10538991Y-10605079D02*
X10548515Y-10643174D01*
X10548515Y-10643174D02*
X10548515Y-10690793D01*
X10548515Y-10690793D02*
X10538991Y-10728889D01*
X10538991Y-10728889D02*
X10529468Y-10747936D01*
X10529468Y-10747936D02*
X10519944Y-10757460D01*
X10519944Y-10757460D02*
X10500896Y-10766984D01*
X10500896Y-10766984D02*
X10481848Y-10766984D01*
X10481848Y-10766984D02*
X10462801Y-10757460D01*
X10462801Y-10757460D02*
X10453277Y-10747936D01*
X10453277Y-10747936D02*
X10443753Y-10728889D01*
X10443753Y-10728889D02*
X10434229Y-10690793D01*
X10434229Y-10690793D02*
X10434229Y-10643174D01*
X10434229Y-10643174D02*
X10443753Y-10605079D01*
X10443753Y-10605079D02*
X10453277Y-10586031D01*
X10453277Y-10586031D02*
X10462801Y-10576508D01*
X10462801Y-10576508D02*
X10481848Y-10566984D01*
X10615182Y-10566984D02*
X10738991Y-10566984D01*
X10738991Y-10566984D02*
X10672325Y-10643174D01*
X10672325Y-10643174D02*
X10700896Y-10643174D01*
X10700896Y-10643174D02*
X10719944Y-10652698D01*
X10719944Y-10652698D02*
X10729468Y-10662222D01*
X10729468Y-10662222D02*
X10738991Y-10681270D01*
X10738991Y-10681270D02*
X10738991Y-10728889D01*
X10738991Y-10728889D02*
X10729468Y-10747936D01*
X10729468Y-10747936D02*
X10719944Y-10757460D01*
X10719944Y-10757460D02*
X10700896Y-10766984D01*
X10700896Y-10766984D02*
X10643753Y-10766984D01*
X10643753Y-10766984D02*
X10624706Y-10757460D01*
X10624706Y-10757460D02*
X10615182Y-10747936D01*
X10929468Y-10766984D02*
X10815182Y-10766984D01*
X10872325Y-10766984D02*
X10872325Y-10566984D01*
X10872325Y-10566984D02*
X10853277Y-10595555D01*
X10853277Y-10595555D02*
X10834229Y-10614603D01*
X10834229Y-10614603D02*
X10815182Y-10624127D01*
X11110420Y-10566984D02*
X11015182Y-10566984D01*
X11015182Y-10566984D02*
X11005658Y-10662222D01*
X11005658Y-10662222D02*
X11015182Y-10652698D01*
X11015182Y-10652698D02*
X11034229Y-10643174D01*
X11034229Y-10643174D02*
X11081849Y-10643174D01*
X11081849Y-10643174D02*
X11100896Y-10652698D01*
X11100896Y-10652698D02*
X11110420Y-10662222D01*
X11110420Y-10662222D02*
X11119944Y-10681270D01*
X11119944Y-10681270D02*
X11119944Y-10728889D01*
X11119944Y-10728889D02*
X11110420Y-10747936D01*
X11110420Y-10747936D02*
X11100896Y-10757460D01*
X11100896Y-10757460D02*
X11081849Y-10766984D01*
X11081849Y-10766984D02*
X11034229Y-10766984D01*
X11034229Y-10766984D02*
X11015182Y-10757460D01*
X11015182Y-10757460D02*
X11005658Y-10747936D01*
X11196134Y-10566984D02*
X11196134Y-10605079D01*
X11272325Y-10566984D02*
X11272325Y-10605079D01*
X11567563Y-10843174D02*
X11558039Y-10833650D01*
X11558039Y-10833650D02*
X11538991Y-10805079D01*
X11538991Y-10805079D02*
X11529468Y-10786031D01*
X11529468Y-10786031D02*
X11519944Y-10757460D01*
X11519944Y-10757460D02*
X11510420Y-10709841D01*
X11510420Y-10709841D02*
X11510420Y-10671746D01*
X11510420Y-10671746D02*
X11519944Y-10624127D01*
X11519944Y-10624127D02*
X11529468Y-10595555D01*
X11529468Y-10595555D02*
X11538991Y-10576508D01*
X11538991Y-10576508D02*
X11558039Y-10547936D01*
X11558039Y-10547936D02*
X11567563Y-10538412D01*
X11729468Y-10566984D02*
X11691372Y-10566984D01*
X11691372Y-10566984D02*
X11672325Y-10576508D01*
X11672325Y-10576508D02*
X11662801Y-10586031D01*
X11662801Y-10586031D02*
X11643753Y-10614603D01*
X11643753Y-10614603D02*
X11634229Y-10652698D01*
X11634229Y-10652698D02*
X11634229Y-10728889D01*
X11634229Y-10728889D02*
X11643753Y-10747936D01*
X11643753Y-10747936D02*
X11653277Y-10757460D01*
X11653277Y-10757460D02*
X11672325Y-10766984D01*
X11672325Y-10766984D02*
X11710420Y-10766984D01*
X11710420Y-10766984D02*
X11729468Y-10757460D01*
X11729468Y-10757460D02*
X11738991Y-10747936D01*
X11738991Y-10747936D02*
X11748515Y-10728889D01*
X11748515Y-10728889D02*
X11748515Y-10681270D01*
X11748515Y-10681270D02*
X11738991Y-10662222D01*
X11738991Y-10662222D02*
X11729468Y-10652698D01*
X11729468Y-10652698D02*
X11710420Y-10643174D01*
X11710420Y-10643174D02*
X11672325Y-10643174D01*
X11672325Y-10643174D02*
X11653277Y-10652698D01*
X11653277Y-10652698D02*
X11643753Y-10662222D01*
X11643753Y-10662222D02*
X11634229Y-10681270D01*
X11986610Y-10766984D02*
X11986610Y-10566984D01*
X12072325Y-10766984D02*
X12072325Y-10662222D01*
X12072325Y-10662222D02*
X12062801Y-10643174D01*
X12062801Y-10643174D02*
X12043753Y-10633650D01*
X12043753Y-10633650D02*
X12015182Y-10633650D01*
X12015182Y-10633650D02*
X11996134Y-10643174D01*
X11996134Y-10643174D02*
X11986610Y-10652698D01*
X12196134Y-10766984D02*
X12177087Y-10757460D01*
X12177087Y-10757460D02*
X12167563Y-10747936D01*
X12167563Y-10747936D02*
X12158039Y-10728889D01*
X12158039Y-10728889D02*
X12158039Y-10671746D01*
X12158039Y-10671746D02*
X12167563Y-10652698D01*
X12167563Y-10652698D02*
X12177087Y-10643174D01*
X12177087Y-10643174D02*
X12196134Y-10633650D01*
X12196134Y-10633650D02*
X12224706Y-10633650D01*
X12224706Y-10633650D02*
X12243753Y-10643174D01*
X12243753Y-10643174D02*
X12253277Y-10652698D01*
X12253277Y-10652698D02*
X12262801Y-10671746D01*
X12262801Y-10671746D02*
X12262801Y-10728889D01*
X12262801Y-10728889D02*
X12253277Y-10747936D01*
X12253277Y-10747936D02*
X12243753Y-10757460D01*
X12243753Y-10757460D02*
X12224706Y-10766984D01*
X12224706Y-10766984D02*
X12196134Y-10766984D01*
X12377087Y-10766984D02*
X12358039Y-10757460D01*
X12358039Y-10757460D02*
X12348515Y-10738412D01*
X12348515Y-10738412D02*
X12348515Y-10566984D01*
X12529468Y-10757460D02*
X12510420Y-10766984D01*
X12510420Y-10766984D02*
X12472325Y-10766984D01*
X12472325Y-10766984D02*
X12453277Y-10757460D01*
X12453277Y-10757460D02*
X12443753Y-10738412D01*
X12443753Y-10738412D02*
X12443753Y-10662222D01*
X12443753Y-10662222D02*
X12453277Y-10643174D01*
X12453277Y-10643174D02*
X12472325Y-10633650D01*
X12472325Y-10633650D02*
X12510420Y-10633650D01*
X12510420Y-10633650D02*
X12529468Y-10643174D01*
X12529468Y-10643174D02*
X12538991Y-10662222D01*
X12538991Y-10662222D02*
X12538991Y-10681270D01*
X12538991Y-10681270D02*
X12443753Y-10700317D01*
X12615182Y-10757460D02*
X12634230Y-10766984D01*
X12634230Y-10766984D02*
X12672325Y-10766984D01*
X12672325Y-10766984D02*
X12691372Y-10757460D01*
X12691372Y-10757460D02*
X12700896Y-10738412D01*
X12700896Y-10738412D02*
X12700896Y-10728889D01*
X12700896Y-10728889D02*
X12691372Y-10709841D01*
X12691372Y-10709841D02*
X12672325Y-10700317D01*
X12672325Y-10700317D02*
X12643753Y-10700317D01*
X12643753Y-10700317D02*
X12624706Y-10690793D01*
X12624706Y-10690793D02*
X12615182Y-10671746D01*
X12615182Y-10671746D02*
X12615182Y-10662222D01*
X12615182Y-10662222D02*
X12624706Y-10643174D01*
X12624706Y-10643174D02*
X12643753Y-10633650D01*
X12643753Y-10633650D02*
X12672325Y-10633650D01*
X12672325Y-10633650D02*
X12691372Y-10643174D01*
X12767563Y-10843174D02*
X12777087Y-10833650D01*
X12777087Y-10833650D02*
X12796134Y-10805079D01*
X12796134Y-10805079D02*
X12805658Y-10786031D01*
X12805658Y-10786031D02*
X12815182Y-10757460D01*
X12815182Y-10757460D02*
X12824706Y-10709841D01*
X12824706Y-10709841D02*
X12824706Y-10671746D01*
X12824706Y-10671746D02*
X12815182Y-10624127D01*
X12815182Y-10624127D02*
X12805658Y-10595555D01*
X12805658Y-10595555D02*
X12796134Y-10576508D01*
X12796134Y-10576508D02*
X12777087Y-10547936D01*
X12777087Y-10547936D02*
X12767563Y-10538412D01*
D12*
X7977856Y-10974856D02*
X7977856Y-10904144D01*
X7907144Y-10904144D01*
X7907144Y-10974856D01*
X7977856Y-10974856D01*
D11*
X8358039Y-11030984D02*
X8243753Y-11030984D01*
X8300896Y-11030984D02*
X8300896Y-10830984D01*
X8300896Y-10830984D02*
X8281848Y-10859555D01*
X8281848Y-10859555D02*
X8262801Y-10878603D01*
X8262801Y-10878603D02*
X8243753Y-10888127D01*
X8443753Y-11011936D02*
X8453277Y-11021460D01*
X8453277Y-11021460D02*
X8443753Y-11030984D01*
X8443753Y-11030984D02*
X8434229Y-11021460D01*
X8434229Y-11021460D02*
X8443753Y-11011936D01*
X8443753Y-11011936D02*
X8443753Y-11030984D01*
X8577086Y-10830984D02*
X8596134Y-10830984D01*
X8596134Y-10830984D02*
X8615182Y-10840508D01*
X8615182Y-10840508D02*
X8624705Y-10850031D01*
X8624705Y-10850031D02*
X8634229Y-10869079D01*
X8634229Y-10869079D02*
X8643753Y-10907174D01*
X8643753Y-10907174D02*
X8643753Y-10954793D01*
X8643753Y-10954793D02*
X8634229Y-10992889D01*
X8634229Y-10992889D02*
X8624705Y-11011936D01*
X8624705Y-11011936D02*
X8615182Y-11021460D01*
X8615182Y-11021460D02*
X8596134Y-11030984D01*
X8596134Y-11030984D02*
X8577086Y-11030984D01*
X8577086Y-11030984D02*
X8558039Y-11021460D01*
X8558039Y-11021460D02*
X8548515Y-11011936D01*
X8548515Y-11011936D02*
X8538991Y-10992889D01*
X8538991Y-10992889D02*
X8529467Y-10954793D01*
X8529467Y-10954793D02*
X8529467Y-10907174D01*
X8529467Y-10907174D02*
X8538991Y-10869079D01*
X8538991Y-10869079D02*
X8548515Y-10850031D01*
X8548515Y-10850031D02*
X8558039Y-10840508D01*
X8558039Y-10840508D02*
X8577086Y-10830984D01*
X8767563Y-10830984D02*
X8786610Y-10830984D01*
X8786610Y-10830984D02*
X8805658Y-10840508D01*
X8805658Y-10840508D02*
X8815182Y-10850031D01*
X8815182Y-10850031D02*
X8824705Y-10869079D01*
X8824705Y-10869079D02*
X8834229Y-10907174D01*
X8834229Y-10907174D02*
X8834229Y-10954793D01*
X8834229Y-10954793D02*
X8824705Y-10992889D01*
X8824705Y-10992889D02*
X8815182Y-11011936D01*
X8815182Y-11011936D02*
X8805658Y-11021460D01*
X8805658Y-11021460D02*
X8786610Y-11030984D01*
X8786610Y-11030984D02*
X8767563Y-11030984D01*
X8767563Y-11030984D02*
X8748515Y-11021460D01*
X8748515Y-11021460D02*
X8738991Y-11011936D01*
X8738991Y-11011936D02*
X8729467Y-10992889D01*
X8729467Y-10992889D02*
X8719944Y-10954793D01*
X8719944Y-10954793D02*
X8719944Y-10907174D01*
X8719944Y-10907174D02*
X8729467Y-10869079D01*
X8729467Y-10869079D02*
X8738991Y-10850031D01*
X8738991Y-10850031D02*
X8748515Y-10840508D01*
X8748515Y-10840508D02*
X8767563Y-10830984D01*
X8958039Y-10830984D02*
X8977086Y-10830984D01*
X8977086Y-10830984D02*
X8996134Y-10840508D01*
X8996134Y-10840508D02*
X9005658Y-10850031D01*
X9005658Y-10850031D02*
X9015182Y-10869079D01*
X9015182Y-10869079D02*
X9024705Y-10907174D01*
X9024705Y-10907174D02*
X9024705Y-10954793D01*
X9024705Y-10954793D02*
X9015182Y-10992889D01*
X9015182Y-10992889D02*
X9005658Y-11011936D01*
X9005658Y-11011936D02*
X8996134Y-11021460D01*
X8996134Y-11021460D02*
X8977086Y-11030984D01*
X8977086Y-11030984D02*
X8958039Y-11030984D01*
X8958039Y-11030984D02*
X8938991Y-11021460D01*
X8938991Y-11021460D02*
X8929467Y-11011936D01*
X8929467Y-11011936D02*
X8919944Y-10992889D01*
X8919944Y-10992889D02*
X8910420Y-10954793D01*
X8910420Y-10954793D02*
X8910420Y-10907174D01*
X8910420Y-10907174D02*
X8919944Y-10869079D01*
X8919944Y-10869079D02*
X8929467Y-10850031D01*
X8929467Y-10850031D02*
X8938991Y-10840508D01*
X8938991Y-10840508D02*
X8958039Y-10830984D01*
X9110420Y-11030984D02*
X9110420Y-10897650D01*
X9110420Y-10916698D02*
X9119944Y-10907174D01*
X9119944Y-10907174D02*
X9138991Y-10897650D01*
X9138991Y-10897650D02*
X9167563Y-10897650D01*
X9167563Y-10897650D02*
X9186610Y-10907174D01*
X9186610Y-10907174D02*
X9196134Y-10926222D01*
X9196134Y-10926222D02*
X9196134Y-11030984D01*
X9196134Y-10926222D02*
X9205658Y-10907174D01*
X9205658Y-10907174D02*
X9224705Y-10897650D01*
X9224705Y-10897650D02*
X9253277Y-10897650D01*
X9253277Y-10897650D02*
X9272325Y-10907174D01*
X9272325Y-10907174D02*
X9281848Y-10926222D01*
X9281848Y-10926222D02*
X9281848Y-11030984D01*
X9377086Y-11030984D02*
X9377086Y-10897650D01*
X9377086Y-10916698D02*
X9386610Y-10907174D01*
X9386610Y-10907174D02*
X9405658Y-10897650D01*
X9405658Y-10897650D02*
X9434229Y-10897650D01*
X9434229Y-10897650D02*
X9453277Y-10907174D01*
X9453277Y-10907174D02*
X9462801Y-10926222D01*
X9462801Y-10926222D02*
X9462801Y-11030984D01*
X9462801Y-10926222D02*
X9472325Y-10907174D01*
X9472325Y-10907174D02*
X9491372Y-10897650D01*
X9491372Y-10897650D02*
X9519944Y-10897650D01*
X9519944Y-10897650D02*
X9538991Y-10907174D01*
X9538991Y-10907174D02*
X9548515Y-10926222D01*
X9548515Y-10926222D02*
X9548515Y-11030984D01*
X9938991Y-10821460D02*
X9767563Y-11078603D01*
X10196134Y-10830984D02*
X10215182Y-10830984D01*
X10215182Y-10830984D02*
X10234229Y-10840508D01*
X10234229Y-10840508D02*
X10243753Y-10850031D01*
X10243753Y-10850031D02*
X10253277Y-10869079D01*
X10253277Y-10869079D02*
X10262801Y-10907174D01*
X10262801Y-10907174D02*
X10262801Y-10954793D01*
X10262801Y-10954793D02*
X10253277Y-10992889D01*
X10253277Y-10992889D02*
X10243753Y-11011936D01*
X10243753Y-11011936D02*
X10234229Y-11021460D01*
X10234229Y-11021460D02*
X10215182Y-11030984D01*
X10215182Y-11030984D02*
X10196134Y-11030984D01*
X10196134Y-11030984D02*
X10177087Y-11021460D01*
X10177087Y-11021460D02*
X10167563Y-11011936D01*
X10167563Y-11011936D02*
X10158039Y-10992889D01*
X10158039Y-10992889D02*
X10148515Y-10954793D01*
X10148515Y-10954793D02*
X10148515Y-10907174D01*
X10148515Y-10907174D02*
X10158039Y-10869079D01*
X10158039Y-10869079D02*
X10167563Y-10850031D01*
X10167563Y-10850031D02*
X10177087Y-10840508D01*
X10177087Y-10840508D02*
X10196134Y-10830984D01*
X10348515Y-11011936D02*
X10358039Y-11021460D01*
X10358039Y-11021460D02*
X10348515Y-11030984D01*
X10348515Y-11030984D02*
X10338991Y-11021460D01*
X10338991Y-11021460D02*
X10348515Y-11011936D01*
X10348515Y-11011936D02*
X10348515Y-11030984D01*
X10481848Y-10830984D02*
X10500896Y-10830984D01*
X10500896Y-10830984D02*
X10519944Y-10840508D01*
X10519944Y-10840508D02*
X10529468Y-10850031D01*
X10529468Y-10850031D02*
X10538991Y-10869079D01*
X10538991Y-10869079D02*
X10548515Y-10907174D01*
X10548515Y-10907174D02*
X10548515Y-10954793D01*
X10548515Y-10954793D02*
X10538991Y-10992889D01*
X10538991Y-10992889D02*
X10529468Y-11011936D01*
X10529468Y-11011936D02*
X10519944Y-11021460D01*
X10519944Y-11021460D02*
X10500896Y-11030984D01*
X10500896Y-11030984D02*
X10481848Y-11030984D01*
X10481848Y-11030984D02*
X10462801Y-11021460D01*
X10462801Y-11021460D02*
X10453277Y-11011936D01*
X10453277Y-11011936D02*
X10443753Y-10992889D01*
X10443753Y-10992889D02*
X10434229Y-10954793D01*
X10434229Y-10954793D02*
X10434229Y-10907174D01*
X10434229Y-10907174D02*
X10443753Y-10869079D01*
X10443753Y-10869079D02*
X10453277Y-10850031D01*
X10453277Y-10850031D02*
X10462801Y-10840508D01*
X10462801Y-10840508D02*
X10481848Y-10830984D01*
X10615182Y-10830984D02*
X10738991Y-10830984D01*
X10738991Y-10830984D02*
X10672325Y-10907174D01*
X10672325Y-10907174D02*
X10700896Y-10907174D01*
X10700896Y-10907174D02*
X10719944Y-10916698D01*
X10719944Y-10916698D02*
X10729468Y-10926222D01*
X10729468Y-10926222D02*
X10738991Y-10945270D01*
X10738991Y-10945270D02*
X10738991Y-10992889D01*
X10738991Y-10992889D02*
X10729468Y-11011936D01*
X10729468Y-11011936D02*
X10719944Y-11021460D01*
X10719944Y-11021460D02*
X10700896Y-11030984D01*
X10700896Y-11030984D02*
X10643753Y-11030984D01*
X10643753Y-11030984D02*
X10624706Y-11021460D01*
X10624706Y-11021460D02*
X10615182Y-11011936D01*
X10834229Y-11030984D02*
X10872325Y-11030984D01*
X10872325Y-11030984D02*
X10891372Y-11021460D01*
X10891372Y-11021460D02*
X10900896Y-11011936D01*
X10900896Y-11011936D02*
X10919944Y-10983365D01*
X10919944Y-10983365D02*
X10929468Y-10945270D01*
X10929468Y-10945270D02*
X10929468Y-10869079D01*
X10929468Y-10869079D02*
X10919944Y-10850031D01*
X10919944Y-10850031D02*
X10910420Y-10840508D01*
X10910420Y-10840508D02*
X10891372Y-10830984D01*
X10891372Y-10830984D02*
X10853277Y-10830984D01*
X10853277Y-10830984D02*
X10834229Y-10840508D01*
X10834229Y-10840508D02*
X10824706Y-10850031D01*
X10824706Y-10850031D02*
X10815182Y-10869079D01*
X10815182Y-10869079D02*
X10815182Y-10916698D01*
X10815182Y-10916698D02*
X10824706Y-10935746D01*
X10824706Y-10935746D02*
X10834229Y-10945270D01*
X10834229Y-10945270D02*
X10853277Y-10954793D01*
X10853277Y-10954793D02*
X10891372Y-10954793D01*
X10891372Y-10954793D02*
X10910420Y-10945270D01*
X10910420Y-10945270D02*
X10919944Y-10935746D01*
X10919944Y-10935746D02*
X10929468Y-10916698D01*
X11100896Y-10897650D02*
X11100896Y-11030984D01*
X11053277Y-10821460D02*
X11005658Y-10964317D01*
X11005658Y-10964317D02*
X11129468Y-10964317D01*
X11196134Y-10830984D02*
X11196134Y-10869079D01*
X11272325Y-10830984D02*
X11272325Y-10869079D01*
X11567563Y-11107174D02*
X11558039Y-11097650D01*
X11558039Y-11097650D02*
X11538991Y-11069079D01*
X11538991Y-11069079D02*
X11529468Y-11050031D01*
X11529468Y-11050031D02*
X11519944Y-11021460D01*
X11519944Y-11021460D02*
X11510420Y-10973841D01*
X11510420Y-10973841D02*
X11510420Y-10935746D01*
X11510420Y-10935746D02*
X11519944Y-10888127D01*
X11519944Y-10888127D02*
X11529468Y-10859555D01*
X11529468Y-10859555D02*
X11538991Y-10840508D01*
X11538991Y-10840508D02*
X11558039Y-10811936D01*
X11558039Y-10811936D02*
X11567563Y-10802412D01*
X11672325Y-10916698D02*
X11653277Y-10907174D01*
X11653277Y-10907174D02*
X11643753Y-10897650D01*
X11643753Y-10897650D02*
X11634229Y-10878603D01*
X11634229Y-10878603D02*
X11634229Y-10869079D01*
X11634229Y-10869079D02*
X11643753Y-10850031D01*
X11643753Y-10850031D02*
X11653277Y-10840508D01*
X11653277Y-10840508D02*
X11672325Y-10830984D01*
X11672325Y-10830984D02*
X11710420Y-10830984D01*
X11710420Y-10830984D02*
X11729468Y-10840508D01*
X11729468Y-10840508D02*
X11738991Y-10850031D01*
X11738991Y-10850031D02*
X11748515Y-10869079D01*
X11748515Y-10869079D02*
X11748515Y-10878603D01*
X11748515Y-10878603D02*
X11738991Y-10897650D01*
X11738991Y-10897650D02*
X11729468Y-10907174D01*
X11729468Y-10907174D02*
X11710420Y-10916698D01*
X11710420Y-10916698D02*
X11672325Y-10916698D01*
X11672325Y-10916698D02*
X11653277Y-10926222D01*
X11653277Y-10926222D02*
X11643753Y-10935746D01*
X11643753Y-10935746D02*
X11634229Y-10954793D01*
X11634229Y-10954793D02*
X11634229Y-10992889D01*
X11634229Y-10992889D02*
X11643753Y-11011936D01*
X11643753Y-11011936D02*
X11653277Y-11021460D01*
X11653277Y-11021460D02*
X11672325Y-11030984D01*
X11672325Y-11030984D02*
X11710420Y-11030984D01*
X11710420Y-11030984D02*
X11729468Y-11021460D01*
X11729468Y-11021460D02*
X11738991Y-11011936D01*
X11738991Y-11011936D02*
X11748515Y-10992889D01*
X11748515Y-10992889D02*
X11748515Y-10954793D01*
X11748515Y-10954793D02*
X11738991Y-10935746D01*
X11738991Y-10935746D02*
X11729468Y-10926222D01*
X11729468Y-10926222D02*
X11710420Y-10916698D01*
X11986610Y-11030984D02*
X11986610Y-10830984D01*
X12072325Y-11030984D02*
X12072325Y-10926222D01*
X12072325Y-10926222D02*
X12062801Y-10907174D01*
X12062801Y-10907174D02*
X12043753Y-10897650D01*
X12043753Y-10897650D02*
X12015182Y-10897650D01*
X12015182Y-10897650D02*
X11996134Y-10907174D01*
X11996134Y-10907174D02*
X11986610Y-10916698D01*
X12196134Y-11030984D02*
X12177087Y-11021460D01*
X12177087Y-11021460D02*
X12167563Y-11011936D01*
X12167563Y-11011936D02*
X12158039Y-10992889D01*
X12158039Y-10992889D02*
X12158039Y-10935746D01*
X12158039Y-10935746D02*
X12167563Y-10916698D01*
X12167563Y-10916698D02*
X12177087Y-10907174D01*
X12177087Y-10907174D02*
X12196134Y-10897650D01*
X12196134Y-10897650D02*
X12224706Y-10897650D01*
X12224706Y-10897650D02*
X12243753Y-10907174D01*
X12243753Y-10907174D02*
X12253277Y-10916698D01*
X12253277Y-10916698D02*
X12262801Y-10935746D01*
X12262801Y-10935746D02*
X12262801Y-10992889D01*
X12262801Y-10992889D02*
X12253277Y-11011936D01*
X12253277Y-11011936D02*
X12243753Y-11021460D01*
X12243753Y-11021460D02*
X12224706Y-11030984D01*
X12224706Y-11030984D02*
X12196134Y-11030984D01*
X12377087Y-11030984D02*
X12358039Y-11021460D01*
X12358039Y-11021460D02*
X12348515Y-11002412D01*
X12348515Y-11002412D02*
X12348515Y-10830984D01*
X12529468Y-11021460D02*
X12510420Y-11030984D01*
X12510420Y-11030984D02*
X12472325Y-11030984D01*
X12472325Y-11030984D02*
X12453277Y-11021460D01*
X12453277Y-11021460D02*
X12443753Y-11002412D01*
X12443753Y-11002412D02*
X12443753Y-10926222D01*
X12443753Y-10926222D02*
X12453277Y-10907174D01*
X12453277Y-10907174D02*
X12472325Y-10897650D01*
X12472325Y-10897650D02*
X12510420Y-10897650D01*
X12510420Y-10897650D02*
X12529468Y-10907174D01*
X12529468Y-10907174D02*
X12538991Y-10926222D01*
X12538991Y-10926222D02*
X12538991Y-10945270D01*
X12538991Y-10945270D02*
X12443753Y-10964317D01*
X12615182Y-11021460D02*
X12634230Y-11030984D01*
X12634230Y-11030984D02*
X12672325Y-11030984D01*
X12672325Y-11030984D02*
X12691372Y-11021460D01*
X12691372Y-11021460D02*
X12700896Y-11002412D01*
X12700896Y-11002412D02*
X12700896Y-10992889D01*
X12700896Y-10992889D02*
X12691372Y-10973841D01*
X12691372Y-10973841D02*
X12672325Y-10964317D01*
X12672325Y-10964317D02*
X12643753Y-10964317D01*
X12643753Y-10964317D02*
X12624706Y-10954793D01*
X12624706Y-10954793D02*
X12615182Y-10935746D01*
X12615182Y-10935746D02*
X12615182Y-10926222D01*
X12615182Y-10926222D02*
X12624706Y-10907174D01*
X12624706Y-10907174D02*
X12643753Y-10897650D01*
X12643753Y-10897650D02*
X12672325Y-10897650D01*
X12672325Y-10897650D02*
X12691372Y-10907174D01*
X12767563Y-11107174D02*
X12777087Y-11097650D01*
X12777087Y-11097650D02*
X12796134Y-11069079D01*
X12796134Y-11069079D02*
X12805658Y-11050031D01*
X12805658Y-11050031D02*
X12815182Y-11021460D01*
X12815182Y-11021460D02*
X12824706Y-10973841D01*
X12824706Y-10973841D02*
X12824706Y-10935746D01*
X12824706Y-10935746D02*
X12815182Y-10888127D01*
X12815182Y-10888127D02*
X12805658Y-10859555D01*
X12805658Y-10859555D02*
X12796134Y-10840508D01*
X12796134Y-10840508D02*
X12777087Y-10811936D01*
X12777087Y-10811936D02*
X12767563Y-10802412D01*
D13*
X7932500Y-11263500D02*
X7992500Y-11203500D01*
X7932500Y-11143500D01*
X7872500Y-11203500D01*
X7932500Y-11263500D01*
D11*
X8358039Y-11294984D02*
X8243753Y-11294984D01*
X8300896Y-11294984D02*
X8300896Y-11094984D01*
X8300896Y-11094984D02*
X8281848Y-11123555D01*
X8281848Y-11123555D02*
X8262801Y-11142603D01*
X8262801Y-11142603D02*
X8243753Y-11152127D01*
X8443753Y-11275936D02*
X8453277Y-11285460D01*
X8453277Y-11285460D02*
X8443753Y-11294984D01*
X8443753Y-11294984D02*
X8434229Y-11285460D01*
X8434229Y-11285460D02*
X8443753Y-11275936D01*
X8443753Y-11275936D02*
X8443753Y-11294984D01*
X8529467Y-11114031D02*
X8538991Y-11104508D01*
X8538991Y-11104508D02*
X8558039Y-11094984D01*
X8558039Y-11094984D02*
X8605658Y-11094984D01*
X8605658Y-11094984D02*
X8624705Y-11104508D01*
X8624705Y-11104508D02*
X8634229Y-11114031D01*
X8634229Y-11114031D02*
X8643753Y-11133079D01*
X8643753Y-11133079D02*
X8643753Y-11152127D01*
X8643753Y-11152127D02*
X8634229Y-11180698D01*
X8634229Y-11180698D02*
X8519944Y-11294984D01*
X8519944Y-11294984D02*
X8643753Y-11294984D01*
X8767563Y-11094984D02*
X8786610Y-11094984D01*
X8786610Y-11094984D02*
X8805658Y-11104508D01*
X8805658Y-11104508D02*
X8815182Y-11114031D01*
X8815182Y-11114031D02*
X8824705Y-11133079D01*
X8824705Y-11133079D02*
X8834229Y-11171174D01*
X8834229Y-11171174D02*
X8834229Y-11218793D01*
X8834229Y-11218793D02*
X8824705Y-11256888D01*
X8824705Y-11256888D02*
X8815182Y-11275936D01*
X8815182Y-11275936D02*
X8805658Y-11285460D01*
X8805658Y-11285460D02*
X8786610Y-11294984D01*
X8786610Y-11294984D02*
X8767563Y-11294984D01*
X8767563Y-11294984D02*
X8748515Y-11285460D01*
X8748515Y-11285460D02*
X8738991Y-11275936D01*
X8738991Y-11275936D02*
X8729467Y-11256888D01*
X8729467Y-11256888D02*
X8719944Y-11218793D01*
X8719944Y-11218793D02*
X8719944Y-11171174D01*
X8719944Y-11171174D02*
X8729467Y-11133079D01*
X8729467Y-11133079D02*
X8738991Y-11114031D01*
X8738991Y-11114031D02*
X8748515Y-11104508D01*
X8748515Y-11104508D02*
X8767563Y-11094984D01*
X8958039Y-11094984D02*
X8977086Y-11094984D01*
X8977086Y-11094984D02*
X8996134Y-11104508D01*
X8996134Y-11104508D02*
X9005658Y-11114031D01*
X9005658Y-11114031D02*
X9015182Y-11133079D01*
X9015182Y-11133079D02*
X9024705Y-11171174D01*
X9024705Y-11171174D02*
X9024705Y-11218793D01*
X9024705Y-11218793D02*
X9015182Y-11256888D01*
X9015182Y-11256888D02*
X9005658Y-11275936D01*
X9005658Y-11275936D02*
X8996134Y-11285460D01*
X8996134Y-11285460D02*
X8977086Y-11294984D01*
X8977086Y-11294984D02*
X8958039Y-11294984D01*
X8958039Y-11294984D02*
X8938991Y-11285460D01*
X8938991Y-11285460D02*
X8929467Y-11275936D01*
X8929467Y-11275936D02*
X8919944Y-11256888D01*
X8919944Y-11256888D02*
X8910420Y-11218793D01*
X8910420Y-11218793D02*
X8910420Y-11171174D01*
X8910420Y-11171174D02*
X8919944Y-11133079D01*
X8919944Y-11133079D02*
X8929467Y-11114031D01*
X8929467Y-11114031D02*
X8938991Y-11104508D01*
X8938991Y-11104508D02*
X8958039Y-11094984D01*
X9110420Y-11294984D02*
X9110420Y-11161650D01*
X9110420Y-11180698D02*
X9119944Y-11171174D01*
X9119944Y-11171174D02*
X9138991Y-11161650D01*
X9138991Y-11161650D02*
X9167563Y-11161650D01*
X9167563Y-11161650D02*
X9186610Y-11171174D01*
X9186610Y-11171174D02*
X9196134Y-11190222D01*
X9196134Y-11190222D02*
X9196134Y-11294984D01*
X9196134Y-11190222D02*
X9205658Y-11171174D01*
X9205658Y-11171174D02*
X9224705Y-11161650D01*
X9224705Y-11161650D02*
X9253277Y-11161650D01*
X9253277Y-11161650D02*
X9272325Y-11171174D01*
X9272325Y-11171174D02*
X9281848Y-11190222D01*
X9281848Y-11190222D02*
X9281848Y-11294984D01*
X9377086Y-11294984D02*
X9377086Y-11161650D01*
X9377086Y-11180698D02*
X9386610Y-11171174D01*
X9386610Y-11171174D02*
X9405658Y-11161650D01*
X9405658Y-11161650D02*
X9434229Y-11161650D01*
X9434229Y-11161650D02*
X9453277Y-11171174D01*
X9453277Y-11171174D02*
X9462801Y-11190222D01*
X9462801Y-11190222D02*
X9462801Y-11294984D01*
X9462801Y-11190222D02*
X9472325Y-11171174D01*
X9472325Y-11171174D02*
X9491372Y-11161650D01*
X9491372Y-11161650D02*
X9519944Y-11161650D01*
X9519944Y-11161650D02*
X9538991Y-11171174D01*
X9538991Y-11171174D02*
X9548515Y-11190222D01*
X9548515Y-11190222D02*
X9548515Y-11294984D01*
X9938991Y-11085460D02*
X9767563Y-11342603D01*
X10196134Y-11094984D02*
X10215182Y-11094984D01*
X10215182Y-11094984D02*
X10234229Y-11104508D01*
X10234229Y-11104508D02*
X10243753Y-11114031D01*
X10243753Y-11114031D02*
X10253277Y-11133079D01*
X10253277Y-11133079D02*
X10262801Y-11171174D01*
X10262801Y-11171174D02*
X10262801Y-11218793D01*
X10262801Y-11218793D02*
X10253277Y-11256888D01*
X10253277Y-11256888D02*
X10243753Y-11275936D01*
X10243753Y-11275936D02*
X10234229Y-11285460D01*
X10234229Y-11285460D02*
X10215182Y-11294984D01*
X10215182Y-11294984D02*
X10196134Y-11294984D01*
X10196134Y-11294984D02*
X10177087Y-11285460D01*
X10177087Y-11285460D02*
X10167563Y-11275936D01*
X10167563Y-11275936D02*
X10158039Y-11256888D01*
X10158039Y-11256888D02*
X10148515Y-11218793D01*
X10148515Y-11218793D02*
X10148515Y-11171174D01*
X10148515Y-11171174D02*
X10158039Y-11133079D01*
X10158039Y-11133079D02*
X10167563Y-11114031D01*
X10167563Y-11114031D02*
X10177087Y-11104508D01*
X10177087Y-11104508D02*
X10196134Y-11094984D01*
X10348515Y-11275936D02*
X10358039Y-11285460D01*
X10358039Y-11285460D02*
X10348515Y-11294984D01*
X10348515Y-11294984D02*
X10338991Y-11285460D01*
X10338991Y-11285460D02*
X10348515Y-11275936D01*
X10348515Y-11275936D02*
X10348515Y-11294984D01*
X10481848Y-11094984D02*
X10500896Y-11094984D01*
X10500896Y-11094984D02*
X10519944Y-11104508D01*
X10519944Y-11104508D02*
X10529468Y-11114031D01*
X10529468Y-11114031D02*
X10538991Y-11133079D01*
X10538991Y-11133079D02*
X10548515Y-11171174D01*
X10548515Y-11171174D02*
X10548515Y-11218793D01*
X10548515Y-11218793D02*
X10538991Y-11256888D01*
X10538991Y-11256888D02*
X10529468Y-11275936D01*
X10529468Y-11275936D02*
X10519944Y-11285460D01*
X10519944Y-11285460D02*
X10500896Y-11294984D01*
X10500896Y-11294984D02*
X10481848Y-11294984D01*
X10481848Y-11294984D02*
X10462801Y-11285460D01*
X10462801Y-11285460D02*
X10453277Y-11275936D01*
X10453277Y-11275936D02*
X10443753Y-11256888D01*
X10443753Y-11256888D02*
X10434229Y-11218793D01*
X10434229Y-11218793D02*
X10434229Y-11171174D01*
X10434229Y-11171174D02*
X10443753Y-11133079D01*
X10443753Y-11133079D02*
X10453277Y-11114031D01*
X10453277Y-11114031D02*
X10462801Y-11104508D01*
X10462801Y-11104508D02*
X10481848Y-11094984D01*
X10719944Y-11161650D02*
X10719944Y-11294984D01*
X10672325Y-11085460D02*
X10624706Y-11228317D01*
X10624706Y-11228317D02*
X10748515Y-11228317D01*
X10805658Y-11094984D02*
X10938991Y-11094984D01*
X10938991Y-11094984D02*
X10853277Y-11294984D01*
X11005658Y-11114031D02*
X11015182Y-11104508D01*
X11015182Y-11104508D02*
X11034229Y-11094984D01*
X11034229Y-11094984D02*
X11081849Y-11094984D01*
X11081849Y-11094984D02*
X11100896Y-11104508D01*
X11100896Y-11104508D02*
X11110420Y-11114031D01*
X11110420Y-11114031D02*
X11119944Y-11133079D01*
X11119944Y-11133079D02*
X11119944Y-11152127D01*
X11119944Y-11152127D02*
X11110420Y-11180698D01*
X11110420Y-11180698D02*
X10996134Y-11294984D01*
X10996134Y-11294984D02*
X11119944Y-11294984D01*
X11196134Y-11094984D02*
X11196134Y-11133079D01*
X11272325Y-11094984D02*
X11272325Y-11133079D01*
X11567563Y-11371174D02*
X11558039Y-11361650D01*
X11558039Y-11361650D02*
X11538991Y-11333079D01*
X11538991Y-11333079D02*
X11529468Y-11314031D01*
X11529468Y-11314031D02*
X11519944Y-11285460D01*
X11519944Y-11285460D02*
X11510420Y-11237841D01*
X11510420Y-11237841D02*
X11510420Y-11199746D01*
X11510420Y-11199746D02*
X11519944Y-11152127D01*
X11519944Y-11152127D02*
X11529468Y-11123555D01*
X11529468Y-11123555D02*
X11538991Y-11104508D01*
X11538991Y-11104508D02*
X11558039Y-11075936D01*
X11558039Y-11075936D02*
X11567563Y-11066412D01*
X11634229Y-11114031D02*
X11643753Y-11104508D01*
X11643753Y-11104508D02*
X11662801Y-11094984D01*
X11662801Y-11094984D02*
X11710420Y-11094984D01*
X11710420Y-11094984D02*
X11729468Y-11104508D01*
X11729468Y-11104508D02*
X11738991Y-11114031D01*
X11738991Y-11114031D02*
X11748515Y-11133079D01*
X11748515Y-11133079D02*
X11748515Y-11152127D01*
X11748515Y-11152127D02*
X11738991Y-11180698D01*
X11738991Y-11180698D02*
X11624706Y-11294984D01*
X11624706Y-11294984D02*
X11748515Y-11294984D01*
X11986610Y-11294984D02*
X11986610Y-11094984D01*
X12072325Y-11294984D02*
X12072325Y-11190222D01*
X12072325Y-11190222D02*
X12062801Y-11171174D01*
X12062801Y-11171174D02*
X12043753Y-11161650D01*
X12043753Y-11161650D02*
X12015182Y-11161650D01*
X12015182Y-11161650D02*
X11996134Y-11171174D01*
X11996134Y-11171174D02*
X11986610Y-11180698D01*
X12196134Y-11294984D02*
X12177087Y-11285460D01*
X12177087Y-11285460D02*
X12167563Y-11275936D01*
X12167563Y-11275936D02*
X12158039Y-11256888D01*
X12158039Y-11256888D02*
X12158039Y-11199746D01*
X12158039Y-11199746D02*
X12167563Y-11180698D01*
X12167563Y-11180698D02*
X12177087Y-11171174D01*
X12177087Y-11171174D02*
X12196134Y-11161650D01*
X12196134Y-11161650D02*
X12224706Y-11161650D01*
X12224706Y-11161650D02*
X12243753Y-11171174D01*
X12243753Y-11171174D02*
X12253277Y-11180698D01*
X12253277Y-11180698D02*
X12262801Y-11199746D01*
X12262801Y-11199746D02*
X12262801Y-11256888D01*
X12262801Y-11256888D02*
X12253277Y-11275936D01*
X12253277Y-11275936D02*
X12243753Y-11285460D01*
X12243753Y-11285460D02*
X12224706Y-11294984D01*
X12224706Y-11294984D02*
X12196134Y-11294984D01*
X12377087Y-11294984D02*
X12358039Y-11285460D01*
X12358039Y-11285460D02*
X12348515Y-11266412D01*
X12348515Y-11266412D02*
X12348515Y-11094984D01*
X12529468Y-11285460D02*
X12510420Y-11294984D01*
X12510420Y-11294984D02*
X12472325Y-11294984D01*
X12472325Y-11294984D02*
X12453277Y-11285460D01*
X12453277Y-11285460D02*
X12443753Y-11266412D01*
X12443753Y-11266412D02*
X12443753Y-11190222D01*
X12443753Y-11190222D02*
X12453277Y-11171174D01*
X12453277Y-11171174D02*
X12472325Y-11161650D01*
X12472325Y-11161650D02*
X12510420Y-11161650D01*
X12510420Y-11161650D02*
X12529468Y-11171174D01*
X12529468Y-11171174D02*
X12538991Y-11190222D01*
X12538991Y-11190222D02*
X12538991Y-11209269D01*
X12538991Y-11209269D02*
X12443753Y-11228317D01*
X12615182Y-11285460D02*
X12634230Y-11294984D01*
X12634230Y-11294984D02*
X12672325Y-11294984D01*
X12672325Y-11294984D02*
X12691372Y-11285460D01*
X12691372Y-11285460D02*
X12700896Y-11266412D01*
X12700896Y-11266412D02*
X12700896Y-11256888D01*
X12700896Y-11256888D02*
X12691372Y-11237841D01*
X12691372Y-11237841D02*
X12672325Y-11228317D01*
X12672325Y-11228317D02*
X12643753Y-11228317D01*
X12643753Y-11228317D02*
X12624706Y-11218793D01*
X12624706Y-11218793D02*
X12615182Y-11199746D01*
X12615182Y-11199746D02*
X12615182Y-11190222D01*
X12615182Y-11190222D02*
X12624706Y-11171174D01*
X12624706Y-11171174D02*
X12643753Y-11161650D01*
X12643753Y-11161650D02*
X12672325Y-11161650D01*
X12672325Y-11161650D02*
X12691372Y-11171174D01*
X12767563Y-11371174D02*
X12777087Y-11361650D01*
X12777087Y-11361650D02*
X12796134Y-11333079D01*
X12796134Y-11333079D02*
X12805658Y-11314031D01*
X12805658Y-11314031D02*
X12815182Y-11285460D01*
X12815182Y-11285460D02*
X12824706Y-11237841D01*
X12824706Y-11237841D02*
X12824706Y-11199746D01*
X12824706Y-11199746D02*
X12815182Y-11152127D01*
X12815182Y-11152127D02*
X12805658Y-11123555D01*
X12805658Y-11123555D02*
X12796134Y-11104508D01*
X12796134Y-11104508D02*
X12777087Y-11075936D01*
X12777087Y-11075936D02*
X12767563Y-11066412D01*
D14*
X7862452Y-11402476D02*
X7992500Y-11532524D01*
X7992500Y-11402476D02*
X7862452Y-11532524D01*
X7992500Y-11467500D02*
G75*
G02*
X7862452Y-11467500I-65024J0D01*
G01*
X7862452Y-11467500D02*
G75*
G02*
X7992500Y-11467500I65024J0D01*
G01*
D11*
X8358039Y-11558984D02*
X8243753Y-11558984D01*
X8300896Y-11558984D02*
X8300896Y-11358984D01*
X8300896Y-11358984D02*
X8281848Y-11387555D01*
X8281848Y-11387555D02*
X8262801Y-11406603D01*
X8262801Y-11406603D02*
X8243753Y-11416127D01*
X8443753Y-11539936D02*
X8453277Y-11549460D01*
X8453277Y-11549460D02*
X8443753Y-11558984D01*
X8443753Y-11558984D02*
X8434229Y-11549460D01*
X8434229Y-11549460D02*
X8443753Y-11539936D01*
X8443753Y-11539936D02*
X8443753Y-11558984D01*
X8519944Y-11358984D02*
X8643753Y-11358984D01*
X8643753Y-11358984D02*
X8577086Y-11435174D01*
X8577086Y-11435174D02*
X8605658Y-11435174D01*
X8605658Y-11435174D02*
X8624705Y-11444698D01*
X8624705Y-11444698D02*
X8634229Y-11454222D01*
X8634229Y-11454222D02*
X8643753Y-11473269D01*
X8643753Y-11473269D02*
X8643753Y-11520888D01*
X8643753Y-11520888D02*
X8634229Y-11539936D01*
X8634229Y-11539936D02*
X8624705Y-11549460D01*
X8624705Y-11549460D02*
X8605658Y-11558984D01*
X8605658Y-11558984D02*
X8548515Y-11558984D01*
X8548515Y-11558984D02*
X8529467Y-11549460D01*
X8529467Y-11549460D02*
X8519944Y-11539936D01*
X8767563Y-11358984D02*
X8786610Y-11358984D01*
X8786610Y-11358984D02*
X8805658Y-11368508D01*
X8805658Y-11368508D02*
X8815182Y-11378031D01*
X8815182Y-11378031D02*
X8824705Y-11397079D01*
X8824705Y-11397079D02*
X8834229Y-11435174D01*
X8834229Y-11435174D02*
X8834229Y-11482793D01*
X8834229Y-11482793D02*
X8824705Y-11520888D01*
X8824705Y-11520888D02*
X8815182Y-11539936D01*
X8815182Y-11539936D02*
X8805658Y-11549460D01*
X8805658Y-11549460D02*
X8786610Y-11558984D01*
X8786610Y-11558984D02*
X8767563Y-11558984D01*
X8767563Y-11558984D02*
X8748515Y-11549460D01*
X8748515Y-11549460D02*
X8738991Y-11539936D01*
X8738991Y-11539936D02*
X8729467Y-11520888D01*
X8729467Y-11520888D02*
X8719944Y-11482793D01*
X8719944Y-11482793D02*
X8719944Y-11435174D01*
X8719944Y-11435174D02*
X8729467Y-11397079D01*
X8729467Y-11397079D02*
X8738991Y-11378031D01*
X8738991Y-11378031D02*
X8748515Y-11368508D01*
X8748515Y-11368508D02*
X8767563Y-11358984D01*
X8958039Y-11358984D02*
X8977086Y-11358984D01*
X8977086Y-11358984D02*
X8996134Y-11368508D01*
X8996134Y-11368508D02*
X9005658Y-11378031D01*
X9005658Y-11378031D02*
X9015182Y-11397079D01*
X9015182Y-11397079D02*
X9024705Y-11435174D01*
X9024705Y-11435174D02*
X9024705Y-11482793D01*
X9024705Y-11482793D02*
X9015182Y-11520888D01*
X9015182Y-11520888D02*
X9005658Y-11539936D01*
X9005658Y-11539936D02*
X8996134Y-11549460D01*
X8996134Y-11549460D02*
X8977086Y-11558984D01*
X8977086Y-11558984D02*
X8958039Y-11558984D01*
X8958039Y-11558984D02*
X8938991Y-11549460D01*
X8938991Y-11549460D02*
X8929467Y-11539936D01*
X8929467Y-11539936D02*
X8919944Y-11520888D01*
X8919944Y-11520888D02*
X8910420Y-11482793D01*
X8910420Y-11482793D02*
X8910420Y-11435174D01*
X8910420Y-11435174D02*
X8919944Y-11397079D01*
X8919944Y-11397079D02*
X8929467Y-11378031D01*
X8929467Y-11378031D02*
X8938991Y-11368508D01*
X8938991Y-11368508D02*
X8958039Y-11358984D01*
X9110420Y-11558984D02*
X9110420Y-11425650D01*
X9110420Y-11444698D02*
X9119944Y-11435174D01*
X9119944Y-11435174D02*
X9138991Y-11425650D01*
X9138991Y-11425650D02*
X9167563Y-11425650D01*
X9167563Y-11425650D02*
X9186610Y-11435174D01*
X9186610Y-11435174D02*
X9196134Y-11454222D01*
X9196134Y-11454222D02*
X9196134Y-11558984D01*
X9196134Y-11454222D02*
X9205658Y-11435174D01*
X9205658Y-11435174D02*
X9224705Y-11425650D01*
X9224705Y-11425650D02*
X9253277Y-11425650D01*
X9253277Y-11425650D02*
X9272325Y-11435174D01*
X9272325Y-11435174D02*
X9281848Y-11454222D01*
X9281848Y-11454222D02*
X9281848Y-11558984D01*
X9377086Y-11558984D02*
X9377086Y-11425650D01*
X9377086Y-11444698D02*
X9386610Y-11435174D01*
X9386610Y-11435174D02*
X9405658Y-11425650D01*
X9405658Y-11425650D02*
X9434229Y-11425650D01*
X9434229Y-11425650D02*
X9453277Y-11435174D01*
X9453277Y-11435174D02*
X9462801Y-11454222D01*
X9462801Y-11454222D02*
X9462801Y-11558984D01*
X9462801Y-11454222D02*
X9472325Y-11435174D01*
X9472325Y-11435174D02*
X9491372Y-11425650D01*
X9491372Y-11425650D02*
X9519944Y-11425650D01*
X9519944Y-11425650D02*
X9538991Y-11435174D01*
X9538991Y-11435174D02*
X9548515Y-11454222D01*
X9548515Y-11454222D02*
X9548515Y-11558984D01*
X9938991Y-11349460D02*
X9767563Y-11606603D01*
X10196134Y-11358984D02*
X10215182Y-11358984D01*
X10215182Y-11358984D02*
X10234229Y-11368508D01*
X10234229Y-11368508D02*
X10243753Y-11378031D01*
X10243753Y-11378031D02*
X10253277Y-11397079D01*
X10253277Y-11397079D02*
X10262801Y-11435174D01*
X10262801Y-11435174D02*
X10262801Y-11482793D01*
X10262801Y-11482793D02*
X10253277Y-11520888D01*
X10253277Y-11520888D02*
X10243753Y-11539936D01*
X10243753Y-11539936D02*
X10234229Y-11549460D01*
X10234229Y-11549460D02*
X10215182Y-11558984D01*
X10215182Y-11558984D02*
X10196134Y-11558984D01*
X10196134Y-11558984D02*
X10177087Y-11549460D01*
X10177087Y-11549460D02*
X10167563Y-11539936D01*
X10167563Y-11539936D02*
X10158039Y-11520888D01*
X10158039Y-11520888D02*
X10148515Y-11482793D01*
X10148515Y-11482793D02*
X10148515Y-11435174D01*
X10148515Y-11435174D02*
X10158039Y-11397079D01*
X10158039Y-11397079D02*
X10167563Y-11378031D01*
X10167563Y-11378031D02*
X10177087Y-11368508D01*
X10177087Y-11368508D02*
X10196134Y-11358984D01*
X10348515Y-11539936D02*
X10358039Y-11549460D01*
X10358039Y-11549460D02*
X10348515Y-11558984D01*
X10348515Y-11558984D02*
X10338991Y-11549460D01*
X10338991Y-11549460D02*
X10348515Y-11539936D01*
X10348515Y-11539936D02*
X10348515Y-11558984D01*
X10481848Y-11358984D02*
X10500896Y-11358984D01*
X10500896Y-11358984D02*
X10519944Y-11368508D01*
X10519944Y-11368508D02*
X10529468Y-11378031D01*
X10529468Y-11378031D02*
X10538991Y-11397079D01*
X10538991Y-11397079D02*
X10548515Y-11435174D01*
X10548515Y-11435174D02*
X10548515Y-11482793D01*
X10548515Y-11482793D02*
X10538991Y-11520888D01*
X10538991Y-11520888D02*
X10529468Y-11539936D01*
X10529468Y-11539936D02*
X10519944Y-11549460D01*
X10519944Y-11549460D02*
X10500896Y-11558984D01*
X10500896Y-11558984D02*
X10481848Y-11558984D01*
X10481848Y-11558984D02*
X10462801Y-11549460D01*
X10462801Y-11549460D02*
X10453277Y-11539936D01*
X10453277Y-11539936D02*
X10443753Y-11520888D01*
X10443753Y-11520888D02*
X10434229Y-11482793D01*
X10434229Y-11482793D02*
X10434229Y-11435174D01*
X10434229Y-11435174D02*
X10443753Y-11397079D01*
X10443753Y-11397079D02*
X10453277Y-11378031D01*
X10453277Y-11378031D02*
X10462801Y-11368508D01*
X10462801Y-11368508D02*
X10481848Y-11358984D01*
X10729468Y-11358984D02*
X10634229Y-11358984D01*
X10634229Y-11358984D02*
X10624706Y-11454222D01*
X10624706Y-11454222D02*
X10634229Y-11444698D01*
X10634229Y-11444698D02*
X10653277Y-11435174D01*
X10653277Y-11435174D02*
X10700896Y-11435174D01*
X10700896Y-11435174D02*
X10719944Y-11444698D01*
X10719944Y-11444698D02*
X10729468Y-11454222D01*
X10729468Y-11454222D02*
X10738991Y-11473269D01*
X10738991Y-11473269D02*
X10738991Y-11520888D01*
X10738991Y-11520888D02*
X10729468Y-11539936D01*
X10729468Y-11539936D02*
X10719944Y-11549460D01*
X10719944Y-11549460D02*
X10700896Y-11558984D01*
X10700896Y-11558984D02*
X10653277Y-11558984D01*
X10653277Y-11558984D02*
X10634229Y-11549460D01*
X10634229Y-11549460D02*
X10624706Y-11539936D01*
X10929468Y-11558984D02*
X10815182Y-11558984D01*
X10872325Y-11558984D02*
X10872325Y-11358984D01*
X10872325Y-11358984D02*
X10853277Y-11387555D01*
X10853277Y-11387555D02*
X10834229Y-11406603D01*
X10834229Y-11406603D02*
X10815182Y-11416127D01*
X11005658Y-11378031D02*
X11015182Y-11368508D01*
X11015182Y-11368508D02*
X11034229Y-11358984D01*
X11034229Y-11358984D02*
X11081849Y-11358984D01*
X11081849Y-11358984D02*
X11100896Y-11368508D01*
X11100896Y-11368508D02*
X11110420Y-11378031D01*
X11110420Y-11378031D02*
X11119944Y-11397079D01*
X11119944Y-11397079D02*
X11119944Y-11416127D01*
X11119944Y-11416127D02*
X11110420Y-11444698D01*
X11110420Y-11444698D02*
X10996134Y-11558984D01*
X10996134Y-11558984D02*
X11119944Y-11558984D01*
X11196134Y-11358984D02*
X11196134Y-11397079D01*
X11272325Y-11358984D02*
X11272325Y-11397079D01*
X11567563Y-11635174D02*
X11558039Y-11625650D01*
X11558039Y-11625650D02*
X11538991Y-11597079D01*
X11538991Y-11597079D02*
X11529468Y-11578031D01*
X11529468Y-11578031D02*
X11519944Y-11549460D01*
X11519944Y-11549460D02*
X11510420Y-11501841D01*
X11510420Y-11501841D02*
X11510420Y-11463746D01*
X11510420Y-11463746D02*
X11519944Y-11416127D01*
X11519944Y-11416127D02*
X11529468Y-11387555D01*
X11529468Y-11387555D02*
X11538991Y-11368508D01*
X11538991Y-11368508D02*
X11558039Y-11339936D01*
X11558039Y-11339936D02*
X11567563Y-11330412D01*
X11738991Y-11358984D02*
X11643753Y-11358984D01*
X11643753Y-11358984D02*
X11634229Y-11454222D01*
X11634229Y-11454222D02*
X11643753Y-11444698D01*
X11643753Y-11444698D02*
X11662801Y-11435174D01*
X11662801Y-11435174D02*
X11710420Y-11435174D01*
X11710420Y-11435174D02*
X11729468Y-11444698D01*
X11729468Y-11444698D02*
X11738991Y-11454222D01*
X11738991Y-11454222D02*
X11748515Y-11473269D01*
X11748515Y-11473269D02*
X11748515Y-11520888D01*
X11748515Y-11520888D02*
X11738991Y-11539936D01*
X11738991Y-11539936D02*
X11729468Y-11549460D01*
X11729468Y-11549460D02*
X11710420Y-11558984D01*
X11710420Y-11558984D02*
X11662801Y-11558984D01*
X11662801Y-11558984D02*
X11643753Y-11549460D01*
X11643753Y-11549460D02*
X11634229Y-11539936D01*
X11986610Y-11558984D02*
X11986610Y-11358984D01*
X12072325Y-11558984D02*
X12072325Y-11454222D01*
X12072325Y-11454222D02*
X12062801Y-11435174D01*
X12062801Y-11435174D02*
X12043753Y-11425650D01*
X12043753Y-11425650D02*
X12015182Y-11425650D01*
X12015182Y-11425650D02*
X11996134Y-11435174D01*
X11996134Y-11435174D02*
X11986610Y-11444698D01*
X12196134Y-11558984D02*
X12177087Y-11549460D01*
X12177087Y-11549460D02*
X12167563Y-11539936D01*
X12167563Y-11539936D02*
X12158039Y-11520888D01*
X12158039Y-11520888D02*
X12158039Y-11463746D01*
X12158039Y-11463746D02*
X12167563Y-11444698D01*
X12167563Y-11444698D02*
X12177087Y-11435174D01*
X12177087Y-11435174D02*
X12196134Y-11425650D01*
X12196134Y-11425650D02*
X12224706Y-11425650D01*
X12224706Y-11425650D02*
X12243753Y-11435174D01*
X12243753Y-11435174D02*
X12253277Y-11444698D01*
X12253277Y-11444698D02*
X12262801Y-11463746D01*
X12262801Y-11463746D02*
X12262801Y-11520888D01*
X12262801Y-11520888D02*
X12253277Y-11539936D01*
X12253277Y-11539936D02*
X12243753Y-11549460D01*
X12243753Y-11549460D02*
X12224706Y-11558984D01*
X12224706Y-11558984D02*
X12196134Y-11558984D01*
X12377087Y-11558984D02*
X12358039Y-11549460D01*
X12358039Y-11549460D02*
X12348515Y-11530412D01*
X12348515Y-11530412D02*
X12348515Y-11358984D01*
X12529468Y-11549460D02*
X12510420Y-11558984D01*
X12510420Y-11558984D02*
X12472325Y-11558984D01*
X12472325Y-11558984D02*
X12453277Y-11549460D01*
X12453277Y-11549460D02*
X12443753Y-11530412D01*
X12443753Y-11530412D02*
X12443753Y-11454222D01*
X12443753Y-11454222D02*
X12453277Y-11435174D01*
X12453277Y-11435174D02*
X12472325Y-11425650D01*
X12472325Y-11425650D02*
X12510420Y-11425650D01*
X12510420Y-11425650D02*
X12529468Y-11435174D01*
X12529468Y-11435174D02*
X12538991Y-11454222D01*
X12538991Y-11454222D02*
X12538991Y-11473269D01*
X12538991Y-11473269D02*
X12443753Y-11492317D01*
X12615182Y-11549460D02*
X12634230Y-11558984D01*
X12634230Y-11558984D02*
X12672325Y-11558984D01*
X12672325Y-11558984D02*
X12691372Y-11549460D01*
X12691372Y-11549460D02*
X12700896Y-11530412D01*
X12700896Y-11530412D02*
X12700896Y-11520888D01*
X12700896Y-11520888D02*
X12691372Y-11501841D01*
X12691372Y-11501841D02*
X12672325Y-11492317D01*
X12672325Y-11492317D02*
X12643753Y-11492317D01*
X12643753Y-11492317D02*
X12624706Y-11482793D01*
X12624706Y-11482793D02*
X12615182Y-11463746D01*
X12615182Y-11463746D02*
X12615182Y-11454222D01*
X12615182Y-11454222D02*
X12624706Y-11435174D01*
X12624706Y-11435174D02*
X12643753Y-11425650D01*
X12643753Y-11425650D02*
X12672325Y-11425650D01*
X12672325Y-11425650D02*
X12691372Y-11435174D01*
X12767563Y-11635174D02*
X12777087Y-11625650D01*
X12777087Y-11625650D02*
X12796134Y-11597079D01*
X12796134Y-11597079D02*
X12805658Y-11578031D01*
X12805658Y-11578031D02*
X12815182Y-11549460D01*
X12815182Y-11549460D02*
X12824706Y-11501841D01*
X12824706Y-11501841D02*
X12824706Y-11463746D01*
X12824706Y-11463746D02*
X12815182Y-11416127D01*
X12815182Y-11416127D02*
X12805658Y-11387555D01*
X12805658Y-11387555D02*
X12796134Y-11368508D01*
X12796134Y-11368508D02*
X12777087Y-11339936D01*
X12777087Y-11339936D02*
X12767563Y-11330412D01*
X7792500Y-11631500D02*
X7992500Y-11831500D01*
X7992500Y-11631500D02*
X7792500Y-11831500D01*
X7892500Y-11631500D02*
X7892500Y-11831500D01*
X7792500Y-11731500D02*
X7992500Y-11731500D01*
X8234229Y-11622984D02*
X8358039Y-11622984D01*
X8358039Y-11622984D02*
X8291372Y-11699174D01*
X8291372Y-11699174D02*
X8319943Y-11699174D01*
X8319943Y-11699174D02*
X8338991Y-11708698D01*
X8338991Y-11708698D02*
X8348515Y-11718222D01*
X8348515Y-11718222D02*
X8358039Y-11737269D01*
X8358039Y-11737269D02*
X8358039Y-11784888D01*
X8358039Y-11784888D02*
X8348515Y-11803936D01*
X8348515Y-11803936D02*
X8338991Y-11813460D01*
X8338991Y-11813460D02*
X8319943Y-11822984D01*
X8319943Y-11822984D02*
X8262801Y-11822984D01*
X8262801Y-11822984D02*
X8243753Y-11813460D01*
X8243753Y-11813460D02*
X8234229Y-11803936D01*
X8443753Y-11803936D02*
X8453277Y-11813460D01*
X8453277Y-11813460D02*
X8443753Y-11822984D01*
X8443753Y-11822984D02*
X8434229Y-11813460D01*
X8434229Y-11813460D02*
X8443753Y-11803936D01*
X8443753Y-11803936D02*
X8443753Y-11822984D01*
X8529467Y-11642031D02*
X8538991Y-11632508D01*
X8538991Y-11632508D02*
X8558039Y-11622984D01*
X8558039Y-11622984D02*
X8605658Y-11622984D01*
X8605658Y-11622984D02*
X8624705Y-11632508D01*
X8624705Y-11632508D02*
X8634229Y-11642031D01*
X8634229Y-11642031D02*
X8643753Y-11661079D01*
X8643753Y-11661079D02*
X8643753Y-11680127D01*
X8643753Y-11680127D02*
X8634229Y-11708698D01*
X8634229Y-11708698D02*
X8519944Y-11822984D01*
X8519944Y-11822984D02*
X8643753Y-11822984D01*
X8767563Y-11622984D02*
X8786610Y-11622984D01*
X8786610Y-11622984D02*
X8805658Y-11632508D01*
X8805658Y-11632508D02*
X8815182Y-11642031D01*
X8815182Y-11642031D02*
X8824705Y-11661079D01*
X8824705Y-11661079D02*
X8834229Y-11699174D01*
X8834229Y-11699174D02*
X8834229Y-11746793D01*
X8834229Y-11746793D02*
X8824705Y-11784888D01*
X8824705Y-11784888D02*
X8815182Y-11803936D01*
X8815182Y-11803936D02*
X8805658Y-11813460D01*
X8805658Y-11813460D02*
X8786610Y-11822984D01*
X8786610Y-11822984D02*
X8767563Y-11822984D01*
X8767563Y-11822984D02*
X8748515Y-11813460D01*
X8748515Y-11813460D02*
X8738991Y-11803936D01*
X8738991Y-11803936D02*
X8729467Y-11784888D01*
X8729467Y-11784888D02*
X8719944Y-11746793D01*
X8719944Y-11746793D02*
X8719944Y-11699174D01*
X8719944Y-11699174D02*
X8729467Y-11661079D01*
X8729467Y-11661079D02*
X8738991Y-11642031D01*
X8738991Y-11642031D02*
X8748515Y-11632508D01*
X8748515Y-11632508D02*
X8767563Y-11622984D01*
X8958039Y-11622984D02*
X8977086Y-11622984D01*
X8977086Y-11622984D02*
X8996134Y-11632508D01*
X8996134Y-11632508D02*
X9005658Y-11642031D01*
X9005658Y-11642031D02*
X9015182Y-11661079D01*
X9015182Y-11661079D02*
X9024705Y-11699174D01*
X9024705Y-11699174D02*
X9024705Y-11746793D01*
X9024705Y-11746793D02*
X9015182Y-11784888D01*
X9015182Y-11784888D02*
X9005658Y-11803936D01*
X9005658Y-11803936D02*
X8996134Y-11813460D01*
X8996134Y-11813460D02*
X8977086Y-11822984D01*
X8977086Y-11822984D02*
X8958039Y-11822984D01*
X8958039Y-11822984D02*
X8938991Y-11813460D01*
X8938991Y-11813460D02*
X8929467Y-11803936D01*
X8929467Y-11803936D02*
X8919944Y-11784888D01*
X8919944Y-11784888D02*
X8910420Y-11746793D01*
X8910420Y-11746793D02*
X8910420Y-11699174D01*
X8910420Y-11699174D02*
X8919944Y-11661079D01*
X8919944Y-11661079D02*
X8929467Y-11642031D01*
X8929467Y-11642031D02*
X8938991Y-11632508D01*
X8938991Y-11632508D02*
X8958039Y-11622984D01*
X9110420Y-11822984D02*
X9110420Y-11689650D01*
X9110420Y-11708698D02*
X9119944Y-11699174D01*
X9119944Y-11699174D02*
X9138991Y-11689650D01*
X9138991Y-11689650D02*
X9167563Y-11689650D01*
X9167563Y-11689650D02*
X9186610Y-11699174D01*
X9186610Y-11699174D02*
X9196134Y-11718222D01*
X9196134Y-11718222D02*
X9196134Y-11822984D01*
X9196134Y-11718222D02*
X9205658Y-11699174D01*
X9205658Y-11699174D02*
X9224705Y-11689650D01*
X9224705Y-11689650D02*
X9253277Y-11689650D01*
X9253277Y-11689650D02*
X9272325Y-11699174D01*
X9272325Y-11699174D02*
X9281848Y-11718222D01*
X9281848Y-11718222D02*
X9281848Y-11822984D01*
X9377086Y-11822984D02*
X9377086Y-11689650D01*
X9377086Y-11708698D02*
X9386610Y-11699174D01*
X9386610Y-11699174D02*
X9405658Y-11689650D01*
X9405658Y-11689650D02*
X9434229Y-11689650D01*
X9434229Y-11689650D02*
X9453277Y-11699174D01*
X9453277Y-11699174D02*
X9462801Y-11718222D01*
X9462801Y-11718222D02*
X9462801Y-11822984D01*
X9462801Y-11718222D02*
X9472325Y-11699174D01*
X9472325Y-11699174D02*
X9491372Y-11689650D01*
X9491372Y-11689650D02*
X9519944Y-11689650D01*
X9519944Y-11689650D02*
X9538991Y-11699174D01*
X9538991Y-11699174D02*
X9548515Y-11718222D01*
X9548515Y-11718222D02*
X9548515Y-11822984D01*
X9938991Y-11613460D02*
X9767563Y-11870603D01*
X10196134Y-11622984D02*
X10215182Y-11622984D01*
X10215182Y-11622984D02*
X10234229Y-11632508D01*
X10234229Y-11632508D02*
X10243753Y-11642031D01*
X10243753Y-11642031D02*
X10253277Y-11661079D01*
X10253277Y-11661079D02*
X10262801Y-11699174D01*
X10262801Y-11699174D02*
X10262801Y-11746793D01*
X10262801Y-11746793D02*
X10253277Y-11784888D01*
X10253277Y-11784888D02*
X10243753Y-11803936D01*
X10243753Y-11803936D02*
X10234229Y-11813460D01*
X10234229Y-11813460D02*
X10215182Y-11822984D01*
X10215182Y-11822984D02*
X10196134Y-11822984D01*
X10196134Y-11822984D02*
X10177087Y-11813460D01*
X10177087Y-11813460D02*
X10167563Y-11803936D01*
X10167563Y-11803936D02*
X10158039Y-11784888D01*
X10158039Y-11784888D02*
X10148515Y-11746793D01*
X10148515Y-11746793D02*
X10148515Y-11699174D01*
X10148515Y-11699174D02*
X10158039Y-11661079D01*
X10158039Y-11661079D02*
X10167563Y-11642031D01*
X10167563Y-11642031D02*
X10177087Y-11632508D01*
X10177087Y-11632508D02*
X10196134Y-11622984D01*
X10348515Y-11803936D02*
X10358039Y-11813460D01*
X10358039Y-11813460D02*
X10348515Y-11822984D01*
X10348515Y-11822984D02*
X10338991Y-11813460D01*
X10338991Y-11813460D02*
X10348515Y-11803936D01*
X10348515Y-11803936D02*
X10348515Y-11822984D01*
X10548515Y-11822984D02*
X10434229Y-11822984D01*
X10491372Y-11822984D02*
X10491372Y-11622984D01*
X10491372Y-11622984D02*
X10472325Y-11651555D01*
X10472325Y-11651555D02*
X10453277Y-11670603D01*
X10453277Y-11670603D02*
X10434229Y-11680127D01*
X10624706Y-11642031D02*
X10634229Y-11632508D01*
X10634229Y-11632508D02*
X10653277Y-11622984D01*
X10653277Y-11622984D02*
X10700896Y-11622984D01*
X10700896Y-11622984D02*
X10719944Y-11632508D01*
X10719944Y-11632508D02*
X10729468Y-11642031D01*
X10729468Y-11642031D02*
X10738991Y-11661079D01*
X10738991Y-11661079D02*
X10738991Y-11680127D01*
X10738991Y-11680127D02*
X10729468Y-11708698D01*
X10729468Y-11708698D02*
X10615182Y-11822984D01*
X10615182Y-11822984D02*
X10738991Y-11822984D01*
X10910420Y-11622984D02*
X10872325Y-11622984D01*
X10872325Y-11622984D02*
X10853277Y-11632508D01*
X10853277Y-11632508D02*
X10843753Y-11642031D01*
X10843753Y-11642031D02*
X10824706Y-11670603D01*
X10824706Y-11670603D02*
X10815182Y-11708698D01*
X10815182Y-11708698D02*
X10815182Y-11784888D01*
X10815182Y-11784888D02*
X10824706Y-11803936D01*
X10824706Y-11803936D02*
X10834229Y-11813460D01*
X10834229Y-11813460D02*
X10853277Y-11822984D01*
X10853277Y-11822984D02*
X10891372Y-11822984D01*
X10891372Y-11822984D02*
X10910420Y-11813460D01*
X10910420Y-11813460D02*
X10919944Y-11803936D01*
X10919944Y-11803936D02*
X10929468Y-11784888D01*
X10929468Y-11784888D02*
X10929468Y-11737269D01*
X10929468Y-11737269D02*
X10919944Y-11718222D01*
X10919944Y-11718222D02*
X10910420Y-11708698D01*
X10910420Y-11708698D02*
X10891372Y-11699174D01*
X10891372Y-11699174D02*
X10853277Y-11699174D01*
X10853277Y-11699174D02*
X10834229Y-11708698D01*
X10834229Y-11708698D02*
X10824706Y-11718222D01*
X10824706Y-11718222D02*
X10815182Y-11737269D01*
X11053277Y-11622984D02*
X11072325Y-11622984D01*
X11072325Y-11622984D02*
X11091372Y-11632508D01*
X11091372Y-11632508D02*
X11100896Y-11642031D01*
X11100896Y-11642031D02*
X11110420Y-11661079D01*
X11110420Y-11661079D02*
X11119944Y-11699174D01*
X11119944Y-11699174D02*
X11119944Y-11746793D01*
X11119944Y-11746793D02*
X11110420Y-11784888D01*
X11110420Y-11784888D02*
X11100896Y-11803936D01*
X11100896Y-11803936D02*
X11091372Y-11813460D01*
X11091372Y-11813460D02*
X11072325Y-11822984D01*
X11072325Y-11822984D02*
X11053277Y-11822984D01*
X11053277Y-11822984D02*
X11034229Y-11813460D01*
X11034229Y-11813460D02*
X11024706Y-11803936D01*
X11024706Y-11803936D02*
X11015182Y-11784888D01*
X11015182Y-11784888D02*
X11005658Y-11746793D01*
X11005658Y-11746793D02*
X11005658Y-11699174D01*
X11005658Y-11699174D02*
X11015182Y-11661079D01*
X11015182Y-11661079D02*
X11024706Y-11642031D01*
X11024706Y-11642031D02*
X11034229Y-11632508D01*
X11034229Y-11632508D02*
X11053277Y-11622984D01*
X11196134Y-11622984D02*
X11196134Y-11661079D01*
X11272325Y-11622984D02*
X11272325Y-11661079D01*
X11567563Y-11899174D02*
X11558039Y-11889650D01*
X11558039Y-11889650D02*
X11538991Y-11861079D01*
X11538991Y-11861079D02*
X11529468Y-11842031D01*
X11529468Y-11842031D02*
X11519944Y-11813460D01*
X11519944Y-11813460D02*
X11510420Y-11765841D01*
X11510420Y-11765841D02*
X11510420Y-11727746D01*
X11510420Y-11727746D02*
X11519944Y-11680127D01*
X11519944Y-11680127D02*
X11529468Y-11651555D01*
X11529468Y-11651555D02*
X11538991Y-11632508D01*
X11538991Y-11632508D02*
X11558039Y-11603936D01*
X11558039Y-11603936D02*
X11567563Y-11594412D01*
X11729468Y-11689650D02*
X11729468Y-11822984D01*
X11681848Y-11613460D02*
X11634229Y-11756317D01*
X11634229Y-11756317D02*
X11758039Y-11756317D01*
X11986610Y-11822984D02*
X11986610Y-11622984D01*
X12072325Y-11822984D02*
X12072325Y-11718222D01*
X12072325Y-11718222D02*
X12062801Y-11699174D01*
X12062801Y-11699174D02*
X12043753Y-11689650D01*
X12043753Y-11689650D02*
X12015182Y-11689650D01*
X12015182Y-11689650D02*
X11996134Y-11699174D01*
X11996134Y-11699174D02*
X11986610Y-11708698D01*
X12196134Y-11822984D02*
X12177087Y-11813460D01*
X12177087Y-11813460D02*
X12167563Y-11803936D01*
X12167563Y-11803936D02*
X12158039Y-11784888D01*
X12158039Y-11784888D02*
X12158039Y-11727746D01*
X12158039Y-11727746D02*
X12167563Y-11708698D01*
X12167563Y-11708698D02*
X12177087Y-11699174D01*
X12177087Y-11699174D02*
X12196134Y-11689650D01*
X12196134Y-11689650D02*
X12224706Y-11689650D01*
X12224706Y-11689650D02*
X12243753Y-11699174D01*
X12243753Y-11699174D02*
X12253277Y-11708698D01*
X12253277Y-11708698D02*
X12262801Y-11727746D01*
X12262801Y-11727746D02*
X12262801Y-11784888D01*
X12262801Y-11784888D02*
X12253277Y-11803936D01*
X12253277Y-11803936D02*
X12243753Y-11813460D01*
X12243753Y-11813460D02*
X12224706Y-11822984D01*
X12224706Y-11822984D02*
X12196134Y-11822984D01*
X12377087Y-11822984D02*
X12358039Y-11813460D01*
X12358039Y-11813460D02*
X12348515Y-11794412D01*
X12348515Y-11794412D02*
X12348515Y-11622984D01*
X12529468Y-11813460D02*
X12510420Y-11822984D01*
X12510420Y-11822984D02*
X12472325Y-11822984D01*
X12472325Y-11822984D02*
X12453277Y-11813460D01*
X12453277Y-11813460D02*
X12443753Y-11794412D01*
X12443753Y-11794412D02*
X12443753Y-11718222D01*
X12443753Y-11718222D02*
X12453277Y-11699174D01*
X12453277Y-11699174D02*
X12472325Y-11689650D01*
X12472325Y-11689650D02*
X12510420Y-11689650D01*
X12510420Y-11689650D02*
X12529468Y-11699174D01*
X12529468Y-11699174D02*
X12538991Y-11718222D01*
X12538991Y-11718222D02*
X12538991Y-11737269D01*
X12538991Y-11737269D02*
X12443753Y-11756317D01*
X12615182Y-11813460D02*
X12634230Y-11822984D01*
X12634230Y-11822984D02*
X12672325Y-11822984D01*
X12672325Y-11822984D02*
X12691372Y-11813460D01*
X12691372Y-11813460D02*
X12700896Y-11794412D01*
X12700896Y-11794412D02*
X12700896Y-11784888D01*
X12700896Y-11784888D02*
X12691372Y-11765841D01*
X12691372Y-11765841D02*
X12672325Y-11756317D01*
X12672325Y-11756317D02*
X12643753Y-11756317D01*
X12643753Y-11756317D02*
X12624706Y-11746793D01*
X12624706Y-11746793D02*
X12615182Y-11727746D01*
X12615182Y-11727746D02*
X12615182Y-11718222D01*
X12615182Y-11718222D02*
X12624706Y-11699174D01*
X12624706Y-11699174D02*
X12643753Y-11689650D01*
X12643753Y-11689650D02*
X12672325Y-11689650D01*
X12672325Y-11689650D02*
X12691372Y-11699174D01*
X12767563Y-11899174D02*
X12777087Y-11889650D01*
X12777087Y-11889650D02*
X12796134Y-11861079D01*
X12796134Y-11861079D02*
X12805658Y-11842031D01*
X12805658Y-11842031D02*
X12815182Y-11813460D01*
X12815182Y-11813460D02*
X12824706Y-11765841D01*
X12824706Y-11765841D02*
X12824706Y-11727746D01*
X12824706Y-11727746D02*
X12815182Y-11680127D01*
X12815182Y-11680127D02*
X12805658Y-11651555D01*
X12805658Y-11651555D02*
X12796134Y-11632508D01*
X12796134Y-11632508D02*
X12777087Y-11603936D01*
X12777087Y-11603936D02*
X12767563Y-11594412D01*
M02*
