G04 #@! TF.GenerationSoftware,KiCad,Pcbnew,(5.0.2)-1*
G04 #@! TF.CreationDate,2019-03-14T17:14:39+01:00*
G04 #@! TF.ProjectId,ocxo,6f63786f-2e6b-4696-9361-645f70636258,rev?*
G04 #@! TF.SameCoordinates,Original*
G04 #@! TF.FileFunction,Copper,L1,Top*
G04 #@! TF.FilePolarity,Positive*
%FSLAX46Y46*%
G04 Gerber Fmt 4.6, Leading zero omitted, Abs format (unit mm)*
G04 Created by KiCad (PCBNEW (5.0.2)-1) date 14/03/2019 17:14:39*
%MOMM*%
%LPD*%
G01*
G04 APERTURE LIST*
G04 #@! TA.AperFunction,NonConductor*
%ADD10C,0.150000*%
G04 #@! TD*
G04 #@! TA.AperFunction,ViaPad*
%ADD11C,0.600000*%
G04 #@! TD*
G04 #@! TA.AperFunction,ComponentPad*
%ADD12R,2.600000X2.000000*%
G04 #@! TD*
G04 #@! TA.AperFunction,ComponentPad*
%ADD13O,2.600000X2.000000*%
G04 #@! TD*
G04 #@! TA.AperFunction,ComponentPad*
%ADD14C,5.500000*%
G04 #@! TD*
G04 #@! TA.AperFunction,ComponentPad*
%ADD15C,1.998980*%
G04 #@! TD*
G04 #@! TA.AperFunction,ComponentPad*
%ADD16C,2.499360*%
G04 #@! TD*
G04 #@! TA.AperFunction,SMDPad,CuDef*
%ADD17R,1.400000X4.000000*%
G04 #@! TD*
G04 #@! TA.AperFunction,SMDPad,CuDef*
%ADD18R,1.500000X4.000000*%
G04 #@! TD*
G04 #@! TA.AperFunction,ComponentPad*
%ADD19C,2.500000*%
G04 #@! TD*
G04 #@! TA.AperFunction,ComponentPad*
%ADD20C,1.800000*%
G04 #@! TD*
G04 #@! TA.AperFunction,ComponentPad*
%ADD21C,1.440000*%
G04 #@! TD*
G04 #@! TA.AperFunction,Conductor*
%ADD22C,0.250000*%
G04 #@! TD*
G04 #@! TA.AperFunction,Conductor*
%ADD23C,1.000000*%
G04 #@! TD*
G04 #@! TA.AperFunction,Conductor*
%ADD24C,1.500000*%
G04 #@! TD*
G04 #@! TA.AperFunction,Conductor*
%ADD25C,2.000000*%
G04 #@! TD*
G04 #@! TA.AperFunction,Conductor*
%ADD26C,0.254000*%
G04 #@! TD*
G04 APERTURE END LIST*
D10*
X80000000Y-95000000D02*
X80000000Y-45000000D01*
X130000000Y-95000000D02*
X80000000Y-95000000D01*
X130000000Y-45000000D02*
X130000000Y-95000000D01*
X80000000Y-45000000D02*
X130000000Y-45000000D01*
D11*
G04 #@! TO.N,GND*
G04 #@! TO.C,REF\002A\002A*
X129000000Y-87000000D03*
G04 #@! TD*
G04 #@! TO.N,GND*
G04 #@! TO.C,REF\002A\002A*
X128000000Y-87000000D03*
G04 #@! TD*
G04 #@! TO.N,GND*
G04 #@! TO.C,REF\002A\002A*
X129000000Y-86000000D03*
G04 #@! TD*
G04 #@! TO.N,GND*
G04 #@! TO.C,REF\002A\002A*
X128000000Y-86000000D03*
G04 #@! TD*
G04 #@! TO.N,GND*
G04 #@! TO.C,REF\002A\002A*
X129000000Y-85000000D03*
G04 #@! TD*
G04 #@! TO.N,GND*
G04 #@! TO.C,REF\002A\002A*
X128000000Y-85000000D03*
G04 #@! TD*
G04 #@! TO.N,GND*
G04 #@! TO.C,REF\002A\002A*
X129000000Y-84000000D03*
G04 #@! TD*
G04 #@! TO.N,GND*
G04 #@! TO.C,REF\002A\002A*
X128000000Y-84000000D03*
G04 #@! TD*
G04 #@! TO.N,GND*
G04 #@! TO.C,REF\002A\002A*
X129000000Y-83000000D03*
G04 #@! TD*
G04 #@! TO.N,GND*
G04 #@! TO.C,REF\002A\002A*
X128000000Y-83000000D03*
G04 #@! TD*
G04 #@! TO.N,GND*
G04 #@! TO.C,REF\002A\002A*
X129000000Y-82000000D03*
G04 #@! TD*
G04 #@! TO.N,GND*
G04 #@! TO.C,REF\002A\002A*
X128000000Y-82000000D03*
G04 #@! TD*
G04 #@! TO.N,GND*
G04 #@! TO.C,REF\002A\002A*
X129000000Y-81000000D03*
G04 #@! TD*
G04 #@! TO.N,GND*
G04 #@! TO.C,REF\002A\002A*
X128000000Y-81000000D03*
G04 #@! TD*
G04 #@! TO.N,GND*
G04 #@! TO.C,REF\002A\002A*
X129000000Y-80000000D03*
G04 #@! TD*
G04 #@! TO.N,GND*
G04 #@! TO.C,REF\002A\002A*
X128000000Y-80000000D03*
G04 #@! TD*
G04 #@! TO.N,GND*
G04 #@! TO.C,REF\002A\002A*
X129000000Y-79000000D03*
G04 #@! TD*
G04 #@! TO.N,GND*
G04 #@! TO.C,REF\002A\002A*
X128000000Y-79000000D03*
G04 #@! TD*
G04 #@! TO.N,GND*
G04 #@! TO.C,REF\002A\002A*
X129000000Y-78000000D03*
G04 #@! TD*
G04 #@! TO.N,GND*
G04 #@! TO.C,REF\002A\002A*
X128000000Y-78000000D03*
G04 #@! TD*
G04 #@! TO.N,GND*
G04 #@! TO.C,REF\002A\002A*
X129000000Y-77000000D03*
G04 #@! TD*
G04 #@! TO.N,GND*
G04 #@! TO.C,REF\002A\002A*
X128000000Y-77000000D03*
G04 #@! TD*
G04 #@! TO.N,GND*
G04 #@! TO.C,REF\002A\002A*
X129000000Y-76000000D03*
G04 #@! TD*
G04 #@! TO.N,GND*
G04 #@! TO.C,REF\002A\002A*
X128000000Y-76000000D03*
G04 #@! TD*
G04 #@! TO.N,GND*
G04 #@! TO.C,REF\002A\002A*
X129000000Y-75000000D03*
G04 #@! TD*
G04 #@! TO.N,GND*
G04 #@! TO.C,REF\002A\002A*
X128000000Y-75000000D03*
G04 #@! TD*
G04 #@! TO.N,GND*
G04 #@! TO.C,REF\002A\002A*
X129000000Y-74000000D03*
G04 #@! TD*
G04 #@! TO.N,GND*
G04 #@! TO.C,REF\002A\002A*
X128000000Y-74000000D03*
G04 #@! TD*
G04 #@! TO.N,GND*
G04 #@! TO.C,REF\002A\002A*
X129000000Y-73000000D03*
G04 #@! TD*
G04 #@! TO.N,GND*
G04 #@! TO.C,REF\002A\002A*
X128000000Y-73000000D03*
G04 #@! TD*
G04 #@! TO.N,GND*
G04 #@! TO.C,REF\002A\002A*
X129000000Y-72000000D03*
G04 #@! TD*
G04 #@! TO.N,GND*
G04 #@! TO.C,REF\002A\002A*
X128000000Y-72000000D03*
G04 #@! TD*
G04 #@! TO.N,GND*
G04 #@! TO.C,REF\002A\002A*
X129000000Y-71000000D03*
G04 #@! TD*
G04 #@! TO.N,GND*
G04 #@! TO.C,REF\002A\002A*
X128000000Y-71000000D03*
G04 #@! TD*
G04 #@! TO.N,GND*
G04 #@! TO.C,REF\002A\002A*
X129000000Y-70000000D03*
G04 #@! TD*
G04 #@! TO.N,GND*
G04 #@! TO.C,REF\002A\002A*
X128000000Y-70000000D03*
G04 #@! TD*
G04 #@! TO.N,GND*
G04 #@! TO.C,REF\002A\002A*
X129000000Y-69000000D03*
G04 #@! TD*
G04 #@! TO.N,GND*
G04 #@! TO.C,REF\002A\002A*
X128000000Y-69000000D03*
G04 #@! TD*
G04 #@! TO.N,GND*
G04 #@! TO.C,REF\002A\002A*
X129000000Y-68000000D03*
G04 #@! TD*
G04 #@! TO.N,GND*
G04 #@! TO.C,REF\002A\002A*
X128000000Y-68000000D03*
G04 #@! TD*
G04 #@! TO.N,GND*
G04 #@! TO.C,REF\002A\002A*
X129000000Y-67000000D03*
G04 #@! TD*
G04 #@! TO.N,GND*
G04 #@! TO.C,REF\002A\002A*
X128000000Y-67000000D03*
G04 #@! TD*
G04 #@! TO.N,GND*
G04 #@! TO.C,REF\002A\002A*
X129000000Y-66000000D03*
G04 #@! TD*
G04 #@! TO.N,GND*
G04 #@! TO.C,REF\002A\002A*
X128000000Y-66000000D03*
G04 #@! TD*
G04 #@! TO.N,GND*
G04 #@! TO.C,REF\002A\002A*
X129000000Y-65000000D03*
G04 #@! TD*
G04 #@! TO.N,GND*
G04 #@! TO.C,REF\002A\002A*
X128000000Y-65000000D03*
G04 #@! TD*
G04 #@! TO.N,GND*
G04 #@! TO.C,REF\002A\002A*
X129000000Y-64000000D03*
G04 #@! TD*
G04 #@! TO.N,GND*
G04 #@! TO.C,REF\002A\002A*
X128000000Y-64000000D03*
G04 #@! TD*
G04 #@! TO.N,GND*
G04 #@! TO.C,REF\002A\002A*
X129000000Y-63000000D03*
G04 #@! TD*
G04 #@! TO.N,GND*
G04 #@! TO.C,REF\002A\002A*
X128000000Y-63000000D03*
G04 #@! TD*
G04 #@! TO.N,GND*
G04 #@! TO.C,REF\002A\002A*
X129000000Y-62000000D03*
G04 #@! TD*
G04 #@! TO.N,GND*
G04 #@! TO.C,REF\002A\002A*
X128000000Y-62000000D03*
G04 #@! TD*
G04 #@! TO.N,GND*
G04 #@! TO.C,REF\002A\002A*
X129000000Y-61000000D03*
G04 #@! TD*
G04 #@! TO.N,GND*
G04 #@! TO.C,REF\002A\002A*
X128000000Y-61000000D03*
G04 #@! TD*
G04 #@! TO.N,GND*
G04 #@! TO.C,REF\002A\002A*
X129000000Y-60000000D03*
G04 #@! TD*
G04 #@! TO.N,GND*
G04 #@! TO.C,REF\002A\002A*
X128000000Y-60000000D03*
G04 #@! TD*
G04 #@! TO.N,GND*
G04 #@! TO.C,REF\002A\002A*
X129000000Y-59000000D03*
G04 #@! TD*
G04 #@! TO.N,GND*
G04 #@! TO.C,REF\002A\002A*
X128000000Y-59000000D03*
G04 #@! TD*
G04 #@! TO.N,GND*
G04 #@! TO.C,REF\002A\002A*
X129000000Y-58000000D03*
G04 #@! TD*
G04 #@! TO.N,GND*
G04 #@! TO.C,REF\002A\002A*
X128000000Y-58000000D03*
G04 #@! TD*
G04 #@! TO.N,GND*
G04 #@! TO.C,REF\002A\002A*
X129000000Y-57000000D03*
G04 #@! TD*
G04 #@! TO.N,GND*
G04 #@! TO.C,REF\002A\002A*
X128000000Y-57000000D03*
G04 #@! TD*
G04 #@! TO.N,GND*
G04 #@! TO.C,REF\002A\002A*
X129000000Y-56000000D03*
G04 #@! TD*
G04 #@! TO.N,GND*
G04 #@! TO.C,REF\002A\002A*
X128000000Y-56000000D03*
G04 #@! TD*
G04 #@! TO.N,GND*
G04 #@! TO.C,REF\002A\002A*
X129000000Y-55000000D03*
G04 #@! TD*
G04 #@! TO.N,GND*
G04 #@! TO.C,REF\002A\002A*
X128000000Y-55000000D03*
G04 #@! TD*
G04 #@! TO.N,GND*
G04 #@! TO.C,REF\002A\002A*
X129000000Y-54000000D03*
G04 #@! TD*
G04 #@! TO.N,GND*
G04 #@! TO.C,REF\002A\002A*
X128000000Y-54000000D03*
G04 #@! TD*
G04 #@! TO.N,GND*
G04 #@! TO.C,REF\002A\002A*
X129000000Y-53000000D03*
G04 #@! TD*
G04 #@! TO.N,GND*
G04 #@! TO.C,REF\002A\002A*
X128000000Y-53000000D03*
G04 #@! TD*
G04 #@! TO.N,GND*
G04 #@! TO.C,REF\002A\002A*
X122000000Y-48000000D03*
G04 #@! TD*
G04 #@! TO.N,GND*
G04 #@! TO.C,REF\002A\002A*
X121000000Y-48000000D03*
G04 #@! TD*
G04 #@! TO.N,GND*
G04 #@! TO.C,REF\002A\002A*
X120000000Y-48000000D03*
G04 #@! TD*
G04 #@! TO.N,GND*
G04 #@! TO.C,REF\002A\002A*
X119000000Y-48000000D03*
G04 #@! TD*
G04 #@! TO.N,GND*
G04 #@! TO.C,REF\002A\002A*
X118000000Y-48000000D03*
G04 #@! TD*
G04 #@! TO.N,GND*
G04 #@! TO.C,REF\002A\002A*
X117000000Y-48000000D03*
G04 #@! TD*
G04 #@! TO.N,GND*
G04 #@! TO.C,REF\002A\002A*
X116000000Y-48000000D03*
G04 #@! TD*
G04 #@! TO.N,GND*
G04 #@! TO.C,REF\002A\002A*
X115000000Y-48000000D03*
G04 #@! TD*
G04 #@! TO.N,GND*
G04 #@! TO.C,REF\002A\002A*
X114000000Y-48000000D03*
G04 #@! TD*
G04 #@! TO.N,GND*
G04 #@! TO.C,REF\002A\002A*
X113000000Y-48000000D03*
G04 #@! TD*
G04 #@! TO.N,GND*
G04 #@! TO.C,REF\002A\002A*
X112000000Y-48000000D03*
G04 #@! TD*
G04 #@! TO.N,GND*
G04 #@! TO.C,REF\002A\002A*
X111000000Y-48000000D03*
G04 #@! TD*
G04 #@! TO.N,GND*
G04 #@! TO.C,REF\002A\002A*
X110000000Y-48000000D03*
G04 #@! TD*
G04 #@! TO.N,GND*
G04 #@! TO.C,REF\002A\002A*
X109000000Y-48000000D03*
G04 #@! TD*
G04 #@! TO.N,GND*
G04 #@! TO.C,REF\002A\002A*
X108000000Y-48000000D03*
G04 #@! TD*
G04 #@! TO.N,GND*
G04 #@! TO.C,REF\002A\002A*
X107000000Y-48000000D03*
G04 #@! TD*
G04 #@! TO.N,GND*
G04 #@! TO.C,REF\002A\002A*
X106000000Y-48000000D03*
G04 #@! TD*
G04 #@! TO.N,GND*
G04 #@! TO.C,REF\002A\002A*
X105000000Y-48000000D03*
G04 #@! TD*
G04 #@! TO.N,GND*
G04 #@! TO.C,REF\002A\002A*
X104000000Y-48000000D03*
G04 #@! TD*
G04 #@! TO.N,GND*
G04 #@! TO.C,REF\002A\002A*
X103000000Y-48000000D03*
G04 #@! TD*
G04 #@! TO.N,GND*
G04 #@! TO.C,REF\002A\002A*
X102000000Y-48000000D03*
G04 #@! TD*
G04 #@! TO.N,GND*
G04 #@! TO.C,REF\002A\002A*
X101000000Y-48000000D03*
G04 #@! TD*
G04 #@! TO.N,GND*
G04 #@! TO.C,REF\002A\002A*
X100000000Y-48000000D03*
G04 #@! TD*
G04 #@! TO.N,GND*
G04 #@! TO.C,REF\002A\002A*
X99000000Y-48000000D03*
G04 #@! TD*
G04 #@! TO.N,GND*
G04 #@! TO.C,REF\002A\002A*
X98000000Y-48000000D03*
G04 #@! TD*
G04 #@! TO.N,GND*
G04 #@! TO.C,REF\002A\002A*
X97000000Y-48000000D03*
G04 #@! TD*
G04 #@! TO.N,GND*
G04 #@! TO.C,REF\002A\002A*
X96000000Y-48000000D03*
G04 #@! TD*
G04 #@! TO.N,GND*
G04 #@! TO.C,REF\002A\002A*
X95000000Y-48000000D03*
G04 #@! TD*
G04 #@! TO.N,GND*
G04 #@! TO.C,REF\002A\002A*
X94000000Y-48000000D03*
G04 #@! TD*
G04 #@! TO.N,GND*
G04 #@! TO.C,REF\002A\002A*
X93000000Y-48000000D03*
G04 #@! TD*
G04 #@! TO.N,GND*
G04 #@! TO.C,REF\002A\002A*
X92000000Y-48000000D03*
G04 #@! TD*
G04 #@! TO.N,GND*
G04 #@! TO.C,REF\002A\002A*
X91000000Y-48000000D03*
G04 #@! TD*
G04 #@! TO.N,GND*
G04 #@! TO.C,REF\002A\002A*
X90000000Y-48000000D03*
G04 #@! TD*
G04 #@! TO.N,GND*
G04 #@! TO.C,REF\002A\002A*
X89000000Y-48000000D03*
G04 #@! TD*
G04 #@! TO.N,GND*
G04 #@! TO.C,REF\002A\002A*
X88000000Y-48000000D03*
G04 #@! TD*
G04 #@! TO.N,GND*
G04 #@! TO.C,REF\002A\002A*
X122000000Y-47000000D03*
G04 #@! TD*
G04 #@! TO.N,GND*
G04 #@! TO.C,REF\002A\002A*
X121000000Y-47000000D03*
G04 #@! TD*
G04 #@! TO.N,GND*
G04 #@! TO.C,REF\002A\002A*
X120000000Y-47000000D03*
G04 #@! TD*
G04 #@! TO.N,GND*
G04 #@! TO.C,REF\002A\002A*
X119000000Y-47000000D03*
G04 #@! TD*
G04 #@! TO.N,GND*
G04 #@! TO.C,REF\002A\002A*
X118000000Y-47000000D03*
G04 #@! TD*
G04 #@! TO.N,GND*
G04 #@! TO.C,REF\002A\002A*
X117000000Y-47000000D03*
G04 #@! TD*
G04 #@! TO.N,GND*
G04 #@! TO.C,REF\002A\002A*
X116000000Y-47000000D03*
G04 #@! TD*
G04 #@! TO.N,GND*
G04 #@! TO.C,REF\002A\002A*
X115000000Y-47000000D03*
G04 #@! TD*
G04 #@! TO.N,GND*
G04 #@! TO.C,REF\002A\002A*
X114000000Y-47000000D03*
G04 #@! TD*
G04 #@! TO.N,GND*
G04 #@! TO.C,REF\002A\002A*
X113000000Y-47000000D03*
G04 #@! TD*
G04 #@! TO.N,GND*
G04 #@! TO.C,REF\002A\002A*
X112000000Y-47000000D03*
G04 #@! TD*
G04 #@! TO.N,GND*
G04 #@! TO.C,REF\002A\002A*
X111000000Y-47000000D03*
G04 #@! TD*
G04 #@! TO.N,GND*
G04 #@! TO.C,REF\002A\002A*
X110000000Y-47000000D03*
G04 #@! TD*
G04 #@! TO.N,GND*
G04 #@! TO.C,REF\002A\002A*
X109000000Y-47000000D03*
G04 #@! TD*
G04 #@! TO.N,GND*
G04 #@! TO.C,REF\002A\002A*
X108000000Y-47000000D03*
G04 #@! TD*
G04 #@! TO.N,GND*
G04 #@! TO.C,REF\002A\002A*
X107000000Y-47000000D03*
G04 #@! TD*
G04 #@! TO.N,GND*
G04 #@! TO.C,REF\002A\002A*
X106000000Y-47000000D03*
G04 #@! TD*
G04 #@! TO.N,GND*
G04 #@! TO.C,REF\002A\002A*
X105000000Y-47000000D03*
G04 #@! TD*
G04 #@! TO.N,GND*
G04 #@! TO.C,REF\002A\002A*
X104000000Y-47000000D03*
G04 #@! TD*
G04 #@! TO.N,GND*
G04 #@! TO.C,REF\002A\002A*
X103000000Y-47000000D03*
G04 #@! TD*
G04 #@! TO.N,GND*
G04 #@! TO.C,REF\002A\002A*
X102000000Y-47000000D03*
G04 #@! TD*
G04 #@! TO.N,GND*
G04 #@! TO.C,REF\002A\002A*
X101000000Y-47000000D03*
G04 #@! TD*
G04 #@! TO.N,GND*
G04 #@! TO.C,REF\002A\002A*
X100000000Y-47000000D03*
G04 #@! TD*
G04 #@! TO.N,GND*
G04 #@! TO.C,REF\002A\002A*
X99000000Y-47000000D03*
G04 #@! TD*
G04 #@! TO.N,GND*
G04 #@! TO.C,REF\002A\002A*
X98000000Y-47000000D03*
G04 #@! TD*
G04 #@! TO.N,GND*
G04 #@! TO.C,REF\002A\002A*
X97000000Y-47000000D03*
G04 #@! TD*
G04 #@! TO.N,GND*
G04 #@! TO.C,REF\002A\002A*
X96000000Y-47000000D03*
G04 #@! TD*
G04 #@! TO.N,GND*
G04 #@! TO.C,REF\002A\002A*
X95000000Y-47000000D03*
G04 #@! TD*
G04 #@! TO.N,GND*
G04 #@! TO.C,REF\002A\002A*
X94000000Y-47000000D03*
G04 #@! TD*
G04 #@! TO.N,GND*
G04 #@! TO.C,REF\002A\002A*
X93000000Y-47000000D03*
G04 #@! TD*
G04 #@! TO.N,GND*
G04 #@! TO.C,REF\002A\002A*
X92000000Y-47000000D03*
G04 #@! TD*
G04 #@! TO.N,GND*
G04 #@! TO.C,REF\002A\002A*
X91000000Y-47000000D03*
G04 #@! TD*
G04 #@! TO.N,GND*
G04 #@! TO.C,REF\002A\002A*
X90000000Y-47000000D03*
G04 #@! TD*
G04 #@! TO.N,GND*
G04 #@! TO.C,REF\002A\002A*
X89000000Y-47000000D03*
G04 #@! TD*
G04 #@! TO.N,GND*
G04 #@! TO.C,REF\002A\002A*
X88000000Y-47000000D03*
G04 #@! TD*
G04 #@! TO.N,GND*
G04 #@! TO.C,REF\002A\002A*
X122000000Y-46000000D03*
G04 #@! TD*
G04 #@! TO.N,GND*
G04 #@! TO.C,REF\002A\002A*
X121000000Y-46000000D03*
G04 #@! TD*
G04 #@! TO.N,GND*
G04 #@! TO.C,REF\002A\002A*
X120000000Y-46000000D03*
G04 #@! TD*
G04 #@! TO.N,GND*
G04 #@! TO.C,REF\002A\002A*
X119000000Y-46000000D03*
G04 #@! TD*
G04 #@! TO.N,GND*
G04 #@! TO.C,REF\002A\002A*
X118000000Y-46000000D03*
G04 #@! TD*
G04 #@! TO.N,GND*
G04 #@! TO.C,REF\002A\002A*
X117000000Y-46000000D03*
G04 #@! TD*
G04 #@! TO.N,GND*
G04 #@! TO.C,REF\002A\002A*
X116000000Y-46000000D03*
G04 #@! TD*
G04 #@! TO.N,GND*
G04 #@! TO.C,REF\002A\002A*
X115000000Y-46000000D03*
G04 #@! TD*
G04 #@! TO.N,GND*
G04 #@! TO.C,REF\002A\002A*
X114000000Y-46000000D03*
G04 #@! TD*
G04 #@! TO.N,GND*
G04 #@! TO.C,REF\002A\002A*
X113000000Y-46000000D03*
G04 #@! TD*
G04 #@! TO.N,GND*
G04 #@! TO.C,REF\002A\002A*
X112000000Y-46000000D03*
G04 #@! TD*
G04 #@! TO.N,GND*
G04 #@! TO.C,REF\002A\002A*
X111000000Y-46000000D03*
G04 #@! TD*
G04 #@! TO.N,GND*
G04 #@! TO.C,REF\002A\002A*
X110000000Y-46000000D03*
G04 #@! TD*
G04 #@! TO.N,GND*
G04 #@! TO.C,REF\002A\002A*
X109000000Y-46000000D03*
G04 #@! TD*
G04 #@! TO.N,GND*
G04 #@! TO.C,REF\002A\002A*
X108000000Y-46000000D03*
G04 #@! TD*
G04 #@! TO.N,GND*
G04 #@! TO.C,REF\002A\002A*
X107000000Y-46000000D03*
G04 #@! TD*
G04 #@! TO.N,GND*
G04 #@! TO.C,REF\002A\002A*
X106000000Y-46000000D03*
G04 #@! TD*
G04 #@! TO.N,GND*
G04 #@! TO.C,REF\002A\002A*
X105000000Y-46000000D03*
G04 #@! TD*
G04 #@! TO.N,GND*
G04 #@! TO.C,REF\002A\002A*
X104000000Y-46000000D03*
G04 #@! TD*
G04 #@! TO.N,GND*
G04 #@! TO.C,REF\002A\002A*
X103000000Y-46000000D03*
G04 #@! TD*
G04 #@! TO.N,GND*
G04 #@! TO.C,REF\002A\002A*
X102000000Y-46000000D03*
G04 #@! TD*
G04 #@! TO.N,GND*
G04 #@! TO.C,REF\002A\002A*
X101000000Y-46000000D03*
G04 #@! TD*
G04 #@! TO.N,GND*
G04 #@! TO.C,REF\002A\002A*
X100000000Y-46000000D03*
G04 #@! TD*
G04 #@! TO.N,GND*
G04 #@! TO.C,REF\002A\002A*
X99000000Y-46000000D03*
G04 #@! TD*
G04 #@! TO.N,GND*
G04 #@! TO.C,REF\002A\002A*
X98000000Y-46000000D03*
G04 #@! TD*
G04 #@! TO.N,GND*
G04 #@! TO.C,REF\002A\002A*
X97000000Y-46000000D03*
G04 #@! TD*
G04 #@! TO.N,GND*
G04 #@! TO.C,REF\002A\002A*
X96000000Y-46000000D03*
G04 #@! TD*
G04 #@! TO.N,GND*
G04 #@! TO.C,REF\002A\002A*
X95000000Y-46000000D03*
G04 #@! TD*
G04 #@! TO.N,GND*
G04 #@! TO.C,REF\002A\002A*
X94000000Y-46000000D03*
G04 #@! TD*
G04 #@! TO.N,GND*
G04 #@! TO.C,REF\002A\002A*
X93000000Y-46000000D03*
G04 #@! TD*
G04 #@! TO.N,GND*
G04 #@! TO.C,REF\002A\002A*
X92000000Y-46000000D03*
G04 #@! TD*
G04 #@! TO.N,GND*
G04 #@! TO.C,REF\002A\002A*
X91000000Y-46000000D03*
G04 #@! TD*
G04 #@! TO.N,GND*
G04 #@! TO.C,REF\002A\002A*
X90000000Y-46000000D03*
G04 #@! TD*
G04 #@! TO.N,GND*
G04 #@! TO.C,REF\002A\002A*
X89000000Y-46000000D03*
G04 #@! TD*
G04 #@! TO.N,GND*
G04 #@! TO.C,REF\002A\002A*
X88000000Y-46000000D03*
G04 #@! TD*
G04 #@! TO.N,GND*
G04 #@! TO.C,REF\002A\002A*
X128000000Y-87000000D03*
G04 #@! TD*
G04 #@! TO.N,GND*
G04 #@! TO.C,REF\002A\002A*
X127000000Y-87000000D03*
G04 #@! TD*
G04 #@! TO.N,GND*
G04 #@! TO.C,REF\002A\002A*
X126000000Y-87000000D03*
G04 #@! TD*
G04 #@! TO.N,GND*
G04 #@! TO.C,REF\002A\002A*
X125000000Y-87000000D03*
G04 #@! TD*
G04 #@! TO.N,GND*
G04 #@! TO.C,REF\002A\002A*
X124000000Y-87000000D03*
G04 #@! TD*
G04 #@! TO.N,GND*
G04 #@! TO.C,REF\002A\002A*
X123000000Y-87000000D03*
G04 #@! TD*
G04 #@! TO.N,GND*
G04 #@! TO.C,REF\002A\002A*
X122000000Y-87000000D03*
G04 #@! TD*
G04 #@! TO.N,GND*
G04 #@! TO.C,REF\002A\002A*
X128000000Y-86000000D03*
G04 #@! TD*
G04 #@! TO.N,GND*
G04 #@! TO.C,REF\002A\002A*
X127000000Y-86000000D03*
G04 #@! TD*
G04 #@! TO.N,GND*
G04 #@! TO.C,REF\002A\002A*
X126000000Y-86000000D03*
G04 #@! TD*
G04 #@! TO.N,GND*
G04 #@! TO.C,REF\002A\002A*
X125000000Y-86000000D03*
G04 #@! TD*
G04 #@! TO.N,GND*
G04 #@! TO.C,REF\002A\002A*
X124000000Y-86000000D03*
G04 #@! TD*
G04 #@! TO.N,GND*
G04 #@! TO.C,REF\002A\002A*
X123000000Y-86000000D03*
G04 #@! TD*
G04 #@! TO.N,GND*
G04 #@! TO.C,REF\002A\002A*
X122000000Y-86000000D03*
G04 #@! TD*
G04 #@! TO.N,GND*
G04 #@! TO.C,REF\002A\002A*
X128000000Y-85000000D03*
G04 #@! TD*
G04 #@! TO.N,GND*
G04 #@! TO.C,REF\002A\002A*
X123000000Y-85000000D03*
G04 #@! TD*
G04 #@! TO.N,GND*
G04 #@! TO.C,REF\002A\002A*
X122000000Y-85000000D03*
G04 #@! TD*
G04 #@! TO.N,GND*
G04 #@! TO.C,REF\002A\002A*
X128000000Y-84000000D03*
G04 #@! TD*
G04 #@! TO.N,GND*
G04 #@! TO.C,REF\002A\002A*
X123000000Y-84000000D03*
G04 #@! TD*
G04 #@! TO.N,GND*
G04 #@! TO.C,REF\002A\002A*
X122000000Y-84000000D03*
G04 #@! TD*
G04 #@! TO.N,GND*
G04 #@! TO.C,REF\002A\002A*
X128000000Y-83000000D03*
G04 #@! TD*
G04 #@! TO.N,GND*
G04 #@! TO.C,REF\002A\002A*
X123000000Y-83000000D03*
G04 #@! TD*
G04 #@! TO.N,GND*
G04 #@! TO.C,REF\002A\002A*
X122000000Y-83000000D03*
G04 #@! TD*
G04 #@! TO.N,GND*
G04 #@! TO.C,REF\002A\002A*
X128000000Y-82000000D03*
G04 #@! TD*
G04 #@! TO.N,GND*
G04 #@! TO.C,REF\002A\002A*
X123000000Y-82000000D03*
G04 #@! TD*
G04 #@! TO.N,GND*
G04 #@! TO.C,REF\002A\002A*
X122000000Y-82000000D03*
G04 #@! TD*
G04 #@! TO.N,GND*
G04 #@! TO.C,REF\002A\002A*
X128000000Y-81000000D03*
G04 #@! TD*
G04 #@! TO.N,GND*
G04 #@! TO.C,REF\002A\002A*
X123000000Y-81000000D03*
G04 #@! TD*
G04 #@! TO.N,GND*
G04 #@! TO.C,REF\002A\002A*
X122000000Y-81000000D03*
G04 #@! TD*
G04 #@! TO.N,GND*
G04 #@! TO.C,REF\002A\002A*
X128000000Y-80000000D03*
G04 #@! TD*
G04 #@! TO.N,GND*
G04 #@! TO.C,REF\002A\002A*
X123000000Y-80000000D03*
G04 #@! TD*
G04 #@! TO.N,GND*
G04 #@! TO.C,REF\002A\002A*
X122000000Y-80000000D03*
G04 #@! TD*
G04 #@! TO.N,GND*
G04 #@! TO.C,REF\002A\002A*
X128000000Y-79000000D03*
G04 #@! TD*
G04 #@! TO.N,GND*
G04 #@! TO.C,REF\002A\002A*
X123000000Y-79000000D03*
G04 #@! TD*
G04 #@! TO.N,GND*
G04 #@! TO.C,REF\002A\002A*
X122000000Y-79000000D03*
G04 #@! TD*
G04 #@! TO.N,GND*
G04 #@! TO.C,REF\002A\002A*
X128000000Y-78000000D03*
G04 #@! TD*
G04 #@! TO.N,GND*
G04 #@! TO.C,REF\002A\002A*
X123000000Y-78000000D03*
G04 #@! TD*
G04 #@! TO.N,GND*
G04 #@! TO.C,REF\002A\002A*
X122000000Y-78000000D03*
G04 #@! TD*
G04 #@! TO.N,GND*
G04 #@! TO.C,REF\002A\002A*
X128000000Y-77000000D03*
G04 #@! TD*
G04 #@! TO.N,GND*
G04 #@! TO.C,REF\002A\002A*
X123000000Y-77000000D03*
G04 #@! TD*
G04 #@! TO.N,GND*
G04 #@! TO.C,REF\002A\002A*
X122000000Y-77000000D03*
G04 #@! TD*
G04 #@! TO.N,GND*
G04 #@! TO.C,REF\002A\002A*
X128000000Y-76000000D03*
G04 #@! TD*
G04 #@! TO.N,GND*
G04 #@! TO.C,REF\002A\002A*
X123000000Y-76000000D03*
G04 #@! TD*
G04 #@! TO.N,GND*
G04 #@! TO.C,REF\002A\002A*
X122000000Y-76000000D03*
G04 #@! TD*
G04 #@! TO.N,GND*
G04 #@! TO.C,REF\002A\002A*
X128000000Y-75000000D03*
G04 #@! TD*
G04 #@! TO.N,GND*
G04 #@! TO.C,REF\002A\002A*
X127000000Y-75000000D03*
G04 #@! TD*
G04 #@! TO.N,GND*
G04 #@! TO.C,REF\002A\002A*
X126000000Y-75000000D03*
G04 #@! TD*
G04 #@! TO.N,GND*
G04 #@! TO.C,REF\002A\002A*
X125000000Y-75000000D03*
G04 #@! TD*
G04 #@! TO.N,GND*
G04 #@! TO.C,REF\002A\002A*
X124000000Y-75000000D03*
G04 #@! TD*
G04 #@! TO.N,GND*
G04 #@! TO.C,REF\002A\002A*
X123000000Y-75000000D03*
G04 #@! TD*
G04 #@! TO.N,GND*
G04 #@! TO.C,REF\002A\002A*
X122000000Y-75000000D03*
G04 #@! TD*
G04 #@! TO.N,GND*
G04 #@! TO.C,REF\002A\002A*
X128000000Y-74000000D03*
G04 #@! TD*
G04 #@! TO.N,GND*
G04 #@! TO.C,REF\002A\002A*
X127000000Y-74000000D03*
G04 #@! TD*
G04 #@! TO.N,GND*
G04 #@! TO.C,REF\002A\002A*
X126000000Y-74000000D03*
G04 #@! TD*
G04 #@! TO.N,GND*
G04 #@! TO.C,REF\002A\002A*
X125000000Y-74000000D03*
G04 #@! TD*
G04 #@! TO.N,GND*
G04 #@! TO.C,REF\002A\002A*
X124000000Y-74000000D03*
G04 #@! TD*
G04 #@! TO.N,GND*
G04 #@! TO.C,REF\002A\002A*
X123000000Y-74000000D03*
G04 #@! TD*
G04 #@! TO.N,GND*
G04 #@! TO.C,REF\002A\002A*
X95000000Y-94000000D03*
G04 #@! TD*
G04 #@! TO.N,GND*
G04 #@! TO.C,REF\002A\002A*
X94000000Y-94000000D03*
G04 #@! TD*
G04 #@! TO.N,GND*
G04 #@! TO.C,REF\002A\002A*
X93000000Y-94000000D03*
G04 #@! TD*
G04 #@! TO.N,GND*
G04 #@! TO.C,REF\002A\002A*
X92000000Y-94000000D03*
G04 #@! TD*
G04 #@! TO.N,GND*
G04 #@! TO.C,REF\002A\002A*
X91000000Y-94000000D03*
G04 #@! TD*
G04 #@! TO.N,GND*
G04 #@! TO.C,REF\002A\002A*
X90000000Y-94000000D03*
G04 #@! TD*
G04 #@! TO.N,GND*
G04 #@! TO.C,REF\002A\002A*
X89000000Y-94000000D03*
G04 #@! TD*
G04 #@! TO.N,GND*
G04 #@! TO.C,REF\002A\002A*
X88000000Y-94000000D03*
G04 #@! TD*
G04 #@! TO.N,GND*
G04 #@! TO.C,REF\002A\002A*
X95000000Y-93000000D03*
G04 #@! TD*
G04 #@! TO.N,GND*
G04 #@! TO.C,REF\002A\002A*
X94000000Y-93000000D03*
G04 #@! TD*
G04 #@! TO.N,GND*
G04 #@! TO.C,REF\002A\002A*
X93000000Y-93000000D03*
G04 #@! TD*
G04 #@! TO.N,GND*
G04 #@! TO.C,REF\002A\002A*
X92000000Y-93000000D03*
G04 #@! TD*
G04 #@! TO.N,GND*
G04 #@! TO.C,REF\002A\002A*
X91000000Y-93000000D03*
G04 #@! TD*
G04 #@! TO.N,GND*
G04 #@! TO.C,REF\002A\002A*
X90000000Y-93000000D03*
G04 #@! TD*
G04 #@! TO.N,GND*
G04 #@! TO.C,REF\002A\002A*
X89000000Y-93000000D03*
G04 #@! TD*
G04 #@! TO.N,GND*
G04 #@! TO.C,REF\002A\002A*
X88000000Y-93000000D03*
G04 #@! TD*
G04 #@! TO.N,GND*
G04 #@! TO.C,REF\002A\002A*
X95000000Y-92000000D03*
G04 #@! TD*
G04 #@! TO.N,GND*
G04 #@! TO.C,REF\002A\002A*
X94000000Y-92000000D03*
G04 #@! TD*
G04 #@! TO.N,GND*
G04 #@! TO.C,REF\002A\002A*
X89000000Y-92000000D03*
G04 #@! TD*
G04 #@! TO.N,GND*
G04 #@! TO.C,REF\002A\002A*
X88000000Y-92000000D03*
G04 #@! TD*
G04 #@! TO.N,GND*
G04 #@! TO.C,REF\002A\002A*
X95000000Y-91000000D03*
G04 #@! TD*
G04 #@! TO.N,GND*
G04 #@! TO.C,REF\002A\002A*
X94000000Y-91000000D03*
G04 #@! TD*
G04 #@! TO.N,GND*
G04 #@! TO.C,REF\002A\002A*
X89000000Y-91000000D03*
G04 #@! TD*
G04 #@! TO.N,GND*
G04 #@! TO.C,REF\002A\002A*
X88000000Y-91000000D03*
G04 #@! TD*
G04 #@! TO.N,GND*
G04 #@! TO.C,REF\002A\002A*
X95000000Y-90000000D03*
G04 #@! TD*
G04 #@! TO.N,GND*
G04 #@! TO.C,REF\002A\002A*
X94000000Y-90000000D03*
G04 #@! TD*
G04 #@! TO.N,GND*
G04 #@! TO.C,REF\002A\002A*
X89000000Y-90000000D03*
G04 #@! TD*
G04 #@! TO.N,GND*
G04 #@! TO.C,REF\002A\002A*
X88000000Y-90000000D03*
G04 #@! TD*
G04 #@! TO.N,GND*
G04 #@! TO.C,REF\002A\002A*
X95000000Y-89000000D03*
G04 #@! TD*
G04 #@! TO.N,GND*
G04 #@! TO.C,REF\002A\002A*
X94000000Y-89000000D03*
G04 #@! TD*
G04 #@! TO.N,GND*
G04 #@! TO.C,REF\002A\002A*
X93000000Y-89000000D03*
G04 #@! TD*
G04 #@! TO.N,GND*
G04 #@! TO.C,REF\002A\002A*
X92000000Y-89000000D03*
G04 #@! TD*
G04 #@! TO.N,GND*
G04 #@! TO.C,REF\002A\002A*
X91000000Y-89000000D03*
G04 #@! TD*
G04 #@! TO.N,GND*
G04 #@! TO.C,REF\002A\002A*
X90000000Y-89000000D03*
G04 #@! TD*
G04 #@! TO.N,GND*
G04 #@! TO.C,REF\002A\002A*
X89000000Y-89000000D03*
G04 #@! TD*
G04 #@! TO.N,GND*
G04 #@! TO.C,REF\002A\002A*
X88000000Y-89000000D03*
G04 #@! TD*
G04 #@! TO.N,GND*
G04 #@! TO.C,REF\002A\002A*
X95000000Y-88000000D03*
G04 #@! TD*
G04 #@! TO.N,GND*
G04 #@! TO.C,REF\002A\002A*
X94000000Y-88000000D03*
G04 #@! TD*
G04 #@! TO.N,GND*
G04 #@! TO.C,REF\002A\002A*
X93000000Y-88000000D03*
G04 #@! TD*
G04 #@! TO.N,GND*
G04 #@! TO.C,REF\002A\002A*
X92000000Y-88000000D03*
G04 #@! TD*
G04 #@! TO.N,GND*
G04 #@! TO.C,REF\002A\002A*
X91000000Y-88000000D03*
G04 #@! TD*
G04 #@! TO.N,GND*
G04 #@! TO.C,REF\002A\002A*
X90000000Y-88000000D03*
G04 #@! TD*
G04 #@! TO.N,GND*
G04 #@! TO.C,REF\002A\002A*
X89000000Y-88000000D03*
G04 #@! TD*
G04 #@! TO.N,GND*
G04 #@! TO.C,REF\002A\002A*
X111000000Y-94000000D03*
G04 #@! TD*
G04 #@! TO.N,GND*
G04 #@! TO.C,REF\002A\002A*
X110000000Y-94000000D03*
G04 #@! TD*
G04 #@! TO.N,GND*
G04 #@! TO.C,REF\002A\002A*
X109000000Y-94000000D03*
G04 #@! TD*
G04 #@! TO.N,GND*
G04 #@! TO.C,REF\002A\002A*
X108000000Y-94000000D03*
G04 #@! TD*
G04 #@! TO.N,GND*
G04 #@! TO.C,REF\002A\002A*
X107000000Y-94000000D03*
G04 #@! TD*
G04 #@! TO.N,GND*
G04 #@! TO.C,REF\002A\002A*
X106000000Y-94000000D03*
G04 #@! TD*
G04 #@! TO.N,GND*
G04 #@! TO.C,REF\002A\002A*
X105000000Y-94000000D03*
G04 #@! TD*
G04 #@! TO.N,GND*
G04 #@! TO.C,REF\002A\002A*
X111000000Y-93000000D03*
G04 #@! TD*
G04 #@! TO.N,GND*
G04 #@! TO.C,REF\002A\002A*
X110000000Y-93000000D03*
G04 #@! TD*
G04 #@! TO.N,GND*
G04 #@! TO.C,REF\002A\002A*
X109000000Y-93000000D03*
G04 #@! TD*
G04 #@! TO.N,GND*
G04 #@! TO.C,REF\002A\002A*
X108000000Y-93000000D03*
G04 #@! TD*
G04 #@! TO.N,GND*
G04 #@! TO.C,REF\002A\002A*
X107000000Y-93000000D03*
G04 #@! TD*
G04 #@! TO.N,GND*
G04 #@! TO.C,REF\002A\002A*
X106000000Y-93000000D03*
G04 #@! TD*
G04 #@! TO.N,GND*
G04 #@! TO.C,REF\002A\002A*
X105000000Y-93000000D03*
G04 #@! TD*
G04 #@! TO.N,GND*
G04 #@! TO.C,REF\002A\002A*
X111000000Y-92000000D03*
G04 #@! TD*
G04 #@! TO.N,GND*
G04 #@! TO.C,REF\002A\002A*
X110000000Y-92000000D03*
G04 #@! TD*
G04 #@! TO.N,GND*
G04 #@! TO.C,REF\002A\002A*
X106000000Y-92000000D03*
G04 #@! TD*
G04 #@! TO.N,GND*
G04 #@! TO.C,REF\002A\002A*
X105000000Y-92000000D03*
G04 #@! TD*
G04 #@! TO.N,GND*
G04 #@! TO.C,REF\002A\002A*
X111000000Y-91000000D03*
G04 #@! TD*
G04 #@! TO.N,GND*
G04 #@! TO.C,REF\002A\002A*
X110000000Y-91000000D03*
G04 #@! TD*
G04 #@! TO.N,GND*
G04 #@! TO.C,REF\002A\002A*
X106000000Y-91000000D03*
G04 #@! TD*
G04 #@! TO.N,GND*
G04 #@! TO.C,REF\002A\002A*
X105000000Y-91000000D03*
G04 #@! TD*
G04 #@! TO.N,GND*
G04 #@! TO.C,REF\002A\002A*
X111000000Y-90000000D03*
G04 #@! TD*
G04 #@! TO.N,GND*
G04 #@! TO.C,REF\002A\002A*
X110000000Y-90000000D03*
G04 #@! TD*
G04 #@! TO.N,GND*
G04 #@! TO.C,REF\002A\002A*
X106000000Y-90000000D03*
G04 #@! TD*
G04 #@! TO.N,GND*
G04 #@! TO.C,REF\002A\002A*
X105000000Y-90000000D03*
G04 #@! TD*
G04 #@! TO.N,GND*
G04 #@! TO.C,REF\002A\002A*
X111000000Y-89000000D03*
G04 #@! TD*
G04 #@! TO.N,GND*
G04 #@! TO.C,REF\002A\002A*
X110000000Y-89000000D03*
G04 #@! TD*
G04 #@! TO.N,GND*
G04 #@! TO.C,REF\002A\002A*
X106000000Y-89000000D03*
G04 #@! TD*
G04 #@! TO.N,GND*
G04 #@! TO.C,REF\002A\002A*
X105000000Y-89000000D03*
G04 #@! TD*
G04 #@! TO.N,GND*
G04 #@! TO.C,REF\002A\002A*
X111000000Y-88000000D03*
G04 #@! TD*
G04 #@! TO.N,GND*
G04 #@! TO.C,REF\002A\002A*
X110000000Y-88000000D03*
G04 #@! TD*
G04 #@! TO.N,GND*
G04 #@! TO.C,REF\002A\002A*
X106000000Y-88000000D03*
G04 #@! TD*
G04 #@! TO.N,GND*
G04 #@! TO.C,REF\002A\002A*
X105000000Y-88000000D03*
G04 #@! TD*
G04 #@! TO.N,GND*
G04 #@! TO.C,REF\002A\002A*
X111000000Y-87000000D03*
G04 #@! TD*
G04 #@! TO.N,GND*
G04 #@! TO.C,REF\002A\002A*
X110000000Y-87000000D03*
G04 #@! TD*
G04 #@! TO.N,GND*
G04 #@! TO.C,REF\002A\002A*
X109000000Y-87000000D03*
G04 #@! TD*
G04 #@! TO.N,GND*
G04 #@! TO.C,REF\002A\002A*
X108000000Y-87000000D03*
G04 #@! TD*
G04 #@! TO.N,GND*
G04 #@! TO.C,REF\002A\002A*
X107000000Y-87000000D03*
G04 #@! TD*
G04 #@! TO.N,GND*
G04 #@! TO.C,REF\002A\002A*
X106000000Y-87000000D03*
G04 #@! TD*
G04 #@! TO.N,GND*
G04 #@! TO.C,REF\002A\002A*
X105000000Y-87000000D03*
G04 #@! TD*
G04 #@! TO.N,GND*
G04 #@! TO.C,REF\002A\002A*
X111000000Y-86000000D03*
G04 #@! TD*
G04 #@! TO.N,GND*
G04 #@! TO.C,REF\002A\002A*
X110000000Y-86000000D03*
G04 #@! TD*
G04 #@! TO.N,GND*
G04 #@! TO.C,REF\002A\002A*
X109000000Y-86000000D03*
G04 #@! TD*
G04 #@! TO.N,GND*
G04 #@! TO.C,REF\002A\002A*
X108000000Y-86000000D03*
G04 #@! TD*
G04 #@! TO.N,GND*
G04 #@! TO.C,REF\002A\002A*
X107000000Y-86000000D03*
G04 #@! TD*
G04 #@! TO.N,GND*
G04 #@! TO.C,REF\002A\002A*
X106000000Y-86000000D03*
G04 #@! TD*
G04 #@! TO.N,GND*
G04 #@! TO.C,REF\002A\002A*
X87000000Y-87000000D03*
G04 #@! TD*
G04 #@! TO.N,GND*
G04 #@! TO.C,REF\002A\002A*
X86000000Y-87000000D03*
G04 #@! TD*
G04 #@! TO.N,GND*
G04 #@! TO.C,REF\002A\002A*
X85000000Y-87000000D03*
G04 #@! TD*
G04 #@! TO.N,GND*
G04 #@! TO.C,REF\002A\002A*
X84000000Y-87000000D03*
G04 #@! TD*
G04 #@! TO.N,GND*
G04 #@! TO.C,REF\002A\002A*
X83000000Y-87000000D03*
G04 #@! TD*
G04 #@! TO.N,GND*
G04 #@! TO.C,REF\002A\002A*
X82000000Y-87000000D03*
G04 #@! TD*
G04 #@! TO.N,GND*
G04 #@! TO.C,REF\002A\002A*
X81000000Y-87000000D03*
G04 #@! TD*
G04 #@! TO.N,GND*
G04 #@! TO.C,REF\002A\002A*
X87000000Y-86000000D03*
G04 #@! TD*
G04 #@! TO.N,GND*
G04 #@! TO.C,REF\002A\002A*
X86000000Y-86000000D03*
G04 #@! TD*
G04 #@! TO.N,GND*
G04 #@! TO.C,REF\002A\002A*
X85000000Y-86000000D03*
G04 #@! TD*
G04 #@! TO.N,GND*
G04 #@! TO.C,REF\002A\002A*
X84000000Y-86000000D03*
G04 #@! TD*
G04 #@! TO.N,GND*
G04 #@! TO.C,REF\002A\002A*
X83000000Y-86000000D03*
G04 #@! TD*
G04 #@! TO.N,GND*
G04 #@! TO.C,REF\002A\002A*
X82000000Y-86000000D03*
G04 #@! TD*
G04 #@! TO.N,GND*
G04 #@! TO.C,REF\002A\002A*
X81000000Y-86000000D03*
G04 #@! TD*
G04 #@! TO.N,GND*
G04 #@! TO.C,REF\002A\002A*
X87000000Y-85000000D03*
G04 #@! TD*
G04 #@! TO.N,GND*
G04 #@! TO.C,REF\002A\002A*
X86000000Y-85000000D03*
G04 #@! TD*
G04 #@! TO.N,GND*
G04 #@! TO.C,REF\002A\002A*
X85000000Y-85000000D03*
G04 #@! TD*
G04 #@! TO.N,GND*
G04 #@! TO.C,REF\002A\002A*
X84000000Y-85000000D03*
G04 #@! TD*
G04 #@! TO.N,GND*
G04 #@! TO.C,REF\002A\002A*
X83000000Y-85000000D03*
G04 #@! TD*
G04 #@! TO.N,GND*
G04 #@! TO.C,REF\002A\002A*
X82000000Y-85000000D03*
G04 #@! TD*
G04 #@! TO.N,GND*
G04 #@! TO.C,REF\002A\002A*
X81000000Y-85000000D03*
G04 #@! TD*
G04 #@! TO.N,GND*
G04 #@! TO.C,REF\002A\002A*
X87000000Y-84000000D03*
G04 #@! TD*
G04 #@! TO.N,GND*
G04 #@! TO.C,REF\002A\002A*
X86000000Y-84000000D03*
G04 #@! TD*
G04 #@! TO.N,GND*
G04 #@! TO.C,REF\002A\002A*
X82000000Y-84000000D03*
G04 #@! TD*
G04 #@! TO.N,GND*
G04 #@! TO.C,REF\002A\002A*
X81000000Y-84000000D03*
G04 #@! TD*
G04 #@! TO.N,GND*
G04 #@! TO.C,REF\002A\002A*
X87000000Y-83000000D03*
G04 #@! TD*
G04 #@! TO.N,GND*
G04 #@! TO.C,REF\002A\002A*
X86000000Y-83000000D03*
G04 #@! TD*
G04 #@! TO.N,GND*
G04 #@! TO.C,REF\002A\002A*
X82000000Y-83000000D03*
G04 #@! TD*
G04 #@! TO.N,GND*
G04 #@! TO.C,REF\002A\002A*
X81000000Y-83000000D03*
G04 #@! TD*
G04 #@! TO.N,GND*
G04 #@! TO.C,REF\002A\002A*
X87000000Y-82000000D03*
G04 #@! TD*
G04 #@! TO.N,GND*
G04 #@! TO.C,REF\002A\002A*
X86000000Y-82000000D03*
G04 #@! TD*
G04 #@! TO.N,GND*
G04 #@! TO.C,REF\002A\002A*
X82000000Y-82000000D03*
G04 #@! TD*
G04 #@! TO.N,GND*
G04 #@! TO.C,REF\002A\002A*
X81000000Y-82000000D03*
G04 #@! TD*
G04 #@! TO.N,GND*
G04 #@! TO.C,REF\002A\002A*
X87000000Y-81000000D03*
G04 #@! TD*
G04 #@! TO.N,GND*
G04 #@! TO.C,REF\002A\002A*
X86000000Y-81000000D03*
G04 #@! TD*
G04 #@! TO.N,GND*
G04 #@! TO.C,REF\002A\002A*
X82000000Y-81000000D03*
G04 #@! TD*
G04 #@! TO.N,GND*
G04 #@! TO.C,REF\002A\002A*
X81000000Y-81000000D03*
G04 #@! TD*
G04 #@! TO.N,GND*
G04 #@! TO.C,REF\002A\002A*
X87000000Y-80000000D03*
G04 #@! TD*
G04 #@! TO.N,GND*
G04 #@! TO.C,REF\002A\002A*
X86000000Y-80000000D03*
G04 #@! TD*
G04 #@! TO.N,GND*
G04 #@! TO.C,REF\002A\002A*
X82000000Y-80000000D03*
G04 #@! TD*
G04 #@! TO.N,GND*
G04 #@! TO.C,REF\002A\002A*
X81000000Y-80000000D03*
G04 #@! TD*
G04 #@! TO.N,GND*
G04 #@! TO.C,REF\002A\002A*
X87000000Y-79000000D03*
G04 #@! TD*
G04 #@! TO.N,GND*
G04 #@! TO.C,REF\002A\002A*
X86000000Y-79000000D03*
G04 #@! TD*
G04 #@! TO.N,GND*
G04 #@! TO.C,REF\002A\002A*
X82000000Y-79000000D03*
G04 #@! TD*
G04 #@! TO.N,GND*
G04 #@! TO.C,REF\002A\002A*
X81000000Y-79000000D03*
G04 #@! TD*
G04 #@! TO.N,GND*
G04 #@! TO.C,REF\002A\002A*
X87000000Y-78000000D03*
G04 #@! TD*
G04 #@! TO.N,GND*
G04 #@! TO.C,REF\002A\002A*
X86000000Y-78000000D03*
G04 #@! TD*
G04 #@! TO.N,GND*
G04 #@! TO.C,REF\002A\002A*
X82000000Y-78000000D03*
G04 #@! TD*
G04 #@! TO.N,GND*
G04 #@! TO.C,REF\002A\002A*
X81000000Y-78000000D03*
G04 #@! TD*
G04 #@! TO.N,GND*
G04 #@! TO.C,REF\002A\002A*
X87000000Y-77000000D03*
G04 #@! TD*
G04 #@! TO.N,GND*
G04 #@! TO.C,REF\002A\002A*
X86000000Y-77000000D03*
G04 #@! TD*
G04 #@! TO.N,GND*
G04 #@! TO.C,REF\002A\002A*
X82000000Y-77000000D03*
G04 #@! TD*
G04 #@! TO.N,GND*
G04 #@! TO.C,REF\002A\002A*
X81000000Y-77000000D03*
G04 #@! TD*
G04 #@! TO.N,GND*
G04 #@! TO.C,REF\002A\002A*
X87000000Y-76000000D03*
G04 #@! TD*
G04 #@! TO.N,GND*
G04 #@! TO.C,REF\002A\002A*
X86000000Y-76000000D03*
G04 #@! TD*
G04 #@! TO.N,GND*
G04 #@! TO.C,REF\002A\002A*
X82000000Y-76000000D03*
G04 #@! TD*
G04 #@! TO.N,GND*
G04 #@! TO.C,REF\002A\002A*
X81000000Y-76000000D03*
G04 #@! TD*
G04 #@! TO.N,GND*
G04 #@! TO.C,REF\002A\002A*
X87000000Y-75000000D03*
G04 #@! TD*
G04 #@! TO.N,GND*
G04 #@! TO.C,REF\002A\002A*
X86000000Y-75000000D03*
G04 #@! TD*
G04 #@! TO.N,GND*
G04 #@! TO.C,REF\002A\002A*
X82000000Y-75000000D03*
G04 #@! TD*
G04 #@! TO.N,GND*
G04 #@! TO.C,REF\002A\002A*
X81000000Y-75000000D03*
G04 #@! TD*
G04 #@! TO.N,GND*
G04 #@! TO.C,REF\002A\002A*
X87000000Y-74000000D03*
G04 #@! TD*
G04 #@! TO.N,GND*
G04 #@! TO.C,REF\002A\002A*
X86000000Y-74000000D03*
G04 #@! TD*
G04 #@! TO.N,GND*
G04 #@! TO.C,REF\002A\002A*
X82000000Y-74000000D03*
G04 #@! TD*
G04 #@! TO.N,GND*
G04 #@! TO.C,REF\002A\002A*
X81000000Y-74000000D03*
G04 #@! TD*
G04 #@! TO.N,GND*
G04 #@! TO.C,REF\002A\002A*
X87000000Y-73000000D03*
G04 #@! TD*
G04 #@! TO.N,GND*
G04 #@! TO.C,REF\002A\002A*
X86000000Y-73000000D03*
G04 #@! TD*
G04 #@! TO.N,GND*
G04 #@! TO.C,REF\002A\002A*
X82000000Y-73000000D03*
G04 #@! TD*
G04 #@! TO.N,GND*
G04 #@! TO.C,REF\002A\002A*
X81000000Y-73000000D03*
G04 #@! TD*
G04 #@! TO.N,GND*
G04 #@! TO.C,REF\002A\002A*
X87000000Y-72000000D03*
G04 #@! TD*
G04 #@! TO.N,GND*
G04 #@! TO.C,REF\002A\002A*
X86000000Y-72000000D03*
G04 #@! TD*
G04 #@! TO.N,GND*
G04 #@! TO.C,REF\002A\002A*
X82000000Y-72000000D03*
G04 #@! TD*
G04 #@! TO.N,GND*
G04 #@! TO.C,REF\002A\002A*
X81000000Y-72000000D03*
G04 #@! TD*
G04 #@! TO.N,GND*
G04 #@! TO.C,REF\002A\002A*
X87000000Y-71000000D03*
G04 #@! TD*
G04 #@! TO.N,GND*
G04 #@! TO.C,REF\002A\002A*
X86000000Y-71000000D03*
G04 #@! TD*
G04 #@! TO.N,GND*
G04 #@! TO.C,REF\002A\002A*
X82000000Y-71000000D03*
G04 #@! TD*
G04 #@! TO.N,GND*
G04 #@! TO.C,REF\002A\002A*
X81000000Y-71000000D03*
G04 #@! TD*
G04 #@! TO.N,GND*
G04 #@! TO.C,REF\002A\002A*
X87000000Y-70000000D03*
G04 #@! TD*
G04 #@! TO.N,GND*
G04 #@! TO.C,REF\002A\002A*
X86000000Y-70000000D03*
G04 #@! TD*
G04 #@! TO.N,GND*
G04 #@! TO.C,REF\002A\002A*
X82000000Y-70000000D03*
G04 #@! TD*
G04 #@! TO.N,GND*
G04 #@! TO.C,REF\002A\002A*
X81000000Y-70000000D03*
G04 #@! TD*
G04 #@! TO.N,GND*
G04 #@! TO.C,REF\002A\002A*
X87000000Y-69000000D03*
G04 #@! TD*
G04 #@! TO.N,GND*
G04 #@! TO.C,REF\002A\002A*
X86000000Y-69000000D03*
G04 #@! TD*
G04 #@! TO.N,GND*
G04 #@! TO.C,REF\002A\002A*
X82000000Y-69000000D03*
G04 #@! TD*
G04 #@! TO.N,GND*
G04 #@! TO.C,REF\002A\002A*
X81000000Y-69000000D03*
G04 #@! TD*
G04 #@! TO.N,GND*
G04 #@! TO.C,REF\002A\002A*
X87000000Y-68000000D03*
G04 #@! TD*
G04 #@! TO.N,GND*
G04 #@! TO.C,REF\002A\002A*
X86000000Y-68000000D03*
G04 #@! TD*
G04 #@! TO.N,GND*
G04 #@! TO.C,REF\002A\002A*
X82000000Y-68000000D03*
G04 #@! TD*
G04 #@! TO.N,GND*
G04 #@! TO.C,REF\002A\002A*
X81000000Y-68000000D03*
G04 #@! TD*
G04 #@! TO.N,GND*
G04 #@! TO.C,REF\002A\002A*
X87000000Y-67000000D03*
G04 #@! TD*
G04 #@! TO.N,GND*
G04 #@! TO.C,REF\002A\002A*
X86000000Y-67000000D03*
G04 #@! TD*
G04 #@! TO.N,GND*
G04 #@! TO.C,REF\002A\002A*
X82000000Y-67000000D03*
G04 #@! TD*
G04 #@! TO.N,GND*
G04 #@! TO.C,REF\002A\002A*
X81000000Y-67000000D03*
G04 #@! TD*
G04 #@! TO.N,GND*
G04 #@! TO.C,REF\002A\002A*
X87000000Y-66000000D03*
G04 #@! TD*
G04 #@! TO.N,GND*
G04 #@! TO.C,REF\002A\002A*
X86000000Y-66000000D03*
G04 #@! TD*
G04 #@! TO.N,GND*
G04 #@! TO.C,REF\002A\002A*
X82000000Y-66000000D03*
G04 #@! TD*
G04 #@! TO.N,GND*
G04 #@! TO.C,REF\002A\002A*
X81000000Y-66000000D03*
G04 #@! TD*
G04 #@! TO.N,GND*
G04 #@! TO.C,REF\002A\002A*
X87000000Y-65000000D03*
G04 #@! TD*
G04 #@! TO.N,GND*
G04 #@! TO.C,REF\002A\002A*
X86000000Y-65000000D03*
G04 #@! TD*
G04 #@! TO.N,GND*
G04 #@! TO.C,REF\002A\002A*
X82000000Y-65000000D03*
G04 #@! TD*
G04 #@! TO.N,GND*
G04 #@! TO.C,REF\002A\002A*
X81000000Y-65000000D03*
G04 #@! TD*
G04 #@! TO.N,GND*
G04 #@! TO.C,REF\002A\002A*
X87000000Y-64000000D03*
G04 #@! TD*
G04 #@! TO.N,GND*
G04 #@! TO.C,REF\002A\002A*
X86000000Y-64000000D03*
G04 #@! TD*
G04 #@! TO.N,GND*
G04 #@! TO.C,REF\002A\002A*
X82000000Y-64000000D03*
G04 #@! TD*
G04 #@! TO.N,GND*
G04 #@! TO.C,REF\002A\002A*
X81000000Y-64000000D03*
G04 #@! TD*
G04 #@! TO.N,GND*
G04 #@! TO.C,REF\002A\002A*
X87000000Y-63000000D03*
G04 #@! TD*
G04 #@! TO.N,GND*
G04 #@! TO.C,REF\002A\002A*
X86000000Y-63000000D03*
G04 #@! TD*
G04 #@! TO.N,GND*
G04 #@! TO.C,REF\002A\002A*
X82000000Y-63000000D03*
G04 #@! TD*
G04 #@! TO.N,GND*
G04 #@! TO.C,REF\002A\002A*
X81000000Y-63000000D03*
G04 #@! TD*
G04 #@! TO.N,GND*
G04 #@! TO.C,REF\002A\002A*
X87000000Y-62000000D03*
G04 #@! TD*
G04 #@! TO.N,GND*
G04 #@! TO.C,REF\002A\002A*
X86000000Y-62000000D03*
G04 #@! TD*
G04 #@! TO.N,GND*
G04 #@! TO.C,REF\002A\002A*
X82000000Y-62000000D03*
G04 #@! TD*
G04 #@! TO.N,GND*
G04 #@! TO.C,REF\002A\002A*
X81000000Y-62000000D03*
G04 #@! TD*
G04 #@! TO.N,GND*
G04 #@! TO.C,REF\002A\002A*
X87000000Y-61000000D03*
G04 #@! TD*
G04 #@! TO.N,GND*
G04 #@! TO.C,REF\002A\002A*
X86000000Y-61000000D03*
G04 #@! TD*
G04 #@! TO.N,GND*
G04 #@! TO.C,REF\002A\002A*
X82000000Y-61000000D03*
G04 #@! TD*
G04 #@! TO.N,GND*
G04 #@! TO.C,REF\002A\002A*
X81000000Y-61000000D03*
G04 #@! TD*
G04 #@! TO.N,GND*
G04 #@! TO.C,REF\002A\002A*
X87000000Y-60000000D03*
G04 #@! TD*
G04 #@! TO.N,GND*
G04 #@! TO.C,REF\002A\002A*
X86000000Y-60000000D03*
G04 #@! TD*
G04 #@! TO.N,GND*
G04 #@! TO.C,REF\002A\002A*
X82000000Y-60000000D03*
G04 #@! TD*
G04 #@! TO.N,GND*
G04 #@! TO.C,REF\002A\002A*
X81000000Y-60000000D03*
G04 #@! TD*
G04 #@! TO.N,GND*
G04 #@! TO.C,REF\002A\002A*
X87000000Y-59000000D03*
G04 #@! TD*
G04 #@! TO.N,GND*
G04 #@! TO.C,REF\002A\002A*
X86000000Y-59000000D03*
G04 #@! TD*
G04 #@! TO.N,GND*
G04 #@! TO.C,REF\002A\002A*
X82000000Y-59000000D03*
G04 #@! TD*
G04 #@! TO.N,GND*
G04 #@! TO.C,REF\002A\002A*
X81000000Y-59000000D03*
G04 #@! TD*
G04 #@! TO.N,GND*
G04 #@! TO.C,REF\002A\002A*
X87000000Y-58000000D03*
G04 #@! TD*
G04 #@! TO.N,GND*
G04 #@! TO.C,REF\002A\002A*
X86000000Y-58000000D03*
G04 #@! TD*
G04 #@! TO.N,GND*
G04 #@! TO.C,REF\002A\002A*
X82000000Y-58000000D03*
G04 #@! TD*
G04 #@! TO.N,GND*
G04 #@! TO.C,REF\002A\002A*
X81000000Y-58000000D03*
G04 #@! TD*
G04 #@! TO.N,GND*
G04 #@! TO.C,REF\002A\002A*
X87000000Y-57000000D03*
G04 #@! TD*
G04 #@! TO.N,GND*
G04 #@! TO.C,REF\002A\002A*
X86000000Y-57000000D03*
G04 #@! TD*
G04 #@! TO.N,GND*
G04 #@! TO.C,REF\002A\002A*
X82000000Y-57000000D03*
G04 #@! TD*
G04 #@! TO.N,GND*
G04 #@! TO.C,REF\002A\002A*
X81000000Y-57000000D03*
G04 #@! TD*
G04 #@! TO.N,GND*
G04 #@! TO.C,REF\002A\002A*
X87000000Y-56000000D03*
G04 #@! TD*
G04 #@! TO.N,GND*
G04 #@! TO.C,REF\002A\002A*
X86000000Y-56000000D03*
G04 #@! TD*
G04 #@! TO.N,GND*
G04 #@! TO.C,REF\002A\002A*
X82000000Y-56000000D03*
G04 #@! TD*
G04 #@! TO.N,GND*
G04 #@! TO.C,REF\002A\002A*
X81000000Y-56000000D03*
G04 #@! TD*
G04 #@! TO.N,GND*
G04 #@! TO.C,REF\002A\002A*
X87000000Y-55000000D03*
G04 #@! TD*
G04 #@! TO.N,GND*
G04 #@! TO.C,REF\002A\002A*
X86000000Y-55000000D03*
G04 #@! TD*
G04 #@! TO.N,GND*
G04 #@! TO.C,REF\002A\002A*
X82000000Y-55000000D03*
G04 #@! TD*
G04 #@! TO.N,GND*
G04 #@! TO.C,REF\002A\002A*
X81000000Y-55000000D03*
G04 #@! TD*
G04 #@! TO.N,GND*
G04 #@! TO.C,REF\002A\002A*
X87000000Y-54000000D03*
G04 #@! TD*
G04 #@! TO.N,GND*
G04 #@! TO.C,REF\002A\002A*
X86000000Y-54000000D03*
G04 #@! TD*
G04 #@! TO.N,GND*
G04 #@! TO.C,REF\002A\002A*
X85000000Y-54000000D03*
G04 #@! TD*
G04 #@! TO.N,GND*
G04 #@! TO.C,REF\002A\002A*
X84000000Y-54000000D03*
G04 #@! TD*
G04 #@! TO.N,GND*
G04 #@! TO.C,REF\002A\002A*
X83000000Y-54000000D03*
G04 #@! TD*
G04 #@! TO.N,GND*
G04 #@! TO.C,REF\002A\002A*
X82000000Y-54000000D03*
G04 #@! TD*
G04 #@! TO.N,GND*
G04 #@! TO.C,REF\002A\002A*
X81000000Y-54000000D03*
G04 #@! TD*
G04 #@! TO.N,GND*
G04 #@! TO.C,REF\002A\002A*
X87000000Y-53000000D03*
G04 #@! TD*
G04 #@! TO.N,GND*
G04 #@! TO.C,REF\002A\002A*
X86000000Y-53000000D03*
G04 #@! TD*
G04 #@! TO.N,GND*
G04 #@! TO.C,REF\002A\002A*
X85000000Y-53000000D03*
G04 #@! TD*
G04 #@! TO.N,GND*
G04 #@! TO.C,REF\002A\002A*
X84000000Y-53000000D03*
G04 #@! TD*
G04 #@! TO.N,GND*
G04 #@! TO.C,REF\002A\002A*
X83000000Y-53000000D03*
G04 #@! TD*
G04 #@! TO.N,GND*
G04 #@! TO.C,REF\002A\002A*
X82000000Y-53000000D03*
G04 #@! TD*
D12*
G04 #@! TO.P,J1,1*
G04 #@! TO.N,GND*
X125250000Y-70500000D03*
D13*
G04 #@! TO.P,J1,2*
G04 #@! TO.N,Net-(D1-Pad2)*
X125250000Y-67960000D03*
G04 #@! TD*
D14*
G04 #@! TO.P,J2,1*
G04 #@! TO.N,GND*
X126000000Y-49000000D03*
G04 #@! TD*
D15*
G04 #@! TO.P,J3,1*
G04 #@! TO.N,Net-(J3-Pad1)*
X100000000Y-90000000D03*
D16*
G04 #@! TO.P,J3,2*
G04 #@! TO.N,GND*
X102540000Y-87460000D03*
X102540000Y-92540000D03*
X97460000Y-92540000D03*
X97460000Y-87460000D03*
G04 #@! TD*
D14*
G04 #@! TO.P,J4,1*
G04 #@! TO.N,GND*
X84000000Y-49000000D03*
G04 #@! TD*
G04 #@! TO.P,J5,1*
G04 #@! TO.N,GND*
X126000000Y-91000000D03*
G04 #@! TD*
G04 #@! TO.P,J6,1*
G04 #@! TO.N,GND*
X84000000Y-91000000D03*
G04 #@! TD*
D17*
G04 #@! TO.P,J7,1*
G04 #@! TO.N,Net-(J3-Pad1)*
X100000000Y-93000000D03*
D18*
G04 #@! TO.P,J7,2*
G04 #@! TO.N,GND*
X102540000Y-93000000D03*
X97460000Y-93000000D03*
G04 #@! TD*
D19*
G04 #@! TO.P,Q1,5*
G04 #@! TO.N,Net-(C2-Pad1)*
X97475000Y-50475000D03*
G04 #@! TO.P,Q1,4*
G04 #@! TO.N,N/C*
X116525000Y-50475000D03*
G04 #@! TO.P,Q1,3*
G04 #@! TO.N,Net-(C4-Pad1)*
X116525000Y-69525000D03*
G04 #@! TO.P,Q1,1*
G04 #@! TO.N,Net-(J3-Pad1)*
X97475000Y-69525000D03*
G04 #@! TO.P,Q1,2*
G04 #@! TO.N,GND*
X107000000Y-69525000D03*
G04 #@! TD*
D20*
G04 #@! TO.P,RV1,1*
G04 #@! TO.N,Net-(R1-Pad2)*
X117000000Y-78000000D03*
G04 #@! TO.P,RV1,2*
G04 #@! TO.N,Net-(C4-Pad1)*
X114460000Y-85620000D03*
G04 #@! TO.P,RV1,3*
G04 #@! TO.N,Net-(R2-Pad1)*
X117000000Y-90700000D03*
G04 #@! TD*
D21*
G04 #@! TO.P,RV2,1*
G04 #@! TO.N,Net-(R1-Pad2)*
X117000000Y-83000000D03*
G04 #@! TO.P,RV2,2*
G04 #@! TO.N,Net-(C4-Pad1)*
X119540000Y-85540000D03*
G04 #@! TO.P,RV2,3*
G04 #@! TO.N,Net-(R2-Pad1)*
X117000000Y-88080000D03*
G04 #@! TD*
G04 #@! TO.P,RV3,1*
G04 #@! TO.N,Net-(R2-Pad1)*
X117000000Y-88100000D03*
G04 #@! TO.P,RV3,2*
G04 #@! TO.N,Net-(C4-Pad1)*
X117000000Y-85460000D03*
G04 #@! TO.P,RV3,3*
G04 #@! TO.N,Net-(R1-Pad2)*
X117000000Y-83000000D03*
G04 #@! TD*
D11*
G04 #@! TO.N,GND*
G04 #@! TO.C,REF\002A\002A*
X81000000Y-53000000D03*
G04 #@! TD*
G04 #@! TO.N,GND*
G04 #@! TO.C,REF\002A\002A*
X105000000Y-86000000D03*
G04 #@! TD*
G04 #@! TO.N,GND*
G04 #@! TO.C,REF\002A\002A*
X88000000Y-88000000D03*
G04 #@! TD*
G04 #@! TO.N,GND*
G04 #@! TO.C,REF\002A\002A*
X122000000Y-74000000D03*
G04 #@! TD*
G04 #@! TO.N,GND*
X97000000Y-85000000D03*
X97000000Y-84000000D03*
X96000000Y-83000000D03*
X95000000Y-82000000D03*
X95000000Y-81000000D03*
X95000000Y-80000000D03*
X95000000Y-79000000D03*
X95000000Y-78000000D03*
X95000000Y-77000000D03*
X95000000Y-76000000D03*
X95000000Y-75000000D03*
X95000000Y-74000000D03*
X95000000Y-73000000D03*
X95000000Y-72000000D03*
X95000000Y-71000000D03*
X95000000Y-70000000D03*
X95000000Y-69000000D03*
X95000000Y-68000000D03*
X96000000Y-67000000D03*
X97000000Y-67000000D03*
X98000000Y-67000000D03*
X99000000Y-67000000D03*
X100000000Y-68000000D03*
X100000000Y-69000000D03*
X100000000Y-70000000D03*
X100000000Y-71000000D03*
X100000000Y-72000000D03*
X100000000Y-73000000D03*
X100000000Y-74000000D03*
X100000000Y-75000000D03*
X100000000Y-76000000D03*
X100000000Y-77000000D03*
X100000000Y-78000000D03*
X100000000Y-79000000D03*
X100000000Y-80000000D03*
X101000000Y-81000000D03*
X102000000Y-82000000D03*
X102000000Y-83000000D03*
X102000000Y-84000000D03*
X102000000Y-85000000D03*
X102000000Y-86000000D03*
X102500000Y-57000000D03*
X102500000Y-55000000D03*
X102500000Y-53000000D03*
X102500000Y-51000000D03*
X102500000Y-49000000D03*
X104500000Y-49000000D03*
X106500000Y-49000000D03*
X108500000Y-49000000D03*
X110500000Y-49000000D03*
X111500000Y-51000000D03*
X111500000Y-53000000D03*
X111500000Y-55000000D03*
X111500000Y-57000000D03*
G04 #@! TD*
D22*
G04 #@! TO.N,GND*
X102540000Y-87460000D02*
X102540000Y-86540000D01*
X102540000Y-86540000D02*
X102000000Y-86000000D01*
X97000000Y-84000000D02*
X97000000Y-85000000D01*
X95000000Y-82000000D02*
X96000000Y-83000000D01*
X95000000Y-80000000D02*
X95000000Y-81000000D01*
X95000000Y-78000000D02*
X95000000Y-79000000D01*
X95000000Y-76000000D02*
X95000000Y-77000000D01*
X95000000Y-74000000D02*
X95000000Y-75000000D01*
X95000000Y-72000000D02*
X95000000Y-73000000D01*
X95000000Y-70000000D02*
X95000000Y-71000000D01*
X95000000Y-68000000D02*
X95000000Y-69000000D01*
X97000000Y-67000000D02*
X96000000Y-67000000D01*
X99000000Y-67000000D02*
X98000000Y-67000000D01*
X100000000Y-69000000D02*
X100000000Y-68000000D01*
X100000000Y-71000000D02*
X100000000Y-70000000D01*
X100000000Y-73000000D02*
X100000000Y-72000000D01*
X100000000Y-75000000D02*
X100000000Y-74000000D01*
X100000000Y-77000000D02*
X100000000Y-76000000D01*
X100000000Y-79000000D02*
X100000000Y-78000000D01*
X101000000Y-81000000D02*
X100000000Y-80000000D01*
X102000000Y-83000000D02*
X102000000Y-82000000D01*
X102000000Y-85000000D02*
X102000000Y-84000000D01*
D23*
X97460000Y-87460000D02*
X97460000Y-92540000D01*
X102540000Y-87460000D02*
X102540000Y-92540000D01*
D22*
X102500000Y-57000000D02*
X102500000Y-55000000D01*
X102500000Y-53000000D02*
X102500000Y-51000000D01*
X102500000Y-49000000D02*
X104500000Y-49000000D01*
X106500000Y-49000000D02*
X108500000Y-49000000D01*
X110500000Y-49000000D02*
X111500000Y-49000000D01*
X111500000Y-49000000D02*
X111500000Y-51000000D01*
X111500000Y-53000000D02*
X111500000Y-55000000D01*
X126000000Y-49000000D02*
X124000000Y-49000000D01*
D24*
G04 #@! TO.N,Net-(C4-Pad1)*
X117000000Y-85460000D02*
X119460000Y-85460000D01*
X119460000Y-85460000D02*
X119540000Y-85540000D01*
X119460000Y-85460000D02*
X119540000Y-85540000D01*
X114460000Y-85620000D02*
X116840000Y-85620000D01*
X116840000Y-85620000D02*
X117000000Y-85460000D01*
D25*
X114460000Y-85620000D02*
X111800000Y-82960000D01*
X111800000Y-82960000D02*
X111800000Y-74250000D01*
X111800000Y-74250000D02*
X116525000Y-69525000D01*
D24*
G04 #@! TO.N,Net-(J3-Pad1)*
X100000000Y-90000000D02*
X100000000Y-93000000D01*
D25*
X100000000Y-90000000D02*
X100000000Y-83400000D01*
X100000000Y-83400000D02*
X97400000Y-80800000D01*
X97400000Y-80800000D02*
X97400000Y-69600000D01*
X97400000Y-69600000D02*
X97475000Y-69525000D01*
D24*
G04 #@! TO.N,Net-(R1-Pad2)*
X117000000Y-83000000D02*
X117000000Y-78000000D01*
G04 #@! TO.N,Net-(R2-Pad1)*
X117000000Y-90700000D02*
X117000000Y-88080000D01*
G04 #@! TD*
D26*
G04 #@! TO.N,GND*
G36*
X82089629Y-46125620D02*
X82075487Y-46135068D01*
X81763339Y-46583734D01*
X84000000Y-48820395D01*
X86236661Y-46583734D01*
X85924513Y-46135068D01*
X84905417Y-45710000D01*
X125100059Y-45710000D01*
X124089629Y-46125620D01*
X124075487Y-46135068D01*
X123763339Y-46583734D01*
X126000000Y-48820395D01*
X128236661Y-46583734D01*
X127924513Y-46135068D01*
X126905417Y-45710000D01*
X129290000Y-45710000D01*
X129290000Y-48100059D01*
X128874380Y-47089629D01*
X128864932Y-47075487D01*
X128416266Y-46763339D01*
X126179605Y-49000000D01*
X128416266Y-51236661D01*
X128864932Y-50924513D01*
X129290000Y-49905417D01*
X129290001Y-90100061D01*
X128874380Y-89089629D01*
X128864932Y-89075487D01*
X128416266Y-88763339D01*
X126179605Y-91000000D01*
X128416266Y-93236661D01*
X128864932Y-92924513D01*
X129290001Y-91905415D01*
X129290001Y-94290000D01*
X126899941Y-94290000D01*
X127910371Y-93874380D01*
X127924513Y-93864932D01*
X128236661Y-93416266D01*
X126000000Y-91179605D01*
X123763339Y-93416266D01*
X124075487Y-93864932D01*
X125094583Y-94290000D01*
X103925000Y-94290000D01*
X103925000Y-93869038D01*
X103986823Y-93807215D01*
X103925000Y-93745392D01*
X103925000Y-93670573D01*
X104165859Y-93564275D01*
X104434071Y-92864117D01*
X104413928Y-92114616D01*
X104165859Y-91515725D01*
X103925000Y-91409427D01*
X103925000Y-91334608D01*
X103986823Y-91272785D01*
X103925000Y-91210962D01*
X103925000Y-90873691D01*
X103828327Y-90640302D01*
X103649699Y-90461673D01*
X103416310Y-90365000D01*
X102825750Y-90365000D01*
X102667000Y-90523750D01*
X102667000Y-90651227D01*
X102413000Y-90658053D01*
X102413000Y-90523750D01*
X102254250Y-90365000D01*
X101663690Y-90365000D01*
X101608503Y-90387859D01*
X101634490Y-90325120D01*
X101634490Y-90163595D01*
X101635000Y-90161031D01*
X101635000Y-89131550D01*
X102215883Y-89354071D01*
X102965384Y-89333928D01*
X103564275Y-89085859D01*
X103693483Y-88793089D01*
X102540000Y-87639605D01*
X102525858Y-87653748D01*
X102346252Y-87474142D01*
X102360395Y-87460000D01*
X102719605Y-87460000D01*
X103873089Y-88613483D01*
X104165859Y-88484275D01*
X104434071Y-87784117D01*
X104413928Y-87034616D01*
X104165859Y-86435725D01*
X103873089Y-86306517D01*
X102719605Y-87460000D01*
X102360395Y-87460000D01*
X102346252Y-87445858D01*
X102525858Y-87266252D01*
X102540000Y-87280395D01*
X103693483Y-86126911D01*
X103564275Y-85834141D01*
X102864117Y-85565929D01*
X102127000Y-85585739D01*
X102127000Y-82000000D01*
X102117333Y-81951399D01*
X102089803Y-81910197D01*
X100127000Y-79947394D01*
X100127000Y-74250000D01*
X110132969Y-74250000D01*
X110165001Y-74411034D01*
X110165000Y-82798970D01*
X110132969Y-82960000D01*
X110165000Y-83121030D01*
X110259864Y-83597944D01*
X110621231Y-84138769D01*
X110757750Y-84229988D01*
X113417746Y-86889985D01*
X113822054Y-87160135D01*
X114459999Y-87287031D01*
X115097945Y-87160135D01*
X115330121Y-87005000D01*
X116115919Y-87005000D01*
X116001472Y-87081471D01*
X115695360Y-87539600D01*
X115615001Y-87943593D01*
X115615000Y-90032538D01*
X115465000Y-90394670D01*
X115465000Y-91005330D01*
X115698690Y-91569507D01*
X116130493Y-92001310D01*
X116694670Y-92235000D01*
X117305330Y-92235000D01*
X117869507Y-92001310D01*
X118205841Y-91664976D01*
X122613352Y-91664976D01*
X123125620Y-92910371D01*
X123135068Y-92924513D01*
X123583734Y-93236661D01*
X125820395Y-91000000D01*
X123583734Y-88763339D01*
X123135068Y-89075487D01*
X122616669Y-90318343D01*
X122613352Y-91664976D01*
X118205841Y-91664976D01*
X118301310Y-91569507D01*
X118535000Y-91005330D01*
X118535000Y-90394670D01*
X118385000Y-90032538D01*
X118385000Y-88583734D01*
X123763339Y-88583734D01*
X126000000Y-90820395D01*
X128236661Y-88583734D01*
X127924513Y-88135068D01*
X126681657Y-87616669D01*
X125335024Y-87613352D01*
X124089629Y-88125620D01*
X124075487Y-88135068D01*
X123763339Y-88583734D01*
X118385000Y-88583734D01*
X118385000Y-87943593D01*
X118304641Y-87539600D01*
X117998529Y-87081471D01*
X117644625Y-86845000D01*
X119001410Y-86845000D01*
X119539999Y-86952133D01*
X120080399Y-86844640D01*
X120538528Y-86538528D01*
X120844640Y-86080399D01*
X120952133Y-85539999D01*
X120844640Y-84999600D01*
X120615797Y-84657112D01*
X120535800Y-84577115D01*
X120458529Y-84461471D01*
X120000400Y-84155359D01*
X119596407Y-84075000D01*
X119460000Y-84047867D01*
X119323593Y-84075000D01*
X117884081Y-84075000D01*
X117998528Y-83998529D01*
X118304641Y-83540400D01*
X118385000Y-83136407D01*
X118385000Y-78667462D01*
X118535000Y-78305330D01*
X118535000Y-77694670D01*
X118301310Y-77130493D01*
X117869507Y-76698690D01*
X117305330Y-76465000D01*
X116694670Y-76465000D01*
X116130493Y-76698690D01*
X115698690Y-77130493D01*
X115465000Y-77694670D01*
X115465000Y-78305330D01*
X115615001Y-78667464D01*
X115615000Y-83136406D01*
X115695359Y-83540399D01*
X116001471Y-83998528D01*
X116347892Y-84230000D01*
X116340409Y-84235000D01*
X115387239Y-84235000D01*
X113435000Y-82282762D01*
X113435000Y-74927238D01*
X116989213Y-71373026D01*
X117592767Y-71123026D01*
X117930043Y-70785750D01*
X123315000Y-70785750D01*
X123315000Y-71626309D01*
X123411673Y-71859698D01*
X123590301Y-72038327D01*
X123823690Y-72135000D01*
X124964250Y-72135000D01*
X125123000Y-71976250D01*
X125123000Y-70627000D01*
X125377000Y-70627000D01*
X125377000Y-71976250D01*
X125535750Y-72135000D01*
X126676310Y-72135000D01*
X126909699Y-72038327D01*
X127088327Y-71859698D01*
X127185000Y-71626309D01*
X127185000Y-70785750D01*
X127026250Y-70627000D01*
X125377000Y-70627000D01*
X125123000Y-70627000D01*
X123473750Y-70627000D01*
X123315000Y-70785750D01*
X117930043Y-70785750D01*
X118123026Y-70592767D01*
X118410000Y-69899950D01*
X118410000Y-69150050D01*
X118123026Y-68457233D01*
X117625793Y-67960000D01*
X123282969Y-67960000D01*
X123409864Y-68597945D01*
X123639330Y-68941365D01*
X123590301Y-68961673D01*
X123411673Y-69140302D01*
X123315000Y-69373691D01*
X123315000Y-70214250D01*
X123473750Y-70373000D01*
X125123000Y-70373000D01*
X125123000Y-70353000D01*
X125377000Y-70353000D01*
X125377000Y-70373000D01*
X127026250Y-70373000D01*
X127185000Y-70214250D01*
X127185000Y-69373691D01*
X127088327Y-69140302D01*
X126909699Y-68961673D01*
X126860670Y-68941365D01*
X127090136Y-68597945D01*
X127217031Y-67960000D01*
X127090136Y-67322055D01*
X126728769Y-66781231D01*
X126187945Y-66419864D01*
X125711031Y-66325000D01*
X124788969Y-66325000D01*
X124312055Y-66419864D01*
X123771231Y-66781231D01*
X123409864Y-67322055D01*
X123282969Y-67960000D01*
X117625793Y-67960000D01*
X117592767Y-67926974D01*
X116899950Y-67640000D01*
X116150050Y-67640000D01*
X115457233Y-67926974D01*
X114926974Y-68457233D01*
X114676974Y-69060787D01*
X110757748Y-72980014D01*
X110621232Y-73071231D01*
X110530015Y-73207747D01*
X110259865Y-73612055D01*
X110132969Y-74250000D01*
X100127000Y-74250000D01*
X100127000Y-70858320D01*
X105846285Y-70858320D01*
X105975533Y-71151123D01*
X106675806Y-71419388D01*
X107425435Y-71399250D01*
X108024467Y-71151123D01*
X108153715Y-70858320D01*
X107000000Y-69704605D01*
X105846285Y-70858320D01*
X100127000Y-70858320D01*
X100127000Y-69200806D01*
X105105612Y-69200806D01*
X105125750Y-69950435D01*
X105373877Y-70549467D01*
X105666680Y-70678715D01*
X106820395Y-69525000D01*
X107179605Y-69525000D01*
X108333320Y-70678715D01*
X108626123Y-70549467D01*
X108894388Y-69849194D01*
X108874250Y-69099565D01*
X108626123Y-68500533D01*
X108333320Y-68371285D01*
X107179605Y-69525000D01*
X106820395Y-69525000D01*
X105666680Y-68371285D01*
X105373877Y-68500533D01*
X105105612Y-69200806D01*
X100127000Y-69200806D01*
X100127000Y-68191680D01*
X105846285Y-68191680D01*
X107000000Y-69345395D01*
X108153715Y-68191680D01*
X108024467Y-67898877D01*
X107324194Y-67630612D01*
X106574565Y-67650750D01*
X105975533Y-67898877D01*
X105846285Y-68191680D01*
X100127000Y-68191680D01*
X100127000Y-67000000D01*
X100117333Y-66951399D01*
X100089803Y-66910197D01*
X100048601Y-66882667D01*
X100000000Y-66873000D01*
X95000000Y-66873000D01*
X94951399Y-66882667D01*
X94910197Y-66910197D01*
X94882667Y-66951399D01*
X94873000Y-67000000D01*
X94873000Y-82000000D01*
X94882667Y-82048601D01*
X94910197Y-82089803D01*
X96873000Y-84052606D01*
X96873000Y-85653016D01*
X96435725Y-85834141D01*
X96306517Y-86126911D01*
X97460000Y-87280395D01*
X97474143Y-87266253D01*
X97653748Y-87445858D01*
X97639605Y-87460000D01*
X97653748Y-87474143D01*
X97474142Y-87653748D01*
X97460000Y-87639605D01*
X96306517Y-88793089D01*
X96435725Y-89085859D01*
X97135883Y-89354071D01*
X97885384Y-89333928D01*
X98365000Y-89135264D01*
X98365000Y-90161030D01*
X98365510Y-90163594D01*
X98365510Y-90325120D01*
X98391497Y-90387859D01*
X98336310Y-90365000D01*
X97745750Y-90365000D01*
X97587000Y-90523750D01*
X97587000Y-90651227D01*
X97333000Y-90658053D01*
X97333000Y-90523750D01*
X97174250Y-90365000D01*
X96583690Y-90365000D01*
X96350301Y-90461673D01*
X96171673Y-90640302D01*
X96075000Y-90873691D01*
X96075000Y-91210962D01*
X96013177Y-91272785D01*
X96075000Y-91334608D01*
X96075000Y-91409427D01*
X95834141Y-91515725D01*
X95565929Y-92215883D01*
X95586072Y-92965384D01*
X95834141Y-93564275D01*
X96075000Y-93670573D01*
X96075000Y-93745392D01*
X96013177Y-93807215D01*
X96075000Y-93869038D01*
X96075000Y-94290000D01*
X84899941Y-94290000D01*
X85910371Y-93874380D01*
X85924513Y-93864932D01*
X86236661Y-93416266D01*
X84000000Y-91179605D01*
X81763339Y-93416266D01*
X82075487Y-93864932D01*
X83094583Y-94290000D01*
X80710000Y-94290000D01*
X80710000Y-91899941D01*
X81125620Y-92910371D01*
X81135068Y-92924513D01*
X81583734Y-93236661D01*
X83820395Y-91000000D01*
X84179605Y-91000000D01*
X86416266Y-93236661D01*
X86864932Y-92924513D01*
X87383331Y-91681657D01*
X87386648Y-90335024D01*
X86874380Y-89089629D01*
X86864932Y-89075487D01*
X86416266Y-88763339D01*
X84179605Y-91000000D01*
X83820395Y-91000000D01*
X81583734Y-88763339D01*
X81135068Y-89075487D01*
X80710000Y-90094583D01*
X80710000Y-88583734D01*
X81763339Y-88583734D01*
X84000000Y-90820395D01*
X86236661Y-88583734D01*
X85924513Y-88135068D01*
X84681657Y-87616669D01*
X83335024Y-87613352D01*
X82089629Y-88125620D01*
X82075487Y-88135068D01*
X81763339Y-88583734D01*
X80710000Y-88583734D01*
X80710000Y-87135883D01*
X95565929Y-87135883D01*
X95586072Y-87885384D01*
X95834141Y-88484275D01*
X96126911Y-88613483D01*
X97280395Y-87460000D01*
X96126911Y-86306517D01*
X95834141Y-86435725D01*
X95565929Y-87135883D01*
X80710000Y-87135883D01*
X80710000Y-51416266D01*
X81763339Y-51416266D01*
X82075487Y-51864932D01*
X83318343Y-52383331D01*
X84664976Y-52386648D01*
X85910371Y-51874380D01*
X85924513Y-51864932D01*
X86236661Y-51416266D01*
X84000000Y-49179605D01*
X81763339Y-51416266D01*
X80710000Y-51416266D01*
X80710000Y-49899941D01*
X81125620Y-50910371D01*
X81135068Y-50924513D01*
X81583734Y-51236661D01*
X83820395Y-49000000D01*
X84179605Y-49000000D01*
X86416266Y-51236661D01*
X86864932Y-50924513D01*
X87208818Y-50100050D01*
X95590000Y-50100050D01*
X95590000Y-50849950D01*
X95876974Y-51542767D01*
X96407233Y-52073026D01*
X97100050Y-52360000D01*
X97849950Y-52360000D01*
X98542767Y-52073026D01*
X99073026Y-51542767D01*
X99360000Y-50849950D01*
X99360000Y-50100050D01*
X114640000Y-50100050D01*
X114640000Y-50849950D01*
X114926974Y-51542767D01*
X115457233Y-52073026D01*
X116150050Y-52360000D01*
X116899950Y-52360000D01*
X117592767Y-52073026D01*
X118123026Y-51542767D01*
X118175424Y-51416266D01*
X123763339Y-51416266D01*
X124075487Y-51864932D01*
X125318343Y-52383331D01*
X126664976Y-52386648D01*
X127910371Y-51874380D01*
X127924513Y-51864932D01*
X128236661Y-51416266D01*
X126000000Y-49179605D01*
X123763339Y-51416266D01*
X118175424Y-51416266D01*
X118410000Y-50849950D01*
X118410000Y-50100050D01*
X118229787Y-49664976D01*
X122613352Y-49664976D01*
X123125620Y-50910371D01*
X123135068Y-50924513D01*
X123583734Y-51236661D01*
X125820395Y-49000000D01*
X123583734Y-46763339D01*
X123135068Y-47075487D01*
X122616669Y-48318343D01*
X122613352Y-49664976D01*
X118229787Y-49664976D01*
X118123026Y-49407233D01*
X117592767Y-48876974D01*
X116899950Y-48590000D01*
X116150050Y-48590000D01*
X115457233Y-48876974D01*
X114926974Y-49407233D01*
X114640000Y-50100050D01*
X99360000Y-50100050D01*
X99073026Y-49407233D01*
X98542767Y-48876974D01*
X97849950Y-48590000D01*
X97100050Y-48590000D01*
X96407233Y-48876974D01*
X95876974Y-49407233D01*
X95590000Y-50100050D01*
X87208818Y-50100050D01*
X87383331Y-49681657D01*
X87386648Y-48335024D01*
X86874380Y-47089629D01*
X86864932Y-47075487D01*
X86416266Y-46763339D01*
X84179605Y-49000000D01*
X83820395Y-49000000D01*
X81583734Y-46763339D01*
X81135068Y-47075487D01*
X80710000Y-48094583D01*
X80710000Y-45710000D01*
X83100059Y-45710000D01*
X82089629Y-46125620D01*
X82089629Y-46125620D01*
G37*
X82089629Y-46125620D02*
X82075487Y-46135068D01*
X81763339Y-46583734D01*
X84000000Y-48820395D01*
X86236661Y-46583734D01*
X85924513Y-46135068D01*
X84905417Y-45710000D01*
X125100059Y-45710000D01*
X124089629Y-46125620D01*
X124075487Y-46135068D01*
X123763339Y-46583734D01*
X126000000Y-48820395D01*
X128236661Y-46583734D01*
X127924513Y-46135068D01*
X126905417Y-45710000D01*
X129290000Y-45710000D01*
X129290000Y-48100059D01*
X128874380Y-47089629D01*
X128864932Y-47075487D01*
X128416266Y-46763339D01*
X126179605Y-49000000D01*
X128416266Y-51236661D01*
X128864932Y-50924513D01*
X129290000Y-49905417D01*
X129290001Y-90100061D01*
X128874380Y-89089629D01*
X128864932Y-89075487D01*
X128416266Y-88763339D01*
X126179605Y-91000000D01*
X128416266Y-93236661D01*
X128864932Y-92924513D01*
X129290001Y-91905415D01*
X129290001Y-94290000D01*
X126899941Y-94290000D01*
X127910371Y-93874380D01*
X127924513Y-93864932D01*
X128236661Y-93416266D01*
X126000000Y-91179605D01*
X123763339Y-93416266D01*
X124075487Y-93864932D01*
X125094583Y-94290000D01*
X103925000Y-94290000D01*
X103925000Y-93869038D01*
X103986823Y-93807215D01*
X103925000Y-93745392D01*
X103925000Y-93670573D01*
X104165859Y-93564275D01*
X104434071Y-92864117D01*
X104413928Y-92114616D01*
X104165859Y-91515725D01*
X103925000Y-91409427D01*
X103925000Y-91334608D01*
X103986823Y-91272785D01*
X103925000Y-91210962D01*
X103925000Y-90873691D01*
X103828327Y-90640302D01*
X103649699Y-90461673D01*
X103416310Y-90365000D01*
X102825750Y-90365000D01*
X102667000Y-90523750D01*
X102667000Y-90651227D01*
X102413000Y-90658053D01*
X102413000Y-90523750D01*
X102254250Y-90365000D01*
X101663690Y-90365000D01*
X101608503Y-90387859D01*
X101634490Y-90325120D01*
X101634490Y-90163595D01*
X101635000Y-90161031D01*
X101635000Y-89131550D01*
X102215883Y-89354071D01*
X102965384Y-89333928D01*
X103564275Y-89085859D01*
X103693483Y-88793089D01*
X102540000Y-87639605D01*
X102525858Y-87653748D01*
X102346252Y-87474142D01*
X102360395Y-87460000D01*
X102719605Y-87460000D01*
X103873089Y-88613483D01*
X104165859Y-88484275D01*
X104434071Y-87784117D01*
X104413928Y-87034616D01*
X104165859Y-86435725D01*
X103873089Y-86306517D01*
X102719605Y-87460000D01*
X102360395Y-87460000D01*
X102346252Y-87445858D01*
X102525858Y-87266252D01*
X102540000Y-87280395D01*
X103693483Y-86126911D01*
X103564275Y-85834141D01*
X102864117Y-85565929D01*
X102127000Y-85585739D01*
X102127000Y-82000000D01*
X102117333Y-81951399D01*
X102089803Y-81910197D01*
X100127000Y-79947394D01*
X100127000Y-74250000D01*
X110132969Y-74250000D01*
X110165001Y-74411034D01*
X110165000Y-82798970D01*
X110132969Y-82960000D01*
X110165000Y-83121030D01*
X110259864Y-83597944D01*
X110621231Y-84138769D01*
X110757750Y-84229988D01*
X113417746Y-86889985D01*
X113822054Y-87160135D01*
X114459999Y-87287031D01*
X115097945Y-87160135D01*
X115330121Y-87005000D01*
X116115919Y-87005000D01*
X116001472Y-87081471D01*
X115695360Y-87539600D01*
X115615001Y-87943593D01*
X115615000Y-90032538D01*
X115465000Y-90394670D01*
X115465000Y-91005330D01*
X115698690Y-91569507D01*
X116130493Y-92001310D01*
X116694670Y-92235000D01*
X117305330Y-92235000D01*
X117869507Y-92001310D01*
X118205841Y-91664976D01*
X122613352Y-91664976D01*
X123125620Y-92910371D01*
X123135068Y-92924513D01*
X123583734Y-93236661D01*
X125820395Y-91000000D01*
X123583734Y-88763339D01*
X123135068Y-89075487D01*
X122616669Y-90318343D01*
X122613352Y-91664976D01*
X118205841Y-91664976D01*
X118301310Y-91569507D01*
X118535000Y-91005330D01*
X118535000Y-90394670D01*
X118385000Y-90032538D01*
X118385000Y-88583734D01*
X123763339Y-88583734D01*
X126000000Y-90820395D01*
X128236661Y-88583734D01*
X127924513Y-88135068D01*
X126681657Y-87616669D01*
X125335024Y-87613352D01*
X124089629Y-88125620D01*
X124075487Y-88135068D01*
X123763339Y-88583734D01*
X118385000Y-88583734D01*
X118385000Y-87943593D01*
X118304641Y-87539600D01*
X117998529Y-87081471D01*
X117644625Y-86845000D01*
X119001410Y-86845000D01*
X119539999Y-86952133D01*
X120080399Y-86844640D01*
X120538528Y-86538528D01*
X120844640Y-86080399D01*
X120952133Y-85539999D01*
X120844640Y-84999600D01*
X120615797Y-84657112D01*
X120535800Y-84577115D01*
X120458529Y-84461471D01*
X120000400Y-84155359D01*
X119596407Y-84075000D01*
X119460000Y-84047867D01*
X119323593Y-84075000D01*
X117884081Y-84075000D01*
X117998528Y-83998529D01*
X118304641Y-83540400D01*
X118385000Y-83136407D01*
X118385000Y-78667462D01*
X118535000Y-78305330D01*
X118535000Y-77694670D01*
X118301310Y-77130493D01*
X117869507Y-76698690D01*
X117305330Y-76465000D01*
X116694670Y-76465000D01*
X116130493Y-76698690D01*
X115698690Y-77130493D01*
X115465000Y-77694670D01*
X115465000Y-78305330D01*
X115615001Y-78667464D01*
X115615000Y-83136406D01*
X115695359Y-83540399D01*
X116001471Y-83998528D01*
X116347892Y-84230000D01*
X116340409Y-84235000D01*
X115387239Y-84235000D01*
X113435000Y-82282762D01*
X113435000Y-74927238D01*
X116989213Y-71373026D01*
X117592767Y-71123026D01*
X117930043Y-70785750D01*
X123315000Y-70785750D01*
X123315000Y-71626309D01*
X123411673Y-71859698D01*
X123590301Y-72038327D01*
X123823690Y-72135000D01*
X124964250Y-72135000D01*
X125123000Y-71976250D01*
X125123000Y-70627000D01*
X125377000Y-70627000D01*
X125377000Y-71976250D01*
X125535750Y-72135000D01*
X126676310Y-72135000D01*
X126909699Y-72038327D01*
X127088327Y-71859698D01*
X127185000Y-71626309D01*
X127185000Y-70785750D01*
X127026250Y-70627000D01*
X125377000Y-70627000D01*
X125123000Y-70627000D01*
X123473750Y-70627000D01*
X123315000Y-70785750D01*
X117930043Y-70785750D01*
X118123026Y-70592767D01*
X118410000Y-69899950D01*
X118410000Y-69150050D01*
X118123026Y-68457233D01*
X117625793Y-67960000D01*
X123282969Y-67960000D01*
X123409864Y-68597945D01*
X123639330Y-68941365D01*
X123590301Y-68961673D01*
X123411673Y-69140302D01*
X123315000Y-69373691D01*
X123315000Y-70214250D01*
X123473750Y-70373000D01*
X125123000Y-70373000D01*
X125123000Y-70353000D01*
X125377000Y-70353000D01*
X125377000Y-70373000D01*
X127026250Y-70373000D01*
X127185000Y-70214250D01*
X127185000Y-69373691D01*
X127088327Y-69140302D01*
X126909699Y-68961673D01*
X126860670Y-68941365D01*
X127090136Y-68597945D01*
X127217031Y-67960000D01*
X127090136Y-67322055D01*
X126728769Y-66781231D01*
X126187945Y-66419864D01*
X125711031Y-66325000D01*
X124788969Y-66325000D01*
X124312055Y-66419864D01*
X123771231Y-66781231D01*
X123409864Y-67322055D01*
X123282969Y-67960000D01*
X117625793Y-67960000D01*
X117592767Y-67926974D01*
X116899950Y-67640000D01*
X116150050Y-67640000D01*
X115457233Y-67926974D01*
X114926974Y-68457233D01*
X114676974Y-69060787D01*
X110757748Y-72980014D01*
X110621232Y-73071231D01*
X110530015Y-73207747D01*
X110259865Y-73612055D01*
X110132969Y-74250000D01*
X100127000Y-74250000D01*
X100127000Y-70858320D01*
X105846285Y-70858320D01*
X105975533Y-71151123D01*
X106675806Y-71419388D01*
X107425435Y-71399250D01*
X108024467Y-71151123D01*
X108153715Y-70858320D01*
X107000000Y-69704605D01*
X105846285Y-70858320D01*
X100127000Y-70858320D01*
X100127000Y-69200806D01*
X105105612Y-69200806D01*
X105125750Y-69950435D01*
X105373877Y-70549467D01*
X105666680Y-70678715D01*
X106820395Y-69525000D01*
X107179605Y-69525000D01*
X108333320Y-70678715D01*
X108626123Y-70549467D01*
X108894388Y-69849194D01*
X108874250Y-69099565D01*
X108626123Y-68500533D01*
X108333320Y-68371285D01*
X107179605Y-69525000D01*
X106820395Y-69525000D01*
X105666680Y-68371285D01*
X105373877Y-68500533D01*
X105105612Y-69200806D01*
X100127000Y-69200806D01*
X100127000Y-68191680D01*
X105846285Y-68191680D01*
X107000000Y-69345395D01*
X108153715Y-68191680D01*
X108024467Y-67898877D01*
X107324194Y-67630612D01*
X106574565Y-67650750D01*
X105975533Y-67898877D01*
X105846285Y-68191680D01*
X100127000Y-68191680D01*
X100127000Y-67000000D01*
X100117333Y-66951399D01*
X100089803Y-66910197D01*
X100048601Y-66882667D01*
X100000000Y-66873000D01*
X95000000Y-66873000D01*
X94951399Y-66882667D01*
X94910197Y-66910197D01*
X94882667Y-66951399D01*
X94873000Y-67000000D01*
X94873000Y-82000000D01*
X94882667Y-82048601D01*
X94910197Y-82089803D01*
X96873000Y-84052606D01*
X96873000Y-85653016D01*
X96435725Y-85834141D01*
X96306517Y-86126911D01*
X97460000Y-87280395D01*
X97474143Y-87266253D01*
X97653748Y-87445858D01*
X97639605Y-87460000D01*
X97653748Y-87474143D01*
X97474142Y-87653748D01*
X97460000Y-87639605D01*
X96306517Y-88793089D01*
X96435725Y-89085859D01*
X97135883Y-89354071D01*
X97885384Y-89333928D01*
X98365000Y-89135264D01*
X98365000Y-90161030D01*
X98365510Y-90163594D01*
X98365510Y-90325120D01*
X98391497Y-90387859D01*
X98336310Y-90365000D01*
X97745750Y-90365000D01*
X97587000Y-90523750D01*
X97587000Y-90651227D01*
X97333000Y-90658053D01*
X97333000Y-90523750D01*
X97174250Y-90365000D01*
X96583690Y-90365000D01*
X96350301Y-90461673D01*
X96171673Y-90640302D01*
X96075000Y-90873691D01*
X96075000Y-91210962D01*
X96013177Y-91272785D01*
X96075000Y-91334608D01*
X96075000Y-91409427D01*
X95834141Y-91515725D01*
X95565929Y-92215883D01*
X95586072Y-92965384D01*
X95834141Y-93564275D01*
X96075000Y-93670573D01*
X96075000Y-93745392D01*
X96013177Y-93807215D01*
X96075000Y-93869038D01*
X96075000Y-94290000D01*
X84899941Y-94290000D01*
X85910371Y-93874380D01*
X85924513Y-93864932D01*
X86236661Y-93416266D01*
X84000000Y-91179605D01*
X81763339Y-93416266D01*
X82075487Y-93864932D01*
X83094583Y-94290000D01*
X80710000Y-94290000D01*
X80710000Y-91899941D01*
X81125620Y-92910371D01*
X81135068Y-92924513D01*
X81583734Y-93236661D01*
X83820395Y-91000000D01*
X84179605Y-91000000D01*
X86416266Y-93236661D01*
X86864932Y-92924513D01*
X87383331Y-91681657D01*
X87386648Y-90335024D01*
X86874380Y-89089629D01*
X86864932Y-89075487D01*
X86416266Y-88763339D01*
X84179605Y-91000000D01*
X83820395Y-91000000D01*
X81583734Y-88763339D01*
X81135068Y-89075487D01*
X80710000Y-90094583D01*
X80710000Y-88583734D01*
X81763339Y-88583734D01*
X84000000Y-90820395D01*
X86236661Y-88583734D01*
X85924513Y-88135068D01*
X84681657Y-87616669D01*
X83335024Y-87613352D01*
X82089629Y-88125620D01*
X82075487Y-88135068D01*
X81763339Y-88583734D01*
X80710000Y-88583734D01*
X80710000Y-87135883D01*
X95565929Y-87135883D01*
X95586072Y-87885384D01*
X95834141Y-88484275D01*
X96126911Y-88613483D01*
X97280395Y-87460000D01*
X96126911Y-86306517D01*
X95834141Y-86435725D01*
X95565929Y-87135883D01*
X80710000Y-87135883D01*
X80710000Y-51416266D01*
X81763339Y-51416266D01*
X82075487Y-51864932D01*
X83318343Y-52383331D01*
X84664976Y-52386648D01*
X85910371Y-51874380D01*
X85924513Y-51864932D01*
X86236661Y-51416266D01*
X84000000Y-49179605D01*
X81763339Y-51416266D01*
X80710000Y-51416266D01*
X80710000Y-49899941D01*
X81125620Y-50910371D01*
X81135068Y-50924513D01*
X81583734Y-51236661D01*
X83820395Y-49000000D01*
X84179605Y-49000000D01*
X86416266Y-51236661D01*
X86864932Y-50924513D01*
X87208818Y-50100050D01*
X95590000Y-50100050D01*
X95590000Y-50849950D01*
X95876974Y-51542767D01*
X96407233Y-52073026D01*
X97100050Y-52360000D01*
X97849950Y-52360000D01*
X98542767Y-52073026D01*
X99073026Y-51542767D01*
X99360000Y-50849950D01*
X99360000Y-50100050D01*
X114640000Y-50100050D01*
X114640000Y-50849950D01*
X114926974Y-51542767D01*
X115457233Y-52073026D01*
X116150050Y-52360000D01*
X116899950Y-52360000D01*
X117592767Y-52073026D01*
X118123026Y-51542767D01*
X118175424Y-51416266D01*
X123763339Y-51416266D01*
X124075487Y-51864932D01*
X125318343Y-52383331D01*
X126664976Y-52386648D01*
X127910371Y-51874380D01*
X127924513Y-51864932D01*
X128236661Y-51416266D01*
X126000000Y-49179605D01*
X123763339Y-51416266D01*
X118175424Y-51416266D01*
X118410000Y-50849950D01*
X118410000Y-50100050D01*
X118229787Y-49664976D01*
X122613352Y-49664976D01*
X123125620Y-50910371D01*
X123135068Y-50924513D01*
X123583734Y-51236661D01*
X125820395Y-49000000D01*
X123583734Y-46763339D01*
X123135068Y-47075487D01*
X122616669Y-48318343D01*
X122613352Y-49664976D01*
X118229787Y-49664976D01*
X118123026Y-49407233D01*
X117592767Y-48876974D01*
X116899950Y-48590000D01*
X116150050Y-48590000D01*
X115457233Y-48876974D01*
X114926974Y-49407233D01*
X114640000Y-50100050D01*
X99360000Y-50100050D01*
X99073026Y-49407233D01*
X98542767Y-48876974D01*
X97849950Y-48590000D01*
X97100050Y-48590000D01*
X96407233Y-48876974D01*
X95876974Y-49407233D01*
X95590000Y-50100050D01*
X87208818Y-50100050D01*
X87383331Y-49681657D01*
X87386648Y-48335024D01*
X86874380Y-47089629D01*
X86864932Y-47075487D01*
X86416266Y-46763339D01*
X84179605Y-49000000D01*
X83820395Y-49000000D01*
X81583734Y-46763339D01*
X81135068Y-47075487D01*
X80710000Y-48094583D01*
X80710000Y-45710000D01*
X83100059Y-45710000D01*
X82089629Y-46125620D01*
G36*
X102667000Y-92459110D02*
X102667000Y-92620890D01*
X102554143Y-92733748D01*
X102540000Y-92719605D01*
X102525858Y-92733748D01*
X102413000Y-92620890D01*
X102413000Y-92459110D01*
X102525858Y-92346253D01*
X102540000Y-92360395D01*
X102554143Y-92346253D01*
X102667000Y-92459110D01*
X102667000Y-92459110D01*
G37*
X102667000Y-92459110D02*
X102667000Y-92620890D01*
X102554143Y-92733748D01*
X102540000Y-92719605D01*
X102525858Y-92733748D01*
X102413000Y-92620890D01*
X102413000Y-92459110D01*
X102525858Y-92346253D01*
X102540000Y-92360395D01*
X102554143Y-92346253D01*
X102667000Y-92459110D01*
G36*
X97587000Y-92459110D02*
X97587000Y-92620890D01*
X97474143Y-92733748D01*
X97460000Y-92719605D01*
X97445858Y-92733748D01*
X97333000Y-92620890D01*
X97333000Y-92459110D01*
X97445858Y-92346253D01*
X97460000Y-92360395D01*
X97474143Y-92346253D01*
X97587000Y-92459110D01*
X97587000Y-92459110D01*
G37*
X97587000Y-92459110D02*
X97587000Y-92620890D01*
X97474143Y-92733748D01*
X97460000Y-92719605D01*
X97445858Y-92733748D01*
X97333000Y-92620890D01*
X97333000Y-92459110D01*
X97445858Y-92346253D01*
X97460000Y-92360395D01*
X97474143Y-92346253D01*
X97587000Y-92459110D01*
G04 #@! TD*
M02*
