G04 #@! TF.GenerationSoftware,KiCad,Pcbnew,(5.0.2)-1*
G04 #@! TF.CreationDate,2019-03-14T17:14:39+01:00*
G04 #@! TF.ProjectId,ocxo,6f63786f-2e6b-4696-9361-645f70636258,rev?*
G04 #@! TF.SameCoordinates,Original*
G04 #@! TF.FileFunction,Copper,L2,Bot*
G04 #@! TF.FilePolarity,Positive*
%FSLAX46Y46*%
G04 Gerber Fmt 4.6, Leading zero omitted, Abs format (unit mm)*
G04 Created by KiCad (PCBNEW (5.0.2)-1) date 14/03/2019 17:14:39*
%MOMM*%
%LPD*%
G01*
G04 APERTURE LIST*
G04 #@! TA.AperFunction,NonConductor*
%ADD10C,0.150000*%
G04 #@! TD*
G04 #@! TA.AperFunction,ViaPad*
%ADD11C,0.600000*%
G04 #@! TD*
G04 #@! TA.AperFunction,SMDPad,CuDef*
%ADD12R,1.600000X2.000000*%
G04 #@! TD*
G04 #@! TA.AperFunction,SMDPad,CuDef*
%ADD13R,1.500000X1.250000*%
G04 #@! TD*
G04 #@! TA.AperFunction,SMDPad,CuDef*
%ADD14R,1.250000X1.500000*%
G04 #@! TD*
G04 #@! TA.AperFunction,SMDPad,CuDef*
%ADD15R,2.500000X3.750000*%
G04 #@! TD*
G04 #@! TA.AperFunction,ComponentPad*
%ADD16R,2.600000X2.000000*%
G04 #@! TD*
G04 #@! TA.AperFunction,ComponentPad*
%ADD17O,2.600000X2.000000*%
G04 #@! TD*
G04 #@! TA.AperFunction,ComponentPad*
%ADD18C,5.500000*%
G04 #@! TD*
G04 #@! TA.AperFunction,ComponentPad*
%ADD19C,1.998980*%
G04 #@! TD*
G04 #@! TA.AperFunction,ComponentPad*
%ADD20C,2.499360*%
G04 #@! TD*
G04 #@! TA.AperFunction,SMDPad,CuDef*
%ADD21R,1.500000X4.000000*%
G04 #@! TD*
G04 #@! TA.AperFunction,ComponentPad*
%ADD22C,2.500000*%
G04 #@! TD*
G04 #@! TA.AperFunction,SMDPad,CuDef*
%ADD23R,1.300000X1.500000*%
G04 #@! TD*
G04 #@! TA.AperFunction,ComponentPad*
%ADD24C,1.800000*%
G04 #@! TD*
G04 #@! TA.AperFunction,SMDPad,CuDef*
%ADD25R,2.000000X3.500000*%
G04 #@! TD*
G04 #@! TA.AperFunction,SMDPad,CuDef*
%ADD26R,7.000000X7.000000*%
G04 #@! TD*
G04 #@! TA.AperFunction,SMDPad,CuDef*
%ADD27R,0.508000X1.143000*%
G04 #@! TD*
G04 #@! TA.AperFunction,ComponentPad*
%ADD28C,1.440000*%
G04 #@! TD*
G04 #@! TA.AperFunction,SMDPad,CuDef*
%ADD29R,2.300000X3.500000*%
G04 #@! TD*
G04 #@! TA.AperFunction,Conductor*
%ADD30C,1.500000*%
G04 #@! TD*
G04 #@! TA.AperFunction,Conductor*
%ADD31C,0.250000*%
G04 #@! TD*
G04 #@! TA.AperFunction,Conductor*
%ADD32C,1.000000*%
G04 #@! TD*
G04 #@! TA.AperFunction,Conductor*
%ADD33C,0.700000*%
G04 #@! TD*
G04 #@! TA.AperFunction,Conductor*
%ADD34C,0.600000*%
G04 #@! TD*
G04 #@! TA.AperFunction,Conductor*
%ADD35C,0.254000*%
G04 #@! TD*
G04 APERTURE END LIST*
D10*
X80000000Y-95000000D02*
X80000000Y-45000000D01*
X130000000Y-95000000D02*
X80000000Y-95000000D01*
X130000000Y-45000000D02*
X130000000Y-95000000D01*
X80000000Y-45000000D02*
X130000000Y-45000000D01*
D11*
G04 #@! TO.N,GND*
G04 #@! TO.C,REF\002A\002A*
X129000000Y-87000000D03*
G04 #@! TD*
G04 #@! TO.N,GND*
G04 #@! TO.C,REF\002A\002A*
X128000000Y-87000000D03*
G04 #@! TD*
G04 #@! TO.N,GND*
G04 #@! TO.C,REF\002A\002A*
X129000000Y-86000000D03*
G04 #@! TD*
G04 #@! TO.N,GND*
G04 #@! TO.C,REF\002A\002A*
X128000000Y-86000000D03*
G04 #@! TD*
G04 #@! TO.N,GND*
G04 #@! TO.C,REF\002A\002A*
X129000000Y-85000000D03*
G04 #@! TD*
G04 #@! TO.N,GND*
G04 #@! TO.C,REF\002A\002A*
X128000000Y-85000000D03*
G04 #@! TD*
G04 #@! TO.N,GND*
G04 #@! TO.C,REF\002A\002A*
X129000000Y-84000000D03*
G04 #@! TD*
G04 #@! TO.N,GND*
G04 #@! TO.C,REF\002A\002A*
X128000000Y-84000000D03*
G04 #@! TD*
G04 #@! TO.N,GND*
G04 #@! TO.C,REF\002A\002A*
X129000000Y-83000000D03*
G04 #@! TD*
G04 #@! TO.N,GND*
G04 #@! TO.C,REF\002A\002A*
X128000000Y-83000000D03*
G04 #@! TD*
G04 #@! TO.N,GND*
G04 #@! TO.C,REF\002A\002A*
X129000000Y-82000000D03*
G04 #@! TD*
G04 #@! TO.N,GND*
G04 #@! TO.C,REF\002A\002A*
X128000000Y-82000000D03*
G04 #@! TD*
G04 #@! TO.N,GND*
G04 #@! TO.C,REF\002A\002A*
X129000000Y-81000000D03*
G04 #@! TD*
G04 #@! TO.N,GND*
G04 #@! TO.C,REF\002A\002A*
X128000000Y-81000000D03*
G04 #@! TD*
G04 #@! TO.N,GND*
G04 #@! TO.C,REF\002A\002A*
X129000000Y-80000000D03*
G04 #@! TD*
G04 #@! TO.N,GND*
G04 #@! TO.C,REF\002A\002A*
X128000000Y-80000000D03*
G04 #@! TD*
G04 #@! TO.N,GND*
G04 #@! TO.C,REF\002A\002A*
X129000000Y-79000000D03*
G04 #@! TD*
G04 #@! TO.N,GND*
G04 #@! TO.C,REF\002A\002A*
X128000000Y-79000000D03*
G04 #@! TD*
G04 #@! TO.N,GND*
G04 #@! TO.C,REF\002A\002A*
X129000000Y-78000000D03*
G04 #@! TD*
G04 #@! TO.N,GND*
G04 #@! TO.C,REF\002A\002A*
X128000000Y-78000000D03*
G04 #@! TD*
G04 #@! TO.N,GND*
G04 #@! TO.C,REF\002A\002A*
X129000000Y-77000000D03*
G04 #@! TD*
G04 #@! TO.N,GND*
G04 #@! TO.C,REF\002A\002A*
X128000000Y-77000000D03*
G04 #@! TD*
G04 #@! TO.N,GND*
G04 #@! TO.C,REF\002A\002A*
X129000000Y-76000000D03*
G04 #@! TD*
G04 #@! TO.N,GND*
G04 #@! TO.C,REF\002A\002A*
X128000000Y-76000000D03*
G04 #@! TD*
G04 #@! TO.N,GND*
G04 #@! TO.C,REF\002A\002A*
X129000000Y-75000000D03*
G04 #@! TD*
G04 #@! TO.N,GND*
G04 #@! TO.C,REF\002A\002A*
X128000000Y-75000000D03*
G04 #@! TD*
G04 #@! TO.N,GND*
G04 #@! TO.C,REF\002A\002A*
X129000000Y-74000000D03*
G04 #@! TD*
G04 #@! TO.N,GND*
G04 #@! TO.C,REF\002A\002A*
X128000000Y-74000000D03*
G04 #@! TD*
G04 #@! TO.N,GND*
G04 #@! TO.C,REF\002A\002A*
X129000000Y-73000000D03*
G04 #@! TD*
G04 #@! TO.N,GND*
G04 #@! TO.C,REF\002A\002A*
X128000000Y-73000000D03*
G04 #@! TD*
G04 #@! TO.N,GND*
G04 #@! TO.C,REF\002A\002A*
X129000000Y-72000000D03*
G04 #@! TD*
G04 #@! TO.N,GND*
G04 #@! TO.C,REF\002A\002A*
X128000000Y-72000000D03*
G04 #@! TD*
G04 #@! TO.N,GND*
G04 #@! TO.C,REF\002A\002A*
X129000000Y-71000000D03*
G04 #@! TD*
G04 #@! TO.N,GND*
G04 #@! TO.C,REF\002A\002A*
X128000000Y-71000000D03*
G04 #@! TD*
G04 #@! TO.N,GND*
G04 #@! TO.C,REF\002A\002A*
X129000000Y-70000000D03*
G04 #@! TD*
G04 #@! TO.N,GND*
G04 #@! TO.C,REF\002A\002A*
X128000000Y-70000000D03*
G04 #@! TD*
G04 #@! TO.N,GND*
G04 #@! TO.C,REF\002A\002A*
X129000000Y-69000000D03*
G04 #@! TD*
G04 #@! TO.N,GND*
G04 #@! TO.C,REF\002A\002A*
X128000000Y-69000000D03*
G04 #@! TD*
G04 #@! TO.N,GND*
G04 #@! TO.C,REF\002A\002A*
X129000000Y-68000000D03*
G04 #@! TD*
G04 #@! TO.N,GND*
G04 #@! TO.C,REF\002A\002A*
X128000000Y-68000000D03*
G04 #@! TD*
G04 #@! TO.N,GND*
G04 #@! TO.C,REF\002A\002A*
X129000000Y-67000000D03*
G04 #@! TD*
G04 #@! TO.N,GND*
G04 #@! TO.C,REF\002A\002A*
X128000000Y-67000000D03*
G04 #@! TD*
G04 #@! TO.N,GND*
G04 #@! TO.C,REF\002A\002A*
X129000000Y-66000000D03*
G04 #@! TD*
G04 #@! TO.N,GND*
G04 #@! TO.C,REF\002A\002A*
X128000000Y-66000000D03*
G04 #@! TD*
G04 #@! TO.N,GND*
G04 #@! TO.C,REF\002A\002A*
X129000000Y-65000000D03*
G04 #@! TD*
G04 #@! TO.N,GND*
G04 #@! TO.C,REF\002A\002A*
X128000000Y-65000000D03*
G04 #@! TD*
G04 #@! TO.N,GND*
G04 #@! TO.C,REF\002A\002A*
X129000000Y-64000000D03*
G04 #@! TD*
G04 #@! TO.N,GND*
G04 #@! TO.C,REF\002A\002A*
X128000000Y-64000000D03*
G04 #@! TD*
G04 #@! TO.N,GND*
G04 #@! TO.C,REF\002A\002A*
X129000000Y-63000000D03*
G04 #@! TD*
G04 #@! TO.N,GND*
G04 #@! TO.C,REF\002A\002A*
X128000000Y-63000000D03*
G04 #@! TD*
G04 #@! TO.N,GND*
G04 #@! TO.C,REF\002A\002A*
X129000000Y-62000000D03*
G04 #@! TD*
G04 #@! TO.N,GND*
G04 #@! TO.C,REF\002A\002A*
X128000000Y-62000000D03*
G04 #@! TD*
G04 #@! TO.N,GND*
G04 #@! TO.C,REF\002A\002A*
X129000000Y-61000000D03*
G04 #@! TD*
G04 #@! TO.N,GND*
G04 #@! TO.C,REF\002A\002A*
X128000000Y-61000000D03*
G04 #@! TD*
G04 #@! TO.N,GND*
G04 #@! TO.C,REF\002A\002A*
X129000000Y-60000000D03*
G04 #@! TD*
G04 #@! TO.N,GND*
G04 #@! TO.C,REF\002A\002A*
X128000000Y-60000000D03*
G04 #@! TD*
G04 #@! TO.N,GND*
G04 #@! TO.C,REF\002A\002A*
X129000000Y-59000000D03*
G04 #@! TD*
G04 #@! TO.N,GND*
G04 #@! TO.C,REF\002A\002A*
X128000000Y-59000000D03*
G04 #@! TD*
G04 #@! TO.N,GND*
G04 #@! TO.C,REF\002A\002A*
X129000000Y-58000000D03*
G04 #@! TD*
G04 #@! TO.N,GND*
G04 #@! TO.C,REF\002A\002A*
X128000000Y-58000000D03*
G04 #@! TD*
G04 #@! TO.N,GND*
G04 #@! TO.C,REF\002A\002A*
X129000000Y-57000000D03*
G04 #@! TD*
G04 #@! TO.N,GND*
G04 #@! TO.C,REF\002A\002A*
X128000000Y-57000000D03*
G04 #@! TD*
G04 #@! TO.N,GND*
G04 #@! TO.C,REF\002A\002A*
X129000000Y-56000000D03*
G04 #@! TD*
G04 #@! TO.N,GND*
G04 #@! TO.C,REF\002A\002A*
X128000000Y-56000000D03*
G04 #@! TD*
G04 #@! TO.N,GND*
G04 #@! TO.C,REF\002A\002A*
X129000000Y-55000000D03*
G04 #@! TD*
G04 #@! TO.N,GND*
G04 #@! TO.C,REF\002A\002A*
X128000000Y-55000000D03*
G04 #@! TD*
G04 #@! TO.N,GND*
G04 #@! TO.C,REF\002A\002A*
X129000000Y-54000000D03*
G04 #@! TD*
G04 #@! TO.N,GND*
G04 #@! TO.C,REF\002A\002A*
X128000000Y-54000000D03*
G04 #@! TD*
G04 #@! TO.N,GND*
G04 #@! TO.C,REF\002A\002A*
X129000000Y-53000000D03*
G04 #@! TD*
G04 #@! TO.N,GND*
G04 #@! TO.C,REF\002A\002A*
X128000000Y-53000000D03*
G04 #@! TD*
G04 #@! TO.N,GND*
G04 #@! TO.C,REF\002A\002A*
X122000000Y-48000000D03*
G04 #@! TD*
G04 #@! TO.N,GND*
G04 #@! TO.C,REF\002A\002A*
X121000000Y-48000000D03*
G04 #@! TD*
G04 #@! TO.N,GND*
G04 #@! TO.C,REF\002A\002A*
X120000000Y-48000000D03*
G04 #@! TD*
G04 #@! TO.N,GND*
G04 #@! TO.C,REF\002A\002A*
X119000000Y-48000000D03*
G04 #@! TD*
G04 #@! TO.N,GND*
G04 #@! TO.C,REF\002A\002A*
X118000000Y-48000000D03*
G04 #@! TD*
G04 #@! TO.N,GND*
G04 #@! TO.C,REF\002A\002A*
X117000000Y-48000000D03*
G04 #@! TD*
G04 #@! TO.N,GND*
G04 #@! TO.C,REF\002A\002A*
X116000000Y-48000000D03*
G04 #@! TD*
G04 #@! TO.N,GND*
G04 #@! TO.C,REF\002A\002A*
X115000000Y-48000000D03*
G04 #@! TD*
G04 #@! TO.N,GND*
G04 #@! TO.C,REF\002A\002A*
X114000000Y-48000000D03*
G04 #@! TD*
G04 #@! TO.N,GND*
G04 #@! TO.C,REF\002A\002A*
X113000000Y-48000000D03*
G04 #@! TD*
G04 #@! TO.N,GND*
G04 #@! TO.C,REF\002A\002A*
X112000000Y-48000000D03*
G04 #@! TD*
G04 #@! TO.N,GND*
G04 #@! TO.C,REF\002A\002A*
X111000000Y-48000000D03*
G04 #@! TD*
G04 #@! TO.N,GND*
G04 #@! TO.C,REF\002A\002A*
X110000000Y-48000000D03*
G04 #@! TD*
G04 #@! TO.N,GND*
G04 #@! TO.C,REF\002A\002A*
X109000000Y-48000000D03*
G04 #@! TD*
G04 #@! TO.N,GND*
G04 #@! TO.C,REF\002A\002A*
X108000000Y-48000000D03*
G04 #@! TD*
G04 #@! TO.N,GND*
G04 #@! TO.C,REF\002A\002A*
X107000000Y-48000000D03*
G04 #@! TD*
G04 #@! TO.N,GND*
G04 #@! TO.C,REF\002A\002A*
X106000000Y-48000000D03*
G04 #@! TD*
G04 #@! TO.N,GND*
G04 #@! TO.C,REF\002A\002A*
X105000000Y-48000000D03*
G04 #@! TD*
G04 #@! TO.N,GND*
G04 #@! TO.C,REF\002A\002A*
X104000000Y-48000000D03*
G04 #@! TD*
G04 #@! TO.N,GND*
G04 #@! TO.C,REF\002A\002A*
X103000000Y-48000000D03*
G04 #@! TD*
G04 #@! TO.N,GND*
G04 #@! TO.C,REF\002A\002A*
X102000000Y-48000000D03*
G04 #@! TD*
G04 #@! TO.N,GND*
G04 #@! TO.C,REF\002A\002A*
X101000000Y-48000000D03*
G04 #@! TD*
G04 #@! TO.N,GND*
G04 #@! TO.C,REF\002A\002A*
X100000000Y-48000000D03*
G04 #@! TD*
G04 #@! TO.N,GND*
G04 #@! TO.C,REF\002A\002A*
X99000000Y-48000000D03*
G04 #@! TD*
G04 #@! TO.N,GND*
G04 #@! TO.C,REF\002A\002A*
X98000000Y-48000000D03*
G04 #@! TD*
G04 #@! TO.N,GND*
G04 #@! TO.C,REF\002A\002A*
X97000000Y-48000000D03*
G04 #@! TD*
G04 #@! TO.N,GND*
G04 #@! TO.C,REF\002A\002A*
X96000000Y-48000000D03*
G04 #@! TD*
G04 #@! TO.N,GND*
G04 #@! TO.C,REF\002A\002A*
X95000000Y-48000000D03*
G04 #@! TD*
G04 #@! TO.N,GND*
G04 #@! TO.C,REF\002A\002A*
X94000000Y-48000000D03*
G04 #@! TD*
G04 #@! TO.N,GND*
G04 #@! TO.C,REF\002A\002A*
X93000000Y-48000000D03*
G04 #@! TD*
G04 #@! TO.N,GND*
G04 #@! TO.C,REF\002A\002A*
X92000000Y-48000000D03*
G04 #@! TD*
G04 #@! TO.N,GND*
G04 #@! TO.C,REF\002A\002A*
X91000000Y-48000000D03*
G04 #@! TD*
G04 #@! TO.N,GND*
G04 #@! TO.C,REF\002A\002A*
X90000000Y-48000000D03*
G04 #@! TD*
G04 #@! TO.N,GND*
G04 #@! TO.C,REF\002A\002A*
X89000000Y-48000000D03*
G04 #@! TD*
G04 #@! TO.N,GND*
G04 #@! TO.C,REF\002A\002A*
X88000000Y-48000000D03*
G04 #@! TD*
G04 #@! TO.N,GND*
G04 #@! TO.C,REF\002A\002A*
X122000000Y-47000000D03*
G04 #@! TD*
G04 #@! TO.N,GND*
G04 #@! TO.C,REF\002A\002A*
X121000000Y-47000000D03*
G04 #@! TD*
G04 #@! TO.N,GND*
G04 #@! TO.C,REF\002A\002A*
X120000000Y-47000000D03*
G04 #@! TD*
G04 #@! TO.N,GND*
G04 #@! TO.C,REF\002A\002A*
X119000000Y-47000000D03*
G04 #@! TD*
G04 #@! TO.N,GND*
G04 #@! TO.C,REF\002A\002A*
X118000000Y-47000000D03*
G04 #@! TD*
G04 #@! TO.N,GND*
G04 #@! TO.C,REF\002A\002A*
X117000000Y-47000000D03*
G04 #@! TD*
G04 #@! TO.N,GND*
G04 #@! TO.C,REF\002A\002A*
X116000000Y-47000000D03*
G04 #@! TD*
G04 #@! TO.N,GND*
G04 #@! TO.C,REF\002A\002A*
X115000000Y-47000000D03*
G04 #@! TD*
G04 #@! TO.N,GND*
G04 #@! TO.C,REF\002A\002A*
X114000000Y-47000000D03*
G04 #@! TD*
G04 #@! TO.N,GND*
G04 #@! TO.C,REF\002A\002A*
X113000000Y-47000000D03*
G04 #@! TD*
G04 #@! TO.N,GND*
G04 #@! TO.C,REF\002A\002A*
X112000000Y-47000000D03*
G04 #@! TD*
G04 #@! TO.N,GND*
G04 #@! TO.C,REF\002A\002A*
X111000000Y-47000000D03*
G04 #@! TD*
G04 #@! TO.N,GND*
G04 #@! TO.C,REF\002A\002A*
X110000000Y-47000000D03*
G04 #@! TD*
G04 #@! TO.N,GND*
G04 #@! TO.C,REF\002A\002A*
X109000000Y-47000000D03*
G04 #@! TD*
G04 #@! TO.N,GND*
G04 #@! TO.C,REF\002A\002A*
X108000000Y-47000000D03*
G04 #@! TD*
G04 #@! TO.N,GND*
G04 #@! TO.C,REF\002A\002A*
X107000000Y-47000000D03*
G04 #@! TD*
G04 #@! TO.N,GND*
G04 #@! TO.C,REF\002A\002A*
X106000000Y-47000000D03*
G04 #@! TD*
G04 #@! TO.N,GND*
G04 #@! TO.C,REF\002A\002A*
X105000000Y-47000000D03*
G04 #@! TD*
G04 #@! TO.N,GND*
G04 #@! TO.C,REF\002A\002A*
X104000000Y-47000000D03*
G04 #@! TD*
G04 #@! TO.N,GND*
G04 #@! TO.C,REF\002A\002A*
X103000000Y-47000000D03*
G04 #@! TD*
G04 #@! TO.N,GND*
G04 #@! TO.C,REF\002A\002A*
X102000000Y-47000000D03*
G04 #@! TD*
G04 #@! TO.N,GND*
G04 #@! TO.C,REF\002A\002A*
X101000000Y-47000000D03*
G04 #@! TD*
G04 #@! TO.N,GND*
G04 #@! TO.C,REF\002A\002A*
X100000000Y-47000000D03*
G04 #@! TD*
G04 #@! TO.N,GND*
G04 #@! TO.C,REF\002A\002A*
X99000000Y-47000000D03*
G04 #@! TD*
G04 #@! TO.N,GND*
G04 #@! TO.C,REF\002A\002A*
X98000000Y-47000000D03*
G04 #@! TD*
G04 #@! TO.N,GND*
G04 #@! TO.C,REF\002A\002A*
X97000000Y-47000000D03*
G04 #@! TD*
G04 #@! TO.N,GND*
G04 #@! TO.C,REF\002A\002A*
X96000000Y-47000000D03*
G04 #@! TD*
G04 #@! TO.N,GND*
G04 #@! TO.C,REF\002A\002A*
X95000000Y-47000000D03*
G04 #@! TD*
G04 #@! TO.N,GND*
G04 #@! TO.C,REF\002A\002A*
X94000000Y-47000000D03*
G04 #@! TD*
G04 #@! TO.N,GND*
G04 #@! TO.C,REF\002A\002A*
X93000000Y-47000000D03*
G04 #@! TD*
G04 #@! TO.N,GND*
G04 #@! TO.C,REF\002A\002A*
X92000000Y-47000000D03*
G04 #@! TD*
G04 #@! TO.N,GND*
G04 #@! TO.C,REF\002A\002A*
X91000000Y-47000000D03*
G04 #@! TD*
G04 #@! TO.N,GND*
G04 #@! TO.C,REF\002A\002A*
X90000000Y-47000000D03*
G04 #@! TD*
G04 #@! TO.N,GND*
G04 #@! TO.C,REF\002A\002A*
X89000000Y-47000000D03*
G04 #@! TD*
G04 #@! TO.N,GND*
G04 #@! TO.C,REF\002A\002A*
X88000000Y-47000000D03*
G04 #@! TD*
G04 #@! TO.N,GND*
G04 #@! TO.C,REF\002A\002A*
X122000000Y-46000000D03*
G04 #@! TD*
G04 #@! TO.N,GND*
G04 #@! TO.C,REF\002A\002A*
X121000000Y-46000000D03*
G04 #@! TD*
G04 #@! TO.N,GND*
G04 #@! TO.C,REF\002A\002A*
X120000000Y-46000000D03*
G04 #@! TD*
G04 #@! TO.N,GND*
G04 #@! TO.C,REF\002A\002A*
X119000000Y-46000000D03*
G04 #@! TD*
G04 #@! TO.N,GND*
G04 #@! TO.C,REF\002A\002A*
X118000000Y-46000000D03*
G04 #@! TD*
G04 #@! TO.N,GND*
G04 #@! TO.C,REF\002A\002A*
X117000000Y-46000000D03*
G04 #@! TD*
G04 #@! TO.N,GND*
G04 #@! TO.C,REF\002A\002A*
X116000000Y-46000000D03*
G04 #@! TD*
G04 #@! TO.N,GND*
G04 #@! TO.C,REF\002A\002A*
X115000000Y-46000000D03*
G04 #@! TD*
G04 #@! TO.N,GND*
G04 #@! TO.C,REF\002A\002A*
X114000000Y-46000000D03*
G04 #@! TD*
G04 #@! TO.N,GND*
G04 #@! TO.C,REF\002A\002A*
X113000000Y-46000000D03*
G04 #@! TD*
G04 #@! TO.N,GND*
G04 #@! TO.C,REF\002A\002A*
X112000000Y-46000000D03*
G04 #@! TD*
G04 #@! TO.N,GND*
G04 #@! TO.C,REF\002A\002A*
X111000000Y-46000000D03*
G04 #@! TD*
G04 #@! TO.N,GND*
G04 #@! TO.C,REF\002A\002A*
X110000000Y-46000000D03*
G04 #@! TD*
G04 #@! TO.N,GND*
G04 #@! TO.C,REF\002A\002A*
X109000000Y-46000000D03*
G04 #@! TD*
G04 #@! TO.N,GND*
G04 #@! TO.C,REF\002A\002A*
X108000000Y-46000000D03*
G04 #@! TD*
G04 #@! TO.N,GND*
G04 #@! TO.C,REF\002A\002A*
X107000000Y-46000000D03*
G04 #@! TD*
G04 #@! TO.N,GND*
G04 #@! TO.C,REF\002A\002A*
X106000000Y-46000000D03*
G04 #@! TD*
G04 #@! TO.N,GND*
G04 #@! TO.C,REF\002A\002A*
X105000000Y-46000000D03*
G04 #@! TD*
G04 #@! TO.N,GND*
G04 #@! TO.C,REF\002A\002A*
X104000000Y-46000000D03*
G04 #@! TD*
G04 #@! TO.N,GND*
G04 #@! TO.C,REF\002A\002A*
X103000000Y-46000000D03*
G04 #@! TD*
G04 #@! TO.N,GND*
G04 #@! TO.C,REF\002A\002A*
X102000000Y-46000000D03*
G04 #@! TD*
G04 #@! TO.N,GND*
G04 #@! TO.C,REF\002A\002A*
X101000000Y-46000000D03*
G04 #@! TD*
G04 #@! TO.N,GND*
G04 #@! TO.C,REF\002A\002A*
X100000000Y-46000000D03*
G04 #@! TD*
G04 #@! TO.N,GND*
G04 #@! TO.C,REF\002A\002A*
X99000000Y-46000000D03*
G04 #@! TD*
G04 #@! TO.N,GND*
G04 #@! TO.C,REF\002A\002A*
X98000000Y-46000000D03*
G04 #@! TD*
G04 #@! TO.N,GND*
G04 #@! TO.C,REF\002A\002A*
X97000000Y-46000000D03*
G04 #@! TD*
G04 #@! TO.N,GND*
G04 #@! TO.C,REF\002A\002A*
X96000000Y-46000000D03*
G04 #@! TD*
G04 #@! TO.N,GND*
G04 #@! TO.C,REF\002A\002A*
X95000000Y-46000000D03*
G04 #@! TD*
G04 #@! TO.N,GND*
G04 #@! TO.C,REF\002A\002A*
X94000000Y-46000000D03*
G04 #@! TD*
G04 #@! TO.N,GND*
G04 #@! TO.C,REF\002A\002A*
X93000000Y-46000000D03*
G04 #@! TD*
G04 #@! TO.N,GND*
G04 #@! TO.C,REF\002A\002A*
X92000000Y-46000000D03*
G04 #@! TD*
G04 #@! TO.N,GND*
G04 #@! TO.C,REF\002A\002A*
X91000000Y-46000000D03*
G04 #@! TD*
G04 #@! TO.N,GND*
G04 #@! TO.C,REF\002A\002A*
X90000000Y-46000000D03*
G04 #@! TD*
G04 #@! TO.N,GND*
G04 #@! TO.C,REF\002A\002A*
X89000000Y-46000000D03*
G04 #@! TD*
G04 #@! TO.N,GND*
G04 #@! TO.C,REF\002A\002A*
X88000000Y-46000000D03*
G04 #@! TD*
G04 #@! TO.N,GND*
G04 #@! TO.C,REF\002A\002A*
X128000000Y-87000000D03*
G04 #@! TD*
G04 #@! TO.N,GND*
G04 #@! TO.C,REF\002A\002A*
X127000000Y-87000000D03*
G04 #@! TD*
G04 #@! TO.N,GND*
G04 #@! TO.C,REF\002A\002A*
X126000000Y-87000000D03*
G04 #@! TD*
G04 #@! TO.N,GND*
G04 #@! TO.C,REF\002A\002A*
X125000000Y-87000000D03*
G04 #@! TD*
G04 #@! TO.N,GND*
G04 #@! TO.C,REF\002A\002A*
X124000000Y-87000000D03*
G04 #@! TD*
G04 #@! TO.N,GND*
G04 #@! TO.C,REF\002A\002A*
X123000000Y-87000000D03*
G04 #@! TD*
G04 #@! TO.N,GND*
G04 #@! TO.C,REF\002A\002A*
X122000000Y-87000000D03*
G04 #@! TD*
G04 #@! TO.N,GND*
G04 #@! TO.C,REF\002A\002A*
X128000000Y-86000000D03*
G04 #@! TD*
G04 #@! TO.N,GND*
G04 #@! TO.C,REF\002A\002A*
X127000000Y-86000000D03*
G04 #@! TD*
G04 #@! TO.N,GND*
G04 #@! TO.C,REF\002A\002A*
X126000000Y-86000000D03*
G04 #@! TD*
G04 #@! TO.N,GND*
G04 #@! TO.C,REF\002A\002A*
X125000000Y-86000000D03*
G04 #@! TD*
G04 #@! TO.N,GND*
G04 #@! TO.C,REF\002A\002A*
X124000000Y-86000000D03*
G04 #@! TD*
G04 #@! TO.N,GND*
G04 #@! TO.C,REF\002A\002A*
X123000000Y-86000000D03*
G04 #@! TD*
G04 #@! TO.N,GND*
G04 #@! TO.C,REF\002A\002A*
X122000000Y-86000000D03*
G04 #@! TD*
G04 #@! TO.N,GND*
G04 #@! TO.C,REF\002A\002A*
X128000000Y-85000000D03*
G04 #@! TD*
G04 #@! TO.N,GND*
G04 #@! TO.C,REF\002A\002A*
X123000000Y-85000000D03*
G04 #@! TD*
G04 #@! TO.N,GND*
G04 #@! TO.C,REF\002A\002A*
X122000000Y-85000000D03*
G04 #@! TD*
G04 #@! TO.N,GND*
G04 #@! TO.C,REF\002A\002A*
X128000000Y-84000000D03*
G04 #@! TD*
G04 #@! TO.N,GND*
G04 #@! TO.C,REF\002A\002A*
X123000000Y-84000000D03*
G04 #@! TD*
G04 #@! TO.N,GND*
G04 #@! TO.C,REF\002A\002A*
X122000000Y-84000000D03*
G04 #@! TD*
G04 #@! TO.N,GND*
G04 #@! TO.C,REF\002A\002A*
X128000000Y-83000000D03*
G04 #@! TD*
G04 #@! TO.N,GND*
G04 #@! TO.C,REF\002A\002A*
X123000000Y-83000000D03*
G04 #@! TD*
G04 #@! TO.N,GND*
G04 #@! TO.C,REF\002A\002A*
X122000000Y-83000000D03*
G04 #@! TD*
G04 #@! TO.N,GND*
G04 #@! TO.C,REF\002A\002A*
X128000000Y-82000000D03*
G04 #@! TD*
G04 #@! TO.N,GND*
G04 #@! TO.C,REF\002A\002A*
X123000000Y-82000000D03*
G04 #@! TD*
G04 #@! TO.N,GND*
G04 #@! TO.C,REF\002A\002A*
X122000000Y-82000000D03*
G04 #@! TD*
G04 #@! TO.N,GND*
G04 #@! TO.C,REF\002A\002A*
X128000000Y-81000000D03*
G04 #@! TD*
G04 #@! TO.N,GND*
G04 #@! TO.C,REF\002A\002A*
X123000000Y-81000000D03*
G04 #@! TD*
G04 #@! TO.N,GND*
G04 #@! TO.C,REF\002A\002A*
X122000000Y-81000000D03*
G04 #@! TD*
G04 #@! TO.N,GND*
G04 #@! TO.C,REF\002A\002A*
X128000000Y-80000000D03*
G04 #@! TD*
G04 #@! TO.N,GND*
G04 #@! TO.C,REF\002A\002A*
X123000000Y-80000000D03*
G04 #@! TD*
G04 #@! TO.N,GND*
G04 #@! TO.C,REF\002A\002A*
X122000000Y-80000000D03*
G04 #@! TD*
G04 #@! TO.N,GND*
G04 #@! TO.C,REF\002A\002A*
X128000000Y-79000000D03*
G04 #@! TD*
G04 #@! TO.N,GND*
G04 #@! TO.C,REF\002A\002A*
X123000000Y-79000000D03*
G04 #@! TD*
G04 #@! TO.N,GND*
G04 #@! TO.C,REF\002A\002A*
X122000000Y-79000000D03*
G04 #@! TD*
G04 #@! TO.N,GND*
G04 #@! TO.C,REF\002A\002A*
X128000000Y-78000000D03*
G04 #@! TD*
G04 #@! TO.N,GND*
G04 #@! TO.C,REF\002A\002A*
X123000000Y-78000000D03*
G04 #@! TD*
G04 #@! TO.N,GND*
G04 #@! TO.C,REF\002A\002A*
X122000000Y-78000000D03*
G04 #@! TD*
G04 #@! TO.N,GND*
G04 #@! TO.C,REF\002A\002A*
X128000000Y-77000000D03*
G04 #@! TD*
G04 #@! TO.N,GND*
G04 #@! TO.C,REF\002A\002A*
X123000000Y-77000000D03*
G04 #@! TD*
G04 #@! TO.N,GND*
G04 #@! TO.C,REF\002A\002A*
X122000000Y-77000000D03*
G04 #@! TD*
G04 #@! TO.N,GND*
G04 #@! TO.C,REF\002A\002A*
X128000000Y-76000000D03*
G04 #@! TD*
G04 #@! TO.N,GND*
G04 #@! TO.C,REF\002A\002A*
X123000000Y-76000000D03*
G04 #@! TD*
G04 #@! TO.N,GND*
G04 #@! TO.C,REF\002A\002A*
X122000000Y-76000000D03*
G04 #@! TD*
G04 #@! TO.N,GND*
G04 #@! TO.C,REF\002A\002A*
X128000000Y-75000000D03*
G04 #@! TD*
G04 #@! TO.N,GND*
G04 #@! TO.C,REF\002A\002A*
X127000000Y-75000000D03*
G04 #@! TD*
G04 #@! TO.N,GND*
G04 #@! TO.C,REF\002A\002A*
X126000000Y-75000000D03*
G04 #@! TD*
G04 #@! TO.N,GND*
G04 #@! TO.C,REF\002A\002A*
X125000000Y-75000000D03*
G04 #@! TD*
G04 #@! TO.N,GND*
G04 #@! TO.C,REF\002A\002A*
X124000000Y-75000000D03*
G04 #@! TD*
G04 #@! TO.N,GND*
G04 #@! TO.C,REF\002A\002A*
X123000000Y-75000000D03*
G04 #@! TD*
G04 #@! TO.N,GND*
G04 #@! TO.C,REF\002A\002A*
X122000000Y-75000000D03*
G04 #@! TD*
G04 #@! TO.N,GND*
G04 #@! TO.C,REF\002A\002A*
X128000000Y-74000000D03*
G04 #@! TD*
G04 #@! TO.N,GND*
G04 #@! TO.C,REF\002A\002A*
X127000000Y-74000000D03*
G04 #@! TD*
G04 #@! TO.N,GND*
G04 #@! TO.C,REF\002A\002A*
X126000000Y-74000000D03*
G04 #@! TD*
G04 #@! TO.N,GND*
G04 #@! TO.C,REF\002A\002A*
X125000000Y-74000000D03*
G04 #@! TD*
G04 #@! TO.N,GND*
G04 #@! TO.C,REF\002A\002A*
X124000000Y-74000000D03*
G04 #@! TD*
G04 #@! TO.N,GND*
G04 #@! TO.C,REF\002A\002A*
X123000000Y-74000000D03*
G04 #@! TD*
G04 #@! TO.N,GND*
G04 #@! TO.C,REF\002A\002A*
X95000000Y-94000000D03*
G04 #@! TD*
G04 #@! TO.N,GND*
G04 #@! TO.C,REF\002A\002A*
X94000000Y-94000000D03*
G04 #@! TD*
G04 #@! TO.N,GND*
G04 #@! TO.C,REF\002A\002A*
X93000000Y-94000000D03*
G04 #@! TD*
G04 #@! TO.N,GND*
G04 #@! TO.C,REF\002A\002A*
X92000000Y-94000000D03*
G04 #@! TD*
G04 #@! TO.N,GND*
G04 #@! TO.C,REF\002A\002A*
X91000000Y-94000000D03*
G04 #@! TD*
G04 #@! TO.N,GND*
G04 #@! TO.C,REF\002A\002A*
X90000000Y-94000000D03*
G04 #@! TD*
G04 #@! TO.N,GND*
G04 #@! TO.C,REF\002A\002A*
X89000000Y-94000000D03*
G04 #@! TD*
G04 #@! TO.N,GND*
G04 #@! TO.C,REF\002A\002A*
X88000000Y-94000000D03*
G04 #@! TD*
G04 #@! TO.N,GND*
G04 #@! TO.C,REF\002A\002A*
X95000000Y-93000000D03*
G04 #@! TD*
G04 #@! TO.N,GND*
G04 #@! TO.C,REF\002A\002A*
X94000000Y-93000000D03*
G04 #@! TD*
G04 #@! TO.N,GND*
G04 #@! TO.C,REF\002A\002A*
X93000000Y-93000000D03*
G04 #@! TD*
G04 #@! TO.N,GND*
G04 #@! TO.C,REF\002A\002A*
X92000000Y-93000000D03*
G04 #@! TD*
G04 #@! TO.N,GND*
G04 #@! TO.C,REF\002A\002A*
X91000000Y-93000000D03*
G04 #@! TD*
G04 #@! TO.N,GND*
G04 #@! TO.C,REF\002A\002A*
X90000000Y-93000000D03*
G04 #@! TD*
G04 #@! TO.N,GND*
G04 #@! TO.C,REF\002A\002A*
X89000000Y-93000000D03*
G04 #@! TD*
G04 #@! TO.N,GND*
G04 #@! TO.C,REF\002A\002A*
X88000000Y-93000000D03*
G04 #@! TD*
G04 #@! TO.N,GND*
G04 #@! TO.C,REF\002A\002A*
X95000000Y-92000000D03*
G04 #@! TD*
G04 #@! TO.N,GND*
G04 #@! TO.C,REF\002A\002A*
X94000000Y-92000000D03*
G04 #@! TD*
G04 #@! TO.N,GND*
G04 #@! TO.C,REF\002A\002A*
X89000000Y-92000000D03*
G04 #@! TD*
G04 #@! TO.N,GND*
G04 #@! TO.C,REF\002A\002A*
X88000000Y-92000000D03*
G04 #@! TD*
G04 #@! TO.N,GND*
G04 #@! TO.C,REF\002A\002A*
X95000000Y-91000000D03*
G04 #@! TD*
G04 #@! TO.N,GND*
G04 #@! TO.C,REF\002A\002A*
X94000000Y-91000000D03*
G04 #@! TD*
G04 #@! TO.N,GND*
G04 #@! TO.C,REF\002A\002A*
X89000000Y-91000000D03*
G04 #@! TD*
G04 #@! TO.N,GND*
G04 #@! TO.C,REF\002A\002A*
X88000000Y-91000000D03*
G04 #@! TD*
G04 #@! TO.N,GND*
G04 #@! TO.C,REF\002A\002A*
X95000000Y-90000000D03*
G04 #@! TD*
G04 #@! TO.N,GND*
G04 #@! TO.C,REF\002A\002A*
X94000000Y-90000000D03*
G04 #@! TD*
G04 #@! TO.N,GND*
G04 #@! TO.C,REF\002A\002A*
X89000000Y-90000000D03*
G04 #@! TD*
G04 #@! TO.N,GND*
G04 #@! TO.C,REF\002A\002A*
X88000000Y-90000000D03*
G04 #@! TD*
G04 #@! TO.N,GND*
G04 #@! TO.C,REF\002A\002A*
X95000000Y-89000000D03*
G04 #@! TD*
G04 #@! TO.N,GND*
G04 #@! TO.C,REF\002A\002A*
X94000000Y-89000000D03*
G04 #@! TD*
G04 #@! TO.N,GND*
G04 #@! TO.C,REF\002A\002A*
X93000000Y-89000000D03*
G04 #@! TD*
G04 #@! TO.N,GND*
G04 #@! TO.C,REF\002A\002A*
X92000000Y-89000000D03*
G04 #@! TD*
G04 #@! TO.N,GND*
G04 #@! TO.C,REF\002A\002A*
X91000000Y-89000000D03*
G04 #@! TD*
G04 #@! TO.N,GND*
G04 #@! TO.C,REF\002A\002A*
X90000000Y-89000000D03*
G04 #@! TD*
G04 #@! TO.N,GND*
G04 #@! TO.C,REF\002A\002A*
X89000000Y-89000000D03*
G04 #@! TD*
G04 #@! TO.N,GND*
G04 #@! TO.C,REF\002A\002A*
X88000000Y-89000000D03*
G04 #@! TD*
G04 #@! TO.N,GND*
G04 #@! TO.C,REF\002A\002A*
X95000000Y-88000000D03*
G04 #@! TD*
G04 #@! TO.N,GND*
G04 #@! TO.C,REF\002A\002A*
X94000000Y-88000000D03*
G04 #@! TD*
G04 #@! TO.N,GND*
G04 #@! TO.C,REF\002A\002A*
X93000000Y-88000000D03*
G04 #@! TD*
G04 #@! TO.N,GND*
G04 #@! TO.C,REF\002A\002A*
X92000000Y-88000000D03*
G04 #@! TD*
G04 #@! TO.N,GND*
G04 #@! TO.C,REF\002A\002A*
X91000000Y-88000000D03*
G04 #@! TD*
G04 #@! TO.N,GND*
G04 #@! TO.C,REF\002A\002A*
X90000000Y-88000000D03*
G04 #@! TD*
G04 #@! TO.N,GND*
G04 #@! TO.C,REF\002A\002A*
X89000000Y-88000000D03*
G04 #@! TD*
G04 #@! TO.N,GND*
G04 #@! TO.C,REF\002A\002A*
X111000000Y-94000000D03*
G04 #@! TD*
G04 #@! TO.N,GND*
G04 #@! TO.C,REF\002A\002A*
X110000000Y-94000000D03*
G04 #@! TD*
G04 #@! TO.N,GND*
G04 #@! TO.C,REF\002A\002A*
X109000000Y-94000000D03*
G04 #@! TD*
G04 #@! TO.N,GND*
G04 #@! TO.C,REF\002A\002A*
X108000000Y-94000000D03*
G04 #@! TD*
G04 #@! TO.N,GND*
G04 #@! TO.C,REF\002A\002A*
X107000000Y-94000000D03*
G04 #@! TD*
G04 #@! TO.N,GND*
G04 #@! TO.C,REF\002A\002A*
X106000000Y-94000000D03*
G04 #@! TD*
G04 #@! TO.N,GND*
G04 #@! TO.C,REF\002A\002A*
X105000000Y-94000000D03*
G04 #@! TD*
G04 #@! TO.N,GND*
G04 #@! TO.C,REF\002A\002A*
X111000000Y-93000000D03*
G04 #@! TD*
G04 #@! TO.N,GND*
G04 #@! TO.C,REF\002A\002A*
X110000000Y-93000000D03*
G04 #@! TD*
G04 #@! TO.N,GND*
G04 #@! TO.C,REF\002A\002A*
X109000000Y-93000000D03*
G04 #@! TD*
G04 #@! TO.N,GND*
G04 #@! TO.C,REF\002A\002A*
X108000000Y-93000000D03*
G04 #@! TD*
G04 #@! TO.N,GND*
G04 #@! TO.C,REF\002A\002A*
X107000000Y-93000000D03*
G04 #@! TD*
G04 #@! TO.N,GND*
G04 #@! TO.C,REF\002A\002A*
X106000000Y-93000000D03*
G04 #@! TD*
G04 #@! TO.N,GND*
G04 #@! TO.C,REF\002A\002A*
X105000000Y-93000000D03*
G04 #@! TD*
G04 #@! TO.N,GND*
G04 #@! TO.C,REF\002A\002A*
X111000000Y-92000000D03*
G04 #@! TD*
G04 #@! TO.N,GND*
G04 #@! TO.C,REF\002A\002A*
X110000000Y-92000000D03*
G04 #@! TD*
G04 #@! TO.N,GND*
G04 #@! TO.C,REF\002A\002A*
X106000000Y-92000000D03*
G04 #@! TD*
G04 #@! TO.N,GND*
G04 #@! TO.C,REF\002A\002A*
X105000000Y-92000000D03*
G04 #@! TD*
G04 #@! TO.N,GND*
G04 #@! TO.C,REF\002A\002A*
X111000000Y-91000000D03*
G04 #@! TD*
G04 #@! TO.N,GND*
G04 #@! TO.C,REF\002A\002A*
X110000000Y-91000000D03*
G04 #@! TD*
G04 #@! TO.N,GND*
G04 #@! TO.C,REF\002A\002A*
X106000000Y-91000000D03*
G04 #@! TD*
G04 #@! TO.N,GND*
G04 #@! TO.C,REF\002A\002A*
X105000000Y-91000000D03*
G04 #@! TD*
G04 #@! TO.N,GND*
G04 #@! TO.C,REF\002A\002A*
X111000000Y-90000000D03*
G04 #@! TD*
G04 #@! TO.N,GND*
G04 #@! TO.C,REF\002A\002A*
X110000000Y-90000000D03*
G04 #@! TD*
G04 #@! TO.N,GND*
G04 #@! TO.C,REF\002A\002A*
X106000000Y-90000000D03*
G04 #@! TD*
G04 #@! TO.N,GND*
G04 #@! TO.C,REF\002A\002A*
X105000000Y-90000000D03*
G04 #@! TD*
G04 #@! TO.N,GND*
G04 #@! TO.C,REF\002A\002A*
X111000000Y-89000000D03*
G04 #@! TD*
G04 #@! TO.N,GND*
G04 #@! TO.C,REF\002A\002A*
X110000000Y-89000000D03*
G04 #@! TD*
G04 #@! TO.N,GND*
G04 #@! TO.C,REF\002A\002A*
X106000000Y-89000000D03*
G04 #@! TD*
G04 #@! TO.N,GND*
G04 #@! TO.C,REF\002A\002A*
X105000000Y-89000000D03*
G04 #@! TD*
G04 #@! TO.N,GND*
G04 #@! TO.C,REF\002A\002A*
X111000000Y-88000000D03*
G04 #@! TD*
G04 #@! TO.N,GND*
G04 #@! TO.C,REF\002A\002A*
X110000000Y-88000000D03*
G04 #@! TD*
G04 #@! TO.N,GND*
G04 #@! TO.C,REF\002A\002A*
X106000000Y-88000000D03*
G04 #@! TD*
G04 #@! TO.N,GND*
G04 #@! TO.C,REF\002A\002A*
X105000000Y-88000000D03*
G04 #@! TD*
G04 #@! TO.N,GND*
G04 #@! TO.C,REF\002A\002A*
X111000000Y-87000000D03*
G04 #@! TD*
G04 #@! TO.N,GND*
G04 #@! TO.C,REF\002A\002A*
X110000000Y-87000000D03*
G04 #@! TD*
G04 #@! TO.N,GND*
G04 #@! TO.C,REF\002A\002A*
X109000000Y-87000000D03*
G04 #@! TD*
G04 #@! TO.N,GND*
G04 #@! TO.C,REF\002A\002A*
X108000000Y-87000000D03*
G04 #@! TD*
G04 #@! TO.N,GND*
G04 #@! TO.C,REF\002A\002A*
X107000000Y-87000000D03*
G04 #@! TD*
G04 #@! TO.N,GND*
G04 #@! TO.C,REF\002A\002A*
X106000000Y-87000000D03*
G04 #@! TD*
G04 #@! TO.N,GND*
G04 #@! TO.C,REF\002A\002A*
X105000000Y-87000000D03*
G04 #@! TD*
G04 #@! TO.N,GND*
G04 #@! TO.C,REF\002A\002A*
X111000000Y-86000000D03*
G04 #@! TD*
G04 #@! TO.N,GND*
G04 #@! TO.C,REF\002A\002A*
X110000000Y-86000000D03*
G04 #@! TD*
G04 #@! TO.N,GND*
G04 #@! TO.C,REF\002A\002A*
X109000000Y-86000000D03*
G04 #@! TD*
G04 #@! TO.N,GND*
G04 #@! TO.C,REF\002A\002A*
X108000000Y-86000000D03*
G04 #@! TD*
G04 #@! TO.N,GND*
G04 #@! TO.C,REF\002A\002A*
X107000000Y-86000000D03*
G04 #@! TD*
G04 #@! TO.N,GND*
G04 #@! TO.C,REF\002A\002A*
X106000000Y-86000000D03*
G04 #@! TD*
G04 #@! TO.N,GND*
G04 #@! TO.C,REF\002A\002A*
X87000000Y-87000000D03*
G04 #@! TD*
G04 #@! TO.N,GND*
G04 #@! TO.C,REF\002A\002A*
X86000000Y-87000000D03*
G04 #@! TD*
G04 #@! TO.N,GND*
G04 #@! TO.C,REF\002A\002A*
X85000000Y-87000000D03*
G04 #@! TD*
G04 #@! TO.N,GND*
G04 #@! TO.C,REF\002A\002A*
X84000000Y-87000000D03*
G04 #@! TD*
G04 #@! TO.N,GND*
G04 #@! TO.C,REF\002A\002A*
X83000000Y-87000000D03*
G04 #@! TD*
G04 #@! TO.N,GND*
G04 #@! TO.C,REF\002A\002A*
X82000000Y-87000000D03*
G04 #@! TD*
G04 #@! TO.N,GND*
G04 #@! TO.C,REF\002A\002A*
X81000000Y-87000000D03*
G04 #@! TD*
G04 #@! TO.N,GND*
G04 #@! TO.C,REF\002A\002A*
X87000000Y-86000000D03*
G04 #@! TD*
G04 #@! TO.N,GND*
G04 #@! TO.C,REF\002A\002A*
X86000000Y-86000000D03*
G04 #@! TD*
G04 #@! TO.N,GND*
G04 #@! TO.C,REF\002A\002A*
X85000000Y-86000000D03*
G04 #@! TD*
G04 #@! TO.N,GND*
G04 #@! TO.C,REF\002A\002A*
X84000000Y-86000000D03*
G04 #@! TD*
G04 #@! TO.N,GND*
G04 #@! TO.C,REF\002A\002A*
X83000000Y-86000000D03*
G04 #@! TD*
G04 #@! TO.N,GND*
G04 #@! TO.C,REF\002A\002A*
X82000000Y-86000000D03*
G04 #@! TD*
G04 #@! TO.N,GND*
G04 #@! TO.C,REF\002A\002A*
X81000000Y-86000000D03*
G04 #@! TD*
G04 #@! TO.N,GND*
G04 #@! TO.C,REF\002A\002A*
X87000000Y-85000000D03*
G04 #@! TD*
G04 #@! TO.N,GND*
G04 #@! TO.C,REF\002A\002A*
X86000000Y-85000000D03*
G04 #@! TD*
G04 #@! TO.N,GND*
G04 #@! TO.C,REF\002A\002A*
X85000000Y-85000000D03*
G04 #@! TD*
G04 #@! TO.N,GND*
G04 #@! TO.C,REF\002A\002A*
X84000000Y-85000000D03*
G04 #@! TD*
G04 #@! TO.N,GND*
G04 #@! TO.C,REF\002A\002A*
X83000000Y-85000000D03*
G04 #@! TD*
G04 #@! TO.N,GND*
G04 #@! TO.C,REF\002A\002A*
X82000000Y-85000000D03*
G04 #@! TD*
G04 #@! TO.N,GND*
G04 #@! TO.C,REF\002A\002A*
X81000000Y-85000000D03*
G04 #@! TD*
G04 #@! TO.N,GND*
G04 #@! TO.C,REF\002A\002A*
X87000000Y-84000000D03*
G04 #@! TD*
G04 #@! TO.N,GND*
G04 #@! TO.C,REF\002A\002A*
X86000000Y-84000000D03*
G04 #@! TD*
G04 #@! TO.N,GND*
G04 #@! TO.C,REF\002A\002A*
X82000000Y-84000000D03*
G04 #@! TD*
G04 #@! TO.N,GND*
G04 #@! TO.C,REF\002A\002A*
X81000000Y-84000000D03*
G04 #@! TD*
G04 #@! TO.N,GND*
G04 #@! TO.C,REF\002A\002A*
X87000000Y-83000000D03*
G04 #@! TD*
G04 #@! TO.N,GND*
G04 #@! TO.C,REF\002A\002A*
X86000000Y-83000000D03*
G04 #@! TD*
G04 #@! TO.N,GND*
G04 #@! TO.C,REF\002A\002A*
X82000000Y-83000000D03*
G04 #@! TD*
G04 #@! TO.N,GND*
G04 #@! TO.C,REF\002A\002A*
X81000000Y-83000000D03*
G04 #@! TD*
G04 #@! TO.N,GND*
G04 #@! TO.C,REF\002A\002A*
X87000000Y-82000000D03*
G04 #@! TD*
G04 #@! TO.N,GND*
G04 #@! TO.C,REF\002A\002A*
X86000000Y-82000000D03*
G04 #@! TD*
G04 #@! TO.N,GND*
G04 #@! TO.C,REF\002A\002A*
X82000000Y-82000000D03*
G04 #@! TD*
G04 #@! TO.N,GND*
G04 #@! TO.C,REF\002A\002A*
X81000000Y-82000000D03*
G04 #@! TD*
G04 #@! TO.N,GND*
G04 #@! TO.C,REF\002A\002A*
X87000000Y-81000000D03*
G04 #@! TD*
G04 #@! TO.N,GND*
G04 #@! TO.C,REF\002A\002A*
X86000000Y-81000000D03*
G04 #@! TD*
G04 #@! TO.N,GND*
G04 #@! TO.C,REF\002A\002A*
X82000000Y-81000000D03*
G04 #@! TD*
G04 #@! TO.N,GND*
G04 #@! TO.C,REF\002A\002A*
X81000000Y-81000000D03*
G04 #@! TD*
G04 #@! TO.N,GND*
G04 #@! TO.C,REF\002A\002A*
X87000000Y-80000000D03*
G04 #@! TD*
G04 #@! TO.N,GND*
G04 #@! TO.C,REF\002A\002A*
X86000000Y-80000000D03*
G04 #@! TD*
G04 #@! TO.N,GND*
G04 #@! TO.C,REF\002A\002A*
X82000000Y-80000000D03*
G04 #@! TD*
G04 #@! TO.N,GND*
G04 #@! TO.C,REF\002A\002A*
X81000000Y-80000000D03*
G04 #@! TD*
G04 #@! TO.N,GND*
G04 #@! TO.C,REF\002A\002A*
X87000000Y-79000000D03*
G04 #@! TD*
G04 #@! TO.N,GND*
G04 #@! TO.C,REF\002A\002A*
X86000000Y-79000000D03*
G04 #@! TD*
G04 #@! TO.N,GND*
G04 #@! TO.C,REF\002A\002A*
X82000000Y-79000000D03*
G04 #@! TD*
G04 #@! TO.N,GND*
G04 #@! TO.C,REF\002A\002A*
X81000000Y-79000000D03*
G04 #@! TD*
G04 #@! TO.N,GND*
G04 #@! TO.C,REF\002A\002A*
X87000000Y-78000000D03*
G04 #@! TD*
G04 #@! TO.N,GND*
G04 #@! TO.C,REF\002A\002A*
X86000000Y-78000000D03*
G04 #@! TD*
G04 #@! TO.N,GND*
G04 #@! TO.C,REF\002A\002A*
X82000000Y-78000000D03*
G04 #@! TD*
G04 #@! TO.N,GND*
G04 #@! TO.C,REF\002A\002A*
X81000000Y-78000000D03*
G04 #@! TD*
G04 #@! TO.N,GND*
G04 #@! TO.C,REF\002A\002A*
X87000000Y-77000000D03*
G04 #@! TD*
G04 #@! TO.N,GND*
G04 #@! TO.C,REF\002A\002A*
X86000000Y-77000000D03*
G04 #@! TD*
G04 #@! TO.N,GND*
G04 #@! TO.C,REF\002A\002A*
X82000000Y-77000000D03*
G04 #@! TD*
G04 #@! TO.N,GND*
G04 #@! TO.C,REF\002A\002A*
X81000000Y-77000000D03*
G04 #@! TD*
G04 #@! TO.N,GND*
G04 #@! TO.C,REF\002A\002A*
X87000000Y-76000000D03*
G04 #@! TD*
G04 #@! TO.N,GND*
G04 #@! TO.C,REF\002A\002A*
X86000000Y-76000000D03*
G04 #@! TD*
G04 #@! TO.N,GND*
G04 #@! TO.C,REF\002A\002A*
X82000000Y-76000000D03*
G04 #@! TD*
G04 #@! TO.N,GND*
G04 #@! TO.C,REF\002A\002A*
X81000000Y-76000000D03*
G04 #@! TD*
G04 #@! TO.N,GND*
G04 #@! TO.C,REF\002A\002A*
X87000000Y-75000000D03*
G04 #@! TD*
G04 #@! TO.N,GND*
G04 #@! TO.C,REF\002A\002A*
X86000000Y-75000000D03*
G04 #@! TD*
G04 #@! TO.N,GND*
G04 #@! TO.C,REF\002A\002A*
X82000000Y-75000000D03*
G04 #@! TD*
G04 #@! TO.N,GND*
G04 #@! TO.C,REF\002A\002A*
X81000000Y-75000000D03*
G04 #@! TD*
G04 #@! TO.N,GND*
G04 #@! TO.C,REF\002A\002A*
X87000000Y-74000000D03*
G04 #@! TD*
G04 #@! TO.N,GND*
G04 #@! TO.C,REF\002A\002A*
X86000000Y-74000000D03*
G04 #@! TD*
G04 #@! TO.N,GND*
G04 #@! TO.C,REF\002A\002A*
X82000000Y-74000000D03*
G04 #@! TD*
G04 #@! TO.N,GND*
G04 #@! TO.C,REF\002A\002A*
X81000000Y-74000000D03*
G04 #@! TD*
G04 #@! TO.N,GND*
G04 #@! TO.C,REF\002A\002A*
X87000000Y-73000000D03*
G04 #@! TD*
G04 #@! TO.N,GND*
G04 #@! TO.C,REF\002A\002A*
X86000000Y-73000000D03*
G04 #@! TD*
G04 #@! TO.N,GND*
G04 #@! TO.C,REF\002A\002A*
X82000000Y-73000000D03*
G04 #@! TD*
G04 #@! TO.N,GND*
G04 #@! TO.C,REF\002A\002A*
X81000000Y-73000000D03*
G04 #@! TD*
G04 #@! TO.N,GND*
G04 #@! TO.C,REF\002A\002A*
X87000000Y-72000000D03*
G04 #@! TD*
G04 #@! TO.N,GND*
G04 #@! TO.C,REF\002A\002A*
X86000000Y-72000000D03*
G04 #@! TD*
G04 #@! TO.N,GND*
G04 #@! TO.C,REF\002A\002A*
X82000000Y-72000000D03*
G04 #@! TD*
G04 #@! TO.N,GND*
G04 #@! TO.C,REF\002A\002A*
X81000000Y-72000000D03*
G04 #@! TD*
G04 #@! TO.N,GND*
G04 #@! TO.C,REF\002A\002A*
X87000000Y-71000000D03*
G04 #@! TD*
G04 #@! TO.N,GND*
G04 #@! TO.C,REF\002A\002A*
X86000000Y-71000000D03*
G04 #@! TD*
G04 #@! TO.N,GND*
G04 #@! TO.C,REF\002A\002A*
X82000000Y-71000000D03*
G04 #@! TD*
G04 #@! TO.N,GND*
G04 #@! TO.C,REF\002A\002A*
X81000000Y-71000000D03*
G04 #@! TD*
G04 #@! TO.N,GND*
G04 #@! TO.C,REF\002A\002A*
X87000000Y-70000000D03*
G04 #@! TD*
G04 #@! TO.N,GND*
G04 #@! TO.C,REF\002A\002A*
X86000000Y-70000000D03*
G04 #@! TD*
G04 #@! TO.N,GND*
G04 #@! TO.C,REF\002A\002A*
X82000000Y-70000000D03*
G04 #@! TD*
G04 #@! TO.N,GND*
G04 #@! TO.C,REF\002A\002A*
X81000000Y-70000000D03*
G04 #@! TD*
G04 #@! TO.N,GND*
G04 #@! TO.C,REF\002A\002A*
X87000000Y-69000000D03*
G04 #@! TD*
G04 #@! TO.N,GND*
G04 #@! TO.C,REF\002A\002A*
X86000000Y-69000000D03*
G04 #@! TD*
G04 #@! TO.N,GND*
G04 #@! TO.C,REF\002A\002A*
X82000000Y-69000000D03*
G04 #@! TD*
G04 #@! TO.N,GND*
G04 #@! TO.C,REF\002A\002A*
X81000000Y-69000000D03*
G04 #@! TD*
G04 #@! TO.N,GND*
G04 #@! TO.C,REF\002A\002A*
X87000000Y-68000000D03*
G04 #@! TD*
G04 #@! TO.N,GND*
G04 #@! TO.C,REF\002A\002A*
X86000000Y-68000000D03*
G04 #@! TD*
G04 #@! TO.N,GND*
G04 #@! TO.C,REF\002A\002A*
X82000000Y-68000000D03*
G04 #@! TD*
G04 #@! TO.N,GND*
G04 #@! TO.C,REF\002A\002A*
X81000000Y-68000000D03*
G04 #@! TD*
G04 #@! TO.N,GND*
G04 #@! TO.C,REF\002A\002A*
X87000000Y-67000000D03*
G04 #@! TD*
G04 #@! TO.N,GND*
G04 #@! TO.C,REF\002A\002A*
X86000000Y-67000000D03*
G04 #@! TD*
G04 #@! TO.N,GND*
G04 #@! TO.C,REF\002A\002A*
X82000000Y-67000000D03*
G04 #@! TD*
G04 #@! TO.N,GND*
G04 #@! TO.C,REF\002A\002A*
X81000000Y-67000000D03*
G04 #@! TD*
G04 #@! TO.N,GND*
G04 #@! TO.C,REF\002A\002A*
X87000000Y-66000000D03*
G04 #@! TD*
G04 #@! TO.N,GND*
G04 #@! TO.C,REF\002A\002A*
X86000000Y-66000000D03*
G04 #@! TD*
G04 #@! TO.N,GND*
G04 #@! TO.C,REF\002A\002A*
X82000000Y-66000000D03*
G04 #@! TD*
G04 #@! TO.N,GND*
G04 #@! TO.C,REF\002A\002A*
X81000000Y-66000000D03*
G04 #@! TD*
G04 #@! TO.N,GND*
G04 #@! TO.C,REF\002A\002A*
X87000000Y-65000000D03*
G04 #@! TD*
G04 #@! TO.N,GND*
G04 #@! TO.C,REF\002A\002A*
X86000000Y-65000000D03*
G04 #@! TD*
G04 #@! TO.N,GND*
G04 #@! TO.C,REF\002A\002A*
X82000000Y-65000000D03*
G04 #@! TD*
G04 #@! TO.N,GND*
G04 #@! TO.C,REF\002A\002A*
X81000000Y-65000000D03*
G04 #@! TD*
G04 #@! TO.N,GND*
G04 #@! TO.C,REF\002A\002A*
X87000000Y-64000000D03*
G04 #@! TD*
G04 #@! TO.N,GND*
G04 #@! TO.C,REF\002A\002A*
X86000000Y-64000000D03*
G04 #@! TD*
G04 #@! TO.N,GND*
G04 #@! TO.C,REF\002A\002A*
X82000000Y-64000000D03*
G04 #@! TD*
G04 #@! TO.N,GND*
G04 #@! TO.C,REF\002A\002A*
X81000000Y-64000000D03*
G04 #@! TD*
G04 #@! TO.N,GND*
G04 #@! TO.C,REF\002A\002A*
X87000000Y-63000000D03*
G04 #@! TD*
G04 #@! TO.N,GND*
G04 #@! TO.C,REF\002A\002A*
X86000000Y-63000000D03*
G04 #@! TD*
G04 #@! TO.N,GND*
G04 #@! TO.C,REF\002A\002A*
X82000000Y-63000000D03*
G04 #@! TD*
G04 #@! TO.N,GND*
G04 #@! TO.C,REF\002A\002A*
X81000000Y-63000000D03*
G04 #@! TD*
G04 #@! TO.N,GND*
G04 #@! TO.C,REF\002A\002A*
X87000000Y-62000000D03*
G04 #@! TD*
G04 #@! TO.N,GND*
G04 #@! TO.C,REF\002A\002A*
X86000000Y-62000000D03*
G04 #@! TD*
G04 #@! TO.N,GND*
G04 #@! TO.C,REF\002A\002A*
X82000000Y-62000000D03*
G04 #@! TD*
G04 #@! TO.N,GND*
G04 #@! TO.C,REF\002A\002A*
X81000000Y-62000000D03*
G04 #@! TD*
G04 #@! TO.N,GND*
G04 #@! TO.C,REF\002A\002A*
X87000000Y-61000000D03*
G04 #@! TD*
G04 #@! TO.N,GND*
G04 #@! TO.C,REF\002A\002A*
X86000000Y-61000000D03*
G04 #@! TD*
G04 #@! TO.N,GND*
G04 #@! TO.C,REF\002A\002A*
X82000000Y-61000000D03*
G04 #@! TD*
G04 #@! TO.N,GND*
G04 #@! TO.C,REF\002A\002A*
X81000000Y-61000000D03*
G04 #@! TD*
G04 #@! TO.N,GND*
G04 #@! TO.C,REF\002A\002A*
X87000000Y-60000000D03*
G04 #@! TD*
G04 #@! TO.N,GND*
G04 #@! TO.C,REF\002A\002A*
X86000000Y-60000000D03*
G04 #@! TD*
G04 #@! TO.N,GND*
G04 #@! TO.C,REF\002A\002A*
X82000000Y-60000000D03*
G04 #@! TD*
G04 #@! TO.N,GND*
G04 #@! TO.C,REF\002A\002A*
X81000000Y-60000000D03*
G04 #@! TD*
G04 #@! TO.N,GND*
G04 #@! TO.C,REF\002A\002A*
X87000000Y-59000000D03*
G04 #@! TD*
G04 #@! TO.N,GND*
G04 #@! TO.C,REF\002A\002A*
X86000000Y-59000000D03*
G04 #@! TD*
G04 #@! TO.N,GND*
G04 #@! TO.C,REF\002A\002A*
X82000000Y-59000000D03*
G04 #@! TD*
G04 #@! TO.N,GND*
G04 #@! TO.C,REF\002A\002A*
X81000000Y-59000000D03*
G04 #@! TD*
G04 #@! TO.N,GND*
G04 #@! TO.C,REF\002A\002A*
X87000000Y-58000000D03*
G04 #@! TD*
G04 #@! TO.N,GND*
G04 #@! TO.C,REF\002A\002A*
X86000000Y-58000000D03*
G04 #@! TD*
G04 #@! TO.N,GND*
G04 #@! TO.C,REF\002A\002A*
X82000000Y-58000000D03*
G04 #@! TD*
G04 #@! TO.N,GND*
G04 #@! TO.C,REF\002A\002A*
X81000000Y-58000000D03*
G04 #@! TD*
G04 #@! TO.N,GND*
G04 #@! TO.C,REF\002A\002A*
X87000000Y-57000000D03*
G04 #@! TD*
G04 #@! TO.N,GND*
G04 #@! TO.C,REF\002A\002A*
X86000000Y-57000000D03*
G04 #@! TD*
G04 #@! TO.N,GND*
G04 #@! TO.C,REF\002A\002A*
X82000000Y-57000000D03*
G04 #@! TD*
G04 #@! TO.N,GND*
G04 #@! TO.C,REF\002A\002A*
X81000000Y-57000000D03*
G04 #@! TD*
G04 #@! TO.N,GND*
G04 #@! TO.C,REF\002A\002A*
X87000000Y-56000000D03*
G04 #@! TD*
G04 #@! TO.N,GND*
G04 #@! TO.C,REF\002A\002A*
X86000000Y-56000000D03*
G04 #@! TD*
G04 #@! TO.N,GND*
G04 #@! TO.C,REF\002A\002A*
X82000000Y-56000000D03*
G04 #@! TD*
G04 #@! TO.N,GND*
G04 #@! TO.C,REF\002A\002A*
X81000000Y-56000000D03*
G04 #@! TD*
G04 #@! TO.N,GND*
G04 #@! TO.C,REF\002A\002A*
X87000000Y-55000000D03*
G04 #@! TD*
G04 #@! TO.N,GND*
G04 #@! TO.C,REF\002A\002A*
X86000000Y-55000000D03*
G04 #@! TD*
G04 #@! TO.N,GND*
G04 #@! TO.C,REF\002A\002A*
X82000000Y-55000000D03*
G04 #@! TD*
G04 #@! TO.N,GND*
G04 #@! TO.C,REF\002A\002A*
X81000000Y-55000000D03*
G04 #@! TD*
G04 #@! TO.N,GND*
G04 #@! TO.C,REF\002A\002A*
X87000000Y-54000000D03*
G04 #@! TD*
G04 #@! TO.N,GND*
G04 #@! TO.C,REF\002A\002A*
X86000000Y-54000000D03*
G04 #@! TD*
G04 #@! TO.N,GND*
G04 #@! TO.C,REF\002A\002A*
X85000000Y-54000000D03*
G04 #@! TD*
G04 #@! TO.N,GND*
G04 #@! TO.C,REF\002A\002A*
X84000000Y-54000000D03*
G04 #@! TD*
G04 #@! TO.N,GND*
G04 #@! TO.C,REF\002A\002A*
X83000000Y-54000000D03*
G04 #@! TD*
G04 #@! TO.N,GND*
G04 #@! TO.C,REF\002A\002A*
X82000000Y-54000000D03*
G04 #@! TD*
G04 #@! TO.N,GND*
G04 #@! TO.C,REF\002A\002A*
X81000000Y-54000000D03*
G04 #@! TD*
G04 #@! TO.N,GND*
G04 #@! TO.C,REF\002A\002A*
X87000000Y-53000000D03*
G04 #@! TD*
G04 #@! TO.N,GND*
G04 #@! TO.C,REF\002A\002A*
X86000000Y-53000000D03*
G04 #@! TD*
G04 #@! TO.N,GND*
G04 #@! TO.C,REF\002A\002A*
X85000000Y-53000000D03*
G04 #@! TD*
G04 #@! TO.N,GND*
G04 #@! TO.C,REF\002A\002A*
X84000000Y-53000000D03*
G04 #@! TD*
G04 #@! TO.N,GND*
G04 #@! TO.C,REF\002A\002A*
X83000000Y-53000000D03*
G04 #@! TD*
G04 #@! TO.N,GND*
G04 #@! TO.C,REF\002A\002A*
X82000000Y-53000000D03*
G04 #@! TD*
D12*
G04 #@! TO.P,C1,1*
G04 #@! TO.N,+12V*
X114000000Y-61000000D03*
G04 #@! TO.P,C1,2*
G04 #@! TO.N,GND*
X114000000Y-57000000D03*
G04 #@! TD*
D13*
G04 #@! TO.P,C2,1*
G04 #@! TO.N,Net-(C2-Pad1)*
X97250000Y-65000000D03*
G04 #@! TO.P,C2,2*
G04 #@! TO.N,GND*
X94750000Y-65000000D03*
G04 #@! TD*
D12*
G04 #@! TO.P,C3,1*
G04 #@! TO.N,Net-(C2-Pad1)*
X94000000Y-61000000D03*
G04 #@! TO.P,C3,2*
G04 #@! TO.N,GND*
X94000000Y-57000000D03*
G04 #@! TD*
D14*
G04 #@! TO.P,C4,1*
G04 #@! TO.N,Net-(C4-Pad1)*
X114000000Y-69250000D03*
G04 #@! TO.P,C4,2*
G04 #@! TO.N,GND*
X114000000Y-66750000D03*
G04 #@! TD*
D15*
G04 #@! TO.P,C5,1*
G04 #@! TO.N,Net-(C2-Pad1)*
X100000000Y-61125000D03*
G04 #@! TO.P,C5,2*
G04 #@! TO.N,GND*
X100000000Y-54875000D03*
G04 #@! TD*
D16*
G04 #@! TO.P,J1,1*
G04 #@! TO.N,GND*
X125250000Y-70500000D03*
D17*
G04 #@! TO.P,J1,2*
G04 #@! TO.N,Net-(D1-Pad2)*
X125250000Y-67960000D03*
G04 #@! TD*
D18*
G04 #@! TO.P,J2,1*
G04 #@! TO.N,GND*
X126000000Y-49000000D03*
G04 #@! TD*
D19*
G04 #@! TO.P,J3,1*
G04 #@! TO.N,Net-(J3-Pad1)*
X100000000Y-90000000D03*
D20*
G04 #@! TO.P,J3,2*
G04 #@! TO.N,GND*
X102540000Y-87460000D03*
X102540000Y-92540000D03*
X97460000Y-92540000D03*
X97460000Y-87460000D03*
G04 #@! TD*
D18*
G04 #@! TO.P,J4,1*
G04 #@! TO.N,GND*
X84000000Y-49000000D03*
G04 #@! TD*
G04 #@! TO.P,J5,1*
G04 #@! TO.N,GND*
X126000000Y-91000000D03*
G04 #@! TD*
G04 #@! TO.P,J6,1*
G04 #@! TO.N,GND*
X84000000Y-91000000D03*
G04 #@! TD*
D21*
G04 #@! TO.P,J7,2*
G04 #@! TO.N,GND*
X102540000Y-93000000D03*
X97460000Y-93000000D03*
G04 #@! TD*
D22*
G04 #@! TO.P,Q1,5*
G04 #@! TO.N,Net-(C2-Pad1)*
X97475000Y-50475000D03*
G04 #@! TO.P,Q1,4*
G04 #@! TO.N,N/C*
X116525000Y-50475000D03*
G04 #@! TO.P,Q1,3*
G04 #@! TO.N,Net-(C4-Pad1)*
X116525000Y-69525000D03*
G04 #@! TO.P,Q1,1*
G04 #@! TO.N,Net-(J3-Pad1)*
X97475000Y-69525000D03*
G04 #@! TO.P,Q1,2*
G04 #@! TO.N,GND*
X107000000Y-69525000D03*
G04 #@! TD*
D23*
G04 #@! TO.P,R1,1*
G04 #@! TO.N,Net-(R1-Pad1)*
X114000000Y-79350000D03*
G04 #@! TO.P,R1,2*
G04 #@! TO.N,Net-(R1-Pad2)*
X114000000Y-76650000D03*
G04 #@! TD*
G04 #@! TO.P,R2,1*
G04 #@! TO.N,Net-(R2-Pad1)*
X114500000Y-90850000D03*
G04 #@! TO.P,R2,2*
G04 #@! TO.N,GND*
X114500000Y-88150000D03*
G04 #@! TD*
D24*
G04 #@! TO.P,RV1,1*
G04 #@! TO.N,Net-(R1-Pad2)*
X117000000Y-78000000D03*
G04 #@! TO.P,RV1,2*
G04 #@! TO.N,Net-(C4-Pad1)*
X114460000Y-85620000D03*
G04 #@! TO.P,RV1,3*
G04 #@! TO.N,Net-(R2-Pad1)*
X117000000Y-90700000D03*
G04 #@! TD*
D25*
G04 #@! TO.P,U1,1*
G04 #@! TO.N,+12V*
X109290000Y-60700000D03*
G04 #@! TO.P,U1,3*
G04 #@! TO.N,Net-(C2-Pad1)*
X104710000Y-60700000D03*
D26*
G04 #@! TO.P,U1,2*
G04 #@! TO.N,GND*
X106990000Y-53300000D03*
G04 #@! TD*
D27*
G04 #@! TO.P,U2,8*
G04 #@! TO.N,GND*
X105095000Y-82175000D03*
G04 #@! TO.P,U2,7*
X106365000Y-82175000D03*
G04 #@! TO.P,U2,6*
G04 #@! TO.N,Net-(R1-Pad1)*
X107635000Y-82175000D03*
G04 #@! TO.P,U2,5*
G04 #@! TO.N,N/C*
X108905000Y-82175000D03*
G04 #@! TO.P,U2,4*
G04 #@! TO.N,GND*
X108905000Y-75825000D03*
G04 #@! TO.P,U2,3*
G04 #@! TO.N,Net-(C2-Pad1)*
X107635000Y-75825000D03*
G04 #@! TO.P,U2,2*
X106365000Y-75825000D03*
G04 #@! TO.P,U2,1*
G04 #@! TO.N,GND*
X105095000Y-75825000D03*
G04 #@! TD*
D28*
G04 #@! TO.P,RV2,1*
G04 #@! TO.N,Net-(R1-Pad2)*
X117000000Y-83000000D03*
G04 #@! TO.P,RV2,2*
G04 #@! TO.N,Net-(C4-Pad1)*
X119540000Y-85540000D03*
G04 #@! TO.P,RV2,3*
G04 #@! TO.N,Net-(R2-Pad1)*
X117000000Y-88080000D03*
G04 #@! TD*
G04 #@! TO.P,RV3,1*
G04 #@! TO.N,Net-(R2-Pad1)*
X117000000Y-88100000D03*
G04 #@! TO.P,RV3,2*
G04 #@! TO.N,Net-(C4-Pad1)*
X117000000Y-85460000D03*
G04 #@! TO.P,RV3,3*
G04 #@! TO.N,Net-(R1-Pad2)*
X117000000Y-83000000D03*
G04 #@! TD*
D29*
G04 #@! TO.P,D1,1*
G04 #@! TO.N,+12V*
X120000000Y-60700000D03*
G04 #@! TO.P,D1,2*
G04 #@! TO.N,Net-(D1-Pad2)*
X120000000Y-55300000D03*
G04 #@! TD*
D11*
G04 #@! TO.N,GND*
G04 #@! TO.C,REF\002A\002A*
X81000000Y-53000000D03*
G04 #@! TD*
G04 #@! TO.N,GND*
G04 #@! TO.C,REF\002A\002A*
X105000000Y-86000000D03*
G04 #@! TD*
G04 #@! TO.N,GND*
G04 #@! TO.C,REF\002A\002A*
X88000000Y-88000000D03*
G04 #@! TD*
G04 #@! TO.N,GND*
G04 #@! TO.C,REF\002A\002A*
X122000000Y-74000000D03*
G04 #@! TD*
G04 #@! TO.N,GND*
X97000000Y-85000000D03*
X97000000Y-84000000D03*
X96000000Y-83000000D03*
X95000000Y-82000000D03*
X95000000Y-81000000D03*
X95000000Y-80000000D03*
X95000000Y-79000000D03*
X95000000Y-78000000D03*
X95000000Y-77000000D03*
X95000000Y-76000000D03*
X95000000Y-75000000D03*
X95000000Y-74000000D03*
X95000000Y-73000000D03*
X95000000Y-72000000D03*
X95000000Y-71000000D03*
X95000000Y-70000000D03*
X95000000Y-69000000D03*
X95000000Y-68000000D03*
X96000000Y-67000000D03*
X97000000Y-67000000D03*
X98000000Y-67000000D03*
X99000000Y-67000000D03*
X100000000Y-68000000D03*
X100000000Y-69000000D03*
X100000000Y-70000000D03*
X100000000Y-71000000D03*
X100000000Y-72000000D03*
X100000000Y-73000000D03*
X100000000Y-74000000D03*
X100000000Y-75000000D03*
X100000000Y-76000000D03*
X100000000Y-77000000D03*
X100000000Y-78000000D03*
X100000000Y-79000000D03*
X100000000Y-80000000D03*
X101000000Y-81000000D03*
X102000000Y-82000000D03*
X102000000Y-83000000D03*
X102000000Y-84000000D03*
X102000000Y-85000000D03*
X102000000Y-86000000D03*
X102500000Y-57000000D03*
X102500000Y-55000000D03*
X102500000Y-53000000D03*
X102500000Y-51000000D03*
X102500000Y-49000000D03*
X104500000Y-49000000D03*
X106500000Y-49000000D03*
X108500000Y-49000000D03*
X110500000Y-49000000D03*
X111500000Y-51000000D03*
X111500000Y-53000000D03*
X111500000Y-55000000D03*
X111500000Y-57000000D03*
G04 #@! TD*
D30*
G04 #@! TO.N,+12V*
X114000000Y-61000000D02*
X119700000Y-61000000D01*
X119700000Y-61000000D02*
X120000000Y-60700000D01*
X114065000Y-60935000D02*
X114000000Y-61000000D01*
X109290000Y-60700000D02*
X113700000Y-60700000D01*
X113700000Y-60700000D02*
X114000000Y-61000000D01*
D31*
G04 #@! TO.N,GND*
X126000000Y-49000000D02*
X126000000Y-51000000D01*
X97460000Y-85460000D02*
X97460000Y-87460000D01*
X97000000Y-85000000D02*
X97460000Y-85460000D01*
X96000000Y-83000000D02*
X97000000Y-84000000D01*
X95000000Y-81000000D02*
X95000000Y-82000000D01*
X95000000Y-79000000D02*
X95000000Y-80000000D01*
X95000000Y-77000000D02*
X95000000Y-78000000D01*
X95000000Y-75000000D02*
X95000000Y-76000000D01*
X95000000Y-73000000D02*
X95000000Y-74000000D01*
X95000000Y-71000000D02*
X95000000Y-72000000D01*
X95000000Y-69000000D02*
X95000000Y-70000000D01*
X96000000Y-67000000D02*
X95000000Y-68000000D01*
X98000000Y-67000000D02*
X97000000Y-67000000D01*
X100000000Y-68000000D02*
X99000000Y-67000000D01*
X100000000Y-70000000D02*
X100000000Y-69000000D01*
X100000000Y-72000000D02*
X100000000Y-71000000D01*
X100000000Y-74000000D02*
X100000000Y-73000000D01*
X100000000Y-76000000D02*
X100000000Y-75000000D01*
X100000000Y-78000000D02*
X100000000Y-77000000D01*
X100000000Y-80000000D02*
X100000000Y-79000000D01*
X102000000Y-82000000D02*
X101000000Y-81000000D01*
X102000000Y-84000000D02*
X102000000Y-83000000D01*
X102000000Y-86000000D02*
X102000000Y-85000000D01*
D32*
X97460000Y-92540000D02*
X97460000Y-87460000D01*
X102540000Y-92540000D02*
X102540000Y-87460000D01*
D31*
X106990000Y-53300000D02*
X106200000Y-53300000D01*
X106200000Y-53300000D02*
X102500000Y-57000000D01*
X102500000Y-55000000D02*
X102500000Y-53000000D01*
X102500000Y-51000000D02*
X102500000Y-49000000D01*
X104500000Y-49000000D02*
X106500000Y-49000000D01*
X108500000Y-49000000D02*
X110500000Y-49000000D01*
X111500000Y-51000000D02*
X111500000Y-53000000D01*
X111500000Y-55000000D02*
X111500000Y-57000000D01*
X126000000Y-91000000D02*
X126000000Y-89000000D01*
X84000000Y-49000000D02*
X84000000Y-51000000D01*
D32*
X107025000Y-69500000D02*
X107000000Y-69525000D01*
G04 #@! TO.N,Net-(C2-Pad1)*
X97250000Y-65000000D02*
X97250000Y-63875000D01*
X97250000Y-63875000D02*
X100000000Y-61125000D01*
X107000000Y-75825000D02*
X107000000Y-74500000D01*
X102500000Y-70000000D02*
X102500000Y-60700000D01*
X107000000Y-74500000D02*
X102500000Y-70000000D01*
D33*
X107635000Y-75825000D02*
X107000000Y-75825000D01*
X107000000Y-75825000D02*
X106365000Y-75825000D01*
D30*
X98500000Y-61125000D02*
X94125000Y-61125000D01*
X94125000Y-61125000D02*
X94000000Y-61000000D01*
X97475000Y-50475000D02*
X97475000Y-51775000D01*
X97875000Y-61125000D02*
X98500000Y-61125000D01*
X98500000Y-61125000D02*
X100000000Y-61125000D01*
X96500000Y-59750000D02*
X97875000Y-61125000D01*
X96500000Y-52750000D02*
X96500000Y-59750000D01*
X97475000Y-51775000D02*
X96500000Y-52750000D01*
X104710000Y-60700000D02*
X102500000Y-60700000D01*
X102500000Y-60700000D02*
X100425000Y-60700000D01*
X100425000Y-60700000D02*
X100000000Y-61125000D01*
G04 #@! TO.N,Net-(C4-Pad1)*
X117000000Y-85460000D02*
X119460000Y-85460000D01*
X114460000Y-85620000D02*
X116840000Y-85620000D01*
X116840000Y-85620000D02*
X117000000Y-85460000D01*
D32*
X114620000Y-85460000D02*
X114460000Y-85620000D01*
X119460000Y-85460000D02*
X119540000Y-85540000D01*
X116525000Y-69525000D02*
X114275000Y-69525000D01*
X114275000Y-69525000D02*
X114000000Y-69250000D01*
X116500000Y-69500000D02*
X116525000Y-69525000D01*
D30*
G04 #@! TO.N,Net-(D1-Pad2)*
X125250000Y-67960000D02*
X125250000Y-57250000D01*
X123300000Y-55300000D02*
X120000000Y-55300000D01*
X125250000Y-57250000D02*
X123300000Y-55300000D01*
D34*
G04 #@! TO.N,Net-(R1-Pad1)*
X107635000Y-82175000D02*
X107635000Y-80365000D01*
D32*
X108650000Y-79350000D02*
X108000000Y-80000000D01*
X108650000Y-79350000D02*
X114000000Y-79350000D01*
D34*
X107635000Y-80365000D02*
X108000000Y-80000000D01*
D30*
G04 #@! TO.N,Net-(R1-Pad2)*
X117000000Y-83000000D02*
X117000000Y-78000000D01*
D32*
X114000000Y-76650000D02*
X115650000Y-76650000D01*
X115650000Y-76650000D02*
X117000000Y-78000000D01*
D30*
G04 #@! TO.N,Net-(R2-Pad1)*
X117000000Y-88100000D02*
X117000000Y-90700000D01*
D32*
X114500000Y-90850000D02*
X116850000Y-90850000D01*
X116850000Y-90850000D02*
X117000000Y-90700000D01*
G04 #@! TD*
D35*
G04 #@! TO.N,GND*
G36*
X82089629Y-46125620D02*
X82075487Y-46135068D01*
X81763339Y-46583734D01*
X84000000Y-48820395D01*
X86236661Y-46583734D01*
X85924513Y-46135068D01*
X84905417Y-45710000D01*
X125100059Y-45710000D01*
X124089629Y-46125620D01*
X124075487Y-46135068D01*
X123763339Y-46583734D01*
X126000000Y-48820395D01*
X128236661Y-46583734D01*
X127924513Y-46135068D01*
X126905417Y-45710000D01*
X129290000Y-45710000D01*
X129290000Y-48100059D01*
X128874380Y-47089629D01*
X128864932Y-47075487D01*
X128416266Y-46763339D01*
X126179605Y-49000000D01*
X128416266Y-51236661D01*
X128864932Y-50924513D01*
X129290000Y-49905417D01*
X129290001Y-90100061D01*
X128874380Y-89089629D01*
X128864932Y-89075487D01*
X128416266Y-88763339D01*
X126179605Y-91000000D01*
X128416266Y-93236661D01*
X128864932Y-92924513D01*
X129290001Y-91905415D01*
X129290001Y-94290000D01*
X126899941Y-94290000D01*
X127910371Y-93874380D01*
X127924513Y-93864932D01*
X128236661Y-93416266D01*
X126000000Y-91179605D01*
X123763339Y-93416266D01*
X124075487Y-93864932D01*
X125094583Y-94290000D01*
X103925000Y-94290000D01*
X103925000Y-93869038D01*
X103986823Y-93807215D01*
X103925000Y-93745392D01*
X103925000Y-93670573D01*
X104165859Y-93564275D01*
X104434071Y-92864117D01*
X104413928Y-92114616D01*
X104165859Y-91515725D01*
X103925000Y-91409427D01*
X103925000Y-91334608D01*
X103986823Y-91272785D01*
X103925000Y-91210962D01*
X103925000Y-90873691D01*
X103828327Y-90640302D01*
X103649699Y-90461673D01*
X103416310Y-90365000D01*
X102825750Y-90365000D01*
X102667000Y-90523750D01*
X102667000Y-90651227D01*
X102413000Y-90658053D01*
X102413000Y-90523750D01*
X102254250Y-90365000D01*
X101663690Y-90365000D01*
X101608503Y-90387859D01*
X101634490Y-90325120D01*
X101634490Y-89674880D01*
X101385654Y-89074136D01*
X101104607Y-88793089D01*
X101386517Y-88793089D01*
X101515725Y-89085859D01*
X102215883Y-89354071D01*
X102965384Y-89333928D01*
X103564275Y-89085859D01*
X103693483Y-88793089D01*
X102540000Y-87639605D01*
X101386517Y-88793089D01*
X101104607Y-88793089D01*
X100925864Y-88614346D01*
X100325120Y-88365510D01*
X99674880Y-88365510D01*
X99074136Y-88614346D01*
X98614346Y-89074136D01*
X98365510Y-89674880D01*
X98365510Y-90325120D01*
X98391497Y-90387859D01*
X98336310Y-90365000D01*
X97745750Y-90365000D01*
X97587000Y-90523750D01*
X97587000Y-90651227D01*
X97333000Y-90658053D01*
X97333000Y-90523750D01*
X97174250Y-90365000D01*
X96583690Y-90365000D01*
X96350301Y-90461673D01*
X96171673Y-90640302D01*
X96075000Y-90873691D01*
X96075000Y-91210962D01*
X96013177Y-91272785D01*
X96075000Y-91334608D01*
X96075000Y-91409427D01*
X95834141Y-91515725D01*
X95565929Y-92215883D01*
X95586072Y-92965384D01*
X95834141Y-93564275D01*
X96075000Y-93670573D01*
X96075000Y-93745392D01*
X96013177Y-93807215D01*
X96075000Y-93869038D01*
X96075000Y-94290000D01*
X84899941Y-94290000D01*
X85910371Y-93874380D01*
X85924513Y-93864932D01*
X86236661Y-93416266D01*
X84000000Y-91179605D01*
X81763339Y-93416266D01*
X82075487Y-93864932D01*
X83094583Y-94290000D01*
X80710000Y-94290000D01*
X80710000Y-91899941D01*
X81125620Y-92910371D01*
X81135068Y-92924513D01*
X81583734Y-93236661D01*
X83820395Y-91000000D01*
X84179605Y-91000000D01*
X86416266Y-93236661D01*
X86864932Y-92924513D01*
X87383331Y-91681657D01*
X87386648Y-90335024D01*
X86874380Y-89089629D01*
X86864932Y-89075487D01*
X86459028Y-88793089D01*
X96306517Y-88793089D01*
X96435725Y-89085859D01*
X97135883Y-89354071D01*
X97885384Y-89333928D01*
X98484275Y-89085859D01*
X98613483Y-88793089D01*
X97460000Y-87639605D01*
X96306517Y-88793089D01*
X86459028Y-88793089D01*
X86416266Y-88763339D01*
X84179605Y-91000000D01*
X83820395Y-91000000D01*
X81583734Y-88763339D01*
X81135068Y-89075487D01*
X80710000Y-90094583D01*
X80710000Y-88583734D01*
X81763339Y-88583734D01*
X84000000Y-90820395D01*
X86236661Y-88583734D01*
X85924513Y-88135068D01*
X84681657Y-87616669D01*
X83335024Y-87613352D01*
X82089629Y-88125620D01*
X82075487Y-88135068D01*
X81763339Y-88583734D01*
X80710000Y-88583734D01*
X80710000Y-87135883D01*
X95565929Y-87135883D01*
X95586072Y-87885384D01*
X95834141Y-88484275D01*
X96126911Y-88613483D01*
X97280395Y-87460000D01*
X97639605Y-87460000D01*
X98793089Y-88613483D01*
X99085859Y-88484275D01*
X99354071Y-87784117D01*
X99336650Y-87135883D01*
X100645929Y-87135883D01*
X100666072Y-87885384D01*
X100914141Y-88484275D01*
X101206911Y-88613483D01*
X102360395Y-87460000D01*
X102719605Y-87460000D01*
X103873089Y-88613483D01*
X104165859Y-88484275D01*
X104434071Y-87784117D01*
X104413928Y-87034616D01*
X104165859Y-86435725D01*
X103873089Y-86306517D01*
X102719605Y-87460000D01*
X102360395Y-87460000D01*
X101206911Y-86306517D01*
X100914141Y-86435725D01*
X100645929Y-87135883D01*
X99336650Y-87135883D01*
X99333928Y-87034616D01*
X99085859Y-86435725D01*
X98793089Y-86306517D01*
X97639605Y-87460000D01*
X97280395Y-87460000D01*
X96126911Y-86306517D01*
X95834141Y-86435725D01*
X95565929Y-87135883D01*
X80710000Y-87135883D01*
X80710000Y-86126911D01*
X96306517Y-86126911D01*
X97460000Y-87280395D01*
X98613483Y-86126911D01*
X101386517Y-86126911D01*
X102540000Y-87280395D01*
X103693483Y-86126911D01*
X103564275Y-85834141D01*
X102864117Y-85565929D01*
X102114616Y-85586072D01*
X101515725Y-85834141D01*
X101386517Y-86126911D01*
X98613483Y-86126911D01*
X98484275Y-85834141D01*
X97784117Y-85565929D01*
X97034616Y-85586072D01*
X96435725Y-85834141D01*
X96306517Y-86126911D01*
X80710000Y-86126911D01*
X80710000Y-82460750D01*
X104206000Y-82460750D01*
X104206000Y-82872810D01*
X104302673Y-83106199D01*
X104481302Y-83284827D01*
X104714691Y-83381500D01*
X104809250Y-83381500D01*
X104968000Y-83222750D01*
X104968000Y-82302000D01*
X105222000Y-82302000D01*
X105222000Y-83222750D01*
X105380750Y-83381500D01*
X105475309Y-83381500D01*
X105708698Y-83284827D01*
X105730000Y-83263525D01*
X105751302Y-83284827D01*
X105984691Y-83381500D01*
X106079250Y-83381500D01*
X106238000Y-83222750D01*
X106238000Y-82302000D01*
X105222000Y-82302000D01*
X104968000Y-82302000D01*
X104364750Y-82302000D01*
X104206000Y-82460750D01*
X80710000Y-82460750D01*
X80710000Y-81477190D01*
X104206000Y-81477190D01*
X104206000Y-81889250D01*
X104364750Y-82048000D01*
X104968000Y-82048000D01*
X104968000Y-81127250D01*
X105222000Y-81127250D01*
X105222000Y-82048000D01*
X106238000Y-82048000D01*
X106238000Y-81127250D01*
X106492000Y-81127250D01*
X106492000Y-82048000D01*
X106512000Y-82048000D01*
X106512000Y-82302000D01*
X106492000Y-82302000D01*
X106492000Y-83222750D01*
X106650750Y-83381500D01*
X106745309Y-83381500D01*
X106978698Y-83284827D01*
X107004732Y-83258793D01*
X107133235Y-83344657D01*
X107381000Y-83393940D01*
X107889000Y-83393940D01*
X108136765Y-83344657D01*
X108270000Y-83255632D01*
X108403235Y-83344657D01*
X108651000Y-83393940D01*
X109159000Y-83393940D01*
X109406765Y-83344657D01*
X109616809Y-83204309D01*
X109757157Y-82994265D01*
X109806440Y-82746500D01*
X109806440Y-81603500D01*
X109757157Y-81355735D01*
X109616809Y-81145691D01*
X109406765Y-81005343D01*
X109159000Y-80956060D01*
X108651000Y-80956060D01*
X108595609Y-80967078D01*
X108723523Y-80881608D01*
X109120131Y-80485000D01*
X112843541Y-80485000D01*
X112892191Y-80557809D01*
X113102235Y-80698157D01*
X113350000Y-80747440D01*
X114650000Y-80747440D01*
X114897765Y-80698157D01*
X115107809Y-80557809D01*
X115248157Y-80347765D01*
X115297440Y-80100000D01*
X115297440Y-78600000D01*
X115248157Y-78352235D01*
X115107809Y-78142191D01*
X114897765Y-78001843D01*
X114888500Y-78000000D01*
X114897765Y-77998157D01*
X115107809Y-77857809D01*
X115156459Y-77785000D01*
X115179869Y-77785000D01*
X115465000Y-78070131D01*
X115465000Y-78305330D01*
X115615001Y-78667464D01*
X115615000Y-83136406D01*
X115695359Y-83540399D01*
X116001471Y-83998528D01*
X116347892Y-84230000D01*
X116340409Y-84235000D01*
X115127462Y-84235000D01*
X114765330Y-84085000D01*
X114154670Y-84085000D01*
X113590493Y-84318690D01*
X113158690Y-84750493D01*
X112925000Y-85314670D01*
X112925000Y-85925330D01*
X113158690Y-86489507D01*
X113518978Y-86849795D01*
X113490301Y-86861673D01*
X113311673Y-87040302D01*
X113215000Y-87273691D01*
X113215000Y-87864250D01*
X113373750Y-88023000D01*
X114373000Y-88023000D01*
X114373000Y-88003000D01*
X114627000Y-88003000D01*
X114627000Y-88023000D01*
X114647000Y-88023000D01*
X114647000Y-88277000D01*
X114627000Y-88277000D01*
X114627000Y-88297000D01*
X114373000Y-88297000D01*
X114373000Y-88277000D01*
X113373750Y-88277000D01*
X113215000Y-88435750D01*
X113215000Y-89026309D01*
X113311673Y-89259698D01*
X113490301Y-89438327D01*
X113630209Y-89496279D01*
X113602235Y-89501843D01*
X113392191Y-89642191D01*
X113251843Y-89852235D01*
X113202560Y-90100000D01*
X113202560Y-91600000D01*
X113251843Y-91847765D01*
X113392191Y-92057809D01*
X113602235Y-92198157D01*
X113850000Y-92247440D01*
X115150000Y-92247440D01*
X115397765Y-92198157D01*
X115607809Y-92057809D01*
X115656459Y-91985000D01*
X116114183Y-91985000D01*
X116130493Y-92001310D01*
X116694670Y-92235000D01*
X117305330Y-92235000D01*
X117869507Y-92001310D01*
X118205841Y-91664976D01*
X122613352Y-91664976D01*
X123125620Y-92910371D01*
X123135068Y-92924513D01*
X123583734Y-93236661D01*
X125820395Y-91000000D01*
X123583734Y-88763339D01*
X123135068Y-89075487D01*
X122616669Y-90318343D01*
X122613352Y-91664976D01*
X118205841Y-91664976D01*
X118301310Y-91569507D01*
X118535000Y-91005330D01*
X118535000Y-90394670D01*
X118385000Y-90032538D01*
X118385000Y-88583734D01*
X123763339Y-88583734D01*
X126000000Y-90820395D01*
X128236661Y-88583734D01*
X127924513Y-88135068D01*
X126681657Y-87616669D01*
X125335024Y-87613352D01*
X124089629Y-88125620D01*
X124075487Y-88135068D01*
X123763339Y-88583734D01*
X118385000Y-88583734D01*
X118385000Y-87963593D01*
X118355000Y-87812772D01*
X118355000Y-87810474D01*
X118354120Y-87808351D01*
X118304641Y-87559600D01*
X118163737Y-87348723D01*
X118148714Y-87312454D01*
X118120954Y-87284694D01*
X117998528Y-87101471D01*
X117815306Y-86979046D01*
X117767546Y-86931286D01*
X117705145Y-86905439D01*
X117614692Y-86845000D01*
X119149763Y-86845000D01*
X119270474Y-86895000D01*
X119809526Y-86895000D01*
X120307546Y-86688714D01*
X120688714Y-86307546D01*
X120895000Y-85809526D01*
X120895000Y-85270474D01*
X120778478Y-84989165D01*
X120764641Y-84919600D01*
X120725236Y-84860626D01*
X120688714Y-84772454D01*
X120621229Y-84704969D01*
X120458529Y-84461471D01*
X120000400Y-84155359D01*
X119596407Y-84075000D01*
X117884081Y-84075000D01*
X117998528Y-83998529D01*
X118304641Y-83540400D01*
X118385000Y-83136407D01*
X118385000Y-78667462D01*
X118535000Y-78305330D01*
X118535000Y-77694670D01*
X118301310Y-77130493D01*
X117869507Y-76698690D01*
X117305330Y-76465000D01*
X117070131Y-76465000D01*
X116531613Y-75926482D01*
X116468289Y-75831711D01*
X116092855Y-75580854D01*
X115761783Y-75515000D01*
X115650000Y-75492765D01*
X115538217Y-75515000D01*
X115156459Y-75515000D01*
X115107809Y-75442191D01*
X114897765Y-75301843D01*
X114650000Y-75252560D01*
X113350000Y-75252560D01*
X113102235Y-75301843D01*
X112892191Y-75442191D01*
X112751843Y-75652235D01*
X112702560Y-75900000D01*
X112702560Y-77400000D01*
X112751843Y-77647765D01*
X112892191Y-77857809D01*
X113102235Y-77998157D01*
X113111500Y-78000000D01*
X113102235Y-78001843D01*
X112892191Y-78142191D01*
X112843541Y-78215000D01*
X108761783Y-78215000D01*
X108650000Y-78192765D01*
X108538217Y-78215000D01*
X108207145Y-78280854D01*
X107831711Y-78531711D01*
X107768387Y-78626482D01*
X107118392Y-79276477D01*
X106930854Y-79557146D01*
X106880233Y-79811635D01*
X106754250Y-80000182D01*
X106681683Y-80365000D01*
X106700001Y-80457090D01*
X106700001Y-80968500D01*
X106650750Y-80968500D01*
X106492000Y-81127250D01*
X106238000Y-81127250D01*
X106079250Y-80968500D01*
X105984691Y-80968500D01*
X105751302Y-81065173D01*
X105730000Y-81086475D01*
X105708698Y-81065173D01*
X105475309Y-80968500D01*
X105380750Y-80968500D01*
X105222000Y-81127250D01*
X104968000Y-81127250D01*
X104809250Y-80968500D01*
X104714691Y-80968500D01*
X104481302Y-81065173D01*
X104302673Y-81243801D01*
X104206000Y-81477190D01*
X80710000Y-81477190D01*
X80710000Y-76110750D01*
X104206000Y-76110750D01*
X104206000Y-76522810D01*
X104302673Y-76756199D01*
X104481302Y-76934827D01*
X104714691Y-77031500D01*
X104809250Y-77031500D01*
X104968000Y-76872750D01*
X104968000Y-75952000D01*
X104364750Y-75952000D01*
X104206000Y-76110750D01*
X80710000Y-76110750D01*
X80710000Y-75127190D01*
X104206000Y-75127190D01*
X104206000Y-75539250D01*
X104364750Y-75698000D01*
X104968000Y-75698000D01*
X104968000Y-74777250D01*
X104809250Y-74618500D01*
X104714691Y-74618500D01*
X104481302Y-74715173D01*
X104302673Y-74893801D01*
X104206000Y-75127190D01*
X80710000Y-75127190D01*
X80710000Y-69150050D01*
X95590000Y-69150050D01*
X95590000Y-69899950D01*
X95876974Y-70592767D01*
X96407233Y-71123026D01*
X97100050Y-71410000D01*
X97849950Y-71410000D01*
X98542767Y-71123026D01*
X99073026Y-70592767D01*
X99360000Y-69899950D01*
X99360000Y-69150050D01*
X99073026Y-68457233D01*
X98542767Y-67926974D01*
X97849950Y-67640000D01*
X97100050Y-67640000D01*
X96407233Y-67926974D01*
X95876974Y-68457233D01*
X95590000Y-69150050D01*
X80710000Y-69150050D01*
X80710000Y-65285750D01*
X93365000Y-65285750D01*
X93365000Y-65751310D01*
X93461673Y-65984699D01*
X93640302Y-66163327D01*
X93873691Y-66260000D01*
X94464250Y-66260000D01*
X94623000Y-66101250D01*
X94623000Y-65127000D01*
X93523750Y-65127000D01*
X93365000Y-65285750D01*
X80710000Y-65285750D01*
X80710000Y-64248690D01*
X93365000Y-64248690D01*
X93365000Y-64714250D01*
X93523750Y-64873000D01*
X94623000Y-64873000D01*
X94623000Y-63898750D01*
X94464250Y-63740000D01*
X93873691Y-63740000D01*
X93640302Y-63836673D01*
X93461673Y-64015301D01*
X93365000Y-64248690D01*
X80710000Y-64248690D01*
X80710000Y-60000000D01*
X92552560Y-60000000D01*
X92552560Y-62000000D01*
X92601843Y-62247765D01*
X92742191Y-62457809D01*
X92952235Y-62598157D01*
X93200000Y-62647440D01*
X94800000Y-62647440D01*
X95047765Y-62598157D01*
X95179700Y-62510000D01*
X97009869Y-62510000D01*
X96526480Y-62993389D01*
X96431712Y-63056711D01*
X96180854Y-63432145D01*
X96180854Y-63432146D01*
X96092765Y-63875000D01*
X96094240Y-63882413D01*
X96042191Y-63917191D01*
X96001346Y-63978320D01*
X95859698Y-63836673D01*
X95626309Y-63740000D01*
X95035750Y-63740000D01*
X94877000Y-63898750D01*
X94877000Y-64873000D01*
X94897000Y-64873000D01*
X94897000Y-65127000D01*
X94877000Y-65127000D01*
X94877000Y-66101250D01*
X95035750Y-66260000D01*
X95626309Y-66260000D01*
X95859698Y-66163327D01*
X96001346Y-66021680D01*
X96042191Y-66082809D01*
X96252235Y-66223157D01*
X96500000Y-66272440D01*
X98000000Y-66272440D01*
X98247765Y-66223157D01*
X98457809Y-66082809D01*
X98598157Y-65872765D01*
X98647440Y-65625000D01*
X98647440Y-64375000D01*
X98598943Y-64131188D01*
X99082691Y-63647440D01*
X101250000Y-63647440D01*
X101365001Y-63624565D01*
X101365000Y-69888217D01*
X101342765Y-70000000D01*
X101411049Y-70343288D01*
X101430854Y-70442854D01*
X101681711Y-70818289D01*
X101776482Y-70881613D01*
X105540280Y-74645412D01*
X105475309Y-74618500D01*
X105380750Y-74618500D01*
X105222000Y-74777250D01*
X105222000Y-75698000D01*
X105242000Y-75698000D01*
X105242000Y-75952000D01*
X105222000Y-75952000D01*
X105222000Y-76872750D01*
X105380750Y-77031500D01*
X105475309Y-77031500D01*
X105708698Y-76934827D01*
X105734732Y-76908793D01*
X105863235Y-76994657D01*
X106111000Y-77043940D01*
X106619000Y-77043940D01*
X106866765Y-76994657D01*
X106911655Y-76964662D01*
X107000000Y-76982235D01*
X107088345Y-76964662D01*
X107133235Y-76994657D01*
X107381000Y-77043940D01*
X107889000Y-77043940D01*
X108136765Y-76994657D01*
X108265268Y-76908793D01*
X108291302Y-76934827D01*
X108524691Y-77031500D01*
X108619250Y-77031500D01*
X108778000Y-76872750D01*
X108778000Y-75952000D01*
X109032000Y-75952000D01*
X109032000Y-76872750D01*
X109190750Y-77031500D01*
X109285309Y-77031500D01*
X109518698Y-76934827D01*
X109697327Y-76756199D01*
X109794000Y-76522810D01*
X109794000Y-76110750D01*
X109635250Y-75952000D01*
X109032000Y-75952000D01*
X108778000Y-75952000D01*
X108758000Y-75952000D01*
X108758000Y-75698000D01*
X108778000Y-75698000D01*
X108778000Y-74777250D01*
X109032000Y-74777250D01*
X109032000Y-75698000D01*
X109635250Y-75698000D01*
X109794000Y-75539250D01*
X109794000Y-75127190D01*
X109697327Y-74893801D01*
X109518698Y-74715173D01*
X109285309Y-74618500D01*
X109190750Y-74618500D01*
X109032000Y-74777250D01*
X108778000Y-74777250D01*
X108619250Y-74618500D01*
X108524691Y-74618500D01*
X108291302Y-74715173D01*
X108265268Y-74741207D01*
X108136765Y-74655343D01*
X108135000Y-74654992D01*
X108135000Y-74611782D01*
X108157235Y-74499999D01*
X108069146Y-74057145D01*
X107818289Y-73681711D01*
X107723521Y-73618389D01*
X104963452Y-70858320D01*
X105846285Y-70858320D01*
X105975533Y-71151123D01*
X106675806Y-71419388D01*
X107425435Y-71399250D01*
X108024467Y-71151123D01*
X108153715Y-70858320D01*
X107000000Y-69704605D01*
X105846285Y-70858320D01*
X104963452Y-70858320D01*
X103635000Y-69529869D01*
X103635000Y-69200806D01*
X105105612Y-69200806D01*
X105125750Y-69950435D01*
X105373877Y-70549467D01*
X105666680Y-70678715D01*
X106820395Y-69525000D01*
X107179605Y-69525000D01*
X108333320Y-70678715D01*
X108626123Y-70549467D01*
X108894388Y-69849194D01*
X108874250Y-69099565D01*
X108626123Y-68500533D01*
X108624916Y-68500000D01*
X112727560Y-68500000D01*
X112727560Y-70000000D01*
X112776843Y-70247765D01*
X112917191Y-70457809D01*
X113127235Y-70598157D01*
X113375000Y-70647440D01*
X114100073Y-70647440D01*
X114163217Y-70660000D01*
X114275000Y-70682235D01*
X114386783Y-70660000D01*
X114994207Y-70660000D01*
X115457233Y-71123026D01*
X116150050Y-71410000D01*
X116899950Y-71410000D01*
X117592767Y-71123026D01*
X117930043Y-70785750D01*
X123315000Y-70785750D01*
X123315000Y-71626309D01*
X123411673Y-71859698D01*
X123590301Y-72038327D01*
X123823690Y-72135000D01*
X124964250Y-72135000D01*
X125123000Y-71976250D01*
X125123000Y-70627000D01*
X125377000Y-70627000D01*
X125377000Y-71976250D01*
X125535750Y-72135000D01*
X126676310Y-72135000D01*
X126909699Y-72038327D01*
X127088327Y-71859698D01*
X127185000Y-71626309D01*
X127185000Y-70785750D01*
X127026250Y-70627000D01*
X125377000Y-70627000D01*
X125123000Y-70627000D01*
X123473750Y-70627000D01*
X123315000Y-70785750D01*
X117930043Y-70785750D01*
X118123026Y-70592767D01*
X118410000Y-69899950D01*
X118410000Y-69150050D01*
X118123026Y-68457233D01*
X117592767Y-67926974D01*
X116899950Y-67640000D01*
X116150050Y-67640000D01*
X115457233Y-67926974D01*
X115186633Y-68197574D01*
X115082809Y-68042191D01*
X115021680Y-68001346D01*
X115163327Y-67859698D01*
X115260000Y-67626309D01*
X115260000Y-67035750D01*
X115101250Y-66877000D01*
X114127000Y-66877000D01*
X114127000Y-66897000D01*
X113873000Y-66897000D01*
X113873000Y-66877000D01*
X112898750Y-66877000D01*
X112740000Y-67035750D01*
X112740000Y-67626309D01*
X112836673Y-67859698D01*
X112978320Y-68001346D01*
X112917191Y-68042191D01*
X112776843Y-68252235D01*
X112727560Y-68500000D01*
X108624916Y-68500000D01*
X108333320Y-68371285D01*
X107179605Y-69525000D01*
X106820395Y-69525000D01*
X105666680Y-68371285D01*
X105373877Y-68500533D01*
X105105612Y-69200806D01*
X103635000Y-69200806D01*
X103635000Y-68191680D01*
X105846285Y-68191680D01*
X107000000Y-69345395D01*
X108153715Y-68191680D01*
X108024467Y-67898877D01*
X107324194Y-67630612D01*
X106574565Y-67650750D01*
X105975533Y-67898877D01*
X105846285Y-68191680D01*
X103635000Y-68191680D01*
X103635000Y-65873691D01*
X112740000Y-65873691D01*
X112740000Y-66464250D01*
X112898750Y-66623000D01*
X113873000Y-66623000D01*
X113873000Y-65523750D01*
X114127000Y-65523750D01*
X114127000Y-66623000D01*
X115101250Y-66623000D01*
X115260000Y-66464250D01*
X115260000Y-65873691D01*
X115163327Y-65640302D01*
X114984699Y-65461673D01*
X114751310Y-65365000D01*
X114285750Y-65365000D01*
X114127000Y-65523750D01*
X113873000Y-65523750D01*
X113714250Y-65365000D01*
X113248690Y-65365000D01*
X113015301Y-65461673D01*
X112836673Y-65640302D01*
X112740000Y-65873691D01*
X103635000Y-65873691D01*
X103635000Y-63082522D01*
X103710000Y-63097440D01*
X105710000Y-63097440D01*
X105957765Y-63048157D01*
X106167809Y-62907809D01*
X106308157Y-62697765D01*
X106357440Y-62450000D01*
X106357440Y-58950000D01*
X107642560Y-58950000D01*
X107642560Y-62450000D01*
X107691843Y-62697765D01*
X107832191Y-62907809D01*
X108042235Y-63048157D01*
X108290000Y-63097440D01*
X110290000Y-63097440D01*
X110537765Y-63048157D01*
X110747809Y-62907809D01*
X110888157Y-62697765D01*
X110937440Y-62450000D01*
X110937440Y-62085000D01*
X112569467Y-62085000D01*
X112601843Y-62247765D01*
X112742191Y-62457809D01*
X112952235Y-62598157D01*
X113200000Y-62647440D01*
X114800000Y-62647440D01*
X115047765Y-62598157D01*
X115257809Y-62457809D01*
X115306459Y-62385000D01*
X118202560Y-62385000D01*
X118202560Y-62450000D01*
X118251843Y-62697765D01*
X118392191Y-62907809D01*
X118602235Y-63048157D01*
X118850000Y-63097440D01*
X121150000Y-63097440D01*
X121397765Y-63048157D01*
X121607809Y-62907809D01*
X121748157Y-62697765D01*
X121797440Y-62450000D01*
X121797440Y-58950000D01*
X121748157Y-58702235D01*
X121607809Y-58492191D01*
X121397765Y-58351843D01*
X121150000Y-58302560D01*
X118850000Y-58302560D01*
X118602235Y-58351843D01*
X118392191Y-58492191D01*
X118251843Y-58702235D01*
X118202560Y-58950000D01*
X118202560Y-59615000D01*
X115306459Y-59615000D01*
X115257809Y-59542191D01*
X115047765Y-59401843D01*
X114800000Y-59352560D01*
X114025234Y-59352560D01*
X113836407Y-59315000D01*
X113700000Y-59287867D01*
X113563593Y-59315000D01*
X110937440Y-59315000D01*
X110937440Y-58950000D01*
X110888157Y-58702235D01*
X110747809Y-58492191D01*
X110537765Y-58351843D01*
X110290000Y-58302560D01*
X108290000Y-58302560D01*
X108042235Y-58351843D01*
X107832191Y-58492191D01*
X107691843Y-58702235D01*
X107642560Y-58950000D01*
X106357440Y-58950000D01*
X106308157Y-58702235D01*
X106167809Y-58492191D01*
X105957765Y-58351843D01*
X105710000Y-58302560D01*
X103710000Y-58302560D01*
X103462235Y-58351843D01*
X103252191Y-58492191D01*
X103111843Y-58702235D01*
X103062560Y-58950000D01*
X103062560Y-59315000D01*
X101897440Y-59315000D01*
X101897440Y-59250000D01*
X101848157Y-59002235D01*
X101707809Y-58792191D01*
X101497765Y-58651843D01*
X101250000Y-58602560D01*
X98750000Y-58602560D01*
X98502235Y-58651843D01*
X98292191Y-58792191D01*
X98151843Y-59002235D01*
X98102560Y-59250000D01*
X98102560Y-59393875D01*
X97885000Y-59176315D01*
X97885000Y-55160750D01*
X98115000Y-55160750D01*
X98115000Y-56876309D01*
X98211673Y-57109698D01*
X98390301Y-57288327D01*
X98623690Y-57385000D01*
X99714250Y-57385000D01*
X99873000Y-57226250D01*
X99873000Y-55002000D01*
X100127000Y-55002000D01*
X100127000Y-57226250D01*
X100285750Y-57385000D01*
X101376310Y-57385000D01*
X101609699Y-57288327D01*
X101788327Y-57109698D01*
X101885000Y-56876309D01*
X101885000Y-55160750D01*
X101726250Y-55002000D01*
X100127000Y-55002000D01*
X99873000Y-55002000D01*
X98273750Y-55002000D01*
X98115000Y-55160750D01*
X97885000Y-55160750D01*
X97885000Y-53323685D01*
X98115000Y-53093686D01*
X98115000Y-54589250D01*
X98273750Y-54748000D01*
X99873000Y-54748000D01*
X99873000Y-52523750D01*
X100127000Y-52523750D01*
X100127000Y-54748000D01*
X101726250Y-54748000D01*
X101885000Y-54589250D01*
X101885000Y-53585750D01*
X102855000Y-53585750D01*
X102855000Y-56926310D01*
X102951673Y-57159699D01*
X103130302Y-57338327D01*
X103363691Y-57435000D01*
X106704250Y-57435000D01*
X106863000Y-57276250D01*
X106863000Y-53427000D01*
X107117000Y-53427000D01*
X107117000Y-57276250D01*
X107275750Y-57435000D01*
X110616309Y-57435000D01*
X110849698Y-57338327D01*
X110902275Y-57285750D01*
X112565000Y-57285750D01*
X112565000Y-58126309D01*
X112661673Y-58359698D01*
X112840301Y-58538327D01*
X113073690Y-58635000D01*
X113714250Y-58635000D01*
X113873000Y-58476250D01*
X113873000Y-57127000D01*
X114127000Y-57127000D01*
X114127000Y-58476250D01*
X114285750Y-58635000D01*
X114926310Y-58635000D01*
X115159699Y-58538327D01*
X115338327Y-58359698D01*
X115435000Y-58126309D01*
X115435000Y-57285750D01*
X115276250Y-57127000D01*
X114127000Y-57127000D01*
X113873000Y-57127000D01*
X112723750Y-57127000D01*
X112565000Y-57285750D01*
X110902275Y-57285750D01*
X111028327Y-57159699D01*
X111125000Y-56926310D01*
X111125000Y-55873691D01*
X112565000Y-55873691D01*
X112565000Y-56714250D01*
X112723750Y-56873000D01*
X113873000Y-56873000D01*
X113873000Y-55523750D01*
X114127000Y-55523750D01*
X114127000Y-56873000D01*
X115276250Y-56873000D01*
X115435000Y-56714250D01*
X115435000Y-55873691D01*
X115338327Y-55640302D01*
X115159699Y-55461673D01*
X114926310Y-55365000D01*
X114285750Y-55365000D01*
X114127000Y-55523750D01*
X113873000Y-55523750D01*
X113714250Y-55365000D01*
X113073690Y-55365000D01*
X112840301Y-55461673D01*
X112661673Y-55640302D01*
X112565000Y-55873691D01*
X111125000Y-55873691D01*
X111125000Y-53585750D01*
X111089250Y-53550000D01*
X118202560Y-53550000D01*
X118202560Y-57050000D01*
X118251843Y-57297765D01*
X118392191Y-57507809D01*
X118602235Y-57648157D01*
X118850000Y-57697440D01*
X121150000Y-57697440D01*
X121397765Y-57648157D01*
X121607809Y-57507809D01*
X121748157Y-57297765D01*
X121797440Y-57050000D01*
X121797440Y-56685000D01*
X122726315Y-56685000D01*
X123865001Y-57823686D01*
X123865000Y-66718576D01*
X123771231Y-66781231D01*
X123409864Y-67322055D01*
X123282969Y-67960000D01*
X123409864Y-68597945D01*
X123639330Y-68941365D01*
X123590301Y-68961673D01*
X123411673Y-69140302D01*
X123315000Y-69373691D01*
X123315000Y-70214250D01*
X123473750Y-70373000D01*
X125123000Y-70373000D01*
X125123000Y-70353000D01*
X125377000Y-70353000D01*
X125377000Y-70373000D01*
X127026250Y-70373000D01*
X127185000Y-70214250D01*
X127185000Y-69373691D01*
X127088327Y-69140302D01*
X126909699Y-68961673D01*
X126860670Y-68941365D01*
X127090136Y-68597945D01*
X127217031Y-67960000D01*
X127090136Y-67322055D01*
X126728769Y-66781231D01*
X126635000Y-66718577D01*
X126635000Y-57386401D01*
X126662132Y-57249999D01*
X126635000Y-57113597D01*
X126635000Y-57113593D01*
X126554641Y-56709600D01*
X126248529Y-56251471D01*
X126132885Y-56174200D01*
X124375800Y-54417115D01*
X124298529Y-54301471D01*
X123840400Y-53995359D01*
X123436407Y-53915000D01*
X123300000Y-53887867D01*
X123163593Y-53915000D01*
X121797440Y-53915000D01*
X121797440Y-53550000D01*
X121748157Y-53302235D01*
X121607809Y-53092191D01*
X121397765Y-52951843D01*
X121150000Y-52902560D01*
X118850000Y-52902560D01*
X118602235Y-52951843D01*
X118392191Y-53092191D01*
X118251843Y-53302235D01*
X118202560Y-53550000D01*
X111089250Y-53550000D01*
X110966250Y-53427000D01*
X107117000Y-53427000D01*
X106863000Y-53427000D01*
X103013750Y-53427000D01*
X102855000Y-53585750D01*
X101885000Y-53585750D01*
X101885000Y-52873691D01*
X101788327Y-52640302D01*
X101609699Y-52461673D01*
X101376310Y-52365000D01*
X100285750Y-52365000D01*
X100127000Y-52523750D01*
X99873000Y-52523750D01*
X99714250Y-52365000D01*
X98746499Y-52365000D01*
X98779641Y-52315400D01*
X98860000Y-51911407D01*
X98887133Y-51775001D01*
X98879444Y-51736349D01*
X99073026Y-51542767D01*
X99360000Y-50849950D01*
X99360000Y-50100050D01*
X99183397Y-49673690D01*
X102855000Y-49673690D01*
X102855000Y-53014250D01*
X103013750Y-53173000D01*
X106863000Y-53173000D01*
X106863000Y-49323750D01*
X107117000Y-49323750D01*
X107117000Y-53173000D01*
X110966250Y-53173000D01*
X111125000Y-53014250D01*
X111125000Y-50100050D01*
X114640000Y-50100050D01*
X114640000Y-50849950D01*
X114926974Y-51542767D01*
X115457233Y-52073026D01*
X116150050Y-52360000D01*
X116899950Y-52360000D01*
X117592767Y-52073026D01*
X118123026Y-51542767D01*
X118175424Y-51416266D01*
X123763339Y-51416266D01*
X124075487Y-51864932D01*
X125318343Y-52383331D01*
X126664976Y-52386648D01*
X127910371Y-51874380D01*
X127924513Y-51864932D01*
X128236661Y-51416266D01*
X126000000Y-49179605D01*
X123763339Y-51416266D01*
X118175424Y-51416266D01*
X118410000Y-50849950D01*
X118410000Y-50100050D01*
X118229787Y-49664976D01*
X122613352Y-49664976D01*
X123125620Y-50910371D01*
X123135068Y-50924513D01*
X123583734Y-51236661D01*
X125820395Y-49000000D01*
X123583734Y-46763339D01*
X123135068Y-47075487D01*
X122616669Y-48318343D01*
X122613352Y-49664976D01*
X118229787Y-49664976D01*
X118123026Y-49407233D01*
X117592767Y-48876974D01*
X116899950Y-48590000D01*
X116150050Y-48590000D01*
X115457233Y-48876974D01*
X114926974Y-49407233D01*
X114640000Y-50100050D01*
X111125000Y-50100050D01*
X111125000Y-49673690D01*
X111028327Y-49440301D01*
X110849698Y-49261673D01*
X110616309Y-49165000D01*
X107275750Y-49165000D01*
X107117000Y-49323750D01*
X106863000Y-49323750D01*
X106704250Y-49165000D01*
X103363691Y-49165000D01*
X103130302Y-49261673D01*
X102951673Y-49440301D01*
X102855000Y-49673690D01*
X99183397Y-49673690D01*
X99073026Y-49407233D01*
X98542767Y-48876974D01*
X97849950Y-48590000D01*
X97100050Y-48590000D01*
X96407233Y-48876974D01*
X95876974Y-49407233D01*
X95590000Y-50100050D01*
X95590000Y-50849950D01*
X95839359Y-51451956D01*
X95617112Y-51674203D01*
X95501471Y-51751472D01*
X95195360Y-52209600D01*
X95195359Y-52209601D01*
X95087867Y-52750000D01*
X95115000Y-52886407D01*
X95115000Y-55443158D01*
X94926310Y-55365000D01*
X94285750Y-55365000D01*
X94127000Y-55523750D01*
X94127000Y-56873000D01*
X94147000Y-56873000D01*
X94147000Y-57127000D01*
X94127000Y-57127000D01*
X94127000Y-58476250D01*
X94285750Y-58635000D01*
X94926310Y-58635000D01*
X95115001Y-58556842D01*
X95115001Y-59446769D01*
X95047765Y-59401843D01*
X94800000Y-59352560D01*
X93200000Y-59352560D01*
X92952235Y-59401843D01*
X92742191Y-59542191D01*
X92601843Y-59752235D01*
X92552560Y-60000000D01*
X80710000Y-60000000D01*
X80710000Y-57285750D01*
X92565000Y-57285750D01*
X92565000Y-58126309D01*
X92661673Y-58359698D01*
X92840301Y-58538327D01*
X93073690Y-58635000D01*
X93714250Y-58635000D01*
X93873000Y-58476250D01*
X93873000Y-57127000D01*
X92723750Y-57127000D01*
X92565000Y-57285750D01*
X80710000Y-57285750D01*
X80710000Y-55873691D01*
X92565000Y-55873691D01*
X92565000Y-56714250D01*
X92723750Y-56873000D01*
X93873000Y-56873000D01*
X93873000Y-55523750D01*
X93714250Y-55365000D01*
X93073690Y-55365000D01*
X92840301Y-55461673D01*
X92661673Y-55640302D01*
X92565000Y-55873691D01*
X80710000Y-55873691D01*
X80710000Y-51416266D01*
X81763339Y-51416266D01*
X82075487Y-51864932D01*
X83318343Y-52383331D01*
X84664976Y-52386648D01*
X85910371Y-51874380D01*
X85924513Y-51864932D01*
X86236661Y-51416266D01*
X84000000Y-49179605D01*
X81763339Y-51416266D01*
X80710000Y-51416266D01*
X80710000Y-49899941D01*
X81125620Y-50910371D01*
X81135068Y-50924513D01*
X81583734Y-51236661D01*
X83820395Y-49000000D01*
X84179605Y-49000000D01*
X86416266Y-51236661D01*
X86864932Y-50924513D01*
X87383331Y-49681657D01*
X87386648Y-48335024D01*
X86874380Y-47089629D01*
X86864932Y-47075487D01*
X86416266Y-46763339D01*
X84179605Y-49000000D01*
X83820395Y-49000000D01*
X81583734Y-46763339D01*
X81135068Y-47075487D01*
X80710000Y-48094583D01*
X80710000Y-45710000D01*
X83100059Y-45710000D01*
X82089629Y-46125620D01*
X82089629Y-46125620D01*
G37*
X82089629Y-46125620D02*
X82075487Y-46135068D01*
X81763339Y-46583734D01*
X84000000Y-48820395D01*
X86236661Y-46583734D01*
X85924513Y-46135068D01*
X84905417Y-45710000D01*
X125100059Y-45710000D01*
X124089629Y-46125620D01*
X124075487Y-46135068D01*
X123763339Y-46583734D01*
X126000000Y-48820395D01*
X128236661Y-46583734D01*
X127924513Y-46135068D01*
X126905417Y-45710000D01*
X129290000Y-45710000D01*
X129290000Y-48100059D01*
X128874380Y-47089629D01*
X128864932Y-47075487D01*
X128416266Y-46763339D01*
X126179605Y-49000000D01*
X128416266Y-51236661D01*
X128864932Y-50924513D01*
X129290000Y-49905417D01*
X129290001Y-90100061D01*
X128874380Y-89089629D01*
X128864932Y-89075487D01*
X128416266Y-88763339D01*
X126179605Y-91000000D01*
X128416266Y-93236661D01*
X128864932Y-92924513D01*
X129290001Y-91905415D01*
X129290001Y-94290000D01*
X126899941Y-94290000D01*
X127910371Y-93874380D01*
X127924513Y-93864932D01*
X128236661Y-93416266D01*
X126000000Y-91179605D01*
X123763339Y-93416266D01*
X124075487Y-93864932D01*
X125094583Y-94290000D01*
X103925000Y-94290000D01*
X103925000Y-93869038D01*
X103986823Y-93807215D01*
X103925000Y-93745392D01*
X103925000Y-93670573D01*
X104165859Y-93564275D01*
X104434071Y-92864117D01*
X104413928Y-92114616D01*
X104165859Y-91515725D01*
X103925000Y-91409427D01*
X103925000Y-91334608D01*
X103986823Y-91272785D01*
X103925000Y-91210962D01*
X103925000Y-90873691D01*
X103828327Y-90640302D01*
X103649699Y-90461673D01*
X103416310Y-90365000D01*
X102825750Y-90365000D01*
X102667000Y-90523750D01*
X102667000Y-90651227D01*
X102413000Y-90658053D01*
X102413000Y-90523750D01*
X102254250Y-90365000D01*
X101663690Y-90365000D01*
X101608503Y-90387859D01*
X101634490Y-90325120D01*
X101634490Y-89674880D01*
X101385654Y-89074136D01*
X101104607Y-88793089D01*
X101386517Y-88793089D01*
X101515725Y-89085859D01*
X102215883Y-89354071D01*
X102965384Y-89333928D01*
X103564275Y-89085859D01*
X103693483Y-88793089D01*
X102540000Y-87639605D01*
X101386517Y-88793089D01*
X101104607Y-88793089D01*
X100925864Y-88614346D01*
X100325120Y-88365510D01*
X99674880Y-88365510D01*
X99074136Y-88614346D01*
X98614346Y-89074136D01*
X98365510Y-89674880D01*
X98365510Y-90325120D01*
X98391497Y-90387859D01*
X98336310Y-90365000D01*
X97745750Y-90365000D01*
X97587000Y-90523750D01*
X97587000Y-90651227D01*
X97333000Y-90658053D01*
X97333000Y-90523750D01*
X97174250Y-90365000D01*
X96583690Y-90365000D01*
X96350301Y-90461673D01*
X96171673Y-90640302D01*
X96075000Y-90873691D01*
X96075000Y-91210962D01*
X96013177Y-91272785D01*
X96075000Y-91334608D01*
X96075000Y-91409427D01*
X95834141Y-91515725D01*
X95565929Y-92215883D01*
X95586072Y-92965384D01*
X95834141Y-93564275D01*
X96075000Y-93670573D01*
X96075000Y-93745392D01*
X96013177Y-93807215D01*
X96075000Y-93869038D01*
X96075000Y-94290000D01*
X84899941Y-94290000D01*
X85910371Y-93874380D01*
X85924513Y-93864932D01*
X86236661Y-93416266D01*
X84000000Y-91179605D01*
X81763339Y-93416266D01*
X82075487Y-93864932D01*
X83094583Y-94290000D01*
X80710000Y-94290000D01*
X80710000Y-91899941D01*
X81125620Y-92910371D01*
X81135068Y-92924513D01*
X81583734Y-93236661D01*
X83820395Y-91000000D01*
X84179605Y-91000000D01*
X86416266Y-93236661D01*
X86864932Y-92924513D01*
X87383331Y-91681657D01*
X87386648Y-90335024D01*
X86874380Y-89089629D01*
X86864932Y-89075487D01*
X86459028Y-88793089D01*
X96306517Y-88793089D01*
X96435725Y-89085859D01*
X97135883Y-89354071D01*
X97885384Y-89333928D01*
X98484275Y-89085859D01*
X98613483Y-88793089D01*
X97460000Y-87639605D01*
X96306517Y-88793089D01*
X86459028Y-88793089D01*
X86416266Y-88763339D01*
X84179605Y-91000000D01*
X83820395Y-91000000D01*
X81583734Y-88763339D01*
X81135068Y-89075487D01*
X80710000Y-90094583D01*
X80710000Y-88583734D01*
X81763339Y-88583734D01*
X84000000Y-90820395D01*
X86236661Y-88583734D01*
X85924513Y-88135068D01*
X84681657Y-87616669D01*
X83335024Y-87613352D01*
X82089629Y-88125620D01*
X82075487Y-88135068D01*
X81763339Y-88583734D01*
X80710000Y-88583734D01*
X80710000Y-87135883D01*
X95565929Y-87135883D01*
X95586072Y-87885384D01*
X95834141Y-88484275D01*
X96126911Y-88613483D01*
X97280395Y-87460000D01*
X97639605Y-87460000D01*
X98793089Y-88613483D01*
X99085859Y-88484275D01*
X99354071Y-87784117D01*
X99336650Y-87135883D01*
X100645929Y-87135883D01*
X100666072Y-87885384D01*
X100914141Y-88484275D01*
X101206911Y-88613483D01*
X102360395Y-87460000D01*
X102719605Y-87460000D01*
X103873089Y-88613483D01*
X104165859Y-88484275D01*
X104434071Y-87784117D01*
X104413928Y-87034616D01*
X104165859Y-86435725D01*
X103873089Y-86306517D01*
X102719605Y-87460000D01*
X102360395Y-87460000D01*
X101206911Y-86306517D01*
X100914141Y-86435725D01*
X100645929Y-87135883D01*
X99336650Y-87135883D01*
X99333928Y-87034616D01*
X99085859Y-86435725D01*
X98793089Y-86306517D01*
X97639605Y-87460000D01*
X97280395Y-87460000D01*
X96126911Y-86306517D01*
X95834141Y-86435725D01*
X95565929Y-87135883D01*
X80710000Y-87135883D01*
X80710000Y-86126911D01*
X96306517Y-86126911D01*
X97460000Y-87280395D01*
X98613483Y-86126911D01*
X101386517Y-86126911D01*
X102540000Y-87280395D01*
X103693483Y-86126911D01*
X103564275Y-85834141D01*
X102864117Y-85565929D01*
X102114616Y-85586072D01*
X101515725Y-85834141D01*
X101386517Y-86126911D01*
X98613483Y-86126911D01*
X98484275Y-85834141D01*
X97784117Y-85565929D01*
X97034616Y-85586072D01*
X96435725Y-85834141D01*
X96306517Y-86126911D01*
X80710000Y-86126911D01*
X80710000Y-82460750D01*
X104206000Y-82460750D01*
X104206000Y-82872810D01*
X104302673Y-83106199D01*
X104481302Y-83284827D01*
X104714691Y-83381500D01*
X104809250Y-83381500D01*
X104968000Y-83222750D01*
X104968000Y-82302000D01*
X105222000Y-82302000D01*
X105222000Y-83222750D01*
X105380750Y-83381500D01*
X105475309Y-83381500D01*
X105708698Y-83284827D01*
X105730000Y-83263525D01*
X105751302Y-83284827D01*
X105984691Y-83381500D01*
X106079250Y-83381500D01*
X106238000Y-83222750D01*
X106238000Y-82302000D01*
X105222000Y-82302000D01*
X104968000Y-82302000D01*
X104364750Y-82302000D01*
X104206000Y-82460750D01*
X80710000Y-82460750D01*
X80710000Y-81477190D01*
X104206000Y-81477190D01*
X104206000Y-81889250D01*
X104364750Y-82048000D01*
X104968000Y-82048000D01*
X104968000Y-81127250D01*
X105222000Y-81127250D01*
X105222000Y-82048000D01*
X106238000Y-82048000D01*
X106238000Y-81127250D01*
X106492000Y-81127250D01*
X106492000Y-82048000D01*
X106512000Y-82048000D01*
X106512000Y-82302000D01*
X106492000Y-82302000D01*
X106492000Y-83222750D01*
X106650750Y-83381500D01*
X106745309Y-83381500D01*
X106978698Y-83284827D01*
X107004732Y-83258793D01*
X107133235Y-83344657D01*
X107381000Y-83393940D01*
X107889000Y-83393940D01*
X108136765Y-83344657D01*
X108270000Y-83255632D01*
X108403235Y-83344657D01*
X108651000Y-83393940D01*
X109159000Y-83393940D01*
X109406765Y-83344657D01*
X109616809Y-83204309D01*
X109757157Y-82994265D01*
X109806440Y-82746500D01*
X109806440Y-81603500D01*
X109757157Y-81355735D01*
X109616809Y-81145691D01*
X109406765Y-81005343D01*
X109159000Y-80956060D01*
X108651000Y-80956060D01*
X108595609Y-80967078D01*
X108723523Y-80881608D01*
X109120131Y-80485000D01*
X112843541Y-80485000D01*
X112892191Y-80557809D01*
X113102235Y-80698157D01*
X113350000Y-80747440D01*
X114650000Y-80747440D01*
X114897765Y-80698157D01*
X115107809Y-80557809D01*
X115248157Y-80347765D01*
X115297440Y-80100000D01*
X115297440Y-78600000D01*
X115248157Y-78352235D01*
X115107809Y-78142191D01*
X114897765Y-78001843D01*
X114888500Y-78000000D01*
X114897765Y-77998157D01*
X115107809Y-77857809D01*
X115156459Y-77785000D01*
X115179869Y-77785000D01*
X115465000Y-78070131D01*
X115465000Y-78305330D01*
X115615001Y-78667464D01*
X115615000Y-83136406D01*
X115695359Y-83540399D01*
X116001471Y-83998528D01*
X116347892Y-84230000D01*
X116340409Y-84235000D01*
X115127462Y-84235000D01*
X114765330Y-84085000D01*
X114154670Y-84085000D01*
X113590493Y-84318690D01*
X113158690Y-84750493D01*
X112925000Y-85314670D01*
X112925000Y-85925330D01*
X113158690Y-86489507D01*
X113518978Y-86849795D01*
X113490301Y-86861673D01*
X113311673Y-87040302D01*
X113215000Y-87273691D01*
X113215000Y-87864250D01*
X113373750Y-88023000D01*
X114373000Y-88023000D01*
X114373000Y-88003000D01*
X114627000Y-88003000D01*
X114627000Y-88023000D01*
X114647000Y-88023000D01*
X114647000Y-88277000D01*
X114627000Y-88277000D01*
X114627000Y-88297000D01*
X114373000Y-88297000D01*
X114373000Y-88277000D01*
X113373750Y-88277000D01*
X113215000Y-88435750D01*
X113215000Y-89026309D01*
X113311673Y-89259698D01*
X113490301Y-89438327D01*
X113630209Y-89496279D01*
X113602235Y-89501843D01*
X113392191Y-89642191D01*
X113251843Y-89852235D01*
X113202560Y-90100000D01*
X113202560Y-91600000D01*
X113251843Y-91847765D01*
X113392191Y-92057809D01*
X113602235Y-92198157D01*
X113850000Y-92247440D01*
X115150000Y-92247440D01*
X115397765Y-92198157D01*
X115607809Y-92057809D01*
X115656459Y-91985000D01*
X116114183Y-91985000D01*
X116130493Y-92001310D01*
X116694670Y-92235000D01*
X117305330Y-92235000D01*
X117869507Y-92001310D01*
X118205841Y-91664976D01*
X122613352Y-91664976D01*
X123125620Y-92910371D01*
X123135068Y-92924513D01*
X123583734Y-93236661D01*
X125820395Y-91000000D01*
X123583734Y-88763339D01*
X123135068Y-89075487D01*
X122616669Y-90318343D01*
X122613352Y-91664976D01*
X118205841Y-91664976D01*
X118301310Y-91569507D01*
X118535000Y-91005330D01*
X118535000Y-90394670D01*
X118385000Y-90032538D01*
X118385000Y-88583734D01*
X123763339Y-88583734D01*
X126000000Y-90820395D01*
X128236661Y-88583734D01*
X127924513Y-88135068D01*
X126681657Y-87616669D01*
X125335024Y-87613352D01*
X124089629Y-88125620D01*
X124075487Y-88135068D01*
X123763339Y-88583734D01*
X118385000Y-88583734D01*
X118385000Y-87963593D01*
X118355000Y-87812772D01*
X118355000Y-87810474D01*
X118354120Y-87808351D01*
X118304641Y-87559600D01*
X118163737Y-87348723D01*
X118148714Y-87312454D01*
X118120954Y-87284694D01*
X117998528Y-87101471D01*
X117815306Y-86979046D01*
X117767546Y-86931286D01*
X117705145Y-86905439D01*
X117614692Y-86845000D01*
X119149763Y-86845000D01*
X119270474Y-86895000D01*
X119809526Y-86895000D01*
X120307546Y-86688714D01*
X120688714Y-86307546D01*
X120895000Y-85809526D01*
X120895000Y-85270474D01*
X120778478Y-84989165D01*
X120764641Y-84919600D01*
X120725236Y-84860626D01*
X120688714Y-84772454D01*
X120621229Y-84704969D01*
X120458529Y-84461471D01*
X120000400Y-84155359D01*
X119596407Y-84075000D01*
X117884081Y-84075000D01*
X117998528Y-83998529D01*
X118304641Y-83540400D01*
X118385000Y-83136407D01*
X118385000Y-78667462D01*
X118535000Y-78305330D01*
X118535000Y-77694670D01*
X118301310Y-77130493D01*
X117869507Y-76698690D01*
X117305330Y-76465000D01*
X117070131Y-76465000D01*
X116531613Y-75926482D01*
X116468289Y-75831711D01*
X116092855Y-75580854D01*
X115761783Y-75515000D01*
X115650000Y-75492765D01*
X115538217Y-75515000D01*
X115156459Y-75515000D01*
X115107809Y-75442191D01*
X114897765Y-75301843D01*
X114650000Y-75252560D01*
X113350000Y-75252560D01*
X113102235Y-75301843D01*
X112892191Y-75442191D01*
X112751843Y-75652235D01*
X112702560Y-75900000D01*
X112702560Y-77400000D01*
X112751843Y-77647765D01*
X112892191Y-77857809D01*
X113102235Y-77998157D01*
X113111500Y-78000000D01*
X113102235Y-78001843D01*
X112892191Y-78142191D01*
X112843541Y-78215000D01*
X108761783Y-78215000D01*
X108650000Y-78192765D01*
X108538217Y-78215000D01*
X108207145Y-78280854D01*
X107831711Y-78531711D01*
X107768387Y-78626482D01*
X107118392Y-79276477D01*
X106930854Y-79557146D01*
X106880233Y-79811635D01*
X106754250Y-80000182D01*
X106681683Y-80365000D01*
X106700001Y-80457090D01*
X106700001Y-80968500D01*
X106650750Y-80968500D01*
X106492000Y-81127250D01*
X106238000Y-81127250D01*
X106079250Y-80968500D01*
X105984691Y-80968500D01*
X105751302Y-81065173D01*
X105730000Y-81086475D01*
X105708698Y-81065173D01*
X105475309Y-80968500D01*
X105380750Y-80968500D01*
X105222000Y-81127250D01*
X104968000Y-81127250D01*
X104809250Y-80968500D01*
X104714691Y-80968500D01*
X104481302Y-81065173D01*
X104302673Y-81243801D01*
X104206000Y-81477190D01*
X80710000Y-81477190D01*
X80710000Y-76110750D01*
X104206000Y-76110750D01*
X104206000Y-76522810D01*
X104302673Y-76756199D01*
X104481302Y-76934827D01*
X104714691Y-77031500D01*
X104809250Y-77031500D01*
X104968000Y-76872750D01*
X104968000Y-75952000D01*
X104364750Y-75952000D01*
X104206000Y-76110750D01*
X80710000Y-76110750D01*
X80710000Y-75127190D01*
X104206000Y-75127190D01*
X104206000Y-75539250D01*
X104364750Y-75698000D01*
X104968000Y-75698000D01*
X104968000Y-74777250D01*
X104809250Y-74618500D01*
X104714691Y-74618500D01*
X104481302Y-74715173D01*
X104302673Y-74893801D01*
X104206000Y-75127190D01*
X80710000Y-75127190D01*
X80710000Y-69150050D01*
X95590000Y-69150050D01*
X95590000Y-69899950D01*
X95876974Y-70592767D01*
X96407233Y-71123026D01*
X97100050Y-71410000D01*
X97849950Y-71410000D01*
X98542767Y-71123026D01*
X99073026Y-70592767D01*
X99360000Y-69899950D01*
X99360000Y-69150050D01*
X99073026Y-68457233D01*
X98542767Y-67926974D01*
X97849950Y-67640000D01*
X97100050Y-67640000D01*
X96407233Y-67926974D01*
X95876974Y-68457233D01*
X95590000Y-69150050D01*
X80710000Y-69150050D01*
X80710000Y-65285750D01*
X93365000Y-65285750D01*
X93365000Y-65751310D01*
X93461673Y-65984699D01*
X93640302Y-66163327D01*
X93873691Y-66260000D01*
X94464250Y-66260000D01*
X94623000Y-66101250D01*
X94623000Y-65127000D01*
X93523750Y-65127000D01*
X93365000Y-65285750D01*
X80710000Y-65285750D01*
X80710000Y-64248690D01*
X93365000Y-64248690D01*
X93365000Y-64714250D01*
X93523750Y-64873000D01*
X94623000Y-64873000D01*
X94623000Y-63898750D01*
X94464250Y-63740000D01*
X93873691Y-63740000D01*
X93640302Y-63836673D01*
X93461673Y-64015301D01*
X93365000Y-64248690D01*
X80710000Y-64248690D01*
X80710000Y-60000000D01*
X92552560Y-60000000D01*
X92552560Y-62000000D01*
X92601843Y-62247765D01*
X92742191Y-62457809D01*
X92952235Y-62598157D01*
X93200000Y-62647440D01*
X94800000Y-62647440D01*
X95047765Y-62598157D01*
X95179700Y-62510000D01*
X97009869Y-62510000D01*
X96526480Y-62993389D01*
X96431712Y-63056711D01*
X96180854Y-63432145D01*
X96180854Y-63432146D01*
X96092765Y-63875000D01*
X96094240Y-63882413D01*
X96042191Y-63917191D01*
X96001346Y-63978320D01*
X95859698Y-63836673D01*
X95626309Y-63740000D01*
X95035750Y-63740000D01*
X94877000Y-63898750D01*
X94877000Y-64873000D01*
X94897000Y-64873000D01*
X94897000Y-65127000D01*
X94877000Y-65127000D01*
X94877000Y-66101250D01*
X95035750Y-66260000D01*
X95626309Y-66260000D01*
X95859698Y-66163327D01*
X96001346Y-66021680D01*
X96042191Y-66082809D01*
X96252235Y-66223157D01*
X96500000Y-66272440D01*
X98000000Y-66272440D01*
X98247765Y-66223157D01*
X98457809Y-66082809D01*
X98598157Y-65872765D01*
X98647440Y-65625000D01*
X98647440Y-64375000D01*
X98598943Y-64131188D01*
X99082691Y-63647440D01*
X101250000Y-63647440D01*
X101365001Y-63624565D01*
X101365000Y-69888217D01*
X101342765Y-70000000D01*
X101411049Y-70343288D01*
X101430854Y-70442854D01*
X101681711Y-70818289D01*
X101776482Y-70881613D01*
X105540280Y-74645412D01*
X105475309Y-74618500D01*
X105380750Y-74618500D01*
X105222000Y-74777250D01*
X105222000Y-75698000D01*
X105242000Y-75698000D01*
X105242000Y-75952000D01*
X105222000Y-75952000D01*
X105222000Y-76872750D01*
X105380750Y-77031500D01*
X105475309Y-77031500D01*
X105708698Y-76934827D01*
X105734732Y-76908793D01*
X105863235Y-76994657D01*
X106111000Y-77043940D01*
X106619000Y-77043940D01*
X106866765Y-76994657D01*
X106911655Y-76964662D01*
X107000000Y-76982235D01*
X107088345Y-76964662D01*
X107133235Y-76994657D01*
X107381000Y-77043940D01*
X107889000Y-77043940D01*
X108136765Y-76994657D01*
X108265268Y-76908793D01*
X108291302Y-76934827D01*
X108524691Y-77031500D01*
X108619250Y-77031500D01*
X108778000Y-76872750D01*
X108778000Y-75952000D01*
X109032000Y-75952000D01*
X109032000Y-76872750D01*
X109190750Y-77031500D01*
X109285309Y-77031500D01*
X109518698Y-76934827D01*
X109697327Y-76756199D01*
X109794000Y-76522810D01*
X109794000Y-76110750D01*
X109635250Y-75952000D01*
X109032000Y-75952000D01*
X108778000Y-75952000D01*
X108758000Y-75952000D01*
X108758000Y-75698000D01*
X108778000Y-75698000D01*
X108778000Y-74777250D01*
X109032000Y-74777250D01*
X109032000Y-75698000D01*
X109635250Y-75698000D01*
X109794000Y-75539250D01*
X109794000Y-75127190D01*
X109697327Y-74893801D01*
X109518698Y-74715173D01*
X109285309Y-74618500D01*
X109190750Y-74618500D01*
X109032000Y-74777250D01*
X108778000Y-74777250D01*
X108619250Y-74618500D01*
X108524691Y-74618500D01*
X108291302Y-74715173D01*
X108265268Y-74741207D01*
X108136765Y-74655343D01*
X108135000Y-74654992D01*
X108135000Y-74611782D01*
X108157235Y-74499999D01*
X108069146Y-74057145D01*
X107818289Y-73681711D01*
X107723521Y-73618389D01*
X104963452Y-70858320D01*
X105846285Y-70858320D01*
X105975533Y-71151123D01*
X106675806Y-71419388D01*
X107425435Y-71399250D01*
X108024467Y-71151123D01*
X108153715Y-70858320D01*
X107000000Y-69704605D01*
X105846285Y-70858320D01*
X104963452Y-70858320D01*
X103635000Y-69529869D01*
X103635000Y-69200806D01*
X105105612Y-69200806D01*
X105125750Y-69950435D01*
X105373877Y-70549467D01*
X105666680Y-70678715D01*
X106820395Y-69525000D01*
X107179605Y-69525000D01*
X108333320Y-70678715D01*
X108626123Y-70549467D01*
X108894388Y-69849194D01*
X108874250Y-69099565D01*
X108626123Y-68500533D01*
X108624916Y-68500000D01*
X112727560Y-68500000D01*
X112727560Y-70000000D01*
X112776843Y-70247765D01*
X112917191Y-70457809D01*
X113127235Y-70598157D01*
X113375000Y-70647440D01*
X114100073Y-70647440D01*
X114163217Y-70660000D01*
X114275000Y-70682235D01*
X114386783Y-70660000D01*
X114994207Y-70660000D01*
X115457233Y-71123026D01*
X116150050Y-71410000D01*
X116899950Y-71410000D01*
X117592767Y-71123026D01*
X117930043Y-70785750D01*
X123315000Y-70785750D01*
X123315000Y-71626309D01*
X123411673Y-71859698D01*
X123590301Y-72038327D01*
X123823690Y-72135000D01*
X124964250Y-72135000D01*
X125123000Y-71976250D01*
X125123000Y-70627000D01*
X125377000Y-70627000D01*
X125377000Y-71976250D01*
X125535750Y-72135000D01*
X126676310Y-72135000D01*
X126909699Y-72038327D01*
X127088327Y-71859698D01*
X127185000Y-71626309D01*
X127185000Y-70785750D01*
X127026250Y-70627000D01*
X125377000Y-70627000D01*
X125123000Y-70627000D01*
X123473750Y-70627000D01*
X123315000Y-70785750D01*
X117930043Y-70785750D01*
X118123026Y-70592767D01*
X118410000Y-69899950D01*
X118410000Y-69150050D01*
X118123026Y-68457233D01*
X117592767Y-67926974D01*
X116899950Y-67640000D01*
X116150050Y-67640000D01*
X115457233Y-67926974D01*
X115186633Y-68197574D01*
X115082809Y-68042191D01*
X115021680Y-68001346D01*
X115163327Y-67859698D01*
X115260000Y-67626309D01*
X115260000Y-67035750D01*
X115101250Y-66877000D01*
X114127000Y-66877000D01*
X114127000Y-66897000D01*
X113873000Y-66897000D01*
X113873000Y-66877000D01*
X112898750Y-66877000D01*
X112740000Y-67035750D01*
X112740000Y-67626309D01*
X112836673Y-67859698D01*
X112978320Y-68001346D01*
X112917191Y-68042191D01*
X112776843Y-68252235D01*
X112727560Y-68500000D01*
X108624916Y-68500000D01*
X108333320Y-68371285D01*
X107179605Y-69525000D01*
X106820395Y-69525000D01*
X105666680Y-68371285D01*
X105373877Y-68500533D01*
X105105612Y-69200806D01*
X103635000Y-69200806D01*
X103635000Y-68191680D01*
X105846285Y-68191680D01*
X107000000Y-69345395D01*
X108153715Y-68191680D01*
X108024467Y-67898877D01*
X107324194Y-67630612D01*
X106574565Y-67650750D01*
X105975533Y-67898877D01*
X105846285Y-68191680D01*
X103635000Y-68191680D01*
X103635000Y-65873691D01*
X112740000Y-65873691D01*
X112740000Y-66464250D01*
X112898750Y-66623000D01*
X113873000Y-66623000D01*
X113873000Y-65523750D01*
X114127000Y-65523750D01*
X114127000Y-66623000D01*
X115101250Y-66623000D01*
X115260000Y-66464250D01*
X115260000Y-65873691D01*
X115163327Y-65640302D01*
X114984699Y-65461673D01*
X114751310Y-65365000D01*
X114285750Y-65365000D01*
X114127000Y-65523750D01*
X113873000Y-65523750D01*
X113714250Y-65365000D01*
X113248690Y-65365000D01*
X113015301Y-65461673D01*
X112836673Y-65640302D01*
X112740000Y-65873691D01*
X103635000Y-65873691D01*
X103635000Y-63082522D01*
X103710000Y-63097440D01*
X105710000Y-63097440D01*
X105957765Y-63048157D01*
X106167809Y-62907809D01*
X106308157Y-62697765D01*
X106357440Y-62450000D01*
X106357440Y-58950000D01*
X107642560Y-58950000D01*
X107642560Y-62450000D01*
X107691843Y-62697765D01*
X107832191Y-62907809D01*
X108042235Y-63048157D01*
X108290000Y-63097440D01*
X110290000Y-63097440D01*
X110537765Y-63048157D01*
X110747809Y-62907809D01*
X110888157Y-62697765D01*
X110937440Y-62450000D01*
X110937440Y-62085000D01*
X112569467Y-62085000D01*
X112601843Y-62247765D01*
X112742191Y-62457809D01*
X112952235Y-62598157D01*
X113200000Y-62647440D01*
X114800000Y-62647440D01*
X115047765Y-62598157D01*
X115257809Y-62457809D01*
X115306459Y-62385000D01*
X118202560Y-62385000D01*
X118202560Y-62450000D01*
X118251843Y-62697765D01*
X118392191Y-62907809D01*
X118602235Y-63048157D01*
X118850000Y-63097440D01*
X121150000Y-63097440D01*
X121397765Y-63048157D01*
X121607809Y-62907809D01*
X121748157Y-62697765D01*
X121797440Y-62450000D01*
X121797440Y-58950000D01*
X121748157Y-58702235D01*
X121607809Y-58492191D01*
X121397765Y-58351843D01*
X121150000Y-58302560D01*
X118850000Y-58302560D01*
X118602235Y-58351843D01*
X118392191Y-58492191D01*
X118251843Y-58702235D01*
X118202560Y-58950000D01*
X118202560Y-59615000D01*
X115306459Y-59615000D01*
X115257809Y-59542191D01*
X115047765Y-59401843D01*
X114800000Y-59352560D01*
X114025234Y-59352560D01*
X113836407Y-59315000D01*
X113700000Y-59287867D01*
X113563593Y-59315000D01*
X110937440Y-59315000D01*
X110937440Y-58950000D01*
X110888157Y-58702235D01*
X110747809Y-58492191D01*
X110537765Y-58351843D01*
X110290000Y-58302560D01*
X108290000Y-58302560D01*
X108042235Y-58351843D01*
X107832191Y-58492191D01*
X107691843Y-58702235D01*
X107642560Y-58950000D01*
X106357440Y-58950000D01*
X106308157Y-58702235D01*
X106167809Y-58492191D01*
X105957765Y-58351843D01*
X105710000Y-58302560D01*
X103710000Y-58302560D01*
X103462235Y-58351843D01*
X103252191Y-58492191D01*
X103111843Y-58702235D01*
X103062560Y-58950000D01*
X103062560Y-59315000D01*
X101897440Y-59315000D01*
X101897440Y-59250000D01*
X101848157Y-59002235D01*
X101707809Y-58792191D01*
X101497765Y-58651843D01*
X101250000Y-58602560D01*
X98750000Y-58602560D01*
X98502235Y-58651843D01*
X98292191Y-58792191D01*
X98151843Y-59002235D01*
X98102560Y-59250000D01*
X98102560Y-59393875D01*
X97885000Y-59176315D01*
X97885000Y-55160750D01*
X98115000Y-55160750D01*
X98115000Y-56876309D01*
X98211673Y-57109698D01*
X98390301Y-57288327D01*
X98623690Y-57385000D01*
X99714250Y-57385000D01*
X99873000Y-57226250D01*
X99873000Y-55002000D01*
X100127000Y-55002000D01*
X100127000Y-57226250D01*
X100285750Y-57385000D01*
X101376310Y-57385000D01*
X101609699Y-57288327D01*
X101788327Y-57109698D01*
X101885000Y-56876309D01*
X101885000Y-55160750D01*
X101726250Y-55002000D01*
X100127000Y-55002000D01*
X99873000Y-55002000D01*
X98273750Y-55002000D01*
X98115000Y-55160750D01*
X97885000Y-55160750D01*
X97885000Y-53323685D01*
X98115000Y-53093686D01*
X98115000Y-54589250D01*
X98273750Y-54748000D01*
X99873000Y-54748000D01*
X99873000Y-52523750D01*
X100127000Y-52523750D01*
X100127000Y-54748000D01*
X101726250Y-54748000D01*
X101885000Y-54589250D01*
X101885000Y-53585750D01*
X102855000Y-53585750D01*
X102855000Y-56926310D01*
X102951673Y-57159699D01*
X103130302Y-57338327D01*
X103363691Y-57435000D01*
X106704250Y-57435000D01*
X106863000Y-57276250D01*
X106863000Y-53427000D01*
X107117000Y-53427000D01*
X107117000Y-57276250D01*
X107275750Y-57435000D01*
X110616309Y-57435000D01*
X110849698Y-57338327D01*
X110902275Y-57285750D01*
X112565000Y-57285750D01*
X112565000Y-58126309D01*
X112661673Y-58359698D01*
X112840301Y-58538327D01*
X113073690Y-58635000D01*
X113714250Y-58635000D01*
X113873000Y-58476250D01*
X113873000Y-57127000D01*
X114127000Y-57127000D01*
X114127000Y-58476250D01*
X114285750Y-58635000D01*
X114926310Y-58635000D01*
X115159699Y-58538327D01*
X115338327Y-58359698D01*
X115435000Y-58126309D01*
X115435000Y-57285750D01*
X115276250Y-57127000D01*
X114127000Y-57127000D01*
X113873000Y-57127000D01*
X112723750Y-57127000D01*
X112565000Y-57285750D01*
X110902275Y-57285750D01*
X111028327Y-57159699D01*
X111125000Y-56926310D01*
X111125000Y-55873691D01*
X112565000Y-55873691D01*
X112565000Y-56714250D01*
X112723750Y-56873000D01*
X113873000Y-56873000D01*
X113873000Y-55523750D01*
X114127000Y-55523750D01*
X114127000Y-56873000D01*
X115276250Y-56873000D01*
X115435000Y-56714250D01*
X115435000Y-55873691D01*
X115338327Y-55640302D01*
X115159699Y-55461673D01*
X114926310Y-55365000D01*
X114285750Y-55365000D01*
X114127000Y-55523750D01*
X113873000Y-55523750D01*
X113714250Y-55365000D01*
X113073690Y-55365000D01*
X112840301Y-55461673D01*
X112661673Y-55640302D01*
X112565000Y-55873691D01*
X111125000Y-55873691D01*
X111125000Y-53585750D01*
X111089250Y-53550000D01*
X118202560Y-53550000D01*
X118202560Y-57050000D01*
X118251843Y-57297765D01*
X118392191Y-57507809D01*
X118602235Y-57648157D01*
X118850000Y-57697440D01*
X121150000Y-57697440D01*
X121397765Y-57648157D01*
X121607809Y-57507809D01*
X121748157Y-57297765D01*
X121797440Y-57050000D01*
X121797440Y-56685000D01*
X122726315Y-56685000D01*
X123865001Y-57823686D01*
X123865000Y-66718576D01*
X123771231Y-66781231D01*
X123409864Y-67322055D01*
X123282969Y-67960000D01*
X123409864Y-68597945D01*
X123639330Y-68941365D01*
X123590301Y-68961673D01*
X123411673Y-69140302D01*
X123315000Y-69373691D01*
X123315000Y-70214250D01*
X123473750Y-70373000D01*
X125123000Y-70373000D01*
X125123000Y-70353000D01*
X125377000Y-70353000D01*
X125377000Y-70373000D01*
X127026250Y-70373000D01*
X127185000Y-70214250D01*
X127185000Y-69373691D01*
X127088327Y-69140302D01*
X126909699Y-68961673D01*
X126860670Y-68941365D01*
X127090136Y-68597945D01*
X127217031Y-67960000D01*
X127090136Y-67322055D01*
X126728769Y-66781231D01*
X126635000Y-66718577D01*
X126635000Y-57386401D01*
X126662132Y-57249999D01*
X126635000Y-57113597D01*
X126635000Y-57113593D01*
X126554641Y-56709600D01*
X126248529Y-56251471D01*
X126132885Y-56174200D01*
X124375800Y-54417115D01*
X124298529Y-54301471D01*
X123840400Y-53995359D01*
X123436407Y-53915000D01*
X123300000Y-53887867D01*
X123163593Y-53915000D01*
X121797440Y-53915000D01*
X121797440Y-53550000D01*
X121748157Y-53302235D01*
X121607809Y-53092191D01*
X121397765Y-52951843D01*
X121150000Y-52902560D01*
X118850000Y-52902560D01*
X118602235Y-52951843D01*
X118392191Y-53092191D01*
X118251843Y-53302235D01*
X118202560Y-53550000D01*
X111089250Y-53550000D01*
X110966250Y-53427000D01*
X107117000Y-53427000D01*
X106863000Y-53427000D01*
X103013750Y-53427000D01*
X102855000Y-53585750D01*
X101885000Y-53585750D01*
X101885000Y-52873691D01*
X101788327Y-52640302D01*
X101609699Y-52461673D01*
X101376310Y-52365000D01*
X100285750Y-52365000D01*
X100127000Y-52523750D01*
X99873000Y-52523750D01*
X99714250Y-52365000D01*
X98746499Y-52365000D01*
X98779641Y-52315400D01*
X98860000Y-51911407D01*
X98887133Y-51775001D01*
X98879444Y-51736349D01*
X99073026Y-51542767D01*
X99360000Y-50849950D01*
X99360000Y-50100050D01*
X99183397Y-49673690D01*
X102855000Y-49673690D01*
X102855000Y-53014250D01*
X103013750Y-53173000D01*
X106863000Y-53173000D01*
X106863000Y-49323750D01*
X107117000Y-49323750D01*
X107117000Y-53173000D01*
X110966250Y-53173000D01*
X111125000Y-53014250D01*
X111125000Y-50100050D01*
X114640000Y-50100050D01*
X114640000Y-50849950D01*
X114926974Y-51542767D01*
X115457233Y-52073026D01*
X116150050Y-52360000D01*
X116899950Y-52360000D01*
X117592767Y-52073026D01*
X118123026Y-51542767D01*
X118175424Y-51416266D01*
X123763339Y-51416266D01*
X124075487Y-51864932D01*
X125318343Y-52383331D01*
X126664976Y-52386648D01*
X127910371Y-51874380D01*
X127924513Y-51864932D01*
X128236661Y-51416266D01*
X126000000Y-49179605D01*
X123763339Y-51416266D01*
X118175424Y-51416266D01*
X118410000Y-50849950D01*
X118410000Y-50100050D01*
X118229787Y-49664976D01*
X122613352Y-49664976D01*
X123125620Y-50910371D01*
X123135068Y-50924513D01*
X123583734Y-51236661D01*
X125820395Y-49000000D01*
X123583734Y-46763339D01*
X123135068Y-47075487D01*
X122616669Y-48318343D01*
X122613352Y-49664976D01*
X118229787Y-49664976D01*
X118123026Y-49407233D01*
X117592767Y-48876974D01*
X116899950Y-48590000D01*
X116150050Y-48590000D01*
X115457233Y-48876974D01*
X114926974Y-49407233D01*
X114640000Y-50100050D01*
X111125000Y-50100050D01*
X111125000Y-49673690D01*
X111028327Y-49440301D01*
X110849698Y-49261673D01*
X110616309Y-49165000D01*
X107275750Y-49165000D01*
X107117000Y-49323750D01*
X106863000Y-49323750D01*
X106704250Y-49165000D01*
X103363691Y-49165000D01*
X103130302Y-49261673D01*
X102951673Y-49440301D01*
X102855000Y-49673690D01*
X99183397Y-49673690D01*
X99073026Y-49407233D01*
X98542767Y-48876974D01*
X97849950Y-48590000D01*
X97100050Y-48590000D01*
X96407233Y-48876974D01*
X95876974Y-49407233D01*
X95590000Y-50100050D01*
X95590000Y-50849950D01*
X95839359Y-51451956D01*
X95617112Y-51674203D01*
X95501471Y-51751472D01*
X95195360Y-52209600D01*
X95195359Y-52209601D01*
X95087867Y-52750000D01*
X95115000Y-52886407D01*
X95115000Y-55443158D01*
X94926310Y-55365000D01*
X94285750Y-55365000D01*
X94127000Y-55523750D01*
X94127000Y-56873000D01*
X94147000Y-56873000D01*
X94147000Y-57127000D01*
X94127000Y-57127000D01*
X94127000Y-58476250D01*
X94285750Y-58635000D01*
X94926310Y-58635000D01*
X95115001Y-58556842D01*
X95115001Y-59446769D01*
X95047765Y-59401843D01*
X94800000Y-59352560D01*
X93200000Y-59352560D01*
X92952235Y-59401843D01*
X92742191Y-59542191D01*
X92601843Y-59752235D01*
X92552560Y-60000000D01*
X80710000Y-60000000D01*
X80710000Y-57285750D01*
X92565000Y-57285750D01*
X92565000Y-58126309D01*
X92661673Y-58359698D01*
X92840301Y-58538327D01*
X93073690Y-58635000D01*
X93714250Y-58635000D01*
X93873000Y-58476250D01*
X93873000Y-57127000D01*
X92723750Y-57127000D01*
X92565000Y-57285750D01*
X80710000Y-57285750D01*
X80710000Y-55873691D01*
X92565000Y-55873691D01*
X92565000Y-56714250D01*
X92723750Y-56873000D01*
X93873000Y-56873000D01*
X93873000Y-55523750D01*
X93714250Y-55365000D01*
X93073690Y-55365000D01*
X92840301Y-55461673D01*
X92661673Y-55640302D01*
X92565000Y-55873691D01*
X80710000Y-55873691D01*
X80710000Y-51416266D01*
X81763339Y-51416266D01*
X82075487Y-51864932D01*
X83318343Y-52383331D01*
X84664976Y-52386648D01*
X85910371Y-51874380D01*
X85924513Y-51864932D01*
X86236661Y-51416266D01*
X84000000Y-49179605D01*
X81763339Y-51416266D01*
X80710000Y-51416266D01*
X80710000Y-49899941D01*
X81125620Y-50910371D01*
X81135068Y-50924513D01*
X81583734Y-51236661D01*
X83820395Y-49000000D01*
X84179605Y-49000000D01*
X86416266Y-51236661D01*
X86864932Y-50924513D01*
X87383331Y-49681657D01*
X87386648Y-48335024D01*
X86874380Y-47089629D01*
X86864932Y-47075487D01*
X86416266Y-46763339D01*
X84179605Y-49000000D01*
X83820395Y-49000000D01*
X81583734Y-46763339D01*
X81135068Y-47075487D01*
X80710000Y-48094583D01*
X80710000Y-45710000D01*
X83100059Y-45710000D01*
X82089629Y-46125620D01*
G36*
X97587000Y-92459110D02*
X97587000Y-92620890D01*
X97474143Y-92733748D01*
X97460000Y-92719605D01*
X97445858Y-92733748D01*
X97333000Y-92620890D01*
X97333000Y-92459110D01*
X97445858Y-92346253D01*
X97460000Y-92360395D01*
X97474143Y-92346253D01*
X97587000Y-92459110D01*
X97587000Y-92459110D01*
G37*
X97587000Y-92459110D02*
X97587000Y-92620890D01*
X97474143Y-92733748D01*
X97460000Y-92719605D01*
X97445858Y-92733748D01*
X97333000Y-92620890D01*
X97333000Y-92459110D01*
X97445858Y-92346253D01*
X97460000Y-92360395D01*
X97474143Y-92346253D01*
X97587000Y-92459110D01*
G36*
X102667000Y-92459110D02*
X102667000Y-92620890D01*
X102554143Y-92733748D01*
X102540000Y-92719605D01*
X102525858Y-92733748D01*
X102413000Y-92620890D01*
X102413000Y-92459110D01*
X102525858Y-92346253D01*
X102540000Y-92360395D01*
X102554143Y-92346253D01*
X102667000Y-92459110D01*
X102667000Y-92459110D01*
G37*
X102667000Y-92459110D02*
X102667000Y-92620890D01*
X102554143Y-92733748D01*
X102540000Y-92719605D01*
X102525858Y-92733748D01*
X102413000Y-92620890D01*
X102413000Y-92459110D01*
X102525858Y-92346253D01*
X102540000Y-92360395D01*
X102554143Y-92346253D01*
X102667000Y-92459110D01*
G04 #@! TD*
M02*
