G04 #@! TF.GenerationSoftware,KiCad,Pcbnew,8.0.4*
G04 #@! TF.CreationDate,2025-01-27T10:30:07+01:00*
G04 #@! TF.ProjectId,ocxo,6f63786f-2e6b-4696-9361-645f70636258,rev?*
G04 #@! TF.SameCoordinates,Original*
G04 #@! TF.FileFunction,Copper,L1,Top*
G04 #@! TF.FilePolarity,Positive*
%FSLAX46Y46*%
G04 Gerber Fmt 4.6, Leading zero omitted, Abs format (unit mm)*
G04 Created by KiCad (PCBNEW 8.0.4) date 2025-01-27 10:30:07*
%MOMM*%
%LPD*%
G01*
G04 APERTURE LIST*
G04 #@! TA.AperFunction,ComponentPad*
%ADD10C,0.600000*%
G04 #@! TD*
G04 #@! TA.AperFunction,ComponentPad*
%ADD11C,5.500000*%
G04 #@! TD*
G04 #@! TA.AperFunction,ComponentPad*
%ADD12R,2.600000X2.000000*%
G04 #@! TD*
G04 #@! TA.AperFunction,ComponentPad*
%ADD13O,2.600000X2.000000*%
G04 #@! TD*
G04 #@! TA.AperFunction,ComponentPad*
%ADD14C,1.998980*%
G04 #@! TD*
G04 #@! TA.AperFunction,ComponentPad*
%ADD15C,2.499360*%
G04 #@! TD*
G04 #@! TA.AperFunction,ComponentPad*
%ADD16C,2.500000*%
G04 #@! TD*
G04 #@! TA.AperFunction,ComponentPad*
%ADD17C,1.800000*%
G04 #@! TD*
G04 #@! TA.AperFunction,ComponentPad*
%ADD18C,1.440000*%
G04 #@! TD*
G04 #@! TA.AperFunction,ViaPad*
%ADD19C,0.600000*%
G04 #@! TD*
G04 #@! TA.AperFunction,Conductor*
%ADD20C,0.250000*%
G04 #@! TD*
G04 #@! TA.AperFunction,Conductor*
%ADD21C,1.000000*%
G04 #@! TD*
G04 #@! TA.AperFunction,Conductor*
%ADD22C,1.500000*%
G04 #@! TD*
G04 #@! TA.AperFunction,Conductor*
%ADD23C,2.000000*%
G04 #@! TD*
G04 #@! TA.AperFunction,Profile*
%ADD24C,0.150000*%
G04 #@! TD*
G04 APERTURE END LIST*
D10*
X122000000Y-94000000D03*
X121000000Y-94000000D03*
X120000000Y-94000000D03*
X119000000Y-94000000D03*
X118000000Y-94000000D03*
X117000000Y-94000000D03*
X116000000Y-94000000D03*
X115000000Y-94000000D03*
X114000000Y-94000000D03*
X113000000Y-94000000D03*
X112000000Y-94000000D03*
X111000000Y-94000000D03*
X122000000Y-93000000D03*
X121000000Y-93000000D03*
X120000000Y-93000000D03*
X119000000Y-93000000D03*
X118000000Y-93000000D03*
X117000000Y-93000000D03*
X116000000Y-93000000D03*
X115000000Y-93000000D03*
X114000000Y-93000000D03*
X113000000Y-93000000D03*
X112000000Y-93000000D03*
D11*
X126000000Y-91000000D03*
X84000000Y-49000000D03*
D10*
X129000000Y-87000000D03*
X128000000Y-87000000D03*
X129000000Y-86000000D03*
X128000000Y-86000000D03*
X129000000Y-85000000D03*
X128000000Y-85000000D03*
X129000000Y-84000000D03*
X128000000Y-84000000D03*
X129000000Y-83000000D03*
X128000000Y-83000000D03*
X129000000Y-82000000D03*
X128000000Y-82000000D03*
X129000000Y-81000000D03*
X128000000Y-81000000D03*
X129000000Y-80000000D03*
X128000000Y-80000000D03*
X129000000Y-79000000D03*
X128000000Y-79000000D03*
X129000000Y-78000000D03*
X128000000Y-78000000D03*
X129000000Y-77000000D03*
X128000000Y-77000000D03*
X129000000Y-76000000D03*
X128000000Y-76000000D03*
X129000000Y-75000000D03*
X128000000Y-75000000D03*
X129000000Y-74000000D03*
X128000000Y-74000000D03*
X129000000Y-73000000D03*
X128000000Y-73000000D03*
X129000000Y-72000000D03*
X128000000Y-72000000D03*
X129000000Y-71000000D03*
X128000000Y-71000000D03*
X129000000Y-70000000D03*
X128000000Y-70000000D03*
X129000000Y-69000000D03*
X128000000Y-69000000D03*
X129000000Y-68000000D03*
X128000000Y-68000000D03*
X129000000Y-67000000D03*
X128000000Y-67000000D03*
X129000000Y-66000000D03*
X128000000Y-66000000D03*
X129000000Y-65000000D03*
X128000000Y-65000000D03*
X129000000Y-64000000D03*
X128000000Y-64000000D03*
X129000000Y-63000000D03*
X128000000Y-63000000D03*
X129000000Y-62000000D03*
X128000000Y-62000000D03*
X129000000Y-61000000D03*
X128000000Y-61000000D03*
X129000000Y-60000000D03*
X128000000Y-60000000D03*
X129000000Y-59000000D03*
X128000000Y-59000000D03*
X129000000Y-58000000D03*
X128000000Y-58000000D03*
X129000000Y-57000000D03*
X128000000Y-57000000D03*
X129000000Y-56000000D03*
X128000000Y-56000000D03*
X129000000Y-55000000D03*
X128000000Y-55000000D03*
X129000000Y-54000000D03*
X128000000Y-54000000D03*
X129000000Y-53000000D03*
X128000000Y-53000000D03*
X122000000Y-47000000D03*
X121000000Y-47000000D03*
X120000000Y-47000000D03*
X119000000Y-47000000D03*
X118000000Y-47000000D03*
X117000000Y-47000000D03*
X116000000Y-47000000D03*
X115000000Y-47000000D03*
X114000000Y-47000000D03*
X113000000Y-47000000D03*
X112000000Y-47000000D03*
X111000000Y-47000000D03*
X110000000Y-47000000D03*
X109000000Y-47000000D03*
X108000000Y-47000000D03*
X107000000Y-47000000D03*
X106000000Y-47000000D03*
X105000000Y-47000000D03*
X104000000Y-47000000D03*
X103000000Y-47000000D03*
X102000000Y-47000000D03*
X101000000Y-47000000D03*
X100000000Y-47000000D03*
X99000000Y-47000000D03*
X98000000Y-47000000D03*
X97000000Y-47000000D03*
X96000000Y-47000000D03*
X95000000Y-47000000D03*
X94000000Y-47000000D03*
X93000000Y-47000000D03*
X92000000Y-47000000D03*
X91000000Y-47000000D03*
X90000000Y-47000000D03*
X89000000Y-47000000D03*
X88000000Y-47000000D03*
X122000000Y-46000000D03*
X121000000Y-46000000D03*
X120000000Y-46000000D03*
X119000000Y-46000000D03*
X118000000Y-46000000D03*
X117000000Y-46000000D03*
X116000000Y-46000000D03*
X115000000Y-46000000D03*
X114000000Y-46000000D03*
X113000000Y-46000000D03*
X112000000Y-46000000D03*
X111000000Y-46000000D03*
X110000000Y-46000000D03*
X109000000Y-46000000D03*
X108000000Y-46000000D03*
X107000000Y-46000000D03*
X106000000Y-46000000D03*
X105000000Y-46000000D03*
X104000000Y-46000000D03*
X103000000Y-46000000D03*
X102000000Y-46000000D03*
X101000000Y-46000000D03*
X100000000Y-46000000D03*
X99000000Y-46000000D03*
X98000000Y-46000000D03*
X97000000Y-46000000D03*
X96000000Y-46000000D03*
X95000000Y-46000000D03*
X94000000Y-46000000D03*
X93000000Y-46000000D03*
X92000000Y-46000000D03*
X91000000Y-46000000D03*
X90000000Y-46000000D03*
X89000000Y-46000000D03*
X88000000Y-46000000D03*
X128000000Y-87000000D03*
X128000000Y-86000000D03*
X128000000Y-85000000D03*
X128000000Y-84000000D03*
X128000000Y-83000000D03*
X128000000Y-82000000D03*
X128000000Y-81000000D03*
X128000000Y-80000000D03*
X128000000Y-79000000D03*
X128000000Y-78000000D03*
X128000000Y-77000000D03*
X128000000Y-76000000D03*
X128000000Y-75000000D03*
X128000000Y-74000000D03*
X95000000Y-94000000D03*
X94000000Y-94000000D03*
X93000000Y-94000000D03*
X92000000Y-94000000D03*
X91000000Y-94000000D03*
X90000000Y-94000000D03*
X89000000Y-94000000D03*
X88000000Y-94000000D03*
X95000000Y-93000000D03*
X94000000Y-93000000D03*
X93000000Y-93000000D03*
X92000000Y-93000000D03*
X91000000Y-93000000D03*
X90000000Y-93000000D03*
X89000000Y-93000000D03*
X88000000Y-93000000D03*
X111000000Y-94000000D03*
X110000000Y-94000000D03*
X109000000Y-94000000D03*
X108000000Y-94000000D03*
X107000000Y-94000000D03*
X106000000Y-94000000D03*
X105000000Y-94000000D03*
X111000000Y-93000000D03*
X110000000Y-93000000D03*
X109000000Y-93000000D03*
X108000000Y-93000000D03*
X107000000Y-93000000D03*
X106000000Y-93000000D03*
X105000000Y-93000000D03*
X82000000Y-87000000D03*
X81000000Y-87000000D03*
X82000000Y-86000000D03*
X81000000Y-86000000D03*
X82000000Y-85000000D03*
X81000000Y-85000000D03*
X82000000Y-84000000D03*
X81000000Y-84000000D03*
X82000000Y-83000000D03*
X81000000Y-83000000D03*
X82000000Y-82000000D03*
X81000000Y-82000000D03*
X82000000Y-81000000D03*
X81000000Y-81000000D03*
X82000000Y-80000000D03*
X81000000Y-80000000D03*
X82000000Y-79000000D03*
X81000000Y-79000000D03*
X82000000Y-78000000D03*
X81000000Y-78000000D03*
X82000000Y-77000000D03*
X81000000Y-77000000D03*
X82000000Y-76000000D03*
X81000000Y-76000000D03*
X82000000Y-75000000D03*
X81000000Y-75000000D03*
X82000000Y-74000000D03*
X81000000Y-74000000D03*
X82000000Y-73000000D03*
X81000000Y-73000000D03*
X82000000Y-72000000D03*
X81000000Y-72000000D03*
X82000000Y-71000000D03*
X81000000Y-71000000D03*
X82000000Y-70000000D03*
X81000000Y-70000000D03*
X82000000Y-69000000D03*
X81000000Y-69000000D03*
X82000000Y-68000000D03*
X81000000Y-68000000D03*
X82000000Y-67000000D03*
X81000000Y-67000000D03*
X82000000Y-66000000D03*
X81000000Y-66000000D03*
X82000000Y-65000000D03*
X81000000Y-65000000D03*
X82000000Y-64000000D03*
X81000000Y-64000000D03*
X82000000Y-63000000D03*
X81000000Y-63000000D03*
X82000000Y-62000000D03*
X81000000Y-62000000D03*
X82000000Y-61000000D03*
X81000000Y-61000000D03*
X82000000Y-60000000D03*
X81000000Y-60000000D03*
X82000000Y-59000000D03*
X81000000Y-59000000D03*
X82000000Y-58000000D03*
X81000000Y-58000000D03*
X82000000Y-57000000D03*
X81000000Y-57000000D03*
X82000000Y-56000000D03*
X81000000Y-56000000D03*
X82000000Y-55000000D03*
X81000000Y-55000000D03*
X82000000Y-54000000D03*
X81000000Y-54000000D03*
X82000000Y-53000000D03*
D12*
X125250000Y-70500000D03*
D13*
X125250000Y-67960000D03*
D11*
X126000000Y-49000000D03*
D14*
X100000000Y-90000000D03*
D15*
X102540000Y-87460000D03*
X102540000Y-92540000D03*
X97460000Y-92540000D03*
X97460000Y-87460000D03*
D11*
X84000000Y-91000000D03*
D16*
X97475000Y-50475000D03*
X116525000Y-50475000D03*
X116525000Y-69525000D03*
X97475000Y-69525000D03*
X107000000Y-69525000D03*
D17*
X117000000Y-78000000D03*
X114460000Y-85620000D03*
X117000000Y-90700000D03*
D18*
X117000000Y-83000000D03*
X119540000Y-85540000D03*
X117000000Y-88080000D03*
X117000000Y-88100000D03*
X117000000Y-85460000D03*
X117000000Y-83000000D03*
D10*
X81000000Y-53000000D03*
D19*
X97000000Y-85000000D03*
X97000000Y-84000000D03*
X96000000Y-83000000D03*
X95000000Y-82000000D03*
X95000000Y-81000000D03*
X95000000Y-80000000D03*
X95000000Y-79000000D03*
X95000000Y-78000000D03*
X95000000Y-77000000D03*
X95000000Y-76000000D03*
X95000000Y-75000000D03*
X95000000Y-74000000D03*
X95000000Y-73000000D03*
X95000000Y-72000000D03*
X95000000Y-71000000D03*
X95000000Y-70000000D03*
X95000000Y-69000000D03*
X95000000Y-68000000D03*
X96000000Y-67000000D03*
X97000000Y-67000000D03*
X98000000Y-67000000D03*
X99000000Y-67000000D03*
X100000000Y-68000000D03*
X100000000Y-69000000D03*
X100000000Y-70000000D03*
X100000000Y-71000000D03*
X100000000Y-72000000D03*
X100000000Y-73000000D03*
X100000000Y-74000000D03*
X100000000Y-75000000D03*
X100000000Y-76000000D03*
X100000000Y-77000000D03*
X100000000Y-78000000D03*
X100000000Y-79000000D03*
X100000000Y-80000000D03*
X101000000Y-81000000D03*
X102000000Y-82000000D03*
X102000000Y-83000000D03*
X102000000Y-84000000D03*
X102000000Y-85000000D03*
X102000000Y-86000000D03*
X102500000Y-57000000D03*
X102500000Y-55000000D03*
X102500000Y-53000000D03*
X102500000Y-51000000D03*
X102500000Y-49000000D03*
X104500000Y-49000000D03*
X106500000Y-49000000D03*
X108500000Y-49000000D03*
X110500000Y-49000000D03*
X111500000Y-51000000D03*
X111500000Y-53000000D03*
X111500000Y-55000000D03*
X111500000Y-57000000D03*
D20*
X102540000Y-87460000D02*
X102540000Y-86540000D01*
X102540000Y-86540000D02*
X102000000Y-86000000D01*
X97000000Y-84000000D02*
X97000000Y-85000000D01*
X95000000Y-82000000D02*
X96000000Y-83000000D01*
X95000000Y-80000000D02*
X95000000Y-81000000D01*
X95000000Y-78000000D02*
X95000000Y-79000000D01*
X95000000Y-76000000D02*
X95000000Y-77000000D01*
X95000000Y-74000000D02*
X95000000Y-75000000D01*
X95000000Y-72000000D02*
X95000000Y-73000000D01*
X95000000Y-70000000D02*
X95000000Y-71000000D01*
X95000000Y-68000000D02*
X95000000Y-69000000D01*
X97000000Y-67000000D02*
X96000000Y-67000000D01*
X99000000Y-67000000D02*
X98000000Y-67000000D01*
X100000000Y-69000000D02*
X100000000Y-68000000D01*
X100000000Y-71000000D02*
X100000000Y-70000000D01*
X100000000Y-73000000D02*
X100000000Y-72000000D01*
X100000000Y-75000000D02*
X100000000Y-74000000D01*
X100000000Y-77000000D02*
X100000000Y-76000000D01*
X100000000Y-79000000D02*
X100000000Y-78000000D01*
X101000000Y-81000000D02*
X100000000Y-80000000D01*
X102000000Y-83000000D02*
X102000000Y-82000000D01*
X102000000Y-85000000D02*
X102000000Y-84000000D01*
D21*
X97460000Y-87460000D02*
X97460000Y-92540000D01*
X102540000Y-87460000D02*
X102540000Y-92540000D01*
D20*
X102500000Y-57000000D02*
X102500000Y-55000000D01*
X102500000Y-53000000D02*
X102500000Y-51000000D01*
X102500000Y-49000000D02*
X104500000Y-49000000D01*
X106500000Y-49000000D02*
X108500000Y-49000000D01*
X110500000Y-49000000D02*
X111500000Y-49000000D01*
X111500000Y-49000000D02*
X111500000Y-51000000D01*
X111500000Y-53000000D02*
X111500000Y-55000000D01*
X126000000Y-49000000D02*
X124000000Y-49000000D01*
D22*
X117000000Y-85460000D02*
X119460000Y-85460000D01*
X119460000Y-85460000D02*
X119540000Y-85540000D01*
X119460000Y-85460000D02*
X119540000Y-85540000D01*
X114460000Y-85620000D02*
X116840000Y-85620000D01*
X116840000Y-85620000D02*
X117000000Y-85460000D01*
D23*
X114460000Y-85620000D02*
X111800000Y-82960000D01*
X111800000Y-82960000D02*
X111800000Y-74250000D01*
X111800000Y-74250000D02*
X116525000Y-69525000D01*
X100000000Y-90000000D02*
X100000000Y-83400000D01*
X100000000Y-83400000D02*
X97400000Y-80800000D01*
X97400000Y-80800000D02*
X97400000Y-69600000D01*
X97400000Y-69600000D02*
X97475000Y-69525000D01*
D22*
X117000000Y-83000000D02*
X117000000Y-78000000D01*
X117000000Y-90700000D02*
X117000000Y-88080000D01*
G04 #@! TA.AperFunction,Conductor*
G36*
X129866621Y-45095502D02*
G01*
X129913114Y-45149158D01*
X129924500Y-45201500D01*
X129924500Y-94798500D01*
X129904498Y-94866621D01*
X129850842Y-94913114D01*
X129798500Y-94924500D01*
X80201500Y-94924500D01*
X80133379Y-94904498D01*
X80086886Y-94850842D01*
X80075500Y-94798500D01*
X80075500Y-90999997D01*
X80737215Y-90999997D01*
X80737215Y-91000002D01*
X80756342Y-91352769D01*
X80813496Y-91701398D01*
X80813496Y-91701401D01*
X80908009Y-92041808D01*
X80908010Y-92041811D01*
X81038772Y-92369996D01*
X81038776Y-92370005D01*
X81204256Y-92682136D01*
X81204258Y-92682140D01*
X81402517Y-92974550D01*
X81523640Y-93117148D01*
X82703367Y-91937421D01*
X82779588Y-92042330D01*
X82957670Y-92220412D01*
X83062577Y-92296631D01*
X81879872Y-93479336D01*
X81879872Y-93479338D01*
X81887717Y-93486769D01*
X81887723Y-93486774D01*
X82168969Y-93700572D01*
X82471678Y-93882706D01*
X82792316Y-94031049D01*
X82792320Y-94031051D01*
X83127103Y-94143852D01*
X83127117Y-94143856D01*
X83472127Y-94219800D01*
X83472151Y-94219804D01*
X83823348Y-94257999D01*
X83823364Y-94258000D01*
X84176636Y-94258000D01*
X84176651Y-94257999D01*
X84527848Y-94219804D01*
X84527872Y-94219800D01*
X84872882Y-94143856D01*
X84872896Y-94143852D01*
X85207679Y-94031051D01*
X85207683Y-94031049D01*
X85528321Y-93882706D01*
X85831030Y-93700572D01*
X86112284Y-93486768D01*
X86120126Y-93479338D01*
X86120127Y-93479336D01*
X84937422Y-92296631D01*
X85042330Y-92220412D01*
X85220412Y-92042330D01*
X85296632Y-91937421D01*
X86476359Y-93117148D01*
X86597481Y-92974551D01*
X86795741Y-92682140D01*
X86795743Y-92682136D01*
X86871098Y-92540000D01*
X95697391Y-92540000D01*
X95717078Y-92802706D01*
X95775699Y-93059539D01*
X95775700Y-93059541D01*
X95871942Y-93304763D01*
X95871945Y-93304771D01*
X96003661Y-93532909D01*
X96049899Y-93590889D01*
X96049900Y-93590889D01*
X96857117Y-92783671D01*
X96883765Y-92848004D01*
X96954926Y-92954504D01*
X97045496Y-93045074D01*
X97151996Y-93116235D01*
X97216326Y-93142881D01*
X96408668Y-93950539D01*
X96408668Y-93950541D01*
X96578693Y-94066462D01*
X96578701Y-94066467D01*
X96816038Y-94180762D01*
X97067776Y-94258415D01*
X97067784Y-94258416D01*
X97328284Y-94297680D01*
X97591716Y-94297680D01*
X97852215Y-94258416D01*
X97852223Y-94258415D01*
X98103961Y-94180762D01*
X98341299Y-94066467D01*
X98341300Y-94066466D01*
X98511331Y-93950540D01*
X97703672Y-93142881D01*
X97768004Y-93116235D01*
X97874504Y-93045074D01*
X97965074Y-92954504D01*
X98036235Y-92848004D01*
X98062881Y-92783672D01*
X98870099Y-93590890D01*
X98870100Y-93590889D01*
X98916333Y-93532917D01*
X98916338Y-93532909D01*
X99048054Y-93304771D01*
X99048057Y-93304763D01*
X99144299Y-93059541D01*
X99144300Y-93059539D01*
X99202921Y-92802706D01*
X99222608Y-92540000D01*
X100777391Y-92540000D01*
X100797078Y-92802706D01*
X100855699Y-93059539D01*
X100855700Y-93059541D01*
X100951942Y-93304763D01*
X100951945Y-93304771D01*
X101083661Y-93532909D01*
X101129899Y-93590889D01*
X101129900Y-93590889D01*
X101937117Y-92783671D01*
X101963765Y-92848004D01*
X102034926Y-92954504D01*
X102125496Y-93045074D01*
X102231996Y-93116235D01*
X102296326Y-93142881D01*
X101488668Y-93950539D01*
X101488668Y-93950541D01*
X101658693Y-94066462D01*
X101658701Y-94066467D01*
X101896038Y-94180762D01*
X102147776Y-94258415D01*
X102147784Y-94258416D01*
X102408284Y-94297680D01*
X102671716Y-94297680D01*
X102932215Y-94258416D01*
X102932223Y-94258415D01*
X103183961Y-94180762D01*
X103421299Y-94066467D01*
X103421300Y-94066466D01*
X103591331Y-93950540D01*
X102783672Y-93142881D01*
X102848004Y-93116235D01*
X102954504Y-93045074D01*
X103045074Y-92954504D01*
X103116235Y-92848004D01*
X103142881Y-92783672D01*
X103950099Y-93590890D01*
X103950100Y-93590889D01*
X103996333Y-93532917D01*
X103996338Y-93532909D01*
X104128054Y-93304771D01*
X104128057Y-93304763D01*
X104224299Y-93059541D01*
X104224300Y-93059539D01*
X104282921Y-92802706D01*
X104302608Y-92540000D01*
X104282921Y-92277293D01*
X104224300Y-92020460D01*
X104224299Y-92020458D01*
X104128057Y-91775236D01*
X104128054Y-91775228D01*
X103996338Y-91547090D01*
X103996333Y-91547082D01*
X103950100Y-91489109D01*
X103950098Y-91489109D01*
X103142881Y-92296326D01*
X103116235Y-92231996D01*
X103045074Y-92125496D01*
X102954504Y-92034926D01*
X102848004Y-91963765D01*
X102783672Y-91937118D01*
X103591330Y-91129459D01*
X103591330Y-91129457D01*
X103421307Y-91013537D01*
X103421299Y-91013532D01*
X103183961Y-90899237D01*
X102932223Y-90821584D01*
X102932215Y-90821583D01*
X102671716Y-90782320D01*
X102408284Y-90782320D01*
X102147784Y-90821583D01*
X102147776Y-90821584D01*
X101896038Y-90899237D01*
X101658701Y-91013532D01*
X101658693Y-91013537D01*
X101488668Y-91129457D01*
X101488668Y-91129459D01*
X102296327Y-91937118D01*
X102231996Y-91963765D01*
X102125496Y-92034926D01*
X102034926Y-92125496D01*
X101963765Y-92231996D01*
X101937118Y-92296327D01*
X101129900Y-91489109D01*
X101129898Y-91489109D01*
X101083661Y-91547090D01*
X100951945Y-91775228D01*
X100951942Y-91775236D01*
X100855700Y-92020458D01*
X100855699Y-92020460D01*
X100797078Y-92277293D01*
X100777391Y-92540000D01*
X99222608Y-92540000D01*
X99202921Y-92277293D01*
X99144300Y-92020460D01*
X99144299Y-92020458D01*
X99048057Y-91775236D01*
X99048054Y-91775228D01*
X98916338Y-91547090D01*
X98916333Y-91547082D01*
X98870100Y-91489109D01*
X98870098Y-91489109D01*
X98062881Y-92296326D01*
X98036235Y-92231996D01*
X97965074Y-92125496D01*
X97874504Y-92034926D01*
X97768004Y-91963765D01*
X97703672Y-91937118D01*
X98511330Y-91129459D01*
X98511330Y-91129457D01*
X98341307Y-91013537D01*
X98341299Y-91013532D01*
X98103961Y-90899237D01*
X97852223Y-90821584D01*
X97852215Y-90821583D01*
X97591716Y-90782320D01*
X97328284Y-90782320D01*
X97067784Y-90821583D01*
X97067776Y-90821584D01*
X96816038Y-90899237D01*
X96578701Y-91013532D01*
X96578693Y-91013537D01*
X96408668Y-91129457D01*
X96408668Y-91129459D01*
X97216327Y-91937118D01*
X97151996Y-91963765D01*
X97045496Y-92034926D01*
X96954926Y-92125496D01*
X96883765Y-92231996D01*
X96857118Y-92296327D01*
X96049900Y-91489109D01*
X96049898Y-91489109D01*
X96003661Y-91547090D01*
X95871945Y-91775228D01*
X95871942Y-91775236D01*
X95775700Y-92020458D01*
X95775699Y-92020460D01*
X95717078Y-92277293D01*
X95697391Y-92540000D01*
X86871098Y-92540000D01*
X86961223Y-92370005D01*
X86961227Y-92369996D01*
X87091989Y-92041811D01*
X87091990Y-92041808D01*
X87186503Y-91701401D01*
X87186503Y-91701398D01*
X87243657Y-91352769D01*
X87262785Y-91000002D01*
X87262785Y-90999997D01*
X87243657Y-90647230D01*
X87186503Y-90298601D01*
X87186503Y-90298598D01*
X87091990Y-89958191D01*
X87091989Y-89958188D01*
X86961227Y-89630003D01*
X86961223Y-89629994D01*
X86795743Y-89317863D01*
X86795741Y-89317859D01*
X86597482Y-89025449D01*
X86476358Y-88882850D01*
X85296631Y-90062577D01*
X85220412Y-89957670D01*
X85042330Y-89779588D01*
X84937421Y-89703367D01*
X86120126Y-88520662D01*
X86120126Y-88520660D01*
X86112282Y-88513230D01*
X86112276Y-88513225D01*
X85831030Y-88299427D01*
X85528321Y-88117293D01*
X85207683Y-87968950D01*
X85207679Y-87968948D01*
X84872896Y-87856147D01*
X84872882Y-87856143D01*
X84527872Y-87780199D01*
X84527848Y-87780195D01*
X84176651Y-87742000D01*
X83823348Y-87742000D01*
X83472151Y-87780195D01*
X83472127Y-87780199D01*
X83127117Y-87856143D01*
X83127103Y-87856147D01*
X82792320Y-87968948D01*
X82792316Y-87968950D01*
X82471678Y-88117293D01*
X82168969Y-88299427D01*
X81887719Y-88513228D01*
X81887713Y-88513233D01*
X81879871Y-88520661D01*
X83062577Y-89703367D01*
X82957670Y-89779588D01*
X82779588Y-89957670D01*
X82703367Y-90062577D01*
X81523640Y-88882850D01*
X81402517Y-89025449D01*
X81204258Y-89317859D01*
X81204256Y-89317863D01*
X81038776Y-89629994D01*
X81038772Y-89630003D01*
X80908010Y-89958188D01*
X80908009Y-89958191D01*
X80813496Y-90298598D01*
X80813496Y-90298601D01*
X80756342Y-90647230D01*
X80737215Y-90999997D01*
X80075500Y-90999997D01*
X80075500Y-82000001D01*
X95000000Y-82000001D01*
X96963095Y-83963095D01*
X96997120Y-84025407D01*
X97000000Y-84052190D01*
X97000000Y-85669499D01*
X96979998Y-85737620D01*
X96926342Y-85784113D01*
X96911140Y-85789901D01*
X96816040Y-85819236D01*
X96578701Y-85933532D01*
X96578693Y-85933537D01*
X96408668Y-86049457D01*
X96408668Y-86049459D01*
X97216327Y-86857118D01*
X97151996Y-86883765D01*
X97045496Y-86954926D01*
X96954926Y-87045496D01*
X96883765Y-87151996D01*
X96857118Y-87216327D01*
X96049900Y-86409109D01*
X96049898Y-86409109D01*
X96003661Y-86467090D01*
X95871945Y-86695228D01*
X95871942Y-86695236D01*
X95775700Y-86940458D01*
X95775699Y-86940460D01*
X95717078Y-87197293D01*
X95697391Y-87460000D01*
X95717078Y-87722706D01*
X95775699Y-87979539D01*
X95775700Y-87979541D01*
X95871942Y-88224763D01*
X95871945Y-88224771D01*
X96003661Y-88452909D01*
X96049899Y-88510889D01*
X96049900Y-88510889D01*
X96857117Y-87703671D01*
X96883765Y-87768004D01*
X96954926Y-87874504D01*
X97045496Y-87965074D01*
X97151996Y-88036235D01*
X97216326Y-88062881D01*
X96408668Y-88870539D01*
X96408668Y-88870541D01*
X96578693Y-88986462D01*
X96578701Y-88986467D01*
X96816038Y-89100762D01*
X97067776Y-89178415D01*
X97067784Y-89178416D01*
X97328284Y-89217680D01*
X97591716Y-89217680D01*
X97852215Y-89178416D01*
X97852223Y-89178415D01*
X98103961Y-89100762D01*
X98310831Y-89001140D01*
X98380884Y-88989605D01*
X98446053Y-89017774D01*
X98485647Y-89076705D01*
X98491500Y-89114661D01*
X98491500Y-90118722D01*
X98519990Y-90298601D01*
X98528645Y-90353246D01*
X98539227Y-90385813D01*
X98602018Y-90579063D01*
X98709815Y-90790627D01*
X98709817Y-90790630D01*
X98744322Y-90838121D01*
X98849380Y-90982722D01*
X98849382Y-90982724D01*
X98849384Y-90982727D01*
X99017272Y-91150615D01*
X99017275Y-91150617D01*
X99017278Y-91150620D01*
X99209373Y-91290185D01*
X99420937Y-91397982D01*
X99646759Y-91471356D01*
X99881278Y-91508500D01*
X99881281Y-91508500D01*
X100118719Y-91508500D01*
X100118722Y-91508500D01*
X100353241Y-91471356D01*
X100579063Y-91397982D01*
X100790627Y-91290185D01*
X100982722Y-91150620D01*
X101150620Y-90982722D01*
X101290185Y-90790627D01*
X101397982Y-90579063D01*
X101471356Y-90353241D01*
X101508500Y-90118722D01*
X101508500Y-89114661D01*
X101528502Y-89046540D01*
X101582158Y-89000047D01*
X101652432Y-88989943D01*
X101689170Y-89001139D01*
X101896041Y-89100763D01*
X102147776Y-89178415D01*
X102147784Y-89178416D01*
X102408284Y-89217680D01*
X102671716Y-89217680D01*
X102932215Y-89178416D01*
X102932223Y-89178415D01*
X103183961Y-89100762D01*
X103421299Y-88986467D01*
X103421300Y-88986466D01*
X103591331Y-88870540D01*
X102783672Y-88062881D01*
X102848004Y-88036235D01*
X102954504Y-87965074D01*
X103045074Y-87874504D01*
X103116235Y-87768004D01*
X103142881Y-87703672D01*
X103950099Y-88510890D01*
X103950100Y-88510889D01*
X103996333Y-88452917D01*
X103996338Y-88452909D01*
X104128054Y-88224771D01*
X104128057Y-88224763D01*
X104224299Y-87979541D01*
X104224300Y-87979539D01*
X104282921Y-87722706D01*
X104302608Y-87460000D01*
X104282921Y-87197293D01*
X104224300Y-86940460D01*
X104224299Y-86940458D01*
X104128057Y-86695236D01*
X104128054Y-86695228D01*
X103996338Y-86467090D01*
X103996333Y-86467082D01*
X103950100Y-86409109D01*
X103950098Y-86409109D01*
X103142881Y-87216326D01*
X103116235Y-87151996D01*
X103045074Y-87045496D01*
X102954504Y-86954926D01*
X102848004Y-86883765D01*
X102783671Y-86857117D01*
X103591330Y-86049459D01*
X103591330Y-86049457D01*
X103421307Y-85933537D01*
X103421299Y-85933532D01*
X103183961Y-85819237D01*
X102932223Y-85741584D01*
X102932215Y-85741583D01*
X102671716Y-85702320D01*
X102408284Y-85702320D01*
X102144779Y-85742036D01*
X102074438Y-85732410D01*
X102020467Y-85686283D01*
X102000003Y-85618299D01*
X102000000Y-85617443D01*
X102000000Y-82000000D01*
X101999999Y-81999998D01*
X100036905Y-80036904D01*
X100002879Y-79974592D01*
X100000000Y-79947809D01*
X100000000Y-74131281D01*
X110291499Y-74131281D01*
X110291499Y-74373914D01*
X110291500Y-74373939D01*
X110291500Y-82836791D01*
X110291499Y-82836821D01*
X110291499Y-82841278D01*
X110291499Y-83078722D01*
X110310207Y-83196841D01*
X110325706Y-83294697D01*
X110328643Y-83313241D01*
X110383833Y-83483096D01*
X110402018Y-83539063D01*
X110509815Y-83750627D01*
X110649380Y-83942722D01*
X110649382Y-83942724D01*
X110649384Y-83942727D01*
X110821667Y-84115010D01*
X110821689Y-84115030D01*
X113477272Y-86770615D01*
X113477275Y-86770617D01*
X113477278Y-86770620D01*
X113669373Y-86910185D01*
X113880937Y-87017982D01*
X114106759Y-87091356D01*
X114341278Y-87128501D01*
X114341281Y-87128501D01*
X114578719Y-87128501D01*
X114578722Y-87128501D01*
X114813241Y-87091356D01*
X115039063Y-87017982D01*
X115250627Y-86910185D01*
X115261118Y-86902563D01*
X115327986Y-86878705D01*
X115335178Y-86878500D01*
X116124847Y-86878500D01*
X116192968Y-86898502D01*
X116239461Y-86952158D01*
X116249565Y-87022432D01*
X116220071Y-87087012D01*
X116198908Y-87106436D01*
X116180139Y-87120072D01*
X116180136Y-87120074D01*
X116040071Y-87260139D01*
X115923636Y-87420398D01*
X115833703Y-87596901D01*
X115833702Y-87596903D01*
X115774147Y-87780195D01*
X115772488Y-87785300D01*
X115741725Y-87979539D01*
X115741500Y-87980957D01*
X115741500Y-90036284D01*
X115730887Y-90086898D01*
X115663252Y-90241089D01*
X115663249Y-90241096D01*
X115605950Y-90467366D01*
X115605949Y-90467372D01*
X115605949Y-90467374D01*
X115586673Y-90700000D01*
X115603182Y-90899237D01*
X115605950Y-90932633D01*
X115663249Y-91158903D01*
X115663252Y-91158910D01*
X115757015Y-91372668D01*
X115884685Y-91568083D01*
X116042774Y-91739813D01*
X116042778Y-91739817D01*
X116108650Y-91791087D01*
X116226983Y-91883190D01*
X116432273Y-91994287D01*
X116653049Y-92070080D01*
X116883288Y-92108500D01*
X116883292Y-92108500D01*
X117116708Y-92108500D01*
X117116712Y-92108500D01*
X117346951Y-92070080D01*
X117567727Y-91994287D01*
X117773017Y-91883190D01*
X117957220Y-91739818D01*
X117992589Y-91701398D01*
X118115314Y-91568083D01*
X118166910Y-91489109D01*
X118242984Y-91372669D01*
X118336749Y-91158907D01*
X118376990Y-90999997D01*
X122737215Y-90999997D01*
X122737215Y-91000002D01*
X122756342Y-91352769D01*
X122813496Y-91701398D01*
X122813496Y-91701401D01*
X122908009Y-92041808D01*
X122908010Y-92041811D01*
X123038772Y-92369996D01*
X123038776Y-92370005D01*
X123204256Y-92682136D01*
X123204258Y-92682140D01*
X123402517Y-92974550D01*
X123523640Y-93117148D01*
X124703367Y-91937421D01*
X124779588Y-92042330D01*
X124957670Y-92220412D01*
X125062577Y-92296631D01*
X123879872Y-93479336D01*
X123879872Y-93479338D01*
X123887717Y-93486769D01*
X123887723Y-93486774D01*
X124168969Y-93700572D01*
X124471678Y-93882706D01*
X124792316Y-94031049D01*
X124792320Y-94031051D01*
X125127103Y-94143852D01*
X125127117Y-94143856D01*
X125472127Y-94219800D01*
X125472151Y-94219804D01*
X125823348Y-94257999D01*
X125823364Y-94258000D01*
X126176636Y-94258000D01*
X126176651Y-94257999D01*
X126527848Y-94219804D01*
X126527872Y-94219800D01*
X126872882Y-94143856D01*
X126872896Y-94143852D01*
X127207679Y-94031051D01*
X127207683Y-94031049D01*
X127528321Y-93882706D01*
X127831030Y-93700572D01*
X128112284Y-93486768D01*
X128120126Y-93479338D01*
X128120127Y-93479336D01*
X126937422Y-92296631D01*
X127042330Y-92220412D01*
X127220412Y-92042330D01*
X127296632Y-91937421D01*
X128476359Y-93117148D01*
X128597481Y-92974551D01*
X128795741Y-92682140D01*
X128795743Y-92682136D01*
X128961223Y-92370005D01*
X128961227Y-92369996D01*
X129091989Y-92041811D01*
X129091990Y-92041808D01*
X129186503Y-91701401D01*
X129186503Y-91701398D01*
X129243657Y-91352769D01*
X129262785Y-91000002D01*
X129262785Y-90999997D01*
X129243657Y-90647230D01*
X129186503Y-90298601D01*
X129186503Y-90298598D01*
X129091990Y-89958191D01*
X129091989Y-89958188D01*
X128961227Y-89630003D01*
X128961223Y-89629994D01*
X128795743Y-89317863D01*
X128795741Y-89317859D01*
X128597482Y-89025449D01*
X128476358Y-88882850D01*
X127296631Y-90062577D01*
X127220412Y-89957670D01*
X127042330Y-89779588D01*
X126937421Y-89703367D01*
X128120126Y-88520662D01*
X128120126Y-88520660D01*
X128112282Y-88513230D01*
X128112276Y-88513225D01*
X127831030Y-88299427D01*
X127528321Y-88117293D01*
X127207683Y-87968950D01*
X127207679Y-87968948D01*
X126872896Y-87856147D01*
X126872882Y-87856143D01*
X126527872Y-87780199D01*
X126527848Y-87780195D01*
X126176651Y-87742000D01*
X125823348Y-87742000D01*
X125472151Y-87780195D01*
X125472127Y-87780199D01*
X125127117Y-87856143D01*
X125127103Y-87856147D01*
X124792320Y-87968948D01*
X124792316Y-87968950D01*
X124471678Y-88117293D01*
X124168969Y-88299427D01*
X123887719Y-88513228D01*
X123887713Y-88513233D01*
X123879871Y-88520661D01*
X125062577Y-89703367D01*
X124957670Y-89779588D01*
X124779588Y-89957670D01*
X124703367Y-90062577D01*
X123523640Y-88882850D01*
X123402517Y-89025449D01*
X123204258Y-89317859D01*
X123204256Y-89317863D01*
X123038776Y-89629994D01*
X123038772Y-89630003D01*
X122908010Y-89958188D01*
X122908009Y-89958191D01*
X122813496Y-90298598D01*
X122813496Y-90298601D01*
X122756342Y-90647230D01*
X122737215Y-90999997D01*
X118376990Y-90999997D01*
X118394051Y-90932626D01*
X118413327Y-90700000D01*
X118394051Y-90467374D01*
X118336749Y-90241093D01*
X118269113Y-90086898D01*
X118258500Y-90036284D01*
X118258500Y-87980957D01*
X118258276Y-87979541D01*
X118227512Y-87785300D01*
X118166298Y-87596903D01*
X118076366Y-87420402D01*
X118036414Y-87365413D01*
X117959928Y-87260139D01*
X117819860Y-87120071D01*
X117659600Y-87003635D01*
X117654097Y-87000831D01*
X117567615Y-86956766D01*
X117516001Y-86908018D01*
X117498935Y-86839103D01*
X117521836Y-86771902D01*
X117577434Y-86727750D01*
X117624819Y-86718500D01*
X119074502Y-86718500D01*
X119113436Y-86724666D01*
X119245300Y-86767512D01*
X119440954Y-86798500D01*
X119440957Y-86798500D01*
X119639043Y-86798500D01*
X119639046Y-86798500D01*
X119834699Y-86767512D01*
X120023096Y-86706298D01*
X120199598Y-86616366D01*
X120359858Y-86499930D01*
X120499930Y-86359858D01*
X120616366Y-86199598D01*
X120706298Y-86023096D01*
X120767512Y-85834699D01*
X120798500Y-85639046D01*
X120798500Y-85440954D01*
X120767512Y-85245300D01*
X120706298Y-85056904D01*
X120616366Y-84880402D01*
X120499930Y-84720142D01*
X120499928Y-84720139D01*
X120279860Y-84500071D01*
X120119599Y-84383635D01*
X120119599Y-84383634D01*
X120117047Y-84382334D01*
X120114778Y-84381178D01*
X119943097Y-84293702D01*
X119754700Y-84232488D01*
X119559046Y-84201500D01*
X119559043Y-84201500D01*
X117875153Y-84201500D01*
X117807032Y-84181498D01*
X117760539Y-84127842D01*
X117750435Y-84057568D01*
X117779929Y-83992988D01*
X117801092Y-83973564D01*
X117819858Y-83959930D01*
X117959930Y-83819858D01*
X118076366Y-83659598D01*
X118166298Y-83483097D01*
X118227512Y-83294700D01*
X118258500Y-83099046D01*
X118258500Y-78663715D01*
X118269113Y-78613101D01*
X118273226Y-78603723D01*
X118336749Y-78458907D01*
X118394051Y-78232626D01*
X118413327Y-78000000D01*
X118394051Y-77767374D01*
X118336749Y-77541093D01*
X118242984Y-77327331D01*
X118115314Y-77131916D01*
X117957225Y-76960186D01*
X117957221Y-76960182D01*
X117865118Y-76888496D01*
X117773017Y-76816810D01*
X117567727Y-76705713D01*
X117567724Y-76705712D01*
X117567723Y-76705711D01*
X117346955Y-76629921D01*
X117346948Y-76629919D01*
X117248411Y-76613476D01*
X117116712Y-76591500D01*
X116883288Y-76591500D01*
X116768066Y-76610727D01*
X116653051Y-76629919D01*
X116653044Y-76629921D01*
X116432276Y-76705711D01*
X116432273Y-76705713D01*
X116226985Y-76816809D01*
X116226983Y-76816810D01*
X116042778Y-76960182D01*
X116042774Y-76960186D01*
X115884685Y-77131916D01*
X115757015Y-77327331D01*
X115663252Y-77541089D01*
X115663249Y-77541096D01*
X115605950Y-77767366D01*
X115586673Y-78000000D01*
X115605950Y-78232633D01*
X115663249Y-78458903D01*
X115663252Y-78458910D01*
X115730887Y-78613101D01*
X115741500Y-78663715D01*
X115741500Y-83099046D01*
X115772488Y-83294700D01*
X115833702Y-83483097D01*
X115862219Y-83539064D01*
X115923636Y-83659601D01*
X116040071Y-83819860D01*
X116180139Y-83959928D01*
X116225642Y-83992988D01*
X116340402Y-84076366D01*
X116421589Y-84117732D01*
X116473204Y-84166480D01*
X116490270Y-84235395D01*
X116467370Y-84302596D01*
X116421599Y-84342261D01*
X116413931Y-84346168D01*
X116410803Y-84347762D01*
X116353592Y-84361500D01*
X115387032Y-84361500D01*
X115318911Y-84341498D01*
X115297937Y-84324595D01*
X113345405Y-82372063D01*
X113311379Y-82309751D01*
X113308500Y-82282968D01*
X113308500Y-74927031D01*
X113328502Y-74858910D01*
X113345405Y-74837936D01*
X115083964Y-73099377D01*
X116926718Y-71256622D01*
X116978667Y-71225319D01*
X117169254Y-71166532D01*
X117406716Y-71052176D01*
X117407356Y-71051740D01*
X117512404Y-70980119D01*
X117624481Y-70903706D01*
X117817686Y-70724438D01*
X117982015Y-70518376D01*
X118113796Y-70290124D01*
X118210087Y-70044780D01*
X118268735Y-69787826D01*
X118288431Y-69525000D01*
X118268735Y-69262174D01*
X118210087Y-69005220D01*
X118113796Y-68759876D01*
X118113795Y-68759875D01*
X118113794Y-68759871D01*
X117982017Y-68531627D01*
X117935966Y-68473881D01*
X117817686Y-68325562D01*
X117624481Y-68146294D01*
X117624474Y-68146289D01*
X117406725Y-67997829D01*
X117406718Y-67997825D01*
X117169257Y-67883469D01*
X117169245Y-67883464D01*
X117032480Y-67841278D01*
X123441500Y-67841278D01*
X123441500Y-68078722D01*
X123478644Y-68313241D01*
X123478645Y-68313246D01*
X123552016Y-68539058D01*
X123552018Y-68539063D01*
X123552019Y-68539064D01*
X123659817Y-68750630D01*
X123743622Y-68865978D01*
X123767481Y-68932846D01*
X123751400Y-69001997D01*
X123710144Y-69042673D01*
X123711252Y-69044153D01*
X123587095Y-69137095D01*
X123499555Y-69254034D01*
X123499555Y-69254035D01*
X123448505Y-69390906D01*
X123442000Y-69451402D01*
X123442000Y-70246000D01*
X124703827Y-70246000D01*
X124690889Y-70268409D01*
X124650000Y-70421009D01*
X124650000Y-70578991D01*
X124690889Y-70731591D01*
X124703827Y-70754000D01*
X123442000Y-70754000D01*
X123442000Y-71548597D01*
X123448505Y-71609093D01*
X123499555Y-71745964D01*
X123499555Y-71745965D01*
X123587095Y-71862904D01*
X123704034Y-71950444D01*
X123840906Y-72001494D01*
X123901402Y-72007999D01*
X123901415Y-72008000D01*
X124996000Y-72008000D01*
X124996000Y-71046173D01*
X125018409Y-71059111D01*
X125171009Y-71100000D01*
X125328991Y-71100000D01*
X125481591Y-71059111D01*
X125504000Y-71046173D01*
X125504000Y-72008000D01*
X126598585Y-72008000D01*
X126598597Y-72007999D01*
X126659093Y-72001494D01*
X126795964Y-71950444D01*
X126795965Y-71950444D01*
X126912904Y-71862904D01*
X127000444Y-71745965D01*
X127000444Y-71745964D01*
X127051494Y-71609093D01*
X127057999Y-71548597D01*
X127058000Y-71548585D01*
X127058000Y-70754000D01*
X125796173Y-70754000D01*
X125809111Y-70731591D01*
X125850000Y-70578991D01*
X125850000Y-70421009D01*
X125809111Y-70268409D01*
X125796173Y-70246000D01*
X127058000Y-70246000D01*
X127058000Y-69451414D01*
X127057999Y-69451402D01*
X127051494Y-69390906D01*
X127000444Y-69254035D01*
X127000444Y-69254034D01*
X126912904Y-69137095D01*
X126788748Y-69044153D01*
X126789905Y-69042606D01*
X126747723Y-69000420D01*
X126732634Y-68931045D01*
X126756376Y-68865979D01*
X126840185Y-68750627D01*
X126947982Y-68539063D01*
X127021356Y-68313241D01*
X127058500Y-68078722D01*
X127058500Y-67841278D01*
X127021356Y-67606759D01*
X126947982Y-67380937D01*
X126840185Y-67169373D01*
X126700620Y-66977278D01*
X126700617Y-66977275D01*
X126700615Y-66977272D01*
X126532727Y-66809384D01*
X126532724Y-66809382D01*
X126532722Y-66809380D01*
X126340627Y-66669815D01*
X126129063Y-66562018D01*
X126129060Y-66562017D01*
X126129058Y-66562016D01*
X125903246Y-66488645D01*
X125903242Y-66488644D01*
X125903241Y-66488644D01*
X125668722Y-66451500D01*
X124831278Y-66451500D01*
X124596759Y-66488644D01*
X124596753Y-66488645D01*
X124370941Y-66562016D01*
X124370935Y-66562019D01*
X124159369Y-66669817D01*
X123967275Y-66809382D01*
X123967272Y-66809384D01*
X123799384Y-66977272D01*
X123799382Y-66977275D01*
X123659817Y-67169369D01*
X123552019Y-67380935D01*
X123552016Y-67380941D01*
X123478645Y-67606753D01*
X123478644Y-67606758D01*
X123478644Y-67606759D01*
X123441500Y-67841278D01*
X117032480Y-67841278D01*
X116917410Y-67805784D01*
X116917402Y-67805782D01*
X116917400Y-67805782D01*
X116656781Y-67766500D01*
X116393219Y-67766500D01*
X116132600Y-67805782D01*
X116132598Y-67805782D01*
X116132589Y-67805784D01*
X115880754Y-67883464D01*
X115880742Y-67883469D01*
X115643283Y-67997825D01*
X115643275Y-67997829D01*
X115425525Y-68146289D01*
X115425520Y-68146293D01*
X115232315Y-68325561D01*
X115067982Y-68531627D01*
X114936205Y-68759871D01*
X114936202Y-68759879D01*
X114839912Y-69005221D01*
X114826836Y-69062510D01*
X114793090Y-69123566D01*
X110817281Y-73099377D01*
X110817278Y-73099380D01*
X110733329Y-73183329D01*
X110649380Y-73267277D01*
X110509817Y-73459369D01*
X110402019Y-73670935D01*
X110402016Y-73670941D01*
X110328645Y-73896754D01*
X110291499Y-74131281D01*
X100000000Y-74131281D01*
X100000000Y-69525000D01*
X105237070Y-69525000D01*
X105256760Y-69787754D01*
X105315392Y-70044634D01*
X105315393Y-70044636D01*
X105411651Y-70289900D01*
X105411653Y-70289904D01*
X105543397Y-70518092D01*
X105543400Y-70518097D01*
X105589670Y-70576117D01*
X105589672Y-70576117D01*
X106515841Y-69649947D01*
X106534075Y-69717993D01*
X106599901Y-69832007D01*
X106692993Y-69925099D01*
X106807007Y-69990925D01*
X106875051Y-70009157D01*
X105948437Y-70935770D01*
X106118532Y-71051739D01*
X106118532Y-71051740D01*
X106355923Y-71166062D01*
X106607704Y-71243728D01*
X106607712Y-71243729D01*
X106868260Y-71283000D01*
X107131740Y-71283000D01*
X107392287Y-71243729D01*
X107392295Y-71243728D01*
X107644076Y-71166062D01*
X107881467Y-71051740D01*
X108051561Y-70935770D01*
X107124948Y-70009157D01*
X107192993Y-69990925D01*
X107307007Y-69925099D01*
X107400099Y-69832007D01*
X107465925Y-69717993D01*
X107484157Y-69649948D01*
X108410327Y-70576118D01*
X108456603Y-70518090D01*
X108588346Y-70289904D01*
X108588348Y-70289900D01*
X108684606Y-70044636D01*
X108684607Y-70044634D01*
X108743239Y-69787754D01*
X108762929Y-69525000D01*
X108743239Y-69262245D01*
X108684607Y-69005365D01*
X108684606Y-69005363D01*
X108588348Y-68760099D01*
X108588346Y-68760095D01*
X108456605Y-68531913D01*
X108456600Y-68531905D01*
X108410328Y-68473881D01*
X108410326Y-68473881D01*
X107484157Y-69400050D01*
X107465925Y-69332007D01*
X107400099Y-69217993D01*
X107307007Y-69124901D01*
X107192993Y-69059075D01*
X107124948Y-69040842D01*
X108051560Y-68114229D01*
X108051560Y-68114228D01*
X107881467Y-67998259D01*
X107644076Y-67883937D01*
X107392295Y-67806271D01*
X107392287Y-67806270D01*
X107131740Y-67767000D01*
X106868260Y-67767000D01*
X106607712Y-67806270D01*
X106607704Y-67806271D01*
X106355923Y-67883937D01*
X106118532Y-67998259D01*
X106118525Y-67998263D01*
X105948438Y-68114227D01*
X105948438Y-68114229D01*
X106875051Y-69040842D01*
X106807007Y-69059075D01*
X106692993Y-69124901D01*
X106599901Y-69217993D01*
X106534075Y-69332007D01*
X106515842Y-69400051D01*
X105589671Y-68473880D01*
X105589670Y-68473881D01*
X105543400Y-68531904D01*
X105543397Y-68531907D01*
X105411653Y-68760095D01*
X105411651Y-68760099D01*
X105315393Y-69005363D01*
X105315392Y-69005365D01*
X105256760Y-69262245D01*
X105237070Y-69525000D01*
X100000000Y-69525000D01*
X100000000Y-67000000D01*
X95000000Y-67000000D01*
X95000000Y-82000001D01*
X80075500Y-82000001D01*
X80075500Y-48999997D01*
X80737215Y-48999997D01*
X80737215Y-49000002D01*
X80756342Y-49352769D01*
X80813496Y-49701398D01*
X80813496Y-49701401D01*
X80908009Y-50041808D01*
X80908010Y-50041811D01*
X81038772Y-50369996D01*
X81038776Y-50370005D01*
X81204256Y-50682136D01*
X81204258Y-50682140D01*
X81402517Y-50974550D01*
X81523640Y-51117148D01*
X82703367Y-49937421D01*
X82779588Y-50042330D01*
X82957670Y-50220412D01*
X83062577Y-50296631D01*
X81879872Y-51479336D01*
X81879872Y-51479338D01*
X81887717Y-51486769D01*
X81887723Y-51486774D01*
X82168969Y-51700572D01*
X82471678Y-51882706D01*
X82792316Y-52031049D01*
X82792320Y-52031051D01*
X83127103Y-52143852D01*
X83127117Y-52143856D01*
X83472127Y-52219800D01*
X83472151Y-52219804D01*
X83823348Y-52257999D01*
X83823364Y-52258000D01*
X84176636Y-52258000D01*
X84176651Y-52257999D01*
X84527848Y-52219804D01*
X84527872Y-52219800D01*
X84872882Y-52143856D01*
X84872896Y-52143852D01*
X85207679Y-52031051D01*
X85207683Y-52031049D01*
X85528321Y-51882706D01*
X85831030Y-51700572D01*
X86112284Y-51486768D01*
X86120126Y-51479338D01*
X86120127Y-51479336D01*
X84937422Y-50296631D01*
X85042330Y-50220412D01*
X85220412Y-50042330D01*
X85296632Y-49937421D01*
X86476359Y-51117148D01*
X86597481Y-50974551D01*
X86795741Y-50682140D01*
X86795743Y-50682136D01*
X86905559Y-50475000D01*
X95711569Y-50475000D01*
X95731265Y-50737826D01*
X95731266Y-50737830D01*
X95789911Y-50994775D01*
X95886202Y-51240120D01*
X95886205Y-51240128D01*
X96017982Y-51468372D01*
X96017984Y-51468375D01*
X96017985Y-51468376D01*
X96182314Y-51674438D01*
X96375519Y-51853706D01*
X96375525Y-51853710D01*
X96593275Y-52002170D01*
X96593279Y-52002172D01*
X96593285Y-52002176D01*
X96830746Y-52116532D01*
X96830749Y-52116532D01*
X96830754Y-52116535D01*
X97082589Y-52194215D01*
X97082591Y-52194215D01*
X97082600Y-52194218D01*
X97343219Y-52233500D01*
X97343223Y-52233500D01*
X97606777Y-52233500D01*
X97606781Y-52233500D01*
X97867400Y-52194218D01*
X97867410Y-52194215D01*
X98119245Y-52116535D01*
X98119247Y-52116534D01*
X98119254Y-52116532D01*
X98356716Y-52002176D01*
X98574481Y-51853706D01*
X98767686Y-51674438D01*
X98932015Y-51468376D01*
X99063796Y-51240124D01*
X99160087Y-50994780D01*
X99218735Y-50737826D01*
X99238431Y-50475000D01*
X114761569Y-50475000D01*
X114781265Y-50737826D01*
X114781266Y-50737830D01*
X114839911Y-50994775D01*
X114936202Y-51240120D01*
X114936205Y-51240128D01*
X115067982Y-51468372D01*
X115067984Y-51468375D01*
X115067985Y-51468376D01*
X115232314Y-51674438D01*
X115425519Y-51853706D01*
X115425525Y-51853710D01*
X115643275Y-52002170D01*
X115643279Y-52002172D01*
X115643285Y-52002176D01*
X115880746Y-52116532D01*
X115880749Y-52116532D01*
X115880754Y-52116535D01*
X116132589Y-52194215D01*
X116132591Y-52194215D01*
X116132600Y-52194218D01*
X116393219Y-52233500D01*
X116393223Y-52233500D01*
X116656777Y-52233500D01*
X116656781Y-52233500D01*
X116917400Y-52194218D01*
X116917410Y-52194215D01*
X117169245Y-52116535D01*
X117169247Y-52116534D01*
X117169254Y-52116532D01*
X117406716Y-52002176D01*
X117624481Y-51853706D01*
X117817686Y-51674438D01*
X117982015Y-51468376D01*
X118113796Y-51240124D01*
X118210087Y-50994780D01*
X118268735Y-50737826D01*
X118288431Y-50475000D01*
X118268735Y-50212174D01*
X118210087Y-49955220D01*
X118113796Y-49709876D01*
X118113795Y-49709875D01*
X118113794Y-49709871D01*
X117982017Y-49481627D01*
X117896720Y-49374668D01*
X117817686Y-49275562D01*
X117624481Y-49096294D01*
X117624474Y-49096289D01*
X117483241Y-48999997D01*
X122737215Y-48999997D01*
X122737215Y-49000002D01*
X122756342Y-49352769D01*
X122813496Y-49701398D01*
X122813496Y-49701401D01*
X122908009Y-50041808D01*
X122908010Y-50041811D01*
X123038772Y-50369996D01*
X123038776Y-50370005D01*
X123204256Y-50682136D01*
X123204258Y-50682140D01*
X123402517Y-50974550D01*
X123523640Y-51117148D01*
X124703367Y-49937421D01*
X124779588Y-50042330D01*
X124957670Y-50220412D01*
X125062577Y-50296631D01*
X123879872Y-51479336D01*
X123879872Y-51479338D01*
X123887717Y-51486769D01*
X123887723Y-51486774D01*
X124168969Y-51700572D01*
X124471678Y-51882706D01*
X124792316Y-52031049D01*
X124792320Y-52031051D01*
X125127103Y-52143852D01*
X125127117Y-52143856D01*
X125472127Y-52219800D01*
X125472151Y-52219804D01*
X125823348Y-52257999D01*
X125823364Y-52258000D01*
X126176636Y-52258000D01*
X126176651Y-52257999D01*
X126527848Y-52219804D01*
X126527872Y-52219800D01*
X126872882Y-52143856D01*
X126872896Y-52143852D01*
X127207679Y-52031051D01*
X127207683Y-52031049D01*
X127528321Y-51882706D01*
X127831030Y-51700572D01*
X128112284Y-51486768D01*
X128120126Y-51479338D01*
X128120127Y-51479336D01*
X126937422Y-50296631D01*
X127042330Y-50220412D01*
X127220412Y-50042330D01*
X127296632Y-49937421D01*
X128476359Y-51117148D01*
X128597481Y-50974551D01*
X128795741Y-50682140D01*
X128795743Y-50682136D01*
X128961223Y-50370005D01*
X128961227Y-50369996D01*
X129091989Y-50041811D01*
X129091990Y-50041808D01*
X129186503Y-49701401D01*
X129186503Y-49701398D01*
X129243657Y-49352769D01*
X129262785Y-49000002D01*
X129262785Y-48999997D01*
X129243657Y-48647230D01*
X129186503Y-48298601D01*
X129186503Y-48298598D01*
X129091990Y-47958191D01*
X129091989Y-47958188D01*
X128961227Y-47630003D01*
X128961223Y-47629994D01*
X128795743Y-47317863D01*
X128795741Y-47317859D01*
X128597482Y-47025449D01*
X128476358Y-46882850D01*
X127296631Y-48062577D01*
X127220412Y-47957670D01*
X127042330Y-47779588D01*
X126937421Y-47703367D01*
X128120126Y-46520662D01*
X128120126Y-46520660D01*
X128112282Y-46513230D01*
X128112276Y-46513225D01*
X127831030Y-46299427D01*
X127528321Y-46117293D01*
X127207683Y-45968950D01*
X127207679Y-45968948D01*
X126872896Y-45856147D01*
X126872882Y-45856143D01*
X126527872Y-45780199D01*
X126527848Y-45780195D01*
X126176651Y-45742000D01*
X125823348Y-45742000D01*
X125472151Y-45780195D01*
X125472127Y-45780199D01*
X125127117Y-45856143D01*
X125127103Y-45856147D01*
X124792320Y-45968948D01*
X124792316Y-45968950D01*
X124471678Y-46117293D01*
X124168969Y-46299427D01*
X123887719Y-46513228D01*
X123887713Y-46513233D01*
X123879871Y-46520661D01*
X125062577Y-47703367D01*
X124957670Y-47779588D01*
X124779588Y-47957670D01*
X124703367Y-48062577D01*
X123523640Y-46882850D01*
X123402517Y-47025449D01*
X123204258Y-47317859D01*
X123204256Y-47317863D01*
X123038776Y-47629994D01*
X123038772Y-47630003D01*
X122908010Y-47958188D01*
X122908009Y-47958191D01*
X122813496Y-48298598D01*
X122813496Y-48298601D01*
X122756342Y-48647230D01*
X122737215Y-48999997D01*
X117483241Y-48999997D01*
X117406725Y-48947829D01*
X117406718Y-48947825D01*
X117169257Y-48833469D01*
X117169245Y-48833464D01*
X116917410Y-48755784D01*
X116917402Y-48755782D01*
X116917400Y-48755782D01*
X116656781Y-48716500D01*
X116393219Y-48716500D01*
X116132600Y-48755782D01*
X116132598Y-48755782D01*
X116132589Y-48755784D01*
X115880754Y-48833464D01*
X115880742Y-48833469D01*
X115643283Y-48947825D01*
X115643275Y-48947829D01*
X115425525Y-49096289D01*
X115425520Y-49096293D01*
X115232315Y-49275561D01*
X115067982Y-49481627D01*
X114936205Y-49709871D01*
X114936202Y-49709879D01*
X114839911Y-49955224D01*
X114781266Y-50212169D01*
X114781265Y-50212174D01*
X114761569Y-50475000D01*
X99238431Y-50475000D01*
X99218735Y-50212174D01*
X99160087Y-49955220D01*
X99063796Y-49709876D01*
X99063795Y-49709875D01*
X99063794Y-49709871D01*
X98932017Y-49481627D01*
X98846720Y-49374668D01*
X98767686Y-49275562D01*
X98574481Y-49096294D01*
X98574474Y-49096289D01*
X98356725Y-48947829D01*
X98356718Y-48947825D01*
X98119257Y-48833469D01*
X98119245Y-48833464D01*
X97867410Y-48755784D01*
X97867402Y-48755782D01*
X97867400Y-48755782D01*
X97606781Y-48716500D01*
X97343219Y-48716500D01*
X97082600Y-48755782D01*
X97082598Y-48755782D01*
X97082589Y-48755784D01*
X96830754Y-48833464D01*
X96830742Y-48833469D01*
X96593283Y-48947825D01*
X96593275Y-48947829D01*
X96375525Y-49096289D01*
X96375520Y-49096293D01*
X96182315Y-49275561D01*
X96017982Y-49481627D01*
X95886205Y-49709871D01*
X95886202Y-49709879D01*
X95789911Y-49955224D01*
X95731266Y-50212169D01*
X95731265Y-50212174D01*
X95711569Y-50475000D01*
X86905559Y-50475000D01*
X86961223Y-50370005D01*
X86961227Y-50369996D01*
X87091989Y-50041811D01*
X87091990Y-50041808D01*
X87186503Y-49701401D01*
X87186503Y-49701398D01*
X87243657Y-49352769D01*
X87262785Y-49000002D01*
X87262785Y-48999997D01*
X87243657Y-48647230D01*
X87186503Y-48298601D01*
X87186503Y-48298598D01*
X87091990Y-47958191D01*
X87091989Y-47958188D01*
X86961227Y-47630003D01*
X86961223Y-47629994D01*
X86795743Y-47317863D01*
X86795741Y-47317859D01*
X86597482Y-47025449D01*
X86476358Y-46882850D01*
X85296631Y-48062577D01*
X85220412Y-47957670D01*
X85042330Y-47779588D01*
X84937421Y-47703367D01*
X86120126Y-46520662D01*
X86120126Y-46520660D01*
X86112282Y-46513230D01*
X86112276Y-46513225D01*
X85831030Y-46299427D01*
X85528321Y-46117293D01*
X85207683Y-45968950D01*
X85207679Y-45968948D01*
X84872896Y-45856147D01*
X84872882Y-45856143D01*
X84527872Y-45780199D01*
X84527848Y-45780195D01*
X84176651Y-45742000D01*
X83823348Y-45742000D01*
X83472151Y-45780195D01*
X83472127Y-45780199D01*
X83127117Y-45856143D01*
X83127103Y-45856147D01*
X82792320Y-45968948D01*
X82792316Y-45968950D01*
X82471678Y-46117293D01*
X82168969Y-46299427D01*
X81887719Y-46513228D01*
X81887713Y-46513233D01*
X81879871Y-46520661D01*
X83062577Y-47703367D01*
X82957670Y-47779588D01*
X82779588Y-47957670D01*
X82703367Y-48062577D01*
X81523640Y-46882850D01*
X81402517Y-47025449D01*
X81204258Y-47317859D01*
X81204256Y-47317863D01*
X81038776Y-47629994D01*
X81038772Y-47630003D01*
X80908010Y-47958188D01*
X80908009Y-47958191D01*
X80813496Y-48298598D01*
X80813496Y-48298601D01*
X80756342Y-48647230D01*
X80737215Y-48999997D01*
X80075500Y-48999997D01*
X80075500Y-45201500D01*
X80095502Y-45133379D01*
X80149158Y-45086886D01*
X80201500Y-45075500D01*
X129798500Y-45075500D01*
X129866621Y-45095502D01*
G37*
G04 #@! TD.AperFunction*
D24*
X80000000Y-95000000D02*
X80000000Y-45000000D01*
X130000000Y-95000000D02*
X80000000Y-95000000D01*
X130000000Y-45000000D02*
X130000000Y-95000000D01*
X80000000Y-45000000D02*
X130000000Y-45000000D01*
M02*
