M48
; DRILL file {KiCad 8.0.4} date 2025-01-27T10:30:39+0100
; FORMAT={-:-/ absolute / metric / decimal}
; #@! TF.CreationDate,2025-01-27T10:30:39+01:00
; #@! TF.GenerationSoftware,Kicad,Pcbnew,8.0.4
; #@! TF.FileFunction,Plated,1,2,PTH
FMAT,2
METRIC
; #@! TA.AperFunction,Plated,PTH,ComponentDrill
T1C0.300
; #@! TA.AperFunction,Plated,PTH,ViaDrill
T2C0.400
; #@! TA.AperFunction,Plated,PTH,ComponentDrill
T3C0.800
; #@! TA.AperFunction,Plated,PTH,ComponentDrill
T4C1.000
; #@! TA.AperFunction,Plated,PTH,ComponentDrill
T5C1.200
; #@! TA.AperFunction,Plated,PTH,ComponentDrill
T6C1.300
; #@! TA.AperFunction,Plated,PTH,ComponentDrill
T7C3.200
%
G90
G05
T1
X81.0Y-53.0
X81.0Y-54.0
X81.0Y-55.0
X81.0Y-56.0
X81.0Y-57.0
X81.0Y-58.0
X81.0Y-59.0
X81.0Y-60.0
X81.0Y-61.0
X81.0Y-62.0
X81.0Y-63.0
X81.0Y-64.0
X81.0Y-65.0
X81.0Y-66.0
X81.0Y-67.0
X81.0Y-68.0
X81.0Y-69.0
X81.0Y-70.0
X81.0Y-71.0
X81.0Y-72.0
X81.0Y-73.0
X81.0Y-74.0
X81.0Y-75.0
X81.0Y-76.0
X81.0Y-77.0
X81.0Y-78.0
X81.0Y-79.0
X81.0Y-80.0
X81.0Y-81.0
X81.0Y-82.0
X81.0Y-83.0
X81.0Y-84.0
X81.0Y-85.0
X81.0Y-86.0
X81.0Y-87.0
X82.0Y-53.0
X82.0Y-54.0
X82.0Y-55.0
X82.0Y-56.0
X82.0Y-57.0
X82.0Y-58.0
X82.0Y-59.0
X82.0Y-60.0
X82.0Y-61.0
X82.0Y-62.0
X82.0Y-63.0
X82.0Y-64.0
X82.0Y-65.0
X82.0Y-66.0
X82.0Y-67.0
X82.0Y-68.0
X82.0Y-69.0
X82.0Y-70.0
X82.0Y-71.0
X82.0Y-72.0
X82.0Y-73.0
X82.0Y-74.0
X82.0Y-75.0
X82.0Y-76.0
X82.0Y-77.0
X82.0Y-78.0
X82.0Y-79.0
X82.0Y-80.0
X82.0Y-81.0
X82.0Y-82.0
X82.0Y-83.0
X82.0Y-84.0
X82.0Y-85.0
X82.0Y-86.0
X82.0Y-87.0
X88.0Y-46.0
X88.0Y-47.0
X88.0Y-93.0
X88.0Y-94.0
X89.0Y-46.0
X89.0Y-47.0
X89.0Y-93.0
X89.0Y-94.0
X90.0Y-46.0
X90.0Y-47.0
X90.0Y-93.0
X90.0Y-94.0
X91.0Y-46.0
X91.0Y-47.0
X91.0Y-93.0
X91.0Y-94.0
X92.0Y-46.0
X92.0Y-47.0
X92.0Y-93.0
X92.0Y-94.0
X93.0Y-46.0
X93.0Y-47.0
X93.0Y-93.0
X93.0Y-94.0
X94.0Y-46.0
X94.0Y-47.0
X94.0Y-93.0
X94.0Y-94.0
X95.0Y-46.0
X95.0Y-47.0
X95.0Y-93.0
X95.0Y-94.0
X96.0Y-46.0
X96.0Y-47.0
X97.0Y-46.0
X97.0Y-47.0
X98.0Y-46.0
X98.0Y-47.0
X99.0Y-46.0
X99.0Y-47.0
X100.0Y-46.0
X100.0Y-47.0
X101.0Y-46.0
X101.0Y-47.0
X102.0Y-46.0
X102.0Y-47.0
X103.0Y-46.0
X103.0Y-47.0
X104.0Y-46.0
X104.0Y-47.0
X105.0Y-46.0
X105.0Y-47.0
X105.0Y-93.0
X105.0Y-94.0
X106.0Y-46.0
X106.0Y-47.0
X106.0Y-93.0
X106.0Y-94.0
X107.0Y-46.0
X107.0Y-47.0
X107.0Y-93.0
X107.0Y-94.0
X108.0Y-46.0
X108.0Y-47.0
X108.0Y-93.0
X108.0Y-94.0
X109.0Y-46.0
X109.0Y-47.0
X109.0Y-93.0
X109.0Y-94.0
X110.0Y-46.0
X110.0Y-47.0
X110.0Y-93.0
X110.0Y-94.0
X111.0Y-46.0
X111.0Y-47.0
X111.0Y-93.0
X111.0Y-94.0
X111.0Y-94.0
X112.0Y-46.0
X112.0Y-47.0
X112.0Y-93.0
X112.0Y-94.0
X113.0Y-46.0
X113.0Y-47.0
X113.0Y-93.0
X113.0Y-94.0
X114.0Y-46.0
X114.0Y-47.0
X114.0Y-93.0
X114.0Y-94.0
X115.0Y-46.0
X115.0Y-47.0
X115.0Y-93.0
X115.0Y-94.0
X116.0Y-46.0
X116.0Y-47.0
X116.0Y-93.0
X116.0Y-94.0
X117.0Y-46.0
X117.0Y-47.0
X117.0Y-93.0
X117.0Y-94.0
X118.0Y-46.0
X118.0Y-47.0
X118.0Y-93.0
X118.0Y-94.0
X119.0Y-46.0
X119.0Y-47.0
X119.0Y-93.0
X119.0Y-94.0
X120.0Y-46.0
X120.0Y-47.0
X120.0Y-93.0
X120.0Y-94.0
X121.0Y-46.0
X121.0Y-47.0
X121.0Y-93.0
X121.0Y-94.0
X122.0Y-46.0
X122.0Y-47.0
X122.0Y-93.0
X122.0Y-94.0
X128.0Y-53.0
X128.0Y-54.0
X128.0Y-55.0
X128.0Y-56.0
X128.0Y-57.0
X128.0Y-58.0
X128.0Y-59.0
X128.0Y-60.0
X128.0Y-61.0
X128.0Y-62.0
X128.0Y-63.0
X128.0Y-64.0
X128.0Y-65.0
X128.0Y-66.0
X128.0Y-67.0
X128.0Y-68.0
X128.0Y-69.0
X128.0Y-70.0
X128.0Y-71.0
X128.0Y-72.0
X128.0Y-73.0
X128.0Y-74.0
X128.0Y-74.0
X128.0Y-75.0
X128.0Y-75.0
X128.0Y-76.0
X128.0Y-76.0
X128.0Y-77.0
X128.0Y-77.0
X128.0Y-78.0
X128.0Y-78.0
X128.0Y-79.0
X128.0Y-79.0
X128.0Y-80.0
X128.0Y-80.0
X128.0Y-81.0
X128.0Y-81.0
X128.0Y-82.0
X128.0Y-82.0
X128.0Y-83.0
X128.0Y-83.0
X128.0Y-84.0
X128.0Y-84.0
X128.0Y-85.0
X128.0Y-85.0
X128.0Y-86.0
X128.0Y-86.0
X128.0Y-87.0
X128.0Y-87.0
X129.0Y-53.0
X129.0Y-54.0
X129.0Y-55.0
X129.0Y-56.0
X129.0Y-57.0
X129.0Y-58.0
X129.0Y-59.0
X129.0Y-60.0
X129.0Y-61.0
X129.0Y-62.0
X129.0Y-63.0
X129.0Y-64.0
X129.0Y-65.0
X129.0Y-66.0
X129.0Y-67.0
X129.0Y-68.0
X129.0Y-69.0
X129.0Y-70.0
X129.0Y-71.0
X129.0Y-72.0
X129.0Y-73.0
X129.0Y-74.0
X129.0Y-75.0
X129.0Y-76.0
X129.0Y-77.0
X129.0Y-78.0
X129.0Y-79.0
X129.0Y-80.0
X129.0Y-81.0
X129.0Y-82.0
X129.0Y-83.0
X129.0Y-84.0
X129.0Y-85.0
X129.0Y-86.0
X129.0Y-87.0
T2
X95.0Y-68.0
X95.0Y-69.0
X95.0Y-70.0
X95.0Y-71.0
X95.0Y-72.0
X95.0Y-73.0
X95.0Y-74.0
X95.0Y-75.0
X95.0Y-76.0
X95.0Y-77.0
X95.0Y-78.0
X95.0Y-79.0
X95.0Y-80.0
X95.0Y-81.0
X95.0Y-82.0
X96.0Y-67.0
X96.0Y-83.0
X97.0Y-67.0
X97.0Y-84.0
X97.0Y-85.0
X98.0Y-67.0
X99.0Y-67.0
X100.0Y-68.0
X100.0Y-69.0
X100.0Y-70.0
X100.0Y-71.0
X100.0Y-72.0
X100.0Y-73.0
X100.0Y-74.0
X100.0Y-75.0
X100.0Y-76.0
X100.0Y-77.0
X100.0Y-78.0
X100.0Y-79.0
X100.0Y-80.0
X101.0Y-81.0
X102.0Y-82.0
X102.0Y-83.0
X102.0Y-84.0
X102.0Y-85.0
X102.0Y-86.0
X102.5Y-49.0
X102.5Y-51.0
X102.5Y-53.0
X102.5Y-55.0
X102.5Y-57.0
X104.5Y-49.0
X106.5Y-49.0
X108.5Y-49.0
X110.5Y-49.0
X111.5Y-51.0
X111.5Y-53.0
X111.5Y-55.0
X111.5Y-57.0
T3
X117.0Y-83.0
X117.0Y-83.0
X117.0Y-85.46
X117.0Y-88.08
X117.0Y-88.1
X119.54Y-85.54
T4
X97.475Y-50.475
X97.475Y-69.525
X107.0Y-69.525
X114.46Y-85.62
X116.525Y-50.475
X116.525Y-69.525
X117.0Y-78.0
X117.0Y-90.7
T5
X125.25Y-67.96
X125.25Y-70.5
T6
X97.46Y-87.46
X97.46Y-92.54
X100.0Y-90.0
X102.54Y-87.46
X102.54Y-92.54
T7
X84.0Y-49.0
X84.0Y-91.0
X126.0Y-49.0
X126.0Y-91.0
M30
