M48
;DRILL file {KiCad 4.0.7} date 12/31/17 15:11:40
;FORMAT={3:3/ absolute / metric / suppress leading zeros}
FMAT,2
METRIC,TZ
T1C0.400
T2C0.800
T3C1.000
T4C1.200
T5C1.300
T6C3.200
%
G90
G05
M71
T1
X82500Y-52500
X82500Y-60000
X82500Y-67500
X82500Y-75000
X82500Y-82500
X84000Y-91000
X87500Y-92500
X92500Y-47500
X95000Y-68000
X95000Y-70000
X95000Y-72000
X95000Y-74000
X95000Y-76000
X95000Y-78000
X95000Y-80000
X95000Y-82000
X95000Y-92500
X96000Y-67000
X96000Y-83000
X97000Y-85000
X98000Y-67000
X100000Y-47500
X100000Y-68000
X100000Y-70000
X100000Y-72000
X100000Y-74000
X100000Y-76000
X100000Y-78000
X100000Y-80000
X102000Y-82000
X102500Y-49000
X102500Y-51000
X102500Y-53000
X102500Y-55000
X102500Y-57000
X103000Y-83000
X103000Y-85000
X104500Y-49000
X105000Y-92500
X106500Y-49000
X107500Y-47500
X108500Y-49000
X110500Y-49000
X111500Y-51000
X111500Y-53000
X111500Y-55000
X111500Y-57000
X112500Y-92500
X115000Y-47500
X120000Y-92500
X122500Y-47500
X127500Y-57500
X127500Y-65000
X127500Y-72500
X127500Y-80000
X127500Y-87500
T2
X97475Y-50475
X97475Y-69525
X107000Y-69525
X116525Y-50475
X116525Y-69525
X117000Y-83000
X117000Y-83000
X117000Y-85460
X117000Y-88080
X117000Y-88100
X119540Y-85540
T3
X114460Y-85620
X117000Y-78000
X117000Y-90700
T4
X125250Y-67960
X125250Y-70500
T5
X97460Y-87460
X97460Y-92540
X100000Y-90000
X102540Y-87460
X102540Y-92540
T6
X84000Y-49000
X84000Y-91000
X126000Y-49000
X126000Y-91000
T0
M30
