G04 #@! TF.FileFunction,Soldermask,Top*
%FSLAX46Y46*%
G04 Gerber Fmt 4.6, Leading zero omitted, Abs format (unit mm)*
G04 Created by KiCad (PCBNEW 4.0.7) date 12/31/17 15:11:22*
%MOMM*%
%LPD*%
G01*
G04 APERTURE LIST*
%ADD10C,0.100000*%
%ADD11R,3.000000X2.400000*%
%ADD12O,3.000000X2.400000*%
%ADD13C,5.900000*%
%ADD14C,2.398980*%
%ADD15C,2.899360*%
%ADD16R,1.800000X4.400000*%
%ADD17R,1.900000X4.400000*%
%ADD18C,2.900000*%
%ADD19C,2.200000*%
%ADD20C,1.840000*%
%ADD21C,0.254000*%
G04 APERTURE END LIST*
D10*
D11*
X125250000Y-70500000D03*
D12*
X125250000Y-67960000D03*
D13*
X126000000Y-49000000D03*
D14*
X100000000Y-90000000D03*
D15*
X102540000Y-87460000D03*
X102540000Y-92540000D03*
X97460000Y-92540000D03*
X97460000Y-87460000D03*
D13*
X84000000Y-49000000D03*
X126000000Y-91000000D03*
X84000000Y-91000000D03*
D16*
X100000000Y-93000000D03*
D17*
X102540000Y-93000000D03*
X97460000Y-93000000D03*
D18*
X97475000Y-50475000D03*
X116525000Y-50475000D03*
X116525000Y-69525000D03*
X97475000Y-69525000D03*
X107000000Y-69525000D03*
D19*
X117000000Y-78000000D03*
X114460000Y-85620000D03*
X117000000Y-90700000D03*
D20*
X117000000Y-83000000D03*
X119540000Y-85540000D03*
X117000000Y-88080000D03*
X117000000Y-88100000D03*
X117000000Y-85460000D03*
X117000000Y-83000000D03*
D21*
G36*
X129873000Y-94873000D02*
X80127000Y-94873000D01*
X80127000Y-47500000D01*
X82373000Y-47500000D01*
X82373000Y-92500000D01*
X82383006Y-92549410D01*
X82411447Y-92591035D01*
X82453841Y-92618315D01*
X82500000Y-92627000D01*
X127500000Y-92627000D01*
X127549410Y-92616994D01*
X127591035Y-92588553D01*
X127618315Y-92546159D01*
X127627000Y-92500000D01*
X127627000Y-47500000D01*
X127616994Y-47450590D01*
X127588553Y-47408965D01*
X127546159Y-47381685D01*
X127500000Y-47373000D01*
X82500000Y-47373000D01*
X82450590Y-47383006D01*
X82408965Y-47411447D01*
X82381685Y-47453841D01*
X82373000Y-47500000D01*
X80127000Y-47500000D01*
X80127000Y-45127000D01*
X129873000Y-45127000D01*
X129873000Y-94873000D01*
X129873000Y-94873000D01*
G37*
X129873000Y-94873000D02*
X80127000Y-94873000D01*
X80127000Y-47500000D01*
X82373000Y-47500000D01*
X82373000Y-92500000D01*
X82383006Y-92549410D01*
X82411447Y-92591035D01*
X82453841Y-92618315D01*
X82500000Y-92627000D01*
X127500000Y-92627000D01*
X127549410Y-92616994D01*
X127591035Y-92588553D01*
X127618315Y-92546159D01*
X127627000Y-92500000D01*
X127627000Y-47500000D01*
X127616994Y-47450590D01*
X127588553Y-47408965D01*
X127546159Y-47381685D01*
X127500000Y-47373000D01*
X82500000Y-47373000D01*
X82450590Y-47383006D01*
X82408965Y-47411447D01*
X82381685Y-47453841D01*
X82373000Y-47500000D01*
X80127000Y-47500000D01*
X80127000Y-45127000D01*
X129873000Y-45127000D01*
X129873000Y-94873000D01*
M02*
